<?xml version="1.0" encoding="UTF-8"?>
<svg id="Camada_1" xmlns="http://www.w3.org/2000/svg" version="1.1" viewBox="0 0 1578.9 204">
  <!-- Generator: Adobe Illustrator 30.0.0, SVG Export Plug-In . SVG Version: 2.1.1 Build 123)  -->
  <defs>
    <style>
      .st0 {
        fill: #212168;
      }

      .st1 {
        fill: #d9d9ff;
      }

      .st2 {
        fill: #4e27c4;
      }

      .st3 {
        fill: #9f9ff4;
      }

      .st4 {
        fill: #c9c9f4;
      }

      .st5 {
        fill: #cbcaff;
      }

      .st6 {
        fill: #e7e6ff;
      }

      .st7 {
        fill: #e9e9ff;
      }

      .st8 {
        fill: #7764ff;
      }

      .st9 {
        fill: #2b1977;
      }

      .st10 {
        fill: #8b79f2;
      }

      .st11 {
        fill: #6363a5;
      }
    </style>
  </defs>
  <path class="st0" d="M906.4,175.7c-6.2,0-12.1-2.8-16-7.6s-5.4-11.1-4.2-17.2l22.2-119.8c.3-1.5.8-2.9,1.4-4.3l.3-1.7c2-9.6,10.5-16.1,17.2-16.1h626.3c8.2,0,14.1,2.4,18.2,7.4h0c3.8,4.8,5.2,10.8,4.1,16.7v.6c0,1.8,0,3.7-.4,5.5l-17.2,119.8h0c-1.9,9.7-10.4,16.6-20.2,16.6h-631.7Z"/>
  <path class="st0" d="M1553.7,10.9c8.1,0,13.3,2.5,16.8,6.8,3.5,4.3,4.9,9.9,3.8,15.3v.8c0,1.7,0,3.5-.4,5.2l-17.2,119.8c-1.8,8.8-9.6,15.2-18.5,15.2h-631.7c-5.7,0-11-2.5-14.7-7-3.6-4.4-5-10.2-3.8-15.7l22.3-119.8c.3-1.4.8-2.8,1.3-4.1l.4-1.8c1.8-8.5,9.4-14.7,15.5-14.7h626.3M1553.7,7.5h-626.3c-3.9,0-8.1,1.8-11.7,5.1-3.6,3.3-6.2,7.7-7.2,12.4h0l-.3,1.5c-.6,1.4-1.1,2.9-1.4,4.4h0l-22.2,119.8c-1.3,6.6.3,13.3,4.5,18.6,4.3,5.2,10.6,8.2,17.3,8.2h631.7c10.6,0,19.8-7.6,21.9-18h0v-.2l17.2-119.7c.4-1.9.5-3.8.4-5.7v-.4c1.3-6.3-.2-12.7-4.2-17.7h0l-.3-.4c-4.4-5.4-10.8-8-19.5-8h.1Z"/>
  <path class="st10" d="M1570,23.4s-4.7-7-12.9-7h-631c-6.3,0-14.1,6.3-15.9,15.1l-22.2,119.8c-1.1,5.6.3,11.3,3.8,15.7,3.6,4.4,8.9,7,14.7,7h631.7c9,0,16.8-6.4,18.5-15.2l17.2-119.8c1.1-5.6-.3-11.3-3.9-15.6h0Z"/>
  <path class="st3" d="M1570.5,17.7c-3.5-4.3-8.7-6.8-16.8-6.8h-626.3c-6.1,0-13.7,6.2-15.5,14.7l-22.2,119.8c-1.1,5.5.2,11.1,3.8,15.4,3.5,4.3,8.7,6.8,14.3,6.8h630.9c8.8,0,16.4-6.3,18.1-14.9l17.7-119.8c1.1-5.4-.3-11-3.8-15.3h-.2,0Z"/>
  <path class="st1" d="M1538.5,168.5h-630.9c-5.8,0-11.3-2.6-15-7.1s-5.1-10.4-3.9-16.1l22.2-119.8c1.9-9.2,10-15.4,16.4-15.4h626.3c7.9,0,13.6,2.3,17.5,7.1h0c3.6,4.6,5.1,10.4,3.9,16l-17.7,119.8c-1.8,9-9.8,15.6-18.9,15.6h0ZM927.4,11.7c-5.6,0-13,5.8-14.7,14.1l-22.2,119.8c-1.1,5.2.2,10.6,3.6,14.7,3.4,4.1,8.3,6.5,13.7,6.5h630.9c8.3,0,15.6-6,17.3-14.2l17.7-119.8c1-5.2-.3-10.5-3.6-14.6h0c-3.6-4.4-8.7-6.5-16.1-6.5h-626.6Z"/>
  <g>
    <g>
      <path class="st9" d="M16.9,24.6s0,0,0,0c.3,0,.5,0,.8,0h-.8Z"/>
      <path class="st9" d="M950.9,30.3c-2.3-2.8-5.7-4.7-9.1-5.4,0,0,1-5.3,1-5.3,1.1-4.4,1-9.3-2-13.2-3-4-8.5-6.4-12.9-6.4H27.3c-4.7,0-9.1,2.1-12,5.8-2.9,3.6-3.9,8.3-2.8,12.7.3,1,1,4.3,1.6,6.6-3.2.8-6.2,2.5-8.4,5.1-3.1,3.7-4.4,8.4-3.6,13v.4c0,1.8.8,6.4,3.3,21.5,1.8,11,4.3,26.2,7.5,45.2,5.4,32.3,11.2,64.8,11.2,65.2,1.3,7.7,7.4,13.1,14.9,13.1h-.7l1.9,4.8c1.9,6.3,7.9,10.7,14.6,10.7h841.4c6.7,0,12.6-4.4,14.6-10.7l2.2-4.9h4.1c7.7,0,14.2-5.5,15.5-13.1,0-.3,5.5-32.7,10.9-64.8,3.1-18.9,5.6-33.9,7.4-44.8,2.4-14.9,3.1-19.4,3.2-21.1l.3-1.5c.8-4.6-.5-9.3-3.5-12.9ZM951.2,42.6l-.3,1.6c.3,1.5-21.5,130.6-21.5,130.6-1,6-6.2,10.3-12.3,10.3h-6.3l-3.1,7c-1.5,5-6.2,8.5-11.5,8.5H54.9c-5.3,0-9.8-3.5-11.3-8.5l-2.7-7h-1.9c-6.1,0-10.6-4.4-11.7-10.3,0,0-22.4-129.8-21.9-131.6v-.6c-.7-3.6.3-7.3,2.6-10.2,2.4-2.8,5.8-4.4,9.5-4.4h.2s-.3-1.5-.7-3.4c0,0-.1,0-.2,0h.2c-.5-2.5-1.2-5.7-1.6-6.9-1.7-7.3,3.9-14.5,11.6-14.5h901.1c7.4,0,13.7,8.4,11.6,15.9-.5,1.8-1.8,8.8-1.8,8.8h1.1c3.7,0,7.2,1.6,9.5,4.4,2.4,2.8,3.4,6.5,2.7,10.2Z"/>
    </g>
    <path class="st10" d="M948.2,38.6c-2.4-2.8-5.8-4.4-9.5-4.4h-1.3l1.6-9.7c2.2-7.5-3.1-15-11.1-15H27.1c-8,0-12.5,7.5-10.2,15.1l1.7,9.6h-1.1c-3.7,0-7.2,1.6-9.5,4.4-2.4,2.8-3.4,6.5-2.3,10.2l21.6,126.1c.6,6,5.8,10.3,11.9,10.3h1.6l2.8,7c1.5,5,6.2,8.5,11.5,8.5h841.4c5.3,0,10-3.5,11.5-8.5l3.1-7h6.3c6.1,0,11.2-4.4,12.3-10.3l21.6-126.1c.6-3.6-.4-7.3-2.7-10.2h-.4,0Z"/>
    <path class="st10" d="M16.6,19.5l27.4,167.6c1.5,5,5.7,8.5,11.1,8.5h841.4c5.3,0,10-3.5,11.5-8.5l31.6-167.6c1.8-8.1-2.7-15.1-10.6-15.1H27.3c-8,0-12.9,7.5-10.6,15.1,0,0-.1,0,0,0Z"/>
    <path class="st3" d="M948.4,32.5c-2.4-2.8-5.8-4.4-9.5-4.4h-1.3l2-9.6c2.2-7.5-3.5-15.1-11.5-15.1H27.3c-8,0-13.7,7.5-11.5,15.1l2.2,9.6h.1c-4.1,0-7.6,1.6-9.9,4.4-2.4,2.8-3.4,6.5-2.7,10.2l21.6,126.1c1,6,6.2,10.3,12.3,10.3h1.6l2.8,7c1.5,5,6.2,8.5,11.5,8.5h841.4c5.3,0,10-3.5,11.5-8.5l3.1-7h6.3c6.1,0,11.2-4.4,12.3-10.3l21.6-126.1c.6-3.6-.4-7.3-2.7-10.2h-.4,0Z"/>
    <path class="st1" d="M896.5,195.4H55.1c-5.6,0-10.7-3.7-12.3-9l-2.6-6.5h-1c-6.5,0-12-4.6-13.1-11L4.6,42.7c-.7-3.9.4-7.8,2.9-10.8,2.6-3.1,6.3-4.7,10.6-4.7h-1.2l-1.9-8.6c-1.1-3.8-.4-7.8,2-11,2.4-3.3,6.2-5.1,10.3-5.1h900.8c4.1,0,7.9,1.9,10.3,5.1,2.4,3.2,3.1,7.2,2,11l-1.7,8.6h.3c3.9,0,7.6,1.7,10.2,4.7,2.5,3,3.6,7,2.9,10.8l-21.6,126.1c-1.1,6.4-6.6,11-13.1,11h-5.7l-2.9,6.5c-1.6,5.3-6.6,9-12.3,9h0ZM18.1,28.9c-3.8,0-7.1,1.5-9.3,4.1-2.2,2.6-3.1,6.1-2.6,9.5l21.6,126.1c1,5.6,5.8,9.7,11.4,9.7h2.2l3,7.6c1.4,4.6,5.8,7.9,10.7,7.9h841.4c4.9,0,9.3-3.2,10.7-7.9h0l3.3-7.6h6.8c5.7,0,10.5-4.1,11.4-9.7l21.6-126.1c.6-3.4-.3-6.8-2.6-9.5-2.2-2.6-5.5-4.1-8.9-4.1h-2.3l2.2-10.7c1-3.3.4-6.8-1.7-9.5-2.1-2.8-5.4-4.5-9-4.5H27.3c-3.6,0-6.8,1.6-9,4.5-2.1,2.8-2.7,6.2-1.7,9.5h0l2.4,10.7s-.9,0-.9,0Z"/>
  </g>
  <path class="st7" d="M1374.3,156.7c1.8,0,3.2,1.4,3.2,3.2s-1.4,3.2-3.2,3.2-3.2-1.4-3.2-3.2,1.4-3.2,3.2-3.2Z"/>
  <path class="st11" d="M1374.3,157.6c1.6,0,3,1.3,3,3s-1.3,3-3,3-3-1.3-3-3,1.3-3,3-3Z"/>
  <path class="st4" d="M1374.3,163.3c1.5,0,2.8-1.2,2.8-2.8s-1.2-2.8-2.8-2.8-2.8,1.2-2.8,2.8,1.2,2.8,2.8,2.8ZM1374.3,163.8c-1.8,0-3.2-1.4-3.2-3.2s1.4-3.2,3.2-3.2,3.2,1.4,3.2,3.2-1.4,3.2-3.2,3.2Z"/>
  <path class="st7" d="M1372.3,148.3c1.8,0,3.2,1.4,3.2,3.2s-1.4,3.2-3.2,3.2-3.2-1.4-3.2-3.2,1.4-3.2,3.2-3.2Z"/>
  <path class="st11" d="M1372.4,149.2c-1.6,0-3,1.3-3,3s1.3,3,3,3,3-1.3,3-3-1.3-3-3-3Z"/>
  <path class="st4" d="M1372.4,154.9c1.5,0,2.8-1.2,2.8-2.8s-1.2-2.8-2.8-2.8-2.8,1.2-2.8,2.8,1.2,2.8,2.8,2.8ZM1372.4,155.4c-1.8,0-3.2-1.4-3.2-3.2s1.4-3.2,3.2-3.2,3.2,1.4,3.2,3.2-1.4,3.2-3.2,3.2Z"/>
  <path class="st7" d="M1382.5,156.7c1.8,0,3.2,1.4,3.2,3.2s-1.4,3.2-3.2,3.2-3.2-1.4-3.2-3.2,1.4-3.2,3.2-3.2Z"/>
  <path class="st11" d="M1382.6,157.6c1.6,0,3,1.3,3,3s-1.3,3-3,3-3-1.3-3-3,1.3-3,3-3Z"/>
  <path class="st4" d="M1382.6,163.3c1.5,0,2.8-1.2,2.8-2.8s-1.2-2.8-2.8-2.8-2.8,1.2-2.8,2.8,1.2,2.8,2.8,2.8ZM1382.6,163.8c-1.8,0-3.2-1.4-3.2-3.2s1.4-3.2,3.2-3.2,3.2,1.4,3.2,3.2-1.4,3.2-3.2,3.2Z"/>
  <path class="st7" d="M1380.6,148.3c1.8,0,3.2,1.4,3.2,3.2s-1.4,3.2-3.2,3.2-3.2-1.4-3.2-3.2,1.4-3.2,3.2-3.2Z"/>
  <path class="st11" d="M1380.7,149.2c-1.6,0-3,1.3-3,3s1.3,3,3,3,3-1.3,3-3-1.3-3-3-3Z"/>
  <path class="st4" d="M1380.7,154.9c1.5,0,2.8-1.2,2.8-2.8s-1.2-2.8-2.8-2.8-2.8,1.2-2.8,2.8,1.2,2.8,2.8,2.8ZM1380.7,155.4c-1.8,0-3.2-1.4-3.2-3.2s1.4-3.2,3.2-3.2,3.2,1.4,3.2,3.2-1.4,3.2-3.2,3.2Z"/>
  <path class="st7" d="M1390.8,156.7c1.8,0,3.2,1.4,3.2,3.2s-1.4,3.2-3.2,3.2-3.2-1.4-3.2-3.2,1.4-3.2,3.2-3.2Z"/>
  <path class="st11" d="M1390.9,157.6c1.7,0,3,1.3,3,3s-1.3,3-3,3-3-1.3-3-3,1.3-3,3-3Z"/>
  <path class="st4" d="M1390.9,163.3c1.5,0,2.8-1.2,2.8-2.8s-1.2-2.8-2.8-2.8-2.8,1.2-2.8,2.8,1.2,2.8,2.8,2.8ZM1390.9,163.8c-1.8,0-3.2-1.4-3.2-3.2s1.4-3.2,3.2-3.2,3.2,1.4,3.2,3.2-1.4,3.2-3.2,3.2Z"/>
  <path class="st7" d="M1388.9,148.3c1.8,0,3.2,1.4,3.2,3.2s-1.4,3.2-3.2,3.2-3.2-1.4-3.2-3.2,1.4-3.2,3.2-3.2Z"/>
  <path class="st11" d="M1389,149.2c-1.7,0-3,1.3-3,3s1.3,3,3,3,3-1.3,3-3-1.3-3-3-3Z"/>
  <path class="st4" d="M1389,154.9c1.5,0,2.8-1.2,2.8-2.8s-1.2-2.8-2.8-2.8-2.8,1.2-2.8,2.8,1.2,2.8,2.8,2.8ZM1389,155.4c-1.8,0-3.2-1.4-3.2-3.2s1.4-3.2,3.2-3.2,3.2,1.4,3.2,3.2-1.4,3.2-3.2,3.2Z"/>
  <path class="st7" d="M1399.1,156.7c1.8,0,3.2,1.4,3.2,3.2s-1.4,3.2-3.2,3.2-3.2-1.4-3.2-3.2,1.4-3.2,3.2-3.2Z"/>
  <path class="st11" d="M1399.2,157.6c1.6,0,3,1.3,3,3s-1.3,3-3,3-3-1.3-3-3,1.3-3,3-3Z"/>
  <path class="st4" d="M1399.2,163.3c1.5,0,2.8-1.2,2.8-2.8s-1.2-2.8-2.8-2.8-2.8,1.2-2.8,2.8,1.2,2.8,2.8,2.8ZM1399.2,163.8c-1.8,0-3.2-1.4-3.2-3.2s1.4-3.2,3.2-3.2,3.2,1.4,3.2,3.2-1.4,3.2-3.2,3.2Z"/>
  <path class="st7" d="M1397.1,148.3c1.8,0,3.2,1.4,3.2,3.2s-1.4,3.2-3.2,3.2-3.2-1.4-3.2-3.2,1.4-3.2,3.2-3.2Z"/>
  <path class="st11" d="M1397.2,149.2c-1.6,0-3,1.3-3,3s1.3,3,3,3,3-1.3,3-3-1.3-3-3-3Z"/>
  <path class="st4" d="M1397.2,154.9c1.5,0,2.8-1.2,2.8-2.8s-1.2-2.8-2.8-2.8-2.8,1.2-2.8,2.8,1.2,2.8,2.8,2.8ZM1397.2,155.4c-1.8,0-3.2-1.4-3.2-3.2s1.4-3.2,3.2-3.2,3.2,1.4,3.2,3.2-1.4,3.2-3.2,3.2Z"/>
  <path class="st7" d="M1407.4,156.7c1.8,0,3.2,1.4,3.2,3.2s-1.4,3.2-3.2,3.2-3.2-1.4-3.2-3.2,1.4-3.2,3.2-3.2Z"/>
  <path class="st11" d="M1407.5,157.6c1.7,0,3,1.3,3,3s-1.3,3-3,3-3-1.3-3-3,1.3-3,3-3Z"/>
  <path class="st4" d="M1407.5,163.3c1.5,0,2.8-1.2,2.8-2.8s-1.2-2.8-2.8-2.8-2.8,1.2-2.8,2.8,1.2,2.8,2.8,2.8ZM1407.5,163.8c-1.8,0-3.2-1.4-3.2-3.2s1.4-3.2,3.2-3.2,3.2,1.4,3.2,3.2-1.4,3.2-3.2,3.2Z"/>
  <path class="st7" d="M1405.4,148.3c1.8,0,3.2,1.4,3.2,3.2s-1.4,3.2-3.2,3.2-3.2-1.4-3.2-3.2,1.4-3.2,3.2-3.2Z"/>
  <path class="st11" d="M1405.5,149.2c-1.7,0-3,1.3-3,3s1.3,3,3,3,3-1.3,3-3-1.3-3-3-3Z"/>
  <path class="st4" d="M1405.5,154.9c1.5,0,2.8-1.2,2.8-2.8s-1.2-2.8-2.8-2.8-2.8,1.2-2.8,2.8,1.2,2.8,2.8,2.8ZM1405.5,155.4c-1.8,0-3.2-1.4-3.2-3.2s1.4-3.2,3.2-3.2,3.2,1.4,3.2,3.2-1.4,3.2-3.2,3.2Z"/>
  <path class="st7" d="M1415.7,156.7c1.8,0,3.2,1.4,3.2,3.2s-1.4,3.2-3.2,3.2-3.2-1.4-3.2-3.2,1.4-3.2,3.2-3.2Z"/>
  <path class="st11" d="M1415.7,157.6c1.7,0,3,1.3,3,3s-1.3,3-3,3-3-1.3-3-3,1.3-3,3-3Z"/>
  <path class="st4" d="M1415.7,163.3c1.5,0,2.8-1.2,2.8-2.8s-1.2-2.8-2.8-2.8-2.8,1.2-2.8,2.8,1.2,2.8,2.8,2.8ZM1415.7,163.8c-1.8,0-3.2-1.4-3.2-3.2s1.4-3.2,3.2-3.2,3.2,1.4,3.2,3.2-1.4,3.2-3.2,3.2Z"/>
  <path class="st7" d="M1413.7,148.3c1.8,0,3.2,1.4,3.2,3.2s-1.4,3.2-3.2,3.2-3.2-1.4-3.2-3.2,1.4-3.2,3.2-3.2Z"/>
  <path class="st11" d="M1413.8,149.2c-1.7,0-3,1.3-3,3s1.3,3,3,3,3-1.3,3-3-1.3-3-3-3Z"/>
  <path class="st4" d="M1413.8,154.9c1.5,0,2.8-1.2,2.8-2.8s-1.2-2.8-2.8-2.8-2.8,1.2-2.8,2.8,1.2,2.8,2.8,2.8ZM1413.8,155.4c-1.8,0-3.2-1.4-3.2-3.2s1.4-3.2,3.2-3.2,3.2,1.4,3.2,3.2-1.4,3.2-3.2,3.2Z"/>
  <path class="st7" d="M1424,156.7c1.8,0,3.2,1.4,3.2,3.2s-1.4,3.2-3.2,3.2-3.2-1.4-3.2-3.2,1.4-3.2,3.2-3.2Z"/>
  <path class="st11" d="M1424,157.6c1.6,0,3,1.3,3,3s-1.3,3-3,3-3-1.3-3-3,1.3-3,3-3Z"/>
  <path class="st4" d="M1424,163.3c1.5,0,2.8-1.2,2.8-2.8s-1.2-2.8-2.8-2.8-2.8,1.2-2.8,2.8,1.2,2.8,2.8,2.8ZM1424,163.8c-1.8,0-3.2-1.4-3.2-3.2s1.4-3.2,3.2-3.2,3.2,1.4,3.2,3.2-1.4,3.2-3.2,3.2Z"/>
  <path class="st7" d="M1422,148.3c1.8,0,3.2,1.4,3.2,3.2s-1.4,3.2-3.2,3.2-3.2-1.4-3.2-3.2,1.4-3.2,3.2-3.2Z"/>
  <path class="st11" d="M1422.1,149.2c-1.7,0-3,1.3-3,3s1.3,3,3,3,3-1.3,3-3-1.3-3-3-3Z"/>
  <path class="st4" d="M1422.1,154.9c1.5,0,2.8-1.2,2.8-2.8s-1.2-2.8-2.8-2.8-2.8,1.2-2.8,2.8,1.2,2.8,2.8,2.8ZM1422.1,155.4c-1.8,0-3.2-1.4-3.2-3.2s1.4-3.2,3.2-3.2,3.2,1.4,3.2,3.2-1.4,3.2-3.2,3.2Z"/>
  <path class="st7" d="M1432.2,156.7c1.8,0,3.2,1.4,3.2,3.2s-1.4,3.2-3.2,3.2-3.2-1.4-3.2-3.2,1.4-3.2,3.2-3.2Z"/>
  <path class="st11" d="M1432.3,157.6c1.6,0,3,1.3,3,3s-1.3,3-3,3-3-1.3-3-3,1.3-3,3-3Z"/>
  <path class="st4" d="M1432.3,163.3c1.5,0,2.8-1.2,2.8-2.8s-1.2-2.8-2.8-2.8-2.8,1.2-2.8,2.8,1.2,2.8,2.8,2.8ZM1432.3,163.8c-1.8,0-3.2-1.4-3.2-3.2s1.4-3.2,3.2-3.2,3.2,1.4,3.2,3.2-1.4,3.2-3.2,3.2Z"/>
  <path class="st7" d="M1430.3,148.3c1.8,0,3.2,1.4,3.2,3.2s-1.4,3.2-3.2,3.2-3.2-1.4-3.2-3.2,1.4-3.2,3.2-3.2Z"/>
  <path class="st11" d="M1430.4,149.2c-1.6,0-3,1.3-3,3s1.3,3,3,3,3-1.3,3-3-1.3-3-3-3Z"/>
  <path class="st4" d="M1430.4,154.9c1.5,0,2.8-1.2,2.8-2.8s-1.2-2.8-2.8-2.8-2.8,1.2-2.8,2.8,1.2,2.8,2.8,2.8ZM1430.4,155.4c-1.8,0-3.2-1.4-3.2-3.2s1.4-3.2,3.2-3.2,3.2,1.4,3.2,3.2-1.4,3.2-3.2,3.2Z"/>
  <path class="st7" d="M1440.5,156.7c1.8,0,3.2,1.4,3.2,3.2s-1.4,3.2-3.2,3.2-3.2-1.4-3.2-3.2,1.4-3.2,3.2-3.2Z"/>
  <path class="st11" d="M1440.6,157.6c1.7,0,3,1.3,3,3s-1.3,3-3,3-3-1.3-3-3,1.3-3,3-3Z"/>
  <path class="st4" d="M1440.6,163.3c1.5,0,2.8-1.2,2.8-2.8s-1.2-2.8-2.8-2.8-2.8,1.2-2.8,2.8,1.2,2.8,2.8,2.8ZM1440.6,163.8c-1.8,0-3.2-1.4-3.2-3.2s1.4-3.2,3.2-3.2,3.2,1.4,3.2,3.2-1.4,3.2-3.2,3.2Z"/>
  <path class="st7" d="M1438.6,148.3c1.8,0,3.2,1.4,3.2,3.2s-1.4,3.2-3.2,3.2-3.2-1.4-3.2-3.2,1.4-3.2,3.2-3.2Z"/>
  <path class="st11" d="M1438.6,149.2c-1.6,0-3,1.3-3,3s1.3,3,3,3,3-1.3,3-3-1.3-3-3-3Z"/>
  <path class="st4" d="M1438.6,154.9c1.5,0,2.8-1.2,2.8-2.8s-1.2-2.8-2.8-2.8-2.8,1.2-2.8,2.8,1.2,2.8,2.8,2.8ZM1438.6,155.4c-1.8,0-3.2-1.4-3.2-3.2s1.4-3.2,3.2-3.2,3.2,1.4,3.2,3.2-1.4,3.2-3.2,3.2Z"/>
  <path class="st7" d="M1448.8,156.7c1.8,0,3.2,1.4,3.2,3.2s-1.4,3.2-3.2,3.2-3.2-1.4-3.2-3.2,1.4-3.2,3.2-3.2Z"/>
  <path class="st11" d="M1448.9,157.6c1.7,0,3,1.3,3,3s-1.3,3-3,3-3-1.3-3-3,1.3-3,3-3Z"/>
  <path class="st4" d="M1448.9,163.3c1.5,0,2.8-1.2,2.8-2.8s-1.2-2.8-2.8-2.8-2.8,1.2-2.8,2.8,1.2,2.8,2.8,2.8ZM1448.9,163.8c-1.8,0-3.2-1.4-3.2-3.2s1.4-3.2,3.2-3.2,3.2,1.4,3.2,3.2-1.4,3.2-3.2,3.2Z"/>
  <path class="st7" d="M1446.8,148.3c1.8,0,3.2,1.4,3.2,3.2s-1.4,3.2-3.2,3.2-3.2-1.4-3.2-3.2,1.4-3.2,3.2-3.2Z"/>
  <path class="st11" d="M1446.9,149.2c-1.7,0-3,1.3-3,3s1.3,3,3,3,3-1.3,3-3-1.3-3-3-3Z"/>
  <path class="st4" d="M1446.9,154.9c1.5,0,2.8-1.2,2.8-2.8s-1.2-2.8-2.8-2.8-2.8,1.2-2.8,2.8,1.2,2.8,2.8,2.8ZM1446.9,155.4c-1.8,0-3.2-1.4-3.2-3.2s1.4-3.2,3.2-3.2,3.2,1.4,3.2,3.2-1.4,3.2-3.2,3.2Z"/>
  <path class="st7" d="M1457.1,156.7c1.8,0,3.2,1.4,3.2,3.2s-1.4,3.2-3.2,3.2-3.2-1.4-3.2-3.2,1.4-3.2,3.2-3.2Z"/>
  <path class="st11" d="M1457.2,157.6c1.7,0,3,1.3,3,3s-1.3,3-3,3-3-1.3-3-3,1.3-3,3-3Z"/>
  <path class="st4" d="M1457.2,163.3c1.5,0,2.8-1.2,2.8-2.8s-1.2-2.8-2.8-2.8-2.8,1.2-2.8,2.8,1.2,2.8,2.8,2.8ZM1457.2,163.8c-1.8,0-3.2-1.4-3.2-3.2s1.4-3.2,3.2-3.2,3.2,1.4,3.2,3.2-1.4,3.2-3.2,3.2Z"/>
  <path class="st7" d="M1455.1,148.3c1.8,0,3.2,1.4,3.2,3.2s-1.4,3.2-3.2,3.2-3.2-1.4-3.2-3.2,1.4-3.2,3.2-3.2Z"/>
  <path class="st11" d="M1455.2,149.2c-1.6,0-3,1.3-3,3s1.3,3,3,3,3-1.3,3-3-1.3-3-3-3Z"/>
  <path class="st4" d="M1455.2,154.9c1.5,0,2.8-1.2,2.8-2.8s-1.2-2.8-2.8-2.8-2.8,1.2-2.8,2.8,1.2,2.8,2.8,2.8ZM1455.2,155.4c-1.8,0-3.2-1.4-3.2-3.2s1.4-3.2,3.2-3.2,3.2,1.4,3.2,3.2-1.4,3.2-3.2,3.2Z"/>
  <path class="st7" d="M1465.3,156.7c1.8,0,3.2,1.4,3.2,3.2s-1.4,3.2-3.2,3.2-3.2-1.4-3.2-3.2,1.4-3.2,3.2-3.2Z"/>
  <path class="st11" d="M1465.4,157.6c1.6,0,3,1.3,3,3s-1.3,3-3,3-3-1.3-3-3,1.3-3,3-3Z"/>
  <path class="st4" d="M1465.4,163.3c1.5,0,2.8-1.2,2.8-2.8s-1.2-2.8-2.8-2.8-2.8,1.2-2.8,2.8,1.2,2.8,2.8,2.8ZM1465.4,163.8c-1.8,0-3.2-1.4-3.2-3.2s1.4-3.2,3.2-3.2,3.2,1.4,3.2,3.2-1.4,3.2-3.2,3.2Z"/>
  <path class="st7" d="M1463.4,148.3c1.8,0,3.2,1.4,3.2,3.2s-1.4,3.2-3.2,3.2-3.2-1.4-3.2-3.2,1.4-3.2,3.2-3.2Z"/>
  <path class="st11" d="M1463.5,149.2c-1.7,0-3,1.3-3,3s1.3,3,3,3,3-1.3,3-3-1.3-3-3-3Z"/>
  <path class="st4" d="M1463.5,154.9c1.5,0,2.8-1.2,2.8-2.8s-1.2-2.8-2.8-2.8-2.8,1.2-2.8,2.8,1.2,2.8,2.8,2.8ZM1463.5,155.4c-1.8,0-3.2-1.4-3.2-3.2s1.4-3.2,3.2-3.2,3.2,1.4,3.2,3.2-1.4,3.2-3.2,3.2Z"/>
  <path class="st7" d="M1473.6,156.7c1.8,0,3.2,1.4,3.2,3.2s-1.4,3.2-3.2,3.2-3.2-1.4-3.2-3.2,1.4-3.2,3.2-3.2Z"/>
  <path class="st11" d="M1473.7,157.6c1.7,0,3,1.3,3,3s-1.3,3-3,3-3-1.3-3-3,1.3-3,3-3Z"/>
  <path class="st4" d="M1473.7,163.3c1.5,0,2.8-1.2,2.8-2.8s-1.2-2.8-2.8-2.8-2.8,1.2-2.8,2.8,1.2,2.8,2.8,2.8ZM1473.7,163.8c-1.8,0-3.2-1.4-3.2-3.2s1.4-3.2,3.2-3.2,3.2,1.4,3.2,3.2-1.4,3.2-3.2,3.2Z"/>
  <path class="st7" d="M1471.7,148.3c1.8,0,3.2,1.4,3.2,3.2s-1.4,3.2-3.2,3.2-3.2-1.4-3.2-3.2,1.4-3.2,3.2-3.2Z"/>
  <path class="st11" d="M1471.8,149.2c-1.7,0-3,1.3-3,3s1.3,3,3,3,3-1.3,3-3-1.3-3-3-3Z"/>
  <path class="st4" d="M1471.8,154.9c1.5,0,2.8-1.2,2.8-2.8s-1.2-2.8-2.8-2.8-2.8,1.2-2.8,2.8,1.2,2.8,2.8,2.8ZM1471.8,155.4c-1.8,0-3.2-1.4-3.2-3.2s1.4-3.2,3.2-3.2,3.2,1.4,3.2,3.2-1.4,3.2-3.2,3.2Z"/>
  <path class="st7" d="M1481.9,156.7c1.8,0,3.2,1.4,3.2,3.2s-1.4,3.2-3.2,3.2-3.2-1.4-3.2-3.2,1.4-3.2,3.2-3.2Z"/>
  <path class="st11" d="M1482,157.6c1.6,0,3,1.3,3,3s-1.3,3-3,3-3-1.3-3-3,1.3-3,3-3Z"/>
  <path class="st4" d="M1482,163.3c1.5,0,2.8-1.2,2.8-2.8s-1.2-2.8-2.8-2.8-2.8,1.2-2.8,2.8,1.2,2.8,2.8,2.8ZM1482,163.8c-1.8,0-3.2-1.4-3.2-3.2s1.4-3.2,3.2-3.2,3.2,1.4,3.2,3.2-1.4,3.2-3.2,3.2Z"/>
  <path class="st7" d="M1480,148.3c1.8,0,3.2,1.4,3.2,3.2s-1.4,3.2-3.2,3.2-3.2-1.4-3.2-3.2,1.4-3.2,3.2-3.2Z"/>
  <path class="st11" d="M1480.1,149.2c-1.7,0-3,1.3-3,3s1.3,3,3,3,3-1.3,3-3-1.3-3-3-3Z"/>
  <path class="st4" d="M1480.1,154.9c1.5,0,2.8-1.2,2.8-2.8s-1.2-2.8-2.8-2.8-2.8,1.2-2.8,2.8,1.2,2.8,2.8,2.8ZM1480.1,155.4c-1.8,0-3.2-1.4-3.2-3.2s1.4-3.2,3.2-3.2,3.2,1.4,3.2,3.2-1.4,3.2-3.2,3.2Z"/>
  <path class="st7" d="M1490.2,156.7c1.8,0,3.2,1.4,3.2,3.2s-1.4,3.2-3.2,3.2-3.2-1.4-3.2-3.2,1.4-3.2,3.2-3.2Z"/>
  <path class="st11" d="M1490.3,157.6c1.6,0,3,1.3,3,3s-1.3,3-3,3-3-1.3-3-3,1.3-3,3-3Z"/>
  <path class="st4" d="M1490.3,163.3c1.5,0,2.8-1.2,2.8-2.8s-1.2-2.8-2.8-2.8-2.8,1.2-2.8,2.8,1.2,2.8,2.8,2.8ZM1490.3,163.8c-1.8,0-3.2-1.4-3.2-3.2s1.4-3.2,3.2-3.2,3.2,1.4,3.2,3.2-1.4,3.2-3.2,3.2Z"/>
  <path class="st7" d="M1488.2,148.3c1.8,0,3.2,1.4,3.2,3.2s-1.4,3.2-3.2,3.2-3.2-1.4-3.2-3.2,1.4-3.2,3.2-3.2Z"/>
  <path class="st11" d="M1488.3,149.2c-1.6,0-3,1.3-3,3s1.3,3,3,3,3-1.3,3-3-1.3-3-3-3Z"/>
  <path class="st4" d="M1488.3,154.9c1.5,0,2.8-1.2,2.8-2.8s-1.2-2.8-2.8-2.8-2.8,1.2-2.8,2.8,1.2,2.8,2.8,2.8ZM1488.3,155.4c-1.8,0-3.2-1.4-3.2-3.2s1.4-3.2,3.2-3.2,3.2,1.4,3.2,3.2-1.4,3.2-3.2,3.2Z"/>
  <path class="st7" d="M1498.5,156.7c1.8,0,3.2,1.4,3.2,3.2s-1.4,3.2-3.2,3.2-3.2-1.4-3.2-3.2,1.4-3.2,3.2-3.2Z"/>
  <path class="st11" d="M1498.6,157.6c1.6,0,3,1.3,3,3s-1.3,3-3,3-3-1.3-3-3,1.3-3,3-3Z"/>
  <path class="st4" d="M1498.6,163.3c1.5,0,2.8-1.2,2.8-2.8s-1.2-2.8-2.8-2.8-2.8,1.2-2.8,2.8,1.2,2.8,2.8,2.8ZM1498.6,163.8c-1.8,0-3.2-1.4-3.2-3.2s1.4-3.2,3.2-3.2,3.2,1.4,3.2,3.2-1.4,3.2-3.2,3.2Z"/>
  <path class="st7" d="M1496.5,148.3c1.8,0,3.2,1.4,3.2,3.2s-1.4,3.2-3.2,3.2-3.2-1.4-3.2-3.2,1.4-3.2,3.2-3.2Z"/>
  <path class="st11" d="M1496.6,149.2c-1.6,0-3,1.3-3,3s1.3,3,3,3,3-1.3,3-3-1.3-3-3-3Z"/>
  <path class="st4" d="M1496.6,154.9c1.5,0,2.8-1.2,2.8-2.8s-1.2-2.8-2.8-2.8-2.8,1.2-2.8,2.8,1.2,2.8,2.8,2.8ZM1496.6,155.4c-1.8,0-3.2-1.4-3.2-3.2s1.4-3.2,3.2-3.2,3.2,1.4,3.2,3.2-1.4,3.2-3.2,3.2Z"/>
  <path class="st7" d="M1506.8,156.7c1.8,0,3.2,1.4,3.2,3.2s-1.4,3.2-3.2,3.2-3.2-1.4-3.2-3.2,1.4-3.2,3.2-3.2Z"/>
  <path class="st11" d="M1506.8,157.6c1.7,0,3,1.3,3,3s-1.3,3-3,3-3-1.3-3-3,1.3-3,3-3Z"/>
  <path class="st4" d="M1506.8,163.3c1.5,0,2.8-1.2,2.8-2.8s-1.2-2.8-2.8-2.8-2.8,1.2-2.8,2.8,1.2,2.8,2.8,2.8ZM1506.8,163.8c-1.8,0-3.2-1.4-3.2-3.2s1.4-3.2,3.2-3.2,3.2,1.4,3.2,3.2-1.4,3.2-3.2,3.2Z"/>
  <path class="st7" d="M1504.8,148.3c1.8,0,3.2,1.4,3.2,3.2s-1.4,3.2-3.2,3.2-3.2-1.4-3.2-3.2,1.4-3.2,3.2-3.2Z"/>
  <path class="st11" d="M1504.9,149.2c-1.6,0-3,1.3-3,3s1.3,3,3,3,3-1.3,3-3-1.3-3-3-3Z"/>
  <path class="st4" d="M1504.9,154.9c1.5,0,2.8-1.2,2.8-2.8s-1.2-2.8-2.8-2.8-2.8,1.2-2.8,2.8,1.2,2.8,2.8,2.8ZM1504.9,155.4c-1.8,0-3.2-1.4-3.2-3.2s1.4-3.2,3.2-3.2,3.2,1.4,3.2,3.2-1.4,3.2-3.2,3.2Z"/>
  <path class="st7" d="M1515,156.7c1.8,0,3.2,1.4,3.2,3.2s-1.4,3.2-3.2,3.2-3.2-1.4-3.2-3.2,1.4-3.2,3.2-3.2Z"/>
  <path class="st11" d="M1515.1,157.6c1.7,0,3,1.3,3,3s-1.3,3-3,3-3-1.3-3-3,1.3-3,3-3Z"/>
  <path class="st4" d="M1515.1,163.3c1.5,0,2.8-1.2,2.8-2.8s-1.2-2.8-2.8-2.8-2.8,1.2-2.8,2.8,1.2,2.8,2.8,2.8ZM1515.1,163.8c-1.8,0-3.2-1.4-3.2-3.2s1.4-3.2,3.2-3.2,3.2,1.4,3.2,3.2-1.4,3.2-3.2,3.2Z"/>
  <path class="st7" d="M1513.1,148.3c1.8,0,3.2,1.4,3.2,3.2s-1.4,3.2-3.2,3.2-3.2-1.4-3.2-3.2,1.4-3.2,3.2-3.2Z"/>
  <path class="st11" d="M1513.2,149.2c-1.6,0-3,1.3-3,3s1.3,3,3,3,3-1.3,3-3-1.3-3-3-3Z"/>
  <path class="st4" d="M1513.2,154.9c1.5,0,2.8-1.2,2.8-2.8s-1.2-2.8-2.8-2.8-2.8,1.2-2.8,2.8,1.2,2.8,2.8,2.8ZM1513.2,155.4c-1.8,0-3.2-1.4-3.2-3.2s1.4-3.2,3.2-3.2,3.2,1.4,3.2,3.2-1.4,3.2-3.2,3.2Z"/>
  <path class="st7" d="M1523.3,156.7c1.8,0,3.2,1.4,3.2,3.2s-1.4,3.2-3.2,3.2-3.2-1.4-3.2-3.2,1.4-3.2,3.2-3.2Z"/>
  <path class="st11" d="M1523.4,157.6c1.7,0,3,1.3,3,3s-1.3,3-3,3-3-1.3-3-3,1.3-3,3-3Z"/>
  <path class="st4" d="M1523.4,163.3c1.5,0,2.8-1.2,2.8-2.8s-1.2-2.8-2.8-2.8-2.8,1.2-2.8,2.8,1.2,2.8,2.8,2.8ZM1523.4,163.8c-1.8,0-3.2-1.4-3.2-3.2s1.4-3.2,3.2-3.2,3.2,1.4,3.2,3.2-1.4,3.2-3.2,3.2Z"/>
  <path class="st7" d="M1521.4,148.3c1.8,0,3.2,1.4,3.2,3.2s-1.4,3.2-3.2,3.2-3.2-1.4-3.2-3.2,1.4-3.2,3.2-3.2Z"/>
  <path class="st11" d="M1521.5,149.2c-1.7,0-3,1.3-3,3s1.3,3,3,3,3-1.3,3-3-1.3-3-3-3Z"/>
  <path class="st4" d="M1521.5,154.9c1.5,0,2.8-1.2,2.8-2.8s-1.2-2.8-2.8-2.8-2.8,1.2-2.8,2.8,1.2,2.8,2.8,2.8ZM1521.5,155.4c-1.8,0-3.2-1.4-3.2-3.2s1.4-3.2,3.2-3.2,3.2,1.4,3.2,3.2-1.4,3.2-3.2,3.2Z"/>
  <path class="st7" d="M1531.6,156.7c1.8,0,3.2,1.4,3.2,3.2s-1.4,3.2-3.2,3.2-3.2-1.4-3.2-3.2,1.4-3.2,3.2-3.2Z"/>
  <path class="st11" d="M1531.7,157.6c1.6,0,3,1.3,3,3s-1.3,3-3,3-3-1.3-3-3,1.3-3,3-3Z"/>
  <path class="st4" d="M1531.7,163.3c1.5,0,2.8-1.2,2.8-2.8s-1.2-2.8-2.8-2.8-2.8,1.2-2.8,2.8,1.2,2.8,2.8,2.8ZM1531.7,163.8c-1.8,0-3.2-1.4-3.2-3.2s1.4-3.2,3.2-3.2,3.2,1.4,3.2,3.2-1.4,3.2-3.2,3.2Z"/>
  <path class="st7" d="M1529.7,148.3c1.8,0,3.2,1.4,3.2,3.2s-1.4,3.2-3.2,3.2-3.2-1.4-3.2-3.2,1.4-3.2,3.2-3.2Z"/>
  <path class="st11" d="M1529.7,149.2c-1.7,0-3,1.3-3,3s1.3,3,3,3,3-1.3,3-3-1.3-3-3-3Z"/>
  <path class="st4" d="M1529.7,154.9c1.5,0,2.8-1.2,2.8-2.8s-1.2-2.8-2.8-2.8-2.8,1.2-2.8,2.8,1.2,2.8,2.8,2.8ZM1529.7,155.4c-1.8,0-3.2-1.4-3.2-3.2s1.4-3.2,3.2-3.2,3.2,1.4,3.2,3.2-1.4,3.2-3.2,3.2Z"/>
  <path class="st7" d="M1105.5,156.4c1.8,0,3.2,1.4,3.2,3.2s-1.4,3.2-3.2,3.2-3.2-1.4-3.2-3.2,1.4-3.2,3.2-3.2Z"/>
  <path class="st11" d="M1105.5,157.3c1.6,0,3,1.3,3,3s-1.3,3-3,3-3-1.3-3-3,1.3-3,3-3Z"/>
  <path class="st4" d="M1105.5,163c1.5,0,2.8-1.2,2.8-2.8s-1.2-2.8-2.8-2.8-2.8,1.2-2.8,2.8,1.2,2.8,2.8,2.8ZM1105.5,163.4c-1.8,0-3.2-1.4-3.2-3.2s1.4-3.2,3.2-3.2,3.2,1.4,3.2,3.2-1.4,3.2-3.2,3.2Z"/>
  <path class="st7" d="M1107.5,148c1.8,0,3.2,1.4,3.2,3.2s-1.4,3.2-3.2,3.2-3.2-1.4-3.2-3.2,1.4-3.2,3.2-3.2Z"/>
  <path class="st11" d="M1107.4,148.9c1.6,0,3,1.3,3,3s-1.3,3-3,3-3-1.3-3-3,1.3-3,3-3Z"/>
  <path class="st4" d="M1107.4,154.6c1.5,0,2.8-1.2,2.8-2.8s-1.2-2.8-2.8-2.8-2.8,1.2-2.8,2.8,1.2,2.8,2.8,2.8ZM1107.4,155.1c-1.8,0-3.2-1.4-3.2-3.2s1.4-3.2,3.2-3.2,3.2,1.4,3.2,3.2-1.4,3.2-3.2,3.2Z"/>
  <path class="st7" d="M1097.3,156.4c1.8,0,3.2,1.4,3.2,3.2s-1.4,3.2-3.2,3.2-3.2-1.4-3.2-3.2,1.4-3.2,3.2-3.2Z"/>
  <path class="st11" d="M1097.2,157.3c1.6,0,3,1.3,3,3s-1.3,3-3,3-3-1.3-3-3,1.3-3,3-3Z"/>
  <path class="st4" d="M1097.2,163c1.5,0,2.8-1.2,2.8-2.8s-1.2-2.8-2.8-2.8-2.8,1.2-2.8,2.8,1.2,2.8,2.8,2.8ZM1097.2,163.4c-1.8,0-3.2-1.4-3.2-3.2s1.4-3.2,3.2-3.2,3.2,1.4,3.2,3.2-1.4,3.2-3.2,3.2Z"/>
  <path class="st7" d="M1099.2,148c1.8,0,3.2,1.4,3.2,3.2s-1.4,3.2-3.2,3.2-3.2-1.4-3.2-3.2,1.4-3.2,3.2-3.2Z"/>
  <path class="st11" d="M1099.1,148.9c1.6,0,3,1.3,3,3s-1.3,3-3,3-3-1.3-3-3,1.3-3,3-3Z"/>
  <path class="st4" d="M1099.1,154.6c1.5,0,2.8-1.2,2.8-2.8s-1.2-2.8-2.8-2.8-2.8,1.2-2.8,2.8,1.2,2.8,2.8,2.8ZM1099.1,155.1c-1.8,0-3.2-1.4-3.2-3.2s1.4-3.2,3.2-3.2,3.2,1.4,3.2,3.2-1.4,3.2-3.2,3.2Z"/>
  <path class="st7" d="M1089,156.4c1.8,0,3.2,1.4,3.2,3.2s-1.4,3.2-3.2,3.2-3.2-1.4-3.2-3.2,1.4-3.2,3.2-3.2Z"/>
  <path class="st11" d="M1088.9,157.3c1.6,0,3,1.3,3,3s-1.3,3-3,3-3-1.3-3-3,1.3-3,3-3Z"/>
  <path class="st4" d="M1088.9,163c1.5,0,2.8-1.2,2.8-2.8s-1.2-2.8-2.8-2.8-2.8,1.2-2.8,2.8,1.2,2.8,2.8,2.8ZM1088.9,163.4c-1.8,0-3.2-1.4-3.2-3.2s1.4-3.2,3.2-3.2,3.2,1.4,3.2,3.2-1.4,3.2-3.2,3.2Z"/>
  <path class="st7" d="M1090.9,148c1.8,0,3.2,1.4,3.2,3.2s-1.4,3.2-3.2,3.2-3.2-1.4-3.2-3.2,1.4-3.2,3.2-3.2Z"/>
  <path class="st11" d="M1090.8,148.9c1.6,0,3,1.3,3,3s-1.3,3-3,3-3-1.3-3-3,1.3-3,3-3Z"/>
  <path class="st4" d="M1090.8,154.6c1.5,0,2.8-1.2,2.8-2.8s-1.2-2.8-2.8-2.8-2.8,1.2-2.8,2.8,1.2,2.8,2.8,2.8ZM1090.8,155.1c-1.8,0-3.2-1.4-3.2-3.2s1.4-3.2,3.2-3.2,3.2,1.4,3.2,3.2-1.4,3.2-3.2,3.2Z"/>
  <path class="st7" d="M1080.7,156.4c1.8,0,3.2,1.4,3.2,3.2s-1.4,3.2-3.2,3.2-3.2-1.4-3.2-3.2,1.4-3.2,3.2-3.2Z"/>
  <path class="st11" d="M1080.6,157.3c1.6,0,3,1.3,3,3s-1.3,3-3,3-3-1.3-3-3,1.3-3,3-3Z"/>
  <path class="st4" d="M1080.6,163c1.5,0,2.8-1.2,2.8-2.8s-1.2-2.8-2.8-2.8-2.8,1.2-2.8,2.8,1.2,2.8,2.8,2.8ZM1080.6,163.4c-1.8,0-3.2-1.4-3.2-3.2s1.4-3.2,3.2-3.2,3.2,1.4,3.2,3.2-1.4,3.2-3.2,3.2Z"/>
  <path class="st7" d="M1082.7,148c1.8,0,3.2,1.4,3.2,3.2s-1.4,3.2-3.2,3.2-3.2-1.4-3.2-3.2,1.4-3.2,3.2-3.2Z"/>
  <path class="st11" d="M1082.6,148.9c1.6,0,3,1.3,3,3s-1.3,3-3,3-3-1.3-3-3,1.3-3,3-3Z"/>
  <path class="st4" d="M1082.6,154.6c1.5,0,2.8-1.2,2.8-2.8s-1.2-2.8-2.8-2.8-2.8,1.2-2.8,2.8,1.2,2.8,2.8,2.8ZM1082.6,155.1c-1.8,0-3.2-1.4-3.2-3.2s1.4-3.2,3.2-3.2,3.2,1.4,3.2,3.2-1.4,3.2-3.2,3.2Z"/>
  <path class="st7" d="M1072.4,156.4c1.8,0,3.2,1.4,3.2,3.2s-1.4,3.2-3.2,3.2-3.2-1.4-3.2-3.2,1.4-3.2,3.2-3.2Z"/>
  <path class="st11" d="M1072.3,157.3c1.6,0,3,1.3,3,3s-1.3,3-3,3-3-1.3-3-3,1.3-3,3-3Z"/>
  <path class="st4" d="M1072.3,163c1.5,0,2.8-1.2,2.8-2.8s-1.2-2.8-2.8-2.8-2.8,1.2-2.8,2.8,1.2,2.8,2.8,2.8ZM1072.3,163.4c-1.8,0-3.2-1.4-3.2-3.2s1.4-3.2,3.2-3.2,3.2,1.4,3.2,3.2-1.4,3.2-3.2,3.2Z"/>
  <path class="st7" d="M1074.4,148c1.8,0,3.2,1.4,3.2,3.2s-1.4,3.2-3.2,3.2-3.2-1.4-3.2-3.2,1.4-3.2,3.2-3.2Z"/>
  <path class="st11" d="M1074.3,148.9c1.6,0,3,1.3,3,3s-1.3,3-3,3-3-1.3-3-3,1.3-3,3-3Z"/>
  <path class="st4" d="M1074.3,154.6c1.5,0,2.8-1.2,2.8-2.8s-1.2-2.8-2.8-2.8-2.8,1.2-2.8,2.8,1.2,2.8,2.8,2.8ZM1074.3,155.1c-1.8,0-3.2-1.4-3.2-3.2s1.4-3.2,3.2-3.2,3.2,1.4,3.2,3.2-1.4,3.2-3.2,3.2Z"/>
  <path class="st7" d="M1064.1,156.4c1.8,0,3.2,1.4,3.2,3.2s-1.4,3.2-3.2,3.2-3.2-1.4-3.2-3.2,1.4-3.2,3.2-3.2Z"/>
  <path class="st11" d="M1064,157.3c1.6,0,3,1.3,3,3s-1.3,3-3,3-3-1.3-3-3,1.3-3,3-3Z"/>
  <path class="st4" d="M1064,163c1.5,0,2.8-1.2,2.8-2.8s-1.2-2.8-2.8-2.8-2.8,1.2-2.8,2.8,1.2,2.8,2.8,2.8ZM1064,163.4c-1.8,0-3.2-1.4-3.2-3.2s1.4-3.2,3.2-3.2,3.2,1.4,3.2,3.2-1.4,3.2-3.2,3.2Z"/>
  <path class="st7" d="M1066.1,148c1.8,0,3.2,1.4,3.2,3.2s-1.4,3.2-3.2,3.2-3.2-1.4-3.2-3.2,1.4-3.2,3.2-3.2Z"/>
  <path class="st11" d="M1066,148.9c1.6,0,3,1.3,3,3s-1.3,3-3,3-3-1.3-3-3,1.3-3,3-3Z"/>
  <path class="st4" d="M1066,154.6c1.5,0,2.8-1.2,2.8-2.8s-1.2-2.8-2.8-2.8-2.8,1.2-2.8,2.8,1.2,2.8,2.8,2.8ZM1066,155.1c-1.8,0-3.2-1.4-3.2-3.2s1.4-3.2,3.2-3.2,3.2,1.4,3.2,3.2-1.4,3.2-3.2,3.2Z"/>
  <path class="st7" d="M1055.9,156.4c1.8,0,3.2,1.4,3.2,3.2s-1.4,3.2-3.2,3.2-3.2-1.4-3.2-3.2,1.4-3.2,3.2-3.2Z"/>
  <path class="st11" d="M1055.8,157.3c1.6,0,3,1.3,3,3s-1.3,3-3,3-3-1.3-3-3,1.3-3,3-3Z"/>
  <path class="st4" d="M1055.8,163c1.5,0,2.8-1.2,2.8-2.8s-1.2-2.8-2.8-2.8-2.8,1.2-2.8,2.8,1.2,2.8,2.8,2.8ZM1055.8,163.4c-1.8,0-3.2-1.4-3.2-3.2s1.4-3.2,3.2-3.2,3.2,1.4,3.2,3.2-1.4,3.2-3.2,3.2Z"/>
  <path class="st7" d="M1057.8,148c1.8,0,3.2,1.4,3.2,3.2s-1.4,3.2-3.2,3.2-3.2-1.4-3.2-3.2,1.4-3.2,3.2-3.2Z"/>
  <path class="st11" d="M1057.7,148.9c1.6,0,3,1.3,3,3s-1.3,3-3,3-3-1.3-3-3,1.3-3,3-3Z"/>
  <path class="st4" d="M1057.7,154.6c1.5,0,2.8-1.2,2.8-2.8s-1.2-2.8-2.8-2.8-2.8,1.2-2.8,2.8,1.2,2.8,2.8,2.8ZM1057.7,155.1c-1.8,0-3.2-1.4-3.2-3.2s1.4-3.2,3.2-3.2,3.2,1.4,3.2,3.2-1.4,3.2-3.2,3.2Z"/>
  <path class="st7" d="M1047.6,156.4c1.8,0,3.2,1.4,3.2,3.2s-1.4,3.2-3.2,3.2-3.2-1.4-3.2-3.2,1.4-3.2,3.2-3.2Z"/>
  <path class="st11" d="M1047.5,157.3c1.6,0,3,1.3,3,3s-1.3,3-3,3-3-1.3-3-3,1.3-3,3-3Z"/>
  <path class="st4" d="M1047.5,163c1.5,0,2.8-1.2,2.8-2.8s-1.2-2.8-2.8-2.8-2.8,1.2-2.8,2.8,1.2,2.8,2.8,2.8ZM1047.5,163.4c-1.8,0-3.2-1.4-3.2-3.2s1.4-3.2,3.2-3.2,3.2,1.4,3.2,3.2-1.4,3.2-3.2,3.2Z"/>
  <path class="st7" d="M1049.5,148c1.8,0,3.2,1.4,3.2,3.2s-1.4,3.2-3.2,3.2-3.2-1.4-3.2-3.2,1.4-3.2,3.2-3.2Z"/>
  <path class="st11" d="M1049.4,148.9c1.6,0,3,1.3,3,3s-1.3,3-3,3-3-1.3-3-3,1.3-3,3-3Z"/>
  <path class="st4" d="M1049.4,154.6c1.5,0,2.8-1.2,2.8-2.8s-1.2-2.8-2.8-2.8-2.8,1.2-2.8,2.8,1.2,2.8,2.8,2.8ZM1049.4,155.1c-1.8,0-3.2-1.4-3.2-3.2s1.4-3.2,3.2-3.2,3.2,1.4,3.2,3.2-1.4,3.2-3.2,3.2Z"/>
  <path class="st7" d="M1039.3,156.4c1.8,0,3.2,1.4,3.2,3.2s-1.4,3.2-3.2,3.2-3.2-1.4-3.2-3.2,1.4-3.2,3.2-3.2Z"/>
  <path class="st11" d="M1039.2,157.3c1.6,0,3,1.3,3,3s-1.3,3-3,3-3-1.3-3-3,1.3-3,3-3Z"/>
  <path class="st4" d="M1039.2,163c1.5,0,2.8-1.2,2.8-2.8s-1.2-2.8-2.8-2.8-2.8,1.2-2.8,2.8,1.2,2.8,2.8,2.8ZM1039.2,163.4c-1.8,0-3.2-1.4-3.2-3.2s1.4-3.2,3.2-3.2,3.2,1.4,3.2,3.2-1.4,3.2-3.2,3.2Z"/>
  <path class="st7" d="M1041.2,148c1.8,0,3.2,1.4,3.2,3.2s-1.4,3.2-3.2,3.2-3.2-1.4-3.2-3.2,1.4-3.2,3.2-3.2Z"/>
  <path class="st11" d="M1041.2,148.9c1.6,0,3,1.3,3,3s-1.3,3-3,3-3-1.3-3-3,1.3-3,3-3Z"/>
  <path class="st4" d="M1041.2,154.6c1.5,0,2.8-1.2,2.8-2.8s-1.2-2.8-2.8-2.8-2.8,1.2-2.8,2.8,1.2,2.8,2.8,2.8ZM1041.2,155.1c-1.8,0-3.2-1.4-3.2-3.2s1.4-3.2,3.2-3.2,3.2,1.4,3.2,3.2-1.4,3.2-3.2,3.2Z"/>
  <path class="st7" d="M1031,156.4c1.8,0,3.2,1.4,3.2,3.2s-1.4,3.2-3.2,3.2-3.2-1.4-3.2-3.2,1.4-3.2,3.2-3.2Z"/>
  <path class="st11" d="M1030.9,157.3c1.6,0,3,1.3,3,3s-1.3,3-3,3-3-1.3-3-3,1.3-3,3-3Z"/>
  <path class="st4" d="M1030.9,163c1.5,0,2.8-1.2,2.8-2.8s-1.2-2.8-2.8-2.8-2.8,1.2-2.8,2.8,1.2,2.8,2.8,2.8ZM1030.9,163.4c-1.8,0-3.2-1.4-3.2-3.2s1.4-3.2,3.2-3.2,3.2,1.4,3.2,3.2-1.4,3.2-3.2,3.2Z"/>
  <path class="st7" d="M1033,148c1.8,0,3.2,1.4,3.2,3.2s-1.4,3.2-3.2,3.2-3.2-1.4-3.2-3.2,1.4-3.2,3.2-3.2Z"/>
  <path class="st11" d="M1032.9,148.9c1.6,0,3,1.3,3,3s-1.3,3-3,3-3-1.3-3-3,1.3-3,3-3Z"/>
  <path class="st4" d="M1032.9,154.6c1.5,0,2.8-1.2,2.8-2.8s-1.2-2.8-2.8-2.8-2.8,1.2-2.8,2.8,1.2,2.8,2.8,2.8ZM1032.9,155.1c-1.8,0-3.2-1.4-3.2-3.2s1.4-3.2,3.2-3.2,3.2,1.4,3.2,3.2-1.4,3.2-3.2,3.2Z"/>
  <path class="st7" d="M1022.7,156.4c1.8,0,3.2,1.4,3.2,3.2s-1.4,3.2-3.2,3.2-3.2-1.4-3.2-3.2,1.4-3.2,3.2-3.2Z"/>
  <path class="st11" d="M1022.6,157.3c1.6,0,3,1.3,3,3s-1.3,3-3,3-3-1.3-3-3,1.3-3,3-3Z"/>
  <path class="st4" d="M1022.6,163c1.5,0,2.8-1.2,2.8-2.8s-1.2-2.8-2.8-2.8-2.8,1.2-2.8,2.8,1.2,2.8,2.8,2.8ZM1022.6,163.4c-1.8,0-3.2-1.4-3.2-3.2s1.4-3.2,3.2-3.2,3.2,1.4,3.2,3.2-1.4,3.2-3.2,3.2Z"/>
  <path class="st7" d="M1024.7,148c1.8,0,3.2,1.4,3.2,3.2s-1.4,3.2-3.2,3.2-3.2-1.4-3.2-3.2,1.4-3.2,3.2-3.2Z"/>
  <path class="st11" d="M1024.6,148.9c1.6,0,3,1.3,3,3s-1.3,3-3,3-3-1.3-3-3,1.3-3,3-3Z"/>
  <path class="st4" d="M1024.6,154.6c1.5,0,2.8-1.2,2.8-2.8s-1.2-2.8-2.8-2.8-2.8,1.2-2.8,2.8,1.2,2.8,2.8,2.8ZM1024.6,155.1c-1.8,0-3.2-1.4-3.2-3.2s1.4-3.2,3.2-3.2,3.2,1.4,3.2,3.2-1.4,3.2-3.2,3.2Z"/>
  <path class="st7" d="M1014.4,156.4c1.8,0,3.2,1.4,3.2,3.2s-1.4,3.2-3.2,3.2-3.2-1.4-3.2-3.2,1.4-3.2,3.2-3.2Z"/>
  <path class="st11" d="M1014.4,157.3c1.6,0,3,1.3,3,3s-1.3,3-3,3-3-1.3-3-3,1.3-3,3-3Z"/>
  <path class="st4" d="M1014.4,163c1.5,0,2.8-1.2,2.8-2.8s-1.2-2.8-2.8-2.8-2.8,1.2-2.8,2.8,1.2,2.8,2.8,2.8ZM1014.4,163.4c-1.8,0-3.2-1.4-3.2-3.2s1.4-3.2,3.2-3.2,3.2,1.4,3.2,3.2-1.4,3.2-3.2,3.2Z"/>
  <path class="st7" d="M1016.4,148c1.8,0,3.2,1.4,3.2,3.2s-1.4,3.2-3.2,3.2-3.2-1.4-3.2-3.2,1.4-3.2,3.2-3.2Z"/>
  <path class="st11" d="M1016.3,148.9c1.6,0,3,1.3,3,3s-1.3,3-3,3-3-1.3-3-3,1.3-3,3-3Z"/>
  <path class="st4" d="M1016.3,154.6c1.5,0,2.8-1.2,2.8-2.8s-1.2-2.8-2.8-2.8-2.8,1.2-2.8,2.8,1.2,2.8,2.8,2.8ZM1016.3,155.1c-1.8,0-3.2-1.4-3.2-3.2s1.4-3.2,3.2-3.2,3.2,1.4,3.2,3.2-1.4,3.2-3.2,3.2Z"/>
  <path class="st7" d="M1006.2,156.4c1.8,0,3.2,1.4,3.2,3.2s-1.4,3.2-3.2,3.2-3.2-1.4-3.2-3.2,1.4-3.2,3.2-3.2Z"/>
  <path class="st11" d="M1006.1,157.3c1.6,0,3,1.3,3,3s-1.3,3-3,3-3-1.3-3-3,1.3-3,3-3Z"/>
  <path class="st4" d="M1006.1,163c1.5,0,2.8-1.2,2.8-2.8s-1.2-2.8-2.8-2.8-2.8,1.2-2.8,2.8,1.2,2.8,2.8,2.8ZM1006.1,163.4c-1.8,0-3.2-1.4-3.2-3.2s1.4-3.2,3.2-3.2,3.2,1.4,3.2,3.2-1.4,3.2-3.2,3.2Z"/>
  <path class="st7" d="M1008.1,148c1.8,0,3.2,1.4,3.2,3.2s-1.4,3.2-3.2,3.2-3.2-1.4-3.2-3.2,1.4-3.2,3.2-3.2Z"/>
  <path class="st11" d="M1008,148.9c1.6,0,3,1.3,3,3s-1.3,3-3,3-3-1.3-3-3,1.3-3,3-3Z"/>
  <path class="st4" d="M1008,154.6c1.5,0,2.8-1.2,2.8-2.8s-1.2-2.8-2.8-2.8-2.8,1.2-2.8,2.8,1.2,2.8,2.8,2.8ZM1008,155.1c-1.8,0-3.2-1.4-3.2-3.2s1.4-3.2,3.2-3.2,3.2,1.4,3.2,3.2-1.4,3.2-3.2,3.2Z"/>
  <path class="st7" d="M997.9,156.4c1.8,0,3.2,1.4,3.2,3.2s-1.4,3.2-3.2,3.2-3.2-1.4-3.2-3.2,1.4-3.2,3.2-3.2Z"/>
  <path class="st11" d="M997.8,157.3c1.6,0,3,1.3,3,3s-1.3,3-3,3-3-1.3-3-3,1.3-3,3-3Z"/>
  <path class="st4" d="M997.8,163c1.5,0,2.8-1.2,2.8-2.8s-1.2-2.8-2.8-2.8-2.8,1.2-2.8,2.8,1.2,2.8,2.8,2.8ZM997.8,163.4c-1.8,0-3.2-1.4-3.2-3.2s1.4-3.2,3.2-3.2,3.2,1.4,3.2,3.2-1.4,3.2-3.2,3.2Z"/>
  <path class="st7" d="M999.8,148c1.8,0,3.2,1.4,3.2,3.2s-1.4,3.2-3.2,3.2-3.2-1.4-3.2-3.2,1.4-3.2,3.2-3.2h0Z"/>
  <path class="st11" d="M999.7,148.9c1.6,0,3,1.3,3,3s-1.3,3-3,3-3-1.3-3-3,1.3-3,3-3Z"/>
  <path class="st4" d="M999.7,154.6c1.5,0,2.8-1.2,2.8-2.8s-1.2-2.8-2.8-2.8-2.8,1.2-2.8,2.8,1.2,2.8,2.8,2.8h0ZM999.7,155.1c-1.8,0-3.2-1.4-3.2-3.2s1.4-3.2,3.2-3.2,3.2,1.4,3.2,3.2-1.4,3.2-3.2,3.2h0Z"/>
  <path class="st7" d="M989.6,156.4c1.8,0,3.2,1.4,3.2,3.2s-1.4,3.2-3.2,3.2-3.2-1.4-3.2-3.2,1.4-3.2,3.2-3.2Z"/>
  <path class="st11" d="M989.5,157.3c1.6,0,3,1.3,3,3s-1.3,3-3,3-3-1.3-3-3,1.3-3,3-3Z"/>
  <path class="st4" d="M989.5,163c1.5,0,2.8-1.2,2.8-2.8s-1.2-2.8-2.8-2.8-2.8,1.2-2.8,2.8,1.2,2.8,2.8,2.8ZM989.5,163.4c-1.8,0-3.2-1.4-3.2-3.2s1.4-3.2,3.2-3.2,3.2,1.4,3.2,3.2-1.4,3.2-3.2,3.2Z"/>
  <path class="st7" d="M991.6,148c1.8,0,3.2,1.4,3.2,3.2s-1.4,3.2-3.2,3.2-3.2-1.4-3.2-3.2,1.4-3.2,3.2-3.2Z"/>
  <path class="st11" d="M991.5,148.9c1.6,0,3,1.3,3,3s-1.3,3-3,3-3-1.3-3-3,1.3-3,3-3Z"/>
  <path class="st4" d="M991.5,154.6c1.5,0,2.8-1.2,2.8-2.8s-1.2-2.8-2.8-2.8-2.8,1.2-2.8,2.8,1.2,2.8,2.8,2.8ZM991.5,155.1c-1.8,0-3.2-1.4-3.2-3.2s1.4-3.2,3.2-3.2,3.2,1.4,3.2,3.2-1.4,3.2-3.2,3.2Z"/>
  <path class="st7" d="M981.3,156.4c1.8,0,3.2,1.4,3.2,3.2s-1.4,3.2-3.2,3.2-3.2-1.4-3.2-3.2,1.4-3.2,3.2-3.2Z"/>
  <path class="st11" d="M981.2,157.3c1.6,0,3,1.3,3,3s-1.3,3-3,3-3-1.3-3-3,1.3-3,3-3Z"/>
  <path class="st4" d="M981.2,163c1.5,0,2.8-1.2,2.8-2.8s-1.2-2.8-2.8-2.8-2.8,1.2-2.8,2.8,1.2,2.8,2.8,2.8ZM981.2,163.4c-1.8,0-3.2-1.4-3.2-3.2s1.4-3.2,3.2-3.2,3.2,1.4,3.2,3.2-1.4,3.2-3.2,3.2Z"/>
  <path class="st7" d="M983.3,148c1.8,0,3.2,1.4,3.2,3.2s-1.4,3.2-3.2,3.2-3.2-1.4-3.2-3.2,1.4-3.2,3.2-3.2Z"/>
  <path class="st11" d="M983.2,148.9c1.6,0,3,1.3,3,3s-1.3,3-3,3-3-1.3-3-3,1.3-3,3-3Z"/>
  <path class="st4" d="M983.2,154.6c1.5,0,2.8-1.2,2.8-2.8s-1.2-2.8-2.8-2.8-2.8,1.2-2.8,2.8,1.2,2.8,2.8,2.8ZM983.2,155.1c-1.8,0-3.2-1.4-3.2-3.2s1.4-3.2,3.2-3.2,3.2,1.4,3.2,3.2-1.4,3.2-3.2,3.2Z"/>
  <path class="st7" d="M973,156.4c1.8,0,3.2,1.4,3.2,3.2s-1.4,3.2-3.2,3.2-3.2-1.4-3.2-3.2,1.4-3.2,3.2-3.2Z"/>
  <path class="st11" d="M973,157.3c1.6,0,3,1.3,3,3s-1.3,3-3,3-3-1.3-3-3,1.3-3,3-3Z"/>
  <path class="st4" d="M973,163c1.5,0,2.8-1.2,2.8-2.8s-1.2-2.8-2.8-2.8-2.8,1.2-2.8,2.8,1.2,2.8,2.8,2.8ZM973,163.4c-1.8,0-3.2-1.4-3.2-3.2s1.4-3.2,3.2-3.2,3.2,1.4,3.2,3.2-1.4,3.2-3.2,3.2Z"/>
  <path class="st7" d="M975,148c1.8,0,3.2,1.4,3.2,3.2s-1.4,3.2-3.2,3.2-3.2-1.4-3.2-3.2,1.4-3.2,3.2-3.2Z"/>
  <path class="st11" d="M974.9,148.9c1.6,0,3,1.3,3,3s-1.3,3-3,3-3-1.3-3-3,1.3-3,3-3Z"/>
  <path class="st4" d="M974.9,154.6c1.5,0,2.8-1.2,2.8-2.8s-1.2-2.8-2.8-2.8-2.8,1.2-2.8,2.8,1.2,2.8,2.8,2.8ZM974.9,155.1c-1.8,0-3.2-1.4-3.2-3.2s1.4-3.2,3.2-3.2,3.2,1.4,3.2,3.2-1.4,3.2-3.2,3.2Z"/>
  <path class="st7" d="M964.8,156.4c1.8,0,3.2,1.4,3.2,3.2s-1.4,3.2-3.2,3.2-3.2-1.4-3.2-3.2,1.4-3.2,3.2-3.2Z"/>
  <path class="st11" d="M964.7,157.3c1.6,0,3,1.3,3,3s-1.3,3-3,3-3-1.3-3-3,1.3-3,3-3Z"/>
  <path class="st4" d="M964.7,163c1.5,0,2.8-1.2,2.8-2.8s-1.2-2.8-2.8-2.8-2.8,1.2-2.8,2.8,1.2,2.8,2.8,2.8ZM964.7,163.4c-1.8,0-3.2-1.4-3.2-3.2s1.4-3.2,3.2-3.2,3.2,1.4,3.2,3.2-1.4,3.2-3.2,3.2Z"/>
  <path class="st7" d="M966.7,148c1.8,0,3.2,1.4,3.2,3.2s-1.4,3.2-3.2,3.2-3.2-1.4-3.2-3.2,1.4-3.2,3.2-3.2Z"/>
  <path class="st11" d="M966.6,148.9c1.6,0,3,1.3,3,3s-1.3,3-3,3-3-1.3-3-3,1.3-3,3-3Z"/>
  <path class="st4" d="M966.6,154.6c1.5,0,2.8-1.2,2.8-2.8s-1.2-2.8-2.8-2.8-2.8,1.2-2.8,2.8,1.2,2.8,2.8,2.8ZM966.6,155.1c-1.8,0-3.2-1.4-3.2-3.2s1.4-3.2,3.2-3.2,3.2,1.4,3.2,3.2-1.4,3.2-3.2,3.2Z"/>
  <path class="st7" d="M956.5,156.4c1.8,0,3.2,1.4,3.2,3.2s-1.4,3.2-3.2,3.2-3.2-1.4-3.2-3.2,1.4-3.2,3.2-3.2Z"/>
  <path class="st11" d="M956.4,157.3c1.6,0,3,1.3,3,3s-1.3,3-3,3-3-1.3-3-3,1.3-3,3-3Z"/>
  <path class="st4" d="M956.4,163c1.5,0,2.8-1.2,2.8-2.8s-1.2-2.8-2.8-2.8-2.8,1.2-2.8,2.8,1.2,2.8,2.8,2.8ZM956.4,163.4c-1.8,0-3.2-1.4-3.2-3.2s1.4-3.2,3.2-3.2,3.2,1.4,3.2,3.2-1.4,3.2-3.2,3.2Z"/>
  <path class="st7" d="M958.4,148c1.8,0,3.2,1.4,3.2,3.2s-1.4,3.2-3.2,3.2-3.2-1.4-3.2-3.2,1.4-3.2,3.2-3.2Z"/>
  <path class="st11" d="M958.3,148.9c1.6,0,3,1.3,3,3s-1.3,3-3,3-3-1.3-3-3,1.3-3,3-3Z"/>
  <path class="st4" d="M958.3,154.6c1.5,0,2.8-1.2,2.8-2.8s-1.2-2.8-2.8-2.8-2.8,1.2-2.8,2.8,1.2,2.8,2.8,2.8ZM958.3,155.1c-1.8,0-3.2-1.4-3.2-3.2s1.4-3.2,3.2-3.2,3.2,1.4,3.2,3.2-1.4,3.2-3.2,3.2Z"/>
  <path class="st7" d="M948.2,156.4c1.8,0,3.2,1.4,3.2,3.2s-1.4,3.2-3.2,3.2-3.2-1.4-3.2-3.2,1.4-3.2,3.2-3.2Z"/>
  <path class="st11" d="M948.1,157.3c1.6,0,3,1.3,3,3s-1.3,3-3,3-3-1.3-3-3,1.3-3,3-3Z"/>
  <path class="st4" d="M948.1,163c1.5,0,2.8-1.2,2.8-2.8s-1.2-2.8-2.8-2.8-2.8,1.2-2.8,2.8,1.2,2.8,2.8,2.8ZM948.1,163.4c-1.8,0-3.2-1.4-3.2-3.2s1.4-3.2,3.2-3.2,3.2,1.4,3.2,3.2-1.4,3.2-3.2,3.2Z"/>
  <path class="st7" d="M950.2,148c1.8,0,3.2,1.4,3.2,3.2s-1.4,3.2-3.2,3.2-3.2-1.4-3.2-3.2,1.4-3.2,3.2-3.2Z"/>
  <path class="st11" d="M950.1,148.9c1.6,0,3,1.3,3,3s-1.3,3-3,3-3-1.3-3-3,1.3-3,3-3Z"/>
  <path class="st4" d="M950.1,154.6c1.5,0,2.8-1.2,2.8-2.8s-1.2-2.8-2.8-2.8-2.8,1.2-2.8,2.8,1.2,2.8,2.8,2.8ZM950.1,155.1c-1.8,0-3.2-1.4-3.2-3.2s1.4-3.2,3.2-3.2,3.2,1.4,3.2,3.2-1.4,3.2-3.2,3.2Z"/>
  <g>
    <path class="st2" d="M950.6,143.8c-1.1,0-2.3-.3-3.2-1-1.5-1.2-2.2-3.1-1.8-4.9l19.9-110.5c.5-2.2,2.5-3.9,4.8-3.9l277.8-.4c1,0,1.8.4,2.3,1,.5.7.7,1.7.4,2.7h0l-9.6,45.1c-.2,1.3-1.4,2.3-2.7,2.3h-100.9c-10.6,0-20.6,4.2-28.1,11.8-7.5,7.6-11.6,17.7-11.6,28.3s2.6,16.6,7.6,23.4,2.6,4,3.1,4.8c.3.4.5.7.8,1.1h0c0,.1-158.8.1-158.8.1h0Z"/>
    <path class="st5" d="M1248.2,22.2c3,0,4.2,2.5,3.6,4.8l-9.6,45.1c-.3,1.7-1.8,2.9-3.5,2.9h-100.9c-21.5,0-38.9,17.8-38.9,39.3s2.6,16.8,7.3,23.3,3.8,5.1,4.1,5.5c.5.7,0,1.6-.8,1.6h-159c-3.6,0-6.4-3.3-5.6-6.9l19.9-110.5c.6-2.7,2.9-4.6,5.6-4.6l277.8-.4M1248.2,20.9l-277.8.4c-3.3,0-6.2,2.4-6.9,5.6h0l-19.9,110.5c-.5,2.4.3,4.9,2.1,6.6s3.2,1.9,5,1.9h158.8c1.1,0,2-.7,2.2-1.8s0-1.4-.5-1.9-3.3-4.2-3.3-4.2c-5.3-6.7-7.7-15.1-7.7-23.6s3.9-19.6,11-26.8,16.5-11.2,26.6-11.2h100.9c2.4,0,4.4-1.6,4.8-3.9l9.5-45c.4-1.6,0-3.3-.8-4.5s-2.4-1.9-4.1-1.9h0v-.2h.1Z"/>
    <path class="st8" d="M950.7,129.9l-1.6,8.6h0c0,.7,0,1.1.3,1.3s.5.5,1.1.5h153.3c-1.2-1.5-4.1-6.1-5.2-9l-1,2.6c-.7,1-1.8,1.5-3,1.5h-139.7c-1.7,0-3.2-1.2-3.5-2.9l-.5-2.6h-.2Z"/>
    <path class="st8" d="M1245.6,35.9l1.7-7.1c.3-1.2-.6-2.3-1.8-2.3l-275.1.4c-.7,0-1.2.5-1.4,1.1l-1.7,8.4,2-2.3c2.4-1.9,3.3-3,6.3-3h264c4,0,4.9,1.3,6,4.7h0Z"/>
    <path class="st2" d="M1374.4,143.4c-.3,0-.5-.2-.5-.3v-.6c7.5-7.5,11.7-17.5,11.7-28.2,0-21.9-17.8-39.8-39.7-39.8h-85.9c-.5,0-.9-.2-1.2-.6-.3-.4-.4-.8-.3-1.3l9.7-47.1c.3-1.5,1.4-2.5,2.6-2.5h283c1.6,0,3.2.7,4.2,1.9,1,1.2,1.5,2.9,1.2,4.5l-17.6,107.6c-.6,2.8-2.3,6.2-6.9,6.2h-160.3v.2h0Z"/>
    <path class="st9" d="M1270.8,24.1h283c1.4,0,2.7.6,3.5,1.6.9,1,1.3,2.4,1,3.8l-17.6,107.6c-.8,3.6-2.8,5.5-6.1,5.5h-159.6c7.4-7.6,11.4-17.6,11.4-28.3,0-22.4-18.2-40.6-40.6-40.6h-85.9c-.3,0-.4-.2-.5-.2,0,0-.2-.3,0-.5l9.7-47c.3-1.1,1-1.8,1.8-1.8M1270.8,22.3c-1.7,0-3,1.3-3.5,3.2l-9.7,47.1c-.3,1.5.8,2.9,2.3,2.9h85.9c21.5,0,38.9,17.4,38.9,38.9s-4.4,20.5-11.4,27.6c-.9.9-.3,2.4,1,2.4h160.3c4.5,0,6.9-2.9,7.8-6.9l17.6-107.6c.6-3.9-2.4-7.4-6.3-7.4h-283v-.2h0Z"/>
    <path class="st5" d="M1270.8,22.3h283c3.9,0,6.9,3.5,6.3,7.4l-17.6,107.6c-.8,4-3.3,6.9-7.8,6.9h-160.3c-1.3,0-1.9-1.5-1-2.4,7.1-7,11.4-16.8,11.4-27.6,0-21.5-17.4-38.9-38.9-38.9h-85.9c-1.5,0-2.6-1.4-2.3-2.9l9.7-47.1c.4-1.8,1.8-3.2,3.5-3.2M1270.8,21c-2.2,0-4.1,1.7-4.7,4.2h0l-9.7,47.1c-.2,1.1,0,2.2.8,3.1.7.9,1.7,1.4,2.8,1.4h85.9c20.7,0,37.6,16.9,37.6,37.6s-3.9,19.5-11,26.6c-.8.8-1,2-.6,3s1.4,1.7,2.5,1.7h160.3c4.7,0,8-2.9,9-7.9h0l17.6-107.6c.4-2.2-.3-4.5-1.7-6.2-1.5-1.7-3.6-2.7-5.8-2.7h-283v-.3h0Z"/>
    <path class="st8" d="M1554.4,36.2l1.4-7.1c0-.8-.2-1.4-.5-1.7-.2-.3-.7-.7-1.6-.7h-280.2c-1.2,0-2.3.8-2.6,2l-1.6,6.5,1.9-2.4c.8-1,2.1-1.6,3.4-1.6h276.6c1.3,0,2.5,1,2.7,2.3l.5,2.7h0Z"/>
    <path class="st8" d="M1386.2,130.4c-1.1,3.7-4.5,8.1-5.6,9.6h154c.9,0,2.8,0,3.5-3.4l1-5.2-1.4,2.3c-1.3,1.1-2.9,1.7-4.7,1.7h-144.1c-1.3,0-2.4-.9-2.7-2.2v-2.9h0Z"/>
    <path class="st9" d="M1346.5,84c-10,0-18.8,4.9-24.2,12.4h-3.9c-5.4-7.5-14.3-12.4-24.2-12.4s-18.8,4.9-24.2,12.4h-3.5c-5.4-7.5-14.3-12.4-24.2-12.4s-18.8,4.9-24.2,12.4h-3.5c-5.4-7.5-14.3-12.4-24.2-12.4s-18.8,4.9-24.2,12.4h-3.5c-5.4-7.5-14.3-12.4-24.2-12.4-16.5,0-29.9,13.4-29.9,30s13.4,30,29.9,30,18.8-4.9,24.2-12.4h3.5c5.4,7.5,14.3,12.4,24.2,12.4s18.8-4.9,24.2-12.4h3.5c5.4,7.5,14.3,12.4,24.2,12.4s18.8-4.9,24.2-12.4h3.5c5.4,7.5,14.3,12.4,24.2,12.4s18.8-4.9,24.2-12.4h3.9c5.4,7.5,14.3,12.4,24.2,12.4,16.5,0,29.9-13.4,29.9-30s-13.4-30-29.9-30Z"/>
    <path class="st6" d="M1346.5,84c16.5,0,29.9,13.4,29.9,30s-13.4,30-29.9,30-18.8-4.9-24.2-12.4h-3.9c-5.4,7.5-14.3,12.4-24.2,12.4s-18.8-4.9-24.2-12.4h-3.5c-5.4,7.5-14.3,12.4-24.2,12.4s-18.8-4.9-24.2-12.4h-3.5c-5.4,7.5-14.3,12.4-24.2,12.4s-18.8-4.9-24.2-12.4h-3.5c-5.4,7.5-14.3,12.4-24.2,12.4-16.5,0-29.9-13.4-29.9-30s13.4-30,29.9-30,18.8,4.9,24.2,12.4h3.5c5.4-7.5,14.3-12.4,24.2-12.4s18.8,4.9,24.2,12.4h3.5c5.4-7.5,14.3-12.4,24.2-12.4s18.8,4.9,24.2,12.4h3.5c5.4-7.5,14.3-12.4,24.2-12.4s18.8,4.9,24.2,12.4h3.9c5.4-7.5,14.3-12.4,24.2-12.4ZM1346.5,81.9c-9.8,0-19.2,4.6-25.2,12.4h-1.9c-6-7.8-15.4-12.4-25.2-12.4s-19.2,4.6-25.2,12.4h-1.4c-6-7.8-15.4-12.4-25.2-12.4s-19.2,4.6-25.2,12.4h-1.4c-6-7.8-15.4-12.4-25.2-12.4s-19.2,4.6-25.2,12.4h-1.4c-6-7.8-15.4-12.4-25.2-12.4-17.6,0-32,14.4-32,32s14.3,32,32,32,19.2-4.6,25.2-12.4h1.4c6,7.8,15.4,12.4,25.2,12.4s19.2-4.6,25.2-12.4h1.4c6,7.8,15.4,12.4,25.2,12.4s19.2-4.6,25.2-12.4h1.4c6,7.8,15.4,12.4,25.2,12.4s19.2-4.6,25.2-12.4h1.9c6,7.8,15.4,12.4,25.2,12.4,17.6,0,32-14.4,32-32s-14.3-32-32-32Z"/>
  </g>
  <path class="st9" d="M964.8,27.2l-19.9,110.5v1.3c0,3,2.5,5.6,5.7,5.6h159c.4,0,.7-.2.9-.6v-1h0c-.6-.8-3.5-4.7-4-5.5-4.7-6.4-7.2-14.6-7.3-23.2h0c0-21.5,17.4-39.3,38.9-39.3h100.9c1.7,0,3.2-1.2,3.5-2.9l9.6-45.1c0-.4.2-.9.2-1.3,0-1.8-1.4-3.5-3.8-3.5h0l-277.8.4c-2.7,0-5.1,1.9-5.6,4.6h-.3ZM970.4,24.4l277.8-.4h0c.7,0,1.3.2,1.7.7.4.5.5,1.2.3,1.9h0l-9.6,45.1h0c-.2.9-.9,1.5-1.8,1.5h-100.9c-10.8,0-21,4.2-28.7,12.1-7.7,7.8-11.9,18.1-11.9,28.9s2.6,17.3,7.6,24.3c.6.8,2.7,3.6,3.2,4.3h-157.4c-.9,0-1.9-.3-2.6-.8-1.2-1-1.8-2.5-1.5-4h0l19.9-110.5c.4-1.8,2-3.2,3.9-3.2h0Z"/>
</svg>