<?xml version="1.0" encoding="UTF-8"?>
<svg id="Camada_1" xmlns="http://www.w3.org/2000/svg" version="1.1" viewBox="0 0 1446 204">
  <!-- Generator: Adobe Illustrator 30.0.0, SVG Export Plug-In . SVG Version: 2.1.1 Build 123)  -->
  <defs>
    <style>
      .st0 {
        fill: #212168;
      }

      .st1 {
        fill: #d9d9ff;
      }

      .st2 {
        fill: #4e27c4;
      }

      .st3 {
        fill: #9f9ff4;
      }

      .st4 {
        fill: #c9c9f4;
      }

      .st5 {
        fill: #cbcaff;
      }

      .st6 {
        fill: #e7e6ff;
      }

      .st7 {
        fill: #e9e9ff;
      }

      .st8 {
        fill: #7764ff;
      }

      .st9 {
        fill: #2b1977;
      }

      .st10 {
        fill: #8b79f2;
      }

      .st11 {
        fill: #6363a5;
      }
    </style>
  </defs>
  <path class="st0" d="M773.5,175.7c-6.2,0-12.1-2.8-16-7.6-3.9-4.8-5.4-11.1-4.2-17.2l22.2-119.8c.3-1.5.8-2.9,1.4-4.3l.3-1.7c2-9.6,10.5-16.1,17.2-16.1h626.3c8.2,0,14.1,2.4,18.2,7.4h0c3.8,4.8,5.2,10.8,4.1,16.7v.6c0,1.8,0,3.7-.4,5.5l-17.2,119.8h0c-1.9,9.7-10.4,16.6-20.2,16.6h-631.7Z"/>
  <path class="st0" d="M1420.8,10.9c8.1,0,13.3,2.5,16.8,6.8,3.5,4.3,4.9,9.9,3.8,15.3v.8c0,1.7,0,3.5-.4,5.2l-17.2,119.8c-1.8,8.8-9.6,15.2-18.5,15.2h-631.7c-5.7,0-11-2.5-14.7-7-3.6-4.4-5-10.2-3.8-15.7l22.3-119.8c.3-1.4.8-2.8,1.3-4.1l.4-1.8c1.8-8.5,9.4-14.7,15.5-14.7h626.3M1420.8,7.5h-626.3c-3.9,0-8.1,1.8-11.7,5.1-3.6,3.3-6.2,7.7-7.2,12.4h0s0,0,0,0l-.3,1.5c-.6,1.4-1.1,2.9-1.4,4.4h0s0,0,0,0l-22.2,119.8c-1.3,6.6.3,13.3,4.5,18.6,4.3,5.2,10.6,8.2,17.3,8.2h631.7c10.6,0,19.8-7.6,21.9-18h0c0,0,0-.2,0-.2l17.2-119.7c.4-1.9.5-3.8.4-5.7v-.4c1.3-6.3-.2-12.7-4.2-17.7h0s-.3-.4-.3-.4c-4.4-5.4-10.8-8-19.5-8h0Z"/>
  <path class="st10" d="M1437.1,23.4s-4.7-7-12.9-7h-631c-6.3,0-14.1,6.3-15.9,15.1l-22.2,119.8c-1.1,5.6.3,11.3,3.8,15.7,3.6,4.4,8.9,7,14.7,7h631.7c9,0,16.8-6.4,18.5-15.2l17.2-119.8c1.1-5.6-.3-11.3-3.9-15.6Z"/>
  <path class="st3" d="M1437.6,17.7c-3.5-4.3-8.7-6.8-16.8-6.8h-626.3c-6.1,0-13.7,6.2-15.5,14.7l-22.2,119.8c-1.1,5.5.2,11.1,3.8,15.4,3.5,4.3,8.7,6.8,14.3,6.8h630.9c8.8,0,16.4-6.3,18.1-14.9l17.7-119.8c1.1-5.4-.3-11-3.8-15.3h0Z"/>
  <path class="st1" d="M1405.6,168.5h-630.9c-5.8,0-11.3-2.6-15-7.1-3.7-4.5-5.1-10.4-3.9-16.1l22.2-119.8c1.9-9.2,10-15.4,16.4-15.4h626.3c7.9,0,13.6,2.3,17.5,7.1h0c3.6,4.6,5.1,10.4,3.9,16l-17.7,119.8c-1.8,9-9.8,15.6-18.9,15.6h0ZM794.5,11.7c-5.6,0-13,5.8-14.7,14.1l-22.2,119.8c-1.1,5.2.2,10.6,3.6,14.7,3.4,4.1,8.3,6.5,13.7,6.5h630.9c8.3,0,15.6-6,17.3-14.2l17.7-119.8c1-5.2-.3-10.5-3.6-14.6h0c-3.6-4.4-8.7-6.5-16.1-6.5h-626.3Z"/>
  <path class="st9" d="M776.2,3.3c7.4,0,13.7,8.4,11.6,15.9.3,1.7-1.8,8.8-1.8,8.8h11.1c3.7,0,7.2,1.6,9.5,4.4,2.4,2.8,3.4,6.5,2.7,10.2l-.3,1.6c.3,1.5-21.5,130.6-21.5,130.6-1,6-6.2,10.3-12.3,10.3h-16.3l-3.1,7c-1.5,5-6.2,8.5-11.5,8.5H63c-5.3,0-10-3.5-11.5-8.5l-2.8-7h-11.6c-6.1,0-10.8-4.4-11.9-10.3,0,0-22.2-129.8-21.7-131.6v-.6c-.7-3.6.3-7.3,2.6-10.2,2.4-2.8,5.8-4.4,9.5-4.4h10.2s-1.7-8.1-2.3-10.2c-1.7-7.3,3.9-14.5,11.6-14.5h740.8M776.2,0H35.4c-4.7,0-9.1,2.1-12,5.8-2.9,3.6-3.9,8.3-2.8,12.7.3,1.1.8,3.8,1.4,6.1h-6.1c-4.7,0-9.1,2-12.1,5.6C.7,33.9-.6,38.6.2,43.2v.4c.1,1.8.8,6.4,3.3,21.5,1.8,11,4.3,26.2,7.5,45.2,5.4,32.3,11,64.8,11,65.2,1.3,7.7,7.6,13.1,15.1,13.1h9.3l1.9,4.8c1.9,6.3,7.9,10.7,14.6,10.7h681.4c6.7,0,12.6-4.4,14.6-10.7l2.2-4.9h14.1c7.7,0,14.2-5.5,15.5-13.1,0-.3,5.5-32.7,10.9-64.8,3.1-18.9,5.6-33.9,7.4-44.8,2.4-14.9,3.1-19.4,3.2-21.1l.3-1.5c.8-4.6-.5-9.3-3.5-12.9-3-3.6-7.4-5.6-12.1-5.6h-6.8c.5-2.2.8-3.9.8-5.1,1.1-4.4,0-9.3-3-13.2-3-4-7.5-6.4-11.9-6.4h0Z"/>
  <path class="st10" d="M806.3,38.6c-2.4-2.8-5.8-4.4-9.5-4.4h-11.3l2-9.6c2.2-7.5-3.5-15.1-11.5-15.1H35.2c-8,0-12.5,7.5-10.2,15.1l1.7,9.6h-11.1c-3.7,0-7.2,1.6-9.5,4.4-2.4,2.8-3.4,6.5-2.3,10.2l21.6,126.1c.6,6,5.8,10.3,11.9,10.3h11.6l2.8,7c1.5,5,6.2,8.5,11.5,8.5h681.4c5.3,0,10-3.5,11.5-8.5l3.1-7h16.3c6.1,0,11.2-4.4,12.3-10.3l21.6-126.1c.6-3.6-.4-7.3-2.7-10.2h0Z"/>
  <path class="st10" d="M24.7,19.5l27.4,167.6c1.5,5,5.7,8.5,11.1,8.5h681.4c5.3,0,10-3.5,11.5-8.5l31.6-167.6c1.8-8.1-2.7-15.1-10.6-15.1H35.4c-8,0-12.9,7.5-10.6,15.1Z"/>
  <path class="st3" d="M806.5,32.5c-2.4-2.8-5.8-4.4-9.5-4.4h-11.3l2-9.6c2.2-7.5-3.5-15.1-11.5-15.1H35.4c-8,0-13.7,7.5-11.5,15.1l2.2,9.6h-9.9c-4.1,0-7.6,1.6-9.9,4.4-2.4,2.8-3.4,6.5-2.7,10.2l21.6,126.1c1,6,6.2,10.3,12.3,10.3h11.6l2.8,7c1.5,5,6.2,8.5,11.5,8.5h681.4c5.3,0,10-3.5,11.5-8.5l3.1-7h16.3c6.1,0,11.2-4.4,12.3-10.3l21.6-126.1c.6-3.6-.4-7.3-2.7-10.2h0Z"/>
  <path class="st1" d="M744.6,195.4H63.2c-5.6,0-10.7-3.7-12.3-9l-2.6-6.5h-11c-6.5,0-12-4.6-13.1-11L2.7,42.7c-.7-3.9.4-7.8,2.9-10.8,2.6-3.1,6.3-4.7,10.6-4.7h8.8l-1.9-8.6c-1.1-3.8-.4-7.8,2-11,2.4-3.3,6.2-5.1,10.3-5.1h740.8c4.1,0,7.9,1.9,10.3,5.1,2.4,3.2,3.1,7.2,2,11l-1.7,8.6h10.3c3.9,0,7.6,1.7,10.2,4.7,2.5,3,3.6,7,2.9,10.8l-21.6,126.1c-1.1,6.4-6.6,11-13.1,11h-15.7l-2.9,6.5c-1.6,5.3-6.6,9-12.3,9h0ZM16.2,28.9c-3.8,0-7.1,1.5-9.3,4.1-2.2,2.6-3.1,6.1-2.6,9.5l21.6,126.1c1,5.6,5.8,9.7,11.4,9.7h12.2l3,7.6c1.4,4.6,5.8,7.9,10.7,7.9h681.4c4.9,0,9.3-3.2,10.7-7.9h0c0,0,3.3-7.6,3.3-7.6h16.8c5.7,0,10.5-4.1,11.4-9.7l21.6-126.1c.6-3.4-.3-6.8-2.6-9.5-2.2-2.6-5.5-4.1-8.9-4.1h-12.3l2.2-10.7c1-3.3.4-6.8-1.7-9.5-2.1-2.8-5.4-4.5-9-4.5H35.4c-3.6,0-6.8,1.6-9,4.5-2.1,2.8-2.7,6.2-1.7,9.5h0c0,0,2.4,10.7,2.4,10.7h-10.9Z"/>
  <path class="st7" d="M1241.4,156.7c1.8,0,3.2,1.4,3.2,3.2s-1.4,3.2-3.2,3.2-3.2-1.4-3.2-3.2,1.4-3.2,3.2-3.2Z"/>
  <path class="st11" d="M1241.4,157.6c1.6,0,3,1.3,3,3s-1.3,3-3,3-3-1.3-3-3,1.3-3,3-3Z"/>
  <path class="st4" d="M1241.4,163.3c1.5,0,2.8-1.2,2.8-2.8s-1.2-2.8-2.8-2.8-2.8,1.2-2.8,2.8,1.2,2.8,2.8,2.8ZM1241.4,163.8c-1.8,0-3.2-1.4-3.2-3.2s1.4-3.2,3.2-3.2,3.2,1.4,3.2,3.2-1.4,3.2-3.2,3.2Z"/>
  <path class="st7" d="M1239.4,148.3c1.8,0,3.2,1.4,3.2,3.2s-1.4,3.2-3.2,3.2-3.2-1.4-3.2-3.2,1.4-3.2,3.2-3.2Z"/>
  <path class="st11" d="M1239.5,149.2c-1.6,0-3,1.3-3,3s1.3,3,3,3,3-1.3,3-3-1.3-3-3-3Z"/>
  <path class="st4" d="M1239.5,154.9c1.5,0,2.8-1.2,2.8-2.8s-1.2-2.8-2.8-2.8-2.8,1.2-2.8,2.8,1.2,2.8,2.8,2.8ZM1239.5,155.4c-1.8,0-3.2-1.4-3.2-3.2s1.4-3.2,3.2-3.2,3.2,1.4,3.2,3.2-1.4,3.2-3.2,3.2Z"/>
  <path class="st7" d="M1249.6,156.7c1.8,0,3.2,1.4,3.2,3.2s-1.4,3.2-3.2,3.2-3.2-1.4-3.2-3.2,1.4-3.2,3.2-3.2Z"/>
  <path class="st11" d="M1249.7,157.6c1.6,0,3,1.3,3,3s-1.3,3-3,3-3-1.3-3-3,1.3-3,3-3Z"/>
  <path class="st4" d="M1249.7,163.3c1.5,0,2.8-1.2,2.8-2.8s-1.2-2.8-2.8-2.8-2.8,1.2-2.8,2.8,1.2,2.8,2.8,2.8ZM1249.7,163.8c-1.8,0-3.2-1.4-3.2-3.2s1.4-3.2,3.2-3.2,3.2,1.4,3.2,3.2-1.4,3.2-3.2,3.2Z"/>
  <path class="st7" d="M1247.7,148.3c1.8,0,3.2,1.4,3.2,3.2s-1.4,3.2-3.2,3.2-3.2-1.4-3.2-3.2,1.4-3.2,3.2-3.2Z"/>
  <path class="st11" d="M1247.8,149.2c-1.6,0-3,1.3-3,3s1.3,3,3,3,3-1.3,3-3-1.3-3-3-3Z"/>
  <path class="st4" d="M1247.8,154.9c1.5,0,2.8-1.2,2.8-2.8s-1.2-2.8-2.8-2.8-2.8,1.2-2.8,2.8,1.2,2.8,2.8,2.8ZM1247.8,155.4c-1.8,0-3.2-1.4-3.2-3.2s1.4-3.2,3.2-3.2,3.2,1.4,3.2,3.2-1.4,3.2-3.2,3.2Z"/>
  <path class="st7" d="M1257.9,156.7c1.8,0,3.2,1.4,3.2,3.2s-1.4,3.2-3.2,3.2-3.2-1.4-3.2-3.2,1.4-3.2,3.2-3.2Z"/>
  <path class="st11" d="M1258,157.6c1.7,0,3,1.3,3,3s-1.3,3-3,3-3-1.3-3-3,1.3-3,3-3Z"/>
  <path class="st4" d="M1258,163.3c1.5,0,2.8-1.2,2.8-2.8s-1.2-2.8-2.8-2.8-2.8,1.2-2.8,2.8,1.2,2.8,2.8,2.8ZM1258,163.8c-1.8,0-3.2-1.4-3.2-3.2s1.4-3.2,3.2-3.2,3.2,1.4,3.2,3.2-1.4,3.2-3.2,3.2Z"/>
  <path class="st7" d="M1256,148.3c1.8,0,3.2,1.4,3.2,3.2s-1.4,3.2-3.2,3.2-3.2-1.4-3.2-3.2,1.4-3.2,3.2-3.2Z"/>
  <path class="st11" d="M1256.1,149.2c-1.7,0-3,1.3-3,3s1.3,3,3,3,3-1.3,3-3-1.3-3-3-3Z"/>
  <path class="st4" d="M1256.1,154.9c1.5,0,2.8-1.2,2.8-2.8s-1.2-2.8-2.8-2.8-2.8,1.2-2.8,2.8,1.2,2.8,2.8,2.8ZM1256.1,155.4c-1.8,0-3.2-1.4-3.2-3.2s1.4-3.2,3.2-3.2,3.2,1.4,3.2,3.2-1.4,3.2-3.2,3.2Z"/>
  <path class="st7" d="M1266.2,156.7c1.8,0,3.2,1.4,3.2,3.2s-1.4,3.2-3.2,3.2-3.2-1.4-3.2-3.2,1.4-3.2,3.2-3.2Z"/>
  <path class="st11" d="M1266.3,157.6c1.6,0,3,1.3,3,3s-1.3,3-3,3-3-1.3-3-3,1.3-3,3-3Z"/>
  <path class="st4" d="M1266.3,163.3c1.5,0,2.8-1.2,2.8-2.8s-1.2-2.8-2.8-2.8-2.8,1.2-2.8,2.8,1.2,2.8,2.8,2.8ZM1266.3,163.8c-1.8,0-3.2-1.4-3.2-3.2s1.4-3.2,3.2-3.2,3.2,1.4,3.2,3.2-1.4,3.2-3.2,3.2Z"/>
  <path class="st7" d="M1264.2,148.3c1.8,0,3.2,1.4,3.2,3.2s-1.4,3.2-3.2,3.2-3.2-1.4-3.2-3.2,1.4-3.2,3.2-3.2Z"/>
  <path class="st11" d="M1264.3,149.2c-1.6,0-3,1.3-3,3s1.3,3,3,3,3-1.3,3-3-1.3-3-3-3Z"/>
  <path class="st4" d="M1264.3,154.9c1.5,0,2.8-1.2,2.8-2.8s-1.2-2.8-2.8-2.8-2.8,1.2-2.8,2.8,1.2,2.8,2.8,2.8ZM1264.3,155.4c-1.8,0-3.2-1.4-3.2-3.2s1.4-3.2,3.2-3.2,3.2,1.4,3.2,3.2-1.4,3.2-3.2,3.2Z"/>
  <path class="st7" d="M1274.5,156.7c1.8,0,3.2,1.4,3.2,3.2s-1.4,3.2-3.2,3.2-3.2-1.4-3.2-3.2,1.4-3.2,3.2-3.2Z"/>
  <path class="st11" d="M1274.6,157.6c1.7,0,3,1.3,3,3s-1.3,3-3,3-3-1.3-3-3,1.3-3,3-3Z"/>
  <path class="st4" d="M1274.6,163.3c1.5,0,2.8-1.2,2.8-2.8s-1.2-2.8-2.8-2.8-2.8,1.2-2.8,2.8,1.2,2.8,2.8,2.8ZM1274.6,163.8c-1.8,0-3.2-1.4-3.2-3.2s1.4-3.2,3.2-3.2,3.2,1.4,3.2,3.2-1.4,3.2-3.2,3.2Z"/>
  <path class="st7" d="M1272.5,148.3c1.8,0,3.2,1.4,3.2,3.2s-1.4,3.2-3.2,3.2-3.2-1.4-3.2-3.2,1.4-3.2,3.2-3.2Z"/>
  <path class="st11" d="M1272.6,149.2c-1.7,0-3,1.3-3,3s1.3,3,3,3,3-1.3,3-3-1.3-3-3-3Z"/>
  <path class="st4" d="M1272.6,154.9c1.5,0,2.8-1.2,2.8-2.8s-1.2-2.8-2.8-2.8-2.8,1.2-2.8,2.8,1.2,2.8,2.8,2.8ZM1272.6,155.4c-1.8,0-3.2-1.4-3.2-3.2s1.4-3.2,3.2-3.2,3.2,1.4,3.2,3.2-1.4,3.2-3.2,3.2Z"/>
  <path class="st7" d="M1282.8,156.7c1.8,0,3.2,1.4,3.2,3.2s-1.4,3.2-3.2,3.2-3.2-1.4-3.2-3.2,1.4-3.2,3.2-3.2Z"/>
  <path class="st11" d="M1282.8,157.6c1.7,0,3,1.3,3,3s-1.3,3-3,3-3-1.3-3-3,1.3-3,3-3Z"/>
  <path class="st4" d="M1282.8,163.3c1.5,0,2.8-1.2,2.8-2.8s-1.2-2.8-2.8-2.8-2.8,1.2-2.8,2.8,1.2,2.8,2.8,2.8ZM1282.8,163.8c-1.8,0-3.2-1.4-3.2-3.2s1.4-3.2,3.2-3.2,3.2,1.4,3.2,3.2-1.4,3.2-3.2,3.2Z"/>
  <path class="st7" d="M1280.8,148.3c1.8,0,3.2,1.4,3.2,3.2s-1.4,3.2-3.2,3.2-3.2-1.4-3.2-3.2,1.4-3.2,3.2-3.2Z"/>
  <path class="st11" d="M1280.9,149.2c-1.7,0-3,1.3-3,3s1.3,3,3,3,3-1.3,3-3-1.3-3-3-3Z"/>
  <path class="st4" d="M1280.9,154.9c1.5,0,2.8-1.2,2.8-2.8s-1.2-2.8-2.8-2.8-2.8,1.2-2.8,2.8,1.2,2.8,2.8,2.8ZM1280.9,155.4c-1.8,0-3.2-1.4-3.2-3.2s1.4-3.2,3.2-3.2,3.2,1.4,3.2,3.2-1.4,3.2-3.2,3.2Z"/>
  <path class="st7" d="M1291.1,156.7c1.8,0,3.2,1.4,3.2,3.2s-1.4,3.2-3.2,3.2-3.2-1.4-3.2-3.2,1.4-3.2,3.2-3.2Z"/>
  <path class="st11" d="M1291.1,157.6c1.6,0,3,1.3,3,3s-1.3,3-3,3-3-1.3-3-3,1.3-3,3-3Z"/>
  <path class="st4" d="M1291.1,163.3c1.5,0,2.8-1.2,2.8-2.8s-1.2-2.8-2.8-2.8-2.8,1.2-2.8,2.8,1.2,2.8,2.8,2.8ZM1291.1,163.8c-1.8,0-3.2-1.4-3.2-3.2s1.4-3.2,3.2-3.2,3.2,1.4,3.2,3.2-1.4,3.2-3.2,3.2Z"/>
  <path class="st7" d="M1289.1,148.3c1.8,0,3.2,1.4,3.2,3.2s-1.4,3.2-3.2,3.2-3.2-1.4-3.2-3.2,1.4-3.2,3.2-3.2Z"/>
  <path class="st11" d="M1289.2,149.2c-1.7,0-3,1.3-3,3s1.3,3,3,3,3-1.3,3-3-1.3-3-3-3Z"/>
  <path class="st4" d="M1289.2,154.9c1.5,0,2.8-1.2,2.8-2.8s-1.2-2.8-2.8-2.8-2.8,1.2-2.8,2.8,1.2,2.8,2.8,2.8ZM1289.2,155.4c-1.8,0-3.2-1.4-3.2-3.2s1.4-3.2,3.2-3.2,3.2,1.4,3.2,3.2-1.4,3.2-3.2,3.2Z"/>
  <path class="st7" d="M1299.3,156.7c1.8,0,3.2,1.4,3.2,3.2s-1.4,3.2-3.2,3.2-3.2-1.4-3.2-3.2,1.4-3.2,3.2-3.2Z"/>
  <path class="st11" d="M1299.4,157.6c1.6,0,3,1.3,3,3s-1.3,3-3,3-3-1.3-3-3,1.3-3,3-3Z"/>
  <path class="st4" d="M1299.4,163.3c1.5,0,2.8-1.2,2.8-2.8s-1.2-2.8-2.8-2.8-2.8,1.2-2.8,2.8,1.2,2.8,2.8,2.8ZM1299.4,163.8c-1.8,0-3.2-1.4-3.2-3.2s1.4-3.2,3.2-3.2,3.2,1.4,3.2,3.2-1.4,3.2-3.2,3.2Z"/>
  <path class="st7" d="M1297.4,148.3c1.8,0,3.2,1.4,3.2,3.2s-1.4,3.2-3.2,3.2-3.2-1.4-3.2-3.2,1.4-3.2,3.2-3.2Z"/>
  <path class="st11" d="M1297.5,149.2c-1.6,0-3,1.3-3,3s1.3,3,3,3,3-1.3,3-3-1.3-3-3-3Z"/>
  <path class="st4" d="M1297.5,154.9c1.5,0,2.8-1.2,2.8-2.8s-1.2-2.8-2.8-2.8-2.8,1.2-2.8,2.8,1.2,2.8,2.8,2.8ZM1297.5,155.4c-1.8,0-3.2-1.4-3.2-3.2s1.4-3.2,3.2-3.2,3.2,1.4,3.2,3.2-1.4,3.2-3.2,3.2Z"/>
  <path class="st7" d="M1307.6,156.7c1.8,0,3.2,1.4,3.2,3.2s-1.4,3.2-3.2,3.2-3.2-1.4-3.2-3.2,1.4-3.2,3.2-3.2Z"/>
  <path class="st11" d="M1307.7,157.6c1.7,0,3,1.3,3,3s-1.3,3-3,3-3-1.3-3-3,1.3-3,3-3Z"/>
  <path class="st4" d="M1307.7,163.3c1.5,0,2.8-1.2,2.8-2.8s-1.2-2.8-2.8-2.8-2.8,1.2-2.8,2.8,1.2,2.8,2.8,2.8ZM1307.7,163.8c-1.8,0-3.2-1.4-3.2-3.2s1.4-3.2,3.2-3.2,3.2,1.4,3.2,3.2-1.4,3.2-3.2,3.2Z"/>
  <path class="st7" d="M1305.7,148.3c1.8,0,3.2,1.4,3.2,3.2s-1.4,3.2-3.2,3.2-3.2-1.4-3.2-3.2,1.4-3.2,3.2-3.2Z"/>
  <path class="st11" d="M1305.7,149.2c-1.6,0-3,1.3-3,3s1.3,3,3,3,3-1.3,3-3-1.3-3-3-3Z"/>
  <path class="st4" d="M1305.7,154.9c1.5,0,2.8-1.2,2.8-2.8s-1.2-2.8-2.8-2.8-2.8,1.2-2.8,2.8,1.2,2.8,2.8,2.8ZM1305.7,155.4c-1.8,0-3.2-1.4-3.2-3.2s1.4-3.2,3.2-3.2,3.2,1.4,3.2,3.2-1.4,3.2-3.2,3.2Z"/>
  <path class="st7" d="M1315.9,156.7c1.8,0,3.2,1.4,3.2,3.2s-1.4,3.2-3.2,3.2-3.2-1.4-3.2-3.2,1.4-3.2,3.2-3.2Z"/>
  <path class="st11" d="M1316,157.6c1.7,0,3,1.3,3,3s-1.3,3-3,3-3-1.3-3-3,1.3-3,3-3Z"/>
  <path class="st4" d="M1316,163.3c1.5,0,2.8-1.2,2.8-2.8s-1.2-2.8-2.8-2.8-2.8,1.2-2.8,2.8,1.2,2.8,2.8,2.8ZM1316,163.8c-1.8,0-3.2-1.4-3.2-3.2s1.4-3.2,3.2-3.2,3.2,1.4,3.2,3.2-1.4,3.2-3.2,3.2Z"/>
  <path class="st7" d="M1313.9,148.3c1.8,0,3.2,1.4,3.2,3.2s-1.4,3.2-3.2,3.2-3.2-1.4-3.2-3.2,1.4-3.2,3.2-3.2Z"/>
  <path class="st11" d="M1314,149.2c-1.7,0-3,1.3-3,3s1.3,3,3,3,3-1.3,3-3-1.3-3-3-3Z"/>
  <path class="st4" d="M1314,154.9c1.5,0,2.8-1.2,2.8-2.8s-1.2-2.8-2.8-2.8-2.8,1.2-2.8,2.8,1.2,2.8,2.8,2.8ZM1314,155.4c-1.8,0-3.2-1.4-3.2-3.2s1.4-3.2,3.2-3.2,3.2,1.4,3.2,3.2-1.4,3.2-3.2,3.2Z"/>
  <path class="st7" d="M1324.2,156.7c1.8,0,3.2,1.4,3.2,3.2s-1.4,3.2-3.2,3.2-3.2-1.4-3.2-3.2,1.4-3.2,3.2-3.2Z"/>
  <path class="st11" d="M1324.3,157.6c1.7,0,3,1.3,3,3s-1.3,3-3,3-3-1.3-3-3,1.3-3,3-3Z"/>
  <path class="st4" d="M1324.3,163.3c1.5,0,2.8-1.2,2.8-2.8s-1.2-2.8-2.8-2.8-2.8,1.2-2.8,2.8,1.2,2.8,2.8,2.8ZM1324.3,163.8c-1.8,0-3.2-1.4-3.2-3.2s1.4-3.2,3.2-3.2,3.2,1.4,3.2,3.2-1.4,3.2-3.2,3.2Z"/>
  <path class="st7" d="M1322.2,148.3c1.8,0,3.2,1.4,3.2,3.2s-1.4,3.2-3.2,3.2-3.2-1.4-3.2-3.2,1.4-3.2,3.2-3.2Z"/>
  <path class="st11" d="M1322.3,149.2c-1.6,0-3,1.3-3,3s1.3,3,3,3,3-1.3,3-3-1.3-3-3-3Z"/>
  <path class="st4" d="M1322.3,154.9c1.5,0,2.8-1.2,2.8-2.8s-1.2-2.8-2.8-2.8-2.8,1.2-2.8,2.8,1.2,2.8,2.8,2.8ZM1322.3,155.4c-1.8,0-3.2-1.4-3.2-3.2s1.4-3.2,3.2-3.2,3.2,1.4,3.2,3.2-1.4,3.2-3.2,3.2Z"/>
  <path class="st7" d="M1332.4,156.7c1.8,0,3.2,1.4,3.2,3.2s-1.4,3.2-3.2,3.2-3.2-1.4-3.2-3.2,1.4-3.2,3.2-3.2Z"/>
  <path class="st11" d="M1332.5,157.6c1.6,0,3,1.3,3,3s-1.3,3-3,3-3-1.3-3-3,1.3-3,3-3Z"/>
  <path class="st4" d="M1332.5,163.3c1.5,0,2.8-1.2,2.8-2.8s-1.2-2.8-2.8-2.8-2.8,1.2-2.8,2.8,1.2,2.8,2.8,2.8ZM1332.5,163.8c-1.8,0-3.2-1.4-3.2-3.2s1.4-3.2,3.2-3.2,3.2,1.4,3.2,3.2-1.4,3.2-3.2,3.2Z"/>
  <path class="st7" d="M1330.5,148.3c1.8,0,3.2,1.4,3.2,3.2s-1.4,3.2-3.2,3.2-3.2-1.4-3.2-3.2,1.4-3.2,3.2-3.2Z"/>
  <path class="st11" d="M1330.6,149.2c-1.7,0-3,1.3-3,3s1.3,3,3,3,3-1.3,3-3-1.3-3-3-3Z"/>
  <path class="st4" d="M1330.6,154.9c1.5,0,2.8-1.2,2.8-2.8s-1.2-2.8-2.8-2.8-2.8,1.2-2.8,2.8,1.2,2.8,2.8,2.8ZM1330.6,155.4c-1.8,0-3.2-1.4-3.2-3.2s1.4-3.2,3.2-3.2,3.2,1.4,3.2,3.2-1.4,3.2-3.2,3.2Z"/>
  <path class="st7" d="M1340.7,156.7c1.8,0,3.2,1.4,3.2,3.2s-1.4,3.2-3.2,3.2-3.2-1.4-3.2-3.2,1.4-3.2,3.2-3.2Z"/>
  <path class="st11" d="M1340.8,157.6c1.7,0,3,1.3,3,3s-1.3,3-3,3-3-1.3-3-3,1.3-3,3-3Z"/>
  <path class="st4" d="M1340.8,163.3c1.5,0,2.8-1.2,2.8-2.8s-1.2-2.8-2.8-2.8-2.8,1.2-2.8,2.8,1.2,2.8,2.8,2.8ZM1340.8,163.8c-1.8,0-3.2-1.4-3.2-3.2s1.4-3.2,3.2-3.2,3.2,1.4,3.2,3.2-1.4,3.2-3.2,3.2Z"/>
  <path class="st7" d="M1338.8,148.3c1.8,0,3.2,1.4,3.2,3.2s-1.4,3.2-3.2,3.2-3.2-1.4-3.2-3.2,1.4-3.2,3.2-3.2Z"/>
  <path class="st11" d="M1338.9,149.2c-1.7,0-3,1.3-3,3s1.3,3,3,3,3-1.3,3-3-1.3-3-3-3Z"/>
  <path class="st4" d="M1338.9,154.9c1.5,0,2.8-1.2,2.8-2.8s-1.2-2.8-2.8-2.8-2.8,1.2-2.8,2.8,1.2,2.8,2.8,2.8ZM1338.9,155.4c-1.8,0-3.2-1.4-3.2-3.2s1.4-3.2,3.2-3.2,3.2,1.4,3.2,3.2-1.4,3.2-3.2,3.2Z"/>
  <path class="st7" d="M1349,156.7c1.8,0,3.2,1.4,3.2,3.2s-1.4,3.2-3.2,3.2-3.2-1.4-3.2-3.2,1.4-3.2,3.2-3.2Z"/>
  <path class="st11" d="M1349.1,157.6c1.6,0,3,1.3,3,3s-1.3,3-3,3-3-1.3-3-3,1.3-3,3-3Z"/>
  <path class="st4" d="M1349.1,163.3c1.5,0,2.8-1.2,2.8-2.8s-1.2-2.8-2.8-2.8-2.8,1.2-2.8,2.8,1.2,2.8,2.8,2.8ZM1349.1,163.8c-1.8,0-3.2-1.4-3.2-3.2s1.4-3.2,3.2-3.2,3.2,1.4,3.2,3.2-1.4,3.2-3.2,3.2Z"/>
  <path class="st7" d="M1347.1,148.3c1.8,0,3.2,1.4,3.2,3.2s-1.4,3.2-3.2,3.2-3.2-1.4-3.2-3.2,1.4-3.2,3.2-3.2Z"/>
  <path class="st11" d="M1347.2,149.2c-1.7,0-3,1.3-3,3s1.3,3,3,3,3-1.3,3-3-1.3-3-3-3Z"/>
  <path class="st4" d="M1347.2,154.9c1.5,0,2.8-1.2,2.8-2.8s-1.2-2.8-2.8-2.8-2.8,1.2-2.8,2.8,1.2,2.8,2.8,2.8ZM1347.2,155.4c-1.8,0-3.2-1.4-3.2-3.2s1.4-3.2,3.2-3.2,3.2,1.4,3.2,3.2-1.4,3.2-3.2,3.2Z"/>
  <path class="st7" d="M1357.3,156.7c1.8,0,3.2,1.4,3.2,3.2s-1.4,3.2-3.2,3.2-3.2-1.4-3.2-3.2,1.4-3.2,3.2-3.2Z"/>
  <path class="st11" d="M1357.4,157.6c1.6,0,3,1.3,3,3s-1.3,3-3,3-3-1.3-3-3,1.3-3,3-3Z"/>
  <path class="st4" d="M1357.4,163.3c1.5,0,2.8-1.2,2.8-2.8s-1.2-2.8-2.8-2.8-2.8,1.2-2.8,2.8,1.2,2.8,2.8,2.8ZM1357.4,163.8c-1.8,0-3.2-1.4-3.2-3.2s1.4-3.2,3.2-3.2,3.2,1.4,3.2,3.2-1.4,3.2-3.2,3.2Z"/>
  <path class="st7" d="M1355.3,148.3c1.8,0,3.2,1.4,3.2,3.2s-1.4,3.2-3.2,3.2-3.2-1.4-3.2-3.2,1.4-3.2,3.2-3.2Z"/>
  <path class="st11" d="M1355.4,149.2c-1.6,0-3,1.3-3,3s1.3,3,3,3,3-1.3,3-3-1.3-3-3-3Z"/>
  <path class="st4" d="M1355.4,154.9c1.5,0,2.8-1.2,2.8-2.8s-1.2-2.8-2.8-2.8-2.8,1.2-2.8,2.8,1.2,2.8,2.8,2.8ZM1355.4,155.4c-1.8,0-3.2-1.4-3.2-3.2s1.4-3.2,3.2-3.2,3.2,1.4,3.2,3.2-1.4,3.2-3.2,3.2Z"/>
  <path class="st7" d="M1365.6,156.7c1.8,0,3.2,1.4,3.2,3.2s-1.4,3.2-3.2,3.2-3.2-1.4-3.2-3.2,1.4-3.2,3.2-3.2Z"/>
  <path class="st11" d="M1365.7,157.6c1.6,0,3,1.3,3,3s-1.3,3-3,3-3-1.3-3-3,1.3-3,3-3Z"/>
  <path class="st4" d="M1365.7,163.3c1.5,0,2.8-1.2,2.8-2.8s-1.2-2.8-2.8-2.8-2.8,1.2-2.8,2.8,1.2,2.8,2.8,2.8ZM1365.7,163.8c-1.8,0-3.2-1.4-3.2-3.2s1.4-3.2,3.2-3.2,3.2,1.4,3.2,3.2-1.4,3.2-3.2,3.2Z"/>
  <path class="st7" d="M1363.6,148.3c1.8,0,3.2,1.4,3.2,3.2s-1.4,3.2-3.2,3.2-3.2-1.4-3.2-3.2,1.4-3.2,3.2-3.2Z"/>
  <path class="st11" d="M1363.7,149.2c-1.6,0-3,1.3-3,3s1.3,3,3,3,3-1.3,3-3-1.3-3-3-3Z"/>
  <path class="st4" d="M1363.7,154.9c1.5,0,2.8-1.2,2.8-2.8s-1.2-2.8-2.8-2.8-2.8,1.2-2.8,2.8,1.2,2.8,2.8,2.8ZM1363.7,155.4c-1.8,0-3.2-1.4-3.2-3.2s1.4-3.2,3.2-3.2,3.2,1.4,3.2,3.2-1.4,3.2-3.2,3.2Z"/>
  <path class="st7" d="M1373.9,156.7c1.8,0,3.2,1.4,3.2,3.2s-1.4,3.2-3.2,3.2-3.2-1.4-3.2-3.2,1.4-3.2,3.2-3.2Z"/>
  <path class="st11" d="M1373.9,157.6c1.7,0,3,1.3,3,3s-1.3,3-3,3-3-1.3-3-3,1.3-3,3-3Z"/>
  <path class="st4" d="M1373.9,163.3c1.5,0,2.8-1.2,2.8-2.8s-1.2-2.8-2.8-2.8-2.8,1.2-2.8,2.8,1.2,2.8,2.8,2.8ZM1373.9,163.8c-1.8,0-3.2-1.4-3.2-3.2s1.4-3.2,3.2-3.2,3.2,1.4,3.2,3.2-1.4,3.2-3.2,3.2Z"/>
  <path class="st7" d="M1371.9,148.3c1.8,0,3.2,1.4,3.2,3.2s-1.4,3.2-3.2,3.2-3.2-1.4-3.2-3.2,1.4-3.2,3.2-3.2Z"/>
  <path class="st11" d="M1372,149.2c-1.6,0-3,1.3-3,3s1.3,3,3,3,3-1.3,3-3-1.3-3-3-3Z"/>
  <path class="st4" d="M1372,154.9c1.5,0,2.8-1.2,2.8-2.8s-1.2-2.8-2.8-2.8-2.8,1.2-2.8,2.8,1.2,2.8,2.8,2.8ZM1372,155.4c-1.8,0-3.2-1.4-3.2-3.2s1.4-3.2,3.2-3.2,3.2,1.4,3.2,3.2-1.4,3.2-3.2,3.2Z"/>
  <path class="st7" d="M1382.1,156.7c1.8,0,3.2,1.4,3.2,3.2s-1.4,3.2-3.2,3.2-3.2-1.4-3.2-3.2,1.4-3.2,3.2-3.2Z"/>
  <path class="st11" d="M1382.2,157.6c1.7,0,3,1.3,3,3s-1.3,3-3,3-3-1.3-3-3,1.3-3,3-3Z"/>
  <path class="st4" d="M1382.2,163.3c1.5,0,2.8-1.2,2.8-2.8s-1.2-2.8-2.8-2.8-2.8,1.2-2.8,2.8,1.2,2.8,2.8,2.8ZM1382.2,163.8c-1.8,0-3.2-1.4-3.2-3.2s1.4-3.2,3.2-3.2,3.2,1.4,3.2,3.2-1.4,3.2-3.2,3.2Z"/>
  <path class="st7" d="M1380.2,148.3c1.8,0,3.2,1.4,3.2,3.2s-1.4,3.2-3.2,3.2-3.2-1.4-3.2-3.2,1.4-3.2,3.2-3.2Z"/>
  <path class="st11" d="M1380.3,149.2c-1.6,0-3,1.3-3,3s1.3,3,3,3,3-1.3,3-3-1.3-3-3-3Z"/>
  <path class="st4" d="M1380.3,154.9c1.5,0,2.8-1.2,2.8-2.8s-1.2-2.8-2.8-2.8-2.8,1.2-2.8,2.8,1.2,2.8,2.8,2.8ZM1380.3,155.4c-1.8,0-3.2-1.4-3.2-3.2s1.4-3.2,3.2-3.2,3.2,1.4,3.2,3.2-1.4,3.2-3.2,3.2Z"/>
  <path class="st7" d="M1390.4,156.7c1.8,0,3.2,1.4,3.2,3.2s-1.4,3.2-3.2,3.2-3.2-1.4-3.2-3.2,1.4-3.2,3.2-3.2Z"/>
  <path class="st11" d="M1390.5,157.6c1.7,0,3,1.3,3,3s-1.3,3-3,3-3-1.3-3-3,1.3-3,3-3Z"/>
  <path class="st4" d="M1390.5,163.3c1.5,0,2.8-1.2,2.8-2.8s-1.2-2.8-2.8-2.8-2.8,1.2-2.8,2.8,1.2,2.8,2.8,2.8ZM1390.5,163.8c-1.8,0-3.2-1.4-3.2-3.2s1.4-3.2,3.2-3.2,3.2,1.4,3.2,3.2-1.4,3.2-3.2,3.2Z"/>
  <path class="st7" d="M1388.5,148.3c1.8,0,3.2,1.4,3.2,3.2s-1.4,3.2-3.2,3.2-3.2-1.4-3.2-3.2,1.4-3.2,3.2-3.2Z"/>
  <path class="st11" d="M1388.6,149.2c-1.7,0-3,1.3-3,3s1.3,3,3,3,3-1.3,3-3-1.3-3-3-3Z"/>
  <path class="st4" d="M1388.6,154.9c1.5,0,2.8-1.2,2.8-2.8s-1.2-2.8-2.8-2.8-2.8,1.2-2.8,2.8,1.2,2.8,2.8,2.8ZM1388.6,155.4c-1.8,0-3.2-1.4-3.2-3.2s1.4-3.2,3.2-3.2,3.2,1.4,3.2,3.2-1.4,3.2-3.2,3.2Z"/>
  <path class="st7" d="M1398.7,156.7c1.8,0,3.2,1.4,3.2,3.2s-1.4,3.2-3.2,3.2-3.2-1.4-3.2-3.2,1.4-3.2,3.2-3.2Z"/>
  <path class="st11" d="M1398.8,157.6c1.6,0,3,1.3,3,3s-1.3,3-3,3-3-1.3-3-3,1.3-3,3-3Z"/>
  <path class="st4" d="M1398.8,163.3c1.5,0,2.8-1.2,2.8-2.8s-1.2-2.8-2.8-2.8-2.8,1.2-2.8,2.8,1.2,2.8,2.8,2.8ZM1398.8,163.8c-1.8,0-3.2-1.4-3.2-3.2s1.4-3.2,3.2-3.2,3.2,1.4,3.2,3.2-1.4,3.2-3.2,3.2Z"/>
  <path class="st7" d="M1396.8,148.3c1.8,0,3.2,1.4,3.2,3.2s-1.4,3.2-3.2,3.2-3.2-1.4-3.2-3.2,1.4-3.2,3.2-3.2Z"/>
  <path class="st11" d="M1396.8,149.2c-1.7,0-3,1.3-3,3s1.3,3,3,3,3-1.3,3-3-1.3-3-3-3Z"/>
  <path class="st4" d="M1396.8,154.9c1.5,0,2.8-1.2,2.8-2.8s-1.2-2.8-2.8-2.8-2.8,1.2-2.8,2.8,1.2,2.8,2.8,2.8ZM1396.8,155.4c-1.8,0-3.2-1.4-3.2-3.2s1.4-3.2,3.2-3.2,3.2,1.4,3.2,3.2-1.4,3.2-3.2,3.2Z"/>
  <path class="st7" d="M972.6,156.4c1.8,0,3.2,1.4,3.2,3.2s-1.4,3.2-3.2,3.2-3.2-1.4-3.2-3.2,1.4-3.2,3.2-3.2Z"/>
  <path class="st11" d="M972.6,157.3c1.6,0,3,1.3,3,3s-1.3,3-3,3-3-1.3-3-3,1.3-3,3-3Z"/>
  <path class="st4" d="M972.6,163c1.5,0,2.8-1.2,2.8-2.8s-1.2-2.8-2.8-2.8-2.8,1.2-2.8,2.8,1.2,2.8,2.8,2.8ZM972.6,163.4c-1.8,0-3.2-1.4-3.2-3.2s1.4-3.2,3.2-3.2,3.2,1.4,3.2,3.2-1.4,3.2-3.2,3.2Z"/>
  <path class="st7" d="M974.6,148c1.8,0,3.2,1.4,3.2,3.2s-1.4,3.2-3.2,3.2-3.2-1.4-3.2-3.2,1.4-3.2,3.2-3.2Z"/>
  <path class="st11" d="M974.5,148.9c1.6,0,3,1.3,3,3s-1.3,3-3,3-3-1.3-3-3,1.3-3,3-3Z"/>
  <path class="st4" d="M974.5,154.6c1.5,0,2.8-1.2,2.8-2.8s-1.2-2.8-2.8-2.8-2.8,1.2-2.8,2.8,1.2,2.8,2.8,2.8ZM974.5,155.1c-1.8,0-3.2-1.4-3.2-3.2s1.4-3.2,3.2-3.2,3.2,1.4,3.2,3.2-1.4,3.2-3.2,3.2Z"/>
  <path class="st7" d="M964.4,156.4c1.8,0,3.2,1.4,3.2,3.2s-1.4,3.2-3.2,3.2-3.2-1.4-3.2-3.2,1.4-3.2,3.2-3.2Z"/>
  <path class="st11" d="M964.3,157.3c1.6,0,3,1.3,3,3s-1.3,3-3,3-3-1.3-3-3,1.3-3,3-3Z"/>
  <path class="st4" d="M964.3,163c1.5,0,2.8-1.2,2.8-2.8s-1.2-2.8-2.8-2.8-2.8,1.2-2.8,2.8,1.2,2.8,2.8,2.8ZM964.3,163.4c-1.8,0-3.2-1.4-3.2-3.2s1.4-3.2,3.2-3.2,3.2,1.4,3.2,3.2-1.4,3.2-3.2,3.2Z"/>
  <path class="st7" d="M966.3,148c1.8,0,3.2,1.4,3.2,3.2s-1.4,3.2-3.2,3.2-3.2-1.4-3.2-3.2,1.4-3.2,3.2-3.2Z"/>
  <path class="st11" d="M966.2,148.9c1.6,0,3,1.3,3,3s-1.3,3-3,3-3-1.3-3-3,1.3-3,3-3Z"/>
  <path class="st4" d="M966.2,154.6c1.5,0,2.8-1.2,2.8-2.8s-1.2-2.8-2.8-2.8-2.8,1.2-2.8,2.8,1.2,2.8,2.8,2.8ZM966.2,155.1c-1.8,0-3.2-1.4-3.2-3.2s1.4-3.2,3.2-3.2,3.2,1.4,3.2,3.2-1.4,3.2-3.2,3.2Z"/>
  <path class="st7" d="M956.1,156.4c1.8,0,3.2,1.4,3.2,3.2s-1.4,3.2-3.2,3.2-3.2-1.4-3.2-3.2,1.4-3.2,3.2-3.2Z"/>
  <path class="st11" d="M956,157.3c1.6,0,3,1.3,3,3s-1.3,3-3,3-3-1.3-3-3,1.3-3,3-3Z"/>
  <path class="st4" d="M956,163c1.5,0,2.8-1.2,2.8-2.8s-1.2-2.8-2.8-2.8-2.8,1.2-2.8,2.8,1.2,2.8,2.8,2.8ZM956,163.4c-1.8,0-3.2-1.4-3.2-3.2s1.4-3.2,3.2-3.2,3.2,1.4,3.2,3.2-1.4,3.2-3.2,3.2Z"/>
  <path class="st7" d="M958,148c1.8,0,3.2,1.4,3.2,3.2s-1.4,3.2-3.2,3.2-3.2-1.4-3.2-3.2,1.4-3.2,3.2-3.2Z"/>
  <path class="st11" d="M957.9,148.9c1.6,0,3,1.3,3,3s-1.3,3-3,3-3-1.3-3-3,1.3-3,3-3Z"/>
  <path class="st4" d="M957.9,154.6c1.5,0,2.8-1.2,2.8-2.8s-1.2-2.8-2.8-2.8-2.8,1.2-2.8,2.8,1.2,2.8,2.8,2.8ZM957.9,155.1c-1.8,0-3.2-1.4-3.2-3.2s1.4-3.2,3.2-3.2,3.2,1.4,3.2,3.2-1.4,3.2-3.2,3.2Z"/>
  <path class="st7" d="M947.8,156.4c1.8,0,3.2,1.4,3.2,3.2s-1.4,3.2-3.2,3.2-3.2-1.4-3.2-3.2,1.4-3.2,3.2-3.2Z"/>
  <path class="st11" d="M947.7,157.3c1.6,0,3,1.3,3,3s-1.3,3-3,3-3-1.3-3-3,1.3-3,3-3Z"/>
  <path class="st4" d="M947.7,163c1.5,0,2.8-1.2,2.8-2.8s-1.2-2.8-2.8-2.8-2.8,1.2-2.8,2.8,1.2,2.8,2.8,2.8ZM947.7,163.4c-1.8,0-3.2-1.4-3.2-3.2s1.4-3.2,3.2-3.2,3.2,1.4,3.2,3.2-1.4,3.2-3.2,3.2Z"/>
  <path class="st7" d="M949.8,148c1.8,0,3.2,1.4,3.2,3.2s-1.4,3.2-3.2,3.2-3.2-1.4-3.2-3.2,1.4-3.2,3.2-3.2Z"/>
  <path class="st11" d="M949.7,148.9c1.6,0,3,1.3,3,3s-1.3,3-3,3-3-1.3-3-3,1.3-3,3-3Z"/>
  <path class="st4" d="M949.7,154.6c1.5,0,2.8-1.2,2.8-2.8s-1.2-2.8-2.8-2.8-2.8,1.2-2.8,2.8,1.2,2.8,2.8,2.8ZM949.7,155.1c-1.8,0-3.2-1.4-3.2-3.2s1.4-3.2,3.2-3.2,3.2,1.4,3.2,3.2-1.4,3.2-3.2,3.2Z"/>
  <path class="st7" d="M939.5,156.4c1.8,0,3.2,1.4,3.2,3.2s-1.4,3.2-3.2,3.2-3.2-1.4-3.2-3.2,1.4-3.2,3.2-3.2Z"/>
  <path class="st11" d="M939.4,157.3c1.6,0,3,1.3,3,3s-1.3,3-3,3-3-1.3-3-3,1.3-3,3-3Z"/>
  <path class="st4" d="M939.4,163c1.5,0,2.8-1.2,2.8-2.8s-1.2-2.8-2.8-2.8-2.8,1.2-2.8,2.8,1.2,2.8,2.8,2.8ZM939.4,163.4c-1.8,0-3.2-1.4-3.2-3.2s1.4-3.2,3.2-3.2,3.2,1.4,3.2,3.2-1.4,3.2-3.2,3.2Z"/>
  <path class="st7" d="M941.5,148c1.8,0,3.2,1.4,3.2,3.2s-1.4,3.2-3.2,3.2-3.2-1.4-3.2-3.2,1.4-3.2,3.2-3.2Z"/>
  <path class="st11" d="M941.4,148.9c1.6,0,3,1.3,3,3s-1.3,3-3,3-3-1.3-3-3,1.3-3,3-3Z"/>
  <path class="st4" d="M941.4,154.6c1.5,0,2.8-1.2,2.8-2.8s-1.2-2.8-2.8-2.8-2.8,1.2-2.8,2.8,1.2,2.8,2.8,2.8ZM941.4,155.1c-1.8,0-3.2-1.4-3.2-3.2s1.4-3.2,3.2-3.2,3.2,1.4,3.2,3.2-1.4,3.2-3.2,3.2Z"/>
  <path class="st7" d="M931.2,156.4c1.8,0,3.2,1.4,3.2,3.2s-1.4,3.2-3.2,3.2-3.2-1.4-3.2-3.2,1.4-3.2,3.2-3.2Z"/>
  <path class="st11" d="M931.1,157.3c1.6,0,3,1.3,3,3s-1.3,3-3,3-3-1.3-3-3,1.3-3,3-3Z"/>
  <path class="st4" d="M931.1,163c1.5,0,2.8-1.2,2.8-2.8s-1.2-2.8-2.8-2.8-2.8,1.2-2.8,2.8,1.2,2.8,2.8,2.8ZM931.1,163.4c-1.8,0-3.2-1.4-3.2-3.2s1.4-3.2,3.2-3.2,3.2,1.4,3.2,3.2-1.4,3.2-3.2,3.2Z"/>
  <path class="st7" d="M933.2,148c1.8,0,3.2,1.4,3.2,3.2s-1.4,3.2-3.2,3.2-3.2-1.4-3.2-3.2,1.4-3.2,3.2-3.2Z"/>
  <path class="st11" d="M933.1,148.9c1.6,0,3,1.3,3,3s-1.3,3-3,3-3-1.3-3-3,1.3-3,3-3Z"/>
  <path class="st4" d="M933.1,154.6c1.5,0,2.8-1.2,2.8-2.8s-1.2-2.8-2.8-2.8-2.8,1.2-2.8,2.8,1.2,2.8,2.8,2.8ZM933.1,155.1c-1.8,0-3.2-1.4-3.2-3.2s1.4-3.2,3.2-3.2,3.2,1.4,3.2,3.2-1.4,3.2-3.2,3.2Z"/>
  <path class="st7" d="M923,156.4c1.8,0,3.2,1.4,3.2,3.2s-1.4,3.2-3.2,3.2-3.2-1.4-3.2-3.2,1.4-3.2,3.2-3.2Z"/>
  <path class="st11" d="M922.9,157.3c1.6,0,3,1.3,3,3s-1.3,3-3,3-3-1.3-3-3,1.3-3,3-3Z"/>
  <path class="st4" d="M922.9,163c1.5,0,2.8-1.2,2.8-2.8s-1.2-2.8-2.8-2.8-2.8,1.2-2.8,2.8,1.2,2.8,2.8,2.8ZM922.9,163.4c-1.8,0-3.2-1.4-3.2-3.2s1.4-3.2,3.2-3.2,3.2,1.4,3.2,3.2-1.4,3.2-3.2,3.2Z"/>
  <path class="st7" d="M924.9,148c1.8,0,3.2,1.4,3.2,3.2s-1.4,3.2-3.2,3.2-3.2-1.4-3.2-3.2,1.4-3.2,3.2-3.2Z"/>
  <path class="st11" d="M924.8,148.9c1.6,0,3,1.3,3,3s-1.3,3-3,3-3-1.3-3-3,1.3-3,3-3Z"/>
  <path class="st4" d="M924.8,154.6c1.5,0,2.8-1.2,2.8-2.8s-1.2-2.8-2.8-2.8-2.8,1.2-2.8,2.8,1.2,2.8,2.8,2.8ZM924.8,155.1c-1.8,0-3.2-1.4-3.2-3.2s1.4-3.2,3.2-3.2,3.2,1.4,3.2,3.2-1.4,3.2-3.2,3.2Z"/>
  <path class="st7" d="M914.7,156.4c1.8,0,3.2,1.4,3.2,3.2s-1.4,3.2-3.2,3.2-3.2-1.4-3.2-3.2,1.4-3.2,3.2-3.2Z"/>
  <path class="st11" d="M914.6,157.3c1.6,0,3,1.3,3,3s-1.3,3-3,3-3-1.3-3-3,1.3-3,3-3Z"/>
  <path class="st4" d="M914.6,163c1.5,0,2.8-1.2,2.8-2.8s-1.2-2.8-2.8-2.8-2.8,1.2-2.8,2.8,1.2,2.8,2.8,2.8ZM914.6,163.4c-1.8,0-3.2-1.4-3.2-3.2s1.4-3.2,3.2-3.2,3.2,1.4,3.2,3.2-1.4,3.2-3.2,3.2Z"/>
  <path class="st7" d="M916.6,148c1.8,0,3.2,1.4,3.2,3.2s-1.4,3.2-3.2,3.2-3.2-1.4-3.2-3.2,1.4-3.2,3.2-3.2Z"/>
  <path class="st11" d="M916.5,148.9c1.6,0,3,1.3,3,3s-1.3,3-3,3-3-1.3-3-3,1.3-3,3-3Z"/>
  <path class="st4" d="M916.5,154.6c1.5,0,2.8-1.2,2.8-2.8s-1.2-2.8-2.8-2.8-2.8,1.2-2.8,2.8,1.2,2.8,2.8,2.8ZM916.5,155.1c-1.8,0-3.2-1.4-3.2-3.2s1.4-3.2,3.2-3.2,3.2,1.4,3.2,3.2-1.4,3.2-3.2,3.2Z"/>
  <path class="st7" d="M906.4,156.4c1.8,0,3.2,1.4,3.2,3.2s-1.4,3.2-3.2,3.2-3.2-1.4-3.2-3.2,1.4-3.2,3.2-3.2Z"/>
  <path class="st11" d="M906.3,157.3c1.6,0,3,1.3,3,3s-1.3,3-3,3-3-1.3-3-3,1.3-3,3-3Z"/>
  <path class="st4" d="M906.3,163c1.5,0,2.8-1.2,2.8-2.8s-1.2-2.8-2.8-2.8-2.8,1.2-2.8,2.8,1.2,2.8,2.8,2.8ZM906.3,163.4c-1.8,0-3.2-1.4-3.2-3.2s1.4-3.2,3.2-3.2,3.2,1.4,3.2,3.2-1.4,3.2-3.2,3.2Z"/>
  <path class="st7" d="M908.3,148c1.8,0,3.2,1.4,3.2,3.2s-1.4,3.2-3.2,3.2-3.2-1.4-3.2-3.2,1.4-3.2,3.2-3.2Z"/>
  <path class="st11" d="M908.3,148.9c1.6,0,3,1.3,3,3s-1.3,3-3,3-3-1.3-3-3,1.3-3,3-3Z"/>
  <path class="st4" d="M908.3,154.6c1.5,0,2.8-1.2,2.8-2.8s-1.2-2.8-2.8-2.8-2.8,1.2-2.8,2.8,1.2,2.8,2.8,2.8ZM908.3,155.1c-1.8,0-3.2-1.4-3.2-3.2s1.4-3.2,3.2-3.2,3.2,1.4,3.2,3.2-1.4,3.2-3.2,3.2Z"/>
  <path class="st7" d="M898.1,156.4c1.8,0,3.2,1.4,3.2,3.2s-1.4,3.2-3.2,3.2-3.2-1.4-3.2-3.2,1.4-3.2,3.2-3.2Z"/>
  <path class="st11" d="M898,157.3c1.6,0,3,1.3,3,3s-1.3,3-3,3-3-1.3-3-3,1.3-3,3-3Z"/>
  <path class="st4" d="M898,163c1.5,0,2.8-1.2,2.8-2.8s-1.2-2.8-2.8-2.8-2.8,1.2-2.8,2.8,1.2,2.8,2.8,2.8ZM898,163.4c-1.8,0-3.2-1.4-3.2-3.2s1.4-3.2,3.2-3.2,3.2,1.4,3.2,3.2-1.4,3.2-3.2,3.2Z"/>
  <path class="st7" d="M900.1,148c1.8,0,3.2,1.4,3.2,3.2s-1.4,3.2-3.2,3.2-3.2-1.4-3.2-3.2,1.4-3.2,3.2-3.2Z"/>
  <path class="st11" d="M900,148.9c1.6,0,3,1.3,3,3s-1.3,3-3,3-3-1.3-3-3,1.3-3,3-3Z"/>
  <path class="st4" d="M900,154.6c1.5,0,2.8-1.2,2.8-2.8s-1.2-2.8-2.8-2.8-2.8,1.2-2.8,2.8,1.2,2.8,2.8,2.8ZM900,155.1c-1.8,0-3.2-1.4-3.2-3.2s1.4-3.2,3.2-3.2,3.2,1.4,3.2,3.2-1.4,3.2-3.2,3.2Z"/>
  <path class="st7" d="M889.8,156.4c1.8,0,3.2,1.4,3.2,3.2s-1.4,3.2-3.2,3.2-3.2-1.4-3.2-3.2,1.4-3.2,3.2-3.2Z"/>
  <path class="st11" d="M889.7,157.3c1.6,0,3,1.3,3,3s-1.3,3-3,3-3-1.3-3-3,1.3-3,3-3Z"/>
  <path class="st4" d="M889.7,163c1.5,0,2.8-1.2,2.8-2.8s-1.2-2.8-2.8-2.8-2.8,1.2-2.8,2.8,1.2,2.8,2.8,2.8ZM889.7,163.4c-1.8,0-3.2-1.4-3.2-3.2s1.4-3.2,3.2-3.2,3.2,1.4,3.2,3.2-1.4,3.2-3.2,3.2Z"/>
  <path class="st7" d="M891.8,148c1.8,0,3.2,1.4,3.2,3.2s-1.4,3.2-3.2,3.2-3.2-1.4-3.2-3.2,1.4-3.2,3.2-3.2Z"/>
  <path class="st11" d="M891.7,148.9c1.6,0,3,1.3,3,3s-1.3,3-3,3-3-1.3-3-3,1.3-3,3-3Z"/>
  <path class="st4" d="M891.7,154.6c1.5,0,2.8-1.2,2.8-2.8s-1.2-2.8-2.8-2.8-2.8,1.2-2.8,2.8,1.2,2.8,2.8,2.8ZM891.7,155.1c-1.8,0-3.2-1.4-3.2-3.2s1.4-3.2,3.2-3.2,3.2,1.4,3.2,3.2-1.4,3.2-3.2,3.2Z"/>
  <path class="st7" d="M881.5,156.4c1.8,0,3.2,1.4,3.2,3.2s-1.4,3.2-3.2,3.2-3.2-1.4-3.2-3.2,1.4-3.2,3.2-3.2Z"/>
  <path class="st11" d="M881.5,157.3c1.6,0,3,1.3,3,3s-1.3,3-3,3-3-1.3-3-3,1.3-3,3-3Z"/>
  <path class="st4" d="M881.5,163c1.5,0,2.8-1.2,2.8-2.8s-1.2-2.8-2.8-2.8-2.8,1.2-2.8,2.8,1.2,2.8,2.8,2.8ZM881.5,163.4c-1.8,0-3.2-1.4-3.2-3.2s1.4-3.2,3.2-3.2,3.2,1.4,3.2,3.2-1.4,3.2-3.2,3.2Z"/>
  <path class="st7" d="M883.5,148c1.8,0,3.2,1.4,3.2,3.2s-1.4,3.2-3.2,3.2-3.2-1.4-3.2-3.2,1.4-3.2,3.2-3.2Z"/>
  <path class="st11" d="M883.4,148.9c1.6,0,3,1.3,3,3s-1.3,3-3,3-3-1.3-3-3,1.3-3,3-3Z"/>
  <path class="st4" d="M883.4,154.6c1.5,0,2.8-1.2,2.8-2.8s-1.2-2.8-2.8-2.8-2.8,1.2-2.8,2.8,1.2,2.8,2.8,2.8ZM883.4,155.1c-1.8,0-3.2-1.4-3.2-3.2s1.4-3.2,3.2-3.2,3.2,1.4,3.2,3.2-1.4,3.2-3.2,3.2Z"/>
  <path class="st7" d="M873.3,156.4c1.8,0,3.2,1.4,3.2,3.2s-1.4,3.2-3.2,3.2-3.2-1.4-3.2-3.2,1.4-3.2,3.2-3.2Z"/>
  <path class="st11" d="M873.2,157.3c1.6,0,3,1.3,3,3s-1.3,3-3,3-3-1.3-3-3,1.3-3,3-3Z"/>
  <path class="st4" d="M873.2,163c1.5,0,2.8-1.2,2.8-2.8s-1.2-2.8-2.8-2.8-2.8,1.2-2.8,2.8,1.2,2.8,2.8,2.8ZM873.2,163.4c-1.8,0-3.2-1.4-3.2-3.2s1.4-3.2,3.2-3.2,3.2,1.4,3.2,3.2-1.4,3.2-3.2,3.2Z"/>
  <path class="st7" d="M875.2,148c1.8,0,3.2,1.4,3.2,3.2s-1.4,3.2-3.2,3.2-3.2-1.4-3.2-3.2,1.4-3.2,3.2-3.2Z"/>
  <path class="st11" d="M875.1,148.9c1.6,0,3,1.3,3,3s-1.3,3-3,3-3-1.3-3-3,1.3-3,3-3Z"/>
  <path class="st4" d="M875.1,154.6c1.5,0,2.8-1.2,2.8-2.8s-1.2-2.8-2.8-2.8-2.8,1.2-2.8,2.8,1.2,2.8,2.8,2.8ZM875.1,155.1c-1.8,0-3.2-1.4-3.2-3.2s1.4-3.2,3.2-3.2,3.2,1.4,3.2,3.2-1.4,3.2-3.2,3.2Z"/>
  <path class="st7" d="M865,156.4c1.8,0,3.2,1.4,3.2,3.2s-1.4,3.2-3.2,3.2-3.2-1.4-3.2-3.2,1.4-3.2,3.2-3.2Z"/>
  <path class="st11" d="M864.9,157.3c1.6,0,3,1.3,3,3s-1.3,3-3,3-3-1.3-3-3,1.3-3,3-3Z"/>
  <path class="st4" d="M864.9,163c1.5,0,2.8-1.2,2.8-2.8s-1.2-2.8-2.8-2.8-2.8,1.2-2.8,2.8,1.2,2.8,2.8,2.8ZM864.9,163.4c-1.8,0-3.2-1.4-3.2-3.2s1.4-3.2,3.2-3.2,3.2,1.4,3.2,3.2-1.4,3.2-3.2,3.2Z"/>
  <path class="st7" d="M866.9,148c1.8,0,3.2,1.4,3.2,3.2s-1.4,3.2-3.2,3.2-3.2-1.4-3.2-3.2,1.4-3.2,3.2-3.2Z"/>
  <path class="st11" d="M866.8,148.9c1.6,0,3,1.3,3,3s-1.3,3-3,3-3-1.3-3-3,1.3-3,3-3Z"/>
  <path class="st4" d="M866.8,154.6c1.5,0,2.8-1.2,2.8-2.8s-1.2-2.8-2.8-2.8-2.8,1.2-2.8,2.8,1.2,2.8,2.8,2.8ZM866.8,155.1c-1.8,0-3.2-1.4-3.2-3.2s1.4-3.2,3.2-3.2,3.2,1.4,3.2,3.2-1.4,3.2-3.2,3.2Z"/>
  <path class="st7" d="M856.7,156.4c1.8,0,3.2,1.4,3.2,3.2s-1.4,3.2-3.2,3.2-3.2-1.4-3.2-3.2,1.4-3.2,3.2-3.2Z"/>
  <path class="st11" d="M856.6,157.3c1.6,0,3,1.3,3,3s-1.3,3-3,3-3-1.3-3-3,1.3-3,3-3Z"/>
  <path class="st4" d="M856.6,163c1.5,0,2.8-1.2,2.8-2.8s-1.2-2.8-2.8-2.8-2.8,1.2-2.8,2.8,1.2,2.8,2.8,2.8ZM856.6,163.4c-1.8,0-3.2-1.4-3.2-3.2s1.4-3.2,3.2-3.2,3.2,1.4,3.2,3.2-1.4,3.2-3.2,3.2Z"/>
  <path class="st7" d="M858.7,148c1.8,0,3.2,1.4,3.2,3.2s-1.4,3.2-3.2,3.2-3.2-1.4-3.2-3.2,1.4-3.2,3.2-3.2Z"/>
  <path class="st11" d="M858.6,148.9c1.6,0,3,1.3,3,3s-1.3,3-3,3-3-1.3-3-3,1.3-3,3-3Z"/>
  <path class="st4" d="M858.6,154.6c1.5,0,2.8-1.2,2.8-2.8s-1.2-2.8-2.8-2.8-2.8,1.2-2.8,2.8,1.2,2.8,2.8,2.8ZM858.6,155.1c-1.8,0-3.2-1.4-3.2-3.2s1.4-3.2,3.2-3.2,3.2,1.4,3.2,3.2-1.4,3.2-3.2,3.2Z"/>
  <path class="st7" d="M848.4,156.4c1.8,0,3.2,1.4,3.2,3.2s-1.4,3.2-3.2,3.2-3.2-1.4-3.2-3.2,1.4-3.2,3.2-3.2Z"/>
  <path class="st11" d="M848.3,157.3c1.6,0,3,1.3,3,3s-1.3,3-3,3-3-1.3-3-3,1.3-3,3-3Z"/>
  <path class="st4" d="M848.3,163c1.5,0,2.8-1.2,2.8-2.8s-1.2-2.8-2.8-2.8-2.8,1.2-2.8,2.8,1.2,2.8,2.8,2.8ZM848.3,163.4c-1.8,0-3.2-1.4-3.2-3.2s1.4-3.2,3.2-3.2,3.2,1.4,3.2,3.2-1.4,3.2-3.2,3.2Z"/>
  <path class="st7" d="M850.4,148c1.8,0,3.2,1.4,3.2,3.2s-1.4,3.2-3.2,3.2-3.2-1.4-3.2-3.2,1.4-3.2,3.2-3.2Z"/>
  <path class="st11" d="M850.3,148.9c1.6,0,3,1.3,3,3s-1.3,3-3,3-3-1.3-3-3,1.3-3,3-3Z"/>
  <path class="st4" d="M850.3,154.6c1.5,0,2.8-1.2,2.8-2.8s-1.2-2.8-2.8-2.8-2.8,1.2-2.8,2.8,1.2,2.8,2.8,2.8ZM850.3,155.1c-1.8,0-3.2-1.4-3.2-3.2s1.4-3.2,3.2-3.2,3.2,1.4,3.2,3.2-1.4,3.2-3.2,3.2Z"/>
  <path class="st7" d="M840.1,156.4c1.8,0,3.2,1.4,3.2,3.2s-1.4,3.2-3.2,3.2-3.2-1.4-3.2-3.2,1.4-3.2,3.2-3.2Z"/>
  <path class="st11" d="M840.1,157.3c1.6,0,3,1.3,3,3s-1.3,3-3,3-3-1.3-3-3,1.3-3,3-3Z"/>
  <path class="st4" d="M840.1,163c1.5,0,2.8-1.2,2.8-2.8s-1.2-2.8-2.8-2.8-2.8,1.2-2.8,2.8,1.2,2.8,2.8,2.8ZM840.1,163.4c-1.8,0-3.2-1.4-3.2-3.2s1.4-3.2,3.2-3.2,3.2,1.4,3.2,3.2-1.4,3.2-3.2,3.2Z"/>
  <path class="st7" d="M842.1,148c1.8,0,3.2,1.4,3.2,3.2s-1.4,3.2-3.2,3.2-3.2-1.4-3.2-3.2,1.4-3.2,3.2-3.2Z"/>
  <path class="st11" d="M842,148.9c1.6,0,3,1.3,3,3s-1.3,3-3,3-3-1.3-3-3,1.3-3,3-3Z"/>
  <path class="st4" d="M842,154.6c1.5,0,2.8-1.2,2.8-2.8s-1.2-2.8-2.8-2.8-2.8,1.2-2.8,2.8,1.2,2.8,2.8,2.8ZM842,155.1c-1.8,0-3.2-1.4-3.2-3.2s1.4-3.2,3.2-3.2,3.2,1.4,3.2,3.2-1.4,3.2-3.2,3.2Z"/>
  <path class="st7" d="M831.9,156.4c1.8,0,3.2,1.4,3.2,3.2s-1.4,3.2-3.2,3.2-3.2-1.4-3.2-3.2,1.4-3.2,3.2-3.2Z"/>
  <path class="st11" d="M831.8,157.3c1.6,0,3,1.3,3,3s-1.3,3-3,3-3-1.3-3-3,1.3-3,3-3Z"/>
  <path class="st4" d="M831.8,163c1.5,0,2.8-1.2,2.8-2.8s-1.2-2.8-2.8-2.8-2.8,1.2-2.8,2.8,1.2,2.8,2.8,2.8ZM831.8,163.4c-1.8,0-3.2-1.4-3.2-3.2s1.4-3.2,3.2-3.2,3.2,1.4,3.2,3.2-1.4,3.2-3.2,3.2Z"/>
  <path class="st7" d="M833.8,148c1.8,0,3.2,1.4,3.2,3.2s-1.4,3.2-3.2,3.2-3.2-1.4-3.2-3.2,1.4-3.2,3.2-3.2Z"/>
  <path class="st11" d="M833.7,148.9c1.6,0,3,1.3,3,3s-1.3,3-3,3-3-1.3-3-3,1.3-3,3-3Z"/>
  <path class="st4" d="M833.7,154.6c1.5,0,2.8-1.2,2.8-2.8s-1.2-2.8-2.8-2.8-2.8,1.2-2.8,2.8,1.2,2.8,2.8,2.8ZM833.7,155.1c-1.8,0-3.2-1.4-3.2-3.2s1.4-3.2,3.2-3.2,3.2,1.4,3.2,3.2-1.4,3.2-3.2,3.2Z"/>
  <path class="st7" d="M823.6,156.4c1.8,0,3.2,1.4,3.2,3.2s-1.4,3.2-3.2,3.2-3.2-1.4-3.2-3.2,1.4-3.2,3.2-3.2Z"/>
  <path class="st11" d="M823.5,157.3c1.6,0,3,1.3,3,3s-1.3,3-3,3-3-1.3-3-3,1.3-3,3-3Z"/>
  <path class="st4" d="M823.5,163c1.5,0,2.8-1.2,2.8-2.8s-1.2-2.8-2.8-2.8-2.8,1.2-2.8,2.8,1.2,2.8,2.8,2.8ZM823.5,163.4c-1.8,0-3.2-1.4-3.2-3.2s1.4-3.2,3.2-3.2,3.2,1.4,3.2,3.2-1.4,3.2-3.2,3.2Z"/>
  <path class="st7" d="M825.5,148c1.8,0,3.2,1.4,3.2,3.2s-1.4,3.2-3.2,3.2-3.2-1.4-3.2-3.2,1.4-3.2,3.2-3.2Z"/>
  <path class="st11" d="M825.4,148.9c1.6,0,3,1.3,3,3s-1.3,3-3,3-3-1.3-3-3,1.3-3,3-3Z"/>
  <path class="st4" d="M825.4,154.6c1.5,0,2.8-1.2,2.8-2.8s-1.2-2.8-2.8-2.8-2.8,1.2-2.8,2.8,1.2,2.8,2.8,2.8ZM825.4,155.1c-1.8,0-3.2-1.4-3.2-3.2s1.4-3.2,3.2-3.2,3.2,1.4,3.2,3.2-1.4,3.2-3.2,3.2Z"/>
  <path class="st7" d="M815.3,156.4c1.8,0,3.2,1.4,3.2,3.2s-1.4,3.2-3.2,3.2-3.2-1.4-3.2-3.2,1.4-3.2,3.2-3.2Z"/>
  <path class="st11" d="M815.2,157.3c1.6,0,3,1.3,3,3s-1.3,3-3,3-3-1.3-3-3,1.3-3,3-3Z"/>
  <path class="st4" d="M815.2,163c1.5,0,2.8-1.2,2.8-2.8s-1.2-2.8-2.8-2.8-2.8,1.2-2.8,2.8,1.2,2.8,2.8,2.8ZM815.2,163.4c-1.8,0-3.2-1.4-3.2-3.2s1.4-3.2,3.2-3.2,3.2,1.4,3.2,3.2-1.4,3.2-3.2,3.2Z"/>
  <path class="st7" d="M817.3,148c1.8,0,3.2,1.4,3.2,3.2s-1.4,3.2-3.2,3.2-3.2-1.4-3.2-3.2,1.4-3.2,3.2-3.2Z"/>
  <path class="st11" d="M817.2,148.9c1.6,0,3,1.3,3,3s-1.3,3-3,3-3-1.3-3-3,1.3-3,3-3Z"/>
  <path class="st4" d="M817.2,154.6c1.5,0,2.8-1.2,2.8-2.8s-1.2-2.8-2.8-2.8-2.8,1.2-2.8,2.8,1.2,2.8,2.8,2.8ZM817.2,155.1c-1.8,0-3.2-1.4-3.2-3.2s1.4-3.2,3.2-3.2,3.2,1.4,3.2,3.2-1.4,3.2-3.2,3.2Z"/>
  <g>
    <path class="st2" d="M817.7,143.8c-1.1,0-2.3-.3-3.2-1-1.5-1.2-2.2-3.1-1.8-4.9l19.9-110.5c.5-2.2,2.5-3.9,4.8-3.9l277.8-.4c1,0,1.8.4,2.3,1,.5.7.7,1.7.4,2.7h0s-9.6,45.1-9.6,45.1c-.2,1.3-1.4,2.3-2.7,2.3h-100.9c-10.6,0-20.6,4.2-28.1,11.8-7.5,7.6-11.6,17.7-11.6,28.3s2.6,16.6,7.6,23.4,2.6,4,3.1,4.8c.3.4.5.7.8,1.1,0,0,0,0,0,.1,0,0,0,0-.1,0h-158.8Z"/>
    <path class="st5" d="M1115.3,22.2c3,0,4.2,2.5,3.6,4.8l-9.6,45.1c-.3,1.7-1.8,2.9-3.5,2.9h-100.9c-21.5,0-38.9,17.8-38.9,39.3s2.6,16.8,7.3,23.3,3.8,5.1,4.1,5.5c.5.7,0,1.6-.8,1.6h-159c-3.6,0-6.4-3.3-5.6-6.9l19.9-110.5c.6-2.7,2.9-4.6,5.6-4.6l277.8-.4M1115.3,20.9l-277.8.4c-3.3,0-6.2,2.4-6.9,5.6h0s0,0,0,0l-19.9,110.5c-.5,2.4.3,4.9,2.1,6.6s3.2,1.9,5,1.9h158.8s0,0,0,0c1.1,0,2-.7,2.2-1.8s0-1.4-.5-1.9-3.3-4.2-3.3-4.2c-5.3-6.7-7.7-15.1-7.7-23.6s3.9-19.6,11-26.8c7.1-7.2,16.5-11.2,26.6-11.2h100.9c2.4,0,4.4-1.6,4.8-3.9l9.5-45c.4-1.6.1-3.3-.8-4.5-.9-1.2-2.4-1.9-4.1-1.9h0Z"/>
    <path class="st8" d="M817.8,129.9l-1.6,8.6h0c0,0,0,.1,0,.1-.1.6.1,1,.3,1.2.2.2.5.5,1.1.5h153.3c-1.2-1.5-4.1-6.1-5.2-9l-1,2.6c-.7,1-1.8,1.5-3,1.5h-139.7c-1.7,0-3.2-1.2-3.5-2.9l-.5-2.6h0Z"/>
    <path class="st8" d="M1112.7,35.9l1.7-7.1c.3-1.2-.6-2.3-1.8-2.3l-275.1.4c-.7,0-1.2.5-1.4,1.1l-1.7,8.4,2-2.3c2.4-1.9,3.3-3,6.3-3h264c4,0,4.9,1.3,6,4.7h0Z"/>
    <path class="st2" d="M1241.5,143.4c-.3,0-.5-.2-.5-.3,0-.1-.1-.4.1-.6,7.5-7.5,11.7-17.5,11.7-28.2,0-21.9-17.8-39.8-39.7-39.8h-85.9c-.5,0-.9-.2-1.2-.6-.3-.4-.4-.8-.3-1.3l9.7-47.1c.3-1.5,1.4-2.5,2.6-2.5h283c1.6,0,3.2.7,4.2,1.9,1,1.2,1.5,2.9,1.2,4.5l-17.6,107.6c-.6,2.8-2.3,6.2-6.9,6.2h-160.3Z"/>
    <path class="st9" d="M1137.9,24.1h283c1.4,0,2.7.6,3.5,1.6.9,1,1.3,2.4,1,3.8l-17.6,107.6c-.8,3.6-2.8,5.5-6.1,5.5h-159.6c7.4-7.6,11.4-17.6,11.4-28.3,0-22.4-18.2-40.6-40.6-40.6h-85.9c-.3,0-.4-.2-.5-.2,0,0-.2-.3-.1-.5l9.7-47c.3-1.1,1-1.8,1.8-1.8M1137.9,22.3c-1.7,0-3,1.3-3.5,3.2l-9.7,47.1c-.3,1.5.8,2.9,2.3,2.9h85.9c21.5,0,38.9,17.4,38.9,38.9s-4.4,20.5-11.4,27.6c-.9.9-.3,2.4,1,2.4h160.3c4.5,0,6.9-2.9,7.8-6.9l17.6-107.6c.6-3.9-2.4-7.4-6.3-7.4h-283,0Z"/>
    <path class="st5" d="M1137.9,22.3h283c3.9,0,6.9,3.5,6.3,7.4l-17.6,107.6c-.8,4-3.3,6.9-7.8,6.9h-160.3c-1.3,0-1.9-1.5-1-2.4,7.1-7,11.4-16.8,11.4-27.6,0-21.5-17.4-38.9-38.9-38.9h-85.9c-1.5,0-2.6-1.4-2.3-2.9l9.7-47.1c.4-1.8,1.8-3.2,3.5-3.2M1137.9,21c-2.2,0-4.1,1.7-4.7,4.2h0s0,0,0,0l-9.7,47.1c-.2,1.1,0,2.2.8,3.1.7.9,1.7,1.4,2.8,1.4h85.9c20.7,0,37.6,16.9,37.6,37.6s-3.9,19.5-11,26.6c-.8.8-1,2-.6,3,.4,1,1.4,1.7,2.5,1.7h160.3c4.7,0,8-2.9,9-7.9h0s0,0,0,0l17.6-107.6c.4-2.2-.3-4.5-1.7-6.2-1.5-1.7-3.6-2.7-5.8-2.7h-283,0Z"/>
    <path class="st8" d="M1421.5,36.2l1.4-7.1c.1-.8-.2-1.4-.5-1.7-.2-.3-.7-.7-1.6-.7h-280.2c-1.2,0-2.3.8-2.6,2l-1.6,6.5,1.9-2.4c.8-1,2.1-1.6,3.4-1.6h276.6c1.3,0,2.5,1,2.7,2.3l.5,2.7Z"/>
    <path class="st8" d="M1253.3,130.4c-1.1,3.7-4.5,8.1-5.6,9.6h154c.9,0,2.8,0,3.5-3.4l1-5.2-1.4,2.3c-1.3,1.1-2.9,1.7-4.7,1.7h-144.1c-1.3,0-2.4-.9-2.7-2.2v-2.9h-.1Z"/>
    <path class="st9" d="M1213.6,84c-10,0-18.8,4.9-24.2,12.4h-3.9c-5.4-7.5-14.3-12.4-24.2-12.4s-18.8,4.9-24.2,12.4h-3.5c-5.4-7.5-14.3-12.4-24.2-12.4s-18.8,4.9-24.2,12.4h-3.5c-5.4-7.5-14.3-12.4-24.2-12.4s-18.8,4.9-24.2,12.4h-3.5c-5.4-7.5-14.3-12.4-24.2-12.4-16.5,0-29.9,13.4-29.9,30s13.4,30,29.9,30,18.8-4.9,24.2-12.4h3.5c5.4,7.5,14.3,12.4,24.2,12.4s18.8-4.9,24.2-12.4h3.5c5.4,7.5,14.3,12.4,24.2,12.4s18.8-4.9,24.2-12.4h3.5c5.4,7.5,14.3,12.4,24.2,12.4s18.8-4.9,24.2-12.4h3.9c5.4,7.5,14.3,12.4,24.2,12.4,16.5,0,29.9-13.4,29.9-30s-13.4-30-29.9-30Z"/>
    <path class="st6" d="M1213.6,84c16.5,0,29.9,13.4,29.9,30s-13.4,30-29.9,30-18.8-4.9-24.2-12.4h-3.9c-5.4,7.5-14.3,12.4-24.2,12.4s-18.8-4.9-24.2-12.4h-3.5c-5.4,7.5-14.3,12.4-24.2,12.4s-18.8-4.9-24.2-12.4h-3.5c-5.4,7.5-14.3,12.4-24.2,12.4s-18.8-4.9-24.2-12.4h-3.5c-5.4,7.5-14.3,12.4-24.2,12.4-16.5,0-29.9-13.4-29.9-30s13.4-30,29.9-30,18.8,4.9,24.2,12.4h3.5c5.4-7.5,14.3-12.4,24.2-12.4s18.8,4.9,24.2,12.4h3.5c5.4-7.5,14.3-12.4,24.2-12.4s18.8,4.9,24.2,12.4h3.5c5.4-7.5,14.3-12.4,24.2-12.4s18.8,4.9,24.2,12.4h3.9c5.4-7.5,14.3-12.4,24.2-12.4ZM1213.6,81.9c-9.8,0-19.2,4.6-25.2,12.4h-1.9c-6-7.8-15.4-12.4-25.2-12.4s-19.2,4.6-25.2,12.4h-1.4c-6-7.8-15.4-12.4-25.2-12.4s-19.2,4.6-25.2,12.4h-1.4c-6-7.8-15.4-12.4-25.2-12.4s-19.2,4.6-25.2,12.4h-1.4c-6-7.8-15.4-12.4-25.2-12.4-17.6,0-32,14.4-32,32s14.3,32,32,32,19.2-4.6,25.2-12.4h1.4c6,7.8,15.4,12.4,25.2,12.4s19.2-4.6,25.2-12.4h1.4c6,7.8,15.4,12.4,25.2,12.4s19.2-4.6,25.2-12.4h1.4c6,7.8,15.4,12.4,25.2,12.4s19.2-4.6,25.2-12.4h1.9c6,7.8,15.4,12.4,25.2,12.4,17.6,0,32-14.4,32-32s-14.3-32-32-32Z"/>
  </g>
  <path class="st9" d="M831.9,27.2l-19.9,110.5c0,.4-.1.9-.1,1.3,0,3,2.5,5.6,5.7,5.6h159c.4,0,.7-.2.9-.6.1-.3.1-.7-.1-1,0,0,0,0,0-.1-.6-.7-3.5-4.6-4-5.4-4.7-6.4-7.2-14.6-7.3-23.2,0,0,0,0,0,0s0,0,0,0,0,0,0,0c0-21.5,17.4-39.3,38.9-39.3h100.9c1.7,0,3.2-1.2,3.5-2.9l9.6-45.1c.1-.4.2-.9.2-1.3,0-1.8-1.4-3.5-3.8-3.5h0s0,0,0,0l-277.8.4c-2.7,0-5.1,1.9-5.6,4.6ZM837.5,24.4l277.8-.4h0c.7,0,1.3.2,1.7.7.4.5.5,1.2.3,1.9h0s0,0,0,0l-9.6,45.1h0s0,0,0,0c-.2.9-.9,1.5-1.8,1.5h-100.9c-10.8,0-21,4.2-28.7,12.1-7.7,7.8-11.9,18.1-11.9,28.9s2.6,17.3,7.6,24.3c.6.8,2.7,3.6,3.2,4.3h-157.4c-.9,0-1.9-.3-2.6-.8-1.2-1-1.8-2.5-1.5-4h0s0,0,0,0l19.9-110.5c.4-1.8,2-3.2,3.9-3.2Z"/>
</svg>