<?xml version="1.0" encoding="UTF-8"?>
<svg id="Camada_1" xmlns="http://www.w3.org/2000/svg" version="1.1" viewBox="0 0 1578.9 204">
  <!-- Generator: Adobe Illustrator 30.0.0, SVG Export Plug-In . SVG Version: 2.1.1 Build 123)  -->
  <defs>
    <style>
      .st0 {
        fill: #212168;
      }

      .st1 {
        fill: #d9d9ff;
      }

      .st2 {
        fill: #4e27c4;
      }

      .st3 {
        fill: #9f9ff4;
      }

      .st4 {
        fill: #cbcaff;
      }

      .st5 {
        fill: #2a1c7c;
      }

      .st6 {
        fill: #7764ff;
      }

      .st7 {
        fill: #2b1977;
      }

      .st8 {
        fill: #8b79f2;
      }

      .st9 {
        fill: #54c;
      }
    </style>
  </defs>
  <path class="st0" d="M906.4,175.6h0c-6.2,0-12.1-2.7-16-7.5s-5.4-11.1-4.2-17.2l22.2-119.8c.3-1.5.8-2.9,1.4-4.3l.3-1.7c2-9.6,10.5-16.1,17.2-16.1h626.3c8.2,0,14.1,2.4,18.2,7.4h0c3.8,4.8,5.2,10.8,4.1,16.7v.6c0,1.8,0,3.7-.4,5.5l-17.2,119.8h0c-1.9,9.7-10.4,16.6-20.2,16.6"/>
  <path class="st0" d="M906.5,174c-5.7,0-11-2.5-14.7-7-3.6-4.4-5-10.2-3.8-15.7l22.3-119.8c.3-1.4.8-2.8,1.3-4.1l.4-1.8c1.8-8.5,9.4-14.7,15.5-14.7h626.3M1553.7,10.9c8.1,0,13.3,2.5,16.8,6.8,3.5,4.3,4.9,9.9,3.8,15.3v.8c0,1.7,0,3.5-.4,5.2l-17.2,119.8c-1.8,8.8-9.6,15.2-18.5,15.2M1538.1,177.5c10.6,0,19.8-7.6,21.9-18h0v-.2l17.2-119.7c.4-1.9.5-3.8.4-5.7v-.4c1.3-6.3-.2-12.7-4.2-17.7h0l-.3-.4c-4.4-5.4-10.8-8-19.5-8h.1c0,0-626.3,0-626.3,0-3.9,0-8.1,1.8-11.7,5.1-3.6,3.3-6.2,7.7-7.2,12.4h0l-.3,1.5c-.6,1.4-1.1,2.9-1.4,4.4h0l-22.2,119.8c-1.3,6.6.3,13.3,4.5,18.6,4.3,5.2,10.6,8.2,17.3,8.2"/>
  <path class="st8" d="M1538.2,174c9,0,16.8-6.4,18.5-15.2l17.2-119.8c1.1-5.6-.3-11.3-3.9-15.6h0s-4.7-7-12.9-7h-631c-6.3,0-14.1,6.3-15.9,15.1l-22.2,119.8c-1.1,5.6.3,11.3,3.8,15.7,3.6,4.4,8.9,7,14.7,7"/>
  <path class="st3" d="M1538.7,167.6c8.8,0,16.4-6.3,18.1-14.9l17.7-119.8c1.1-5.4-.3-11-3.8-15.3h-.2,0c-3.5-4.2-8.7-6.7-16.8-6.7h-626.3c-6.1,0-13.7,6.2-15.5,14.7l-22.2,119.8c-1.1,5.5.2,11.1,3.8,15.4,3.5,4.3,8.7,6.8,14.3,6.8"/>
  <path class="st1" d="M907.6,168.5c-5.8,0-11.3-2.6-15-7.1s-5.1-10.4-3.9-16.1l22.2-119.8c1.9-9.2,10-15.4,16.4-15.4h626.3c7.9,0,13.6,2.3,17.5,7.1h0c3.6,4.6,5.1,10.4,3.9,16l-17.7,119.8c-1.8,9-9.8,15.6-18.9,15.6h0M1538.7,166.8c8.3,0,15.6-6,17.3-14.2l17.7-119.8c1-5.2-.3-10.5-3.6-14.6h0c-3.6-4.4-8.7-6.5-16.1-6.5,0,0-626.6,0-626.6,0-5.6,0-13,5.8-14.7,14.1l-22.2,119.8c-1.1,5.2.2,10.6,3.6,14.7,3.4,4.1,8.3,6.5,13.7,6.5"/>
  <g>
    <g>
      <path class="st7" d="M16.9,24.6h.8-.8Z"/>
      <path class="st7" d="M950.9,30.3c-2.3-2.8-5.7-4.7-9.1-5.4l1-5.3c1.1-4.4,1-9.3-2-13.2C937.8,2.4,932.3,0,927.9,0H27.3C22.6,0,18.2,2.1,15.3,5.8c-2.9,3.6-3.9,8.3-2.8,12.7.3,1,1,4.3,1.6,6.6-3.2.8-6.2,2.5-8.4,5.1-3.1,3.7-4.4,8.4-3.6,13v.4c0,1.8.8,6.4,3.3,21.5,1.8,11,4.3,26.2,7.5,45.2,5.4,32.3,11.2,64.8,11.2,65.2,1.3,7.7,7.4,13.1,14.9,13.1h-.7l1.9,4.8c1.9,6.3,7.9,10.7,14.6,10.7h841.4c6.7,0,12.6-4.4,14.6-10.7l2.2-4.9h4.1c7.7,0,14.2-5.5,15.5-13.1,0-.3,5.5-32.7,10.9-64.8,3.1-18.9,5.6-33.9,7.4-44.8,2.4-14.9,3.1-19.4,3.2-21.1l.3-1.5c.8-4.6-.5-9.3-3.5-12.9ZM951.2,42.6l-.3,1.6c.3,1.5-21.5,130.6-21.5,130.6-1,6-6.2,10.3-12.3,10.3h-6.3l-3.1,7c-1.5,5-6.2,8.5-11.5,8.5H54.9c-5.3,0-9.8-3.5-11.3-8.5l-2.7-7h-1.9c-6.1,0-10.6-4.4-11.7-10.3,0,0-22.4-129.8-21.9-131.6v-.6c-.7-3.6.3-7.3,2.6-10.2,2.4-2.8,5.8-4.4,9.5-4.4h.2s-.3-1.5-.7-3.4h-.2.2c-.5-2.5-1.2-5.7-1.6-6.9-1.7-7.3,3.9-14.5,11.6-14.5h901.1c7.4,0,13.7,8.4,11.6,15.9-.5,1.8-1.8,8.8-1.8,8.8h1.1c3.7,0,7.2,1.6,9.5,4.4,2.4,2.8,3.4,6.5,2.7,10.2h0Z"/>
    </g>
    <path class="st8" d="M948.2,38.6c-2.4-2.8-5.8-4.4-9.5-4.4h-1.3l1.6-9.7c2.2-7.5-3.1-15-11.1-15H27.1c-8,0-12.5,7.5-10.2,15.1l1.7,9.6h-1.1c-3.7,0-7.2,1.6-9.5,4.4-2.4,2.8-3.4,6.5-2.3,10.2l21.6,126.1c.6,6,5.8,10.3,11.9,10.3h1.6l2.8,7c1.5,5,6.2,8.5,11.5,8.5h841.4c5.3,0,10-3.5,11.5-8.5l3.1-7h6.3c6.1,0,11.2-4.4,12.3-10.3l21.6-126.1c.6-3.6-.4-7.3-2.7-10.2h-.4,0Z"/>
    <path class="st8" d="M16.6,19.5l27.4,167.6c1.5,5,5.7,8.5,11.1,8.5h841.4c5.3,0,10-3.5,11.5-8.5l31.6-167.6c1.8-8.1-2.7-15.1-10.6-15.1H27.3c-8,0-12.9,7.5-10.6,15.1,0,0-.1,0,0,0h0Z"/>
    <path class="st3" d="M948.4,32.5c-2.4-2.8-5.8-4.4-9.5-4.4h-1.3l2-9.6c2.2-7.5-3.5-15.1-11.5-15.1H27.3c-8,0-13.7,7.5-11.5,15.1l2.2,9.6h.1c-4.1,0-7.6,1.6-9.9,4.4-2.4,2.8-3.4,6.5-2.7,10.2l21.6,126.1c1,6,6.2,10.3,12.3,10.3h1.6l2.8,7c1.5,5,6.2,8.5,11.5,8.5h841.4c5.3,0,10-3.5,11.5-8.5l3.1-7h6.3c6.1,0,11.2-4.4,12.3-10.3l21.6-126.1c.6-3.6-.4-7.3-2.7-10.2h-.4,0Z"/>
    <path class="st1" d="M896.5,195.4H55.1c-5.6,0-10.7-3.7-12.3-9l-2.6-6.5h-1c-6.5,0-12-4.6-13.1-11L4.6,42.7c-.7-3.9.4-7.8,2.9-10.8,2.6-3.1,6.3-4.7,10.6-4.7h-1.2l-1.9-8.6c-1.1-3.8-.4-7.8,2-11,2.4-3.3,6.2-5.1,10.3-5.1h900.8c4.1,0,7.9,1.9,10.3,5.1,2.4,3.2,3.1,7.2,2,11l-1.7,8.6h.3c3.9,0,7.6,1.7,10.2,4.7,2.5,3,3.6,7,2.9,10.8l-21.6,126.1c-1.1,6.4-6.6,11-13.1,11h-5.7l-2.9,6.5c-1.6,5.3-6.6,9-12.3,9h0ZM18.1,28.9c-3.8,0-7.1,1.5-9.3,4.1-2.2,2.6-3.1,6.1-2.6,9.5l21.6,126.1c1,5.6,5.8,9.7,11.4,9.7h2.2l3,7.6c1.4,4.6,5.8,7.9,10.7,7.9h841.4c4.9,0,9.3-3.2,10.7-7.9h0l3.3-7.6h6.8c5.7,0,10.5-4.1,11.4-9.7l21.6-126.1c.6-3.4-.3-6.8-2.6-9.5-2.2-2.6-5.5-4.1-8.9-4.1h-2.3l2.2-10.7c1-3.3.4-6.8-1.7-9.5-2.1-2.8-5.4-4.5-9-4.5H27.3c-3.6,0-6.8,1.6-9,4.5-2.1,2.8-2.7,6.2-1.7,9.5h0l2.4,10.7s-.9,0-.9,0Z"/>
  </g>
  <g>
    <path class="st4" d="M1477.2,23.6c-3-3.8-7.4-5.9-12.2-5.9h-486c-7.1,0-13.3,4.8-15.1,11.8l-9.8,56.3c-3.3,13.3-.3,27.6,8,38.3,7.4,9.6,18,14.8,29.6,14.8h8.2c.2,4.9,1.8,9.6,4.8,13.5,4.4,5.8,11.2,9,18.4,9h371.2c10.5,0,19.7-7.1,22.5-17.3l1.1-4.4h8c18.5,0,35.8-13.6,40.3-31.7l13.8-71.2c1.1-4.6,0-9.4-2.9-13.2h0ZM1425.9,134.4h-12.2l-2,8.3v.2c-2.3,7.7-9.3,13.1-17.4,13.1h-371.2c-5.6,0-10.8-2.6-14.2-7-2.6-3.4-3.9-7.6-3.7-11.8l.2-3.7h-13.7c-10,0-19-4.5-25.4-12.8-7.4-9.4-10-22-7.1-33.8l9.8-56.3c1.2-4.6,5.3-7.7,9.9-7.7h486c3.2,0,6.1,1.4,8,3.9,2,2.5,2.6,5.7,1.9,8.7l-13.8,71.2c-4,15.8-19.1,27.7-35.2,27.7h0Z"/>
    <path class="st2" d="M1473.7,26.3c-2.1-2.7-5.3-4.3-8.8-4.3h-486c-5.1,0-9.5,3.5-10.8,8.4h0s0,0,0,0l-9.7,56.3c-3,12-.3,24.9,7.2,34.5,6.6,8.5,15.9,13.1,26.1,13.1h12.9c-1.1,5.3.2,10.8,3.6,15.2,3.6,4.7,9,7.3,14.9,7.3h371.2c8.5,0,16-5.7,18.2-14h0s0,0,0,0l1.8-7.6h11.5c16.5,0,32-12.2,36-28.3l13.8-71.2c.8-3.3,0-6.8-2.1-9.5Z"/>
    <path class="st6" d="M968.1,37.7h.7s-.7,0-.7,0h0Z"/>
    <path class="st6" d="M1474.1,26c-2.1-2.7-5.3-4.3-8.8-4.3h-486.1c-5.1,0-9.5,3.5-10.8,8.4h0s0,0,0,0l-.9,3.8c1.8-4,5.7-8.4,10.2-8.4h487c3.4,0,6.4,1.9,8.5,4.6,1.3,1.6,2.3,4.9,2.5,6.9l.4-1.6c.8-3.3,0-6.8-2.1-9.5h0Z"/>
    <path class="st7" d="M1475.8,24.7c-2.6-3.3-6.6-5.3-10.8-5.3h-486c-6.3,0-11.8,4.3-13.3,10.4h0s0,.1,0,.1l-9.8,56.3c-3.2,12.7-.3,26.5,7.7,36.8,7.1,9.1,17.1,14.1,28.2,14.1h10c-.2,5.1,1.3,10.1,4.5,14.2,4.1,5.3,10.3,8.4,17,8.4h371.2c9.7,0,18.2-6.6,20.8-15.9h0s0-.1,0-.1l1.4-5.6h9.4c17.7,0,34.2-13,38.6-30.3l13.8-71.2c1-4.1,0-8.4-2.5-11.7h0ZM1475.7,35.8l-13.8,71.2c-4,16.2-19.5,28.3-36,28.3h-11.5l-1.8,7.6h0s0,0,0,0c-2.2,8.2-9.7,14-18.2,14h-371.2c-5.9,0-11.3-2.7-14.9-7.3-3.4-4.4-4.6-9.8-3.6-15.2h-12.9c-10.2,0-19.5-4.7-26.1-13.1-7.5-9.7-10.2-22.6-7.2-34.5l9.8-56.3h0s0,0,0,0c1.3-5,5.7-8.4,10.8-8.4h486c3.4,0,6.6,1.5,8.8,4.3,2.1,2.7,2.9,6.2,2.1,9.5h0Z"/>
    <path class="st6" d="M1008.1,150c3.5,4.5,8.8,7.2,14.6,7.2h372.2c8.3,0,15.6-5.6,17.8-13.6l1.9-8h11.8c15.1,0,29.3-10.3,34.5-24.4-6.5,12-19.6,20.2-33.1,20.2h-15.5l-1.8,7.3c-2.3,8.6-5.6,14.3-14.2,14.3h-372.2c-6.7,0-11.9-2.7-14.4-7.6-2.2-4.2-1.7-8.8-1.2-13.6,0-.5,0-.9.1-1.3h-16c-11,0-21.9-5.1-28.2-13.3-3.5-4.5-5.9-9.8-7-15.6.8,7.3,3.6,14.4,8.1,20.2,6.5,8.3,15.7,12.9,25.8,12.9h13.5v.5c-1.2,5.2.1,10.6,3.4,14.8h0Z"/>
    <path class="st5" d="M1203.1,93.7h-168.5c0,9.4-3.7,18.3-10.3,25.1-.4.4-1,.7-1.6.7-1.1,0-2-.8-2.2-1.9-.1-.7.2-1.4.7-1.9,5.8-6,9-13.8,9-22.2s-3.5-17-10-23.1c-.5-.5-.9-1.2-.8-1.9.2-1.2,1.1-2,2.2-2s1.1.2,1.5.6c6.3,6,10.3,14,11.2,22.5h170.9c2.1,0,3.9-1.5,4.2-3.6l8.6-50.7c.4-2.6-1.6-5-4.2-5l-231.8.4c-2.3,0-5.3,1.6-5.9,3.8-3.6,14.4-9.9,56.8-9.9,57.4,0,1-.1,2.1-.1,3.1.3,15.9,12.4,29.6,28.4,29.6s1.4,0,2.1,0l19.3.7-1.1,11c-1,6.5,2.5,10.1,7,10.1h173.8c2.1,0,3.9-1.5,4.2-3.6l7.5-44.1c.4-2.6-1.6-5-4.2-5h0s0,0,0,0Z"/>
    <path class="st5" d="M1464.7,35.1c-.2-2.3-2.6-4.8-4.9-4.8h-231.1c-2.1,0-3.9,1.5-4.2,3.6l-8.6,50.7c-.5,2.6,1.6,5,4.2,5h167c.9-8.5,4.9-16.6,11.2-22.5.5-.4,1.1-.7,1.8-.6.7,0,1.4.5,1.7,1.2.4.9.2,1.9-.5,2.6-6.5,6.1-10,14.4-10,23.2s3.2,16.2,9,22.1c.5.5.8,1.2.7,1.9-.2,1.2-1.1,1.9-2.2,1.9s-1.2-.2-1.6-.7c-6.6-6.8-10.2-15.7-10.3-25.1h-169c-2.1,0-3.9,1.5-4.2,3.6l-7.5,44.1c-.5,2.6,1.6,5,4.2,5h183.1c4.5,0,7.5-2.6,8.8-6.8l4.2-14.4h14.9c.7,0,1.4,0,2.1,0,13.8,0,25.3-9.5,28.4-22.3.5-2.1,13-65.6,12.8-67.9h0Z"/>
    <path class="st9" d="M1213.9,30.4c2.6,0,4.7,2.4,4.2,5l-8.6,50.7c-.4,2.1-2.1,3.6-4.2,3.6h-170.9c-.9-8.5-4.9-16.6-11.2-22.5-.4-.4-.9-.6-1.5-.6-1.1,0-2,.8-2.2,2,0,.7.2,1.4.8,1.9,6.4,6.1,10,14.3,10,23.1s-3.2,16.2-9,22.2c-.5.5-.8,1.2-.7,1.9.2,1.1,1.1,1.9,2.2,1.9s1.2-.2,1.6-.7c6.6-6.8,10.2-15.7,10.3-25.1h168.5c2.6,0,4.7,2.4,4.2,5l-7.5,44.1c-.3,2.1-2.1,3.6-4.2,3.6h-173.8c-4.5,0-8-3.7-7-10.1l1.1-11-19.3-.7c-.7,0-1.4,0-2.1,0-16,0-28.1-13.7-28.4-29.6,0-1.1,0-2.1.1-3.1,0-.5,6.3-43,9.9-57.4.6-2.2,3.6-3.8,5.9-3.8l231.8-.4M1213.9,29.4l-231.8.4c-2.7,0-6.1,1.8-6.8,4.5-3.7,14.6-9.9,57.2-10,57.5-.1,1.1-.1,2.1-.1,3.2.1,8.1,3.2,15.7,8.6,21.4,5.5,5.9,12.9,9.1,20.8,9.1s1.3,0,2.1,0l18.2.7-1,9.9c-.7,4.4.7,7.1,1.9,8.6,1.5,1.7,3.6,2.7,6.1,2.7h173.8c2.6,0,4.8-1.8,5.2-4.4l7.5-44c.3-1.5-.2-3.1-1.2-4.3-1-1.2-2.5-1.9-4-1.9h-169.5v1c0,9.1-3.6,17.8-10,24.4-.2.2-.5.4-.9.4-.6,0-1.1-.4-1.2-1.1,0-.3,0-.7.4-1,6-6.2,9.2-14.3,9.2-22.8s-3.7-17.6-10.3-23.9c-.3-.3-.5-.7-.5-1,0-.7.6-1.1,1.2-1.1s.6.1.8.3c6.1,5.8,10,13.5,10.9,21.9v.9h171.9c2.6,0,4.8-1.8,5.2-4.4l8.6-50.7c.3-1.5-.2-3.1-1.2-4.3-1-1.2-2.5-1.9-4-1.9h0Z"/>
    <path class="st9" d="M1459.9,30.3c2.3,0,4.7,2.5,4.9,4.8.2,2.3-12.3,65.8-12.8,67.8-3.1,12.8-14.7,22.3-28.4,22.3s-1.4,0-2.1,0h-14.9l-4.2,14.4c-1.3,4.2-4.3,6.8-8.8,6.8h-183.1c-2.6,0-4.7-2.4-4.2-5l7.5-44c.4-2.1,2.1-3.6,4.2-3.6h169c0,9.4,3.7,18.3,10.3,25.1.4.4,1,.7,1.6.7,1.1,0,2-.8,2.2-1.9.1-.7-.2-1.4-.7-1.9-5.8-6-9-13.8-9-22.2s3.6-17.1,10-23.2c.7-.7.9-1.7.5-2.6-.3-.7-1-1.1-1.7-1.2,0,0-.2,0-.3,0-.6,0-1.1.2-1.5.6-6.3,6-10.3,14-11.2,22.5h-167c-2.6,0-4.7-2.4-4.2-5l8.6-50.7c.4-2.1,2.1-3.6,4.2-3.6h231.1ZM1459.9,29.3h-231.1c-2.6,0-4.8,1.9-5.2,4.4l-8.6,50.7c-.3,1.5.2,3.1,1.2,4.3,1,1.2,2.5,1.9,4,1.9h167.9v-.9c1-8.4,4.9-16.1,11-21.9.2-.2.5-.3.8-.3h.2c.4,0,.7.3.9.6.2.5.1,1-.3,1.4-6.7,6.3-10.4,14.8-10.4,23.9s3.3,16.7,9.2,22.8c.3.3.5.7.4,1-.1.7-.6,1.1-1.2,1.1s-.6-.1-.9-.4c-6.4-6.6-9.9-15.2-10-24.4v-1h-170c-2.6,0-4.8,1.9-5.2,4.4l-7.5,44.1c-.3,1.5.2,3.1,1.2,4.3,1,1.2,2.5,1.9,4,1.9h183.1c4.8,0,8.3-2.7,9.7-7.5l4-13.7h14.1c.8,0,1.5,0,2.1,0,14,0,26.1-9.5,29.4-23,.1-.6,13.1-65.5,12.9-68.2-.3-2.9-3.1-5.7-5.9-5.7h0Z"/>
  </g>
</svg>