<?xml version="1.0" encoding="UTF-8"?>
<svg id="Camada_1" xmlns="http://www.w3.org/2000/svg" version="1.1" viewBox="0 0 1628.2 204">
  <!-- Generator: Adobe Illustrator 30.0.0, SVG Export Plug-In . SVG Version: 2.1.1 Build 123)  -->
  <defs>
    <style>
      .st0 {
        fill: #212168;
      }

      .st1 {
        fill: #d9d9ff;
      }

      .st2 {
        fill: #4e27c4;
      }

      .st3 {
        fill: #9f9ff4;
      }

      .st4 {
        fill: #c9c9f4;
      }

      .st5 {
        fill: #cbcaff;
      }

      .st6 {
        fill: #e7e6ff;
      }

      .st7 {
        fill: #e9e9ff;
      }

      .st8 {
        fill: #7764ff;
      }

      .st9 {
        fill: #2b1977;
      }

      .st10 {
        fill: #8b79f2;
      }

      .st11 {
        fill: #6363a5;
      }
    </style>
  </defs>
  <path class="st0" d="M955.7,175.7c-6.2,0-12.1-2.8-16-7.6s-5.4-11.1-4.2-17.2l22.2-119.8c.3-1.5.8-2.9,1.4-4.3l.3-1.7c2-9.6,10.5-16.1,17.2-16.1h626.3c8.2,0,14.1,2.4,18.2,7.4h0c3.8,4.8,5.2,10.8,4.1,16.7v.6c0,1.8,0,3.7-.4,5.5l-17.2,119.8h0c-1.9,9.7-10.4,16.6-20.2,16.6h-631.7,0Z"/>
  <path class="st0" d="M1603,10.9c8.1,0,13.3,2.5,16.8,6.8,3.5,4.3,4.9,9.9,3.8,15.3v.8c0,1.7,0,3.5-.4,5.2l-17.2,119.8c-1.8,8.8-9.6,15.2-18.5,15.2h-631.7c-5.7,0-11-2.5-14.7-7-3.6-4.4-5-10.2-3.8-15.7l22.3-119.8c.3-1.4.8-2.8,1.3-4.1l.4-1.8c1.8-8.5,9.4-14.7,15.5-14.7h626.3M1603,7.5h-626.3c-3.9,0-8.1,1.8-11.7,5.1-3.6,3.3-6.2,7.7-7.2,12.4h0l-.3,1.5c-.6,1.4-1.1,2.9-1.4,4.4h0l-22.2,119.8c-1.3,6.6.3,13.3,4.5,18.6,4.3,5.2,10.6,8.2,17.3,8.2h631.7c10.6,0,19.8-7.6,21.9-18h0v-.2l17.2-119.7c.4-1.9.5-3.8.4-5.7v-.4c1.3-6.3-.2-12.7-4.2-17.7h0l-.3-.4c-4.4-5.4-10.8-8-19.5-8h.1Z"/>
  <path class="st10" d="M1619.3,23.4s-4.7-7-12.9-7h-631c-6.3,0-14.1,6.3-15.9,15.1l-22.2,119.8c-1.1,5.6.3,11.3,3.8,15.7,3.6,4.4,8.9,7,14.7,7h631.7c9,0,16.8-6.4,18.5-15.2l17.2-119.8c1.1-5.6-.3-11.3-3.9-15.6h0Z"/>
  <path class="st3" d="M1619.8,17.7c-3.5-4.3-8.7-6.8-16.8-6.8h-626.3c-6.1,0-13.7,6.2-15.5,14.7l-22.2,119.8c-1.1,5.5.2,11.1,3.8,15.4,3.5,4.3,8.7,6.8,14.3,6.8h630.9c8.8,0,16.4-6.3,18.1-14.9l17.7-119.8c1.1-5.4-.3-11-3.8-15.3h-.2Z"/>
  <path class="st1" d="M1587.8,168.5h-630.9c-5.8,0-11.3-2.6-15-7.1s-5.1-10.4-3.9-16.1l22.2-119.8c1.9-9.2,10-15.4,16.4-15.4h626.3c7.9,0,13.6,2.3,17.5,7.1h0c3.6,4.6,5.1,10.4,3.9,16l-17.7,119.8c-1.8,9-9.8,15.6-18.9,15.6h0ZM976.7,11.7c-5.6,0-13,5.8-14.7,14.1l-22.2,119.8c-1.1,5.2.2,10.6,3.6,14.7,3.4,4.1,8.3,6.5,13.7,6.5h630.9c8.3,0,15.6-6,17.3-14.2l17.7-119.8c1-5.2-.3-10.5-3.6-14.6h0c-3.6-4.4-8.7-6.5-16.1-6.5h-626.6Z"/>
  <path class="st9" d="M958.4,3.3c7.4,0,13.7,8.4,11.6,15.9.3,1.7-1.8,8.8-1.8,8.8h11.1c3.7,0,7.2,1.6,9.5,4.4,2.4,2.8,3.4,6.5,2.7,10.2l-.3,1.6c.3,1.5-21.5,130.6-21.5,130.6-1,6-6.2,10.3-12.3,10.3h-16.3l-3.1,7c-1.5,5-6.2,8.5-11.5,8.5H65.2c-5.3,0-10-3.5-11.5-8.5l-2.8-7h-11.6c-6.1,0-10.8-4.4-11.9-10.3,0,0-22.2-129.8-21.7-131.6v-.6c-.7-3.6.3-7.3,2.6-10.2,2.4-2.8,5.8-4.4,9.5-4.4h10.2s-1.7-8.1-2.3-10.2c-1.7-7.3,3.9-14.5,11.6-14.5h920.8M958.4,0H37.6c-4.7,0-9.1,2.1-12,5.8-2.9,3.6-3.9,8.3-2.8,12.7.3,1.1.8,3.8,1.4,6.1h-6.1c-4.7,0-9.1,2-12.1,5.6-3.1,3.7-4.4,8.4-3.6,13v.4c.1,1.8.8,6.4,3.3,21.5,1.8,11,4.3,26.2,7.5,45.2,5.4,32.3,11,64.8,11,65.2,1.3,7.7,7.6,13.1,15.1,13.1h9.3l1.9,4.8c1.9,6.3,7.9,10.7,14.6,10.7h861.4c6.7,0,12.6-4.4,14.6-10.7l2.2-4.9h14.1c7.7,0,14.2-5.5,15.5-13.1,0-.3,5.5-32.7,10.9-64.8,3.1-18.9,5.6-33.9,7.4-44.8,2.4-14.9,3.1-19.4,3.2-21.1l.3-1.5c.8-4.6-.5-9.3-3.5-12.9s-7.4-5.6-12.1-5.6h-6.8c.5-2.2.8-3.9.8-5.1,1.1-4.4,0-9.3-3-13.2C967.1,2.4,962.6,0,958.2,0h.2Z"/>
  <path class="st10" d="M988.5,38.6c-2.4-2.8-5.8-4.4-9.5-4.4h-11.3l2-9.6c2.2-7.5-3.5-15.1-11.5-15.1H37.4c-8,0-12.5,7.5-10.2,15.1l1.7,9.6h-11.1c-3.7,0-7.2,1.6-9.5,4.4-2.4,2.8-3.4,6.5-2.3,10.2l21.6,126.1c.6,6,5.8,10.3,11.9,10.3h11.6l2.8,7c1.5,5,6.2,8.5,11.5,8.5h861.4c5.3,0,10-3.5,11.5-8.5l3.1-7h16.3c6.1,0,11.2-4.4,12.3-10.3l21.6-126.1c.6-3.6-.4-7.3-2.7-10.2h-.4Z"/>
  <path class="st10" d="M26.9,19.5l27.4,167.6c1.5,5,5.7,8.5,11.1,8.5h861.4c5.3,0,10-3.5,11.5-8.5l31.6-167.6c1.8-8.1-2.7-15.1-10.6-15.1H37.6c-8,0-12.9,7.5-10.6,15.1h-.1Z"/>
  <path class="st3" d="M988.7,32.5c-2.4-2.8-5.8-4.4-9.5-4.4h-11.3l2-9.6c2.2-7.5-3.5-15.1-11.5-15.1H37.6c-8,0-13.7,7.5-11.5,15.1l2.2,9.6h-9.9c-4.1,0-7.6,1.6-9.9,4.4-2.4,2.8-3.4,6.5-2.7,10.2l21.6,126.1c1,6,6.2,10.3,12.3,10.3h11.6l2.8,7c1.5,5,6.2,8.5,11.5,8.5h861.4c5.3,0,10-3.5,11.5-8.5l3.1-7h16.3c6.1,0,11.2-4.4,12.3-10.3l21.6-126.1c.6-3.6-.4-7.3-2.7-10.2h-.4Z"/>
  <path class="st1" d="M926.8,195.4H65.4c-5.6,0-10.7-3.7-12.3-9l-2.6-6.5h-11c-6.5,0-12-4.6-13.1-11L4.9,42.7c-.7-3.9.4-7.8,2.9-10.8,2.6-3.1,6.3-4.7,10.6-4.7h8.8l-1.9-8.6c-1.1-3.8-.4-7.8,2-11,2.4-3.3,6.2-5.1,10.3-5.1h920.8c4.1,0,7.9,1.9,10.3,5.1,2.4,3.2,3.1,7.2,2,11l-1.7,8.6h10.3c3.9,0,7.6,1.7,10.2,4.7,2.5,3,3.6,7,2.9,10.8l-21.6,126.1c-1.1,6.4-6.6,11-13.1,11h-15.7l-2.9,6.5c-1.6,5.3-6.6,9-12.3,9h0ZM18.4,28.9c-3.8,0-7.1,1.5-9.3,4.1-2.2,2.6-3.1,6.1-2.6,9.5l21.6,126.1c1,5.6,5.8,9.7,11.4,9.7h12.2l3,7.6c1.4,4.6,5.8,7.9,10.7,7.9h861.4c4.9,0,9.3-3.2,10.7-7.9h0l3.3-7.6h16.8c5.7,0,10.5-4.1,11.4-9.7l21.6-126.1c.6-3.4-.3-6.8-2.6-9.5-2.2-2.6-5.5-4.1-8.9-4.1h-12.3l2.2-10.7c1-3.3.4-6.8-1.7-9.5-2.1-2.8-5.4-4.5-9-4.5H37.6c-3.6,0-6.8,1.6-9,4.5-2.1,2.8-2.7,6.2-1.7,9.5h0l2.4,10.7s-10.9,0-10.9,0Z"/>
  <path class="st7" d="M1423.6,156.7c1.8,0,3.2,1.4,3.2,3.2s-1.4,3.2-3.2,3.2-3.2-1.4-3.2-3.2,1.4-3.2,3.2-3.2Z"/>
  <path class="st11" d="M1423.6,157.6c1.6,0,3,1.3,3,3s-1.3,3-3,3-3-1.3-3-3,1.3-3,3-3Z"/>
  <path class="st4" d="M1423.6,163.3c1.5,0,2.8-1.2,2.8-2.8s-1.2-2.8-2.8-2.8-2.8,1.2-2.8,2.8,1.2,2.8,2.8,2.8ZM1423.6,163.8c-1.8,0-3.2-1.4-3.2-3.2s1.4-3.2,3.2-3.2,3.2,1.4,3.2,3.2-1.4,3.2-3.2,3.2Z"/>
  <path class="st7" d="M1421.6,148.3c1.8,0,3.2,1.4,3.2,3.2s-1.4,3.2-3.2,3.2-3.2-1.4-3.2-3.2,1.4-3.2,3.2-3.2Z"/>
  <path class="st11" d="M1421.7,149.2c-1.6,0-3,1.3-3,3s1.3,3,3,3,3-1.3,3-3-1.3-3-3-3Z"/>
  <path class="st4" d="M1421.7,154.9c1.5,0,2.8-1.2,2.8-2.8s-1.2-2.8-2.8-2.8-2.8,1.2-2.8,2.8,1.2,2.8,2.8,2.8ZM1421.7,155.4c-1.8,0-3.2-1.4-3.2-3.2s1.4-3.2,3.2-3.2,3.2,1.4,3.2,3.2-1.4,3.2-3.2,3.2Z"/>
  <path class="st7" d="M1431.8,156.7c1.8,0,3.2,1.4,3.2,3.2s-1.4,3.2-3.2,3.2-3.2-1.4-3.2-3.2,1.4-3.2,3.2-3.2Z"/>
  <path class="st11" d="M1431.9,157.6c1.6,0,3,1.3,3,3s-1.3,3-3,3-3-1.3-3-3,1.3-3,3-3Z"/>
  <path class="st4" d="M1431.9,163.3c1.5,0,2.8-1.2,2.8-2.8s-1.2-2.8-2.8-2.8-2.8,1.2-2.8,2.8,1.2,2.8,2.8,2.8ZM1431.9,163.8c-1.8,0-3.2-1.4-3.2-3.2s1.4-3.2,3.2-3.2,3.2,1.4,3.2,3.2-1.4,3.2-3.2,3.2Z"/>
  <path class="st7" d="M1429.9,148.3c1.8,0,3.2,1.4,3.2,3.2s-1.4,3.2-3.2,3.2-3.2-1.4-3.2-3.2,1.4-3.2,3.2-3.2Z"/>
  <path class="st11" d="M1430,149.2c-1.6,0-3,1.3-3,3s1.3,3,3,3,3-1.3,3-3-1.3-3-3-3Z"/>
  <path class="st4" d="M1430,154.9c1.5,0,2.8-1.2,2.8-2.8s-1.2-2.8-2.8-2.8-2.8,1.2-2.8,2.8,1.2,2.8,2.8,2.8ZM1430,155.4c-1.8,0-3.2-1.4-3.2-3.2s1.4-3.2,3.2-3.2,3.2,1.4,3.2,3.2-1.4,3.2-3.2,3.2Z"/>
  <path class="st7" d="M1440.1,156.7c1.8,0,3.2,1.4,3.2,3.2s-1.4,3.2-3.2,3.2-3.2-1.4-3.2-3.2,1.4-3.2,3.2-3.2Z"/>
  <path class="st11" d="M1440.2,157.6c1.7,0,3,1.3,3,3s-1.3,3-3,3-3-1.3-3-3,1.3-3,3-3Z"/>
  <path class="st4" d="M1440.2,163.3c1.5,0,2.8-1.2,2.8-2.8s-1.2-2.8-2.8-2.8-2.8,1.2-2.8,2.8,1.2,2.8,2.8,2.8ZM1440.2,163.8c-1.8,0-3.2-1.4-3.2-3.2s1.4-3.2,3.2-3.2,3.2,1.4,3.2,3.2-1.4,3.2-3.2,3.2Z"/>
  <path class="st7" d="M1438.2,148.3c1.8,0,3.2,1.4,3.2,3.2s-1.4,3.2-3.2,3.2-3.2-1.4-3.2-3.2,1.4-3.2,3.2-3.2Z"/>
  <path class="st11" d="M1438.3,149.2c-1.7,0-3,1.3-3,3s1.3,3,3,3,3-1.3,3-3-1.3-3-3-3Z"/>
  <path class="st4" d="M1438.3,154.9c1.5,0,2.8-1.2,2.8-2.8s-1.2-2.8-2.8-2.8-2.8,1.2-2.8,2.8,1.2,2.8,2.8,2.8ZM1438.3,155.4c-1.8,0-3.2-1.4-3.2-3.2s1.4-3.2,3.2-3.2,3.2,1.4,3.2,3.2-1.4,3.2-3.2,3.2Z"/>
  <path class="st7" d="M1448.4,156.7c1.8,0,3.2,1.4,3.2,3.2s-1.4,3.2-3.2,3.2-3.2-1.4-3.2-3.2,1.4-3.2,3.2-3.2Z"/>
  <path class="st11" d="M1448.5,157.6c1.6,0,3,1.3,3,3s-1.3,3-3,3-3-1.3-3-3,1.3-3,3-3Z"/>
  <path class="st4" d="M1448.5,163.3c1.5,0,2.8-1.2,2.8-2.8s-1.2-2.8-2.8-2.8-2.8,1.2-2.8,2.8,1.2,2.8,2.8,2.8ZM1448.5,163.8c-1.8,0-3.2-1.4-3.2-3.2s1.4-3.2,3.2-3.2,3.2,1.4,3.2,3.2-1.4,3.2-3.2,3.2Z"/>
  <path class="st7" d="M1446.4,148.3c1.8,0,3.2,1.4,3.2,3.2s-1.4,3.2-3.2,3.2-3.2-1.4-3.2-3.2,1.4-3.2,3.2-3.2Z"/>
  <path class="st11" d="M1446.5,149.2c-1.6,0-3,1.3-3,3s1.3,3,3,3,3-1.3,3-3-1.3-3-3-3Z"/>
  <path class="st4" d="M1446.5,154.9c1.5,0,2.8-1.2,2.8-2.8s-1.2-2.8-2.8-2.8-2.8,1.2-2.8,2.8,1.2,2.8,2.8,2.8ZM1446.5,155.4c-1.8,0-3.2-1.4-3.2-3.2s1.4-3.2,3.2-3.2,3.2,1.4,3.2,3.2-1.4,3.2-3.2,3.2Z"/>
  <path class="st7" d="M1456.7,156.7c1.8,0,3.2,1.4,3.2,3.2s-1.4,3.2-3.2,3.2-3.2-1.4-3.2-3.2,1.4-3.2,3.2-3.2Z"/>
  <path class="st11" d="M1456.8,157.6c1.7,0,3,1.3,3,3s-1.3,3-3,3-3-1.3-3-3,1.3-3,3-3Z"/>
  <path class="st4" d="M1456.8,163.3c1.5,0,2.8-1.2,2.8-2.8s-1.2-2.8-2.8-2.8-2.8,1.2-2.8,2.8,1.2,2.8,2.8,2.8ZM1456.8,163.8c-1.8,0-3.2-1.4-3.2-3.2s1.4-3.2,3.2-3.2,3.2,1.4,3.2,3.2-1.4,3.2-3.2,3.2Z"/>
  <path class="st7" d="M1454.7,148.3c1.8,0,3.2,1.4,3.2,3.2s-1.4,3.2-3.2,3.2-3.2-1.4-3.2-3.2,1.4-3.2,3.2-3.2Z"/>
  <path class="st11" d="M1454.8,149.2c-1.7,0-3,1.3-3,3s1.3,3,3,3,3-1.3,3-3-1.3-3-3-3Z"/>
  <path class="st4" d="M1454.8,154.9c1.5,0,2.8-1.2,2.8-2.8s-1.2-2.8-2.8-2.8-2.8,1.2-2.8,2.8,1.2,2.8,2.8,2.8ZM1454.8,155.4c-1.8,0-3.2-1.4-3.2-3.2s1.4-3.2,3.2-3.2,3.2,1.4,3.2,3.2-1.4,3.2-3.2,3.2Z"/>
  <path class="st7" d="M1465,156.7c1.8,0,3.2,1.4,3.2,3.2s-1.4,3.2-3.2,3.2-3.2-1.4-3.2-3.2,1.4-3.2,3.2-3.2Z"/>
  <path class="st11" d="M1465,157.6c1.7,0,3,1.3,3,3s-1.3,3-3,3-3-1.3-3-3,1.3-3,3-3Z"/>
  <path class="st4" d="M1465,163.3c1.5,0,2.8-1.2,2.8-2.8s-1.2-2.8-2.8-2.8-2.8,1.2-2.8,2.8,1.2,2.8,2.8,2.8ZM1465,163.8c-1.8,0-3.2-1.4-3.2-3.2s1.4-3.2,3.2-3.2,3.2,1.4,3.2,3.2-1.4,3.2-3.2,3.2Z"/>
  <path class="st7" d="M1463,148.3c1.8,0,3.2,1.4,3.2,3.2s-1.4,3.2-3.2,3.2-3.2-1.4-3.2-3.2,1.4-3.2,3.2-3.2Z"/>
  <path class="st11" d="M1463.1,149.2c-1.7,0-3,1.3-3,3s1.3,3,3,3,3-1.3,3-3-1.3-3-3-3Z"/>
  <path class="st4" d="M1463.1,154.9c1.5,0,2.8-1.2,2.8-2.8s-1.2-2.8-2.8-2.8-2.8,1.2-2.8,2.8,1.2,2.8,2.8,2.8ZM1463.1,155.4c-1.8,0-3.2-1.4-3.2-3.2s1.4-3.2,3.2-3.2,3.2,1.4,3.2,3.2-1.4,3.2-3.2,3.2Z"/>
  <path class="st7" d="M1473.3,156.7c1.8,0,3.2,1.4,3.2,3.2s-1.4,3.2-3.2,3.2-3.2-1.4-3.2-3.2,1.4-3.2,3.2-3.2Z"/>
  <path class="st11" d="M1473.3,157.6c1.6,0,3,1.3,3,3s-1.3,3-3,3-3-1.3-3-3,1.3-3,3-3Z"/>
  <path class="st4" d="M1473.3,163.3c1.5,0,2.8-1.2,2.8-2.8s-1.2-2.8-2.8-2.8-2.8,1.2-2.8,2.8,1.2,2.8,2.8,2.8ZM1473.3,163.8c-1.8,0-3.2-1.4-3.2-3.2s1.4-3.2,3.2-3.2,3.2,1.4,3.2,3.2-1.4,3.2-3.2,3.2Z"/>
  <path class="st7" d="M1471.3,148.3c1.8,0,3.2,1.4,3.2,3.2s-1.4,3.2-3.2,3.2-3.2-1.4-3.2-3.2,1.4-3.2,3.2-3.2Z"/>
  <path class="st11" d="M1471.4,149.2c-1.7,0-3,1.3-3,3s1.3,3,3,3,3-1.3,3-3-1.3-3-3-3Z"/>
  <path class="st4" d="M1471.4,154.9c1.5,0,2.8-1.2,2.8-2.8s-1.2-2.8-2.8-2.8-2.8,1.2-2.8,2.8,1.2,2.8,2.8,2.8ZM1471.4,155.4c-1.8,0-3.2-1.4-3.2-3.2s1.4-3.2,3.2-3.2,3.2,1.4,3.2,3.2-1.4,3.2-3.2,3.2Z"/>
  <path class="st7" d="M1481.5,156.7c1.8,0,3.2,1.4,3.2,3.2s-1.4,3.2-3.2,3.2-3.2-1.4-3.2-3.2,1.4-3.2,3.2-3.2Z"/>
  <path class="st11" d="M1481.6,157.6c1.6,0,3,1.3,3,3s-1.3,3-3,3-3-1.3-3-3,1.3-3,3-3Z"/>
  <path class="st4" d="M1481.6,163.3c1.5,0,2.8-1.2,2.8-2.8s-1.2-2.8-2.8-2.8-2.8,1.2-2.8,2.8,1.2,2.8,2.8,2.8ZM1481.6,163.8c-1.8,0-3.2-1.4-3.2-3.2s1.4-3.2,3.2-3.2,3.2,1.4,3.2,3.2-1.4,3.2-3.2,3.2Z"/>
  <path class="st7" d="M1479.6,148.3c1.8,0,3.2,1.4,3.2,3.2s-1.4,3.2-3.2,3.2-3.2-1.4-3.2-3.2,1.4-3.2,3.2-3.2Z"/>
  <path class="st11" d="M1479.7,149.2c-1.6,0-3,1.3-3,3s1.3,3,3,3,3-1.3,3-3-1.3-3-3-3Z"/>
  <path class="st4" d="M1479.7,154.9c1.5,0,2.8-1.2,2.8-2.8s-1.2-2.8-2.8-2.8-2.8,1.2-2.8,2.8,1.2,2.8,2.8,2.8ZM1479.7,155.4c-1.8,0-3.2-1.4-3.2-3.2s1.4-3.2,3.2-3.2,3.2,1.4,3.2,3.2-1.4,3.2-3.2,3.2Z"/>
  <path class="st7" d="M1489.8,156.7c1.8,0,3.2,1.4,3.2,3.2s-1.4,3.2-3.2,3.2-3.2-1.4-3.2-3.2,1.4-3.2,3.2-3.2Z"/>
  <path class="st11" d="M1489.9,157.6c1.7,0,3,1.3,3,3s-1.3,3-3,3-3-1.3-3-3,1.3-3,3-3Z"/>
  <path class="st4" d="M1489.9,163.3c1.5,0,2.8-1.2,2.8-2.8s-1.2-2.8-2.8-2.8-2.8,1.2-2.8,2.8,1.2,2.8,2.8,2.8ZM1489.9,163.8c-1.8,0-3.2-1.4-3.2-3.2s1.4-3.2,3.2-3.2,3.2,1.4,3.2,3.2-1.4,3.2-3.2,3.2Z"/>
  <path class="st7" d="M1487.9,148.3c1.8,0,3.2,1.4,3.2,3.2s-1.4,3.2-3.2,3.2-3.2-1.4-3.2-3.2,1.4-3.2,3.2-3.2Z"/>
  <path class="st11" d="M1487.9,149.2c-1.6,0-3,1.3-3,3s1.3,3,3,3,3-1.3,3-3-1.3-3-3-3Z"/>
  <path class="st4" d="M1487.9,154.9c1.5,0,2.8-1.2,2.8-2.8s-1.2-2.8-2.8-2.8-2.8,1.2-2.8,2.8,1.2,2.8,2.8,2.8ZM1487.9,155.4c-1.8,0-3.2-1.4-3.2-3.2s1.4-3.2,3.2-3.2,3.2,1.4,3.2,3.2-1.4,3.2-3.2,3.2Z"/>
  <path class="st7" d="M1498.1,156.7c1.8,0,3.2,1.4,3.2,3.2s-1.4,3.2-3.2,3.2-3.2-1.4-3.2-3.2,1.4-3.2,3.2-3.2Z"/>
  <path class="st11" d="M1498.2,157.6c1.7,0,3,1.3,3,3s-1.3,3-3,3-3-1.3-3-3,1.3-3,3-3Z"/>
  <path class="st4" d="M1498.2,163.3c1.5,0,2.8-1.2,2.8-2.8s-1.2-2.8-2.8-2.8-2.8,1.2-2.8,2.8,1.2,2.8,2.8,2.8ZM1498.2,163.8c-1.8,0-3.2-1.4-3.2-3.2s1.4-3.2,3.2-3.2,3.2,1.4,3.2,3.2-1.4,3.2-3.2,3.2Z"/>
  <path class="st7" d="M1496.1,148.3c1.8,0,3.2,1.4,3.2,3.2s-1.4,3.2-3.2,3.2-3.2-1.4-3.2-3.2,1.4-3.2,3.2-3.2Z"/>
  <path class="st11" d="M1496.2,149.2c-1.7,0-3,1.3-3,3s1.3,3,3,3,3-1.3,3-3-1.3-3-3-3Z"/>
  <path class="st4" d="M1496.2,154.9c1.5,0,2.8-1.2,2.8-2.8s-1.2-2.8-2.8-2.8-2.8,1.2-2.8,2.8,1.2,2.8,2.8,2.8ZM1496.2,155.4c-1.8,0-3.2-1.4-3.2-3.2s1.4-3.2,3.2-3.2,3.2,1.4,3.2,3.2-1.4,3.2-3.2,3.2Z"/>
  <path class="st7" d="M1506.4,156.7c1.8,0,3.2,1.4,3.2,3.2s-1.4,3.2-3.2,3.2-3.2-1.4-3.2-3.2,1.4-3.2,3.2-3.2Z"/>
  <path class="st11" d="M1506.5,157.6c1.7,0,3,1.3,3,3s-1.3,3-3,3-3-1.3-3-3,1.3-3,3-3Z"/>
  <path class="st4" d="M1506.5,163.3c1.5,0,2.8-1.2,2.8-2.8s-1.2-2.8-2.8-2.8-2.8,1.2-2.8,2.8,1.2,2.8,2.8,2.8ZM1506.5,163.8c-1.8,0-3.2-1.4-3.2-3.2s1.4-3.2,3.2-3.2,3.2,1.4,3.2,3.2-1.4,3.2-3.2,3.2Z"/>
  <path class="st7" d="M1504.4,148.3c1.8,0,3.2,1.4,3.2,3.2s-1.4,3.2-3.2,3.2-3.2-1.4-3.2-3.2,1.4-3.2,3.2-3.2Z"/>
  <path class="st11" d="M1504.5,149.2c-1.6,0-3,1.3-3,3s1.3,3,3,3,3-1.3,3-3-1.3-3-3-3Z"/>
  <path class="st4" d="M1504.5,154.9c1.5,0,2.8-1.2,2.8-2.8s-1.2-2.8-2.8-2.8-2.8,1.2-2.8,2.8,1.2,2.8,2.8,2.8ZM1504.5,155.4c-1.8,0-3.2-1.4-3.2-3.2s1.4-3.2,3.2-3.2,3.2,1.4,3.2,3.2-1.4,3.2-3.2,3.2Z"/>
  <path class="st7" d="M1514.6,156.7c1.8,0,3.2,1.4,3.2,3.2s-1.4,3.2-3.2,3.2-3.2-1.4-3.2-3.2,1.4-3.2,3.2-3.2Z"/>
  <path class="st11" d="M1514.7,157.6c1.6,0,3,1.3,3,3s-1.3,3-3,3-3-1.3-3-3,1.3-3,3-3Z"/>
  <path class="st4" d="M1514.7,163.3c1.5,0,2.8-1.2,2.8-2.8s-1.2-2.8-2.8-2.8-2.8,1.2-2.8,2.8,1.2,2.8,2.8,2.8ZM1514.7,163.8c-1.8,0-3.2-1.4-3.2-3.2s1.4-3.2,3.2-3.2,3.2,1.4,3.2,3.2-1.4,3.2-3.2,3.2Z"/>
  <path class="st7" d="M1512.7,148.3c1.8,0,3.2,1.4,3.2,3.2s-1.4,3.2-3.2,3.2-3.2-1.4-3.2-3.2,1.4-3.2,3.2-3.2Z"/>
  <path class="st11" d="M1512.8,149.2c-1.7,0-3,1.3-3,3s1.3,3,3,3,3-1.3,3-3-1.3-3-3-3Z"/>
  <path class="st4" d="M1512.8,154.9c1.5,0,2.8-1.2,2.8-2.8s-1.2-2.8-2.8-2.8-2.8,1.2-2.8,2.8,1.2,2.8,2.8,2.8ZM1512.8,155.4c-1.8,0-3.2-1.4-3.2-3.2s1.4-3.2,3.2-3.2,3.2,1.4,3.2,3.2-1.4,3.2-3.2,3.2Z"/>
  <path class="st7" d="M1522.9,156.7c1.8,0,3.2,1.4,3.2,3.2s-1.4,3.2-3.2,3.2-3.2-1.4-3.2-3.2,1.4-3.2,3.2-3.2Z"/>
  <path class="st11" d="M1523,157.6c1.7,0,3,1.3,3,3s-1.3,3-3,3-3-1.3-3-3,1.3-3,3-3Z"/>
  <path class="st4" d="M1523,163.3c1.5,0,2.8-1.2,2.8-2.8s-1.2-2.8-2.8-2.8-2.8,1.2-2.8,2.8,1.2,2.8,2.8,2.8ZM1523,163.8c-1.8,0-3.2-1.4-3.2-3.2s1.4-3.2,3.2-3.2,3.2,1.4,3.2,3.2-1.4,3.2-3.2,3.2Z"/>
  <path class="st7" d="M1521,148.3c1.8,0,3.2,1.4,3.2,3.2s-1.4,3.2-3.2,3.2-3.2-1.4-3.2-3.2,1.4-3.2,3.2-3.2Z"/>
  <path class="st11" d="M1521.1,149.2c-1.7,0-3,1.3-3,3s1.3,3,3,3,3-1.3,3-3-1.3-3-3-3Z"/>
  <path class="st4" d="M1521.1,154.9c1.5,0,2.8-1.2,2.8-2.8s-1.2-2.8-2.8-2.8-2.8,1.2-2.8,2.8,1.2,2.8,2.8,2.8ZM1521.1,155.4c-1.8,0-3.2-1.4-3.2-3.2s1.4-3.2,3.2-3.2,3.2,1.4,3.2,3.2-1.4,3.2-3.2,3.2Z"/>
  <path class="st7" d="M1531.2,156.7c1.8,0,3.2,1.4,3.2,3.2s-1.4,3.2-3.2,3.2-3.2-1.4-3.2-3.2,1.4-3.2,3.2-3.2Z"/>
  <path class="st11" d="M1531.3,157.6c1.6,0,3,1.3,3,3s-1.3,3-3,3-3-1.3-3-3,1.3-3,3-3Z"/>
  <path class="st4" d="M1531.3,163.3c1.5,0,2.8-1.2,2.8-2.8s-1.2-2.8-2.8-2.8-2.8,1.2-2.8,2.8,1.2,2.8,2.8,2.8ZM1531.3,163.8c-1.8,0-3.2-1.4-3.2-3.2s1.4-3.2,3.2-3.2,3.2,1.4,3.2,3.2-1.4,3.2-3.2,3.2Z"/>
  <path class="st7" d="M1529.3,148.3c1.8,0,3.2,1.4,3.2,3.2s-1.4,3.2-3.2,3.2-3.2-1.4-3.2-3.2,1.4-3.2,3.2-3.2Z"/>
  <path class="st11" d="M1529.4,149.2c-1.7,0-3,1.3-3,3s1.3,3,3,3,3-1.3,3-3-1.3-3-3-3Z"/>
  <path class="st4" d="M1529.4,154.9c1.5,0,2.8-1.2,2.8-2.8s-1.2-2.8-2.8-2.8-2.8,1.2-2.8,2.8,1.2,2.8,2.8,2.8ZM1529.4,155.4c-1.8,0-3.2-1.4-3.2-3.2s1.4-3.2,3.2-3.2,3.2,1.4,3.2,3.2-1.4,3.2-3.2,3.2Z"/>
  <path class="st7" d="M1539.5,156.7c1.8,0,3.2,1.4,3.2,3.2s-1.4,3.2-3.2,3.2-3.2-1.4-3.2-3.2,1.4-3.2,3.2-3.2Z"/>
  <path class="st11" d="M1539.6,157.6c1.6,0,3,1.3,3,3s-1.3,3-3,3-3-1.3-3-3,1.3-3,3-3Z"/>
  <path class="st4" d="M1539.6,163.3c1.5,0,2.8-1.2,2.8-2.8s-1.2-2.8-2.8-2.8-2.8,1.2-2.8,2.8,1.2,2.8,2.8,2.8ZM1539.6,163.8c-1.8,0-3.2-1.4-3.2-3.2s1.4-3.2,3.2-3.2,3.2,1.4,3.2,3.2-1.4,3.2-3.2,3.2Z"/>
  <path class="st7" d="M1537.5,148.3c1.8,0,3.2,1.4,3.2,3.2s-1.4,3.2-3.2,3.2-3.2-1.4-3.2-3.2,1.4-3.2,3.2-3.2Z"/>
  <path class="st11" d="M1537.6,149.2c-1.6,0-3,1.3-3,3s1.3,3,3,3,3-1.3,3-3-1.3-3-3-3Z"/>
  <path class="st4" d="M1537.6,154.9c1.5,0,2.8-1.2,2.8-2.8s-1.2-2.8-2.8-2.8-2.8,1.2-2.8,2.8,1.2,2.8,2.8,2.8ZM1537.6,155.4c-1.8,0-3.2-1.4-3.2-3.2s1.4-3.2,3.2-3.2,3.2,1.4,3.2,3.2-1.4,3.2-3.2,3.2Z"/>
  <path class="st7" d="M1547.8,156.7c1.8,0,3.2,1.4,3.2,3.2s-1.4,3.2-3.2,3.2-3.2-1.4-3.2-3.2,1.4-3.2,3.2-3.2Z"/>
  <path class="st11" d="M1547.9,157.6c1.6,0,3,1.3,3,3s-1.3,3-3,3-3-1.3-3-3,1.3-3,3-3Z"/>
  <path class="st4" d="M1547.9,163.3c1.5,0,2.8-1.2,2.8-2.8s-1.2-2.8-2.8-2.8-2.8,1.2-2.8,2.8,1.2,2.8,2.8,2.8ZM1547.9,163.8c-1.8,0-3.2-1.4-3.2-3.2s1.4-3.2,3.2-3.2,3.2,1.4,3.2,3.2-1.4,3.2-3.2,3.2Z"/>
  <path class="st7" d="M1545.8,148.3c1.8,0,3.2,1.4,3.2,3.2s-1.4,3.2-3.2,3.2-3.2-1.4-3.2-3.2,1.4-3.2,3.2-3.2Z"/>
  <path class="st11" d="M1545.9,149.2c-1.6,0-3,1.3-3,3s1.3,3,3,3,3-1.3,3-3-1.3-3-3-3Z"/>
  <path class="st4" d="M1545.9,154.9c1.5,0,2.8-1.2,2.8-2.8s-1.2-2.8-2.8-2.8-2.8,1.2-2.8,2.8,1.2,2.8,2.8,2.8ZM1545.9,155.4c-1.8,0-3.2-1.4-3.2-3.2s1.4-3.2,3.2-3.2,3.2,1.4,3.2,3.2-1.4,3.2-3.2,3.2Z"/>
  <path class="st7" d="M1556.1,156.7c1.8,0,3.2,1.4,3.2,3.2s-1.4,3.2-3.2,3.2-3.2-1.4-3.2-3.2,1.4-3.2,3.2-3.2Z"/>
  <path class="st11" d="M1556.1,157.6c1.7,0,3,1.3,3,3s-1.3,3-3,3-3-1.3-3-3,1.3-3,3-3Z"/>
  <path class="st4" d="M1556.1,163.3c1.5,0,2.8-1.2,2.8-2.8s-1.2-2.8-2.8-2.8-2.8,1.2-2.8,2.8,1.2,2.8,2.8,2.8ZM1556.1,163.8c-1.8,0-3.2-1.4-3.2-3.2s1.4-3.2,3.2-3.2,3.2,1.4,3.2,3.2-1.4,3.2-3.2,3.2Z"/>
  <path class="st7" d="M1554.1,148.3c1.8,0,3.2,1.4,3.2,3.2s-1.4,3.2-3.2,3.2-3.2-1.4-3.2-3.2,1.4-3.2,3.2-3.2Z"/>
  <path class="st11" d="M1554.2,149.2c-1.6,0-3,1.3-3,3s1.3,3,3,3,3-1.3,3-3-1.3-3-3-3Z"/>
  <path class="st4" d="M1554.2,154.9c1.5,0,2.8-1.2,2.8-2.8s-1.2-2.8-2.8-2.8-2.8,1.2-2.8,2.8,1.2,2.8,2.8,2.8ZM1554.2,155.4c-1.8,0-3.2-1.4-3.2-3.2s1.4-3.2,3.2-3.2,3.2,1.4,3.2,3.2-1.4,3.2-3.2,3.2Z"/>
  <path class="st7" d="M1564.3,156.7c1.8,0,3.2,1.4,3.2,3.2s-1.4,3.2-3.2,3.2-3.2-1.4-3.2-3.2,1.4-3.2,3.2-3.2Z"/>
  <path class="st11" d="M1564.4,157.6c1.7,0,3,1.3,3,3s-1.3,3-3,3-3-1.3-3-3,1.3-3,3-3Z"/>
  <path class="st4" d="M1564.4,163.3c1.5,0,2.8-1.2,2.8-2.8s-1.2-2.8-2.8-2.8-2.8,1.2-2.8,2.8,1.2,2.8,2.8,2.8ZM1564.4,163.8c-1.8,0-3.2-1.4-3.2-3.2s1.4-3.2,3.2-3.2,3.2,1.4,3.2,3.2-1.4,3.2-3.2,3.2Z"/>
  <path class="st7" d="M1562.4,148.3c1.8,0,3.2,1.4,3.2,3.2s-1.4,3.2-3.2,3.2-3.2-1.4-3.2-3.2,1.4-3.2,3.2-3.2Z"/>
  <path class="st11" d="M1562.5,149.2c-1.6,0-3,1.3-3,3s1.3,3,3,3,3-1.3,3-3-1.3-3-3-3Z"/>
  <path class="st4" d="M1562.5,154.9c1.5,0,2.8-1.2,2.8-2.8s-1.2-2.8-2.8-2.8-2.8,1.2-2.8,2.8,1.2,2.8,2.8,2.8ZM1562.5,155.4c-1.8,0-3.2-1.4-3.2-3.2s1.4-3.2,3.2-3.2,3.2,1.4,3.2,3.2-1.4,3.2-3.2,3.2Z"/>
  <path class="st7" d="M1572.6,156.7c1.8,0,3.2,1.4,3.2,3.2s-1.4,3.2-3.2,3.2-3.2-1.4-3.2-3.2,1.4-3.2,3.2-3.2Z"/>
  <path class="st11" d="M1572.7,157.6c1.7,0,3,1.3,3,3s-1.3,3-3,3-3-1.3-3-3,1.3-3,3-3Z"/>
  <path class="st4" d="M1572.7,163.3c1.5,0,2.8-1.2,2.8-2.8s-1.2-2.8-2.8-2.8-2.8,1.2-2.8,2.8,1.2,2.8,2.8,2.8ZM1572.7,163.8c-1.8,0-3.2-1.4-3.2-3.2s1.4-3.2,3.2-3.2,3.2,1.4,3.2,3.2-1.4,3.2-3.2,3.2Z"/>
  <path class="st7" d="M1570.7,148.3c1.8,0,3.2,1.4,3.2,3.2s-1.4,3.2-3.2,3.2-3.2-1.4-3.2-3.2,1.4-3.2,3.2-3.2Z"/>
  <path class="st11" d="M1570.8,149.2c-1.7,0-3,1.3-3,3s1.3,3,3,3,3-1.3,3-3-1.3-3-3-3Z"/>
  <path class="st4" d="M1570.8,154.9c1.5,0,2.8-1.2,2.8-2.8s-1.2-2.8-2.8-2.8-2.8,1.2-2.8,2.8,1.2,2.8,2.8,2.8ZM1570.8,155.4c-1.8,0-3.2-1.4-3.2-3.2s1.4-3.2,3.2-3.2,3.2,1.4,3.2,3.2-1.4,3.2-3.2,3.2Z"/>
  <path class="st7" d="M1580.9,156.7c1.8,0,3.2,1.4,3.2,3.2s-1.4,3.2-3.2,3.2-3.2-1.4-3.2-3.2,1.4-3.2,3.2-3.2Z"/>
  <path class="st11" d="M1581,157.6c1.6,0,3,1.3,3,3s-1.3,3-3,3-3-1.3-3-3,1.3-3,3-3Z"/>
  <path class="st4" d="M1581,163.3c1.5,0,2.8-1.2,2.8-2.8s-1.2-2.8-2.8-2.8-2.8,1.2-2.8,2.8,1.2,2.8,2.8,2.8ZM1581,163.8c-1.8,0-3.2-1.4-3.2-3.2s1.4-3.2,3.2-3.2,3.2,1.4,3.2,3.2-1.4,3.2-3.2,3.2Z"/>
  <path class="st7" d="M1579,148.3c1.8,0,3.2,1.4,3.2,3.2s-1.4,3.2-3.2,3.2-3.2-1.4-3.2-3.2,1.4-3.2,3.2-3.2Z"/>
  <path class="st11" d="M1579,149.2c-1.7,0-3,1.3-3,3s1.3,3,3,3,3-1.3,3-3-1.3-3-3-3Z"/>
  <path class="st4" d="M1579,154.9c1.5,0,2.8-1.2,2.8-2.8s-1.2-2.8-2.8-2.8-2.8,1.2-2.8,2.8,1.2,2.8,2.8,2.8ZM1579,155.4c-1.8,0-3.2-1.4-3.2-3.2s1.4-3.2,3.2-3.2,3.2,1.4,3.2,3.2-1.4,3.2-3.2,3.2Z"/>
  <path class="st7" d="M1154.8,156.4c1.8,0,3.2,1.4,3.2,3.2s-1.4,3.2-3.2,3.2-3.2-1.4-3.2-3.2,1.4-3.2,3.2-3.2Z"/>
  <path class="st11" d="M1154.8,157.3c1.6,0,3,1.3,3,3s-1.3,3-3,3-3-1.3-3-3,1.3-3,3-3Z"/>
  <path class="st4" d="M1154.8,163c1.5,0,2.8-1.2,2.8-2.8s-1.2-2.8-2.8-2.8-2.8,1.2-2.8,2.8,1.2,2.8,2.8,2.8ZM1154.8,163.4c-1.8,0-3.2-1.4-3.2-3.2s1.4-3.2,3.2-3.2,3.2,1.4,3.2,3.2-1.4,3.2-3.2,3.2Z"/>
  <path class="st7" d="M1156.8,148c1.8,0,3.2,1.4,3.2,3.2s-1.4,3.2-3.2,3.2-3.2-1.4-3.2-3.2,1.4-3.2,3.2-3.2Z"/>
  <path class="st11" d="M1156.7,148.9c1.6,0,3,1.3,3,3s-1.3,3-3,3-3-1.3-3-3,1.3-3,3-3Z"/>
  <path class="st4" d="M1156.7,154.6c1.5,0,2.8-1.2,2.8-2.8s-1.2-2.8-2.8-2.8-2.8,1.2-2.8,2.8,1.2,2.8,2.8,2.8ZM1156.7,155.1c-1.8,0-3.2-1.4-3.2-3.2s1.4-3.2,3.2-3.2,3.2,1.4,3.2,3.2-1.4,3.2-3.2,3.2Z"/>
  <path class="st7" d="M1146.6,156.4c1.8,0,3.2,1.4,3.2,3.2s-1.4,3.2-3.2,3.2-3.2-1.4-3.2-3.2,1.4-3.2,3.2-3.2Z"/>
  <path class="st11" d="M1146.5,157.3c1.6,0,3,1.3,3,3s-1.3,3-3,3-3-1.3-3-3,1.3-3,3-3Z"/>
  <path class="st4" d="M1146.5,163c1.5,0,2.8-1.2,2.8-2.8s-1.2-2.8-2.8-2.8-2.8,1.2-2.8,2.8,1.2,2.8,2.8,2.8ZM1146.5,163.4c-1.8,0-3.2-1.4-3.2-3.2s1.4-3.2,3.2-3.2,3.2,1.4,3.2,3.2-1.4,3.2-3.2,3.2Z"/>
  <path class="st7" d="M1148.5,148c1.8,0,3.2,1.4,3.2,3.2s-1.4,3.2-3.2,3.2-3.2-1.4-3.2-3.2,1.4-3.2,3.2-3.2Z"/>
  <path class="st11" d="M1148.4,148.9c1.6,0,3,1.3,3,3s-1.3,3-3,3-3-1.3-3-3,1.3-3,3-3Z"/>
  <path class="st4" d="M1148.4,154.6c1.5,0,2.8-1.2,2.8-2.8s-1.2-2.8-2.8-2.8-2.8,1.2-2.8,2.8,1.2,2.8,2.8,2.8ZM1148.4,155.1c-1.8,0-3.2-1.4-3.2-3.2s1.4-3.2,3.2-3.2,3.2,1.4,3.2,3.2-1.4,3.2-3.2,3.2Z"/>
  <path class="st7" d="M1138.3,156.4c1.8,0,3.2,1.4,3.2,3.2s-1.4,3.2-3.2,3.2-3.2-1.4-3.2-3.2,1.4-3.2,3.2-3.2Z"/>
  <path class="st11" d="M1138.2,157.3c1.6,0,3,1.3,3,3s-1.3,3-3,3-3-1.3-3-3,1.3-3,3-3Z"/>
  <path class="st4" d="M1138.2,163c1.5,0,2.8-1.2,2.8-2.8s-1.2-2.8-2.8-2.8-2.8,1.2-2.8,2.8,1.2,2.8,2.8,2.8ZM1138.2,163.4c-1.8,0-3.2-1.4-3.2-3.2s1.4-3.2,3.2-3.2,3.2,1.4,3.2,3.2-1.4,3.2-3.2,3.2Z"/>
  <path class="st7" d="M1140.2,148c1.8,0,3.2,1.4,3.2,3.2s-1.4,3.2-3.2,3.2-3.2-1.4-3.2-3.2,1.4-3.2,3.2-3.2Z"/>
  <path class="st11" d="M1140.1,148.9c1.6,0,3,1.3,3,3s-1.3,3-3,3-3-1.3-3-3,1.3-3,3-3Z"/>
  <path class="st4" d="M1140.1,154.6c1.5,0,2.8-1.2,2.8-2.8s-1.2-2.8-2.8-2.8-2.8,1.2-2.8,2.8,1.2,2.8,2.8,2.8ZM1140.1,155.1c-1.8,0-3.2-1.4-3.2-3.2s1.4-3.2,3.2-3.2,3.2,1.4,3.2,3.2-1.4,3.2-3.2,3.2Z"/>
  <path class="st7" d="M1130,156.4c1.8,0,3.2,1.4,3.2,3.2s-1.4,3.2-3.2,3.2-3.2-1.4-3.2-3.2,1.4-3.2,3.2-3.2Z"/>
  <path class="st11" d="M1129.9,157.3c1.6,0,3,1.3,3,3s-1.3,3-3,3-3-1.3-3-3,1.3-3,3-3Z"/>
  <path class="st4" d="M1129.9,163c1.5,0,2.8-1.2,2.8-2.8s-1.2-2.8-2.8-2.8-2.8,1.2-2.8,2.8,1.2,2.8,2.8,2.8ZM1129.9,163.4c-1.8,0-3.2-1.4-3.2-3.2s1.4-3.2,3.2-3.2,3.2,1.4,3.2,3.2-1.4,3.2-3.2,3.2Z"/>
  <path class="st7" d="M1132,148c1.8,0,3.2,1.4,3.2,3.2s-1.4,3.2-3.2,3.2-3.2-1.4-3.2-3.2,1.4-3.2,3.2-3.2Z"/>
  <path class="st11" d="M1131.9,148.9c1.6,0,3,1.3,3,3s-1.3,3-3,3-3-1.3-3-3,1.3-3,3-3Z"/>
  <path class="st4" d="M1131.9,154.6c1.5,0,2.8-1.2,2.8-2.8s-1.2-2.8-2.8-2.8-2.8,1.2-2.8,2.8,1.2,2.8,2.8,2.8ZM1131.9,155.1c-1.8,0-3.2-1.4-3.2-3.2s1.4-3.2,3.2-3.2,3.2,1.4,3.2,3.2-1.4,3.2-3.2,3.2Z"/>
  <path class="st7" d="M1121.7,156.4c1.8,0,3.2,1.4,3.2,3.2s-1.4,3.2-3.2,3.2-3.2-1.4-3.2-3.2,1.4-3.2,3.2-3.2Z"/>
  <path class="st11" d="M1121.6,157.3c1.6,0,3,1.3,3,3s-1.3,3-3,3-3-1.3-3-3,1.3-3,3-3Z"/>
  <path class="st4" d="M1121.6,163c1.5,0,2.8-1.2,2.8-2.8s-1.2-2.8-2.8-2.8-2.8,1.2-2.8,2.8,1.2,2.8,2.8,2.8ZM1121.6,163.4c-1.8,0-3.2-1.4-3.2-3.2s1.4-3.2,3.2-3.2,3.2,1.4,3.2,3.2-1.4,3.2-3.2,3.2Z"/>
  <path class="st7" d="M1123.7,148c1.8,0,3.2,1.4,3.2,3.2s-1.4,3.2-3.2,3.2-3.2-1.4-3.2-3.2,1.4-3.2,3.2-3.2Z"/>
  <path class="st11" d="M1123.6,148.9c1.6,0,3,1.3,3,3s-1.3,3-3,3-3-1.3-3-3,1.3-3,3-3Z"/>
  <path class="st4" d="M1123.6,154.6c1.5,0,2.8-1.2,2.8-2.8s-1.2-2.8-2.8-2.8-2.8,1.2-2.8,2.8,1.2,2.8,2.8,2.8ZM1123.6,155.1c-1.8,0-3.2-1.4-3.2-3.2s1.4-3.2,3.2-3.2,3.2,1.4,3.2,3.2-1.4,3.2-3.2,3.2Z"/>
  <path class="st7" d="M1113.4,156.4c1.8,0,3.2,1.4,3.2,3.2s-1.4,3.2-3.2,3.2-3.2-1.4-3.2-3.2,1.4-3.2,3.2-3.2Z"/>
  <path class="st11" d="M1113.3,157.3c1.6,0,3,1.3,3,3s-1.3,3-3,3-3-1.3-3-3,1.3-3,3-3Z"/>
  <path class="st4" d="M1113.3,163c1.5,0,2.8-1.2,2.8-2.8s-1.2-2.8-2.8-2.8-2.8,1.2-2.8,2.8,1.2,2.8,2.8,2.8ZM1113.3,163.4c-1.8,0-3.2-1.4-3.2-3.2s1.4-3.2,3.2-3.2,3.2,1.4,3.2,3.2-1.4,3.2-3.2,3.2Z"/>
  <path class="st7" d="M1115.4,148c1.8,0,3.2,1.4,3.2,3.2s-1.4,3.2-3.2,3.2-3.2-1.4-3.2-3.2,1.4-3.2,3.2-3.2Z"/>
  <path class="st11" d="M1115.3,148.9c1.6,0,3,1.3,3,3s-1.3,3-3,3-3-1.3-3-3,1.3-3,3-3Z"/>
  <path class="st4" d="M1115.3,154.6c1.5,0,2.8-1.2,2.8-2.8s-1.2-2.8-2.8-2.8-2.8,1.2-2.8,2.8,1.2,2.8,2.8,2.8ZM1115.3,155.1c-1.8,0-3.2-1.4-3.2-3.2s1.4-3.2,3.2-3.2,3.2,1.4,3.2,3.2-1.4,3.2-3.2,3.2Z"/>
  <path class="st7" d="M1105.2,156.4c1.8,0,3.2,1.4,3.2,3.2s-1.4,3.2-3.2,3.2-3.2-1.4-3.2-3.2,1.4-3.2,3.2-3.2Z"/>
  <path class="st11" d="M1105.1,157.3c1.6,0,3,1.3,3,3s-1.3,3-3,3-3-1.3-3-3,1.3-3,3-3Z"/>
  <path class="st4" d="M1105.1,163c1.5,0,2.8-1.2,2.8-2.8s-1.2-2.8-2.8-2.8-2.8,1.2-2.8,2.8,1.2,2.8,2.8,2.8ZM1105.1,163.4c-1.8,0-3.2-1.4-3.2-3.2s1.4-3.2,3.2-3.2,3.2,1.4,3.2,3.2-1.4,3.2-3.2,3.2Z"/>
  <path class="st7" d="M1107.1,148c1.8,0,3.2,1.4,3.2,3.2s-1.4,3.2-3.2,3.2-3.2-1.4-3.2-3.2,1.4-3.2,3.2-3.2Z"/>
  <path class="st11" d="M1107,148.9c1.6,0,3,1.3,3,3s-1.3,3-3,3-3-1.3-3-3,1.3-3,3-3Z"/>
  <path class="st4" d="M1107,154.6c1.5,0,2.8-1.2,2.8-2.8s-1.2-2.8-2.8-2.8-2.8,1.2-2.8,2.8,1.2,2.8,2.8,2.8ZM1107,155.1c-1.8,0-3.2-1.4-3.2-3.2s1.4-3.2,3.2-3.2,3.2,1.4,3.2,3.2-1.4,3.2-3.2,3.2Z"/>
  <path class="st7" d="M1096.9,156.4c1.8,0,3.2,1.4,3.2,3.2s-1.4,3.2-3.2,3.2-3.2-1.4-3.2-3.2,1.4-3.2,3.2-3.2Z"/>
  <path class="st11" d="M1096.8,157.3c1.6,0,3,1.3,3,3s-1.3,3-3,3-3-1.3-3-3,1.3-3,3-3Z"/>
  <path class="st4" d="M1096.8,163c1.5,0,2.8-1.2,2.8-2.8s-1.2-2.8-2.8-2.8-2.8,1.2-2.8,2.8,1.2,2.8,2.8,2.8ZM1096.8,163.4c-1.8,0-3.2-1.4-3.2-3.2s1.4-3.2,3.2-3.2,3.2,1.4,3.2,3.2-1.4,3.2-3.2,3.2Z"/>
  <path class="st7" d="M1098.8,148c1.8,0,3.2,1.4,3.2,3.2s-1.4,3.2-3.2,3.2-3.2-1.4-3.2-3.2,1.4-3.2,3.2-3.2Z"/>
  <path class="st11" d="M1098.7,148.9c1.6,0,3,1.3,3,3s-1.3,3-3,3-3-1.3-3-3,1.3-3,3-3Z"/>
  <path class="st4" d="M1098.7,154.6c1.5,0,2.8-1.2,2.8-2.8s-1.2-2.8-2.8-2.8-2.8,1.2-2.8,2.8,1.2,2.8,2.8,2.8ZM1098.7,155.1c-1.8,0-3.2-1.4-3.2-3.2s1.4-3.2,3.2-3.2,3.2,1.4,3.2,3.2-1.4,3.2-3.2,3.2Z"/>
  <path class="st7" d="M1088.6,156.4c1.8,0,3.2,1.4,3.2,3.2s-1.4,3.2-3.2,3.2-3.2-1.4-3.2-3.2,1.4-3.2,3.2-3.2Z"/>
  <path class="st11" d="M1088.5,157.3c1.6,0,3,1.3,3,3s-1.3,3-3,3-3-1.3-3-3,1.3-3,3-3Z"/>
  <path class="st4" d="M1088.5,163c1.5,0,2.8-1.2,2.8-2.8s-1.2-2.8-2.8-2.8-2.8,1.2-2.8,2.8,1.2,2.8,2.8,2.8ZM1088.5,163.4c-1.8,0-3.2-1.4-3.2-3.2s1.4-3.2,3.2-3.2,3.2,1.4,3.2,3.2-1.4,3.2-3.2,3.2Z"/>
  <path class="st7" d="M1090.5,148c1.8,0,3.2,1.4,3.2,3.2s-1.4,3.2-3.2,3.2-3.2-1.4-3.2-3.2,1.4-3.2,3.2-3.2Z"/>
  <path class="st11" d="M1090.5,148.9c1.6,0,3,1.3,3,3s-1.3,3-3,3-3-1.3-3-3,1.3-3,3-3Z"/>
  <path class="st4" d="M1090.5,154.6c1.5,0,2.8-1.2,2.8-2.8s-1.2-2.8-2.8-2.8-2.8,1.2-2.8,2.8,1.2,2.8,2.8,2.8ZM1090.5,155.1c-1.8,0-3.2-1.4-3.2-3.2s1.4-3.2,3.2-3.2,3.2,1.4,3.2,3.2-1.4,3.2-3.2,3.2Z"/>
  <path class="st7" d="M1080.3,156.4c1.8,0,3.2,1.4,3.2,3.2s-1.4,3.2-3.2,3.2-3.2-1.4-3.2-3.2,1.4-3.2,3.2-3.2Z"/>
  <path class="st11" d="M1080.2,157.3c1.6,0,3,1.3,3,3s-1.3,3-3,3-3-1.3-3-3,1.3-3,3-3Z"/>
  <path class="st4" d="M1080.2,163c1.5,0,2.8-1.2,2.8-2.8s-1.2-2.8-2.8-2.8-2.8,1.2-2.8,2.8,1.2,2.8,2.8,2.8ZM1080.2,163.4c-1.8,0-3.2-1.4-3.2-3.2s1.4-3.2,3.2-3.2,3.2,1.4,3.2,3.2-1.4,3.2-3.2,3.2Z"/>
  <path class="st7" d="M1082.3,148c1.8,0,3.2,1.4,3.2,3.2s-1.4,3.2-3.2,3.2-3.2-1.4-3.2-3.2,1.4-3.2,3.2-3.2Z"/>
  <path class="st11" d="M1082.2,148.9c1.6,0,3,1.3,3,3s-1.3,3-3,3-3-1.3-3-3,1.3-3,3-3Z"/>
  <path class="st4" d="M1082.2,154.6c1.5,0,2.8-1.2,2.8-2.8s-1.2-2.8-2.8-2.8-2.8,1.2-2.8,2.8,1.2,2.8,2.8,2.8ZM1082.2,155.1c-1.8,0-3.2-1.4-3.2-3.2s1.4-3.2,3.2-3.2,3.2,1.4,3.2,3.2-1.4,3.2-3.2,3.2Z"/>
  <path class="st7" d="M1072,156.4c1.8,0,3.2,1.4,3.2,3.2s-1.4,3.2-3.2,3.2-3.2-1.4-3.2-3.2,1.4-3.2,3.2-3.2Z"/>
  <path class="st11" d="M1071.9,157.3c1.6,0,3,1.3,3,3s-1.3,3-3,3-3-1.3-3-3,1.3-3,3-3Z"/>
  <path class="st4" d="M1071.9,163c1.5,0,2.8-1.2,2.8-2.8s-1.2-2.8-2.8-2.8-2.8,1.2-2.8,2.8,1.2,2.8,2.8,2.8ZM1071.9,163.4c-1.8,0-3.2-1.4-3.2-3.2s1.4-3.2,3.2-3.2,3.2,1.4,3.2,3.2-1.4,3.2-3.2,3.2Z"/>
  <path class="st7" d="M1074,148c1.8,0,3.2,1.4,3.2,3.2s-1.4,3.2-3.2,3.2-3.2-1.4-3.2-3.2,1.4-3.2,3.2-3.2Z"/>
  <path class="st11" d="M1073.9,148.9c1.6,0,3,1.3,3,3s-1.3,3-3,3-3-1.3-3-3,1.3-3,3-3Z"/>
  <path class="st4" d="M1073.9,154.6c1.5,0,2.8-1.2,2.8-2.8s-1.2-2.8-2.8-2.8-2.8,1.2-2.8,2.8,1.2,2.8,2.8,2.8ZM1073.9,155.1c-1.8,0-3.2-1.4-3.2-3.2s1.4-3.2,3.2-3.2,3.2,1.4,3.2,3.2-1.4,3.2-3.2,3.2Z"/>
  <path class="st7" d="M1063.7,156.4c1.8,0,3.2,1.4,3.2,3.2s-1.4,3.2-3.2,3.2-3.2-1.4-3.2-3.2,1.4-3.2,3.2-3.2Z"/>
  <path class="st11" d="M1063.7,157.3c1.6,0,3,1.3,3,3s-1.3,3-3,3-3-1.3-3-3,1.3-3,3-3Z"/>
  <path class="st4" d="M1063.7,163c1.5,0,2.8-1.2,2.8-2.8s-1.2-2.8-2.8-2.8-2.8,1.2-2.8,2.8,1.2,2.8,2.8,2.8ZM1063.7,163.4c-1.8,0-3.2-1.4-3.2-3.2s1.4-3.2,3.2-3.2,3.2,1.4,3.2,3.2-1.4,3.2-3.2,3.2Z"/>
  <path class="st7" d="M1065.7,148c1.8,0,3.2,1.4,3.2,3.2s-1.4,3.2-3.2,3.2-3.2-1.4-3.2-3.2,1.4-3.2,3.2-3.2Z"/>
  <path class="st11" d="M1065.6,148.9c1.6,0,3,1.3,3,3s-1.3,3-3,3-3-1.3-3-3,1.3-3,3-3Z"/>
  <path class="st4" d="M1065.6,154.6c1.5,0,2.8-1.2,2.8-2.8s-1.2-2.8-2.8-2.8-2.8,1.2-2.8,2.8,1.2,2.8,2.8,2.8ZM1065.6,155.1c-1.8,0-3.2-1.4-3.2-3.2s1.4-3.2,3.2-3.2,3.2,1.4,3.2,3.2-1.4,3.2-3.2,3.2Z"/>
  <path class="st7" d="M1055.5,156.4c1.8,0,3.2,1.4,3.2,3.2s-1.4,3.2-3.2,3.2-3.2-1.4-3.2-3.2,1.4-3.2,3.2-3.2Z"/>
  <path class="st11" d="M1055.4,157.3c1.6,0,3,1.3,3,3s-1.3,3-3,3-3-1.3-3-3,1.3-3,3-3Z"/>
  <path class="st4" d="M1055.4,163c1.5,0,2.8-1.2,2.8-2.8s-1.2-2.8-2.8-2.8-2.8,1.2-2.8,2.8,1.2,2.8,2.8,2.8ZM1055.4,163.4c-1.8,0-3.2-1.4-3.2-3.2s1.4-3.2,3.2-3.2,3.2,1.4,3.2,3.2-1.4,3.2-3.2,3.2Z"/>
  <path class="st7" d="M1057.4,148c1.8,0,3.2,1.4,3.2,3.2s-1.4,3.2-3.2,3.2-3.2-1.4-3.2-3.2,1.4-3.2,3.2-3.2Z"/>
  <path class="st11" d="M1057.3,148.9c1.6,0,3,1.3,3,3s-1.3,3-3,3-3-1.3-3-3,1.3-3,3-3Z"/>
  <path class="st4" d="M1057.3,154.6c1.5,0,2.8-1.2,2.8-2.8s-1.2-2.8-2.8-2.8-2.8,1.2-2.8,2.8,1.2,2.8,2.8,2.8ZM1057.3,155.1c-1.8,0-3.2-1.4-3.2-3.2s1.4-3.2,3.2-3.2,3.2,1.4,3.2,3.2-1.4,3.2-3.2,3.2Z"/>
  <path class="st7" d="M1047.2,156.4c1.8,0,3.2,1.4,3.2,3.2s-1.4,3.2-3.2,3.2-3.2-1.4-3.2-3.2,1.4-3.2,3.2-3.2Z"/>
  <path class="st11" d="M1047.1,157.3c1.6,0,3,1.3,3,3s-1.3,3-3,3-3-1.3-3-3,1.3-3,3-3Z"/>
  <path class="st4" d="M1047.1,163c1.5,0,2.8-1.2,2.8-2.8s-1.2-2.8-2.8-2.8-2.8,1.2-2.8,2.8,1.2,2.8,2.8,2.8ZM1047.1,163.4c-1.8,0-3.2-1.4-3.2-3.2s1.4-3.2,3.2-3.2,3.2,1.4,3.2,3.2-1.4,3.2-3.2,3.2Z"/>
  <path class="st7" d="M1049.1,148c1.8,0,3.2,1.4,3.2,3.2s-1.4,3.2-3.2,3.2-3.2-1.4-3.2-3.2,1.4-3.2,3.2-3.2Z"/>
  <path class="st11" d="M1049,148.9c1.6,0,3,1.3,3,3s-1.3,3-3,3-3-1.3-3-3,1.3-3,3-3Z"/>
  <path class="st4" d="M1049,154.6c1.5,0,2.8-1.2,2.8-2.8s-1.2-2.8-2.8-2.8-2.8,1.2-2.8,2.8,1.2,2.8,2.8,2.8ZM1049,155.1c-1.8,0-3.2-1.4-3.2-3.2s1.4-3.2,3.2-3.2,3.2,1.4,3.2,3.2-1.4,3.2-3.2,3.2Z"/>
  <path class="st7" d="M1038.9,156.4c1.8,0,3.2,1.4,3.2,3.2s-1.4,3.2-3.2,3.2-3.2-1.4-3.2-3.2,1.4-3.2,3.2-3.2Z"/>
  <path class="st11" d="M1038.8,157.3c1.6,0,3,1.3,3,3s-1.3,3-3,3-3-1.3-3-3,1.3-3,3-3Z"/>
  <path class="st4" d="M1038.8,163c1.5,0,2.8-1.2,2.8-2.8s-1.2-2.8-2.8-2.8-2.8,1.2-2.8,2.8,1.2,2.8,2.8,2.8ZM1038.8,163.4c-1.8,0-3.2-1.4-3.2-3.2s1.4-3.2,3.2-3.2,3.2,1.4,3.2,3.2-1.4,3.2-3.2,3.2Z"/>
  <path class="st7" d="M1040.9,148c1.8,0,3.2,1.4,3.2,3.2s-1.4,3.2-3.2,3.2-3.2-1.4-3.2-3.2,1.4-3.2,3.2-3.2Z"/>
  <path class="st11" d="M1040.8,148.9c1.6,0,3,1.3,3,3s-1.3,3-3,3-3-1.3-3-3,1.3-3,3-3Z"/>
  <path class="st4" d="M1040.8,154.6c1.5,0,2.8-1.2,2.8-2.8s-1.2-2.8-2.8-2.8-2.8,1.2-2.8,2.8,1.2,2.8,2.8,2.8ZM1040.8,155.1c-1.8,0-3.2-1.4-3.2-3.2s1.4-3.2,3.2-3.2,3.2,1.4,3.2,3.2-1.4,3.2-3.2,3.2Z"/>
  <path class="st7" d="M1030.6,156.4c1.8,0,3.2,1.4,3.2,3.2s-1.4,3.2-3.2,3.2-3.2-1.4-3.2-3.2,1.4-3.2,3.2-3.2Z"/>
  <path class="st11" d="M1030.5,157.3c1.6,0,3,1.3,3,3s-1.3,3-3,3-3-1.3-3-3,1.3-3,3-3Z"/>
  <path class="st4" d="M1030.5,163c1.5,0,2.8-1.2,2.8-2.8s-1.2-2.8-2.8-2.8-2.8,1.2-2.8,2.8,1.2,2.8,2.8,2.8ZM1030.5,163.4c-1.8,0-3.2-1.4-3.2-3.2s1.4-3.2,3.2-3.2,3.2,1.4,3.2,3.2-1.4,3.2-3.2,3.2Z"/>
  <path class="st7" d="M1032.6,148c1.8,0,3.2,1.4,3.2,3.2s-1.4,3.2-3.2,3.2-3.2-1.4-3.2-3.2,1.4-3.2,3.2-3.2Z"/>
  <path class="st11" d="M1032.5,148.9c1.6,0,3,1.3,3,3s-1.3,3-3,3-3-1.3-3-3,1.3-3,3-3Z"/>
  <path class="st4" d="M1032.5,154.6c1.5,0,2.8-1.2,2.8-2.8s-1.2-2.8-2.8-2.8-2.8,1.2-2.8,2.8,1.2,2.8,2.8,2.8ZM1032.5,155.1c-1.8,0-3.2-1.4-3.2-3.2s1.4-3.2,3.2-3.2,3.2,1.4,3.2,3.2-1.4,3.2-3.2,3.2Z"/>
  <path class="st7" d="M1022.3,156.4c1.8,0,3.2,1.4,3.2,3.2s-1.4,3.2-3.2,3.2-3.2-1.4-3.2-3.2,1.4-3.2,3.2-3.2Z"/>
  <path class="st11" d="M1022.3,157.3c1.6,0,3,1.3,3,3s-1.3,3-3,3-3-1.3-3-3,1.3-3,3-3Z"/>
  <path class="st4" d="M1022.3,163c1.5,0,2.8-1.2,2.8-2.8s-1.2-2.8-2.8-2.8-2.8,1.2-2.8,2.8,1.2,2.8,2.8,2.8ZM1022.3,163.4c-1.8,0-3.2-1.4-3.2-3.2s1.4-3.2,3.2-3.2,3.2,1.4,3.2,3.2-1.4,3.2-3.2,3.2Z"/>
  <path class="st7" d="M1024.3,148c1.8,0,3.2,1.4,3.2,3.2s-1.4,3.2-3.2,3.2-3.2-1.4-3.2-3.2,1.4-3.2,3.2-3.2Z"/>
  <path class="st11" d="M1024.2,148.9c1.6,0,3,1.3,3,3s-1.3,3-3,3-3-1.3-3-3,1.3-3,3-3Z"/>
  <path class="st4" d="M1024.2,154.6c1.5,0,2.8-1.2,2.8-2.8s-1.2-2.8-2.8-2.8-2.8,1.2-2.8,2.8,1.2,2.8,2.8,2.8ZM1024.2,155.1c-1.8,0-3.2-1.4-3.2-3.2s1.4-3.2,3.2-3.2,3.2,1.4,3.2,3.2-1.4,3.2-3.2,3.2Z"/>
  <path class="st7" d="M1014.1,156.4c1.8,0,3.2,1.4,3.2,3.2s-1.4,3.2-3.2,3.2-3.2-1.4-3.2-3.2,1.4-3.2,3.2-3.2Z"/>
  <path class="st11" d="M1014,157.3c1.6,0,3,1.3,3,3s-1.3,3-3,3-3-1.3-3-3,1.3-3,3-3Z"/>
  <path class="st4" d="M1014,163c1.5,0,2.8-1.2,2.8-2.8s-1.2-2.8-2.8-2.8-2.8,1.2-2.8,2.8,1.2,2.8,2.8,2.8ZM1014,163.4c-1.8,0-3.2-1.4-3.2-3.2s1.4-3.2,3.2-3.2,3.2,1.4,3.2,3.2-1.4,3.2-3.2,3.2Z"/>
  <path class="st7" d="M1016,148c1.8,0,3.2,1.4,3.2,3.2s-1.4,3.2-3.2,3.2-3.2-1.4-3.2-3.2,1.4-3.2,3.2-3.2Z"/>
  <path class="st11" d="M1015.9,148.9c1.6,0,3,1.3,3,3s-1.3,3-3,3-3-1.3-3-3,1.3-3,3-3Z"/>
  <path class="st4" d="M1015.9,154.6c1.5,0,2.8-1.2,2.8-2.8s-1.2-2.8-2.8-2.8-2.8,1.2-2.8,2.8,1.2,2.8,2.8,2.8ZM1015.9,155.1c-1.8,0-3.2-1.4-3.2-3.2s1.4-3.2,3.2-3.2,3.2,1.4,3.2,3.2-1.4,3.2-3.2,3.2Z"/>
  <path class="st7" d="M1005.8,156.4c1.8,0,3.2,1.4,3.2,3.2s-1.4,3.2-3.2,3.2-3.2-1.4-3.2-3.2,1.4-3.2,3.2-3.2Z"/>
  <path class="st11" d="M1005.7,157.3c1.6,0,3,1.3,3,3s-1.3,3-3,3-3-1.3-3-3,1.3-3,3-3Z"/>
  <path class="st4" d="M1005.7,163c1.5,0,2.8-1.2,2.8-2.8s-1.2-2.8-2.8-2.8-2.8,1.2-2.8,2.8,1.2,2.8,2.8,2.8ZM1005.7,163.4c-1.8,0-3.2-1.4-3.2-3.2s1.4-3.2,3.2-3.2,3.2,1.4,3.2,3.2-1.4,3.2-3.2,3.2Z"/>
  <path class="st7" d="M1007.7,148c1.8,0,3.2,1.4,3.2,3.2s-1.4,3.2-3.2,3.2-3.2-1.4-3.2-3.2,1.4-3.2,3.2-3.2Z"/>
  <path class="st11" d="M1007.6,148.9c1.6,0,3,1.3,3,3s-1.3,3-3,3-3-1.3-3-3,1.3-3,3-3Z"/>
  <path class="st4" d="M1007.6,154.6c1.5,0,2.8-1.2,2.8-2.8s-1.2-2.8-2.8-2.8-2.8,1.2-2.8,2.8,1.2,2.8,2.8,2.8ZM1007.6,155.1c-1.8,0-3.2-1.4-3.2-3.2s1.4-3.2,3.2-3.2,3.2,1.4,3.2,3.2-1.4,3.2-3.2,3.2Z"/>
  <path class="st7" d="M997.5,156.4c1.8,0,3.2,1.4,3.2,3.2s-1.4,3.2-3.2,3.2-3.2-1.4-3.2-3.2,1.4-3.2,3.2-3.2Z"/>
  <path class="st11" d="M997.4,157.3c1.6,0,3,1.3,3,3s-1.3,3-3,3-3-1.3-3-3,1.3-3,3-3Z"/>
  <path class="st4" d="M997.4,163c1.5,0,2.8-1.2,2.8-2.8s-1.2-2.8-2.8-2.8-2.8,1.2-2.8,2.8,1.2,2.8,2.8,2.8ZM997.4,163.4c-1.8,0-3.2-1.4-3.2-3.2s1.4-3.2,3.2-3.2,3.2,1.4,3.2,3.2-1.4,3.2-3.2,3.2Z"/>
  <path class="st7" d="M999.5,148c1.8,0,3.2,1.4,3.2,3.2s-1.4,3.2-3.2,3.2-3.2-1.4-3.2-3.2,1.4-3.2,3.2-3.2Z"/>
  <path class="st11" d="M999.4,148.9c1.6,0,3,1.3,3,3s-1.3,3-3,3-3-1.3-3-3,1.3-3,3-3Z"/>
  <path class="st4" d="M999.4,154.6c1.5,0,2.8-1.2,2.8-2.8s-1.2-2.8-2.8-2.8-2.8,1.2-2.8,2.8,1.2,2.8,2.8,2.8ZM999.4,155.1c-1.8,0-3.2-1.4-3.2-3.2s1.4-3.2,3.2-3.2,3.2,1.4,3.2,3.2-1.4,3.2-3.2,3.2Z"/>
  <g>
    <path class="st2" d="M999.9,143.8c-1.1,0-2.3-.3-3.2-1-1.5-1.2-2.2-3.1-1.8-4.9l19.9-110.5c.5-2.2,2.5-3.9,4.8-3.9l277.8-.4c1,0,1.8.4,2.3,1,.5.7.7,1.7.4,2.7h0l-9.6,45.1c-.2,1.3-1.4,2.3-2.7,2.3h-100.9c-10.6,0-20.6,4.2-28.1,11.8-7.5,7.6-11.6,17.7-11.6,28.3s2.6,16.6,7.6,23.4,2.6,4,3.1,4.8c.3.4.5.7.8,1.1h0q0,.1,0,.1h-158.8,0Z"/>
    <path class="st5" d="M1297.5,22.2c3,0,4.2,2.5,3.6,4.8l-9.6,45.1c-.3,1.7-1.8,2.9-3.5,2.9h-100.9c-21.5,0-38.9,17.8-38.9,39.3s2.6,16.8,7.3,23.3,3.8,5.1,4.1,5.5c.5.7,0,1.6-.8,1.6h-159c-3.6,0-6.4-3.3-5.6-6.9l19.9-110.5c.6-2.7,2.9-4.6,5.6-4.6l277.8-.4M1297.5,20.9l-277.8.4c-3.3,0-6.2,2.4-6.9,5.6h0l-19.9,110.5c-.5,2.4.3,4.9,2.1,6.6s3.2,1.9,5,1.9h158.8c1.1,0,2-.7,2.2-1.8s0-1.4-.5-1.9-3.3-4.2-3.3-4.2c-5.3-6.7-7.7-15.1-7.7-23.6s3.9-19.6,11-26.8,16.5-11.2,26.6-11.2h100.9c2.4,0,4.4-1.6,4.8-3.9l9.5-45c.4-1.6,0-3.3-.8-4.5s-2.4-1.9-4.1-1.9h0v-.2Z"/>
    <path class="st8" d="M1000,129.9l-1.6,8.6h0c0,.7,0,1.1.3,1.3s.5.5,1.1.5h153.3c-1.2-1.5-4.1-6.1-5.2-9l-1,2.6c-.7,1-1.8,1.5-3,1.5h-139.7c-1.7,0-3.2-1.2-3.5-2.9l-.5-2.6h-.2Z"/>
    <path class="st8" d="M1294.9,35.9l1.7-7.1c.3-1.2-.6-2.3-1.8-2.3l-275.1.4c-.7,0-1.2.5-1.4,1.1l-1.7,8.4,2-2.3c2.4-1.9,3.3-3,6.3-3h264c4,0,4.9,1.3,6,4.7h0Z"/>
    <path class="st2" d="M1423.7,143.4c-.3,0-.5-.2-.5-.3s0-.4,0-.6c7.5-7.5,11.7-17.5,11.7-28.2,0-21.9-17.8-39.8-39.7-39.8h-85.9c-.5,0-.9-.2-1.2-.6-.3-.4-.4-.8-.3-1.3l9.7-47.1c.3-1.5,1.4-2.5,2.6-2.5h283c1.6,0,3.2.7,4.2,1.9,1,1.2,1.5,2.9,1.2,4.5l-17.6,107.6c-.6,2.8-2.3,6.2-6.9,6.2h-160.3v.2Z"/>
    <path class="st9" d="M1320.1,24.1h283c1.4,0,2.7.6,3.5,1.6.9,1,1.3,2.4,1,3.8l-17.6,107.6c-.8,3.6-2.8,5.5-6.1,5.5h-159.6c7.4-7.6,11.4-17.6,11.4-28.3,0-22.4-18.2-40.6-40.6-40.6h-85.9c-.3,0-.4-.2-.5-.2,0,0-.2-.3,0-.5l9.7-47c.3-1.1,1-1.8,1.8-1.8M1320.1,22.3c-1.7,0-3,1.3-3.5,3.2l-9.7,47.1c-.3,1.5.8,2.9,2.3,2.9h85.9c21.5,0,38.9,17.4,38.9,38.9s-4.4,20.5-11.4,27.6c-.9.9-.3,2.4,1,2.4h160.3c4.5,0,6.9-2.9,7.8-6.9l17.6-107.6c.6-3.9-2.4-7.4-6.3-7.4h-283v-.2Z"/>
    <path class="st5" d="M1320.1,22.3h283c3.9,0,6.9,3.5,6.3,7.4l-17.6,107.6c-.8,4-3.3,6.9-7.8,6.9h-160.3c-1.3,0-1.9-1.5-1-2.4,7.1-7,11.4-16.8,11.4-27.6,0-21.5-17.4-38.9-38.9-38.9h-85.9c-1.5,0-2.6-1.4-2.3-2.9l9.7-47.1c.4-1.8,1.8-3.2,3.5-3.2M1320.1,21c-2.2,0-4.1,1.7-4.7,4.2h0l-9.7,47.1c-.2,1.1,0,2.2.8,3.1.7.9,1.7,1.4,2.8,1.4h85.9c20.7,0,37.6,16.9,37.6,37.6s-3.9,19.5-11,26.6c-.8.8-1,2-.6,3s1.4,1.7,2.5,1.7h160.3c4.7,0,8-2.9,9-7.9h0l17.6-107.6c.4-2.2-.3-4.5-1.7-6.2-1.5-1.7-3.6-2.7-5.8-2.7h-283v-.3Z"/>
    <path class="st8" d="M1603.7,36.2l1.4-7.1c0-.8-.2-1.4-.5-1.7-.2-.3-.7-.7-1.6-.7h-280.2c-1.2,0-2.3.8-2.6,2l-1.6,6.5,1.9-2.4c.8-1,2.1-1.6,3.4-1.6h276.6c1.3,0,2.5,1,2.7,2.3l.5,2.7h0Z"/>
    <path class="st8" d="M1435.5,130.4c-1.1,3.7-4.5,8.1-5.6,9.6h154c.9,0,2.8,0,3.5-3.4l1-5.2-1.4,2.3c-1.3,1.1-2.9,1.7-4.7,1.7h-144.1c-1.3,0-2.4-.9-2.7-2.2v-2.9h0,0Z"/>
    <path class="st9" d="M1395.8,84c-10,0-18.8,4.9-24.2,12.4h-3.9c-5.4-7.5-14.3-12.4-24.2-12.4s-18.8,4.9-24.2,12.4h-3.5c-5.4-7.5-14.3-12.4-24.2-12.4s-18.8,4.9-24.2,12.4h-3.5c-5.4-7.5-14.3-12.4-24.2-12.4s-18.8,4.9-24.2,12.4h-3.5c-5.4-7.5-14.3-12.4-24.2-12.4-16.5,0-29.9,13.4-29.9,30s13.4,30,29.9,30,18.8-4.9,24.2-12.4h3.5c5.4,7.5,14.3,12.4,24.2,12.4s18.8-4.9,24.2-12.4h3.5c5.4,7.5,14.3,12.4,24.2,12.4s18.8-4.9,24.2-12.4h3.5c5.4,7.5,14.3,12.4,24.2,12.4s18.8-4.9,24.2-12.4h3.9c5.4,7.5,14.3,12.4,24.2,12.4,16.5,0,29.9-13.4,29.9-30s-13.4-30-29.9-30Z"/>
    <path class="st6" d="M1395.8,84c16.5,0,29.9,13.4,29.9,30s-13.4,30-29.9,30-18.8-4.9-24.2-12.4h-3.9c-5.4,7.5-14.3,12.4-24.2,12.4s-18.8-4.9-24.2-12.4h-3.5c-5.4,7.5-14.3,12.4-24.2,12.4s-18.8-4.9-24.2-12.4h-3.5c-5.4,7.5-14.3,12.4-24.2,12.4s-18.8-4.9-24.2-12.4h-3.5c-5.4,7.5-14.3,12.4-24.2,12.4-16.5,0-29.9-13.4-29.9-30s13.4-30,29.9-30,18.8,4.9,24.2,12.4h3.5c5.4-7.5,14.3-12.4,24.2-12.4s18.8,4.9,24.2,12.4h3.5c5.4-7.5,14.3-12.4,24.2-12.4s18.8,4.9,24.2,12.4h3.5c5.4-7.5,14.3-12.4,24.2-12.4s18.8,4.9,24.2,12.4h3.9c5.4-7.5,14.3-12.4,24.2-12.4ZM1395.8,81.9c-9.8,0-19.2,4.6-25.2,12.4h-1.9c-6-7.8-15.4-12.4-25.2-12.4s-19.2,4.6-25.2,12.4h-1.4c-6-7.8-15.4-12.4-25.2-12.4s-19.2,4.6-25.2,12.4h-1.4c-6-7.8-15.4-12.4-25.2-12.4s-19.2,4.6-25.2,12.4h-1.4c-6-7.8-15.4-12.4-25.2-12.4-17.6,0-32,14.4-32,32s14.3,32,32,32,19.2-4.6,25.2-12.4h1.4c6,7.8,15.4,12.4,25.2,12.4s19.2-4.6,25.2-12.4h1.4c6,7.8,15.4,12.4,25.2,12.4s19.2-4.6,25.2-12.4h1.4c6,7.8,15.4,12.4,25.2,12.4s19.2-4.6,25.2-12.4h1.9c6,7.8,15.4,12.4,25.2,12.4,17.6,0,32-14.4,32-32s-14.3-32-32-32Z"/>
  </g>
  <path class="st9" d="M1014.1,27.2l-19.9,110.5c0,.4,0,.9,0,1.3,0,3,2.5,5.6,5.7,5.6h159c.4,0,.7-.2.9-.6,0-.3,0-.7,0-1h0c-.6-.8-3.5-4.7-4-5.5-4.7-6.4-7.2-14.6-7.3-23.2h0c0-21.5,17.4-39.3,38.9-39.3h100.9c1.7,0,3.2-1.2,3.5-2.9l9.6-45.1c0-.4.2-.9.2-1.3,0-1.8-1.4-3.5-3.8-3.5h0l-277.8.4c-2.7,0-5.1,1.9-5.6,4.6h-.1ZM1019.7,24.4l277.8-.4h0c.7,0,1.3.2,1.7.7.4.5.5,1.2.3,1.9h0l-9.6,45.1h0c-.2.9-.9,1.5-1.8,1.5h-100.9c-10.8,0-21,4.2-28.7,12.1-7.7,7.8-11.9,18.1-11.9,28.9s2.6,17.3,7.6,24.3c.6.8,2.7,3.6,3.2,4.3h-157.4c-.9,0-1.9-.3-2.6-.8-1.2-1-1.8-2.5-1.5-4h0l19.9-110.5c.4-1.8,2-3.2,3.9-3.2h0Z"/>
</svg>