<svg width="890" height="633" viewBox="0 0 890 633" fill="none" xmlns="http://www.w3.org/2000/svg">
<path d="M847.578 586.499H41.1351C37.2234 586.499 34.0457 583.472 34.0457 579.76V53.5394C34.0457 49.8268 37.233 46.791 41.1351 46.791H847.578C851.49 46.791 854.668 49.8172 854.668 53.5394V579.76C854.668 583.472 851.49 586.499 847.578 586.499ZM43.5015 577.507H845.222V55.7824H43.5015V577.507Z" fill="#111156"/>
<path d="M859.014 50.5136V582.467C859.014 587.108 855.064 590.869 850.186 590.869H43.6852C35.7941 590.869 29.3904 584.778 29.3904 577.275V55.7151C29.3904 48.2029 35.7941 42.1216 43.6852 42.1216H850.186C855.064 42.1216 859.014 45.8825 859.014 50.5232V50.5136Z" fill="#BFB6F2"/>
<path d="M846.777 591.99H41.9852C34.3742 591.99 28.2119 586.122 28.2119 578.89V54.6515C28.2119 47.1103 34.6446 41 42.5647 41H846.786C854.204 41 860.221 46.7139 860.221 53.7717V579.228C860.221 586.286 854.214 592 846.786 592L846.777 591.99ZM42.5551 43.243C35.9292 43.243 30.5686 48.3478 30.5686 54.6515V577.72C30.5686 584.362 36.2383 589.767 43.2312 589.767H846.777C852.891 589.767 857.836 585.058 857.836 579.248V53.762C857.836 47.9514 852.881 43.243 846.777 43.243H42.5551Z" fill="#E4E1FF"/>
<path d="M845.415 586.277H42.5551C37.9962 586.277 34.2776 582.748 34.2776 578.407V54.8836C34.2776 50.5426 37.9865 47.0137 42.5551 47.0137H845.415C849.974 47.0137 853.692 50.5426 853.692 54.8836V578.407C853.692 582.748 849.974 586.277 845.415 586.277ZM845.415 54.8836H42.5551V578.416H845.415V54.8836Z" fill="#8181C6"/>
<path d="M845.907 50.9487H42.0625C40.0438 50.9487 38.4211 52.5053 38.4211 54.4099V578.871C38.4211 580.785 40.0535 582.332 42.0625 582.332H845.907C847.926 582.332 849.549 580.785 849.549 578.871V54.4099C849.549 52.4956 847.916 50.9487 845.907 50.9487Z" fill="#04045D"/>
<path d="M840.344 58.3735H48.3695C47.5968 58.3735 46.969 58.973 46.969 59.6981V573.582C46.969 574.326 47.5968 574.906 48.3695 574.906H840.344C841.117 574.906 841.744 574.307 841.744 573.582V59.6981C841.744 58.9536 841.117 58.3735 840.344 58.3735Z" fill="#250D8C"/>
<path d="M843.367 577.343H44.6799C44.1197 577.343 43.6851 576.918 43.6851 576.395V56.1306C43.6851 55.5988 44.139 55.1831 44.6799 55.1831H843.367C843.927 55.1831 844.372 55.6085 844.372 56.1306V576.395C844.372 576.927 843.918 577.343 843.367 577.343ZM837.543 60.7907H50.5234C50.0115 60.7907 49.6058 61.1871 49.6058 61.6608V570.827C49.6058 571.31 50.0212 571.697 50.5234 571.697H837.543C838.055 571.697 838.46 571.3 838.46 570.827V61.6705C838.46 61.1871 838.045 60.8003 837.543 60.8003V60.7907Z" fill="#5941CD"/>
<path d="M593.705 563.339H596.5C600.163 563.339 603.618 564.969 605.979 567.815C608.34 570.661 609.339 574.397 608.714 578.063L608.444 579.649C608.74 581.147 602.984 619.193 602.984 619.193C601.951 625.246 597.229 629.634 591.179 629.634H301.007C294.957 629.634 290.234 625.237 289.201 619.193C289.201 619.193 281.701 580.433 282.214 578.627L282.118 578.063C281.493 574.397 282.491 570.661 284.852 567.815C287.214 564.969 290.668 563.339 294.332 563.339M293.663 560.097C291.363 560.097 289.062 560.573 286.996 561.604C285.069 562.564 283.333 563.93 281.91 565.648C278.915 569.252 277.648 573.992 278.446 578.635C278.446 578.635 285.885 619.378 285.929 619.695V619.775C287.266 627.564 293.463 633.009 301.016 633.009H591.188C598.74 633.009 604.929 627.564 606.257 619.775V619.722C606.318 619.404 611.622 581.711 611.743 580.089L611.986 578.627C612.776 573.983 611.517 569.252 608.523 565.639C605.754 562.309 601.379 560 595.076 560C588.774 560 328.776 560.026 293.663 560.097Z" fill="#2B1977"/>
<path d="M605.242 574.001C602.88 571.155 599.426 569.525 595.762 569.525H592.768L297.3 569.208L293.603 569.525C289.939 569.525 286.485 571.155 284.123 574.001C281.762 576.847 280.764 580.583 281.806 584.249L288.681 619.193C289.297 625.247 294.436 629.635 300.486 629.635H590.658C596.709 629.635 601.848 625.238 602.88 619.193L607.985 584.249C608.61 580.583 607.611 576.847 605.25 574.001H605.242Z" fill="#8B79F2"/>
<path d="M605.45 567.816C603.089 564.97 599.625 563.34 595.971 563.34H294.219C290.139 563.34 286.684 564.97 284.323 567.816C281.962 570.662 280.964 574.398 281.589 578.063L288.464 613.008C289.488 619.061 294.635 623.449 300.686 623.449H590.858C596.908 623.449 602.047 619.052 603.08 613.008L608.184 578.063C608.809 574.398 607.811 570.662 605.45 567.816Z" fill="#9F9FF4"/>
<path d="M590.867 624.33H300.686C294.21 624.33 288.707 619.633 287.613 613.157L280.729 578.195C280.061 574.291 281.129 570.3 283.655 567.251C286.215 564.159 289.965 562.458 294.219 562.458H595.962C599.747 562.458 603.323 564.088 605.84 566.934H605.849L606.109 567.251C608.636 570.3 609.703 574.291 609.035 578.212L603.939 613.139C602.828 619.633 597.334 624.33 590.858 624.33H590.867ZM294.219 564.22C290.495 564.22 287.214 565.7 284.983 568.388C282.786 571.04 281.858 574.512 282.439 577.921L289.323 612.884C290.278 618.497 295.052 622.576 300.686 622.576H590.858C596.483 622.576 601.266 618.488 602.221 612.866L607.316 577.939C607.889 574.582 607.004 571.181 604.903 568.546L604.773 568.397C602.577 565.753 599.365 564.229 595.953 564.229H294.219V564.22Z" fill="#D9D9FF"/>
<path d="M593.67 576.768C592.403 574.961 590.285 573.975 588.098 573.975H303.247C301.059 573.975 298.941 574.97 297.674 576.768C296.484 578.451 296.033 579.526 296.719 582.539L302.188 610.823C303.012 613.642 305.599 615.607 308.49 615.607H584.582C587.473 615.607 590.059 613.642 590.884 610.831L594.617 582.539C595.198 580.539 594.851 578.442 593.662 576.759L593.67 576.768Z" fill="#0B052D"/>
<path d="M582.924 616.487H309.731C305.269 616.487 301.979 613.756 301.154 609.359L295.859 582.706C295.208 580.477 295.634 578.053 297.049 576.124C298.463 574.194 300.642 573.084 303.012 573.084H588.306C590.675 573.084 592.846 574.194 594.269 576.124L594.443 576.371C595.719 578.238 596.083 580.547 595.458 582.75L592.559 609.315C591.222 615.976 584.842 616.496 582.915 616.496L582.924 616.487ZM303.021 574.846C301.198 574.846 299.531 575.692 298.446 577.172C297.361 578.653 297.031 580.512 297.543 582.283L302.856 609.024C303.533 612.646 306.042 614.716 309.722 614.716H582.915C584.955 614.716 589.816 614.153 590.858 608.963L593.783 582.283C594.304 580.512 593.974 578.644 592.88 577.172L592.776 577.031C591.682 575.639 590.068 574.837 588.306 574.837H303.021V574.846Z" fill="#CBCAFF"/>
<path d="M590.762 578.785C590.181 577.992 589.287 577.543 588.315 577.543H303.021C302.049 577.543 301.155 578.001 300.573 578.785C299.991 579.578 299.818 580.574 300.096 581.526L304.731 606.946C305.608 609.941 308.368 612.03 311.441 612.03H581.639C584.721 612.03 587.473 609.941 588.349 606.946L591.249 581.526C591.526 580.583 591.344 579.587 590.771 578.785H590.762Z" fill="#2B0796"/>
<path d="M300.148 581.711C300.252 581.429 300.391 581.147 300.573 580.891C301.155 580.098 302.049 579.649 303.021 579.649H588.315C589.287 579.649 590.181 580.107 590.762 580.891C590.945 581.147 591.092 581.42 591.188 581.711L591.24 581.526C591.518 580.583 591.335 579.587 590.762 578.785C590.181 577.992 589.287 577.543 588.315 577.543H303.021C302.049 577.543 301.155 578.001 300.573 578.785C299.991 579.578 299.818 580.574 300.096 581.526L300.148 581.711Z" fill="#7764FF"/>
<path d="M587.941 607.298C587.837 607.58 587.698 607.862 587.516 608.117C586.934 608.91 586.04 609.36 585.068 609.36H308.108C307.135 609.36 306.241 608.91 305.66 608.117C305.477 607.862 305.33 607.589 305.234 607.298L305.182 607.483C304.904 608.426 305.087 609.43 305.66 610.223C306.241 611.016 307.135 611.466 308.108 611.466H585.059C586.031 611.466 586.926 611.016 587.507 610.223C588.089 609.43 588.262 608.434 587.985 607.483L587.932 607.298H587.941Z" fill="#7764FF"/>
<path d="M300.556 578.785C301.137 577.992 302.031 577.543 303.003 577.543H376.666L375.798 611.616H311.415C308.333 611.616 305.582 611.624 304.705 608.637L300.069 581.534C299.792 580.592 299.974 579.587 300.547 578.794L300.556 578.785Z" fill="url(#paint0_linear_326_4380)"/>
<path d="M590.832 578.785C590.25 577.992 589.356 577.543 588.384 577.543H526.006V612.03H581.7C584.773 612.03 587.533 612.038 588.41 609.051L591.309 581.526C591.587 580.583 591.405 579.587 590.832 578.785Z" fill="url(#paint1_linear_326_4380)"/>
<path d="M71.8319 621.884C74.776 621.015 77.0161 618.738 79.2441 616.736C104.051 616.289 122.279 616.932 147.104 616.412C149.73 615.843 150.813 614.343 152.331 612.384C160.135 602.273 167.351 591.678 175.057 581.499C175.308 580.661 175.057 579.877 174.249 579.504L60.4046 579.406C54.5042 573.041 48.1449 566.969 42.3119 560.561L41.7059 445.387C41.8161 444.959 40.7327 444.457 40.4328 444.439C40.0349 444.414 38.3456 445.804 37.8927 446.146C27.6589 453.791 18.3983 461.926 8.15836 469.564C6.76284 470.886 5.94268 472.716 5.72234 474.62L5.44081 540.277C4.03305 542.639 2.30703 544.065 1.24203 547.273L0.446306 578.115C1.32769 581.671 4.32679 583.923 6.68938 586.488C16.7579 597.376 26.9611 608.137 37.0174 619.032C38.3028 620.409 40.2553 621.676 42.165 621.89H71.8381L71.8319 621.884Z" fill="#DDD6F2"/>
<path d="M7.69984 469.558L7.64478 469.613C6.13909 471.119 5.31276 473.12 5.31276 475.25V540.558L2.98694 543.716C1.20582 545.981 4.37341e-05 547.719 4.37341e-05 550.186V576.64C4.37341e-05 578.794 0.887538 580.881 2.44219 582.381L37.0302 619.344C38.5359 620.917 40.6353 621.816 42.802 621.816H70.1859C72.573 621.816 74.0236 620.666 75.8598 619.209L76.4291 618.756L79.0181 616.504H144.809C146.939 616.504 148.941 615.677 150.447 614.172L151.144 614.031L177.212 579.516C177.114 579.516 174.856 579.492 174.831 579.516L60.6254 579.339L41.8716 558.847V443.172L7.70597 469.558H7.69984ZM9.32184 471.394L39.4173 448.179V561.656L58.9851 581.781H171.9L149.222 612.495C148.188 613.498 146.248 614.049 144.803 614.049H81.5337L77.7695 617.287C75.9088 618.762 75.0948 619.362 73.6197 619.362H42.802C41.3024 619.362 39.8457 618.738 38.8113 617.654L4.15594 580.624C3.07258 579.59 2.44832 578.133 2.44832 576.634V546.452C2.44832 544.684 3.09708 543.527 4.63337 541.568L7.75491 537.253V475.244C7.75491 473.794 8.31193 472.429 9.32184 471.394Z" fill="#E7E6FF"/>
<path d="M26.5574 519.846C27.4939 518.989 28.0325 517.771 28.0325 516.498L27.9897 453.749L6.93447 469.564C5.96128 470.287 5.38592 471.431 5.38592 472.643L5.45936 540.534" fill="#6A69A3"/>
<path d="M6.90341 469.834L6.97686 537.382H6.98291V538.826L5.1467 540.803L5.07326 473.255C5.07326 471.786 5.76491 470.391 6.92172 469.497C6.9156 469.613 6.90341 469.724 6.90341 469.84V469.834Z" fill="#8585C6"/>
<path d="M26.4656 519.845L5.08598 540.845V538.287L24.5559 519.154C25.4924 518.297 26.031 517.079 26.031 515.805L25.9882 455.174L27.8917 453.742L27.9346 516.491C27.9346 517.764 27.402 518.976 26.4595 519.839L26.4656 519.845Z" fill="#545487"/>
<path d="M27.6838 367.441C27.6838 367.526 27.6899 367.612 27.696 367.698L22.3221 373.084C22.2119 373.194 22.1507 373.341 22.1507 373.494V521.382C18.6068 525.006 14.6284 529.015 11.109 532.65L11.1334 532.277V373.488C11.1334 370.391 12.3392 367.477 14.5304 365.286L27.6838 352.121V367.428V367.441Z" fill="#00C3FF"/>
<path d="M27.6833 365.115L21.024 371.793C20.5711 372.246 20.3201 372.852 20.3201 373.5V523.261C17.8718 525.746 15.4113 528.225 12.9753 530.723V373.5C12.9753 370.893 13.9914 368.445 15.8337 366.602L27.6895 354.734V365.121L27.6833 365.115Z" fill="#00E7FF"/>
<path d="M27.6833 362.954L19.9407 370.709C19.1939 371.456 18.7838 372.441 18.7838 373.5V524.816C17.3516 526.266 15.9255 527.711 14.4994 529.161V373.5C14.4994 371.303 15.3563 369.234 16.9109 367.679L27.6833 356.895V362.954Z" fill="#83F6FF"/>
<path d="M27.6833 360.788L18.8573 369.626C17.8229 370.661 17.2537 372.038 17.2537 373.494V526.359C16.8436 526.775 16.4396 527.185 16.0295 527.601V373.494C16.0295 371.707 16.7273 370.024 17.9943 368.757L27.6833 359.056V360.788Z" fill="#DCFBFF"/>
<path opacity="0.5" d="M27.9407 510.573V516.498C27.9407 517.771 27.4082 518.983 26.4717 519.846L5.09212 540.846V534.083L26.5145 512.654C27.3225 511.914 27.8243 510.916 27.9529 509.839L27.9346 510.579L27.9407 510.573Z" fill="#1B1B54"/>
<path d="M100.128 595.374C100.985 594.438 102.203 593.899 103.476 593.899L166.226 593.942L150.41 614.997C149.688 615.971 148.543 616.546 147.331 616.546L79.4403 616.473" fill="#6A69A3"/>
<path d="M150.134 615.029L82.5864 614.955H82.5925L81.1419 614.949L79.1649 616.785L146.713 616.859C148.182 616.859 149.577 616.167 150.471 615.01C150.355 615.017 150.245 615.029 150.128 615.029H150.134Z" fill="#8585C6"/>
<path d="M100.128 595.467L79.1279 616.847H81.6863L100.82 597.377C101.677 596.44 102.895 595.902 104.168 595.902L164.799 595.944L166.231 594.041L103.482 593.998C102.209 593.998 100.997 594.531 100.134 595.473L100.128 595.467Z" fill="#545487"/>
<path d="M254.48 592.456C254.394 592.456 254.308 592.449 254.223 592.443L246.884 599.611C246.774 599.721 246.627 599.782 246.474 599.782H98.5857C94.9622 603.326 90.9532 607.304 87.3175 610.824L87.6909 610.799H246.48C249.577 610.799 252.49 609.594 254.682 607.402L269.8 592.456H254.492H254.48Z" fill="#00C3FF"/>
<path d="M256.811 592.456L248.187 600.909C247.734 601.362 247.128 601.613 246.48 601.613H96.7187C94.2337 604.061 91.7548 606.521 89.2575 608.957H246.48C249.087 608.957 251.535 607.941 253.378 606.099L267.198 592.456H256.811Z" fill="#00E7FF"/>
<path d="M258.972 592.456L249.265 601.992C248.518 602.739 247.533 603.149 246.474 603.149H95.1581C93.7075 604.581 92.263 606.007 90.8124 607.433H246.474C248.671 607.433 250.74 606.576 252.295 605.022L265.032 592.456H258.972Z" fill="#83F6FF"/>
<path d="M261.139 592.456L250.348 603.075C249.314 604.11 247.936 604.679 246.48 604.679H93.6154C93.1992 605.089 92.7891 605.493 92.3729 605.903H246.48C248.267 605.903 249.95 605.205 251.217 603.938L262.871 592.456H261.139Z" fill="#DCFBFF"/>
<path opacity="0.5" d="M109.395 593.992H103.47C102.197 593.992 100.985 594.524 100.122 595.461L79.1218 616.84H85.8851L107.314 595.418C108.054 594.61 109.052 594.108 110.129 593.979L109.389 593.998L109.395 593.992Z" fill="#1B1B54"/>
<path d="M46.4988 574.779L42.4041 597.909C42.3918 597.964 42.3796 598.013 42.3673 598.068L41.9633 600.357C41.8225 601.171 41.2411 601.826 40.4577 602.071C39.6681 602.316 38.8234 602.102 38.242 601.52L17.6581 580.459C17.0827 579.878 16.8808 579.033 17.1256 578.249C17.3704 577.472 18.0254 576.897 18.8333 576.75L43.9097 572.312C44.0383 572.288 44.1668 572.276 44.2953 572.276C44.2953 572.276 44.3015 572.276 44.3076 572.276C44.3382 572.276 44.3687 572.27 44.4055 572.27C44.9625 572.27 45.5072 572.49 45.9112 572.894C46.407 573.384 46.6273 574.087 46.5049 574.773L46.4988 574.779Z" fill="#BEB6EF"/>
<path d="M45.2318 576.083L40.7392 601.576C40.5984 602.39 40.017 603.045 39.2335 603.29C38.4439 603.535 37.5993 603.32 37.0178 602.739L16.4339 581.678C15.8586 581.096 15.6566 580.251 15.9014 579.468C16.1463 578.684 16.8012 578.115 17.6091 577.968L42.6856 573.531C42.8141 573.506 42.9427 573.494 43.0712 573.494C43.6465 573.494 44.2097 573.721 44.6197 574.137C45.1278 574.645 45.3542 575.367 45.2318 576.071V576.083Z" fill="#6161AD"/>
<path d="M45.2744 576.002L41.1797 599.132C41.0389 599.922 40.4758 600.559 39.7168 600.797C38.9518 601.036 38.1316 600.828 37.5685 600.259L18.7412 581.223C18.1842 580.66 17.9823 579.84 18.2271 579.081C18.4719 578.322 19.1023 577.765 19.8858 577.624L42.8078 573.53C42.9302 573.505 43.0587 573.499 43.1811 573.499C43.7381 573.499 44.2829 573.719 44.6868 574.123C45.1826 574.613 45.4029 575.317 45.2805 576.002H45.2744Z" fill="#05006B"/>
<path d="M19.3898 580.575L38.217 599.611C38.9087 600.309 40.1022 599.941 40.2736 598.968L44.3683 575.838C44.5152 575.006 43.793 574.283 42.9606 574.43L20.0386 578.525C19.0777 578.696 18.6981 579.878 19.3898 580.575Z" fill="#110393"/>
<path d="M22.8239 579.999L41.5594 576.651C41.7982 576.608 42.0062 576.816 41.9634 577.055L38.6154 595.956C38.5664 596.231 38.2237 596.341 38.0278 596.139L22.6404 580.581C22.4445 580.385 22.5485 580.042 22.8239 579.993V579.999Z" fill="#00E7FF" stroke="#A9FBFF" stroke-miterlimit="10"/>
<path opacity="0.4" d="M27.6655 352.108L23.5708 356.283L23.5341 371.872L27.6655 367.667V352.108Z" fill="#111170"/>
<path opacity="0.4" d="M25.7192 369.614V354.14L27.6655 352.108V367.667L25.7192 369.614Z" fill="#111170"/>
<path opacity="0.4" d="M269.806 592.449L265.631 596.544L250.042 596.575L254.247 592.449H269.806Z" fill="#111170"/>
<path opacity="0.4" d="M252.307 594.396H267.774L269.806 592.449H254.247L252.307 594.396Z" fill="#111170"/>
<path d="M816.618 621.884C813.674 621.015 811.434 618.738 809.206 616.736C784.399 616.289 766.171 616.932 741.346 616.412C738.72 615.843 737.637 614.343 736.119 612.384C728.315 602.273 721.099 591.678 713.393 581.499C713.142 580.661 713.393 579.877 714.201 579.504L828.045 579.406C833.946 573.041 840.305 566.969 846.138 560.561L846.744 445.387C846.634 444.959 847.717 444.457 848.017 444.439C848.415 444.414 850.104 445.804 850.557 446.146C860.791 453.791 870.052 461.926 880.292 469.564C881.687 470.886 882.507 472.716 882.728 474.62L883.009 540.277C884.417 542.639 886.143 544.065 887.208 547.273L888.004 578.115C887.122 581.671 884.123 583.923 881.761 586.488C871.692 597.376 861.489 608.137 851.433 619.032C850.147 620.409 848.195 621.676 846.285 621.89H816.612L816.618 621.884Z" fill="#DDD6F2"/>
<path d="M880.75 469.558L880.805 469.613C882.311 471.119 883.137 473.12 883.137 475.25V540.558L885.463 543.716C887.244 545.981 888.45 547.719 888.45 550.186V576.64C888.45 578.794 887.563 580.881 886.008 582.381L851.42 619.344C849.914 620.917 847.815 621.816 845.648 621.816H818.264C815.877 621.816 814.427 620.666 812.59 619.209L812.021 618.756L809.432 616.504H743.641C741.511 616.504 739.509 615.677 738.004 614.172L737.306 614.031L711.238 579.516C711.336 579.516 713.594 579.492 713.619 579.516L827.825 579.339L846.579 558.847V443.172L880.744 469.558H880.75ZM879.128 471.394L849.033 448.179V561.656L829.465 581.781H716.551L739.228 612.495C740.262 613.498 742.202 614.049 743.647 614.049H806.916L810.681 617.287C812.541 618.762 813.355 619.362 814.83 619.362H845.648C847.148 619.362 848.605 618.738 849.639 617.654L884.294 580.624C885.378 579.59 886.002 578.133 886.002 576.634V546.452C886.002 544.684 885.353 543.527 883.817 541.568L880.695 537.253V475.244C880.695 473.794 880.138 472.429 879.128 471.394Z" fill="#E7E6FF"/>
<path d="M861.893 519.846C860.956 518.989 860.418 517.771 860.418 516.498L860.461 453.749L881.516 469.564C882.489 470.287 883.064 471.431 883.064 472.643L882.991 540.534" fill="#6A69A3"/>
<path d="M881.547 469.834L881.473 537.382H881.467V538.826L883.303 540.803L883.377 473.255C883.377 471.786 882.685 470.391 881.528 469.497C881.534 469.613 881.547 469.724 881.547 469.84V469.834Z" fill="#8585C6"/>
<path d="M861.985 519.845L883.364 540.845V538.287L863.895 519.154C862.958 518.297 862.419 517.079 862.419 515.805L862.462 455.174L860.559 453.742L860.516 516.491C860.516 517.764 861.048 518.976 861.991 519.839L861.985 519.845Z" fill="#545487"/>
<path d="M860.767 367.441C860.767 367.526 860.761 367.612 860.754 367.698L866.128 373.084C866.239 373.194 866.3 373.341 866.3 373.494V521.382C869.844 525.006 873.822 529.015 877.341 532.65L877.317 532.277V373.488C877.317 370.391 876.111 367.477 873.92 365.286L860.767 352.121V367.428V367.441Z" fill="#00C3FF"/>
<path d="M860.767 365.115L867.426 371.793C867.879 372.246 868.13 372.852 868.13 373.5V523.261C870.578 525.746 873.039 528.225 875.475 530.723V373.5C875.475 370.893 874.459 368.445 872.617 366.602L860.761 354.734V365.121L860.767 365.115Z" fill="#00E7FF"/>
<path d="M860.767 362.954L868.51 370.709C869.256 371.456 869.666 372.441 869.666 373.5V524.816C871.099 526.266 872.525 527.711 873.951 529.161V373.5C873.951 371.303 873.094 369.234 871.539 367.679L860.767 356.895V362.954Z" fill="#83F6FF"/>
<path d="M860.767 360.788L869.593 369.626C870.627 370.661 871.197 372.038 871.197 373.494V526.359C871.607 526.775 872.011 527.185 872.421 527.601V373.494C872.421 371.707 871.723 370.024 870.456 368.757L860.767 359.056V360.788Z" fill="#DCFBFF"/>
<path opacity="0.5" d="M860.509 510.573V516.498C860.509 517.771 861.042 518.983 861.978 519.846L883.358 540.846V534.083L861.935 512.654C861.127 511.914 860.626 510.916 860.497 509.839L860.515 510.579L860.509 510.573Z" fill="#1B1B54"/>
<path d="M788.322 595.374C787.465 594.438 786.247 593.899 784.974 593.899L722.225 593.942L738.04 614.997C738.763 615.971 739.907 616.546 741.119 616.546L809.01 616.473" fill="#6A69A3"/>
<path d="M738.316 615.029L805.864 614.955H805.858L807.308 614.949L809.285 616.785L741.737 616.859C740.268 616.859 738.873 616.167 737.979 615.01C738.096 615.017 738.206 615.029 738.322 615.029H738.316Z" fill="#8585C6"/>
<path d="M788.322 595.467L809.322 616.847H806.764L787.631 597.377C786.774 596.44 785.556 595.902 784.283 595.902L723.651 595.944L722.219 594.041L784.968 593.998C786.241 593.998 787.453 594.531 788.316 595.473L788.322 595.467Z" fill="#545487"/>
<path d="M633.97 592.456C634.056 592.456 634.142 592.449 634.228 592.443L641.566 599.611C641.676 599.721 641.823 599.782 641.976 599.782H789.864C793.488 603.326 797.497 607.304 801.133 610.824L800.759 610.799H641.97C638.873 610.799 635.96 609.594 633.769 607.402L618.65 592.456H633.958H633.97Z" fill="#00C3FF"/>
<path d="M631.639 592.456L640.263 600.909C640.716 601.362 641.321 601.613 641.97 601.613H791.731C794.216 604.061 796.695 606.521 799.192 608.957H641.97C639.363 608.957 636.915 607.941 635.072 606.099L621.252 592.456H631.639Z" fill="#00E7FF"/>
<path d="M629.478 592.456L639.185 601.992C639.932 602.739 640.918 603.149 641.976 603.149H793.292C794.743 604.581 796.187 606.007 797.638 607.433H641.976C639.779 607.433 637.71 606.576 636.156 605.022L623.418 592.456H629.478Z" fill="#83F6FF"/>
<path d="M627.311 592.456L638.102 603.075C639.136 604.11 640.514 604.679 641.97 604.679H794.835C795.251 605.089 795.661 605.493 796.077 605.903H641.97C640.183 605.903 638.5 605.205 637.233 603.938L625.579 592.456H627.311Z" fill="#DCFBFF"/>
<path opacity="0.5" d="M779.055 593.992H784.98C786.253 593.992 787.465 594.524 788.328 595.461L809.328 616.84H802.565L781.137 595.418C780.396 594.61 779.398 594.108 778.321 593.979L779.062 593.998L779.055 593.992Z" fill="#1B1B54"/>
<path d="M841.951 574.779L846.046 597.909C846.058 597.964 846.071 598.013 846.083 598.068L846.487 600.357C846.628 601.171 847.209 601.826 847.993 602.071C848.782 602.316 849.627 602.102 850.208 601.52L870.792 580.459C871.367 579.878 871.569 579.033 871.325 578.249C871.08 577.472 870.425 576.897 869.617 576.75L844.54 572.312C844.412 572.288 844.283 572.276 844.155 572.276C844.155 572.276 844.149 572.276 844.143 572.276C844.112 572.276 844.081 572.27 844.045 572.27C843.488 572.27 842.943 572.49 842.539 572.894C842.043 573.384 841.823 574.087 841.945 574.773L841.951 574.779Z" fill="#BEB6EF"/>
<path d="M843.218 576.083L847.711 601.576C847.852 602.39 848.433 603.045 849.217 603.29C850.006 603.535 850.851 603.32 851.432 602.739L872.016 581.678C872.592 581.096 872.794 580.251 872.549 579.468C872.304 578.684 871.649 578.115 870.841 577.968L845.765 573.531C845.636 573.506 845.508 573.494 845.379 573.494C844.804 573.494 844.241 573.721 843.83 574.137C843.322 574.645 843.096 575.367 843.218 576.071V576.083Z" fill="#6161AD"/>
<path d="M843.176 576.002L847.27 599.132C847.411 599.922 847.974 600.559 848.733 600.797C849.498 601.036 850.318 600.828 850.881 600.259L869.709 581.223C870.266 580.66 870.468 579.84 870.223 579.081C869.978 578.322 869.348 577.765 868.564 577.624L845.642 573.53C845.52 573.505 845.391 573.499 845.269 573.499C844.712 573.499 844.167 573.719 843.763 574.123C843.267 574.613 843.047 575.317 843.169 576.002H843.176Z" fill="#05006B"/>
<path d="M869.06 580.575L850.233 599.611C849.542 600.309 848.348 599.941 848.177 598.968L844.082 575.838C843.935 575.006 844.657 574.283 845.49 574.43L868.412 578.525C869.373 578.696 869.752 579.878 869.06 580.575Z" fill="#110393"/>
<path d="M865.626 579.999L846.891 576.651C846.652 576.608 846.444 576.816 846.487 577.055L849.835 595.956C849.884 596.231 850.227 596.341 850.422 596.139L865.81 580.581C866.006 580.385 865.902 580.042 865.626 579.993V579.999Z" fill="#00E7FF" stroke="#A9FBFF" stroke-miterlimit="10"/>
<path opacity="0.4" d="M860.785 352.108L864.879 356.283L864.916 371.872L860.785 367.667V352.108Z" fill="#111170"/>
<path opacity="0.4" d="M862.731 369.614V354.14L860.785 352.108V367.667L862.731 369.614Z" fill="#111170"/>
<path opacity="0.4" d="M618.645 592.449L622.819 596.544L638.408 596.575L634.203 592.449H618.645Z" fill="#111170"/>
<path opacity="0.4" d="M636.144 594.396H620.677L618.645 592.449H634.203L636.144 594.396Z" fill="#111170"/>
<path d="M817.38 11C814.436 11.8691 812.196 14.146 809.968 16.1475C785.16 16.5943 766.933 15.9516 742.108 16.4719C739.482 17.0411 738.398 18.5407 736.88 20.4993C729.077 30.6107 721.86 41.2056 714.154 51.3843C713.903 52.2228 714.154 53.0063 714.962 53.3797L828.807 53.4776C834.707 59.8431 841.067 65.9148 846.9 72.3232L847.506 187.496C847.396 187.925 848.479 188.427 848.779 188.445C849.177 188.469 850.866 187.08 851.319 186.737C861.553 179.093 870.813 170.958 881.053 163.319C882.449 161.997 883.269 160.167 883.489 158.264L883.771 92.6072C885.179 90.2446 886.905 88.8185 887.97 85.6112L888.765 54.7691C887.884 51.2129 884.885 48.9605 882.522 46.396C872.454 35.5072 862.251 24.7471 852.194 13.8522C850.915 12.4812 848.962 11.2142 847.053 11H817.38Z" fill="#DDD6F2"/>
<path d="M847.347 189.718V74.0434L828.593 53.5513L714.387 53.3738C714.387 53.3738 712.104 53.3738 712.006 53.3738L738.074 18.8592L738.772 18.7185C740.277 17.2128 742.279 16.3865 744.409 16.3865H810.2L812.789 14.1341L813.358 13.6811C815.195 12.2244 816.639 11.0737 819.032 11.0737H846.416C848.583 11.0737 850.682 11.9735 852.188 13.5465L886.776 50.5093C888.325 52.0028 889.218 54.0961 889.218 56.2505V82.7042C889.218 85.1708 888.012 86.9091 886.231 89.1737L883.912 92.332V157.64C883.912 159.77 883.079 161.771 881.573 163.277L881.518 163.332L847.353 189.718H847.347ZM881.451 157.64V95.6311L884.573 91.316C886.115 89.3574 886.758 88.1944 886.758 86.4317V56.2505C886.758 54.751 886.133 53.2943 885.05 52.2599L850.395 15.2297C849.36 14.1463 847.904 13.522 846.404 13.522H815.586C814.111 13.522 813.297 14.1218 811.437 15.5969L807.672 18.8348H744.403C742.958 18.8348 741.018 19.3856 739.984 20.3894L717.306 51.103H830.221L849.789 71.2279V184.705L879.884 161.49C880.894 160.455 881.451 159.09 881.451 157.64Z" fill="#E7E6FF"/>
<path d="M862.654 113.039C861.718 113.895 861.179 115.113 861.179 116.387L861.222 179.136L882.277 163.32C883.25 162.598 883.826 161.453 883.826 160.241L883.752 92.3506" fill="#6A69A3"/>
<path d="M882.308 163.05L882.235 95.502H882.229V94.0575L884.065 92.0806L884.138 159.629C884.138 161.097 883.447 162.493 882.29 163.387C882.296 163.27 882.308 163.16 882.308 163.044V163.05Z" fill="#8585C6"/>
<path d="M862.746 113.038L884.126 92.0381V94.5965L864.656 113.73C863.72 114.587 863.181 115.805 863.181 117.078L863.224 177.709L861.32 179.142L861.277 116.392C861.277 115.119 861.81 113.907 862.752 113.044L862.746 113.038Z" fill="#545487"/>
<path d="M861.528 265.444C861.528 265.358 861.522 265.272 861.516 265.186L866.89 259.8C867 259.69 867.061 259.543 867.061 259.39V111.502C870.605 107.879 874.584 103.87 878.103 100.234L878.078 100.607V259.396C878.078 262.493 876.873 265.407 874.681 267.598L861.528 280.764V265.456V265.444Z" fill="#00C3FF"/>
<path d="M861.528 267.769L868.188 261.091C868.641 260.639 868.892 260.033 868.892 259.384V109.623C871.34 107.138 873.8 104.659 876.236 102.162V259.384C876.236 261.991 875.22 264.439 873.378 266.282L861.522 278.15V267.763L861.528 267.769Z" fill="#00E7FF"/>
<path d="M861.528 269.935L869.271 262.18C870.018 261.434 870.428 260.448 870.428 259.389V108.074C871.86 106.623 873.286 105.179 874.712 103.728V259.389C874.712 261.587 873.855 263.656 872.301 265.21L861.528 275.995V269.935Z" fill="#83F6FF"/>
<path d="M861.528 272.096L870.354 263.258C871.389 262.224 871.958 260.847 871.958 259.39V106.526C872.368 106.11 872.772 105.699 873.182 105.283V259.39C873.182 261.177 872.484 262.86 871.217 264.127L861.528 273.829V272.096Z" fill="#DCFBFF"/>
<path opacity="0.5" d="M861.271 122.311V116.386C861.271 115.113 861.803 113.901 862.74 113.038L884.12 92.0381V98.8015L862.697 120.23C861.889 120.971 861.387 121.968 861.259 123.046L861.277 122.305L861.271 122.311Z" fill="#1B1B54"/>
<path d="M789.083 37.5089C788.227 38.4453 787.009 38.984 785.735 38.984L722.986 38.9411L738.802 17.8859C739.524 16.9127 740.669 16.3374 741.881 16.3374L809.771 16.4109" fill="#6A69A3"/>
<path d="M739.078 17.855L806.626 17.9284H806.619L808.07 17.9346L810.047 16.0984L742.499 16.0249C741.03 16.0249 739.635 16.7165 738.741 17.8734C738.857 17.8672 738.967 17.855 739.084 17.855H739.078Z" fill="#8585C6"/>
<path d="M789.084 37.4235L810.084 16.0439H807.525L788.392 35.5139C787.535 36.4503 786.317 36.9889 785.044 36.9889L724.412 36.9461L722.98 38.8496L785.73 38.8925C787.003 38.8925 788.215 38.36 789.078 37.4174L789.084 37.4235Z" fill="#545487"/>
<path d="M634.732 40.4278C634.818 40.4278 634.903 40.4339 634.989 40.44L642.328 33.2727C642.438 33.1625 642.585 33.1013 642.738 33.1013H790.626C794.249 29.5574 798.258 25.579 801.894 22.0596L801.521 22.0841H642.732C639.635 22.0841 636.721 23.2898 634.53 25.481L619.412 40.4278H634.72H634.732Z" fill="#00C3FF"/>
<path d="M632.4 40.4286L641.024 31.976C641.477 31.523 642.083 31.2721 642.732 31.2721H792.493C794.978 28.8238 797.457 26.3633 799.954 23.9272H642.732C640.125 23.9272 637.676 24.9433 635.834 26.7856L622.013 40.4286H632.4Z" fill="#00E7FF"/>
<path d="M630.239 40.4275L639.947 30.8915C640.694 30.1448 641.679 29.7347 642.738 29.7347H794.054C795.504 28.3024 796.949 26.8763 798.399 25.4502H642.738C640.541 25.4502 638.472 26.3071 636.917 27.8617L624.18 40.4275H630.239Z" fill="#83F6FF"/>
<path d="M628.073 40.4281L638.864 29.8087C639.898 28.7743 641.275 28.2051 642.732 28.2051H795.596C796.012 27.795 796.423 27.391 796.839 26.981H642.732C640.945 26.981 639.262 27.6787 637.995 28.9457L626.341 40.4281H628.073Z" fill="#DCFBFF"/>
<path opacity="0.5" d="M779.817 38.8925H785.742C787.015 38.8925 788.227 38.36 789.09 37.4235L810.09 16.0439H803.327L781.898 37.4664C781.157 38.2743 780.16 38.7762 779.083 38.9047L779.823 38.8864L779.817 38.8925Z" fill="#1B1B54"/>
<path d="M842.713 58.1107L846.808 34.9806C846.82 34.9255 846.832 34.8765 846.844 34.8214L847.248 32.5323C847.389 31.7182 847.971 31.0633 848.754 30.8185C849.544 30.5737 850.388 30.7879 850.97 31.3694L871.554 52.4307C872.129 53.0121 872.331 53.8568 872.086 54.6402C871.841 55.4175 871.186 55.9929 870.378 56.1398L845.302 60.5773C845.173 60.6018 845.045 60.614 844.916 60.614C844.916 60.614 844.91 60.614 844.904 60.614C844.873 60.614 844.843 60.6201 844.806 60.6201C844.249 60.6201 843.704 60.3998 843.3 59.9958C842.805 59.5062 842.584 58.8023 842.707 58.1168L842.713 58.1107Z" fill="#BEB6EF"/>
<path d="M843.98 56.8013L848.473 31.3087C848.614 30.4946 849.195 29.8397 849.978 29.5949C850.768 29.35 851.613 29.5643 852.194 30.1457L872.778 51.207C873.353 51.7885 873.555 52.6331 873.31 53.4166C873.066 54.2 872.411 54.7693 871.603 54.9162L846.526 59.3537C846.398 59.3781 846.269 59.3904 846.141 59.3904C845.565 59.3904 845.002 59.1639 844.592 58.7477C844.084 58.2397 843.858 57.5175 843.98 56.8136V56.8013Z" fill="#6161AD"/>
<path d="M843.937 56.8869L848.032 33.7568C848.173 32.9672 848.736 32.3307 849.495 32.092C850.26 31.8533 851.08 32.0614 851.643 32.6306L870.47 51.6659C871.027 52.229 871.229 53.0492 870.985 53.8082C870.74 54.5671 870.109 55.1241 869.326 55.2649L846.404 59.3597C846.282 59.3841 846.153 59.3903 846.031 59.3903C845.474 59.3903 844.929 59.1699 844.525 58.7659C844.029 58.2763 843.809 57.5724 843.931 56.8869H843.937Z" fill="#05006B"/>
<path d="M869.822 52.3085L850.995 33.2731C850.303 32.5754 849.109 32.9426 848.938 33.9158L844.843 57.0459C844.696 57.8783 845.419 58.6005 846.251 58.4536L869.173 54.3589C870.134 54.1875 870.514 53.0062 869.822 52.3085Z" fill="#110393"/>
<path d="M866.388 52.8841L847.652 56.2321C847.414 56.2749 847.205 56.0668 847.248 55.8281L850.596 36.9274C850.645 36.652 850.988 36.5418 851.184 36.7438L866.571 52.3026C866.767 52.4985 866.663 52.8412 866.388 52.8902V52.8841Z" fill="#00E7FF" stroke="#A9FBFF" stroke-miterlimit="10"/>
<path opacity="0.4" d="M861.546 280.775L865.641 276.601L865.678 261.012L861.546 265.217V280.775Z" fill="#111170"/>
<path opacity="0.4" d="M863.492 263.276V278.743L861.546 280.775V265.217L863.492 263.276Z" fill="#111170"/>
<path opacity="0.4" d="M619.406 40.4344L623.58 36.3397L639.17 36.3091L634.965 40.4344H619.406Z" fill="#111170"/>
<path opacity="0.4" d="M636.905 38.4937H621.438L619.406 40.4339H634.965L636.905 38.4937Z" fill="#111170"/>
<path d="M71.8388 11C74.7828 11.8691 77.023 14.146 79.2509 16.1475C104.058 16.5943 122.285 15.9516 147.111 16.4719C149.737 17.0411 150.82 18.5407 152.338 20.4993C160.142 30.6107 167.358 41.2056 175.064 51.3843C175.315 52.2228 175.064 53.0063 174.256 53.3797L60.4114 53.4776C54.5111 59.8431 48.1517 65.9148 42.3187 72.3232L41.7127 187.496C41.8229 187.925 40.7395 188.427 40.4396 188.445C40.0417 188.469 38.3524 187.08 37.8995 186.737C27.6657 179.093 18.4051 170.958 8.1652 163.319C6.76968 161.997 5.94952 160.167 5.72917 158.264L5.44765 92.6072C4.03989 90.2446 2.31386 88.8185 1.24886 85.6112L0.453142 54.7691C1.33452 51.2129 4.33363 48.9605 6.69622 46.396C16.7648 35.5072 26.968 24.7471 37.0243 13.8522C38.3035 12.4812 40.256 11.2142 42.1657 11H71.8388Z" fill="#DDD6F2"/>
<path d="M41.8719 189.718V74.0434L60.6257 53.5513L174.832 53.3738C174.832 53.3738 177.115 53.3738 177.213 53.3738L151.145 18.8592L150.447 18.7185C148.941 17.2128 146.94 16.3865 144.81 16.3865H79.0184L76.4293 14.1341L75.8601 13.6811C74.0239 12.2244 72.5794 11.0737 70.1862 11.0737H42.8022C40.6355 11.0737 38.5362 11.9735 37.0305 13.5465L2.44244 50.5093C0.893903 52.0028 0.000287875 54.0961 0.000287875 56.2505V82.7042C0.000287875 85.1708 1.20607 86.9091 2.98719 89.1737L5.30688 92.332V157.64C5.30688 159.77 6.13933 161.771 7.64502 163.277L7.70009 163.332L41.8658 189.718H41.8719ZM7.76741 157.64V95.6311L4.64587 91.316C3.10346 89.3574 2.46082 88.1944 2.46082 86.4317V56.2505C2.46082 54.751 3.08508 53.2943 4.16844 52.2599L38.8238 15.2297C39.8582 14.1463 41.3149 13.522 42.8145 13.522H73.6321C75.1072 13.522 75.9213 14.1218 77.782 15.5969L81.5462 18.8348H144.816C146.26 18.8348 148.201 19.3856 149.235 20.3894L171.912 51.103H58.9976L39.4297 71.2279V184.705L9.33434 161.49C8.32443 160.455 7.76741 159.09 7.76741 157.64Z" fill="#E7E6FF"/>
<path d="M26.5643 113.039C27.5007 113.895 28.0393 115.113 28.0393 116.387L27.9965 179.136L6.9413 163.32C5.96811 162.598 5.39275 161.453 5.39275 160.241L5.4662 92.3506" fill="#6A69A3"/>
<path d="M6.91025 163.05L6.98369 95.502H6.98975V94.0575L5.15354 92.0806L5.08009 159.629C5.08009 161.097 5.77174 162.493 6.92855 163.387C6.92243 163.27 6.91025 163.16 6.91025 163.044V163.05Z" fill="#8585C6"/>
<path d="M26.4724 113.038L5.09282 92.0381V94.5965L24.5628 113.73C25.4992 114.587 26.0379 115.805 26.0379 117.078L25.995 177.709L27.8985 179.142L27.9414 116.392C27.9414 115.119 27.4089 113.907 26.4663 113.044L26.4724 113.038Z" fill="#545487"/>
<path d="M27.6906 265.444C27.6906 265.358 27.6968 265.272 27.7029 265.186L22.3289 259.8C22.2187 259.69 22.1575 259.543 22.1575 259.39V111.502C18.6136 107.879 14.6352 103.87 11.1158 100.234L11.1403 100.607V259.396C11.1403 262.493 12.3461 265.407 14.5373 267.598L27.6906 280.764V265.456V265.444Z" fill="#00C3FF"/>
<path d="M27.6902 267.769L21.0308 261.091C20.5779 260.639 20.327 260.033 20.327 259.384V109.623C17.8787 107.138 15.4182 104.659 12.9821 102.162V259.384C12.9821 261.991 13.9982 264.439 15.8405 266.282L27.6963 278.15V267.763L27.6902 267.769Z" fill="#00E7FF"/>
<path d="M27.6902 269.935L19.9475 262.18C19.2008 261.434 18.7907 260.448 18.7907 259.389V108.074C17.3584 106.623 15.9323 105.179 14.5062 103.728V259.389C14.5062 261.587 15.3631 263.656 16.9178 265.21L27.6902 275.995V269.935Z" fill="#83F6FF"/>
<path d="M27.6902 272.096L18.8641 263.258C17.8297 262.224 17.2605 260.847 17.2605 259.39V106.526C16.8504 106.11 16.4465 105.699 16.0364 105.283V259.39C16.0364 261.177 16.7342 262.86 18.0012 264.127L27.6902 273.829V272.096Z" fill="#DCFBFF"/>
<path opacity="0.5" d="M27.9475 122.311V116.386C27.9475 115.113 27.415 113.901 26.4786 113.038L5.09895 92.0381V98.8015L26.5214 120.23C27.3293 120.971 27.8312 121.968 27.9597 123.046L27.9414 122.305L27.9475 122.311Z" fill="#1B1B54"/>
<path d="M100.135 37.5089C100.992 38.4453 102.21 38.984 103.483 38.984L166.232 38.9411L150.417 17.8859C149.694 16.9127 148.55 16.3374 147.338 16.3374L79.4471 16.4109" fill="#6A69A3"/>
<path d="M150.141 17.855L82.5932 17.9284H82.5993L81.1487 17.9346L79.1717 16.0984L146.72 16.0249C148.189 16.0249 149.584 16.7165 150.478 17.8734C150.361 17.8672 150.251 17.855 150.135 17.855H150.141Z" fill="#8585C6"/>
<path d="M100.135 37.4235L79.1348 16.0439H81.6932L100.826 35.5139C101.683 36.4503 102.901 36.9889 104.174 36.9889L164.806 36.9461L166.238 38.8496L103.489 38.8925C102.216 38.8925 101.004 38.36 100.141 37.4174L100.135 37.4235Z" fill="#545487"/>
<path d="M254.487 40.4278C254.401 40.4278 254.315 40.4339 254.229 40.44L246.891 33.2727C246.781 33.1625 246.634 33.1013 246.481 33.1013H98.5925C94.9691 29.5574 90.96 25.579 87.3243 22.0596L87.6977 22.0841H246.487C249.584 22.0841 252.497 23.2898 254.689 25.481L269.807 40.4278H254.499H254.487Z" fill="#00C3FF"/>
<path d="M256.818 40.4286L248.194 31.976C247.741 31.523 247.135 31.2721 246.487 31.2721H96.7255C94.2405 28.8238 91.7616 26.3633 89.2644 23.9272H246.487C249.094 23.9272 251.542 24.9433 253.385 26.7856L267.205 40.4286H256.818Z" fill="#00E7FF"/>
<path d="M258.979 40.4275L249.272 30.8915C248.525 30.1448 247.54 29.7347 246.481 29.7347H95.1649C93.7143 28.3024 92.2699 26.8763 90.8193 25.4502H246.481C248.678 25.4502 250.747 26.3071 252.301 27.8617L265.039 40.4275H258.979Z" fill="#83F6FF"/>
<path d="M261.146 40.4281L250.355 29.8087C249.32 28.7743 247.943 28.2051 246.486 28.2051H93.6222C93.206 27.795 92.7959 27.391 92.3797 26.981H246.486C248.274 26.981 249.957 27.6787 251.224 28.9457L262.878 40.4281H261.146Z" fill="#DCFBFF"/>
<path opacity="0.5" d="M109.402 38.8925H103.477C102.204 38.8925 100.992 38.36 100.129 37.4235L79.1286 16.0439H85.8919L107.32 37.4664C108.061 38.2743 109.059 38.7762 110.136 38.9047L109.395 38.8864L109.402 38.8925Z" fill="#1B1B54"/>
<path d="M46.5056 58.1107L42.4109 34.9806C42.3987 34.9255 42.3864 34.8765 42.3741 34.8214L41.9702 32.5323C41.8294 31.7182 41.2479 31.0633 40.4645 30.8185C39.6749 30.5737 38.8303 30.7879 38.2488 31.3694L17.6649 52.4307C17.0896 53.0121 16.8876 53.8568 17.1324 54.6402C17.3773 55.4175 18.0322 55.9929 18.8401 56.1398L43.9166 60.5773C44.0451 60.6018 44.1736 60.614 44.3022 60.614C44.3022 60.614 44.3083 60.614 44.3144 60.614C44.345 60.614 44.3756 60.6201 44.4123 60.6201C44.9693 60.6201 45.5141 60.3998 45.918 59.9958C46.4138 59.5062 46.6342 58.8023 46.5117 58.1168L46.5056 58.1107Z" fill="#BEB6EF"/>
<path d="M45.2387 56.8013L40.746 31.3087C40.6052 30.4946 40.0238 29.8397 39.2403 29.5949C38.4508 29.35 37.6061 29.5643 37.0247 30.1457L16.4408 51.207C15.8654 51.7885 15.6634 52.6331 15.9083 53.4166C16.1531 54.2 16.808 54.7693 17.616 54.9162L42.6924 59.3537C42.821 59.3781 42.9495 59.3904 43.078 59.3904C43.6534 59.3904 44.2165 59.1639 44.6266 58.7477C45.1346 58.2397 45.3611 57.5175 45.2387 56.8136V56.8013Z" fill="#6161AD"/>
<path d="M45.2812 56.8869L41.1865 33.7568C41.0458 32.9672 40.4827 32.3307 39.7237 32.092C38.9586 31.8533 38.1384 32.0614 37.5753 32.6306L18.7481 51.6659C18.1911 52.229 17.9891 53.0492 18.234 53.8082C18.4788 54.5671 19.1092 55.1241 19.8926 55.2649L42.8146 59.3597C42.937 59.3841 43.0655 59.3903 43.1879 59.3903C43.7449 59.3903 44.2897 59.1699 44.6937 58.7659C45.1895 58.2763 45.4098 57.5724 45.2874 56.8869H45.2812Z" fill="#05006B"/>
<path d="M19.3966 52.3085L38.2239 33.2731C38.9155 32.5754 40.109 32.9426 40.2804 33.9158L44.3752 57.0459C44.5221 57.8783 43.7998 58.6005 42.9674 58.4536L20.0454 54.3589C19.0845 54.1875 18.705 53.0062 19.3966 52.3085Z" fill="#110393"/>
<path d="M22.8308 52.8841L41.5663 56.2321C41.805 56.2749 42.013 56.0668 41.9702 55.8281L38.6222 36.9274C38.5732 36.652 38.2305 36.5418 38.0346 36.7438L22.6472 52.3026C22.4513 52.4985 22.5554 52.8412 22.8308 52.8902V52.8841Z" fill="#00E7FF" stroke="#A9FBFF" stroke-miterlimit="10"/>
<path opacity="0.4" d="M27.6724 280.775L23.5777 276.601L23.5409 261.012L27.6724 265.217V280.775Z" fill="#111170"/>
<path opacity="0.4" d="M25.726 263.276V278.743L27.6724 280.775V265.217L25.726 263.276Z" fill="#111170"/>
<path opacity="0.4" d="M269.812 40.4344L265.638 36.3397L250.049 36.3091L254.254 40.4344H269.812Z" fill="#111170"/>
<path opacity="0.4" d="M252.313 38.4937H267.78L269.812 40.4339H254.254L252.313 38.4937Z" fill="#111170"/>
<g filter="url(#filter0_d_326_4380)">
<path d="M724.744 3.24233H727.496C731.107 3.24233 734.517 4.8314 736.844 7.60022C739.171 10.369 740.158 14.0046 739.54 17.568L739.275 19.1089C739.564 20.5696 728.218 109.557 728.218 109.557C727.199 115.448 722.545 119.718 716.575 119.718H171.579C165.609 119.718 160.955 115.44 159.936 109.557C159.936 109.557 149.441 19.8713 149.946 18.1137L149.85 17.568C149.232 14.0046 150.219 10.369 152.546 7.60022C154.873 4.8314 158.283 3.24233 161.894 3.24233M161.236 0.0882814C158.965 0.0882814 156.702 0.553765 154.664 1.55696C152.763 2.48793 151.053 3.82017 149.649 5.48949C146.688 8.98865 145.445 13.6034 146.231 18.1218C146.231 18.1218 156.67 109.734 156.71 110.039V110.119C158.026 117.695 164.141 122.992 171.587 122.992H716.591C724.037 122.992 730.144 117.695 731.452 110.119V110.071C731.508 109.766 742.413 21.1153 742.533 19.5423L742.774 18.1218C743.552 13.6034 742.308 9.0047 739.355 5.48949C736.627 2.24716 732.31 0 726.1 0C719.889 0 195.86 0.0160512 161.236 0.0882814Z" fill="#2B1977"/>
<path d="M736.114 13.6111C733.787 10.8423 730.376 9.25321 726.766 9.25321H723.813L164.815 8.94824L161.172 9.25321C157.561 9.25321 154.151 10.8423 151.824 13.6111C149.497 16.3799 148.51 20.0155 149.537 23.5789L159.423 109.549C160.032 115.44 165.096 119.709 171.065 119.709H716.069C722.031 119.709 727.103 115.432 728.122 109.549L738.826 23.5789C739.444 20.0155 738.457 16.3799 736.13 13.6111H736.122H736.114Z" fill="#8B79F2"/>
<path d="M736.322 7.59178C733.995 4.82295 730.577 3.23389 726.974 3.23389H161.782C157.762 3.23389 154.351 4.82295 152.024 7.59178C149.697 10.3606 148.71 13.9962 149.328 17.5595L159.214 103.53C160.225 109.42 165.296 113.69 171.266 113.69H716.27C722.232 113.69 727.303 109.412 728.322 103.53L739.026 17.5595C739.644 13.9962 738.657 10.3606 736.33 7.59178H736.322Z" fill="#9F9FF4"/>
<path d="M716.27 114.549H171.258C164.871 114.549 159.447 109.982 158.371 103.682L148.478 17.6883C147.82 13.8922 148.871 10.0078 151.358 7.03835C153.886 4.02876 157.585 2.37549 161.774 2.37549H726.958C730.689 2.37549 734.22 3.96455 736.699 6.73338H736.707L736.964 7.03835C739.452 10.0078 740.511 13.8842 739.853 17.7043L729.157 103.658C728.065 109.974 722.641 114.541 716.254 114.541H716.262L716.27 114.549ZM161.782 4.10099C158.107 4.10099 154.873 5.53757 152.674 8.1539C150.508 10.7301 149.593 14.1089 150.163 17.4315L160.056 103.418C160.995 108.875 165.705 112.848 171.258 112.848H716.262C721.807 112.848 726.525 108.867 727.464 103.401L738.16 17.4475C738.721 14.1811 737.855 10.8746 735.776 8.30639L735.648 8.16193C733.482 5.59374 730.312 4.10901 726.95 4.10901H161.782V4.10099Z" fill="#D9D9FF"/>
<path d="M728.017 13.7314C726.766 11.9738 724.679 11.0107 722.521 11.0107H164.109C161.95 11.0107 159.864 11.9818 158.612 13.7314C157.441 15.3686 156.991 16.412 157.673 19.3493L167.021 103.128C167.832 105.873 170.384 107.783 173.24 107.783H713.389C716.238 107.783 718.79 105.873 719.608 103.136L728.956 19.3493C729.526 17.4071 729.189 15.3606 728.017 13.7234H728.025L728.017 13.7314Z" fill="#0B052D"/>
<path d="M711.761 108.987H174.468C169.878 108.987 166.508 106.218 165.665 101.764L156.502 19.6385C155.828 17.295 156.269 14.8392 157.729 12.897C159.198 10.9387 161.445 9.80713 163.884 9.80713H722.737C724.968 9.80713 727.038 10.7461 728.507 12.4154H728.555L728.916 12.905C730.368 14.8632 730.81 17.311 730.144 19.6385L721.614 101.724C720.242 108.474 713.726 108.995 711.761 108.995V108.987ZM163.884 12.2228C162.207 12.2228 160.666 12.9933 159.647 14.3496C158.636 15.6899 158.339 17.3993 158.821 19.0205L158.853 19.1409L168.032 101.331C168.666 104.677 171.009 106.596 174.468 106.596H711.761C713.686 106.596 718.276 106.074 719.255 101.275L727.817 19.0205C728.274 17.4956 728.025 15.8825 727.135 14.5583L726.974 14.3496C725.963 13.0013 724.414 12.2228 722.737 12.2228H163.884Z" fill="#CBCAFF"/>
<path d="M725.153 15.6977C724.583 14.9272 723.7 14.4858 722.737 14.4858H163.884C162.929 14.4858 162.046 14.9353 161.469 15.6977C160.899 16.4682 160.722 17.4393 160.995 18.3622L169.525 99.3563C170.391 102.27 173.112 104.3 176.145 104.3H710.485C713.526 104.3 716.238 102.27 717.104 99.3563L725.634 18.3622C725.907 17.4473 725.73 16.4762 725.161 15.6977H725.153Z" fill="#331392"/>
<path d="M716.703 99.6934C716.599 99.9662 716.463 100.239 716.286 100.488C715.716 101.258 714.834 101.7 713.871 101.7H172.863C171.908 101.7 171.025 101.266 170.448 100.488C170.271 100.239 170.119 99.9743 170.03 99.6934L169.982 99.8699C169.709 100.785 169.886 101.764 170.456 102.534C171.025 103.305 171.908 103.746 172.871 103.746H713.871C714.834 103.746 715.708 103.313 716.286 102.534C716.864 101.764 717.032 100.793 716.76 99.8699L716.711 99.6934H716.719H716.703Z" fill="#7764FF"/>
<path d="M161.453 15.6977C162.022 14.9272 162.905 14.4858 163.868 14.4858H245.064L237.04 103.891H176.129C173.088 103.891 170.376 103.899 169.509 100.994L160.979 18.3702C160.707 17.4553 160.883 16.4762 161.453 15.7057V15.6977Z" fill="url(#paint2_linear_326_4380)"/>
<path d="M725.225 15.6977C724.655 14.9272 723.773 14.4858 722.81 14.4858H641.614L649.638 104.3H710.549C713.582 104.3 716.302 104.308 717.169 101.403L725.698 18.3622C725.971 17.4473 725.795 16.4762 725.225 15.6977Z" fill="url(#paint3_linear_326_4380)"/>
</g>
<defs>
<filter id="filter0_d_326_4380" x="146" y="0" width="597" height="130.992" filterUnits="userSpaceOnUse" color-interpolation-filters="sRGB">
<feFlood flood-opacity="0" result="BackgroundImageFix"/>
<feColorMatrix in="SourceAlpha" type="matrix" values="0 0 0 0 0 0 0 0 0 0 0 0 0 0 0 0 0 0 127 0" result="hardAlpha"/>
<feOffset dy="8"/>
<feComposite in2="hardAlpha" operator="out"/>
<feColorMatrix type="matrix" values="0 0 0 0 0 0 0 0 0 0 0 0 0 0 0 0 0 0 0.25 0"/>
<feBlend mode="normal" in2="BackgroundImageFix" result="effect1_dropShadow_326_4380"/>
<feBlend mode="normal" in="SourceGraphic" in2="effect1_dropShadow_326_4380" result="shape"/>
</filter>
<linearGradient id="paint0_linear_326_4380" x1="342.804" y1="594.037" x2="301.293" y2="600.173" gradientUnits="userSpaceOnUse">
<stop stop-color="#4E27C4" stop-opacity="0"/>
<stop offset="1" stop-color="#291466"/>
</linearGradient>
<linearGradient id="paint1_linear_326_4380" x1="555.042" y1="594.434" x2="591.098" y2="599.765" gradientUnits="userSpaceOnUse">
<stop stop-color="#4E27C4" stop-opacity="0"/>
<stop offset="1" stop-color="#291466"/>
</linearGradient>
<linearGradient id="paint2_linear_326_4380" x1="209.934" y1="57.7517" x2="162.367" y2="64.8839" gradientUnits="userSpaceOnUse">
<stop stop-color="#4E27C4" stop-opacity="0"/>
<stop offset="1" stop-color="#291466"/>
</linearGradient>
<linearGradient id="paint3_linear_326_4380" x1="676.735" y1="57.9524" x2="724.335" y2="65.0765" gradientUnits="userSpaceOnUse">
<stop stop-color="#4E27C4" stop-opacity="0"/>
<stop offset="1" stop-color="#291466"/>
</linearGradient>
</defs>
</svg>
