<svg width="919" height="654" viewBox="0 0 919 654" fill="none" xmlns="http://www.w3.org/2000/svg">
<rect x="32" y="33" width="853.099" height="588.255" rx="6" fill="#BFB6F2" stroke="#E4E1FF" stroke-width="2"/>
<rect x="45.9014" y="46.1753" width="825.297" height="562.533" rx="3.5" fill="#10107F" stroke="#8181C6" stroke-width="7"/>
<rect x="52.502" y="52.7104" width="812.095" height="548.835" rx="4.5" fill="#330BAA" stroke="#5941CD" stroke-width="5"/>
<mask id="path-4-inside-1_112_2629" fill="white">
<rect x="46.2017" y="45.8145" width="824.696" height="562.626" rx="2"/>
</mask>
<rect x="46.2017" y="45.8145" width="824.696" height="562.626" rx="2" stroke="#111156" stroke-width="8" mask="url(#path-4-inside-1_112_2629)"/>
<path d="M843.094 0C840.047 0.899438 837.729 3.25571 835.423 5.32695C809.751 5.78934 790.889 5.12426 765.198 5.66266C762.48 6.25173 761.359 7.80358 759.788 9.83048C751.712 20.2944 744.244 31.2586 736.27 41.7922C736.01 42.66 736.27 43.4707 737.106 43.8571L854.92 43.9585C861.026 50.5459 867.607 56.8293 873.643 63.4611L874.27 182.649C874.156 183.093 875.277 183.612 875.588 183.631C875.999 183.656 877.748 182.219 878.216 181.864C888.807 173.953 898.39 165.535 908.987 157.63C910.431 156.262 911.28 154.368 911.508 152.398L911.8 84.4522C913.256 82.0072 915.043 80.5314 916.145 77.2123L916.968 45.2949C916.056 41.6148 912.952 39.2839 910.508 36.6299C900.088 25.3616 889.529 14.2263 879.122 2.95168C877.798 1.53285 875.778 0.221692 873.802 0H843.094Z" fill="#DDD6F2"/>
<path d="M874.106 184.949V65.2411L854.698 44.0346L736.511 43.8509C736.511 43.8509 734.148 43.8509 734.047 43.8509L761.024 8.13311L761.746 7.98743C763.304 6.42924 765.375 5.57415 767.579 5.57415H835.664L838.344 3.24321L838.933 2.77449C840.833 1.26698 842.328 0.0761719 844.804 0.0761719H873.143C875.385 0.0761719 877.558 1.00728 879.116 2.63514L914.91 40.8866C916.512 42.4321 917.437 44.5984 917.437 46.8279V74.2038C917.437 76.7564 916.189 78.5553 914.346 80.8989L911.946 84.1673V151.752C911.946 153.956 911.084 156.027 909.526 157.586L909.469 157.643L874.112 184.949H874.106ZM909.399 151.752V87.5814L912.63 83.1158C914.226 81.0889 914.891 79.8855 914.891 78.0612V46.8279C914.891 45.2761 914.245 43.7686 913.124 42.6981L877.26 4.37701C876.19 3.25588 874.682 2.6098 873.13 2.6098H841.238C839.712 2.6098 838.869 3.23054 836.944 4.75705L833.048 8.10777H767.573C766.078 8.10777 764.07 8.67784 763 9.71663L739.532 41.501H856.383L876.633 62.3274V179.761L907.778 155.736C908.823 154.665 909.399 153.253 909.399 151.752Z" fill="#E7E6FF"/>
<path d="M889.947 105.595C888.978 106.482 888.42 107.742 888.42 109.06L888.465 173.997L910.254 157.63C911.261 156.882 911.856 155.698 911.856 154.444L911.78 84.186" fill="#6A69A3"/>
<path d="M910.286 157.351L910.21 87.448H910.204V85.9531L912.104 83.9072L912.18 153.81C912.18 155.33 911.464 156.774 910.267 157.699C910.273 157.579 910.286 157.465 910.286 157.344V157.351Z" fill="#8585C6"/>
<path d="M890.042 105.595L912.167 83.8628V86.5104L892.018 106.311C891.049 107.198 890.492 108.458 890.492 109.775L890.536 172.521L888.566 174.003L888.522 109.066C888.522 107.749 889.073 106.494 890.049 105.601L890.042 105.595Z" fill="#545487"/>
<path d="M888.781 263.313C888.781 263.225 888.775 263.136 888.769 263.047L894.33 257.473C894.444 257.359 894.507 257.207 894.507 257.049V104.005C898.175 100.255 902.292 96.1067 905.934 92.3442L905.909 92.7306V257.055C905.909 260.26 904.661 263.275 902.393 265.543L888.781 279.168V263.326V263.313Z" fill="#00C3FF"/>
<path d="M888.782 265.72L895.673 258.81C896.142 258.341 896.402 257.714 896.402 257.043V102.061C898.935 99.489 901.482 96.9237 904.003 94.3394V257.043C904.003 259.741 902.951 262.275 901.044 264.181L888.775 276.463V265.714L888.782 265.72Z" fill="#00E7FF"/>
<path d="M888.782 267.963L896.794 259.937C897.567 259.165 897.992 258.145 897.992 257.049V100.458C899.474 98.957 900.95 97.4621 902.425 95.9609V257.049C902.425 259.323 901.539 261.464 899.93 263.073L888.782 274.233V267.963Z" fill="#83F6FF"/>
<path d="M888.782 270.199L897.915 261.052C898.986 259.982 899.575 258.557 899.575 257.049V98.8556C899.999 98.4249 900.417 98.0005 900.842 97.5698V257.049C900.842 258.899 900.12 260.64 898.809 261.952L888.782 271.991V270.199Z" fill="#DCFBFF"/>
<path opacity="0.5" d="M888.516 115.191V109.06C888.516 107.742 889.067 106.488 890.036 105.595L912.161 83.8628V90.8619L889.991 113.038C889.155 113.804 888.636 114.836 888.503 115.951L888.522 115.185L888.516 115.191Z" fill="#1B1B54"/>
<path d="M813.811 27.433C812.925 28.4021 811.664 28.9595 810.347 28.9595L745.41 28.9152L761.777 7.12596C762.524 6.11884 763.709 5.52344 764.963 5.52344L835.22 5.59945" fill="#6A69A3"/>
<path d="M762.062 7.09408L831.965 7.17009H831.959L833.46 7.17643L835.506 5.2762L765.603 5.2002C764.083 5.2002 762.639 5.91594 761.714 7.11308C761.834 7.10675 761.948 7.09408 762.069 7.09408H762.062Z" fill="#8585C6"/>
<path d="M813.811 27.3441L835.543 5.21924H832.896L813.096 25.3679C812.209 26.337 810.948 26.8944 809.631 26.8944L746.885 26.8501L745.403 28.82L810.34 28.8643C811.658 28.8643 812.912 28.3133 813.805 27.3378L813.811 27.3441Z" fill="#545487"/>
<path d="M654.079 30.4539C654.167 30.4539 654.256 30.4602 654.345 30.4665L661.939 23.0493C662.053 22.9353 662.205 22.872 662.364 22.872H815.408C819.157 19.2045 823.306 15.0874 827.069 11.4453L826.682 11.4706H662.357C659.152 11.4706 656.137 12.7185 653.87 14.9861L638.225 30.4539H654.066H654.079Z" fill="#00C3FF"/>
<path d="M651.665 30.4541L660.59 21.7067C661.059 21.238 661.686 20.9783 662.357 20.9783H817.339C819.911 18.4447 822.476 15.8984 825.061 13.3774H662.357C659.659 13.3774 657.125 14.4289 655.219 16.3355L640.917 30.4541H651.665Z" fill="#00E7FF"/>
<path d="M649.429 30.4541L659.475 20.5856C660.248 19.8128 661.268 19.3884 662.364 19.3884H818.954C820.456 17.9063 821.95 16.4304 823.452 14.9546H662.364C660.09 14.9546 657.949 15.8414 656.34 17.4502L643.159 30.4541H649.429Z" fill="#83F6FF"/>
<path d="M647.188 30.454L658.355 19.4644C659.425 18.394 660.85 17.8049 662.358 17.8049H820.551C820.982 17.3805 821.406 16.9625 821.837 16.5381H662.358C660.508 16.5381 658.766 17.2602 657.455 18.5713L645.395 30.454H647.188Z" fill="#DCFBFF"/>
<path opacity="0.5" d="M804.221 28.8643H810.353C811.67 28.8643 812.925 28.3133 813.818 27.3441L835.55 5.21924H828.551L806.375 27.3885C805.609 28.2246 804.576 28.744 803.461 28.877L804.228 28.858L804.221 28.8643Z" fill="#1B1B54"/>
<path d="M869.31 48.7531L873.548 24.8166C873.56 24.7596 873.573 24.709 873.586 24.652L874.004 22.283C874.149 21.4406 874.751 20.7628 875.562 20.5095C876.379 20.2561 877.253 20.4778 877.855 21.0795L899.156 42.8751C899.752 43.4768 899.961 44.3509 899.707 45.1617C899.454 45.9661 898.776 46.5615 897.94 46.7135L871.99 51.3057C871.856 51.3311 871.723 51.3437 871.59 51.3437C871.59 51.3437 871.584 51.3437 871.578 51.3437C871.546 51.3437 871.514 51.3501 871.476 51.3501C870.9 51.3501 870.336 51.122 869.918 50.704C869.405 50.1973 869.177 49.4688 869.304 48.7594L869.31 48.7531Z" fill="#BEB6EF"/>
<path d="M870.622 47.3978L875.271 21.0164C875.417 20.174 876.018 19.4962 876.829 19.2429C877.646 18.9895 878.52 19.2112 879.122 19.8129L900.423 41.6085C901.019 42.2102 901.228 43.0843 900.975 43.8951C900.721 44.7058 900.043 45.2949 899.207 45.4469L873.257 50.0391C873.124 50.0645 872.991 50.0771 872.858 50.0771C872.262 50.0771 871.679 49.8428 871.255 49.4121C870.729 48.8863 870.495 48.1389 870.622 47.4105V47.3978Z" fill="#6161AD"/>
<path d="M870.577 47.4861L874.815 23.5497C874.96 22.7326 875.543 22.0738 876.329 21.8268C877.12 21.5798 877.969 21.7951 878.552 22.3842L898.035 42.0832C898.612 42.6659 898.821 43.5147 898.568 44.3001C898.314 45.0855 897.662 45.6619 896.851 45.8076L873.13 50.0451C873.003 50.0704 872.87 50.0768 872.744 50.0768C872.167 50.0768 871.603 49.8487 871.185 49.4307C870.672 48.924 870.444 48.1955 870.571 47.4861H870.577Z" fill="#05006B"/>
<path d="M897.364 42.7488L877.881 23.0499C877.165 22.3278 875.93 22.7078 875.752 23.7149L871.515 47.6514C871.363 48.5128 872.11 49.2602 872.972 49.1082L896.693 44.8707C897.687 44.6934 898.08 43.4709 897.364 42.7488Z" fill="#110393"/>
<path d="M893.811 43.3439L874.422 46.8087C874.175 46.853 873.96 46.6376 874.004 46.3906L877.469 26.831C877.519 26.546 877.874 26.432 878.077 26.641L894.001 42.7422C894.203 42.9449 894.096 43.2996 893.811 43.3503V43.3439Z" fill="#00E7FF" stroke="#A9FBFF" stroke-miterlimit="10"/>
<path opacity="0.4" d="M888.8 279.181L893.038 274.861L893.076 258.728L888.8 263.08V279.181Z" fill="#111170"/>
<path opacity="0.4" d="M890.814 261.071V277.077L888.8 279.18V263.079L890.814 261.071Z" fill="#111170"/>
<path opacity="0.4" d="M638.218 30.4606L642.538 26.2231L658.671 26.1914L654.319 30.4606H638.218Z" fill="#111170"/>
<path opacity="0.4" d="M656.327 28.4526H640.321L638.218 30.4605H654.319L656.327 28.4526Z" fill="#111170"/>
<path d="M843.876 648.181C840.829 647.281 838.511 644.925 836.205 642.854C810.533 642.391 791.67 643.056 765.979 642.518C763.262 641.929 762.141 640.377 760.57 638.35C752.494 627.886 745.026 616.922 737.052 606.388C736.792 605.521 737.052 604.71 737.888 604.324L855.701 604.222C861.807 597.635 868.389 591.351 874.425 584.72L875.052 465.531C874.938 465.088 876.059 464.569 876.37 464.55C876.781 464.524 878.529 465.962 878.998 466.317C889.589 474.228 899.172 482.646 909.769 490.551C911.213 491.919 912.062 493.813 912.29 495.783L912.581 563.729C914.038 566.173 915.824 567.649 916.927 570.968L917.75 602.886C916.838 606.566 913.734 608.897 911.289 611.551C900.87 622.819 890.311 633.954 879.904 645.229C878.574 646.654 876.553 647.965 874.577 648.187H843.869L843.876 648.181Z" fill="#DDD6F2"/>
<path d="M910.244 490.544L910.301 490.601C911.859 492.16 912.714 494.231 912.714 496.435V564.02L915.121 567.288C916.964 569.632 918.212 571.431 918.212 573.983V601.359C918.212 603.589 917.294 605.749 915.685 607.3L879.891 645.552C878.333 647.18 876.16 648.111 873.918 648.111H845.579C843.109 648.111 841.608 646.92 839.708 645.412L839.119 644.944L836.439 642.613H768.354C766.15 642.613 764.079 641.758 762.521 640.2L761.799 640.054L734.822 604.336C734.923 604.336 737.26 604.311 737.286 604.336L855.473 604.152L874.881 582.946V463.238L910.238 490.544H910.244ZM908.565 492.445L877.421 468.42V585.853L857.171 606.68H740.32L763.788 638.464C764.858 639.503 766.866 640.073 768.361 640.073H833.836L837.731 643.424C839.657 644.95 840.499 645.571 842.026 645.571H873.918C875.47 645.571 876.977 644.925 878.048 643.804L913.911 605.483C915.032 604.412 915.678 602.905 915.678 601.353V570.119C915.678 568.289 915.007 567.092 913.417 565.065L910.187 560.599V496.429C910.187 494.928 909.61 493.515 908.565 492.445Z" fill="#E7E6FF"/>
<path d="M890.729 542.585C889.759 541.698 889.202 540.438 889.202 539.12L889.246 474.184L911.036 490.551C912.043 491.298 912.638 492.483 912.638 493.737L912.562 563.994" fill="#6A69A3"/>
<path d="M911.068 490.829L910.992 560.732H910.985V562.227L912.886 564.273L912.962 494.37C912.962 492.85 912.246 491.406 911.049 490.481C911.055 490.601 911.068 490.715 911.068 490.836V490.829Z" fill="#8585C6"/>
<path d="M890.824 542.585L912.949 564.317V561.67L892.8 541.869C891.831 540.983 891.274 539.722 891.274 538.405L891.318 475.659L889.348 474.177L889.304 539.114C889.304 540.432 889.855 541.686 890.83 542.579L890.824 542.585Z" fill="#545487"/>
<path d="M889.563 384.867C889.563 384.956 889.557 385.044 889.55 385.133L895.112 390.707C895.226 390.821 895.289 390.973 895.289 391.131V544.175C898.956 547.925 903.074 552.074 906.716 555.836L906.69 555.45V391.125C906.69 387.92 905.442 384.905 903.175 382.637L889.563 369.013V384.854V384.867Z" fill="#00C3FF"/>
<path d="M889.563 382.46L896.455 389.37C896.924 389.839 897.183 390.466 897.183 391.138V546.12C899.717 548.691 902.263 551.257 904.784 553.841V391.138C904.784 388.439 903.733 385.906 901.826 383.999L889.557 371.717V382.466L889.563 382.46Z" fill="#00E7FF"/>
<path d="M889.563 380.224L897.576 388.25C898.349 389.022 898.773 390.042 898.773 391.138V547.729C900.255 549.23 901.731 550.725 903.207 552.226V391.138C903.207 388.864 902.32 386.723 900.711 385.114L889.563 373.954V380.224Z" fill="#83F6FF"/>
<path d="M889.563 377.982L898.697 387.128C899.768 388.198 900.357 389.624 900.357 391.131V549.324C900.781 549.755 901.199 550.18 901.624 550.61V391.131C901.624 389.282 900.901 387.54 899.59 386.228L889.563 376.189V377.982Z" fill="#DCFBFF"/>
<path opacity="0.5" d="M889.297 532.989V539.12C889.297 540.438 889.848 541.692 890.817 542.585L912.942 564.317V557.318L890.773 535.143C889.937 534.376 889.418 533.344 889.285 532.229L889.304 532.995L889.297 532.989Z" fill="#1B1B54"/>
<path d="M814.593 620.748C813.706 619.779 812.446 619.221 811.128 619.221L746.191 619.266L762.559 641.055C763.306 642.062 764.491 642.657 765.745 642.657L836.002 642.581" fill="#6A69A3"/>
<path d="M762.844 641.086L832.747 641.01H832.74L834.242 641.004L836.288 642.904L766.385 642.98C764.865 642.98 763.42 642.264 762.496 641.067C762.616 641.074 762.73 641.086 762.85 641.086H762.844Z" fill="#8585C6"/>
<path d="M814.593 620.843L836.325 642.968H833.678L813.877 622.819C812.991 621.85 811.73 621.293 810.413 621.293L747.667 621.337L746.185 619.367L811.122 619.323C812.439 619.323 813.694 619.874 814.587 620.849L814.593 620.843Z" fill="#545487"/>
<path d="M654.861 617.727C654.949 617.727 655.038 617.72 655.127 617.714L662.721 625.131C662.835 625.245 662.987 625.308 663.146 625.308H816.189C819.939 628.976 824.088 633.093 827.85 636.735L827.464 636.71H663.139C659.934 636.71 656.919 635.462 654.652 633.194L639.006 617.727H654.848H654.861Z" fill="#00C3FF"/>
<path d="M652.447 617.727L661.372 626.474C661.841 626.943 662.468 627.202 663.139 627.202H818.121C820.693 629.736 823.258 632.282 825.842 634.803H663.139C660.441 634.803 657.907 633.752 656.001 631.845L641.698 617.727H652.447Z" fill="#00E7FF"/>
<path d="M650.211 617.727L660.257 627.595C661.03 628.368 662.05 628.792 663.145 628.792H819.736C821.237 630.274 822.732 631.75 824.233 633.226H663.145C660.871 633.226 658.73 632.339 657.122 630.73L643.94 617.727H650.211Z" fill="#83F6FF"/>
<path d="M647.969 617.727L659.136 628.716C660.207 629.787 661.632 630.376 663.139 630.376H821.333C821.764 630.8 822.188 631.218 822.619 631.642H663.139C661.29 631.642 659.548 630.92 658.237 629.609L646.177 617.727H647.969Z" fill="#DCFBFF"/>
<path opacity="0.5" d="M805.003 619.316H811.135C812.452 619.316 813.706 619.867 814.599 620.836L836.332 642.961H829.332L807.157 620.792C806.39 619.956 805.358 619.436 804.243 619.303L805.01 619.322L805.003 619.316Z" fill="#1B1B54"/>
<path d="M870.092 599.433L874.33 623.37C874.343 623.427 874.355 623.478 874.368 623.535L874.786 625.903C874.932 626.746 875.533 627.424 876.344 627.677C877.161 627.93 878.035 627.709 878.637 627.107L899.939 605.311C900.534 604.71 900.743 603.836 900.49 603.025C900.236 602.22 899.559 601.625 898.722 601.473L872.772 596.881C872.639 596.855 872.506 596.843 872.373 596.843C872.373 596.843 872.366 596.843 872.36 596.843C872.328 596.843 872.297 596.836 872.259 596.836C871.682 596.836 871.119 597.064 870.7 597.483C870.187 597.989 869.959 598.718 870.086 599.427L870.092 599.433Z" fill="#BEB6EF"/>
<path d="M871.403 600.783L876.053 627.164C876.198 628.007 876.8 628.684 877.611 628.938C878.428 629.191 879.302 628.969 879.904 628.368L901.205 606.572C901.801 605.97 902.01 605.096 901.756 604.286C901.503 603.475 900.825 602.886 899.989 602.734L874.038 598.142C873.905 598.116 873.772 598.104 873.639 598.104C873.044 598.104 872.461 598.338 872.037 598.769C871.511 599.294 871.277 600.042 871.403 600.77V600.783Z" fill="#6161AD"/>
<path d="M871.359 600.7L875.596 624.636C875.742 625.454 876.325 626.112 877.11 626.359C877.902 626.606 878.751 626.391 879.334 625.802L898.817 606.103C899.394 605.52 899.603 604.671 899.349 603.886C899.096 603.101 898.444 602.524 897.633 602.379L873.912 598.141C873.785 598.116 873.652 598.109 873.525 598.109C872.949 598.109 872.385 598.337 871.967 598.755C871.454 599.262 871.226 599.991 871.353 600.7H871.359Z" fill="#05006B"/>
<path d="M898.146 605.432L878.663 625.131C877.947 625.853 876.712 625.473 876.535 624.466L872.297 600.529C872.145 599.668 872.893 598.92 873.754 599.073L897.475 603.31C898.469 603.487 898.862 604.71 898.146 605.432Z" fill="#110393"/>
<path d="M894.592 604.836L875.204 601.372C874.957 601.327 874.741 601.543 874.786 601.79L878.25 621.349C878.301 621.634 878.656 621.748 878.858 621.539L894.782 605.438C894.985 605.235 894.877 604.881 894.592 604.83V604.836Z" fill="#00E7FF" stroke="#A9FBFF" stroke-miterlimit="10"/>
<path opacity="0.4" d="M889.582 369L893.819 373.32L893.858 389.453L889.582 385.101V369Z" fill="#111170"/>
<path opacity="0.4" d="M891.596 387.115V371.103L889.582 369V385.101L891.596 387.115Z" fill="#111170"/>
<path opacity="0.4" d="M639 617.72L643.32 621.957L659.453 621.989L655.101 617.72H639Z" fill="#111170"/>
<path opacity="0.4" d="M657.109 619.734H641.103L639 617.72H655.101L657.109 619.734Z" fill="#111170"/>
<path d="M74.343 0C77.3897 0.899438 79.708 3.25571 82.0136 5.32695C107.686 5.78934 126.548 5.12426 152.239 5.66266C154.957 6.25173 156.078 7.80358 157.649 9.83048C165.725 20.2944 173.193 31.2586 181.167 41.7922C181.427 42.66 181.167 43.4707 180.331 43.8571L62.5173 43.9585C56.4113 50.5459 49.8302 56.8293 43.7938 63.4611L43.1668 182.649C43.2808 183.093 42.1596 183.612 41.8492 183.631C41.4375 183.656 39.6893 182.219 39.2206 181.864C28.63 173.953 19.0466 165.535 8.44969 157.63C7.00552 156.262 6.15677 154.368 5.92874 152.398L5.63739 84.4522C4.18056 82.0072 2.39436 80.5314 1.29224 77.2123L0.468781 45.2949C1.38087 41.6148 4.48454 39.2839 6.92949 36.6299C17.349 25.3616 27.908 14.2263 38.3148 2.95168C39.6387 1.53285 41.6593 0.221692 43.6355 0H74.343Z" fill="#DDD6F2"/>
<path d="M43.3314 184.949V65.2411L62.739 44.0346L180.926 43.8509C180.926 43.8509 183.289 43.8509 183.39 43.8509L156.414 8.13311L155.691 7.98743C154.133 6.42924 152.062 5.57415 149.858 5.57415H81.7729L79.0936 3.24321L78.5045 2.77449C76.6042 1.26698 75.1094 0.0761719 72.6328 0.0761719H44.2941C42.0519 0.0761719 39.8793 1.00728 38.3212 2.63514L2.52733 40.8866C0.924805 42.4321 3.05176e-05 44.5984 3.05176e-05 46.8279V74.2038C3.05176e-05 76.7564 1.24785 78.5553 3.09106 80.8989L5.49162 84.1673V151.752C5.49162 153.956 6.3531 156.027 7.91129 157.586L7.96826 157.643L43.3251 184.949H43.3314ZM8.03793 151.752V87.5814L4.80757 83.1158C3.21138 81.0889 2.54634 79.8855 2.54634 78.0612V46.8279C2.54634 45.2761 3.19237 43.7686 4.31349 42.6981L40.177 4.37701C41.2475 3.25588 42.755 2.6098 44.3068 2.6098H76.1989C77.7254 2.6098 78.5678 3.23054 80.4934 4.75705L84.3888 8.10777H149.864C151.359 8.10777 153.367 8.67784 154.437 9.71663L177.905 41.501H61.0541L40.8041 62.3274V179.761L9.65948 155.736C8.61436 154.665 8.03793 153.253 8.03793 151.752Z" fill="#E7E6FF"/>
<path d="M27.4901 105.595C28.4593 106.482 29.0166 107.742 29.0166 109.06L28.9723 173.997L7.18308 157.63C6.17596 156.882 5.58054 155.698 5.58054 154.444L5.65655 84.186" fill="#6A69A3"/>
<path d="M7.15113 157.351L7.22714 87.448H7.2334V85.9531L5.33318 83.9072L5.25717 153.81C5.25717 155.33 5.97293 156.774 7.17007 157.699C7.16374 157.579 7.15113 157.465 7.15113 157.344V157.351Z" fill="#8585C6"/>
<path d="M27.3948 105.595L5.26991 83.8628V86.5104L25.4186 106.311C26.3877 107.198 26.9452 108.458 26.9452 109.775L26.9008 172.521L28.8707 174.003L28.915 109.066C28.915 107.749 28.364 106.494 27.3885 105.601L27.3948 105.595Z" fill="#545487"/>
<path d="M28.6555 263.313C28.6555 263.225 28.6619 263.136 28.6682 263.047L23.1069 257.473C22.9929 257.359 22.9295 257.207 22.9295 257.049V104.005C19.2621 100.255 15.145 96.1067 11.5029 92.3442L11.5282 92.7306V257.055C11.5282 260.26 12.776 263.275 15.0436 265.543L28.6555 279.168V263.326V263.313Z" fill="#00C3FF"/>
<path d="M28.6553 265.72L21.7638 258.81C21.2951 258.341 21.0354 257.714 21.0354 257.043V102.061C18.5017 99.489 15.9555 96.9237 13.4345 94.3394V257.043C13.4345 259.741 14.486 262.275 16.3925 264.181L28.6616 276.463V265.714L28.6553 265.72Z" fill="#00E7FF"/>
<path d="M28.6553 267.963L20.6427 259.937C19.8699 259.165 19.4455 258.145 19.4455 257.049V100.458C17.9633 98.957 16.4875 97.4621 15.0117 95.9609V257.049C15.0117 259.323 15.8985 261.464 17.5073 263.073L28.6553 274.233V267.963Z" fill="#83F6FF"/>
<path d="M28.6553 270.199L19.5215 261.052C18.4511 259.982 17.862 258.557 17.862 257.049V98.8556C17.4376 98.4249 17.0196 98.0005 16.5952 97.5698V257.049C16.5952 258.899 17.3173 260.64 18.6285 261.952L28.6553 271.991V270.199Z" fill="#DCFBFF"/>
<path opacity="0.5" d="M28.9217 115.191V109.06C28.9217 107.742 28.3706 106.488 27.4015 105.595L5.27659 83.8628V90.8619L27.4458 113.038C28.2819 113.804 28.8013 114.836 28.9343 115.951L28.9154 115.185L28.9217 115.191Z" fill="#1B1B54"/>
<path d="M103.626 27.433C104.512 28.4021 105.773 28.9595 107.09 28.9595L172.027 28.9152L155.66 7.12596C154.913 6.11884 153.728 5.52344 152.474 5.52344L82.2165 5.59945" fill="#6A69A3"/>
<path d="M155.375 7.09408L85.4722 7.17009H85.4785L83.9774 7.17643L81.9315 5.2762L151.834 5.2002C153.354 5.2002 154.799 5.91594 155.723 7.11308C155.603 7.10675 155.489 7.09408 155.369 7.09408H155.375Z" fill="#8585C6"/>
<path d="M103.625 27.3441L81.8933 5.21924H84.5409L104.341 25.3679C105.228 26.337 106.488 26.8944 107.806 26.8944L170.551 26.8501L172.033 28.82L107.097 28.8643C105.779 28.8643 104.525 28.3133 103.632 27.3378L103.625 27.3441Z" fill="#545487"/>
<path d="M263.358 30.4539C263.27 30.4539 263.181 30.4602 263.092 30.4665L255.498 23.0493C255.384 22.9353 255.232 22.872 255.073 22.872H102.029C98.2796 19.2045 94.1308 15.0874 90.3684 11.4453L90.7548 11.4706H255.08C258.285 11.4706 261.3 12.7185 263.567 14.9861L279.212 30.4539H263.371H263.358Z" fill="#00C3FF"/>
<path d="M265.771 30.4541L256.847 21.7067C256.378 21.238 255.751 20.9783 255.079 20.9783H100.097C97.5258 18.4447 94.9605 15.8984 92.3762 13.3774H255.079C257.778 13.3774 260.311 14.4289 262.218 16.3355L276.52 30.4541H265.771Z" fill="#00E7FF"/>
<path d="M268.007 30.4541L257.962 20.5856C257.189 19.8128 256.169 19.3884 255.073 19.3884H98.4823C96.9811 17.9063 95.4863 16.4304 93.9851 14.9546H255.073C257.347 14.9546 259.488 15.8414 261.097 17.4502L274.278 30.4541H268.007Z" fill="#83F6FF"/>
<path d="M270.249 30.454L259.083 19.4644C258.012 18.394 256.587 17.8049 255.079 17.8049H96.8859C96.4552 17.3805 96.0308 16.9625 95.6001 16.5381H255.079C256.929 16.5381 258.671 17.2602 259.982 18.5713L272.042 30.454H270.249Z" fill="#DCFBFF"/>
<path opacity="0.5" d="M113.215 28.8643H107.084C105.766 28.8643 104.512 28.3133 103.619 27.3441L81.887 5.21924H88.8861L111.062 27.3885C111.828 28.2246 112.861 28.744 113.975 28.877L113.209 28.858L113.215 28.8643Z" fill="#1B1B54"/>
<path d="M48.1266 48.7531L43.8891 24.8166C43.8764 24.7596 43.8637 24.709 43.8511 24.652L43.433 22.283C43.2873 21.4406 42.6856 20.7628 41.8748 20.5095C41.0577 20.2561 40.1836 20.4778 39.5819 21.0795L18.2804 42.8751C17.685 43.4768 17.476 44.3509 17.7294 45.1617C17.9827 45.9661 18.6605 46.5615 19.4966 46.7135L45.4473 51.3057C45.5803 51.3311 45.7133 51.3437 45.8463 51.3437C45.8463 51.3437 45.8527 51.3437 45.859 51.3437C45.8907 51.3437 45.9223 51.3501 45.9603 51.3501C46.5367 51.3501 47.1005 51.122 47.5185 50.704C48.0316 50.1973 48.2596 49.4688 48.1329 48.7594L48.1266 48.7531Z" fill="#BEB6EF"/>
<path d="M46.8154 47.3978L42.1661 21.0164C42.0205 20.174 41.4187 19.4962 40.608 19.2429C39.7909 18.9895 38.9168 19.2112 38.315 19.8129L17.0136 41.6085C16.4182 42.2102 16.2091 43.0843 16.4625 43.8951C16.7159 44.7058 17.3936 45.2949 18.2297 45.4469L44.1804 50.0391C44.3134 50.0645 44.4464 50.0771 44.5795 50.0771C45.1749 50.0771 45.7576 49.8428 46.182 49.4121C46.7077 48.8863 46.9421 48.1389 46.8154 47.4105V47.3978Z" fill="#6161AD"/>
<path d="M46.8597 47.4861L42.6223 23.5497C42.4766 22.7326 41.8938 22.0738 41.1084 21.8268C40.3166 21.5798 39.4679 21.7951 38.8851 22.3842L19.4015 42.0832C18.8251 42.6659 18.6161 43.5147 18.8695 44.3001C19.1229 45.0855 19.7752 45.6619 20.586 45.8076L44.3071 50.0451C44.4337 50.0704 44.5667 50.0768 44.6934 50.0768C45.2698 50.0768 45.8336 49.8487 46.2517 49.4307C46.7647 48.924 46.9927 48.1955 46.866 47.4861H46.8597Z" fill="#05006B"/>
<path d="M20.0725 42.7488L39.5561 23.0499C40.2719 22.3278 41.507 22.7078 41.6843 23.7149L45.9219 47.6514C46.0739 48.5128 45.3264 49.2602 44.465 49.1082L20.7439 44.8707C19.7495 44.6934 19.3567 43.4709 20.0725 42.7488Z" fill="#110393"/>
<path d="M23.6265 43.3439L43.0151 46.8087C43.2622 46.853 43.4775 46.6376 43.4331 46.3906L39.9684 26.831C39.9177 26.546 39.5631 26.432 39.3604 26.641L23.4365 42.7422C23.2338 42.9449 23.3415 43.2996 23.6265 43.3503V43.3439Z" fill="#00E7FF" stroke="#A9FBFF" stroke-miterlimit="10"/>
<path opacity="0.4" d="M28.6367 279.181L24.3993 274.861L24.3612 258.728L28.6367 263.08V279.181Z" fill="#111170"/>
<path opacity="0.4" d="M26.6225 261.071V277.077L28.6367 279.18V263.079L26.6225 261.071Z" fill="#111170"/>
<path opacity="0.4" d="M279.219 30.4606L274.899 26.2231L258.766 26.1914L263.117 30.4606H279.219Z" fill="#111170"/>
<path opacity="0.4" d="M261.109 28.4526H277.116L279.219 30.4605H263.117L261.109 28.4526Z" fill="#111170"/>
<path d="M74.343 653.181C77.3897 652.281 79.708 649.925 82.0136 647.854C107.686 647.391 126.548 648.056 152.239 647.518C154.957 646.929 156.078 645.377 157.649 643.35C165.725 632.886 173.193 621.922 181.167 611.388C181.427 610.521 181.167 609.71 180.331 609.324L62.5173 609.222C56.4113 602.635 49.8302 596.351 43.7938 589.72L43.1668 470.531C43.2808 470.088 42.1596 469.569 41.8492 469.55C41.4375 469.524 39.6893 470.962 39.2206 471.317C28.63 479.228 19.0466 487.646 8.44969 495.551C7.00552 496.919 6.15677 498.813 5.92874 500.783L5.63739 568.729C4.18056 571.173 2.39436 572.649 1.29224 575.968L0.468781 607.886C1.38087 611.566 4.48454 613.897 6.92949 616.551C17.349 627.819 27.908 638.954 38.3148 650.229C39.645 651.654 41.6656 652.965 43.6418 653.187H74.3494L74.343 653.181Z" fill="#DDD6F2"/>
<path d="M7.9751 495.544L7.91812 495.601C6.35994 497.16 5.50481 499.231 5.50481 501.435V569.02L3.0979 572.288C1.25468 574.632 0.00686646 576.431 0.00686646 578.983V606.359C0.00686646 608.589 0.925308 610.749 2.53416 612.3L38.328 650.552C39.8862 652.18 42.0587 653.111 44.301 653.111H72.6396C75.1099 653.111 76.6111 651.92 78.5113 650.412L79.1004 649.944L81.7797 647.613H149.865C152.069 647.613 154.14 646.758 155.698 645.2L156.42 645.054L183.397 609.336C183.296 609.336 180.959 609.311 180.933 609.336L62.7458 609.152L43.3382 587.946V468.238L7.98145 495.544H7.9751ZM9.65364 497.445L40.7983 473.42V590.853L61.0483 611.68H177.899L154.431 643.464C153.361 644.503 151.353 645.073 149.858 645.073H84.383L80.4875 648.424C78.562 649.95 77.7196 650.571 76.1931 650.571H44.301C42.7491 650.571 41.2416 649.925 40.1712 648.804L4.30765 610.483C3.18652 609.412 2.5405 607.905 2.5405 606.353V575.119C2.5405 573.289 3.21187 572.092 4.80173 570.065L8.03209 565.599V501.429C8.03209 499.928 8.60852 498.515 9.65364 497.445Z" fill="#E7E6FF"/>
<path d="M27.4901 547.585C28.4593 546.698 29.0166 545.438 29.0166 544.12L28.9723 479.184L7.18308 495.551C6.17596 496.298 5.58054 497.483 5.58054 498.737L5.65655 568.994" fill="#6A69A3"/>
<path d="M7.15113 495.829L7.22714 565.732H7.2334V567.227L5.33318 569.273L5.25717 499.37C5.25717 497.85 5.97293 496.406 7.17007 495.481C7.16374 495.601 7.15113 495.715 7.15113 495.836V495.829Z" fill="#8585C6"/>
<path d="M27.3948 547.585L5.26991 569.317V566.67L25.4186 546.869C26.3877 545.983 26.9452 544.722 26.9452 543.405L26.9008 480.659L28.8707 479.177L28.915 544.114C28.915 545.432 28.364 546.686 27.3885 547.579L27.3948 547.585Z" fill="#545487"/>
<path d="M28.6555 389.867C28.6555 389.956 28.6619 390.044 28.6682 390.133L23.1069 395.707C22.9929 395.821 22.9295 395.973 22.9295 396.131V549.175C19.2621 552.925 15.145 557.074 11.5029 560.836L11.5282 560.45V396.125C11.5282 392.92 12.776 389.905 15.0436 387.637L28.6555 374.013V389.854V389.867Z" fill="#00C3FF"/>
<path d="M28.6553 387.46L21.7638 394.37C21.2951 394.839 21.0354 395.466 21.0354 396.138V551.12C18.5017 553.691 15.9555 556.257 13.4345 558.841V396.138C13.4345 393.439 14.486 390.906 16.3925 388.999L28.6616 376.717V387.466L28.6553 387.46Z" fill="#00E7FF"/>
<path d="M28.6553 385.224L20.6427 393.25C19.8699 394.022 19.4455 395.042 19.4455 396.138V552.729C17.9633 554.23 16.4875 555.725 15.0117 557.226V396.138C15.0117 393.864 15.8985 391.723 17.5073 390.114L28.6553 378.954V385.224Z" fill="#83F6FF"/>
<path d="M28.6553 382.982L19.5215 392.128C18.4511 393.198 17.862 394.624 17.862 396.131V554.324C17.4376 554.755 17.0196 555.18 16.5952 555.61V396.131C16.5952 394.282 17.3173 392.54 18.6285 391.228L28.6553 381.189V382.982Z" fill="#DCFBFF"/>
<path opacity="0.5" d="M28.9217 537.989V544.12C28.9217 545.438 28.3706 546.692 27.4015 547.585L5.27659 569.317V562.318L27.4458 540.143C28.2819 539.376 28.8013 538.344 28.9343 537.229L28.9154 537.995L28.9217 537.989Z" fill="#1B1B54"/>
<path d="M103.626 625.748C104.512 624.779 105.773 624.221 107.09 624.221L172.027 624.266L155.66 646.055C154.913 647.062 153.728 647.657 152.474 647.657L82.2165 647.581" fill="#6A69A3"/>
<path d="M155.375 646.086L85.4722 646.01H85.4785L83.9774 646.004L81.9315 647.904L151.834 647.98C153.354 647.98 154.799 647.264 155.723 646.067C155.603 646.074 155.489 646.086 155.369 646.086H155.375Z" fill="#8585C6"/>
<path d="M103.625 625.843L81.8933 647.968H84.5409L104.341 627.819C105.228 626.85 106.488 626.293 107.806 626.293L170.551 626.337L172.033 624.367L107.097 624.323C105.779 624.323 104.525 624.874 103.632 625.849L103.625 625.843Z" fill="#545487"/>
<path d="M263.358 622.727C263.27 622.727 263.181 622.72 263.092 622.714L255.498 630.131C255.384 630.245 255.232 630.308 255.073 630.308H102.029C98.2796 633.976 94.1308 638.093 90.3684 641.735L90.7548 641.71H255.08C258.285 641.71 261.3 640.462 263.567 638.194L279.212 622.727H263.371H263.358Z" fill="#00C3FF"/>
<path d="M265.771 622.727L256.847 631.474C256.378 631.943 255.751 632.202 255.079 632.202H100.097C97.5258 634.736 94.9605 637.282 92.3762 639.803H255.079C257.778 639.803 260.311 638.752 262.218 636.845L276.52 622.727H265.771Z" fill="#00E7FF"/>
<path d="M268.007 622.727L257.962 632.595C257.189 633.368 256.169 633.792 255.073 633.792H98.4823C96.9811 635.274 95.4863 636.75 93.9851 638.226H255.073C257.347 638.226 259.488 637.339 261.097 635.73L274.278 622.727H268.007Z" fill="#83F6FF"/>
<path d="M270.249 622.727L259.083 633.716C258.012 634.787 256.587 635.376 255.079 635.376H96.8859C96.4552 635.8 96.0308 636.218 95.6001 636.642H255.079C256.929 636.642 258.671 635.92 259.982 634.609L272.042 622.727H270.249Z" fill="#DCFBFF"/>
<path opacity="0.5" d="M113.215 624.316H107.084C105.766 624.316 104.512 624.867 103.619 625.836L81.887 647.961H88.8861L111.062 625.792C111.828 624.956 112.861 624.436 113.975 624.303L113.209 624.322L113.215 624.316Z" fill="#1B1B54"/>
<path d="M48.1266 604.433L43.8891 628.37C43.8764 628.427 43.8637 628.478 43.8511 628.535L43.433 630.903C43.2873 631.746 42.6856 632.424 41.8748 632.677C41.0577 632.93 40.1836 632.709 39.5819 632.107L18.2804 610.311C17.685 609.71 17.476 608.836 17.7294 608.025C17.9827 607.22 18.6605 606.625 19.4966 606.473L45.4473 601.881C45.5803 601.855 45.7133 601.843 45.8463 601.843C45.8463 601.843 45.8527 601.843 45.859 601.843C45.8907 601.843 45.9223 601.836 45.9603 601.836C46.5367 601.836 47.1005 602.064 47.5185 602.483C48.0316 602.989 48.2596 603.718 48.1329 604.427L48.1266 604.433Z" fill="#BEB6EF"/>
<path d="M46.8154 605.783L42.1661 632.164C42.0205 633.007 41.4187 633.684 40.608 633.938C39.7909 634.191 38.9168 633.969 38.315 633.368L17.0136 611.572C16.4182 610.97 16.2091 610.096 16.4625 609.286C16.7159 608.475 17.3936 607.886 18.2297 607.734L44.1804 603.142C44.3134 603.116 44.4464 603.104 44.5795 603.104C45.1749 603.104 45.7576 603.338 46.182 603.769C46.7077 604.294 46.9421 605.042 46.8154 605.77V605.783Z" fill="#6161AD"/>
<path d="M46.8597 605.7L42.6223 629.636C42.4766 630.454 41.8938 631.112 41.1084 631.359C40.3166 631.606 39.4679 631.391 38.8851 630.802L19.4015 611.103C18.8251 610.52 18.6161 609.671 18.8695 608.886C19.1229 608.101 19.7752 607.524 20.586 607.379L44.3071 603.141C44.4337 603.116 44.5667 603.109 44.6934 603.109C45.2698 603.109 45.8336 603.337 46.2517 603.755C46.7647 604.262 46.9927 604.991 46.866 605.7H46.8597Z" fill="#05006B"/>
<path d="M20.0725 610.432L39.5561 630.131C40.2719 630.853 41.507 630.473 41.6843 629.466L45.9219 605.529C46.0739 604.668 45.3264 603.92 44.465 604.073L20.7439 608.31C19.7495 608.487 19.3567 609.71 20.0725 610.432Z" fill="#110393"/>
<path d="M23.6265 609.836L43.0151 606.372C43.2622 606.327 43.4775 606.543 43.4331 606.79L39.9684 626.349C39.9177 626.634 39.5631 626.748 39.3604 626.539L23.4365 610.438C23.2338 610.235 23.3415 609.881 23.6265 609.83V609.836Z" fill="#00E7FF" stroke="#A9FBFF" stroke-miterlimit="10"/>
<path opacity="0.4" d="M28.6367 374L24.3993 378.32L24.3612 394.453L28.6367 390.101V374Z" fill="#111170"/>
<path opacity="0.4" d="M26.6225 392.115V376.103L28.6367 374V390.101L26.6225 392.115Z" fill="#111170"/>
<path opacity="0.4" d="M279.219 622.72L274.899 626.957L258.766 626.989L263.117 622.72H279.219Z" fill="#111170"/>
<path opacity="0.4" d="M261.109 624.734H277.116L279.219 622.72H263.117L261.109 624.734Z" fill="#111170"/>
</svg>
