<svg width="1099" height="832" viewBox="0 0 1099 832" fill="none" xmlns="http://www.w3.org/2000/svg">
<g filter="url(#filter0_f_123_2135)">
<rect x="70" y="70" width="959" height="692" rx="90" fill="#00E7FF" fill-opacity="0.4"/>
</g>
<rect x="123" y="122" width="853.099" height="588.255" rx="6" fill="#BFB6F2" stroke="#E4E1FF" stroke-width="2"/>
<rect x="136.901" y="135.175" width="825.297" height="562.533" rx="3.5" fill="#10107F" stroke="#8181C6" stroke-width="7"/>
<rect x="143.502" y="141.71" width="812.095" height="548.835" rx="4.5" fill="#330BAA" stroke="#5941CD" stroke-width="5"/>
<mask id="path-5-inside-1_123_2135" fill="white">
<rect x="137.202" y="134.815" width="824.696" height="562.626" rx="2"/>
</mask>
<rect x="137.202" y="134.815" width="824.696" height="562.626" rx="2" stroke="#111156" stroke-width="8" mask="url(#path-5-inside-1_123_2135)"/>
<path d="M934.131 89.9999C931.084 90.8993 928.766 93.2556 926.46 95.3268C900.788 95.7892 881.925 95.1241 856.234 95.6625C853.517 96.2516 852.396 97.8035 850.825 99.8304C842.749 110.294 835.281 121.259 827.306 131.792C827.047 132.66 827.307 133.471 828.143 133.857L945.956 133.958C952.062 140.546 958.643 146.829 964.68 153.461L965.307 272.649C965.193 273.093 966.314 273.612 966.624 273.631C967.036 273.656 968.784 272.218 969.253 271.864C979.844 263.952 989.427 255.534 1000.02 247.63C1001.47 246.261 1002.32 244.368 1002.54 242.398L1002.84 174.452C1004.29 172.007 1006.08 170.531 1007.18 167.212L1008 135.295C1007.09 131.615 1003.99 129.284 1001.54 126.63C991.125 115.361 980.566 104.226 970.159 92.9516C968.835 91.5327 966.814 90.2216 964.838 89.9999H934.131Z" fill="#DDD6F2"/>
<path d="M965.142 274.948V155.241L945.735 134.034L827.547 133.851C827.547 133.851 825.185 133.851 825.083 133.851L852.06 98.1329L852.782 97.9872C854.341 96.429 856.412 95.5739 858.616 95.5739H926.701L929.38 93.243L929.969 92.7742C931.87 91.2667 933.364 90.0759 935.841 90.0759H964.18C966.422 90.0759 968.595 91.007 970.153 92.6349L1005.95 130.886C1007.55 132.432 1008.47 134.598 1008.47 136.828V164.204C1008.47 166.756 1007.23 168.555 1005.38 170.899L1002.98 174.167V241.752C1002.98 243.956 1002.12 246.027 1000.56 247.585L1000.51 247.642L965.149 274.948H965.142ZM1000.44 241.752V177.581L1003.67 173.116C1005.26 171.089 1005.93 169.885 1005.93 168.061V136.828C1005.93 135.276 1005.28 133.768 1004.16 132.698L968.297 94.3768C967.226 93.2556 965.719 92.6096 964.167 92.6096H932.275C930.749 92.6096 929.906 93.2303 927.981 94.7568L924.085 98.1075H858.61C857.115 98.1075 855.107 98.6776 854.037 99.7164L830.569 131.501H947.42L967.67 152.327V269.761L998.814 245.736C999.86 244.665 1000.44 243.253 1000.44 241.752Z" fill="#E7E6FF"/>
<path d="M980.983 195.595C980.014 196.482 979.457 197.743 979.457 199.06L979.501 263.997L1001.29 247.63C1002.3 246.882 1002.89 245.698 1002.89 244.444L1002.82 174.186" fill="#6A69A3"/>
<path d="M1001.32 247.351L1001.25 177.448H1001.24V175.953L1003.14 173.907L1003.22 243.81C1003.22 245.33 1002.5 246.775 1001.3 247.699C1001.31 247.579 1001.32 247.465 1001.32 247.345V247.351Z" fill="#8585C6"/>
<path d="M981.079 195.595L1003.2 173.863V176.511L983.055 196.311C982.086 197.198 981.528 198.458 981.528 199.776L981.573 262.521L979.603 264.003L979.559 199.066C979.559 197.749 980.11 196.495 981.085 195.601L981.079 195.595Z" fill="#545487"/>
<path d="M979.818 353.314C979.818 353.225 979.812 353.136 979.805 353.048L985.367 347.474C985.481 347.36 985.544 347.208 985.544 347.049V194.005C989.211 190.256 993.328 186.107 996.97 182.344L996.945 182.731V347.055C996.945 350.261 995.697 353.276 993.43 355.543L979.818 369.168V353.326V353.314Z" fill="#00C3FF"/>
<path d="M979.818 355.72L986.71 348.81C987.179 348.341 987.438 347.714 987.438 347.043V192.061C989.972 189.489 992.518 186.924 995.039 184.339V347.043C995.039 349.741 993.988 352.275 992.081 354.181L979.812 366.463V355.714L979.818 355.72Z" fill="#00E7FF"/>
<path d="M979.818 357.963L987.831 349.937C988.604 349.165 989.028 348.145 989.028 347.049V190.458C990.51 188.957 991.986 187.462 993.462 185.961V347.049C993.462 349.323 992.575 351.464 990.966 353.073L979.818 364.233V357.963Z" fill="#83F6FF"/>
<path d="M979.818 360.199L988.952 351.052C990.023 349.982 990.612 348.557 990.612 347.049V188.856C991.036 188.425 991.454 188.001 991.878 187.57V347.049C991.878 348.899 991.156 350.641 989.845 351.952L979.818 361.991V360.199Z" fill="#DCFBFF"/>
<path opacity="0.5" d="M979.552 205.191V199.06C979.552 197.742 980.103 196.488 981.072 195.595L1003.2 173.863V180.862L981.028 203.038C980.192 203.804 979.673 204.837 979.54 205.951L979.558 205.185L979.552 205.191Z" fill="#1B1B54"/>
<path d="M904.848 117.433C903.961 118.402 902.701 118.959 901.383 118.959L836.446 118.915L852.814 97.1258C853.561 96.1187 854.745 95.5233 856 95.5233L926.257 95.5993" fill="#6A69A3"/>
<path d="M853.099 97.0941L923.002 97.1701H922.995L924.497 97.1764L926.542 95.2762L856.64 95.2002C855.119 95.2002 853.675 95.9159 852.75 97.1131C852.871 97.1068 852.985 97.0941 853.105 97.0941H853.099Z" fill="#8585C6"/>
<path d="M904.848 117.344L926.58 95.2194H923.932L904.132 115.368C903.245 116.337 901.985 116.895 900.667 116.895L837.922 116.85L836.44 118.82L901.377 118.864C902.694 118.864 903.948 118.313 904.842 117.338L904.848 117.344Z" fill="#545487"/>
<path d="M745.115 120.454C745.204 120.454 745.293 120.46 745.381 120.467L752.976 113.049C753.09 112.935 753.242 112.872 753.4 112.872H906.444C910.194 109.205 914.343 105.088 918.105 101.445L917.719 101.471H753.394C750.189 101.471 747.174 102.719 744.906 104.986L729.261 120.454H745.103H745.115Z" fill="#00C3FF"/>
<path d="M742.702 120.454L751.627 111.707C752.095 111.238 752.723 110.978 753.394 110.978H908.376C910.948 108.445 913.513 105.899 916.097 103.378H753.394C750.696 103.378 748.162 104.429 746.255 106.336L731.953 120.454H742.702Z" fill="#00E7FF"/>
<path d="M740.466 120.454L750.512 110.586C751.285 109.813 752.304 109.388 753.4 109.388H909.991C911.492 107.906 912.987 106.43 914.488 104.955H753.4C751.126 104.955 748.985 105.841 747.377 107.45L734.195 120.454H740.466Z" fill="#83F6FF"/>
<path d="M738.224 120.454L749.391 109.464C750.462 108.394 751.887 107.805 753.394 107.805H911.588C912.018 107.381 912.443 106.962 912.874 106.538H753.394C751.545 106.538 749.803 107.26 748.492 108.571L736.432 120.454H738.224Z" fill="#DCFBFF"/>
<path opacity="0.5" d="M895.258 118.864H901.39C902.707 118.864 903.961 118.313 904.854 117.344L926.586 95.2194H919.587L897.412 117.389C896.645 118.225 895.613 118.744 894.498 118.877L895.264 118.858L895.258 118.864Z" fill="#1B1B54"/>
<path d="M960.347 138.753L964.585 114.817C964.597 114.76 964.61 114.709 964.623 114.652L965.041 112.283C965.187 111.441 965.788 110.763 966.599 110.509C967.416 110.256 968.29 110.478 968.892 111.08L990.193 132.875C990.789 133.477 990.998 134.351 990.745 135.162C990.491 135.966 989.813 136.562 988.977 136.714L963.027 141.306C962.894 141.331 962.761 141.344 962.628 141.344C962.628 141.344 962.621 141.344 962.615 141.344C962.583 141.344 962.552 141.35 962.514 141.35C961.937 141.35 961.373 141.122 960.955 140.704C960.442 140.197 960.214 139.469 960.341 138.759L960.347 138.753Z" fill="#BEB6EF"/>
<path d="M961.658 137.398L966.307 111.016C966.453 110.174 967.055 109.496 967.866 109.243C968.683 108.989 969.557 109.211 970.159 109.813L991.46 131.608C992.055 132.21 992.264 133.084 992.011 133.895C991.758 134.706 991.08 135.295 990.244 135.447L964.293 140.039C964.16 140.064 964.027 140.077 963.894 140.077C963.299 140.077 962.716 139.843 962.292 139.412C961.766 138.886 961.532 138.139 961.658 137.41V137.398Z" fill="#6161AD"/>
<path d="M961.614 137.486L965.851 113.55C965.997 112.733 966.58 112.074 967.365 111.827C968.157 111.58 969.006 111.795 969.588 112.384L989.072 132.083C989.649 132.666 989.858 133.515 989.604 134.3C989.351 135.086 988.698 135.662 987.888 135.808L964.167 140.045C964.04 140.071 963.907 140.077 963.78 140.077C963.204 140.077 962.64 139.849 962.222 139.431C961.709 138.924 961.481 138.196 961.608 137.486H961.614Z" fill="#05006B"/>
<path d="M988.401 132.749L968.918 113.05C968.202 112.328 966.967 112.708 966.79 113.715L962.552 137.651C962.4 138.513 963.147 139.26 964.009 139.108L987.73 134.87C988.724 134.693 989.117 133.471 988.401 132.749Z" fill="#110393"/>
<path d="M984.847 133.344L965.458 136.809C965.211 136.853 964.996 136.638 965.04 136.391L968.505 116.831C968.556 116.546 968.911 116.432 969.113 116.641L985.037 132.742C985.24 132.945 985.132 133.3 984.847 133.35V133.344Z" fill="#00E7FF" stroke="#A9FBFF" stroke-miterlimit="10"/>
<path opacity="0.4" d="M979.837 369.181L984.074 364.861L984.112 348.728L979.837 353.079V369.181Z" fill="#111170"/>
<path opacity="0.4" d="M981.851 351.071V367.077L979.837 369.18V353.079L981.851 351.071Z" fill="#111170"/>
<path opacity="0.4" d="M729.255 120.46L733.575 116.223L749.708 116.191L745.356 120.46H729.255Z" fill="#111170"/>
<path opacity="0.4" d="M747.364 118.453H731.358L729.255 120.46H745.356L747.364 118.453Z" fill="#111170"/>
<path d="M934.131 743.181C931.084 742.281 928.766 739.925 926.46 737.854C900.788 737.391 881.925 738.056 856.234 737.518C853.517 736.929 852.396 735.377 850.825 733.35C842.749 722.886 835.281 711.922 827.306 701.388C827.047 700.521 827.307 699.71 828.143 699.323L945.956 699.222C952.062 692.635 958.643 686.351 964.68 679.72L965.307 560.531C965.193 560.088 966.314 559.569 966.624 559.55C967.036 559.524 968.784 560.962 969.253 561.317C979.844 569.228 989.427 577.646 1000.02 585.551C1001.47 586.919 1002.32 588.813 1002.54 590.783L1002.84 658.728C1004.29 661.173 1006.08 662.649 1007.18 665.968L1008 697.886C1007.09 701.566 1003.99 703.897 1001.54 706.551C991.125 717.819 980.566 728.954 970.159 740.229C968.829 741.654 966.808 742.965 964.832 743.187H934.124L934.131 743.181Z" fill="#DDD6F2"/>
<path d="M1000.5 585.545L1000.56 585.602C1002.11 587.16 1002.97 589.231 1002.97 591.435V659.02L1005.38 662.288C1007.22 664.632 1008.47 666.431 1008.47 668.983V696.359C1008.47 698.589 1007.55 700.749 1005.94 702.301L970.146 740.552C968.588 742.18 966.415 743.111 964.173 743.111H935.834C933.364 743.111 931.863 741.92 929.963 740.413L929.373 739.944L926.694 737.613H858.609C856.405 737.613 854.334 736.758 852.776 735.2L852.054 735.054L825.077 699.336C825.178 699.336 827.515 699.311 827.541 699.336L945.728 699.152L965.136 677.946V558.238L1000.49 585.545H1000.5ZM998.82 587.445L967.676 563.42V680.853L947.426 701.68H830.575L854.042 733.464C855.113 734.503 857.121 735.073 858.616 735.073H924.091L927.986 738.424C929.912 739.95 930.754 740.571 932.281 740.571H964.173C965.725 740.571 967.232 739.925 968.303 738.804L1004.17 700.483C1005.29 699.412 1005.93 697.905 1005.93 696.353V665.12C1005.93 663.289 1005.26 662.092 1003.67 660.065L1000.44 655.599V591.429C1000.44 589.928 999.865 588.515 998.82 587.445Z" fill="#E7E6FF"/>
<path d="M980.983 637.585C980.014 636.698 979.457 635.438 979.457 634.12L979.501 569.184L1001.29 585.551C1002.3 586.298 1002.89 587.483 1002.89 588.737L1002.82 658.994" fill="#6A69A3"/>
<path d="M1001.32 585.829L1001.25 655.732H1001.24V657.227L1003.14 659.273L1003.22 589.37C1003.22 587.85 1002.5 586.406 1001.3 585.481C1001.31 585.601 1001.32 585.715 1001.32 585.836V585.829Z" fill="#8585C6"/>
<path d="M981.079 637.585L1003.2 659.317V656.67L983.055 636.869C982.086 635.983 981.528 634.722 981.528 633.405L981.573 570.659L979.603 569.177L979.559 634.114C979.559 635.432 980.11 636.686 981.085 637.579L981.079 637.585Z" fill="#545487"/>
<path d="M979.818 479.867C979.818 479.956 979.812 480.044 979.805 480.133L985.367 485.707C985.481 485.821 985.544 485.973 985.544 486.131V639.175C989.211 642.925 993.328 647.074 996.97 650.836L996.945 650.45V486.125C996.945 482.92 995.697 479.905 993.43 477.637L979.818 464.013V479.854V479.867Z" fill="#00C3FF"/>
<path d="M979.818 477.46L986.71 484.37C987.179 484.839 987.438 485.466 987.438 486.138V641.12C989.972 643.691 992.518 646.257 995.039 648.841V486.138C995.039 483.439 993.988 480.906 992.081 478.999L979.812 466.717V477.466L979.818 477.46Z" fill="#00E7FF"/>
<path d="M979.818 475.224L987.831 483.249C988.604 484.022 989.028 485.042 989.028 486.138V642.729C990.51 644.23 991.986 645.725 993.462 647.226V486.138C993.462 483.864 992.575 481.723 990.966 480.114L979.818 468.953V475.224Z" fill="#83F6FF"/>
<path d="M979.818 472.982L988.952 482.128C990.023 483.199 990.612 484.624 990.612 486.131V644.325C991.036 644.755 991.454 645.18 991.878 645.611V486.131C991.878 484.282 991.156 482.54 989.845 481.229L979.818 471.189V472.982Z" fill="#DCFBFF"/>
<path opacity="0.5" d="M979.552 627.989V634.121C979.552 635.438 980.103 636.692 981.072 637.585L1003.2 659.318V652.318L981.028 630.143C980.192 629.376 979.673 628.344 979.54 627.229L979.558 627.996L979.552 627.989Z" fill="#1B1B54"/>
<path d="M904.848 715.748C903.961 714.778 902.701 714.221 901.383 714.221L836.446 714.265L852.814 736.055C853.561 737.062 854.745 737.657 856 737.657L926.257 737.581" fill="#6A69A3"/>
<path d="M853.099 736.086L923.002 736.01H922.995L924.497 736.004L926.542 737.904L856.64 737.98C855.119 737.98 853.675 737.264 852.75 736.067C852.871 736.074 852.985 736.086 853.105 736.086H853.099Z" fill="#8585C6"/>
<path d="M904.848 715.843L926.58 737.968H923.932L904.132 717.819C903.245 716.85 901.985 716.292 900.667 716.292L837.922 716.337L836.44 714.367L901.377 714.323C902.694 714.323 903.948 714.874 904.842 715.849L904.848 715.843Z" fill="#545487"/>
<path d="M745.115 712.726C745.204 712.726 745.293 712.72 745.381 712.714L752.976 720.131C753.09 720.245 753.242 720.308 753.4 720.308H906.444C910.194 723.976 914.343 728.093 918.105 731.735L917.719 731.709H753.394C750.189 731.709 747.174 730.462 744.906 728.194L729.261 712.726H745.103H745.115Z" fill="#00C3FF"/>
<path d="M742.702 712.726L751.627 721.474C752.095 721.942 752.723 722.202 753.394 722.202H908.376C910.948 724.736 913.513 727.282 916.097 729.803H753.394C750.696 729.803 748.162 728.752 746.255 726.845L731.953 712.726H742.702Z" fill="#00E7FF"/>
<path d="M740.466 712.726L750.512 722.595C751.285 723.368 752.304 723.792 753.4 723.792H909.991C911.492 725.274 912.987 726.75 914.488 728.226H753.4C751.126 728.226 748.985 727.339 747.377 725.73L734.195 712.726H740.466Z" fill="#83F6FF"/>
<path d="M738.224 712.726L749.391 723.716C750.462 724.786 751.887 725.375 753.394 725.375H911.588C912.018 725.8 912.443 726.218 912.874 726.642H753.394C751.545 726.642 749.803 725.92 748.492 724.609L736.432 712.726H738.224Z" fill="#DCFBFF"/>
<path opacity="0.5" d="M895.258 714.316H901.39C902.707 714.316 903.961 714.867 904.854 715.836L926.586 737.961H919.587L897.412 715.792C896.645 714.956 895.613 714.436 894.498 714.303L895.264 714.322L895.258 714.316Z" fill="#1B1B54"/>
<path d="M960.347 694.434L964.585 718.37C964.597 718.427 964.61 718.478 964.623 718.535L965.041 720.904C965.187 721.746 965.788 722.424 966.599 722.677C967.416 722.931 968.29 722.709 968.892 722.107L990.193 700.312C990.789 699.71 990.998 698.836 990.745 698.025C990.491 697.221 989.813 696.625 988.977 696.473L963.027 691.881C962.894 691.856 962.761 691.843 962.628 691.843C962.628 691.843 962.621 691.843 962.615 691.843C962.583 691.843 962.552 691.837 962.514 691.837C961.937 691.837 961.373 692.065 960.955 692.483C960.442 692.989 960.214 693.718 960.341 694.427L960.347 694.434Z" fill="#BEB6EF"/>
<path d="M961.658 695.783L966.307 722.164C966.453 723.007 967.055 723.684 967.866 723.938C968.683 724.191 969.557 723.969 970.159 723.368L991.46 701.572C992.055 700.97 992.264 700.096 992.011 699.285C991.758 698.475 991.08 697.886 990.244 697.734L964.293 693.141C964.16 693.116 964.027 693.103 963.894 693.103C963.299 693.103 962.716 693.338 962.292 693.769C961.766 694.294 961.532 695.042 961.658 695.77V695.783Z" fill="#6161AD"/>
<path d="M961.614 695.7L965.851 719.637C965.997 720.454 966.58 721.113 967.365 721.36C968.157 721.607 969.006 721.391 969.588 720.802L989.072 701.103C989.649 700.52 989.858 699.672 989.604 698.886C989.351 698.101 988.698 697.524 987.888 697.379L964.167 693.141C964.04 693.116 963.907 693.11 963.78 693.11C963.204 693.11 962.64 693.338 962.222 693.756C961.709 694.262 961.481 694.991 961.608 695.7H961.614Z" fill="#05006B"/>
<path d="M988.401 700.432L968.918 720.131C968.202 720.853 966.967 720.473 966.79 719.466L962.552 695.529C962.4 694.668 963.147 693.92 964.009 694.072L987.73 698.31C988.724 698.487 989.117 699.71 988.401 700.432Z" fill="#110393"/>
<path d="M984.847 699.836L965.458 696.372C965.211 696.327 964.996 696.543 965.04 696.79L968.505 716.349C968.556 716.634 968.911 716.748 969.113 716.539L985.037 700.438C985.24 700.235 985.132 699.881 984.847 699.83V699.836Z" fill="#00E7FF" stroke="#A9FBFF" stroke-miterlimit="10"/>
<path opacity="0.4" d="M979.837 464L984.074 468.32L984.112 484.453L979.837 480.101V464Z" fill="#111170"/>
<path opacity="0.4" d="M981.851 482.115V466.103L979.837 464V480.101L981.851 482.115Z" fill="#111170"/>
<path opacity="0.4" d="M729.255 712.72L733.575 716.957L749.708 716.989L745.356 712.72H729.255Z" fill="#111170"/>
<path opacity="0.4" d="M747.364 714.734H731.358L729.255 712.72H745.356L747.364 714.734Z" fill="#111170"/>
<path d="M165.343 89.9999C168.39 90.8993 170.708 93.2556 173.014 95.3268C198.686 95.7892 217.548 95.1241 243.239 95.6625C245.957 96.2516 247.078 97.8035 248.649 99.8304C256.725 110.294 264.193 121.259 272.167 131.792C272.427 132.66 272.167 133.471 271.331 133.857L153.517 133.958C147.411 140.546 140.83 146.829 134.794 153.461L134.167 272.649C134.281 273.093 133.16 273.612 132.849 273.631C132.438 273.656 130.689 272.218 130.221 271.864C119.63 263.952 110.047 255.534 99.4497 247.63C98.0055 246.261 97.1568 244.368 96.9287 242.398L96.6374 174.452C95.1806 172.007 93.3944 170.531 92.2922 167.212L91.4688 135.295C92.3809 131.615 95.4845 129.284 97.9295 126.63C108.349 115.361 118.908 104.226 129.315 92.9516C130.639 91.5327 132.659 90.2216 134.635 89.9999H165.343Z" fill="#DDD6F2"/>
<path d="M134.331 274.948V155.241L153.739 134.034L271.926 133.851C271.926 133.851 274.289 133.851 274.39 133.851L247.413 98.1329L246.691 97.9872C245.133 96.429 243.062 95.5739 240.858 95.5739H172.773L170.093 93.243L169.504 92.7742C167.604 91.2667 166.109 90.0759 163.633 90.0759H135.294C133.052 90.0759 130.879 91.007 129.321 92.6349L93.5271 130.886C91.9246 132.432 90.9998 134.598 90.9998 136.828V164.204C90.9998 166.756 92.2476 168.555 94.0908 170.899L96.4914 174.167V241.752C96.4914 243.956 97.3529 246.027 98.911 247.585L98.968 247.642L134.325 274.948H134.331ZM99.0377 241.752V177.581L95.8073 173.116C94.2111 171.089 93.5461 169.885 93.5461 168.061V136.828C93.5461 135.276 94.1921 133.768 95.3132 132.698L131.177 94.3768C132.247 93.2556 133.755 92.6096 135.307 92.6096H167.199C168.725 92.6096 169.568 93.2303 171.493 94.7568L175.389 98.1075H240.864C242.359 98.1075 244.367 98.6776 245.437 99.7164L268.905 131.501H152.054L131.804 152.327V269.761L100.659 245.736C99.6141 244.665 99.0377 243.253 99.0377 241.752Z" fill="#E7E6FF"/>
<path d="M118.49 195.595C119.459 196.482 120.016 197.743 120.016 199.06L119.972 263.997L98.1826 247.63C97.1755 246.882 96.5801 245.698 96.5801 244.444L96.6561 174.186" fill="#6A69A3"/>
<path d="M98.1506 247.351L98.2266 177.448H98.2329V175.953L96.3327 173.907L96.2567 243.81C96.2567 245.33 96.9724 246.775 98.1696 247.699C98.1633 247.579 98.1506 247.465 98.1506 247.345V247.351Z" fill="#8585C6"/>
<path d="M118.395 195.595L96.2699 173.863V176.511L116.419 196.311C117.388 197.198 117.945 198.458 117.945 199.776L117.901 262.521L119.871 264.003L119.915 199.066C119.915 197.749 119.364 196.495 118.389 195.601L118.395 195.595Z" fill="#545487"/>
<path d="M119.655 353.314C119.655 353.225 119.662 353.136 119.668 353.048L114.107 347.474C113.993 347.36 113.929 347.208 113.929 347.049V194.005C110.262 190.256 106.145 186.107 102.503 182.344L102.528 182.731V347.055C102.528 350.261 103.776 353.276 106.043 355.543L119.655 369.168V353.326V353.314Z" fill="#00C3FF"/>
<path d="M119.655 355.72L112.763 348.81C112.295 348.341 112.035 347.714 112.035 347.043V192.061C109.501 189.489 106.955 186.924 104.434 184.339V347.043C104.434 349.741 105.485 352.275 107.392 354.181L119.661 366.463V355.714L119.655 355.72Z" fill="#00E7FF"/>
<path d="M119.655 357.963L111.643 349.937C110.87 349.165 110.446 348.145 110.446 347.049V190.458C108.963 188.957 107.488 187.462 106.012 185.961V347.049C106.012 349.323 106.898 351.464 108.507 353.073L119.655 364.233V357.963Z" fill="#83F6FF"/>
<path d="M119.655 360.199L110.522 351.052C109.451 349.982 108.862 348.557 108.862 347.049V188.856C108.438 188.425 108.02 188.001 107.595 187.57V347.049C107.595 348.899 108.317 350.641 109.628 351.952L119.655 361.991V360.199Z" fill="#DCFBFF"/>
<path opacity="0.5" d="M119.921 205.191V199.06C119.921 197.742 119.37 196.488 118.401 195.595L96.2763 173.863V180.862L118.446 203.038C119.282 203.804 119.801 204.837 119.934 205.951L119.915 205.185L119.921 205.191Z" fill="#1B1B54"/>
<path d="M194.626 117.433C195.512 118.402 196.773 118.959 198.09 118.959L263.027 118.915L246.66 97.1258C245.913 96.1187 244.728 95.5233 243.474 95.5233L173.217 95.5993" fill="#6A69A3"/>
<path d="M246.375 97.0941L176.472 97.1701H176.478L174.977 97.1764L172.931 95.2762L242.834 95.2002C244.354 95.2002 245.798 95.9159 246.723 97.1131C246.603 97.1068 246.489 97.0941 246.368 97.0941H246.375Z" fill="#8585C6"/>
<path d="M194.625 117.344L172.893 95.2194H175.541L195.341 115.368C196.228 116.337 197.488 116.895 198.806 116.895L261.551 116.85L263.033 118.82L198.096 118.864C196.779 118.864 195.525 118.313 194.632 117.338L194.625 117.344Z" fill="#545487"/>
<path d="M354.358 120.454C354.269 120.454 354.18 120.46 354.092 120.467L346.497 113.049C346.383 112.935 346.231 112.872 346.073 112.872H193.029C189.279 109.205 185.13 105.088 181.368 101.445L181.754 101.471H346.079C349.284 101.471 352.299 102.719 354.567 104.986L370.212 120.454H354.37H354.358Z" fill="#00C3FF"/>
<path d="M356.771 120.454L347.846 111.707C347.378 111.238 346.751 110.978 346.079 110.978H191.097C188.526 108.445 185.96 105.899 183.376 103.378H346.079C348.777 103.378 351.311 104.429 353.218 106.336L367.52 120.454H356.771Z" fill="#00E7FF"/>
<path d="M359.007 120.454L348.961 110.586C348.189 109.813 347.169 109.388 346.073 109.388H189.482C187.981 107.906 186.486 106.43 184.985 104.955H346.073C348.347 104.955 350.488 105.841 352.097 107.45L365.278 120.454H359.007Z" fill="#83F6FF"/>
<path d="M361.249 120.454L350.082 109.464C349.012 108.394 347.586 107.805 346.079 107.805H187.885C187.455 107.381 187.03 106.962 186.6 106.538H346.079C347.928 106.538 349.67 107.26 350.981 108.571L363.042 120.454H361.249Z" fill="#DCFBFF"/>
<path opacity="0.5" d="M204.215 118.864H198.084C196.766 118.864 195.512 118.313 194.619 117.344L172.887 95.2194H179.886L202.061 117.389C202.828 118.225 203.86 118.744 204.975 118.877L204.209 118.858L204.215 118.864Z" fill="#1B1B54"/>
<path d="M139.126 138.753L134.889 114.817C134.876 114.76 134.863 114.709 134.851 114.652L134.433 112.283C134.287 111.441 133.685 110.763 132.875 110.509C132.057 110.256 131.183 110.478 130.582 111.08L109.28 132.875C108.685 133.477 108.476 134.351 108.729 135.162C108.982 135.966 109.66 136.562 110.496 136.714L136.447 141.306C136.58 141.331 136.713 141.344 136.846 141.344C136.846 141.344 136.852 141.344 136.859 141.344C136.89 141.344 136.922 141.35 136.96 141.35C137.536 141.35 138.1 141.122 138.518 140.704C139.031 140.197 139.259 139.469 139.133 138.759L139.126 138.753Z" fill="#BEB6EF"/>
<path d="M137.815 137.398L133.166 111.016C133.02 110.174 132.418 109.496 131.607 109.243C130.79 108.989 129.916 109.211 129.315 109.813L108.013 131.608C107.418 132.21 107.209 133.084 107.462 133.895C107.715 134.706 108.393 135.295 109.229 135.447L135.18 140.039C135.313 140.064 135.446 140.077 135.579 140.077C136.174 140.077 136.757 139.843 137.182 139.412C137.707 138.886 137.942 138.139 137.815 137.41V137.398Z" fill="#6161AD"/>
<path d="M137.86 137.486L133.622 113.55C133.477 112.733 132.894 112.074 132.108 111.827C131.317 111.58 130.468 111.795 129.885 112.384L110.402 132.083C109.825 132.666 109.616 133.515 109.869 134.3C110.123 135.086 110.775 135.662 111.586 135.808L135.307 140.045C135.434 140.071 135.567 140.077 135.693 140.077C136.27 140.077 136.834 139.849 137.252 139.431C137.765 138.924 137.993 138.196 137.866 137.486H137.86Z" fill="#05006B"/>
<path d="M111.072 132.749L130.556 113.05C131.272 112.328 132.507 112.708 132.684 113.715L136.922 137.651C137.074 138.513 136.326 139.26 135.465 139.108L111.744 134.87C110.749 134.693 110.357 133.471 111.072 132.749Z" fill="#110393"/>
<path d="M114.626 133.344L134.015 136.809C134.262 136.853 134.477 136.638 134.433 136.391L130.968 116.831C130.917 116.546 130.563 116.432 130.36 116.641L114.436 132.742C114.233 132.945 114.341 133.3 114.626 133.35V133.344Z" fill="#00E7FF" stroke="#A9FBFF" stroke-miterlimit="10"/>
<path opacity="0.4" d="M119.637 369.181L115.399 364.861L115.361 348.728L119.637 353.079V369.181Z" fill="#111170"/>
<path opacity="0.4" d="M117.623 351.071V367.077L119.637 369.18V353.079L117.623 351.071Z" fill="#111170"/>
<path opacity="0.4" d="M370.218 120.46L365.898 116.223L349.766 116.191L354.117 120.46H370.218Z" fill="#111170"/>
<path opacity="0.4" d="M352.109 118.453H368.115L370.218 120.46H354.117L352.109 118.453Z" fill="#111170"/>
<path d="M165.343 743.181C168.39 742.281 170.708 739.925 173.014 737.854C198.686 737.391 217.548 738.056 243.239 737.518C245.957 736.929 247.078 735.377 248.649 733.35C256.725 722.886 264.193 711.922 272.167 701.388C272.427 700.521 272.167 699.71 271.331 699.323L153.517 699.222C147.411 692.635 140.83 686.351 134.794 679.72L134.167 560.531C134.281 560.088 133.16 559.569 132.849 559.55C132.438 559.524 130.689 560.962 130.221 561.317C119.63 569.228 110.047 577.646 99.4497 585.551C98.0055 586.919 97.1568 588.813 96.9287 590.783L96.6374 658.728C95.1806 661.173 93.3944 662.649 92.2922 665.968L91.4688 697.886C92.3809 701.566 95.4845 703.897 97.9295 706.551C108.349 717.819 118.908 728.954 129.315 740.229C130.645 741.654 132.666 742.965 134.642 743.187H165.349L165.343 743.181Z" fill="#DDD6F2"/>
<path d="M98.9749 585.545L98.9179 585.602C97.3597 587.16 96.5046 589.231 96.5046 591.435V659.02L94.0977 662.288C92.2544 664.632 91.0066 666.431 91.0066 668.983V696.359C91.0066 698.589 91.9251 700.749 93.5339 702.301L129.328 740.552C130.886 742.18 133.058 743.111 135.301 743.111H163.639C166.11 743.111 167.611 741.92 169.511 740.413L170.1 739.944L172.779 737.613H240.864C243.069 737.613 245.14 736.758 246.698 735.2L247.42 735.054L274.397 699.336C274.296 699.336 271.958 699.311 271.933 699.336L153.746 699.152L134.338 677.946V558.238L98.9812 585.545H98.9749ZM100.653 587.445L131.798 563.42V680.853L152.048 701.68H268.899L245.431 733.464C244.361 734.503 242.353 735.073 240.858 735.073H175.383L171.487 738.424C169.562 739.95 168.719 740.571 167.193 740.571H135.301C133.749 740.571 132.241 739.925 131.171 738.804L95.3074 700.483C94.1863 699.412 93.5403 697.905 93.5403 696.353V665.12C93.5403 663.289 94.2116 662.092 95.8015 660.065L99.0318 655.599V591.429C99.0318 589.928 99.6083 588.515 100.653 587.445Z" fill="#E7E6FF"/>
<path d="M118.49 637.585C119.459 636.698 120.016 635.438 120.016 634.12L119.972 569.184L98.1826 585.551C97.1755 586.298 96.5801 587.483 96.5801 588.737L96.6561 658.994" fill="#6A69A3"/>
<path d="M98.1506 585.829L98.2266 655.732H98.2329V657.227L96.3327 659.273L96.2567 589.37C96.2567 587.85 96.9724 586.406 98.1696 585.481C98.1633 585.601 98.1506 585.715 98.1506 585.836V585.829Z" fill="#8585C6"/>
<path d="M118.395 637.585L96.2699 659.317V656.67L116.419 636.869C117.388 635.983 117.945 634.722 117.945 633.405L117.901 570.659L119.871 569.177L119.915 634.114C119.915 635.432 119.364 636.686 118.389 637.579L118.395 637.585Z" fill="#545487"/>
<path d="M119.655 479.867C119.655 479.956 119.662 480.044 119.668 480.133L114.107 485.707C113.993 485.821 113.929 485.973 113.929 486.131V639.175C110.262 642.925 106.145 647.074 102.503 650.836L102.528 650.45V486.125C102.528 482.92 103.776 479.905 106.043 477.637L119.655 464.013V479.854V479.867Z" fill="#00C3FF"/>
<path d="M119.655 477.46L112.763 484.37C112.295 484.839 112.035 485.466 112.035 486.138V641.12C109.501 643.691 106.955 646.257 104.434 648.841V486.138C104.434 483.439 105.485 480.906 107.392 478.999L119.661 466.717V477.466L119.655 477.46Z" fill="#00E7FF"/>
<path d="M119.655 475.224L111.643 483.249C110.87 484.022 110.446 485.042 110.446 486.138V642.729C108.963 644.23 107.488 645.725 106.012 647.226V486.138C106.012 483.864 106.898 481.723 108.507 480.114L119.655 468.953V475.224Z" fill="#83F6FF"/>
<path d="M119.655 472.982L110.522 482.128C109.451 483.199 108.862 484.624 108.862 486.131V644.325C108.438 644.755 108.02 645.18 107.595 645.611V486.131C107.595 484.282 108.317 482.54 109.628 481.229L119.655 471.189V472.982Z" fill="#DCFBFF"/>
<path opacity="0.5" d="M119.921 627.989V634.121C119.921 635.438 119.37 636.692 118.401 637.585L96.2763 659.318V652.318L118.446 630.143C119.282 629.376 119.801 628.344 119.934 627.229L119.915 627.996L119.921 627.989Z" fill="#1B1B54"/>
<path d="M194.626 715.748C195.512 714.778 196.773 714.221 198.09 714.221L263.027 714.265L246.66 736.055C245.913 737.062 244.728 737.657 243.474 737.657L173.217 737.581" fill="#6A69A3"/>
<path d="M246.375 736.086L176.472 736.01H176.478L174.977 736.004L172.931 737.904L242.834 737.98C244.354 737.98 245.798 737.264 246.723 736.067C246.603 736.074 246.489 736.086 246.368 736.086H246.375Z" fill="#8585C6"/>
<path d="M194.625 715.843L172.893 737.968H175.541L195.341 717.819C196.228 716.85 197.488 716.292 198.806 716.292L261.551 716.337L263.033 714.367L198.096 714.323C196.779 714.323 195.525 714.874 194.632 715.849L194.625 715.843Z" fill="#545487"/>
<path d="M354.358 712.726C354.269 712.726 354.18 712.72 354.092 712.714L346.497 720.131C346.383 720.245 346.231 720.308 346.073 720.308H193.029C189.279 723.976 185.13 728.093 181.368 731.735L181.754 731.709H346.079C349.284 731.709 352.299 730.462 354.567 728.194L370.212 712.726H354.37H354.358Z" fill="#00C3FF"/>
<path d="M356.771 712.726L347.846 721.474C347.378 721.942 346.751 722.202 346.079 722.202H191.097C188.526 724.736 185.96 727.282 183.376 729.803H346.079C348.777 729.803 351.311 728.752 353.218 726.845L367.52 712.726H356.771Z" fill="#00E7FF"/>
<path d="M359.007 712.726L348.961 722.595C348.189 723.368 347.169 723.792 346.073 723.792H189.482C187.981 725.274 186.486 726.75 184.985 728.226H346.073C348.347 728.226 350.488 727.339 352.097 725.73L365.278 712.726H359.007Z" fill="#83F6FF"/>
<path d="M361.249 712.726L350.082 723.716C349.012 724.786 347.586 725.375 346.079 725.375H187.885C187.455 725.8 187.03 726.218 186.6 726.642H346.079C347.928 726.642 349.67 725.92 350.981 724.609L363.042 712.726H361.249Z" fill="#DCFBFF"/>
<path opacity="0.5" d="M204.215 714.316H198.084C196.766 714.316 195.512 714.867 194.619 715.836L172.887 737.961H179.886L202.061 715.792C202.828 714.956 203.86 714.436 204.975 714.303L204.209 714.322L204.215 714.316Z" fill="#1B1B54"/>
<path d="M139.126 694.434L134.889 718.37C134.876 718.427 134.863 718.478 134.851 718.535L134.433 720.904C134.287 721.746 133.685 722.424 132.875 722.677C132.057 722.931 131.183 722.709 130.582 722.107L109.28 700.312C108.685 699.71 108.476 698.836 108.729 698.025C108.982 697.221 109.66 696.625 110.496 696.473L136.447 691.881C136.58 691.856 136.713 691.843 136.846 691.843C136.846 691.843 136.852 691.843 136.859 691.843C136.89 691.843 136.922 691.837 136.96 691.837C137.536 691.837 138.1 692.065 138.518 692.483C139.031 692.989 139.259 693.718 139.133 694.427L139.126 694.434Z" fill="#BEB6EF"/>
<path d="M137.815 695.783L133.166 722.164C133.02 723.007 132.418 723.684 131.607 723.938C130.79 724.191 129.916 723.969 129.315 723.368L108.013 701.572C107.418 700.97 107.209 700.096 107.462 699.285C107.715 698.475 108.393 697.886 109.229 697.734L135.18 693.141C135.313 693.116 135.446 693.103 135.579 693.103C136.174 693.103 136.757 693.338 137.182 693.769C137.707 694.294 137.942 695.042 137.815 695.77V695.783Z" fill="#6161AD"/>
<path d="M137.86 695.7L133.622 719.637C133.477 720.454 132.894 721.113 132.108 721.36C131.317 721.607 130.468 721.391 129.885 720.802L110.402 701.103C109.825 700.52 109.616 699.672 109.869 698.886C110.123 698.101 110.775 697.524 111.586 697.379L135.307 693.141C135.434 693.116 135.567 693.11 135.693 693.11C136.27 693.11 136.834 693.338 137.252 693.756C137.765 694.262 137.993 694.991 137.866 695.7H137.86Z" fill="#05006B"/>
<path d="M111.072 700.432L130.556 720.131C131.272 720.853 132.507 720.473 132.684 719.466L136.922 695.529C137.074 694.668 136.326 693.92 135.465 694.072L111.744 698.31C110.749 698.487 110.357 699.71 111.072 700.432Z" fill="#110393"/>
<path d="M114.626 699.836L134.015 696.372C134.262 696.327 134.477 696.543 134.433 696.79L130.968 716.349C130.917 716.634 130.563 716.748 130.36 716.539L114.436 700.438C114.233 700.235 114.341 699.881 114.626 699.83V699.836Z" fill="#00E7FF" stroke="#A9FBFF" stroke-miterlimit="10"/>
<path opacity="0.4" d="M119.637 464L115.399 468.32L115.361 484.453L119.637 480.101V464Z" fill="#111170"/>
<path opacity="0.4" d="M117.623 482.115V466.103L119.637 464V480.101L117.623 482.115Z" fill="#111170"/>
<path opacity="0.4" d="M370.218 712.72L365.898 716.957L349.766 716.989L354.117 712.72H370.218Z" fill="#111170"/>
<path opacity="0.4" d="M352.109 714.734H368.115L370.218 712.72H354.117L352.109 714.734Z" fill="#111170"/>
<defs>
<filter id="filter0_f_123_2135" x="0" y="0" width="1099" height="832" filterUnits="userSpaceOnUse" color-interpolation-filters="sRGB">
<feFlood flood-opacity="0" result="BackgroundImageFix"/>
<feBlend mode="normal" in="SourceGraphic" in2="BackgroundImageFix" result="shape"/>
<feGaussianBlur stdDeviation="35" result="effect1_foregroundBlur_123_2135"/>
</filter>
</defs>
</svg>
