<svg width="53" height="45" viewBox="0 0 53 45" fill="none" xmlns="http://www.w3.org/2000/svg">
<path d="M3.46169 44.0311C1.77424 44.0311 0.396973 43.0054 0.396973 41.7481V6.61335C0.396973 5.35189 1.7701 4.33032 3.46169 4.33032H41.7356C43.3486 4.33032 44.7672 5.38912 45.1808 6.90701L51.9141 36.7229C52.0257 37.1241 51.9554 40.4163 51.8769 40.9994C51.6535 42.7283 50.1315 44.0352 48.3365 44.0352H3.46169V44.0311Z" fill="#6C6CD8"/>
<path d="M41.7356 4.72743C43.1625 4.72743 44.4199 5.65802 44.7921 6.99806L51.5295 36.8305C51.6205 37.2772 51.5502 40.4288 51.4799 40.9499C51.2814 42.4843 49.9289 43.6382 48.3366 43.6382H3.46177C2.01833 43.6382 0.798234 42.7738 0.798234 41.7523V6.61755C0.798234 5.59598 2.01833 4.73157 3.46177 4.73157H41.7356M41.7356 3.9292H3.46177C1.55097 3.9292 0 5.12862 0 6.61342V41.7481C0 43.2288 1.55097 44.4323 3.46177 44.4323H48.3407C50.4087 44.4323 52.0341 42.9103 52.274 41.0491C52.336 40.5694 52.4436 37.1366 52.3029 36.632L45.5655 6.79954C45.1023 5.10794 43.5306 3.9292 41.7356 3.9292Z" fill="#9292EA"/>
<path d="M3.4619 39.9033C1.88198 39.9033 0.595703 38.9686 0.595703 37.8188V2.68412C0.595703 1.53433 1.88198 0.599609 3.4619 0.599609H41.7358C43.2578 0.599609 44.5978 1.6005 44.9907 3.03153L51.5834 35.755C51.8564 36.7642 51.6579 37.7816 51.0416 38.584C50.4005 39.4236 49.4162 39.9075 48.3367 39.9075H3.4619V39.9033Z" fill="#9F9FF4"/>
<path d="M41.7356 1.19115C42.9764 1.19115 44.0683 1.99352 44.4033 3.14744L50.996 35.8668L51.0043 35.9081L51.0167 35.9453C51.2317 36.7312 51.0704 37.5625 50.57 38.216C50.0406 38.9067 49.2299 39.3037 48.3407 39.3037H3.46177C2.25408 39.3037 1.19528 38.6089 1.19528 37.8148V2.68008C1.19528 1.88598 2.25408 1.19115 3.46177 1.19115H41.7356ZM41.7356 0H3.46177C1.55097 0 0 1.19942 0 2.68422V37.8189C0 39.2996 1.55097 40.5031 3.46177 40.5031H48.3407C50.9464 40.5031 52.8406 38.0919 52.1706 35.6351L45.5655 2.87447C45.1023 1.18288 43.5306 0.00413681 41.7356 0.00413681V0Z" fill="#D9D9FF"/>
</svg>
