<svg width="53" height="45" viewBox="0 0 53 45" fill="none" xmlns="http://www.w3.org/2000/svg">
<path d="M3.4617 44.035C1.77424 44.035 0.396973 43.0093 0.396973 41.752V6.61726C0.396973 5.3558 1.7701 4.33423 3.4617 4.33423H41.7356C43.3486 4.33423 44.7672 5.39302 45.1808 6.91091L51.9141 36.7268C52.034 37.1611 51.943 40.5112 51.8769 41.0034C51.6535 42.7322 50.1315 44.0391 48.3365 44.0391H3.4617V44.035Z" fill="#C14711"/>
<path d="M41.7398 4.7272C43.1667 4.7272 44.424 5.65779 44.7962 6.99783L51.5336 36.8303C51.6246 37.277 51.5543 40.4285 51.4882 40.9496C51.2896 42.4841 49.9372 43.638 48.3448 43.638H3.46177C2.01833 43.638 0.798234 42.7736 0.798234 41.752V6.61732C0.798234 5.59575 2.01833 4.73134 3.46177 4.73134H41.7356M41.7398 3.93311H3.46177C1.55097 3.93311 0 5.13253 0 6.61732V41.752C0 43.2327 1.55097 44.4362 3.46177 44.4362H48.3407C50.4087 44.4362 52.0341 42.9142 52.274 41.053C52.336 40.5733 52.4436 37.1405 52.3029 36.6359L45.5655 6.80344C45.1023 5.11185 43.5306 3.93311 41.7356 3.93311H41.7398Z" fill="#E06724"/>
<path d="M3.4619 39.9033C1.88198 39.9033 0.595703 38.9686 0.595703 37.8188V2.68411C0.595703 1.53433 1.88198 0.599609 3.4619 0.599609H41.7358C43.2578 0.599609 44.5978 1.60051 44.9907 3.03154L51.5834 35.755C51.8564 36.7642 51.6579 37.7816 51.0416 38.584C50.4005 39.4236 49.4162 39.9075 48.3367 39.9075H3.4619V39.9033Z" fill="url(#paint0_linear_59_21430)"/>
<path d="M41.7398 1.19528C42.9806 1.19528 44.0724 1.99765 44.4074 3.15157L51.0001 35.8709L51.0084 35.9123L51.0208 35.9495C51.2359 36.7353 51.0746 37.5666 50.5741 38.2201C50.0447 38.9108 49.2341 39.3078 48.3449 39.3078H3.46177C2.25408 39.3078 1.19528 38.613 1.19528 37.8189V2.68421C1.19528 1.89011 2.25408 1.19528 3.46177 1.19528H41.7356M41.7398 0H3.46177C1.55097 0 0 1.19941 0 2.68421V37.8189C0 39.2996 1.55097 40.5031 3.46177 40.5031H48.3407C50.9464 40.5031 52.8406 38.0919 52.1706 35.6351L45.5655 2.87447C45.1023 1.18287 43.5306 0.00413366 41.7356 0.00413366L41.7398 0Z" fill="#FFA37B"/>
<defs>
<linearGradient id="paint0_linear_59_21430" x1="26.1516" y1="7.61828" x2="26.1516" y2="46.5332" gradientUnits="userSpaceOnUse">
<stop offset="0.05" stop-color="#FF8440"/>
<stop offset="1" stop-color="#E06724"/>
</linearGradient>
</defs>
</svg>
