<svg width="53" height="45" viewBox="0 0 53 45" fill="none" xmlns="http://www.w3.org/2000/svg">
<path d="M3.46169 44.035C1.77424 44.035 0.396973 43.0093 0.396973 41.7519V6.61311C0.396973 5.35165 1.7701 4.33008 3.46169 4.33008H41.7356C43.3486 4.33008 44.7631 5.38888 45.1808 6.90676L51.9141 36.7227C52.0257 37.128 51.9554 40.416 51.8769 40.9992C51.6535 42.728 50.1315 44.035 48.3365 44.035H3.46169Z" fill="#8E8E1B"/>
<path d="M41.7356 4.72719C43.1625 4.72719 44.4199 5.65777 44.7921 6.99781L51.5295 36.8303C51.6205 37.2769 51.5502 40.4285 51.4799 40.9496C51.2814 42.4841 49.9289 43.638 48.3366 43.638H3.46177C2.01833 43.638 0.798234 42.7736 0.798234 41.752V6.61317C0.798234 5.5916 2.01833 4.72719 3.46177 4.72719H41.7356ZM41.7356 3.92896H3.46177C1.55097 3.92896 0 5.13251 0 6.61317V41.7479C0 43.2285 1.55097 44.4321 3.46177 44.4321H48.3407C50.4087 44.4321 52.0341 42.9101 52.274 41.0489C52.336 40.5691 52.4436 37.1363 52.3029 36.6317L45.5655 6.79929C45.1023 5.10769 43.5306 3.92896 41.7356 3.92896Z" fill="#B2AF3F"/>
<path d="M3.4619 39.9033C1.88198 39.9033 0.595703 38.9686 0.595703 37.8188V2.6841C0.595703 1.53431 1.88198 0.595459 3.4619 0.595459H41.7358C43.2578 0.595459 44.5978 1.59635 44.9907 3.02738L51.5834 35.7508C51.8564 36.76 51.6579 37.7774 51.0416 38.5798C50.4005 39.4194 49.4162 39.9033 48.3367 39.9033H3.4619Z" fill="url(#paint0_linear_59_21397)"/>
<path d="M41.7356 1.19528C42.9764 1.19528 44.0683 1.99765 44.4033 3.15158L50.996 35.8709L51.0043 35.9123L51.0167 35.9495C51.2317 36.7353 51.0704 37.5666 50.57 38.2201C50.0406 38.9108 49.2299 39.3078 48.3407 39.3078H3.46177C2.25408 39.3078 1.19528 38.613 1.19528 37.8189V2.68422C1.19528 1.89012 2.25408 1.19528 3.46177 1.19528H41.7356ZM41.7356 0H3.46177C1.55097 0 0 1.19942 0 2.68422V37.8189C0 39.2996 1.55097 40.5031 3.46177 40.5031H48.3407C50.9464 40.5031 52.8406 38.0919 52.1706 35.6351L45.5655 2.87033C45.1023 1.17874 43.5306 0 41.7356 0Z" fill="#FDFFD7"/>
<defs>
<linearGradient id="paint0_linear_59_21397" x1="26.0192" y1="5.39313" x2="26.1475" y2="36.5615" gradientUnits="userSpaceOnUse">
<stop stop-color="#F1FF66"/>
<stop offset="0.24" stop-color="#EFFF61"/>
<stop offset="0.53" stop-color="#EAFF53"/>
<stop offset="0.83" stop-color="#E2FF3B"/>
<stop offset="1" stop-color="#DCFF2B"/>
</linearGradient>
</defs>
</svg>
