<svg width="342" height="55" viewBox="0 0 342 55" fill="none" xmlns="http://www.w3.org/2000/svg">
<path d="M18.7504 51.9779C18.6026 51.9779 18.4548 51.9779 18.3069 51.9652C14.8772 51.7751 11.8995 49.2071 11.0758 45.7225L6.76758 25.8538L335.471 5.68945C336.949 5.70212 338.149 6.91013 338.149 8.39267L338.993 49.2958C338.993 50.7699 337.781 51.9821 336.29 51.9821H18.7504V51.9779Z" fill="#CD00D8"/>
<path d="M335.488 6.57218C336.468 6.59752 337.262 7.40427 337.262 8.38841V8.42642L338.106 49.2915C338.098 50.2883 337.287 51.0951 336.29 51.0951H18.7505C18.6196 51.0951 18.4886 51.0951 18.3577 51.0824C15.3208 50.9134 12.6809 48.6326 11.9418 45.5366L7.84893 26.6732L335.488 6.57218ZM335.445 4.80664L5.68213 25.0343L10.2142 45.9294C11.1181 49.735 14.3536 52.6325 18.2563 52.8521C18.4211 52.8606 18.5858 52.8648 18.7463 52.8648H336.286C338.267 52.8648 339.872 51.2598 339.872 49.2788L339.027 8.39263C339.027 6.41168 337.422 4.80664 335.441 4.80664H335.445Z" fill="#CD00D8"/>
<path d="M17.9776 48.6282C16.8118 48.6282 15.6334 48.3368 14.5775 47.7919C12.6725 46.8035 11.2787 44.9535 10.7507 42.7149L2.39186 8.2953C2.05395 6.86344 2.38341 5.37667 3.29997 4.21936C4.21653 3.06204 5.58926 2.39891 7.06336 2.39891L335.445 2.25952C336.958 2.25952 338.187 3.48864 338.187 5.00076L339.031 45.9039C339.031 47.3991 337.802 48.6282 336.29 48.6282H17.9776Z" fill="#E72EED"/>
<path d="M335.445 3.10455C336.493 3.10455 337.342 3.95776 337.342 5.00103V5.03482L338.187 45.8999C338.178 46.9389 337.329 47.7837 336.29 47.7837H17.9776C16.947 47.7837 15.9037 47.5261 14.9661 47.0403C13.2808 46.166 12.0432 44.5187 11.5701 42.5082L3.21551 8.10551C2.93674 6.92285 3.20706 5.69795 3.96312 4.74338C4.71917 3.7888 5.84692 3.24394 7.06337 3.24394L335.445 3.10455ZM335.445 1.41504L7.06337 1.55442C3.42247 1.55442 0.736149 4.95034 1.57246 8.4941L9.9271 42.9095C10.4931 45.3043 12.0052 47.412 14.1889 48.544C15.3842 49.1607 16.6767 49.4774 17.9776 49.4774H336.29C338.271 49.4774 339.876 47.8724 339.876 45.8915L339.031 5.00525C339.031 3.0243 337.426 1.41926 335.445 1.41926V1.41504Z" fill="#F75CFF"/>
<path d="M58.5853 41.6127L50.7122 9.17409C50.5137 8.10547 49.5802 7.33252 48.4947 7.33252H8.93899C8.08578 7.33252 7.45222 8.12659 7.64229 8.95868L16.1321 42.5251C16.3644 43.5557 17.2767 44.2822 18.3327 44.2822H56.3721C57.7828 44.2822 58.8514 42.9981 58.5895 41.6085L58.5853 41.6127Z" fill="#250A7A"/>
<mask id="mask0_59_21791" style="mask-type:luminance" maskUnits="userSpaceOnUse" x="7" y="7" width="52" height="38">
<path d="M58.5853 41.6127L50.7122 9.17409C50.5137 8.10547 49.5802 7.33252 48.4947 7.33252H8.93899C8.08578 7.33252 7.45222 8.12659 7.64229 8.95868L16.1321 42.5251C16.3644 43.5557 17.2767 44.2822 18.3327 44.2822H56.3721C57.7828 44.2822 58.8514 42.9981 58.5895 41.6085L58.5853 41.6127Z" fill="white"/>
</mask>
<g mask="url(#mask0_59_21791)">
<path d="M24.6822 22.3335C23.9418 22.3335 23.3472 22.945 23.3472 23.691C23.3472 24.4315 23.9474 25.0317 24.6878 25.0261C25.4283 25.0261 26.0229 24.4146 26.0229 23.6686C26.0229 22.9225 25.4227 22.3279 24.6822 22.3335Z" fill="#3B1FB2"/>
<path d="M22.6239 28.8515C23.3643 28.8515 23.9589 28.2401 23.9589 27.494C23.9589 26.7536 23.3587 26.1534 22.6182 26.159C21.8778 26.159 21.2832 26.7704 21.2832 27.5165C21.2832 28.2625 21.8834 28.8571 22.6239 28.8515Z" fill="#3B1FB2"/>
<path d="M18.3047 44.9898C18.3047 45.7303 18.9049 46.3305 19.6453 46.3249C20.3858 46.3249 20.9804 45.7135 20.9804 44.9674C20.9804 44.2214 20.3802 43.6268 19.6397 43.6324C18.8993 43.6324 18.3047 44.2438 18.3047 44.9898Z" fill="#3B1FB2"/>
<path d="M29.4334 32.2958C30.1739 32.2958 30.7685 31.6844 30.7685 30.9383C30.7685 30.7195 30.718 30.5176 30.6226 30.3325C30.4656 29.9903 30.1683 29.7155 29.7419 29.6201V29.6425C29.6466 29.6201 29.54 29.6033 29.4278 29.6033C28.6874 29.6033 28.0928 30.2147 28.0928 30.9607C28.0928 31.7012 28.693 32.3014 29.4334 32.2958Z" fill="#3B1FB2"/>
<path d="M13.1497 28.9189C13.8902 28.9189 14.4848 28.3074 14.4848 27.5614C14.4848 26.821 13.8846 26.2207 13.1441 26.2264C12.4037 26.2264 11.8091 26.8378 11.8091 27.5838C11.8091 28.3299 12.4093 28.9245 13.1497 28.9189Z" fill="#3B1FB2"/>
<path d="M19.9705 39.2853C20.711 39.2853 21.3056 38.6739 21.3056 37.9279C21.3056 37.1818 20.7054 36.5872 19.9649 36.5928C19.2245 36.5984 18.6299 37.2042 18.6299 37.9503C18.6299 38.6907 19.2301 39.2909 19.9705 39.2853Z" fill="#3B1FB2"/>
<path d="M14.9051 46.3583C15.6455 46.3583 16.2401 45.7469 16.2401 45.0009C16.2401 44.2604 15.6399 43.6602 14.8995 43.6658C14.1591 43.6658 13.5645 44.2772 13.5645 45.0233C13.5645 45.7637 14.1647 46.3639 14.9051 46.3583Z" fill="#3B1FB2"/>
<path d="M22.607 18.8553C21.8666 18.8553 21.272 19.4667 21.272 20.2127C21.272 20.9532 21.8722 21.5534 22.6126 21.5478C23.3531 21.5478 23.9477 20.9364 23.9477 20.1903C23.9477 19.4499 23.3475 18.8497 22.607 18.8553Z" fill="#3B1FB2"/>
<path d="M22.304 42.808C23.0445 42.808 23.6391 42.1966 23.6391 41.4506C23.6391 40.7101 23.0389 40.1099 22.2984 40.1155C21.558 40.1155 20.9634 40.7269 20.9634 41.473C20.9634 42.2134 21.5636 42.8136 22.304 42.808Z" fill="#3B1FB2"/>
<path d="M9.71622 6.58776C9.71622 5.84732 9.11601 5.24712 8.37557 5.25272C7.63513 5.25272 7.04053 5.86415 7.04053 6.6102C7.04053 7.35064 7.64073 7.95085 8.38118 7.94524C9.12162 7.94524 9.71622 7.33382 9.71622 6.58776Z" fill="#3B1FB2"/>
<path d="M10.4517 8.73637C9.7113 8.73637 9.1167 9.34779 9.1167 10.0938C9.1167 10.8399 9.71691 11.4345 10.4573 11.4289C11.1978 11.4289 11.7924 10.8175 11.7924 10.0714C11.7924 9.32536 11.1922 8.73076 10.4517 8.73637Z" fill="#3B1FB2"/>
<path d="M13.138 21.6157C13.8785 21.6157 14.4731 21.0042 14.4731 20.2582C14.4731 19.5121 13.8728 18.9175 13.1324 18.9231C12.392 18.9287 11.7974 19.5346 11.7974 20.2806C11.7974 21.0211 12.3976 21.6213 13.138 21.6157Z" fill="#3B1FB2"/>
<path d="M24.6602 8.62968C23.9198 8.62968 23.3252 9.2411 23.3252 9.98716C23.3252 10.7332 23.9254 11.3278 24.6602 11.3222C25.4007 11.3222 25.9953 10.7108 25.9953 9.96472C25.9953 9.22428 25.3951 8.62407 24.6602 8.62968Z" fill="#3B1FB2"/>
<path d="M18.624 31.0338C18.624 31.7742 19.2242 32.3744 19.9647 32.3688C20.7051 32.3688 21.2997 31.7574 21.2997 31.0113C21.2997 30.2653 20.6995 29.6707 19.9591 29.6763C19.2186 29.6763 18.624 30.2877 18.624 31.0338Z" fill="#3B1FB2"/>
<path d="M27.3695 35.7287C28.1099 35.7287 28.7045 35.1173 28.7045 34.3712C28.7045 33.6308 28.1043 33.0306 27.3638 33.0362C26.6234 33.0418 26.0288 33.6476 26.0288 34.3936C26.0288 35.1341 26.629 35.7343 27.3695 35.7287Z" fill="#3B1FB2"/>
<path d="M24.7047 39.246C25.4451 39.246 26.0397 38.6346 26.0397 37.8885C26.0397 37.1481 25.4395 36.5479 24.7047 36.5535C23.9642 36.5535 23.3696 37.1649 23.3696 37.911C23.3696 38.6514 23.9698 39.2516 24.7047 39.246Z" fill="#3B1FB2"/>
<path d="M27.3582 28.8122C28.0987 28.8122 28.6933 28.2008 28.6933 27.4547C28.6933 26.7087 28.0931 26.1141 27.3526 26.1197C26.6122 26.1253 26.0176 26.7311 26.0176 27.4771C26.0176 28.2176 26.6178 28.8178 27.3582 28.8122Z" fill="#3B1FB2"/>
<path d="M13.1158 5.21903C12.3754 5.21903 11.7808 5.83046 11.7808 6.57651C11.7808 7.31695 12.381 7.91716 13.1158 7.91155C13.8562 7.91155 14.4508 7.30012 14.4508 6.55407C14.4508 5.81363 13.8506 5.21342 13.1158 5.21903Z" fill="#3B1FB2"/>
<path d="M13.8955 37.9835C13.8955 38.7239 14.4957 39.3241 15.2305 39.3185C15.971 39.3185 16.5656 38.7071 16.5656 37.9611C16.5656 37.215 15.9654 36.6204 15.2305 36.626C14.4901 36.626 13.8955 37.2374 13.8955 37.9835Z" fill="#3B1FB2"/>
<path d="M26.0117 20.1739C26.0117 20.9143 26.6119 21.5145 27.3468 21.5089C28.0872 21.5089 28.6818 20.8975 28.6818 20.1514C28.6818 19.9383 28.6313 19.7363 28.5416 19.5568C28.4182 19.282 28.1994 19.0464 27.9021 18.9118V18.9398C27.7338 18.8613 27.5487 18.8164 27.3468 18.8164C26.6063 18.8164 26.0117 19.4278 26.0117 20.1739Z" fill="#3B1FB2"/>
<path d="M31.7782 42.7349C32.5186 42.7349 33.1132 42.1234 33.1132 41.3774C33.1132 41.153 33.0571 40.9399 32.9561 40.7491C32.9505 40.7323 32.9393 40.7211 32.9337 40.7043C32.6757 40.2275 32.1428 39.9189 31.5313 40.0311V40.0592C30.9143 40.177 30.4375 40.7267 30.4375 41.3886C30.4375 42.1291 31.0377 42.7293 31.7725 42.7236L31.7782 42.7349Z" fill="#3B1FB2"/>
<path d="M17.8782 21.582C18.6187 21.582 19.2133 20.9705 19.2133 20.2245C19.2133 19.484 18.6131 18.8838 17.8726 18.8894C17.1322 18.8894 16.5376 19.5009 16.5376 20.2469C16.5376 20.9874 17.1378 21.5876 17.8782 21.582Z" fill="#3B1FB2"/>
<path d="M15.2249 32.4025C15.9654 32.4025 16.56 31.7911 16.56 31.045C16.56 30.3046 15.9598 29.7044 15.2193 29.71C14.4789 29.71 13.8843 30.3214 13.8843 31.0675C13.8843 31.8079 14.4845 32.4081 15.2249 32.4025Z" fill="#3B1FB2"/>
<path d="M22.5899 5.14652C21.8495 5.14652 21.2549 5.75795 21.2549 6.504C21.2549 7.24444 21.8551 7.84465 22.5899 7.83904C23.3304 7.83904 23.925 7.22762 23.925 6.48156C23.925 5.73551 23.3248 5.14091 22.5899 5.14652Z" fill="#3B1FB2"/>
<path d="M27.044 42.7685C27.7845 42.7685 28.3791 42.1571 28.3791 41.411C28.3791 40.665 27.7789 40.0704 27.044 40.076C26.3036 40.076 25.709 40.6874 25.709 41.4334C25.709 42.1739 26.3092 42.7741 27.044 42.7685Z" fill="#3B1FB2"/>
<path d="M24.6715 15.417C23.931 15.417 23.3364 16.0285 23.3364 16.7745C23.3364 17.5206 23.9366 18.1152 24.6715 18.1095C25.4119 18.1095 26.0065 17.4981 26.0065 16.7521C26.0065 16.0116 25.4063 15.4114 24.6715 15.417Z" fill="#3B1FB2"/>
<path d="M15.1856 8.69682C14.4452 8.69682 13.8506 9.30824 13.8506 10.0543C13.8506 10.7947 14.4508 11.3949 15.1856 11.3893C15.9261 11.3893 16.5207 10.7779 16.5207 10.0319C16.5207 9.29141 15.9205 8.69121 15.1856 8.69682Z" fill="#3B1FB2"/>
<path d="M17.8614 11.9727C17.121 11.9727 16.5264 12.5841 16.5264 13.3302C16.5264 14.0762 17.1266 14.6708 17.8614 14.6652C18.6018 14.6652 19.1964 14.0538 19.1964 13.3077C19.1964 12.5673 18.5962 11.9671 17.8614 11.9727Z" fill="#3B1FB2"/>
<path d="M22.5958 11.9395C21.8553 11.9395 21.2607 12.5509 21.2607 13.297C21.2607 14.0374 21.8609 14.6376 22.5958 14.632C23.3362 14.632 23.9308 14.0206 23.9308 13.2745C23.9308 12.5341 23.3306 11.9339 22.5958 11.9395Z" fill="#3B1FB2"/>
<path d="M24.3741 46.2858C25.1145 46.2858 25.7091 45.6744 25.7091 44.9283C25.7091 44.1879 25.1089 43.5877 24.3741 43.5933C23.6337 43.5933 23.0391 44.2047 23.0391 44.9508C23.0391 45.6968 23.6393 46.2914 24.3741 46.2858Z" fill="#3B1FB2"/>
<path d="M19.9254 8.66337C19.1849 8.66337 18.5903 9.2748 18.5903 10.0208C18.5903 10.7669 19.1905 11.3615 19.9254 11.3559C20.6658 11.3559 21.2604 10.7445 21.2604 9.99841C21.2604 9.25236 20.6602 8.65776 19.9254 8.66337Z" fill="#3B1FB2"/>
<path d="M17.8502 5.17973C17.1097 5.17973 16.5151 5.79115 16.5151 6.5372C16.5151 7.27765 17.1153 7.87785 17.8502 7.87224C18.5906 7.87224 19.1852 7.26082 19.1852 6.51477C19.1852 5.77432 18.585 5.17412 17.8502 5.17973Z" fill="#3B1FB2"/>
<path d="M9.12744 16.881C9.12744 17.6214 9.72765 18.2216 10.4625 18.216C11.2029 18.216 11.7975 17.6046 11.7975 16.8585C11.7975 16.1181 11.1973 15.5179 10.4625 15.5235C9.72204 15.5235 9.12744 16.1349 9.12744 16.881Z" fill="#3B1FB2"/>
<path d="M19.9371 15.4563C19.1966 15.4563 18.6021 16.0678 18.6021 16.8138C18.6021 17.5543 19.2023 18.1545 19.9371 18.1489C20.6775 18.1489 21.2721 17.5374 21.2721 16.7914C21.2721 16.0509 20.6719 15.4507 19.9371 15.4563Z" fill="#3B1FB2"/>
<path d="M29.1138 46.2521C29.8543 46.2521 30.4489 45.6407 30.4489 44.8946C30.4489 44.1542 29.8487 43.554 29.1138 43.5596C28.3734 43.5596 27.7788 44.171 27.7788 44.9171C27.7788 45.6575 28.379 46.2577 29.1138 46.2521Z" fill="#3B1FB2"/>
<path d="M13.1324 14.6991C13.8728 14.6991 14.4674 14.0877 14.4674 13.3417C14.4674 12.6012 13.8672 12.001 13.1324 12.0066C12.392 12.0066 11.7974 12.6181 11.7974 13.3641C11.7974 14.1046 12.3976 14.7048 13.1324 14.6991Z" fill="#3B1FB2"/>
<path d="M24.6939 29.6424C23.9535 29.6424 23.3589 30.2538 23.3589 30.9999C23.3589 31.7403 23.9591 32.3405 24.6939 32.3349C25.4288 32.3293 26.029 31.7235 26.029 30.9774C26.029 30.237 25.4288 29.6368 24.6939 29.6424Z" fill="#3B1FB2"/>
<path d="M29.439 39.2121C30.1795 39.2121 30.7741 38.6007 30.7741 37.8602C30.7741 37.1198 30.1739 36.5196 29.439 36.5252C28.6986 36.5252 28.104 37.1366 28.104 37.8771C28.104 38.6175 28.7042 39.2177 29.439 39.2121Z" fill="#3B1FB2"/>
<path d="M17.8892 28.8854C18.6297 28.8854 19.2243 28.274 19.2243 27.5336C19.2243 26.7931 18.6241 26.1929 17.8892 26.1985C17.1488 26.1985 16.5542 26.81 16.5542 27.5504C16.5542 28.2908 17.1544 28.891 17.8892 28.8854Z" fill="#3B1FB2"/>
<path d="M19.943 22.3726C19.2025 22.3726 18.6079 22.984 18.6079 23.7301C18.6079 24.4761 19.2081 25.0707 19.943 25.0651C20.6834 25.0651 21.278 24.4537 21.278 23.7076C21.278 22.9672 20.6778 22.367 19.943 22.3726Z" fill="#3B1FB2"/>
<path d="M26.0007 13.2574C26.0007 13.9978 26.6009 14.598 27.3358 14.5924C28.0762 14.5924 28.6708 13.981 28.6708 13.2406C28.6708 13.0442 28.6259 12.8647 28.553 12.6965C28.553 12.6908 28.5474 12.6852 28.5418 12.6796C28.525 12.646 28.5137 12.6179 28.4969 12.5843C28.2221 12.0682 27.6275 11.7429 26.9655 11.9224C26.8926 11.9392 26.7131 11.9784 26.7019 12.057C26.2812 12.2926 25.9951 12.7413 25.9951 13.2574H26.0007Z" fill="#3B1FB2"/>
<path d="M22.6348 35.7682C23.3697 35.7682 23.9699 35.1568 23.9699 34.4164C23.9699 33.6759 23.3697 33.0757 22.6348 33.0813C21.8944 33.0813 21.2998 33.6928 21.2998 34.4332C21.2998 35.1736 21.9 35.7739 22.6348 35.7682Z" fill="#3B1FB2"/>
<path d="M14.4953 34.4835C14.4953 33.7431 13.8951 33.1429 13.1602 33.1485C12.4254 33.1485 11.8252 33.7599 11.8252 34.5003C11.8252 35.2408 12.4254 35.841 13.1602 35.8354C13.8951 35.8354 14.4953 35.224 14.4953 34.4835Z" fill="#3B1FB2"/>
<path d="M17.5699 42.8412C18.3047 42.8412 18.9049 42.2298 18.9049 41.4894C18.9049 40.7489 18.3047 40.1487 17.5699 40.1543C16.8351 40.1543 16.2349 40.7658 16.2349 41.5062C16.2349 42.2466 16.8351 42.8469 17.5699 42.8412Z" fill="#3B1FB2"/>
<path d="M13.873 23.7638C13.873 24.5042 14.4733 25.1044 15.2081 25.0988C15.9429 25.0932 16.5431 24.4874 16.5431 23.7469C16.5431 23.0065 15.9429 22.4063 15.2081 22.4119C14.4733 22.4119 13.873 23.0233 13.873 23.7638Z" fill="#3B1FB2"/>
<path d="M15.1969 15.4898C14.462 15.4898 13.8618 16.1012 13.8618 16.8417C13.8618 17.5821 14.462 18.1823 15.1969 18.1767C15.9317 18.1767 16.5319 17.5653 16.5319 16.8248C16.5319 16.0844 15.9317 15.4842 15.1969 15.4898Z" fill="#3B1FB2"/>
<path d="M17.8951 35.8019C18.6299 35.8019 19.2301 35.1905 19.2301 34.4501C19.2301 33.7096 18.6299 33.1094 17.8951 33.115C17.1603 33.115 16.5601 33.7265 16.5601 34.4669C16.5601 35.2073 17.1603 35.8075 17.8951 35.8019Z" fill="#3B1FB2"/>
<path d="M33.136 35.1791V35.1455C33.3155 34.9155 33.422 34.6182 33.422 34.3041C33.422 33.5636 32.8218 32.9634 32.087 32.969C31.3466 32.969 30.752 33.5805 30.752 34.3209C30.752 34.4667 30.7744 34.6126 30.8193 34.7416C31.1053 35.684 32.4179 36.0879 33.136 35.1735V35.1791Z" fill="#3B1FB2"/>
<path d="M11.747 24.179C12.1341 22.8608 10.6364 21.9296 9.59863 22.7654L9.99129 25.0316C10.6925 25.3457 11.5339 24.9082 11.747 24.179Z" fill="#3B1FB2"/>
<path d="M9.56503 14.0202C10.1148 12.9656 9.17237 11.782 8.03366 12.0961C7.96074 12.113 7.78124 12.1522 7.77002 12.2308L8.19633 14.7214C8.75167 14.7831 9.30139 14.5194 9.56503 14.0202Z" fill="#3B1FB2"/>
<path d="M14.0971 41.9662C14.4112 40.9846 13.6091 40.0253 12.605 40.2161L13.0537 42.8413C13.5081 42.8132 13.9625 42.3925 14.0971 41.9662Z" fill="#3B1FB2"/>
<path d="M10.8105 29.7993L11.2425 32.2058C12.168 31.5382 11.9268 30.0517 10.8105 29.7993Z" fill="#3B1FB2"/>
<path d="M8.9707 19.0911L9.31849 21.2507C9.34653 21.2843 9.48116 21.0992 9.5036 21.0712C9.96918 20.3924 9.71675 19.4276 8.9707 19.0911Z" fill="#3B1FB2"/>
<path d="M41.5555 28.6718C42.2959 28.6718 42.8905 28.0604 42.8905 27.3143C42.8905 26.5683 42.2903 25.9737 41.5499 25.9793C40.8094 25.9793 40.2148 26.5907 40.2148 27.3368C40.2148 28.0772 40.8151 28.6774 41.5555 28.6718Z" fill="#3B1FB2"/>
<path d="M38.5711 46.1454C39.3116 46.1454 39.9062 45.534 39.9062 44.788C39.9062 44.0475 39.3059 43.4473 38.5655 43.4529C37.8251 43.4585 37.2305 44.0643 37.2305 44.8104C37.2305 45.5508 37.8307 46.151 38.5711 46.1454Z" fill="#3B1FB2"/>
<path d="M48.36 32.122C48.4329 32.122 48.5058 32.1108 48.5787 32.0995C49.2799 32.0547 49.8353 31.4657 49.8353 30.7477C49.8353 30.0072 49.235 29.407 48.4946 29.4126C48.4217 29.4126 48.3488 29.4239 48.2815 29.4351C47.5803 29.48 47.0193 30.0689 47.0249 30.7869C47.0249 31.5274 47.6252 32.1276 48.3656 32.122H48.36Z" fill="#3B1FB2"/>
<path d="M33.4159 27.3876C33.4159 26.6471 32.8157 26.0469 32.0753 26.0525C31.3348 26.0525 30.7402 26.664 30.7402 27.41C30.7402 27.6512 30.8019 27.87 30.9141 28.0663C31.1105 28.459 31.4975 28.7507 32.0416 28.7731V28.745C32.0416 28.745 32.0641 28.745 32.0809 28.745C32.8213 28.745 33.4159 28.1336 33.4159 27.3876Z" fill="#3B1FB2"/>
<path d="M38.8968 39.1056C39.6372 39.1056 40.2318 38.4942 40.2318 37.7482C40.2318 37.0021 39.6316 36.4075 38.8912 36.4131C38.1508 36.4131 37.5562 37.0245 37.5562 37.7706C37.5562 38.5167 38.1564 39.1113 38.8968 39.1056Z" fill="#3B1FB2"/>
<path d="M33.8311 43.492C33.0907 43.492 32.4961 44.1034 32.4961 44.8495C32.4961 45.0514 32.541 45.2421 32.6195 45.416C33.0066 46.3584 34.3472 46.5098 34.9362 45.6404V45.5955C35.0764 45.3767 35.1662 45.1131 35.1662 44.827C35.1662 44.0866 34.566 43.4864 33.8255 43.492H33.8311Z" fill="#3B1FB2"/>
<path d="M40.2036 20.0335C40.2036 20.7739 40.8038 21.3742 41.5443 21.3685C41.965 21.3685 42.3408 21.1666 42.582 20.8581L42.5988 20.9478C42.6269 20.9815 42.7615 20.7964 42.7839 20.7683C43.2495 20.0896 42.9971 19.1248 42.251 18.7882L42.2679 18.8892C42.0603 18.7546 41.8079 18.676 41.5443 18.676C40.8038 18.676 40.2092 19.2875 40.2092 20.0335H40.2036Z" fill="#3B1FB2"/>
<path d="M41.2357 42.6281C41.9761 42.6281 42.5707 42.0167 42.5707 41.2706C42.5707 40.5246 41.9705 39.93 41.2301 39.9356C40.4896 39.9356 39.895 40.547 39.895 41.2931C39.895 42.0391 40.4952 42.6337 41.2357 42.6281Z" fill="#3B1FB2"/>
<path d="M27.3077 5.073C26.5673 5.073 25.9727 5.68442 25.9727 6.43048C25.9727 6.66607 26.0344 6.88484 26.1409 7.08117C26.5448 7.88892 27.6835 8.06842 28.323 7.35042L28.3118 7.29993C28.5193 7.06434 28.6427 6.75021 28.6427 6.41365C28.6427 5.6732 28.0425 5.073 27.3021 5.07861L27.3077 5.073Z" fill="#3B1FB2"/>
<path d="M29.3834 8.55688C28.6429 8.55688 28.0483 9.16831 28.0483 9.91436C28.0483 10.1275 28.0988 10.3295 28.1886 10.5146C28.1886 10.5202 28.1942 10.5314 28.1998 10.537C28.2054 10.5482 28.211 10.5594 28.2166 10.5707C28.3681 10.8736 28.6373 11.1204 29.0075 11.2214V11.1989C29.1253 11.2326 29.2544 11.255 29.3834 11.255C30.1238 11.255 30.7184 10.6436 30.7184 9.89753C30.7184 9.15148 30.1182 8.55688 29.3778 8.56249L29.3834 8.55688Z" fill="#3B1FB2"/>
<path d="M33.3203 20.5659C33.5854 19.8713 33.2419 19.095 32.5531 18.8321C31.8642 18.5692 31.0909 18.9192 30.8257 19.6138C30.5606 20.3085 30.9041 21.0847 31.593 21.3476C32.2818 21.6105 33.0552 21.2605 33.3203 20.5659Z" fill="#3B1FB2"/>
<path d="M38.8914 32.1891C39.6319 32.1891 40.2265 31.5777 40.2265 30.8317C40.2265 30.0856 39.6263 29.491 38.8858 29.4966C38.1454 29.4966 37.5508 30.108 37.5508 30.8541C37.5508 31.6001 38.151 32.1947 38.8914 32.1891Z" fill="#3B1FB2"/>
<path d="M46.3009 35.5548C46.3738 35.5548 46.4411 35.5436 46.514 35.5324C47.2152 35.4875 47.7761 34.8985 47.7761 34.1805C47.7761 33.4401 47.1759 32.8399 46.4411 32.8455C46.3682 32.8455 46.3009 32.8511 46.2335 32.8623C45.5268 32.9016 44.9658 33.4962 44.9658 34.2142C44.9658 34.9546 45.566 35.5548 46.3065 35.5492L46.3009 35.5548Z" fill="#3B1FB2"/>
<path d="M43.6368 39.072C44.3772 39.072 44.9718 38.4605 44.9718 37.7145C44.9718 36.974 44.3716 36.3738 43.6368 36.3794C42.902 36.385 42.3018 36.9909 42.3018 37.7369C42.3018 38.4774 42.902 39.0776 43.6368 39.072Z" fill="#3B1FB2"/>
<path d="M46.2899 28.6383C46.3628 28.6383 46.4357 28.6271 46.503 28.6159C47.2042 28.571 47.7651 27.982 47.7651 27.264C47.7651 26.5236 47.1649 25.9234 46.4245 25.929C46.3516 25.929 46.2787 25.9402 46.2057 25.9514C45.5046 25.9963 44.9492 26.5853 44.9492 27.3033C44.9492 28.0437 45.5494 28.6439 46.2899 28.6383Z" fill="#3B1FB2"/>
<path d="M32.0474 5.03983C31.307 5.03983 30.7124 5.65126 30.7124 6.39731C30.7124 7.13775 31.3126 7.73796 32.0531 7.73235C32.7935 7.73235 33.3881 7.12093 33.3881 6.37487C33.3881 5.63443 32.7879 5.03422 32.0474 5.03983Z" fill="#3B1FB2"/>
<path d="M35.4977 37.7875C35.4977 37.047 34.8975 36.4468 34.1627 36.4524C33.4278 36.458 32.8276 37.0639 32.8276 37.8099C32.8276 38.0175 32.8781 38.2138 32.9623 38.3877C33.1081 38.7299 33.3942 39.0103 33.8149 39.1113V39.0945C33.9271 39.1281 34.0449 39.1449 34.1683 39.1393C34.9087 39.1393 35.5033 38.5279 35.5033 37.7819L35.4977 37.7875Z" fill="#3B1FB2"/>
<path d="M50.71 42.5553C50.7886 42.5553 50.8615 42.5441 50.9344 42.5329C51.63 42.4824 52.1797 41.8934 52.1797 41.181C52.1797 40.4406 51.5795 39.8404 50.8447 39.846C50.7717 39.846 50.6988 39.8572 50.6259 39.8684C49.9247 39.9189 49.375 40.5023 49.375 41.2203C49.375 41.9607 49.9752 42.5609 50.71 42.5553Z" fill="#3B1FB2"/>
<path d="M36.8043 18.7156C36.0638 18.7156 35.4692 19.327 35.4692 20.0731C35.4692 20.8135 36.0694 21.4137 36.8099 21.4081C37.5503 21.4081 38.1449 20.7967 38.1449 20.0507C38.1449 19.3102 37.5447 18.71 36.8043 18.7156Z" fill="#3B1FB2"/>
<path d="M34.1512 32.2284C34.8916 32.2284 35.4862 31.617 35.4862 30.871C35.4862 30.1305 34.886 29.5303 34.1456 29.5359C33.4051 29.5359 32.8105 30.1474 32.8105 30.8934C32.8105 31.6338 33.4108 32.2341 34.1512 32.2284Z" fill="#3B1FB2"/>
<path d="M45.9759 42.5946C46.0993 42.5946 46.2171 42.5722 46.3293 42.5441C46.7837 42.5161 47.238 42.0954 47.3726 41.6691C47.6812 40.7211 46.9351 39.7955 45.9759 39.9077C45.9759 39.9077 45.9759 39.9077 45.9703 39.9077C45.2298 39.9077 44.6353 40.5191 44.6353 41.2652C44.6353 42.0112 45.2355 42.6058 45.9703 42.6002L45.9759 42.5946Z" fill="#3B1FB2"/>
<path d="M34.1178 8.52299C33.3773 8.52299 32.7827 9.13441 32.7827 9.88047C32.7827 10.6209 33.3829 11.2211 34.1178 11.2155C34.8526 11.2099 35.4528 10.6041 35.4528 9.85803C35.4528 9.11759 34.8526 8.51738 34.1178 8.52299Z" fill="#3B1FB2"/>
<path d="M36.793 11.7935C36.0526 11.7935 35.458 12.4049 35.458 13.151C35.458 13.8914 36.0582 14.4916 36.793 14.486C37.5335 14.486 38.1281 13.8746 38.1281 13.1285C38.1281 12.3881 37.5279 11.7879 36.793 11.7935Z" fill="#3B1FB2"/>
<path d="M43.3057 46.1115C44.0462 46.1115 44.6408 45.5001 44.6408 44.754C44.6408 44.0136 44.0406 43.4134 43.3057 43.419C42.5653 43.419 41.9707 44.0304 41.9707 44.7765C41.9707 45.5169 42.5709 46.1171 43.3057 46.1115Z" fill="#3B1FB2"/>
<path d="M38.8516 8.48368C38.1112 8.48368 37.5166 9.09511 37.5166 9.84116C37.5166 10.5816 38.1168 11.1818 38.8516 11.1762C39.5921 11.1762 40.1867 10.5648 40.1867 9.81872C40.1867 9.07828 39.5865 8.47807 38.8516 8.48368Z" fill="#3B1FB2"/>
<path d="M36.7823 5.00614C36.0419 5.00614 35.4473 5.61757 35.4473 6.36362C35.4473 7.10406 36.0475 7.70427 36.7823 7.69866C37.5227 7.69866 38.1173 7.08723 38.1173 6.34118C38.1173 5.60074 37.5171 5.00053 36.7823 5.00614Z" fill="#3B1FB2"/>
<path d="M29.3888 15.3496C28.6483 15.3496 28.0537 15.9611 28.0537 16.7071C28.0537 16.9427 28.1154 17.1615 28.2164 17.3522C28.5698 18.059 29.4617 18.2722 30.146 17.8627L30.1348 17.8066C30.4882 17.5598 30.7238 17.1503 30.7238 16.6847C30.7238 15.9442 30.1236 15.344 29.3888 15.3496Z" fill="#3B1FB2"/>
<path d="M40.1115 17.0997C40.3771 16.4053 40.0342 15.6288 39.3455 15.3654C38.6568 15.102 37.8832 15.4514 37.6176 16.1459C37.352 16.8403 37.695 17.6168 38.3837 17.8802C39.0723 18.1436 39.8459 17.7942 40.1115 17.0997Z" fill="#3B1FB2"/>
<path d="M48.0455 46.0724C48.1184 46.0724 48.1857 46.0612 48.2586 46.05C48.9598 46.0051 49.5208 45.4161 49.5208 44.6981C49.5208 43.9577 48.9206 43.3575 48.1801 43.3631C48.1072 43.3631 48.0343 43.3743 47.967 43.3855C47.2658 43.4304 46.7104 44.0194 46.7104 44.7374C46.7104 45.4778 47.3107 46.078 48.0455 46.0724Z" fill="#3B1FB2"/>
<path d="M32.0592 11.8323C31.3187 11.8323 30.7241 12.4437 30.7241 13.1898C30.7241 13.9302 31.3243 14.5304 32.0592 14.5248C32.7996 14.5248 33.3942 13.9134 33.3942 13.1674C33.3942 12.4213 32.794 11.8267 32.0592 11.8323Z" fill="#3B1FB2"/>
<path d="M43.6251 32.1557C43.9616 32.1557 44.2702 32.021 44.5058 31.8135L44.5226 31.9032C45.4481 31.2357 45.2069 29.7492 44.0907 29.4968L44.1019 29.5473C43.956 29.4912 43.7934 29.4631 43.6251 29.4631C42.8846 29.4631 42.29 30.0746 42.29 30.8206C42.29 31.5611 42.8902 32.1613 43.6251 32.1557Z" fill="#3B1FB2"/>
<path d="M48.3709 39.0326C48.4438 39.0326 48.5112 39.027 48.5785 39.0158C49.2853 38.9709 49.8406 38.3819 49.8406 37.6639C49.8406 36.9235 49.2404 36.3233 48.5056 36.3289C48.4326 36.3289 48.3653 36.3401 48.2924 36.3513C47.5912 36.3962 47.0303 36.9852 47.0303 37.7032C47.0303 38.4436 47.6305 39.0439 48.3653 39.0382L48.3709 39.0326Z" fill="#3B1FB2"/>
<path d="M36.816 28.7057C37.5564 28.7057 38.151 28.0943 38.151 27.3539C38.151 26.6134 37.5508 26.0132 36.816 26.0188C36.0812 26.0244 35.481 26.6303 35.481 27.3707C35.481 28.1111 36.0812 28.7114 36.816 28.7057Z" fill="#3B1FB2"/>
<path d="M38.8741 22.1932C38.1337 22.1932 37.5391 22.8046 37.5391 23.5506C37.5391 24.2967 38.1393 24.8913 38.8741 24.8857C39.6145 24.8857 40.2091 24.2742 40.2091 23.5282C40.2091 22.7878 39.6089 22.1875 38.8741 22.1932Z" fill="#3B1FB2"/>
<path d="M41.5611 35.5886C42.3016 35.5886 42.8962 34.9771 42.8962 34.2367C42.8962 33.4962 42.2959 32.896 41.5611 32.9017C40.8207 32.9017 40.2261 33.5131 40.2261 34.2535C40.2261 34.994 40.8263 35.5942 41.5611 35.5886Z" fill="#3B1FB2"/>
<path d="M36.5011 42.662C37.2359 42.662 37.8361 42.0506 37.8361 41.3102C37.8361 40.5697 37.2359 39.9695 36.5011 39.9751C35.7662 39.9751 35.166 40.5866 35.166 41.327C35.166 42.0674 35.7662 42.6677 36.5011 42.662Z" fill="#3B1FB2"/>
<path d="M34.1397 22.2325C33.4049 22.2325 32.8047 22.8439 32.8047 23.5843C32.8047 24.3248 33.4049 24.925 34.1397 24.9194C34.8746 24.9138 35.4748 24.3079 35.4748 23.5675C35.4748 22.8271 34.8746 22.2269 34.1397 22.2325Z" fill="#3B1FB2"/>
<path d="M34.1285 15.316C33.3937 15.316 32.7935 15.9274 32.7935 16.6678C32.7935 17.4083 33.3937 18.0085 34.1285 18.0029C34.8633 18.0029 35.4635 17.3914 35.4635 16.651C35.4635 15.9106 34.8633 15.3103 34.1285 15.316Z" fill="#3B1FB2"/>
<path d="M36.8267 35.6223C37.5616 35.6223 38.1618 35.0108 38.1618 34.2704C38.1618 33.5299 37.5616 32.9297 36.8267 32.9353C36.0919 32.9353 35.4917 33.5468 35.4917 34.2872C35.4917 35.0276 36.0919 35.6279 36.8267 35.6223Z" fill="#3B1FB2"/>
<path d="M52.9653 46.0222C53.6833 45.9941 54.2555 45.3995 54.2555 44.6703C54.2555 43.9298 53.6552 43.3296 52.9148 43.3352C52.8307 43.3352 52.7521 43.3465 52.668 43.3633C51.8266 43.4362 51.2432 44.2608 51.5068 45.1246C51.7088 45.7922 52.3595 46.1119 52.9597 46.0278L52.9653 46.0222Z" fill="#3B1FB2"/>
<path d="M51.2935 35.4931C51.9723 35.4258 52.5052 34.848 52.5052 34.1468C52.5052 33.4064 51.9049 32.8062 51.1701 32.8118C51.0748 32.8118 50.985 32.823 50.9009 32.8399C50.3399 32.9072 49.8575 33.2886 49.7285 33.8832C49.5097 34.9266 50.4465 35.6614 51.2935 35.4931Z" fill="#3B1FB2"/>
<path d="M28.5247 22.5859L28.5359 22.642C28.261 22.8888 28.0815 23.2534 28.0815 23.6517C28.0815 24.3922 28.6817 24.9924 29.4166 24.9868C30.157 24.9868 30.7516 24.3753 30.7516 23.6349C30.7516 23.461 30.718 23.2983 30.6563 23.1469C30.3702 22.3391 29.3156 21.9521 28.5191 22.5859H28.5247Z" fill="#3B1FB2"/>
<path d="M57.9576 22.0364C57.2172 22.0364 56.6226 22.6478 56.6226 23.3939C56.6226 24.1343 57.2228 24.7345 57.9632 24.7289C58.7036 24.7289 59.2982 24.1175 59.2982 23.3715C59.2982 22.631 58.698 22.0308 57.9576 22.0364Z" fill="#3B1FB2"/>
<path d="M55.8988 28.5485C56.6392 28.5485 57.2338 27.9371 57.2338 27.191C57.2338 26.4506 56.6336 25.8504 55.8931 25.856C55.1527 25.856 54.5581 26.4674 54.5581 27.2135C54.5581 27.9595 55.1583 28.5541 55.8988 28.5485Z" fill="#3B1FB2"/>
<path d="M54.5809 37.6305C54.5809 36.89 53.9806 36.2898 53.2402 36.2954C52.8924 36.2954 52.5783 36.4357 52.3427 36.6545L52.3259 36.5591C51.4396 37.2154 51.6527 38.6738 52.7354 38.9375L52.7241 38.887C52.8812 38.9543 53.0551 38.988 53.2402 38.988C53.9806 38.988 54.5752 38.3765 54.5752 37.6305H54.5809Z" fill="#3B1FB2"/>
<path d="M55.8873 18.5525C55.1468 18.5525 54.5522 19.164 54.5522 19.91C54.5522 20.6561 55.1525 21.2507 55.8929 21.245C56.6333 21.245 57.2279 20.6336 57.2279 19.8876C57.2279 19.1415 56.6277 18.5469 55.8873 18.5525Z" fill="#3B1FB2"/>
<path d="M55.5848 42.5048C56.3252 42.5048 56.9198 41.8934 56.9198 41.1473C56.9198 40.4069 56.3196 39.8067 55.5792 39.8123C54.8387 39.8179 54.2441 40.4237 54.2441 41.1698C54.2441 41.9102 54.8443 42.5104 55.5848 42.5048Z" fill="#3B1FB2"/>
<path d="M41.6562 4.9495C41.5833 4.9495 41.5047 4.96072 41.4374 4.97194C40.7419 5.02242 40.1865 5.6058 40.1865 6.32381C40.1865 7.06425 40.7867 7.66446 41.5272 7.65885C41.6001 7.65885 41.673 7.64763 41.7459 7.63641C42.4471 7.58593 42.9968 7.00255 42.9968 6.28454C42.9968 5.5441 42.3966 4.94389 41.6562 4.9495Z" fill="#3B1FB2"/>
<path d="M43.7261 8.43314C43.6531 8.43314 43.5802 8.44436 43.5073 8.45558C42.8061 8.50046 42.2508 9.08945 42.2564 9.80745C42.2564 10.5479 42.8566 11.1481 43.5914 11.1425C43.6644 11.1425 43.7373 11.1313 43.8102 11.1201C44.5114 11.0752 45.0667 10.4862 45.0667 9.76818C45.0667 9.02774 44.4665 8.42754 43.7261 8.43314Z" fill="#3B1FB2"/>
<path d="M46.4135 18.6258C46.3406 18.6258 46.2677 18.637 46.2004 18.6482C45.4992 18.6931 44.9438 19.2821 44.9438 20.0001C44.9438 20.7405 45.5441 21.3407 46.2789 21.3351C46.3518 21.3351 46.4247 21.3239 46.492 21.3127C47.1932 21.2678 47.7486 20.6788 47.7486 19.9608C47.7486 19.2204 47.1483 18.6202 46.4079 18.6258H46.4135Z" fill="#3B1FB2"/>
<path d="M57.9351 8.32694C57.1947 8.32694 56.6001 8.93837 56.6001 9.68442C56.6001 10.4305 57.2003 11.0251 57.9351 11.0195C58.6756 11.0195 59.2702 10.408 59.2702 9.66198C59.2702 8.92154 58.67 8.32133 57.9351 8.32694Z" fill="#3B1FB2"/>
<path d="M53.2347 32.0658C53.9751 32.0658 54.5697 31.4544 54.5697 30.7084C54.5697 29.9679 53.9695 29.3677 53.2291 29.3733C52.4886 29.3733 51.894 29.9848 51.894 30.7308C51.894 31.4713 52.4942 32.0715 53.2347 32.0658Z" fill="#3B1FB2"/>
<path d="M59.2272 38.0796C59.4925 37.3851 59.1493 36.6087 58.4605 36.3456C57.7718 36.0824 56.9983 36.4321 56.7329 37.1267C56.4676 37.8212 56.8108 38.5976 57.4996 38.8608C58.1883 39.1239 58.9618 38.7742 59.2272 38.0796Z" fill="#3B1FB2"/>
<path d="M46.3908 4.9163C46.3179 4.9163 46.2394 4.92752 46.1721 4.93874C45.398 4.99483 44.7529 5.72966 44.966 6.61595C45.1399 7.33395 45.8299 7.70418 46.4693 7.60321C47.1761 7.55833 47.7315 6.96934 47.7315 6.25134C47.7315 5.5109 47.1313 4.91069 46.3964 4.9163H46.3908Z" fill="#3B1FB2"/>
<path d="M51.148 18.5921C50.4076 18.5921 49.813 19.2035 49.813 19.9496C49.813 20.69 50.4132 21.2902 51.1536 21.2846C51.8941 21.2846 52.4887 20.6732 52.4887 19.9271C52.4887 19.1867 51.8885 18.5865 51.148 18.5921Z" fill="#3B1FB2"/>
<path d="M55.8653 4.8433C55.1249 4.8433 54.5303 5.45473 54.5303 6.20078C54.5303 6.94122 55.1305 7.54143 55.8653 7.53582C56.6058 7.53582 57.2004 6.92439 57.2004 6.17834C57.2004 5.4379 56.6001 4.83769 55.8653 4.8433Z" fill="#3B1FB2"/>
<path d="M57.9464 15.1199C57.2059 15.1199 56.6113 15.7313 56.6113 16.4774C56.6113 17.2178 57.2115 17.818 57.9464 17.8124C58.6868 17.8124 59.2814 17.201 59.2814 16.455C59.2814 15.7145 58.6812 15.1143 57.9464 15.1199Z" fill="#3B1FB2"/>
<path d="M48.4662 8.39945C48.1072 8.39945 47.7875 8.5453 47.5462 8.78089L47.5294 8.69114C46.6656 9.33622 46.8956 10.761 47.9389 11.0471L47.9277 10.9798C48.096 11.0527 48.2755 11.092 48.4718 11.092C49.2122 11.092 49.8068 10.4805 49.8068 9.73449C49.8068 8.99405 49.2066 8.39384 48.4718 8.39945H48.4662Z" fill="#3B1FB2"/>
<path d="M51.1363 11.6697C50.3959 11.6697 49.8013 12.2811 49.8013 13.0272C49.8013 13.7732 50.4015 14.3678 51.1363 14.3622C51.8768 14.3622 52.4714 13.7508 52.4714 13.0048C52.4714 12.2587 51.8711 11.6641 51.1363 11.6697Z" fill="#3B1FB2"/>
<path d="M55.8765 11.6363C55.1361 11.6363 54.5415 12.2477 54.5415 12.9937C54.5415 13.7342 55.1417 14.3344 55.8765 14.3288C56.617 14.3288 57.2116 13.7174 57.2116 12.9713C57.2116 12.2253 56.6114 11.6307 55.8765 11.6363Z" fill="#3B1FB2"/>
<path d="M57.6544 45.9885C58.3948 45.9885 58.9894 45.377 58.9894 44.631C58.9894 43.8849 58.3892 43.2903 57.6544 43.2959C56.9139 43.2959 56.3193 43.9074 56.3193 44.6534C56.3193 45.3995 56.9195 45.9941 57.6544 45.9885Z" fill="#3B1FB2"/>
<path d="M53.2008 8.36601C52.4603 8.36601 51.8657 8.97743 51.8657 9.72348C51.8657 10.4695 52.4659 11.0641 53.2008 11.0585C53.9412 11.0585 54.5358 10.4471 54.5358 9.70105C54.5358 8.9606 53.9356 8.3604 53.2008 8.36601Z" fill="#3B1FB2"/>
<path d="M51.1309 4.88261C50.3905 4.88261 49.7959 5.49403 49.7959 6.24008C49.7959 6.98614 50.3961 7.58073 51.1309 7.57512C51.8714 7.57512 52.466 6.9637 52.466 6.21765C52.466 5.4772 51.8658 4.877 51.1309 4.88261Z" fill="#3B1FB2"/>
<path d="M43.7377 15.2261C43.6704 15.2261 43.6031 15.2317 43.5358 15.2429C42.829 15.2822 42.2681 15.8712 42.2681 16.5948C42.2681 17.3353 42.8683 17.9355 43.6031 17.9299C43.6704 17.9299 43.7377 17.9242 43.805 17.913C44.5118 17.8738 45.0728 17.2848 45.0728 16.5612C45.0728 15.8207 44.4726 15.2205 43.7377 15.2261Z" fill="#3B1FB2"/>
<path d="M53.212 15.1536C52.4715 15.1536 51.877 15.765 51.877 16.5111C51.877 17.2515 52.4772 17.8517 53.212 17.8461C53.9468 17.8405 54.547 17.2347 54.547 16.4886C54.547 15.7482 53.9468 15.148 53.212 15.1536Z" fill="#3B1FB2"/>
<path d="M46.402 11.7093C46.3291 11.7093 46.2562 11.7205 46.1833 11.7317C45.4821 11.7766 44.9268 12.3656 44.9268 13.0836C44.9268 13.824 45.527 14.4242 46.2618 14.4186C46.3347 14.4186 46.4076 14.4074 46.4806 14.3962C47.1817 14.3513 47.7371 13.7623 47.7371 13.0443C47.7371 12.3039 47.1369 11.7037 46.402 11.7093Z" fill="#3B1FB2"/>
<path d="M57.9747 32.0322C58.7151 32.0322 59.3097 31.4207 59.3097 30.6747C59.3097 29.9342 58.7095 29.334 57.9747 29.3396C57.2399 29.3452 56.6396 29.9511 56.6396 30.6971C56.6396 31.4376 57.2399 32.0378 57.9747 32.0322Z" fill="#3B1FB2"/>
<path d="M52.4997 27.2306C52.4997 26.4901 51.8995 25.8899 51.1647 25.8955C50.9235 25.8955 50.6991 25.9629 50.5027 26.075L50.4915 26.0133C49.2126 26.6192 49.5491 28.5376 50.9739 28.5881V28.5656C51.0356 28.5768 51.0973 28.5825 51.1647 28.5825C51.9051 28.5825 52.4997 27.971 52.4997 27.2306Z" fill="#3B1FB2"/>
<path d="M53.2232 22.0696C52.4828 22.0696 51.8882 22.681 51.8882 23.4271C51.8882 24.1675 52.4884 24.7677 53.2232 24.7621C53.9637 24.7621 54.5583 24.1507 54.5583 23.4047C54.5583 22.6642 53.9581 22.064 53.2232 22.0696Z" fill="#3B1FB2"/>
<path d="M55.9102 35.465C56.6451 35.465 57.2453 34.8536 57.2453 34.1132C57.2453 33.3727 56.6451 32.7725 55.9102 32.7781C55.1754 32.7781 54.5752 33.3895 54.5752 34.13C54.5752 34.8704 55.1754 35.4706 55.9102 35.465Z" fill="#3B1FB2"/>
<path d="M48.4829 22.1089C48.4044 22.1089 48.3314 22.1201 48.2585 22.1314C47.5629 22.1818 47.0076 22.7652 47.0132 23.4832C47.0132 24.2237 47.6134 24.8239 48.3483 24.8183C48.4268 24.8183 48.4997 24.8071 48.5726 24.7958C49.2682 24.7453 49.8179 24.1564 49.8179 23.444C49.8179 22.7035 49.2177 22.1033 48.4829 22.1089Z" fill="#3B1FB2"/>
<path d="M48.4777 15.1924C48.416 15.1924 48.3487 15.198 48.287 15.2092C47.3895 15.2597 46.7332 16.1741 47.1146 17.0884C47.3558 17.6774 47.9616 17.9635 48.545 17.8737C49.2518 17.8344 49.8184 17.2455 49.8127 16.5218C49.8127 15.7814 49.2125 15.1812 48.4777 15.1868V15.1924Z" fill="#3B1FB2"/>
<path d="M43.5809 22.1593C42.8573 22.1817 42.2739 22.7819 42.2739 23.5112C42.2739 24.2516 42.8741 24.8518 43.6146 24.8462C43.6819 24.8462 43.7436 24.8406 43.8053 24.8294C44.3494 24.8069 44.8655 24.4255 45.0225 23.8758C45.3254 22.838 44.4672 22.0471 43.5809 22.1593Z" fill="#3B1FB2"/>
<path d="M41.4938 11.7595C40.7702 11.782 40.1924 12.3822 40.1924 13.1114C40.1924 13.8519 40.7926 14.4521 41.5274 14.4465C41.6172 14.4465 41.7013 14.4352 41.7855 14.4184C42.223 14.3735 42.6269 14.1211 42.84 13.7172C43.3617 12.7188 42.5427 11.6081 41.4882 11.7595H41.4938Z" fill="#3B1FB2"/>
</g>
<path d="M48.0761 7.3367C49.1617 7.3367 50.0951 8.10965 50.2936 9.17827L58.1668 41.6169C58.4286 43.0065 57.36 44.2906 55.9493 44.2906H18.3323C17.2763 44.2906 16.364 43.5598 16.1317 42.5335L7.63767 8.95863C7.4476 8.12655 8.08117 7.33248 8.93437 7.33248H48.0719M48.0761 6.49194H8.93859C8.27546 6.49194 7.65456 6.79183 7.24063 7.31136C6.8267 7.83088 6.67042 8.50246 6.81826 9.1487V9.15715L6.82248 9.1656L15.3123 42.7235C15.6375 44.1427 16.8793 45.1311 18.3365 45.1311H55.9535C56.8785 45.1311 57.7486 44.7214 58.3399 44.0118C58.9313 43.3022 59.172 42.3687 59.0031 41.4606V41.4395L58.9946 41.4184L51.1299 9.00087C50.8469 7.54789 49.5714 6.49617 48.0846 6.49617L48.0761 6.49194Z" fill="#F75CFF"/>
<path d="M335.445 1.41497C337.426 1.41497 339.031 3.02 339.031 5.00096L339.876 45.8872C339.876 46.0983 339.855 46.3053 339.817 46.5081L339.876 49.2789C339.876 51.2598 338.271 52.8648 336.29 52.8648H18.7506C18.5901 52.8648 18.4254 52.8606 18.2607 52.8522C14.3579 52.6368 11.1183 49.735 10.2186 45.9294L6.49745 28.7851L1.5683 8.49402C0.73199 4.95027 3.41831 1.55435 7.05921 1.55435L335.441 1.41497M335.445 0L7.05921 0.139385C4.88819 0.139385 2.87345 1.11508 1.52606 2.81726C0.178675 4.51945 -0.30706 6.70736 0.191346 8.81925L5.11627 29.0976L8.8332 46.2251V46.2377L8.83743 46.2504C9.89759 50.7192 13.737 54.0095 18.1804 54.2587C18.3705 54.2714 18.5606 54.2756 18.7506 54.2756H336.29C339.048 54.2756 341.291 52.0328 341.291 49.2746V49.2451L341.236 46.6052C341.274 46.356 341.291 46.1195 341.291 45.8872V45.8576L340.446 4.98829C340.438 2.2386 338.199 0 335.445 0Z" fill="#212168"/>
</svg>
