<?xml version="1.0" encoding="UTF-8"?>
<svg id="Camada_1" xmlns="http://www.w3.org/2000/svg" xmlns:xlink="http://www.w3.org/1999/xlink" version="1.1" viewBox="0 0 943.6 201">
  <!-- Generator: Adobe Illustrator 30.0.0, SVG Export Plug-In . SVG Version: 2.1.1 Build 123)  -->
  <defs>
    <style>
      .st0 {
        fill: #0b052d;
      }

      .st1 {
        fill: #d9d9ff;
      }

      .st2 {
        fill: #4e27c4;
      }

      .st3 {
        fill: url(#Gradiente_sem_nome);
      }

      .st4 {
        fill: url(#Gradiente_sem_nome_3);
        isolation: isolate;
        opacity: .3;
      }

      .st5 {
        fill: url(#Gradiente_sem_nome_2);
      }

      .st6 {
        fill: #111147;
      }

      .st7 {
        fill: #00e7ff;
      }

      .st8 {
        fill: #341596;
      }

      .st9 {
        fill: #7764ff;
      }

      .st10 {
        fill: #97faff;
      }

      .st11 {
        fill: none;
        stroke: #cbcaff;
        stroke-miterlimit: 10;
        stroke-width: 3px;
      }

      .st12 {
        fill: #00b7ff;
      }
    </style>
    <linearGradient id="Gradiente_sem_nome" data-name="Gradiente sem nome" x1="108.7" y1="2878.9" x2="57.1" y2="2886.6" gradientTransform="translate(0 -2798)" gradientUnits="userSpaceOnUse">
      <stop offset="0" stop-color="#4e27c4" stop-opacity="0"/>
      <stop offset="1" stop-color="#291466"/>
    </linearGradient>
    <linearGradient id="Gradiente_sem_nome_2" data-name="Gradiente sem nome 2" x1="832.9" y1="2879" x2="884.5" y2="2886.8" gradientTransform="translate(0 -2798)" gradientUnits="userSpaceOnUse">
      <stop offset="0" stop-color="#4e27c4" stop-opacity="0"/>
      <stop offset="1" stop-color="#291466"/>
    </linearGradient>
    <radialGradient id="Gradiente_sem_nome_3" data-name="Gradiente sem nome 3" cx="-974" cy="22.2" fx="-974" fy="22.2" r="1.2" gradientTransform="translate(308837 -2731) scale(316.6 125.7)" gradientUnits="userSpaceOnUse">
      <stop offset="0" stop-color="#5740ff"/>
      <stop offset="0" stop-color="#5841fe"/>
      <stop offset=".2" stop-color="#5a44fe" stop-opacity=".9"/>
      <stop offset=".3" stop-color="#5f48fd" stop-opacity=".8"/>
      <stop offset=".5" stop-color="#654ffc" stop-opacity=".6"/>
      <stop offset=".6" stop-color="#6d58fb" stop-opacity=".4"/>
      <stop offset=".8" stop-color="#7762f9" stop-opacity=".1"/>
      <stop offset=".8" stop-color="#7c67f9" stop-opacity="0"/>
    </radialGradient>
  </defs>
  <path class="st0" d="M896.3,4.6c-1.3-1.7-3.2-2.6-5.3-2.6H52.2c-2.1,0-4,1-5.3,2.6-1.3,1.7-1.6,3.8-1,5.8l23.8,148c.8,2.8,3.4,4.7,6.3,4.7h789.1c2.9,0,5.5-1.9,6.3-4.7l25.9-148c.6-2,.2-4.1-1-5.8Z"/>
  <path class="st11" d="M896.3,4.6c-1.3-1.7-3.2-2.6-5.3-2.6H52.2c-2.1,0-4,1-5.3,2.6-1.3,1.7-1.6,3.8-1,5.8l23.7,146.4c.7,3.9,3.6,6.3,7.7,6.3h786.2c2.9,0,7.7-1.1,8.8-6.4l25.1-146.4c.6-2,.2-4.1-1-5.8h0Z"/>
  <path class="st2" d="M893.5,6.7c-.6-.8-1.5-1.2-2.4-1.2H52.2c-1,0-1.9.4-2.4,1.2-.6.8-.8,1.8-.5,2.7l23,145.2c.9,2.9,3.6,5,6.7,5h110.1l6.2-11.8c1.5-2.9,3.6-3,6.9-3l537.8-.8c3.5,0,6.7,2.1,8,5.3l5.5,10.3h108.6c3.1,0,5.8-2.1,6.7-5l25.1-145.2c.3-.9,0-1.9-.5-2.7h.1Z"/>
  <path class="st3" d="M47.7,6.7c.6-.8,1.5-1.2,2.4-1.2h92.4l3.3,154.1h-67.6c-3.1,0-5.8-2.1-6.7-5L47.2,9.4c-.3-.9,0-1.9.5-2.7h0Z"/>
  <path class="st5" d="M894,6.7c-.6-.8-1.5-1.2-2.4-1.2h-92.4l-4.1,154.1h67.6c3.1,0,5.8-2.1,6.7-5l25.1-145.2c.3-.9,0-1.9-.5-2.7h0Z"/>
  <path class="st9" d="M868.5,155.8c0,.3-.2.6-.4.8-.6.8-1.5,1.2-2.4,1.2h-111c-.9,0-1.8-.5-2.2-1.4l-2.3-4.7c-2.5-5-5.1-8.1-10.7-8.1H203.2c-5.6,0-8.2,3.1-10.7,8.1l-2.3,4.7c-.4.8-1.3,1.4-2.2,1.4h-112.3c-1,0-1.9-.4-2.4-1.2-.2-.2-.3-.5-.4-.8v.2c-.3.9-.2,1.9.4,2.7s1.5,1.2,2.4,1.2h112.3c.9,0,1.8-.5,2.2-1.4l2.3-4.7c2.5-5,5.1-8.1,10.7-8.1h536.2c5.6,0,8.2,3.1,10.7,8.1l2.3,4.7c.4.8,1.3,1.4,2.2,1.4h111c1,0,1.9-.4,2.4-1.2.6-.8.8-1.8.5-2.7v-.2h0Z"/>
  <path class="st9" d="M893.5,6.7c-.6-.8-1.5-1.2-2.4-1.2H52.2c-1,0-1.9.4-2.4,1.2-.5.7-.7,1.5-.6,2.3,0,0,0-.2.2-.2.6-.8,1.5-1.2,2.4-1.2h838.8c1,0,1.9.4,2.4,1.2.6.8.8,1.8.5,2.7l.4-2.1c.3-.9,0-1.9-.5-2.7h0Z"/>
  <path class="st4" d="M894.6,146.3v-3.9h-20.3v-3.2h7.1v-3.9h-7.1v-3.7h7.1v-3.9h-7.1v-3.7h7.1v-3.9h-7.1v-3.7h7.1v-3.9h-7.1v-3.7h7.1v-3.9h-7.1v-3.7h7.1v-3.9h-7.1v-3.7h7.1v-3.9h-7.1v-3.7h7.1v-3.9h-7.1v-3.7h7.1v-3.9h-7.1v-3.7h7.1v-3.9h-7.1v-3.7h7.1v-3.9h-7.1v-3.7h7.1v-3.9h-7.1v-3.7h7.1v-3.9h-7.1v-3.7h7.1v-3.9h-7.1v-3.7h7.1v-3.9h-7.1v-3.7h7.1v-3.9h-7.1v-3.7h7.1v-3.9h-7.1v-3.7h7.1v-3.9h-7.1v-1.4h-11.7v1.4H48.6v146.9h13.1v-.3h121.8c.7-1.3,1.4-2.6,2.1-3.9H61.6v-3.5h125.6c.7-1.3,1.4-2.6,2.1-3.9H61.6v-3.2h801v3.2h-120.4c1,1.2,1.9,2.5,2.7,3.9h117.7v3.5h-120.4c1,1.2,1.9,2.5,2.7,3.9h117.7v9.9h11.7v-9.9h20.3v-3.9h-20.3v-3.5h20.3v1ZM61.7,10.8h801v3.7H61.7v-3.7ZM61.7,18.4h801v3.7H61.7v-3.7ZM61.7,25.9h801v3.7H61.7v-3.7ZM61.7,33.5h801v3.7H61.7v-3.7ZM61.7,41h801v3.7H61.7v-3.7ZM61.7,48.6h801v3.7H61.7v-3.7ZM61.7,56.1h801v3.7H61.7v-3.7ZM61.7,63.7h801v3.7H61.7v-3.7ZM61.7,71.2h801v3.7H61.7v-3.7ZM61.7,78.8h801v3.7H61.7v-3.7ZM61.7,86.4h801v3.7H61.7v-3.7ZM61.7,93.9h801v3.7H61.7v-3.7ZM61.7,101.5h801v3.7H61.7v-3.7ZM61.7,109h801v3.7H61.7v-3.7ZM61.7,116.6h801v3.7H61.7v-3.7ZM61.7,124.1h801v3.7H61.7v-3.7ZM61.7,135.4v-3.7h801v3.7H61.7Z"/>
  <path class="st1" d="M62.9,145L42.9,23c-.5-2.9-2.6-5.4-5.6-5.4H11.9c-2,0-4,.5-5.6,2.2-1.3,1.5-2,3.5-1.7,5.5l20.6,122c.5,3.3,3.4,5.7,6.7,5.7h24.7c2,0,3.4-.9,4.7-2.4,1.3-1.6,1.9-3.6,1.6-5.6Z"/>
  <path class="st6" d="M11.1,18.1c-3.8,0-6.6,3.4-6,7.1l20.2,120.8c.5,2.9,3,5,5.9,5h24.7c3.8,0,6.6-3.4,6-7.1L42.1,23.1c-.4-2.6-2.4-5-4.9-5H11.1Z"/>
  <path class="st8" d="M42.1,23.9c-.4-2.5-2.4-4.5-4.9-4.9H11.5c-1.8,0-3.5.8-4.7,2.2-1.2,1.4-1.7,3.2-1.4,4.9l19.8,120c.5,2.9,3,5.4,5.9,5.4h24.7c1.8,0,3.5-.8,4.7-2.2s1.7-2.8,1.4-4.5L42.1,23.9Z"/>
  <path class="st1" d="M880.7,145l20-122c.5-2.9,2.6-5.4,5.6-5.4h25.4c2,0,4,.5,5.6,2.2,1.3,1.5,2,3.5,1.7,5.5l-20.6,122c-.5,3.3-3.4,5.7-6.7,5.7h-24.7c-2,0-3.4-.9-4.7-2.4-1.3-1.6-1.9-3.6-1.6-5.6Z"/>
  <path class="st6" d="M932.5,18.1c3.8,0,6.6,3.4,6,7.1l-20.2,120.8c-.5,2.9-3,5-5.9,5h-24.7c-3.8,0-6.6-3.4-6-7.1l19.8-120.8c.4-2.6,2.4-5,4.9-5h26.1Z"/>
  <path class="st8" d="M901.5,23.9c.4-2.5,2.4-4.5,4.9-4.9h25.7c1.8,0,3.5.8,4.7,2.2,1.2,1.4,1.7,3.2,1.4,4.9l-19.8,120c-.5,2.9-3,5.4-5.9,5.4h-24.7c-1.8,0-3.5-.8-4.7-2.2s-1.7-2.8-1.4-4.5l19.8-120.8h0Z"/>
  <path class="st0" d="M762.4,190.7v-.3l-1.5-2.8-12.9-31.8h0c-1.7-3.6-5.7-7.3-10.7-7.3H206.1c-4.2,0-7.8,2.5-10.2,6.9h0l-13.7,33-1,1.9c-1.1,2-.7,5.9.5,8,1,1.9,2.3,2.2,3,2.2h574c.9,0,1.8-.5,2.5-1.3,1.6-2.1,1.6-6.4,1.1-8.5h.1Z"/>
  <path class="st12" d="M184.7,197.4s-.2-.1-.5-.6c-.8-1.5-.9-4.2-.5-4.9l15.7-30.8h0c1.3-3.4,4.1-5.4,7.6-5.4h529.4c4.4,0,6.9,2.8,7.6,5.3h0l15.4,30.5c.4,2.1,0,4.9-.6,5.8,0,.2-.2.2-.2.2H184.7Z"/>
  <path class="st12" d="M736.4,156.8c3.9,0,6,2.4,6.7,4.5v.4c0,0,15.4,30.2,15.4,30.2.3,1.7,0,3.6-.3,4.4H185.2c-.5-.8-.8-3.1-.5-3.8h0l15.6-30.7h0v-.2c1.6-4.2,5.2-4.7,6.6-4.7h529.5ZM736.4,154.6H207.1c-3.5,0-6.9,1.9-8.6,6.1l-15.6,30.7c-1,1.7,0,7.2,1.9,7.2h574c1.9,0,2.3-4.7,1.8-7.4l-15.5-30.5c-1-3.2-4-6-8.6-6h0Z"/>
  <path class="st7" d="M185.5,193.4c-.5,0-1-.3-1.3-.8-.2-.4-.2-1,0-1.4h0l14.2-34.3c1.9-3.5,4.5-5.3,7.6-5.3h531.1c4.3,0,7.1,3.5,8.1,5.4l13.8,34.1h0c.2.5.3,1,0,1.5s-.7.8-1.3.8H185.5Z"/>
  <path class="st10" d="M737.3,152.8c3.5,0,6.1,2.8,7.1,4.8l13.8,34h0v.6s-.2.2-.4.2H185.5c-.2,0-.3-.1-.4-.2v-.3h0v-.2l14.2-34.1c1.2-2.2,3.3-4.7,6.7-4.7h531.1M737.3,150.6H206.1c-3.5,0-6.5,2-8.6,5.9l-14.2,34.2c-1,1.7.2,3.9,2.1,3.9h572.4c1.9,0,3.1-2.1,2.1-3.9l-13.8-34c-1.2-2.4-4.4-6.1-9-6.1h.2Z"/>
</svg>