<svg width="791" height="217" viewBox="0 0 791 217" fill="none" xmlns="http://www.w3.org/2000/svg">
<path d="M735.138 29.9259H553.156V19.3694H735.138H758.489C760.136 19.3694 761.681 20.0999 762.724 21.3794C763.767 22.6546 764.181 24.3141 763.86 25.8933L760.82 41.4579H783.006C786.916 41.4579 789.884 44.9838 789.217 48.8348L767.327 174.517C766.804 177.54 764.181 179.749 761.116 179.749H725.059C721.149 179.749 718.18 176.223 718.847 172.372L740.737 46.6897C741.198 44.0168 743.305 41.9815 745.906 41.5466C746.02 41.5255 749.938 41.5128 750.052 41.5001L752.312 29.9259H735.134H735.138Z" fill="#9F9FF4" stroke="#D9D9FF" stroke-width="2" stroke-miterlimit="10"/>
<path d="M734.983 29.6591H553V19.1025H734.983H758.334C759.98 19.1025 761.526 19.8331 762.569 21.1125C763.612 22.3877 764.026 24.0472 763.705 25.6265L760.665 41.1911H782.85C786.76 41.1911 789.729 44.717 789.062 48.568L767.172 174.25C766.648 177.274 764.026 179.482 760.96 179.482H724.903C720.993 179.482 718.025 175.956 718.692 172.105L740.582 46.4229C741.042 43.75 743.149 41.7147 745.75 41.2798C745.864 41.2586 749.783 41.246 749.897 41.2333L752.156 29.6591H734.978H734.983Z" fill="#070742"/>
<path d="M760.96 178.637C763.625 178.637 765.888 176.729 766.344 174.102L787.812 49.2689C788.086 47.677 787.647 46.0555 786.608 44.8183C785.57 43.5853 784.045 42.8759 782.432 42.8759H759.221L762.459 26.2937C762.73 24.9509 762.379 23.5658 761.497 22.4848C760.614 21.4039 759.309 20.7874 757.916 20.7874H553.423V29.6549H752.76L750.171 42.9139L747.667 42.9392C746.536 42.9477 745.632 42.9561 745.421 42.9646C743.158 43.3615 741.38 45.1434 740.987 47.411L719.519 172.244C719.245 173.836 719.684 175.458 720.723 176.695C721.762 177.928 723.286 178.637 724.899 178.637H760.956H760.96Z" fill="#341596"/>
<path d="M55.1734 30.9259H237.156V20.3694H55.1734H31.8223C30.1755 20.3694 28.63 21.0999 27.587 22.3794C26.5441 23.6546 26.1302 25.3141 26.4512 26.8933L29.4914 42.4579H7.30577C3.39563 42.4579 0.427139 45.9838 1.09431 49.8348L22.9844 175.517C23.508 178.54 26.1302 180.749 29.1959 180.749H65.2528C69.163 180.749 72.1315 177.223 71.4643 173.372L49.5742 47.6897C49.114 45.0168 47.0069 42.9815 44.4057 42.5466C44.2917 42.5255 40.3731 42.5128 40.2591 42.5001L38 30.9259H55.1777H55.1734Z" fill="#9F9FF4" stroke="#D9D9FF" stroke-width="2" stroke-miterlimit="10"/>
<path d="M55.3289 30.6591H237.311V20.1025H55.3289H31.9778C30.331 20.1025 28.7856 20.8331 27.7426 22.1125C26.6996 23.3877 26.2858 25.0472 26.6067 26.6265L29.647 42.1911H7.46129C3.55115 42.1911 0.582657 45.717 1.24983 49.568L23.1399 175.25C23.6635 178.274 26.2858 180.482 29.3514 180.482H65.4083C69.3185 180.482 72.287 176.956 71.6198 173.105L49.7297 47.4229C49.2695 44.75 47.1624 42.7147 44.5612 42.2798C44.4473 42.2586 40.5287 42.246 40.4146 42.2333L38.1555 30.6591H55.3332H55.3289Z" fill="#070742"/>
<path d="M29.3512 179.637C26.6868 179.637 24.4234 177.729 23.9674 175.102L2.49957 50.2689C2.22511 48.677 2.66428 47.0555 3.70305 45.8183C4.74181 44.5853 6.26616 43.8759 7.8792 43.8759H31.091L27.8522 27.2937C27.582 25.9509 27.9324 24.5658 28.815 23.4848C29.6975 22.4039 31.0023 21.7874 32.3958 21.7874H236.889V30.6549H37.5516L40.14 43.9139L42.6441 43.9392C43.7757 43.9477 44.6794 43.9561 44.8905 43.9646C47.1538 44.3615 48.9315 46.1434 49.3242 48.411L70.7921 173.244C71.0665 174.836 70.6274 176.458 69.5886 177.695C68.5498 178.928 67.0255 179.637 65.4124 179.637H29.3555H29.3512Z" fill="#341596"/>
<path d="M725.649 41.5943H570.279C568.783 41.5943 567.42 42.4367 566.752 43.7663L564.411 48.4364C562.164 52.9083 557.581 55.7327 552.562 55.7327H240.056C235.037 55.7327 230.449 52.9083 228.207 48.4364L225.865 43.7663C225.198 42.4326 223.83 41.5943 222.338 41.5943H62.8196C59.8065 41.5943 57.643 44.4848 58.4968 47.3628L79.435 171.437C80.7363 176.891 83.795 177.465 87.5375 177.465H186.853L193.857 164.227C195.366 161.378 198.333 159.59 201.57 159.59H589.518C593.025 159.59 596.191 161.683 597.55 164.9L602.868 177.461H700.919C706.294 177.461 707.961 175.008 709.022 171.432L729.96 47.3587C730.818 44.4806 728.65 41.5902 725.637 41.5902L725.649 41.5943Z" fill="#3F20A0"/>
<path d="M707.206 159.33C706.332 162.27 702.834 164.425 699.754 164.425H86.3687C83.2893 164.425 79.7789 162.365 78.9044 159.425L79.6546 161.911C80.5291 164.851 82.8749 166.903 85.9543 166.903H699.754C702.834 166.903 705.594 164.851 706.469 161.911L707.206 159.33Z" fill="#5642EA"/>
<path d="M730.843 42.1642C729.587 40.4919 727.668 39.5298 725.571 39.5298H62.7408C60.6437 39.5298 58.7248 40.4878 57.469 42.1642C56.2132 43.8365 55.836 45.9465 56.4328 47.9492L78.2082 174.835C79.0288 177.597 81.6233 179.526 84.5162 179.526H703.795C706.688 179.526 709.283 177.597 710.103 174.835L731.879 47.9492C732.475 45.9465 732.098 43.8365 730.843 42.1642Z" fill="#0B052D"/>
<path d="M730.843 42.1642C729.587 40.4919 727.668 39.5298 725.571 39.5298H62.7408C60.6437 39.5298 58.7248 40.4878 57.469 42.1642C56.2132 43.8365 55.836 45.9465 56.4328 47.9492L78.0341 173.233C78.7843 177.164 81.6689 179.53 85.7595 179.53H702.138C705.03 179.53 709.855 178.452 710.932 173.187L731.879 47.9533C732.475 45.9507 732.098 43.8407 730.843 42.1683V42.1642Z" stroke="#CBCAFF" stroke-miterlimit="10"/>
<path d="M728.02 44.2618C727.436 43.4855 726.545 43.0396 725.571 43.0396H570.201C569.252 43.0396 568.394 43.564 567.971 44.4146L565.629 49.0847C563.122 54.0769 558.086 57.182 552.483 57.182H239.973C234.37 57.182 229.33 54.081 226.827 49.0847L224.485 44.4146C224.058 43.5681 223.204 43.0396 222.255 43.0396H62.7408C61.7669 43.0396 60.8758 43.4855 60.2914 44.2618C59.707 45.0381 59.533 46.0208 59.8106 46.9499L80.7488 171.024C81.6233 173.964 84.3835 176.016 87.4629 176.016H187.624L193.865 164.223C195.374 161.374 198.341 159.586 201.578 159.586H589.527C593.033 159.586 596.199 161.679 597.559 164.896L602.267 176.012H700.849C703.928 176.012 706.688 173.959 707.563 171.02L728.501 46.9458C728.779 46.0167 728.6 45.0381 728.02 44.2577V44.2618Z" fill="#4E27C4"/>
<g opacity="0.8">
<path opacity="0.5" d="M218.509 40.1863H66.819V44.0677H220.179C219.536 42.8042 218.977 41.5076 218.509 40.1863Z" fill="url(#paint0_radial_92_1339)"/>
<path opacity="0.5" d="M573.819 40.1863C573.752 41.5035 573.525 42.8042 573.164 44.0677H729.313V40.1863H573.819Z" fill="url(#paint1_radial_92_1339)"/>
<path opacity="0.5" d="M222.462 47.9615C222.429 47.912 222.4 47.8624 222.367 47.8129H66.819V51.6943H224.68C223.855 50.5175 223.113 49.2746 222.462 47.9615Z" fill="url(#paint2_radial_92_1339)"/>
<path opacity="0.5" d="M571.676 47.8129C570.988 49.1755 570.163 50.4762 569.251 51.6943H729.313V47.8129H571.676Z" fill="url(#paint3_radial_92_1339)"/>
<path opacity="0.5" d="M227.838 55.4395H66.819V59.3209H232.799C230.963 58.1854 229.309 56.8929 227.838 55.4395Z" fill="url(#paint4_radial_92_1339)"/>
<path opacity="0.5" d="M565.754 55.4395C565.182 55.8152 564.581 56.0795 563.967 56.2364C563.143 57.3017 562.264 58.3299 561.331 59.325H729.313V55.4436H565.754V55.4395Z" fill="url(#paint5_radial_92_1339)"/>
<path opacity="0.5" d="M729.309 63.0702H66.819V66.9516H729.309V63.0702Z" fill="url(#paint6_radial_92_1339)"/>
<path opacity="0.5" d="M729.309 70.0815H66.819V73.963H729.309V70.0815Z" fill="url(#paint7_radial_92_1339)"/>
<path opacity="0.5" d="M729.309 77.7123H66.819V81.5937H729.309V77.7123Z" fill="url(#paint8_radial_92_1339)"/>
<path opacity="0.5" d="M729.309 85.3389H66.819V89.2203H729.309V85.3389Z" fill="url(#paint9_radial_92_1339)"/>
<path opacity="0.5" d="M729.309 92.9656H66.819V96.847H729.309V92.9656Z" fill="url(#paint10_radial_92_1339)"/>
</g>
<g opacity="0.8">
<path opacity="0.5" d="M729.309 101.001H66.819V104.882H729.309V101.001Z" fill="url(#paint11_radial_92_1339)"/>
<path opacity="0.5" d="M729.309 108.627H66.819V112.509H729.309V108.627Z" fill="url(#paint12_radial_92_1339)"/>
<path opacity="0.5" d="M729.309 116.254H66.819V120.135H729.309V116.254Z" fill="url(#paint13_radial_92_1339)"/>
<path opacity="0.5" d="M729.309 123.885H66.819V127.766H729.309V123.885Z" fill="url(#paint14_radial_92_1339)"/>
<path opacity="0.5" d="M729.309 130.896H66.819V134.778H729.309V130.896Z" fill="url(#paint15_radial_92_1339)"/>
<path opacity="0.5" d="M729.309 138.527H66.819V142.408H729.309V138.527Z" fill="url(#paint16_radial_92_1339)"/>
<path opacity="0.5" d="M729.309 146.153H66.819V150.035H729.309V146.153Z" fill="url(#paint17_radial_92_1339)"/>
<path opacity="0.5" d="M729.309 153.78H66.819V157.661H729.309V153.78Z" fill="url(#paint18_radial_92_1339)"/>
</g>
<path d="M59.8604 47.1316C59.964 46.8508 60.1008 46.5783 60.2873 46.3305C60.8716 45.5542 61.7627 45.1083 62.7367 45.1083H222.251C223.2 45.1083 224.058 45.6327 224.481 46.4833L226.823 51.1534C229.33 56.1456 234.366 59.2507 239.969 59.2507H552.475C558.078 59.2507 563.118 56.1497 565.621 51.1534L567.963 46.4833C568.39 45.6368 569.243 45.1083 570.192 45.1083H725.562C726.536 45.1083 727.427 45.5542 728.012 46.3305C728.198 46.5783 728.339 46.8508 728.439 47.1316L728.493 46.9499C728.77 46.0208 728.592 45.0422 728.012 44.2618C727.427 43.4855 726.536 43.0396 725.562 43.0396H570.192C569.243 43.0396 568.385 43.564 567.963 44.4146L565.621 49.0847C563.114 54.0769 558.078 57.182 552.475 57.182H239.973C234.37 57.182 229.33 54.081 226.827 49.0847L224.485 44.4146C224.058 43.5681 223.204 43.0396 222.255 43.0396H62.7408C61.7669 43.0396 60.8758 43.4855 60.2914 44.2618C59.707 45.0381 59.533 46.0208 59.8106 46.9499L59.8645 47.1316H59.8604Z" fill="#7764FF"/>
<path d="M707.152 171.366C707.049 171.647 706.912 171.92 706.726 172.167C706.141 172.944 705.25 173.39 704.276 173.39H603.199C602.25 173.39 601.392 172.865 600.97 172.015L598.628 167.345C596.121 162.352 593.572 159.247 587.968 159.247H201.686C196.083 159.247 193.53 162.348 191.026 167.345L188.685 172.015C188.258 172.861 187.404 173.39 186.455 173.39H84.1349C83.1609 173.39 82.2699 172.944 81.6855 172.167C81.499 171.92 81.3581 171.647 81.2586 171.366L81.2047 171.548C80.927 172.477 81.1052 173.456 81.6855 174.236C82.2699 175.012 83.1609 175.458 84.1349 175.458H186.455C187.404 175.458 188.262 174.934 188.685 174.083L191.026 169.413C193.534 164.421 196.083 161.316 201.686 161.316H587.964C593.568 161.316 596.121 164.417 598.624 169.413L600.966 174.083C601.392 174.93 602.246 175.458 603.195 175.458H704.272C705.246 175.458 706.137 175.012 706.721 174.236C707.306 173.46 707.48 172.477 707.202 171.548L707.148 171.366H707.152Z" fill="#7764FF"/>
<path d="M611.897 206.883L611.843 206.592L610.407 203.757L597.535 172L597.48 171.88C595.823 168.436 591.774 164.729 586.811 164.729H205.686C201.52 164.729 197.906 167.18 195.51 171.625L195.46 171.714L181.764 204.603L180.788 206.525C179.694 208.542 180.128 212.419 181.264 214.57C182.257 216.452 183.576 216.729 184.277 216.729H608.299C609.247 216.729 610.124 216.264 610.766 215.415C612.386 213.277 612.323 209.052 611.902 206.888L611.897 206.883Z" fill="#0B052D"/>
<path d="M184.273 213.6C184.248 213.6 184.052 213.492 183.805 213.027C182.991 211.485 182.904 208.824 183.313 208.095L198.982 177.317L199.003 177.259C200.297 173.896 203.135 171.889 206.596 171.889H585.972C590.388 171.889 592.847 174.728 593.615 177.156L593.644 177.246L609.067 207.675C609.43 209.75 609.159 212.562 608.5 213.434C608.379 213.591 608.32 213.591 608.299 213.591H184.273V213.6Z" fill="#00B7FF"/>
<path d="M585.972 173.007C589.833 173.007 591.97 175.435 592.626 177.514L592.684 177.697L592.772 177.867L608.07 208.055C608.328 209.727 608.128 211.69 607.819 212.477H184.703C184.244 211.65 183.931 209.378 184.219 208.641L184.227 208.623L184.248 208.582L199.871 177.907L199.926 177.8L199.967 177.688C201.591 173.463 205.143 173.007 206.596 173.007H585.972ZM585.972 170.771H206.596C203.144 170.771 199.65 172.635 198.039 176.834L182.42 207.518C181.459 209.231 182.365 214.717 184.273 214.717H608.295C610.203 214.717 610.578 209.969 610.056 207.299L594.6 176.803C593.59 173.601 590.551 170.771 585.968 170.771H585.972Z" fill="#00B7FF"/>
<path d="M185.033 209.575C184.494 209.575 184.022 209.289 183.768 208.806C183.53 208.359 183.538 207.849 183.785 207.406L183.818 207.348L198.064 173.145C199.942 169.689 202.58 167.864 205.686 167.864H586.807C591.09 167.864 593.936 171.392 594.863 173.288L608.671 207.344L608.704 207.406C608.95 207.849 608.959 208.359 608.721 208.806C608.466 209.289 607.995 209.575 607.456 209.575H185.033Z" fill="#00E7FF"/>
<path d="M586.807 168.982C590.297 168.982 592.956 171.822 593.92 173.771L607.686 207.724L607.74 207.858L607.811 207.983C607.836 208.032 607.886 208.117 607.815 208.256C607.765 208.345 607.665 208.457 607.46 208.457H185.033C184.828 208.457 184.724 208.35 184.678 208.256C184.607 208.122 184.657 208.032 184.682 207.983L184.749 207.867L184.799 207.742L198.991 173.659C200.176 171.504 202.288 168.982 205.682 168.982H586.803M586.807 166.746H205.686C202.234 166.746 199.224 168.759 197.133 172.635L182.891 206.83C181.931 208.542 183.121 210.689 185.033 210.689H607.46C609.368 210.689 610.562 208.542 609.602 206.83L595.806 172.805C594.646 170.395 591.386 166.746 586.807 166.746Z" fill="#97FAFF"/>
<path d="M580.568 2.30981C579.743 0.861994 578.239 0 576.547 0H217.76C216.063 0 214.56 0.861994 213.739 2.30981C212.981 3.64464 212.96 5.23891 213.688 6.5863L228.38 44.9367L228.405 44.9953C230.46 49.3136 234.688 52 239.442 52H554.793C559.61 52 563.573 49.3847 565.392 44.9785L567.796 38.7311L580.614 6.59886C581.351 5.24728 581.335 3.64883 580.572 2.30981H580.568Z" fill="#0B052D"/>
<path d="M239.438 48.8658C234.983 48.8658 232.503 46.2087 231.728 43.9366L217.773 7.73699L217.727 7.65749C217.423 7.15536 217.385 6.57791 217.625 6.15528C217.815 5.82052 218.152 5.64478 218.602 5.64478H575.625C576.13 5.64478 576.517 5.82889 576.707 6.16783C576.909 6.51932 576.867 7.00053 576.593 7.44827L576.547 7.52777L562.44 43.8571C561.143 46.9828 558.28 48.8616 554.789 48.8616H239.438V48.8658Z" fill="#CD00D8"/>
<path d="M574.89 6.97498H219.343C217.426 6.97498 216.608 8.9461 217.573 10.5321L231.424 46.2277C232.439 49.1926 235.492 51.8139 240.096 51.8139H554.145C557.613 51.8139 561.123 50.0871 562.742 46.1987L576.756 10.3333C577.721 8.74733 576.811 6.97912 574.895 6.97912L574.89 6.97498Z" fill="#CD00D8"/>
<path d="M238.596 46.3552C234.292 46.3552 231.425 43.0788 230.477 41.3004L216.552 5.24311L216.505 5.16361C216.257 4.74935 216.249 4.27232 216.489 3.85388C216.745 3.40196 217.221 3.13416 217.765 3.13416H576.551C577.094 3.13416 577.57 3.40196 577.827 3.85388C578.067 4.27232 578.059 4.74935 577.81 5.16361L577.764 5.23893L563.396 41.4301C561.501 44.6521 558.848 46.351 555.72 46.351H238.596V46.3552Z" fill="#E72EED"/>
<path d="M576.547 4.18438C576.753 4.18438 576.858 4.28481 576.905 4.37268C576.976 4.49821 576.926 4.5819 576.9 4.62793L576.812 4.77857L576.749 4.94177L562.444 40.974C561.244 42.9825 559.118 45.309 555.715 45.309H238.596C235.097 45.309 232.427 42.6854 231.437 40.8652L217.567 4.95432L217.499 4.78276L217.402 4.62375C217.377 4.57772 217.327 4.49821 217.398 4.3685C217.449 4.28481 217.55 4.1802 217.756 4.1802H576.538M576.547 2.09216H217.76C215.836 2.09216 214.632 4.10069 215.6 5.70333L229.517 41.7272C230.688 43.9826 233.976 47.3971 238.596 47.3971H555.707C559.189 47.3971 562.225 45.5141 564.335 41.8862L578.703 5.70333C579.671 4.10069 578.471 2.09216 576.543 2.09216H576.547Z" fill="#F75CFF"/>
<defs>
<radialGradient id="paint0_radial_92_1339" cx="0" cy="0" r="1" gradientUnits="userSpaceOnUse" gradientTransform="translate(447.8 27.0439) scale(367.039 146.272)">
<stop offset="0.04" stop-color="#9B8BF9"/>
<stop offset="0.93" stop-color="#7C67F9" stop-opacity="0"/>
</radialGradient>
<radialGradient id="paint1_radial_92_1339" cx="0" cy="0" r="1" gradientUnits="userSpaceOnUse" gradientTransform="translate(348.332 -1306.65) scale(367.039 146.272)">
<stop offset="0.04" stop-color="#9B8BF9"/>
<stop offset="0.93" stop-color="#7C67F9" stop-opacity="0"/>
</radialGradient>
<radialGradient id="paint2_radial_92_1339" cx="0" cy="0" r="1" gradientUnits="userSpaceOnUse" gradientTransform="translate(447.8 34.5854) scale(367.039 146.272)">
<stop offset="0.04" stop-color="#9B8BF9"/>
<stop offset="0.93" stop-color="#7C67F9" stop-opacity="0"/>
</radialGradient>
<radialGradient id="paint3_radial_92_1339" cx="0" cy="0" r="1" gradientUnits="userSpaceOnUse" gradientTransform="translate(348.332 34.5854) scale(367.039 146.272)">
<stop offset="0.04" stop-color="#9B8BF9"/>
<stop offset="0.93" stop-color="#7C67F9" stop-opacity="0"/>
</radialGradient>
<radialGradient id="paint4_radial_92_1339" cx="0" cy="0" r="1" gradientUnits="userSpaceOnUse" gradientTransform="translate(447.8 42.1286) scale(367.039 146.272)">
<stop offset="0.04" stop-color="#9B8BF9"/>
<stop offset="0.93" stop-color="#7C67F9" stop-opacity="0"/>
</radialGradient>
<radialGradient id="paint5_radial_92_1339" cx="0" cy="0" r="1" gradientUnits="userSpaceOnUse" gradientTransform="translate(348.332 42.1286) scale(367.039 146.272)">
<stop offset="0.04" stop-color="#9B8BF9"/>
<stop offset="0.93" stop-color="#7C67F9" stop-opacity="0"/>
</radialGradient>
<radialGradient id="paint6_radial_92_1339" cx="0" cy="0" r="1" gradientUnits="userSpaceOnUse" gradientTransform="translate(398.066 49.6702) scale(319.133 127.181)">
<stop offset="0.04" stop-color="#9B8BF9"/>
<stop offset="0.93" stop-color="#7C67F9" stop-opacity="0"/>
</radialGradient>
<radialGradient id="paint7_radial_92_1339" cx="0" cy="0" r="1" gradientUnits="userSpaceOnUse" gradientTransform="translate(398.066 56.6072) scale(319.133 127.181)">
<stop offset="0.04" stop-color="#9B8BF9"/>
<stop offset="0.93" stop-color="#7C67F9" stop-opacity="0"/>
</radialGradient>
<radialGradient id="paint8_radial_92_1339" cx="0" cy="0" r="1" gradientUnits="userSpaceOnUse" gradientTransform="translate(398.066 64.1487) scale(319.133 127.181)">
<stop offset="0.04" stop-color="#9B8BF9"/>
<stop offset="0.93" stop-color="#7C67F9" stop-opacity="0"/>
</radialGradient>
<radialGradient id="paint9_radial_92_1339" cx="0" cy="0" r="1" gradientUnits="userSpaceOnUse" gradientTransform="translate(398.066 71.6919) scale(319.133 127.18)">
<stop offset="0.04" stop-color="#9B8BF9"/>
<stop offset="0.93" stop-color="#7C67F9" stop-opacity="0"/>
</radialGradient>
<radialGradient id="paint10_radial_92_1339" cx="0" cy="0" r="1" gradientUnits="userSpaceOnUse" gradientTransform="translate(398.066 79.2336) scale(319.133 127.18)">
<stop offset="0.04" stop-color="#9B8BF9"/>
<stop offset="0.93" stop-color="#7C67F9" stop-opacity="0"/>
</radialGradient>
<radialGradient id="paint11_radial_92_1339" cx="0" cy="0" r="1" gradientUnits="userSpaceOnUse" gradientTransform="translate(398.066 87.178) scale(319.133 127.181)">
<stop offset="0.04" stop-color="#9B8BF9"/>
<stop offset="0.93" stop-color="#7C67F9" stop-opacity="0"/>
</radialGradient>
<radialGradient id="paint12_radial_92_1339" cx="0" cy="0" r="1" gradientUnits="userSpaceOnUse" gradientTransform="translate(398.066 94.7195) scale(319.133 127.181)">
<stop offset="0.04" stop-color="#9B8BF9"/>
<stop offset="0.93" stop-color="#7C67F9" stop-opacity="0"/>
</radialGradient>
<radialGradient id="paint13_radial_92_1339" cx="0" cy="0" r="1" gradientUnits="userSpaceOnUse" gradientTransform="translate(398.066 102.263) scale(319.133 127.181)">
<stop offset="0.04" stop-color="#9B8BF9"/>
<stop offset="0.93" stop-color="#7C67F9" stop-opacity="0"/>
</radialGradient>
<radialGradient id="paint14_radial_92_1339" cx="0" cy="0" r="1" gradientUnits="userSpaceOnUse" gradientTransform="translate(398.066 109.806) scale(319.133 127.181)">
<stop offset="0.04" stop-color="#9B8BF9"/>
<stop offset="0.93" stop-color="#7C67F9" stop-opacity="0"/>
</radialGradient>
<radialGradient id="paint15_radial_92_1339" cx="0" cy="0" r="1" gradientUnits="userSpaceOnUse" gradientTransform="translate(398.066 116.741) scale(319.133 127.18)">
<stop offset="0.04" stop-color="#9B8BF9"/>
<stop offset="0.93" stop-color="#7C67F9" stop-opacity="0"/>
</radialGradient>
<radialGradient id="paint16_radial_92_1339" cx="0" cy="0" r="1" gradientUnits="userSpaceOnUse" gradientTransform="translate(398.066 124.283) scale(319.133 127.18)">
<stop offset="0.04" stop-color="#9B8BF9"/>
<stop offset="0.93" stop-color="#7C67F9" stop-opacity="0"/>
</radialGradient>
<radialGradient id="paint17_radial_92_1339" cx="0" cy="0" r="1" gradientUnits="userSpaceOnUse" gradientTransform="translate(398.066 131.826) scale(319.133 127.18)">
<stop offset="0.04" stop-color="#9B8BF9"/>
<stop offset="0.93" stop-color="#7C67F9" stop-opacity="0"/>
</radialGradient>
<radialGradient id="paint18_radial_92_1339" cx="0" cy="0" r="1" gradientUnits="userSpaceOnUse" gradientTransform="translate(398.066 139.369) scale(319.133 127.18)">
<stop offset="0.04" stop-color="#9B8BF9"/>
<stop offset="0.93" stop-color="#7C67F9" stop-opacity="0"/>
</radialGradient>
</defs>
</svg>
