<svg width="789" height="201" viewBox="0 0 789 201" fill="none" xmlns="http://www.w3.org/2000/svg">
<path d="M733.703 4.14343C732.448 2.46539 730.529 1.5 728.433 1.5H59.5831C57.4866 1.5 55.5683 2.46125 54.3128 4.14343C53.0574 5.82147 52.6804 7.9387 53.277 9.94821L77.1176 157.984C77.938 160.756 80.5317 162.691 83.4237 162.691H702.521C705.413 162.691 708.006 160.756 708.827 157.984L734.739 9.94821C735.336 7.9387 734.959 5.82147 733.703 4.14343Z" fill="#0B052D"/>
<path d="M733.703 4.14343C732.448 2.46539 730.529 1.5 728.433 1.5H59.5831C57.4866 1.5 55.5683 2.46125 54.3128 4.14343C53.0574 5.82147 52.6804 7.9387 53.277 9.94821L76.9436 156.377C77.6935 160.321 80.5772 162.695 84.6667 162.695H700.863C703.755 162.695 708.578 161.614 709.655 156.331L734.739 9.95235C735.336 7.94285 734.959 5.82562 733.703 4.14758V4.14343Z" stroke="#CBCAFF" stroke-width="3" stroke-miterlimit="10"/>
<path d="M730.881 6.25231C730.297 5.47337 729.406 5.02588 728.433 5.02588H59.5831C58.6094 5.02588 57.7186 5.47337 57.1344 6.25231C56.5502 7.03125 56.3761 8.01736 56.6537 8.9496L79.6574 154.164C80.5316 157.114 83.2911 159.173 86.3695 159.173H186.501L192.741 147.34C194.249 144.481 196.387 144.345 199.623 144.345L587.457 143.516C590.962 143.516 594.128 145.617 595.487 148.844L601.022 159.169H699.575C702.653 159.169 705.413 157.11 706.287 154.16L731.362 8.94546C731.64 8.01321 731.461 7.03124 730.881 6.24816V6.25231Z" fill="#4E27C4"/>
<path d="M55.0421 6.26058C55.6263 5.48164 56.5171 5.03418 57.4908 5.03418H139.843L143.158 159.182H85.5161C82.4376 159.182 79.6782 157.123 78.804 154.172L54.5573 8.95788C54.2797 8.02563 54.4579 7.03952 55.038 6.26058H55.0421Z" fill="url(#paint0_linear_99_2410)"/>
<path d="M731.366 6.26058C730.782 5.48164 729.891 5.03418 728.918 5.03418H646.565L642.422 159.182H700.059C703.138 159.182 705.897 157.123 706.772 154.172L731.847 8.95788C732.124 8.02563 731.946 7.04367 731.366 6.26058Z" fill="url(#paint1_linear_99_2410)"/>
<path d="M705.877 155.324C705.773 155.606 705.636 155.88 705.45 156.128C704.866 156.907 703.975 157.355 703.001 157.355H601.954C601.005 157.355 600.148 156.828 599.725 155.975L597.384 151.289C594.877 146.28 592.329 143.164 586.728 143.164H200.559C194.957 143.164 192.405 146.275 189.902 151.289L187.561 155.975C187.135 156.824 186.281 157.355 185.332 157.355H83.0424C82.0688 157.355 81.1779 156.907 80.5937 156.128C80.4073 155.88 80.2664 155.606 80.167 155.324L80.1131 155.507C79.8355 156.439 80.0137 157.421 80.5937 158.204C81.1779 158.983 82.0688 159.43 83.0424 159.43H185.332C186.281 159.43 187.139 158.904 187.561 158.051L189.902 153.365C192.409 148.355 194.957 145.24 200.559 145.24H586.723C592.325 145.24 594.877 148.351 597.38 153.365L599.721 158.051C600.148 158.9 601.001 159.43 601.95 159.43H702.997C703.971 159.43 704.861 158.983 705.446 158.204C706.03 157.425 706.204 156.439 705.926 155.507L705.872 155.324H705.877Z" fill="#7764FF"/>
<path d="M730.881 6.25231C730.297 5.47337 729.406 5.02588 728.433 5.02588H59.5831C58.6094 5.02588 57.7186 5.47337 57.1344 6.25231C56.633 6.92352 56.4342 7.74804 56.5667 8.55598C56.6165 8.47726 56.6662 8.39854 56.72 8.32396C57.3043 7.54502 58.1951 7.09753 59.1687 7.09753H728.018C728.992 7.09753 729.883 7.54502 730.467 8.32396C731.051 9.1029 731.225 10.089 730.948 11.0213L731.362 8.9496C731.64 8.01736 731.461 7.03539 730.881 6.25231Z" fill="#7764FF"/>
<path opacity="0.3" d="M732 145.816V141.948H711.72V138.772H718.832V134.905H711.72V131.219H718.832V127.351H711.72V123.665H718.832V119.798H711.72V116.112H718.832V112.244H711.72V108.558H718.832V104.691H711.72V101.004H718.832V97.1371H711.72V93.4508H718.832V89.5835H711.72V85.8972H718.832V82.0299H711.72V78.3436H718.832V74.4763H711.72V70.79H718.832V66.9227H711.72V63.2365H718.832V59.3691H711.72V55.6829H718.832V51.8156H711.72V48.1293H718.832V44.262H711.72V40.5757H718.832V36.7084H711.72V33.0221H718.832V29.1548H711.72V25.4685H718.832V21.6012H711.72V17.9149H718.832V14.0476H711.72V10.3613H718.832V6.50226H711.72V5.09521H700.057V6.50226H56.315V6.53105H56V153.456H69.0847V153.164H180.925C181.613 151.864 182.292 150.559 183.042 149.296H69.0847V145.812H184.655C185.343 144.512 186.022 143.207 186.773 141.944H69.0847V138.768H700.057V141.944H589.684C590.667 143.174 591.549 144.475 592.366 145.812H700.057V149.296H589.684C590.667 150.526 591.549 151.827 592.366 153.164H700.057V163.095H711.72V153.164H732V149.296H711.72V145.812H732V145.816ZM69.0847 10.3737H700.057V14.06H69.0847V10.3737ZM69.0847 17.9231H700.057V21.6094H69.0847V17.9231ZM69.0847 25.4767H700.057V29.163H69.0847V25.4767ZM69.0847 33.0303H700.057V36.7166H69.0847V33.0303ZM69.0847 40.5839H700.057V44.2702H69.0847V40.5839ZM69.0847 48.1375H700.057V51.8238H69.0847V48.1375ZM69.0847 55.687H700.057V59.3733H69.0847V55.687ZM69.0847 63.2406H700.057V66.9268H69.0847V63.2406ZM69.0847 70.7942H700.057V74.4804H69.0847V70.7942ZM69.0847 78.3477H700.057V82.034H69.0847V78.3477ZM69.0847 85.9013H700.057V89.5876H69.0847V85.9013ZM69.0847 93.4549H700.057V97.1412H69.0847V93.4549ZM69.0847 101.004H700.057V104.691H69.0847V101.004ZM69.0847 108.558H700.057V112.244H69.0847V108.558ZM69.0847 116.112H700.057V119.798H69.0847V116.112ZM69.0847 123.665H700.057V127.351H69.0847V123.665ZM69.0847 134.901V131.215H700.057V134.901H69.0847Z" fill="url(#paint2_radial_99_2410)"/>
<path d="M68.323 144.529L48.3053 22.5017C47.8304 19.628 45.6954 17.0952 42.704 17.0952H7.31435C5.28084 17.0952 3.28386 17.5539 1.74553 19.3195C0.410148 20.8578 -0.247396 22.8305 0.0854348 24.8315L20.6885 146.859C21.2364 150.167 24.0695 152.565 27.4262 152.565H62.0853C64.1188 152.565 65.4534 151.672 66.7725 150.118C68.0876 148.567 68.6518 146.53 68.323 144.529Z" fill="#D9D9FF"/>
<path d="M6.51078 17.6025C2.75223 17.6025 -0.125541 20.9917 0.487354 24.6975L20.6845 145.507C21.1675 148.413 23.6718 150.536 26.6227 150.536H61.2817C65.0402 150.536 67.918 147.147 67.3051 143.445L47.5139 22.6356C47.0877 20.0663 45.111 17.6797 42.5782 17.6066C40.9912 17.5579 6.51078 17.6066 6.51078 17.6066V17.6025Z" fill="#111147"/>
<path d="M47.5057 23.4474C47.0876 20.9146 45.1028 18.9257 42.5741 18.5036C42.4483 18.4914 41.6325 18.4874 40.2849 18.4752L38.5883 18.459L38.5802 18.4143H26.8458C26.8458 18.4143 26.8377 18.4143 26.8337 18.4143H6.91253C5.12255 18.4143 3.42593 19.2017 2.26102 20.5696C1.09612 21.9374 0.59687 23.7396 0.889111 25.5093L20.6844 145.503C21.1674 148.421 23.6637 150.942 26.6226 150.942H61.2816C63.0716 150.942 64.7682 150.154 65.9331 148.786C67.098 147.415 67.5973 146.022 67.3051 144.253L47.5057 23.4474Z" fill="#341596"/>
<path d="M720.092 144.529L740.109 22.5017C740.584 19.628 742.719 17.0952 745.711 17.0952H781.1C783.134 17.0952 785.131 17.5539 786.669 19.3195C788.005 20.8578 788.662 22.8305 788.329 24.8315L767.726 146.859C767.178 150.167 764.345 152.565 760.988 152.565H726.329C724.296 152.565 722.961 151.672 721.642 150.118C720.327 148.567 719.763 146.53 720.092 144.529Z" fill="#D9D9FF"/>
<path d="M781.904 17.6025C785.662 17.6025 788.54 20.9917 787.927 24.6975L767.73 145.507C767.247 148.413 764.743 150.536 761.792 150.536H727.133C723.374 150.536 720.497 147.147 721.11 143.445L740.901 22.6356C741.327 20.0663 743.304 17.6797 745.836 17.6066C747.423 17.5579 781.904 17.6066 781.904 17.6066V17.6025Z" fill="#111147"/>
<path d="M740.909 23.4474C741.327 20.9146 743.312 18.9257 745.841 18.5036C745.966 18.4914 746.782 18.4874 748.13 18.4752L749.826 18.459L749.835 18.4143H761.569C761.569 18.4143 761.577 18.4143 761.581 18.4143H781.502C783.292 18.4143 784.989 19.2017 786.154 20.5696C787.319 21.9374 787.818 23.7396 787.526 25.5093L767.73 145.503C767.247 148.421 764.751 150.942 761.792 150.942H727.133C725.343 150.942 723.646 150.154 722.482 148.786C721.317 147.415 720.817 146.022 721.11 144.253L740.909 23.4474Z" fill="#341596"/>
<path d="M609.742 190.249L609.687 189.958L608.252 187.123L595.379 155.366L595.325 155.245C593.667 151.802 589.619 148.095 584.656 148.095H203.53C199.365 148.095 195.75 150.546 193.354 154.99L193.304 155.08L179.609 187.968L178.632 189.891C177.538 191.908 177.972 195.785 179.108 197.935C180.101 199.818 181.42 200.095 182.121 200.095H606.144C607.091 200.095 607.968 199.63 608.611 198.781C610.23 196.643 610.167 192.418 609.746 190.253L609.742 190.249Z" fill="#0B052D"/>
<path d="M182.117 196.965C182.092 196.965 181.896 196.858 181.65 196.393C180.836 194.85 180.748 192.19 181.157 191.461L196.826 160.683L196.847 160.625C198.141 157.262 200.98 155.254 204.44 155.254H583.816C588.233 155.254 590.691 158.094 591.459 160.522L591.488 160.611L606.911 191.04C607.275 193.115 607.003 195.928 606.344 196.8C606.223 196.956 606.164 196.956 606.143 196.956H182.117V196.965Z" fill="#00B7FF"/>
<path d="M583.816 156.372C587.677 156.372 589.815 158.8 590.47 160.88L590.528 161.063L590.616 161.233L605.914 191.421C606.173 193.093 605.972 195.056 605.663 195.843H182.547C182.088 195.016 181.775 192.744 182.063 192.006L182.071 191.988L182.092 191.948L197.716 161.273L197.77 161.166L197.812 161.054C199.435 156.828 202.987 156.372 204.44 156.372H583.816ZM583.816 154.136H204.44C200.988 154.136 197.494 156.001 195.883 160.2L180.264 190.884C179.304 192.597 180.21 198.083 182.117 198.083H606.139C608.047 198.083 608.422 193.334 607.901 190.665L592.444 160.169C591.434 156.967 588.395 154.136 583.812 154.136H583.816Z" fill="#00B7FF"/>
<path d="M182.877 192.941C182.338 192.941 181.867 192.655 181.612 192.172C181.374 191.725 181.382 191.215 181.629 190.772L181.662 190.714L195.908 156.511C197.787 153.054 200.425 151.23 203.53 151.23H584.651C588.934 151.23 591.781 154.758 592.707 156.654L606.515 190.71L606.548 190.772C606.795 191.215 606.803 191.725 606.565 192.172C606.31 192.655 605.839 192.941 605.3 192.941H182.877Z" fill="#00E7FF"/>
<path d="M584.651 152.348C588.141 152.348 590.8 155.187 591.764 157.137L605.53 191.09L605.584 191.224L605.655 191.349C605.68 191.398 605.73 191.483 605.659 191.622C605.609 191.711 605.509 191.823 605.305 191.823H182.877C182.672 191.823 182.568 191.716 182.522 191.622C182.451 191.488 182.501 191.398 182.526 191.349L182.593 191.233L182.643 191.107L196.835 157.025C198.02 154.87 200.132 152.348 203.526 152.348H584.647M584.651 150.112H203.53C200.078 150.112 197.069 152.124 194.977 156.001L180.736 190.195C179.776 191.908 180.965 194.054 182.877 194.054H605.305C607.212 194.054 608.406 191.908 607.446 190.195L593.651 156.171C592.49 153.761 589.23 150.112 584.651 150.112Z" fill="#97FAFF"/>
<defs>
<linearGradient id="paint0_linear_99_2410" x1="110.786" y1="80.5211" x2="64.6256" y2="87.4445" gradientUnits="userSpaceOnUse">
<stop stop-color="#4E27C4" stop-opacity="0"/>
<stop offset="1" stop-color="#291466"/>
</linearGradient>
<linearGradient id="paint1_linear_99_2410" x1="675.614" y1="80.5832" x2="721.77" y2="87.5067" gradientUnits="userSpaceOnUse">
<stop stop-color="#4E27C4" stop-opacity="0"/>
<stop offset="1" stop-color="#291466"/>
</linearGradient>
<radialGradient id="paint2_radial_99_2410" cx="0" cy="0" r="1" gradientUnits="userSpaceOnUse" gradientTransform="translate(389.679 73.377) scale(316.57 125.696)">
<stop offset="0.05" stop-color="#5740FF"/>
<stop offset="0.12" stop-color="#5841FE" stop-opacity="0.97"/>
<stop offset="0.21" stop-color="#5A44FE" stop-opacity="0.9"/>
<stop offset="0.33" stop-color="#5F48FD" stop-opacity="0.77"/>
<stop offset="0.47" stop-color="#654FFC" stop-opacity="0.6"/>
<stop offset="0.61" stop-color="#6D58FB" stop-opacity="0.38"/>
<stop offset="0.76" stop-color="#7762F9" stop-opacity="0.11"/>
<stop offset="0.82" stop-color="#7C67F9" stop-opacity="0"/>
</radialGradient>
</defs>
</svg>
