<?xml version="1.0" encoding="UTF-8"?>
<svg id="Camada_1" xmlns="http://www.w3.org/2000/svg" xmlns:xlink="http://www.w3.org/1999/xlink" version="1.1" viewBox="0 0 969.7 201">
  <!-- Generator: Adobe Illustrator 30.0.0, SVG Export Plug-In . SVG Version: 2.1.1 Build 123)  -->
  <defs>
    <style>
      .st0 {
        fill: #0b052d;
      }

      .st1 {
        fill: #d9d9ff;
      }

      .st2 {
        fill: #4e27c4;
      }

      .st3 {
        fill: url(#Gradiente_sem_nome_51);
      }

      .st4 {
        fill: url(#Gradiente_sem_nome_3);
        isolation: isolate;
        opacity: .3;
      }

      .st5 {
        fill: url(#Gradiente_sem_nome_5);
      }

      .st6 {
        fill: #111147;
      }

      .st7 {
        fill: #00e7ff;
      }

      .st8 {
        fill: #341596;
      }

      .st9 {
        fill: #7764ff;
      }

      .st10 {
        fill: #97faff;
      }

      .st11 {
        fill: none;
        stroke: #cbcaff;
        stroke-miterlimit: 10;
        stroke-width: 3px;
      }

      .st12 {
        fill: #00b7ff;
      }
    </style>
    <linearGradient id="Gradiente_sem_nome_5" data-name="Gradiente sem nome 5" x1="111.7" y1="121" x2="65.6" y2="114.1" gradientTransform="translate(0 202) scale(1 -1)" gradientUnits="userSpaceOnUse">
      <stop offset="0" stop-color="#4e27c4" stop-opacity="0"/>
      <stop offset="1" stop-color="#291466"/>
    </linearGradient>
    <linearGradient id="Gradiente_sem_nome_51" data-name="Gradiente sem nome 5" x1="856.6" y1="121" x2="902.7" y2="114" xlink:href="#Gradiente_sem_nome_5"/>
    <radialGradient id="Gradiente_sem_nome_3" data-name="Gradiente sem nome 3" cx="-422.7" cy="1589.9" fx="-422.7" fy="1589.9" r="1.2" gradientTransform="translate(134296.9 199913.7) scale(316.6 -125.7)" gradientUnits="userSpaceOnUse">
      <stop offset="0" stop-color="#5740ff"/>
      <stop offset=".1" stop-color="#5841fe" stop-opacity="1"/>
      <stop offset=".2" stop-color="#5a44fe" stop-opacity=".9"/>
      <stop offset=".3" stop-color="#5f48fd" stop-opacity=".8"/>
      <stop offset=".5" stop-color="#654ffc" stop-opacity=".6"/>
      <stop offset=".6" stop-color="#6d58fb" stop-opacity=".4"/>
      <stop offset=".8" stop-color="#7762f9" stop-opacity=".1"/>
      <stop offset=".8" stop-color="#7c67f9" stop-opacity="0"/>
    </radialGradient>
  </defs>
  <path class="st0" d="M914.7,4.6c-1.3-1.7-3.2-2.6-5.3-2.6H60.5c-2.1,0-4,1-5.3,2.6-1.3,1.7-1.6,3.8-1,5.8l23.8,148c.8,2.8,3.4,4.7,6.3,4.7h799.1c2.9,0,5.5-1.9,6.3-4.7l25.9-148c.6-2,.2-4.1-1-5.8Z"/>
  <path class="st11" d="M914.7,4.6c-1.3-1.7-3.2-2.6-5.3-2.6H60.5c-2.1,0-4,1-5.3,2.6-1.3,1.7-1.6,3.8-1,5.8l23.7,146.4c.7,3.9,3.6,6.3,7.7,6.3h796.2c2.9,0,7.7-1.1,8.8-6.4l25.1-146.4c.6-2,.2-4.1-1-5.8h0Z"/>
  <path class="st2" d="M911.8,6.7c-.6-.8-1.5-1.2-2.4-1.2H60.5c-1,0-1.9.4-2.4,1.2-.6.8-.8,1.8-.5,2.7l23,145.2c.9,2.9,3.6,5,6.7,5h100.1l6.2-11.8c1.5-2.9,3.6-3,6.9-3l567.8-.8c3.5,0,6.7,2.1,8,5.3l5.5,10.3h98.6c3.1,0,5.8-2.1,6.7-5l25.1-145.2c.3-.9,0-1.9-.5-2.7h0Z"/>
  <path class="st5" d="M56,6.7c.6-.8,1.5-1.2,2.4-1.2h82.4l3.3,154.1h-57.6c-3.1,0-5.8-2.1-6.7-5L55.5,9.4c-.3-.9,0-1.9.5-2.7h0Z"/>
  <path class="st3" d="M912.3,6.7c-.6-.8-1.5-1.2-2.4-1.2h-82.4l-4.1,154.1h57.6c3.1,0,5.8-2.1,6.7-5l25.1-145.2c.3-.9,0-1.9-.5-2.7Z"/>
  <path class="st9" d="M886.8,155.8c-.1.3-.2.6-.4.8-.6.8-1.5,1.2-2.4,1.2h-101c-.9,0-1.8-.5-2.2-1.4l-2.3-4.7c-2.5-5-5.1-8.1-10.7-8.1H201.5c-5.6,0-8.2,3.1-10.7,8.1l-2.3,4.7c-.4.8-1.3,1.4-2.2,1.4h-102.3c-1,0-1.9-.4-2.4-1.2-.2-.2-.3-.5-.4-.8v.2c-.3.9-.2,1.9.4,2.7.6.8,1.5,1.2,2.4,1.2h102.3c.9,0,1.8-.5,2.2-1.4l2.3-4.7c2.5-5,5.1-8.1,10.7-8.1h566.2c5.6,0,8.2,3.1,10.7,8.1l2.3,4.7c.4.8,1.3,1.4,2.2,1.4h101c1,0,1.9-.4,2.4-1.2.6-.8.8-1.8.5-2.7v-.2c0,0,0,0,0,0Z"/>
  <path class="st9" d="M911.8,6.7c-.6-.8-1.5-1.2-2.4-1.2H60.5c-1,0-1.9.4-2.4,1.2-.5.7-.7,1.5-.6,2.3,0,0,0-.2.2-.2.6-.8,1.5-1.2,2.4-1.2h848.8c1,0,1.9.4,2.4,1.2.6.8.8,1.8.5,2.7l.4-2.1c.3-.9,0-1.9-.5-2.7Z"/>
  <path class="st4" d="M913,146.3v-3.9h-20.3v-3.2h7.1v-3.9h-7.1v-3.7h7.1v-3.9h-7.1v-3.7h7.1v-3.9h-7.1v-3.7h7.1v-3.9h-7.1v-3.7h7.1v-3.9h-7.1v-3.7h7.1v-3.9h-7.1v-3.7h7.1v-3.9h-7.1v-3.7h7.1v-3.9h-7.1v-3.7h7.1v-3.9h-7.1v-3.7h7.1v-3.9h-7.1v-3.7h7.1v-3.9h-7.1v-3.7h7.1v-3.9h-7.1v-3.7h7.1v-3.9h-7.1v-3.7h7.1v-3.9h-7.1v-3.7h7.1v-3.9h-7.1v-3.7h7.1v-3.9h-7.1v-3.7h7.1v-3.9h-7.1v-3.7h7.1v-3.9h-7.1v-1.4h-11.7v1.4H57.3s-.3,0-.3,0v146.9h13.1v-.3h111.8c.7-1.3,1.4-2.6,2.1-3.9h-114v-3.5h115.6c.7-1.3,1.4-2.6,2.1-3.9h-117.7v-3.2h811v3.2h-110.4c1,1.2,1.9,2.5,2.7,3.9h107.7v3.5h-110.4c1,1.2,1.9,2.5,2.7,3.9h107.7v9.9h11.7v-9.9h20.3v-3.9h-20.3v-3.5h20.3ZM70,10.8h811v3.7H70v-3.7ZM70,18.4h811v3.7H70v-3.7ZM70,25.9h811v3.7H70v-3.7ZM70,33.5h811v3.7H70v-3.7ZM70,41h811v3.7H70v-3.7ZM70,48.6h811v3.7H70v-3.7ZM70,56.1h811v3.7H70v-3.7ZM70,63.7h811v3.7H70v-3.7ZM70,71.2h811v3.7H70v-3.7ZM70,78.8h811v3.7H70v-3.7ZM70,86.4h811v3.7H70v-3.7ZM70,93.9h811v3.7H70v-3.7ZM70,101.5h811v3.7H70v-3.7ZM70,109h811v3.7H70v-3.7ZM70,116.6h811v3.7H70v-3.7ZM70,124.1h811v3.7H70v-3.7ZM70,135.4v-3.7h811v3.7H70Z"/>
  <path class="st1" d="M69.3,145L49.3,23c-.5-2.9-2.6-5.4-5.6-5.4H8.3c-2,0-4,.5-5.6,2.2-1.3,1.5-2,3.5-1.7,5.5l20.6,122c.5,3.3,3.4,5.7,6.7,5.7h34.7c2,0,3.4-.9,4.7-2.4,1.3-1.6,1.9-3.6,1.6-5.6Z"/>
  <path class="st6" d="M7.5,18.1c-3.8,0-6.6,3.4-6,7.1l20.2,120.8c.5,2.9,3,5,5.9,5h34.7c3.8,0,6.6-3.4,6-7.1L48.5,23.1c-.4-2.6-2.4-5-4.9-5-1.6,0-36.1,0-36.1,0h0Z"/>
  <path class="st8" d="M48.5,23.9c-.4-2.5-2.4-4.5-4.9-4.9-.1,0-.9,0-2.3,0h-1.7s0,0,0,0H7.9c-1.8,0-3.5.8-4.7,2.2-1.2,1.4-1.7,3.2-1.4,4.9l19.8,120c.5,2.9,3,5.4,5.9,5.4h34.7c1.8,0,3.5-.8,4.7-2.2,1.2-1.4,1.7-2.8,1.4-4.5L48.5,23.9Z"/>
  <path class="st1" d="M901.1,145l20-122c.5-2.9,2.6-5.4,5.6-5.4h35.4c2,0,4,.5,5.6,2.2,1.3,1.5,2,3.5,1.7,5.5l-20.6,122c-.5,3.3-3.4,5.7-6.7,5.7h-34.7c-2,0-3.4-.9-4.7-2.4-1.3-1.6-1.9-3.6-1.6-5.6Z"/>
  <path class="st6" d="M962.9,18.1c3.8,0,6.6,3.4,6,7.1l-20.2,120.8c-.5,2.9-3,5-5.9,5h-34.7c-3.8,0-6.6-3.4-6-7.1l19.8-120.8c.4-2.6,2.4-5,4.9-5,1.6,0,36.1,0,36.1,0h0Z"/>
  <path class="st8" d="M921.9,23.9c.4-2.5,2.4-4.5,4.9-4.9.1,0,.9,0,2.3,0h1.7s0,0,0,0h31.7c1.8,0,3.5.8,4.7,2.2,1.2,1.4,1.7,3.2,1.4,4.9l-19.8,120c-.5,2.9-3,5.4-5.9,5.4h-34.7c-1.8,0-3.5-.8-4.7-2.2-1.2-1.4-1.7-2.8-1.4-4.5l19.8-120.8Z"/>
  <path class="st0" d="M790.7,190.7v-.3c0,0-1.5-2.8-1.5-2.8l-12.9-31.8h0c-1.7-3.6-5.7-7.3-10.7-7.3H204.5c-4.2,0-7.8,2.5-10.2,6.9h0c0,0-13.7,33-13.7,33l-1,1.9c-1.1,2-.7,5.9.5,8,1,1.9,2.3,2.2,3,2.2h604c.9,0,1.8-.5,2.5-1.3,1.6-2.1,1.6-6.4,1.1-8.5h0Z"/>
  <path class="st12" d="M183.1,197.4s-.2-.1-.5-.6c-.8-1.5-.9-4.2-.5-4.9l15.7-30.8h0c1.3-3.4,4.1-5.4,7.6-5.4h559.4c4.4,0,6.9,2.8,7.6,5.3h0c0,0,15.4,30.5,15.4,30.5.4,2.1,0,4.9-.6,5.8-.1.2-.2.2-.2.2H183.1Z"/>
  <path class="st12" d="M764.8,156.8c3.9,0,6,2.4,6.7,4.5v.2c0,0,.1.2.1.2l15.3,30.2c.3,1.7,0,3.6-.3,4.4H183.5c-.5-.8-.8-3.1-.5-3.8h0s0,0,0,0l15.6-30.7h0c0-.1,0-.2,0-.2,1.6-4.2,5.2-4.7,6.6-4.7h559.4ZM764.8,154.6H205.4c-3.5,0-6.9,1.9-8.6,6.1l-15.6,30.7c-1,1.7,0,7.2,1.9,7.2h604c1.9,0,2.3-4.7,1.8-7.4l-15.5-30.5c-1-3.2-4-6-8.6-6h0Z"/>
  <path class="st7" d="M183.8,193.4c-.5,0-1-.3-1.3-.8-.2-.4-.2-1,0-1.4h0c0,0,14.2-34.3,14.2-34.3,1.9-3.5,4.5-5.3,7.6-5.3h561.1c4.3,0,7.1,3.5,8.1,5.4l13.8,34.1h0c.2.5.3,1,0,1.5-.3.5-.7.8-1.3.8H183.8Z"/>
  <path class="st10" d="M765.6,152.8c3.5,0,6.1,2.8,7.1,4.8l13.8,34h0c0,.1,0,.3,0,.3,0,0,0,.1,0,.3,0,0-.2.2-.4.2H183.8c-.2,0-.3-.1-.4-.2,0-.1,0-.2,0-.3h0c0-.1,0-.2,0-.2l14.2-34.1c1.2-2.2,3.3-4.7,6.7-4.7h561.1M765.6,150.6H204.5c-3.5,0-6.5,2-8.6,5.9l-14.2,34.2c-1,1.7.2,3.9,2.1,3.9h602.4c1.9,0,3.1-2.1,2.1-3.9l-13.8-34c-1.2-2.4-4.4-6.1-9-6.1Z"/>
</svg>