<svg width="391" height="237" viewBox="0 0 391 237" fill="none" xmlns="http://www.w3.org/2000/svg">
<path d="M376.47 234.276H14.4554C7.16938 234.276 1.24414 228.501 1.24414 221.408V13.463C1.24414 6.36978 7.16938 0.594482 14.4554 0.594482H376.47C383.756 0.594482 389.681 6.366 389.681 13.463V221.404C389.681 228.501 383.752 234.273 376.47 234.273V234.276ZM14.4554 10.4409C12.7447 10.4409 11.3528 11.7967 11.3528 13.463V221.404C11.3528 223.07 12.7447 224.426 14.4554 224.426H376.47C378.181 224.426 379.573 223.07 379.573 221.404V13.463C379.573 11.7967 378.181 10.4409 376.47 10.4409H14.4554Z" fill="#850093"/>
<path d="M376.47 233.14H14.4553C7.81465 233.14 2.4104 227.876 2.4104 221.408V13.4631C2.4104 6.99476 7.81465 1.73071 14.4553 1.73071H376.47C383.111 1.73071 388.515 6.99476 388.515 13.4631V221.404C388.515 227.873 383.111 233.137 376.47 233.137V233.14ZM14.4553 9.30488C12.0992 9.30488 10.1863 11.1719 10.1863 13.4631V221.404C10.1863 223.699 12.1031 225.562 14.4553 225.562H376.47C378.826 225.562 380.739 223.695 380.739 221.404V13.4631C380.739 11.1681 378.822 9.30488 376.47 9.30488H14.4553Z" fill="#C800D8"/>
<path d="M376.47 231.626H14.4553C8.67 231.626 3.96558 227.043 3.96558 221.408V13.463C3.96558 7.82785 8.67 3.24548 14.4553 3.24548H376.47C382.255 3.24548 386.96 7.82785 386.96 13.463V221.404C386.96 227.039 382.255 231.622 376.47 231.622V231.626ZM14.4553 7.78998C11.2438 7.78998 8.63112 10.3349 8.63112 13.463V221.404C8.63112 224.532 11.2438 227.077 14.4553 227.077H376.47C379.682 227.077 382.294 224.532 382.294 221.404V13.463C382.294 10.3349 379.682 7.78998 376.47 7.78998H14.4553Z" fill="#E72EED"/>
<path d="M376.47 230.111H14.4553C9.52923 230.111 5.52075 226.206 5.52075 221.408V13.4631C5.52075 8.66486 9.52923 4.76038 14.4553 4.76038H376.47C381.396 4.76038 385.405 8.66486 385.405 13.4631V221.404C385.405 226.202 381.396 230.107 376.47 230.107V230.111ZM14.4553 6.27521C10.3846 6.27521 7.07593 9.5018 7.07593 13.4631V221.404C7.07593 225.369 10.3885 228.592 14.4553 228.592H376.47C380.541 228.592 383.849 225.366 383.849 221.404V13.4631C383.849 9.49802 380.537 6.27521 376.47 6.27521H14.4553Z" fill="#FBB3FF"/>
<g opacity="0.6">
<g opacity="0.5">
<path d="M12.4842 115.745H0V119.111H12.4842V115.745Z" fill="#290A49"/>
</g>
<g opacity="0.5">
<path d="M12.4842 112.393H0V115.76H12.4842V112.393Z" fill="white"/>
</g>
<g opacity="0.5">
<path d="M12.4842 119.111H0V122.478H12.4842V119.111Z" fill="white"/>
</g>
<g opacity="0.5">
<path d="M390.84 115.745H378.356V119.111H390.84V115.745Z" fill="#290A49"/>
</g>
<g opacity="0.5">
<path d="M390.84 112.393H378.356V115.76H390.84V112.393Z" fill="white"/>
</g>
<g opacity="0.5">
<path d="M390.84 119.111H378.356V122.478H390.84V119.111Z" fill="white"/>
</g>
</g>
<g opacity="0.8">
<g opacity="0.5">
<path d="M286.942 12.1603V0L283.486 0V12.1603H286.942Z" fill="#290A49"/>
</g>
<g opacity="0.5">
<path d="M290.383 12.1603V0L286.927 0V12.1603H290.383Z" fill="white"/>
</g>
<g opacity="0.5">
<path d="M283.486 12.1603V0L280.029 0V12.1603H283.486Z" fill="white"/>
</g>
<g opacity="0.5">
<path d="M106.592 12.1603V0L103.136 0V12.1603H106.592Z" fill="#290A49"/>
</g>
<g opacity="0.5">
<path d="M110.029 12.1603V0L106.572 0V12.1603H110.029Z" fill="white"/>
</g>
<g opacity="0.5">
<path d="M103.135 12.1603V0L99.6791 0V12.1603H103.135Z" fill="white"/>
</g>
<g opacity="0.5">
<path d="M286.942 236.03V223.87H283.486V236.03H286.942Z" fill="#290A49"/>
</g>
<g opacity="0.5">
<path d="M290.379 236.034V223.873H286.923V236.034H290.379Z" fill="white"/>
</g>
<g opacity="0.5">
<path d="M283.486 236.034V223.873H280.03V236.034H283.486Z" fill="white"/>
</g>
<g opacity="0.5">
<path d="M106.592 236.034V223.873H103.136V236.034H106.592Z" fill="#290A49"/>
</g>
<g opacity="0.5">
<path d="M110.029 236.034V223.873H106.573V236.034H110.029Z" fill="white"/>
</g>
<g opacity="0.5">
<path d="M103.135 236.034V223.873H99.6791V236.034H103.135Z" fill="white"/>
</g>
</g>
</svg>
