<svg width="147" height="940" viewBox="0 0 147 940" fill="none" xmlns="http://www.w3.org/2000/svg">
<path d="M28.81 39.11C28.81 33.76 33.22 29.42 38.66 29.42H132.29C134.64 29.42 136.74 28.02 137.59 25.9L144.58 8.7C146.07 5 143.32 1 139.28 1H20.83C9.85997 1 0.999969 9.72 0.999969 20.51V124.04C0.999969 125.98 2.00996 127.79 3.69997 128.81L20.09 138.86C23.9 141.18 28.82 138.51 28.82 134.08V39.11H28.81Z" fill="#9F9FF4" stroke="#D9D9FF" stroke-width="2" stroke-miterlimit="10"/>
<path d="M29.86 899.62C29.86 905.01 34.24 909.38 39.63 909.38H132.54C134.85 909.38 136.94 910.78 137.81 912.94L144.73 930.28C146.22 933.99 143.48 938.03 139.47 938.03H21.93C11.06 938.03 2.24997 929.23 2.24997 918.37V814.05C2.24997 812.1 3.25996 810.27 4.92996 809.24L21.19 799.12C24.98 796.78 29.86 799.48 29.86 803.93V899.6H29.87V899.62H29.86Z" fill="#9F9FF4" stroke="#D9D9FF" stroke-width="2" stroke-miterlimit="10"/>
</svg>
