<svg width="147" height="940" viewBox="0 0 147 940" fill="none" xmlns="http://www.w3.org/2000/svg">
<path d="M117.333 39.11C117.333 33.76 112.923 29.42 107.483 29.42H13.8527C11.5027 29.42 9.40273 28.02 8.55273 25.9L1.56273 8.7C0.0727296 5 2.82273 1 6.86273 1H125.313C136.283 1 145.143 9.72 145.143 20.51V124.04C145.143 125.98 144.133 127.79 142.443 128.81L126.053 138.86C122.243 141.18 117.323 138.51 117.323 134.08V39.11H117.333Z" fill="#9F9FF4" stroke="#D9D9FF" stroke-width="2" stroke-miterlimit="10"/>
<path d="M116.283 899.63C116.283 905.02 111.903 909.39 106.513 909.39H13.6027C11.2927 909.39 9.20274 910.79 8.33274 912.95L1.41274 930.29C-0.0772624 934 2.66273 938.04 6.67273 938.04H124.213C135.083 938.04 143.893 929.24 143.893 918.38V814.06C143.893 812.11 142.883 810.28 141.213 809.25L124.953 799.13C121.163 796.79 116.283 799.49 116.283 803.94V899.61H116.273V899.63H116.283Z" fill="#9F9FF4" stroke="#D9D9FF" stroke-width="2" stroke-miterlimit="10"/>
</svg>
