<svg width="128" height="802" viewBox="0 0 128 802" fill="none" xmlns="http://www.w3.org/2000/svg">
<path d="M2.09204 676.573L20.6961 726.531L25.3552 720.008C26.9953 717.712 28.4396 715.529 29.7628 713.331C29.7908 713.28 29.8327 713.228 29.8886 713.158L31.3236 711.344L16.0416 670.88C15.3147 668.804 14.9467 666.611 14.9467 664.362V139.608C14.9467 137.031 15.4499 134.445 16.405 132.139L35.5681 86.7733L34.0632 84.8475C32.6887 83.0857 31.3749 81.0709 29.9305 78.5126L25.7233 71.0625L2.7816 125.584C0.987822 129.937 0.0373535 134.787 0.0373535 139.608V664.357C0.0373535 668.56 0.726909 672.67 2.09204 676.568V676.573Z" fill="#00C3FF"/>
<path d="M3.77862 675.977L21.2458 722.688L23.9109 718.963C25.5229 716.705 26.9393 714.559 28.2392 712.403C28.3091 712.291 28.3883 712.174 28.4955 712.043L29.3155 711.007L14.3642 671.475C13.5722 669.207 13.1715 666.812 13.1715 664.362V139.608C13.1715 136.797 13.7213 133.976 14.7649 131.45L33.5274 87.0543L32.6654 85.9532C31.2351 84.1165 29.8746 82.0361 28.3837 79.3981L25.9795 75.1436L4.43091 126.273C2.72565 130.41 1.82178 135.021 1.82178 139.608V664.357C1.82178 668.359 2.47872 672.266 3.77862 675.973V675.977Z" fill="#00E7FF"/>
<path d="M21.9726 719.9C23.4495 717.834 24.8659 715.707 26.1984 713.5C26.3335 713.275 26.478 713.078 26.6271 712.891L12.1091 674.609C11.2285 672.088 10.7766 669.427 10.7766 666.7V141.009C10.7766 137.884 11.3916 134.749 12.5517 131.933L30.783 89.7673C29.115 87.6307 27.6567 85.316 26.3056 82.917L6.62994 128.592C5.04116 132.444 4.20251 136.736 4.20251 141.009V666.695C4.20251 670.425 4.81286 674.066 6.02425 677.519L21.9772 719.9H21.9726Z" fill="#83F6FF"/>
<path d="M23.2726 717.159L24.4513 716.597C24.6657 716.264 24.8846 715.936 25.099 715.599L10.0825 675.893C9.09009 673.058 8.59156 670.074 8.59156 667.014V142.265C8.59156 138.76 9.28112 135.236 10.5857 132.073L29.2316 87.9539C28.7191 87.2042 28.2253 86.4358 27.7454 85.658L8.60554 130.958C7.1612 134.463 6.39709 138.371 6.39709 142.26V667.009C6.39709 670.402 6.95619 673.719 8.05576 676.858L23.2772 717.15L23.2726 717.159Z" fill="#DCFBFF"/>
<path opacity="0.3" d="M0.000128746 403.506H14.9607V399.34H0.000128746V403.506Z" fill="#290A49"/>
<path opacity="0.3" d="M0.000128746 407.647H14.9607V403.482H0.000128746V407.647Z" fill="white"/>
<path opacity="0.3" d="M0.000128746 399.34H14.9607V395.175H0.000128746V399.34Z" fill="white"/>
<path d="M34.9849 106.208V31.1402C34.9849 26.9134 38.4687 23.4816 42.7698 23.4816H116.774C118.619 23.4816 120.281 22.3767 120.966 20.6877L126.49 7.08644C127.673 4.17124 125.49 1 122.299 1H28.6748C20.0178 1 13 7.90395 13 16.4205V98.2618C13 99.7935 13.8036 101.222 15.1277 102.03L28.0812 109.972C31.0901 111.814 34.9803 109.689 34.9803 106.203L34.9849 106.208Z" fill="#6464AD" stroke="#7F7FC5" stroke-width="2" stroke-miterlimit="10"/>
<path d="M35.0532 694.871V770.501C35.0532 774.759 38.5095 778.216 42.7766 778.216H116.197C118.027 778.216 119.676 779.33 120.356 781.031L125.837 794.734C127.01 797.671 124.845 800.866 121.678 800.866H28.7928C20.2042 800.866 13.2417 793.911 13.2417 785.331V702.876C13.2417 701.333 14.039 699.894 15.3526 699.08L28.204 691.078C31.1892 689.223 35.0486 691.364 35.0486 694.875L35.0532 694.871Z" fill="#6464AD" stroke="#7F7FC5" stroke-width="2" stroke-miterlimit="10"/>
</svg>
