<svg width="128" height="802" viewBox="0 0 128 802" fill="none" xmlns="http://www.w3.org/2000/svg">
<path d="M125.726 676.573L107.122 726.531L102.463 720.008C100.823 717.712 99.3789 715.529 98.0557 713.331C98.0277 713.28 97.9858 713.228 97.9299 713.158L96.4949 711.344L111.777 670.88C112.504 668.804 112.872 666.611 112.872 664.362V139.608C112.872 137.031 112.369 134.445 111.413 132.139L92.2504 86.7733L93.7553 84.8475C95.1297 83.0857 96.4436 81.0709 97.888 78.5126L102.095 71.0625L125.037 125.584C126.831 129.937 127.781 134.787 127.781 139.608V664.357C127.781 668.56 127.092 672.67 125.726 676.568V676.573Z" fill="#00C3FF"/>
<path d="M124.04 675.977L106.573 722.688L103.908 718.963C102.296 716.705 100.879 714.559 99.5793 712.403C99.5094 712.291 99.4302 712.174 99.323 712.043L98.503 711.007L113.454 671.475C114.246 669.207 114.647 666.812 114.647 664.362V139.608C114.647 136.797 114.097 133.976 113.054 131.45L94.2911 87.0543L95.1531 85.9532C96.5834 84.1165 97.9439 82.0361 99.4348 79.3981L101.839 75.1436L123.388 126.273C125.093 130.41 125.997 135.021 125.997 139.608V664.357C125.997 668.359 125.34 672.266 124.04 675.973V675.977Z" fill="#00E7FF"/>
<path d="M105.846 719.9C104.369 717.834 102.953 715.707 101.62 713.5C101.485 713.275 101.341 713.078 101.191 712.891L115.709 674.609C116.59 672.088 117.042 669.427 117.042 666.7V141.009C117.042 137.884 116.427 134.749 115.267 131.933L97.0355 89.7673C98.7034 87.6307 100.162 85.316 101.513 82.917L121.189 128.592C122.777 132.444 123.616 136.736 123.616 141.009V666.695C123.616 670.425 123.006 674.066 121.794 677.519L105.841 719.9H105.846Z" fill="#83F6FF"/>
<path d="M104.546 717.159L103.367 716.597C103.153 716.264 102.934 715.936 102.72 715.599L117.736 675.893C118.728 673.058 119.227 670.074 119.227 667.014V142.265C119.227 138.76 118.537 135.236 117.233 132.073L98.5868 87.9539C99.0993 87.2042 99.5932 86.4358 100.073 85.658L119.213 130.958C120.657 134.463 121.421 138.371 121.421 142.26V667.009C121.421 670.402 120.862 673.719 119.763 676.858L104.541 717.15L104.546 717.159Z" fill="#DCFBFF"/>
<path opacity="0.3" d="M127.818 403.506H112.858V399.34H127.818V403.506Z" fill="#290A49"/>
<path opacity="0.3" d="M127.818 407.647H112.858V403.482H127.818V407.647Z" fill="white"/>
<path opacity="0.3" d="M127.818 399.34H112.858V395.175H127.818V399.34Z" fill="white"/>
<path d="M92.8336 106.208V31.1402C92.8336 26.9134 89.3498 23.4816 85.0487 23.4816H11.0444C9.19979 23.4816 7.5378 22.3767 6.85291 20.6877L1.32816 7.08644C0.145584 4.17124 2.32809 1 5.51966 1H99.1437C107.801 1 114.818 7.90395 114.818 16.4205V98.2618C114.818 99.7935 114.015 101.222 112.691 102.03L99.7373 109.972C96.7283 111.814 92.8382 109.689 92.8382 106.203L92.8336 106.208Z" fill="#6464AD" stroke="#7F7FC5" stroke-width="2" stroke-miterlimit="10"/>
<path d="M92.7653 694.871V770.501C92.7653 774.759 89.309 778.216 85.0418 778.216H11.6212C9.79113 778.216 8.14225 779.33 7.46276 781.031L1.98158 794.734C0.808342 797.671 2.97363 800.866 6.14003 800.866H99.0256C107.614 800.866 114.577 793.911 114.577 785.331V702.876C114.577 701.333 113.78 699.894 112.466 699.08L99.6145 691.078C96.6293 689.223 92.7698 691.364 92.7698 694.875L92.7653 694.871Z" fill="#6464AD" stroke="#7F7FC5" stroke-width="2" stroke-miterlimit="10"/>
</svg>
