<svg width="128" height="802" viewBox="0 0 128 802" fill="none" xmlns="http://www.w3.org/2000/svg">
<g clip-path="url(#clip0_93_1662)">
<path d="M2.09008 674.51L20.6901 724.47L25.3501 717.95C26.9901 715.65 28.4301 713.47 29.7601 711.27C29.7901 711.22 29.8301 711.17 29.8901 711.1L31.3201 709.29L16.0401 668.83C15.3101 666.75 14.9501 664.56 14.9501 662.31V137.55C14.9501 134.97 15.4501 132.39 16.4101 130.08L35.5701 84.71L34.0701 82.78C32.7001 81.02 31.3801 79 29.9401 76.45L25.7201 69L2.78008 123.52C0.990077 127.87 0.0400772 132.72 0.0400772 137.55V662.3C0.0400772 666.5 0.730077 670.61 2.09008 674.51Z" fill="#0095B7"/>
<path d="M3.78011 673.91L21.2501 720.62L23.9201 716.9C25.5301 714.64 26.9501 712.49 28.2501 710.34C28.3201 710.23 28.4001 710.11 28.5101 709.98L29.3301 708.95L14.3801 669.42C13.5901 667.15 13.1901 664.76 13.1901 662.31V137.55C13.1901 134.74 13.7401 131.92 14.7801 129.39L33.5301 84.9901L32.6701 83.8901C31.2401 82.0501 29.8801 79.9701 28.3901 77.3301L25.9901 73.0801L4.43011 124.21C2.72011 128.35 1.82011 132.96 1.82011 137.55V662.3C1.82011 666.3 2.48011 670.21 3.78011 673.91Z" fill="#00C0E0"/>
<path d="M21.97 717.84C23.45 715.77 24.86 713.65 26.2 711.44C26.34 711.22 26.48 711.02 26.63 710.83L12.11 672.55C11.23 670.03 10.78 667.37 10.78 664.64V138.95C10.78 135.82 11.39 132.69 12.56 129.87L30.78 87.7101C29.11 85.5701 27.65 83.2601 26.3 80.8601L6.62999 126.53C5.03999 130.38 4.19999 134.67 4.19999 138.95V664.64C4.19999 668.37 4.80999 672.01 6.01999 675.46L21.97 717.84Z" fill="#12CDF9"/>
<path d="M23.2699 715.1L24.4499 714.54C24.6599 714.21 24.8799 713.88 25.0999 713.54L10.0799 673.83C9.08994 670.99 8.58994 668.01 8.58994 664.95V140.2C8.58994 136.7 9.27994 133.17 10.5799 130.01L29.2299 85.8901C28.7199 85.1401 28.2199 84.3701 27.7399 83.5901L8.60994 128.9C7.16994 132.4 6.39994 136.31 6.39994 140.2V664.95C6.39994 668.34 6.95994 671.66 8.05994 674.8L23.2799 715.09L23.2699 715.1Z" fill="#4AE5FF"/>
<path opacity="0.3" d="M3.8147e-05 401.44H14.96V397.28H3.8147e-05V401.44Z" fill="#290A49"/>
<path opacity="0.3" d="M3.8147e-05 405.58H14.96V401.41H3.8147e-05V405.58Z" fill="white"/>
<path opacity="0.3" d="M3.8147e-05 397.28H14.96V393.11H3.8147e-05V397.28Z" fill="white"/>
</g>
<path d="M34.2559 106.208V31.1402C34.2559 26.9134 37.7397 23.4816 42.0408 23.4816H116.045C117.89 23.4816 119.552 22.3767 120.237 20.6877L125.761 7.08644C126.944 4.17124 124.761 1 121.57 1H27.9458C19.2888 1 12.271 7.90395 12.271 16.4205V98.2618C12.271 99.7935 13.0746 101.222 14.3987 102.03L27.3522 109.972C30.3612 111.814 34.2513 109.689 34.2513 106.203L34.2559 106.208Z" fill="#9F9FF4" stroke="#D9D9FF" stroke-width="2" stroke-miterlimit="10"/>
<path d="M34.3242 694.871V770.501C34.3242 774.759 37.7805 778.216 42.0477 778.216H115.468C117.298 778.216 118.947 779.33 119.627 781.031L125.108 794.734C126.281 797.671 124.116 800.866 120.949 800.866H28.0639C19.4752 800.866 12.5127 793.911 12.5127 785.331V702.876C12.5127 701.333 13.31 699.894 14.6237 699.08L27.475 691.078C30.4602 689.223 34.3197 691.364 34.3197 694.875L34.3242 694.871Z" fill="#9F9FF4" stroke="#D9D9FF" stroke-width="2" stroke-miterlimit="10"/>
<defs>
<clipPath id="clip0_93_1662">
<rect width="35.57" height="655.47" fill="white" transform="translate(3.8147e-05 69)"/>
</clipPath>
</defs>
</svg>
