<svg width="124" height="816" viewBox="0 0 124 816" fill="none" xmlns="http://www.w3.org/2000/svg">
<path d="M15.3 671.72V146.97C15.3 144.39 15.7999 141.81 16.7599 139.5L29.6799 108.91C25.5099 105.03 21.6099 100.79 18.6199 96.1399L3.12996 132.95C1.33996 137.3 0.389954 142.15 0.389954 146.97V671.72C0.389954 675.92 1.07996 680.03 2.43996 683.93L21.0399 733.89L25.7 727.37C27.34 725.07 28.78 722.89 30.11 720.69C30.14 720.64 30.18 720.59 30.24 720.52L31.67 718.71L16.39 678.25C15.66 676.17 15.2899 673.98 15.2899 671.73L15.3 671.72Z" fill="#00C3FF"/>
<path d="M13.52 671.72V146.97C13.52 144.16 14.07 141.34 15.11 138.81L28.3 107.6C25.18 104.59 22.27 101.38 19.83 97.9199L4.77998 133.62C3.06998 137.76 2.16998 142.37 2.16998 146.96V671.71C2.16998 675.71 2.82999 679.62 4.12999 683.32L21.6 730.04L24.27 726.32C25.88 724.06 27.3 721.91 28.6 719.76C28.67 719.65 28.75 719.53 28.86 719.4L29.68 718.37L14.73 678.84C13.94 676.57 13.54 674.18 13.54 671.73L13.52 671.72Z" fill="#00E7FF"/>
<path d="M11.13 674.06V148.37C11.13 145.24 11.75 142.11 12.91 139.29L27.12 106.43C25.35 104.66 23.66 102.81 22.09 100.89L6.99001 135.95C5.40001 139.8 4.56 144.09 4.56 148.37V674.06C4.56 677.79 5.17 681.43 6.38 684.88L22.33 727.26C23.81 725.19 25.22 723.07 26.55 720.86C26.69 720.63 26.83 720.44 26.98 720.25L12.46 681.97C11.58 679.45 11.13 676.79 11.13 674.06Z" fill="#83F6FF"/>
<path d="M8.93999 674.38V149.63C8.93999 146.12 9.62998 142.6 10.93 139.44L25.55 104.84C24.98 104.24 24.42 103.63 23.87 103.01L8.94998 138.32C7.50998 141.83 6.73999 145.73 6.73999 149.62V674.37C6.73999 677.76 7.29998 681.08 8.39998 684.22L23.62 724.51L25.1 723.81C25.23 723.48 25.31 723.29 25.44 722.96L10.42 683.26C9.42998 680.42 8.92998 677.44 8.92998 674.38H8.93999Z" fill="#DCFBFF"/>
<path d="M30.82 31.14C30.82 26.91 34.3 23.48 38.6 23.48H112.6C114.45 23.48 116.11 22.38 116.79 20.69L122.31 7.09C123.49 4.17 121.31 1 118.12 1H24.5C15.84 1 8.83002 7.9 8.83002 16.42V98.26C8.83002 99.79 9.63001 101.22 10.96 102.03L23.91 109.97C26.92 111.81 30.81 109.69 30.81 106.2V31.14H30.82Z" fill="#6464AD" stroke="#7F7FC5" stroke-width="2" stroke-miterlimit="10"/>
<path d="M31.58 784.61C31.58 788.87 35.03 792.33 39.3 792.33H112.73C114.56 792.33 116.21 793.44 116.89 795.15L122.37 808.85C123.54 811.79 121.38 814.98 118.21 814.98H25.31C16.73 814.98 9.76996 808.02 9.76996 799.44V716.99C9.76996 715.45 10.57 714.01 11.88 713.19L24.7299 705.19C27.7199 703.34 31.5699 705.48 31.5699 708.99V784.61H31.58Z" fill="#6464AD" stroke="#7F7FC5" stroke-width="2" stroke-miterlimit="10"/>
<path opacity="0.3" d="M0 410.08H14.96V405.92H0V410.08Z" fill="#290A49"/>
<path opacity="0.3" d="M0 414.23H14.96V410.06H0V414.23Z" fill="white"/>
<path opacity="0.3" d="M0 405.92H14.96V401.75H0V405.92Z" fill="white"/>
</svg>
