<svg width="123" height="816" viewBox="0 0 123 816" fill="none" xmlns="http://www.w3.org/2000/svg">
<path d="M31.34 715.19L16.09 674.82C15.36 672.74 15 670.55 15 668.3V143.54C15 140.96 15.5 138.38 16.46 136.07L31 101.65C26.62 99.07 22.19 96.58 17.69 94.21L2.83998 129.51C1.04998 133.86 0.0999756 138.71 0.0999756 143.54V668.29C0.0999756 672.49 0.789976 676.6 2.14998 680.5L18.04 723.18C22.6 720.7 27.01 718.01 31.35 715.19H31.34Z" fill="#0095B7"/>
<path d="M27.49 717.64C27.76 717.2 28.04 716.77 28.3 716.33C28.37 716.22 28.45 716.1 28.56 715.97L29.38 714.94L14.43 675.41C13.64 673.14 13.24 670.75 13.24 668.3V143.54C13.24 140.73 13.79 137.91 14.83 135.38L29.45 100.75C26.1 98.79 22.72 96.88 19.3 95.05L4.48 130.2C2.77 134.34 1.87 138.95 1.87 143.54V668.29C1.87 672.29 2.53 676.2 3.83 679.9L19.67 722.26C22.32 720.78 24.92 719.24 27.49 717.64Z" fill="#00C0E0"/>
<path d="M25.24 719.04C25.58 718.51 25.93 717.98 26.26 717.44C26.4 717.22 26.54 717.02 26.69 716.83L12.17 678.55C11.29 676.03 10.84 673.37 10.84 670.64V144.94C10.84 141.81 11.45 138.68 12.62 135.86L28.13 99.9799C26.15 98.8399 24.16 97.7099 22.16 96.6099L6.69001 132.52C5.10001 136.37 4.26001 140.66 4.26001 144.94V670.63C4.26001 674.36 4.87001 678 6.08001 681.45L21.14 721.45C22.52 720.66 23.89 719.86 25.25 719.03L25.24 719.04Z" fill="#12CDF9"/>
<path d="M25.02 719.17L10.14 679.82C9.14995 676.98 8.64995 674 8.64995 670.94V146.19C8.64995 142.69 9.33995 139.16 10.64 136L26.31 98.9201C25.65 98.5401 24.9799 98.1801 24.32 97.8101L8.65995 134.89C7.21995 138.39 6.44995 142.3 6.44995 146.19V670.94C6.44995 674.33 7.00995 677.65 8.10995 680.79L23.0499 720.33C23.7099 719.94 24.37 719.56 25.02 719.17Z" fill="#4AE5FF"/>
<path d="M30.0401 31.14C30.0401 26.91 33.5201 23.48 37.8201 23.48H111.82C113.67 23.48 115.33 22.37 116.01 20.69L121.53 7.09C122.71 4.17 120.53 1 117.34 1H23.7301C15.0701 1 8.06006 7.9 8.06006 16.42V98.26C8.06006 99.79 8.86006 101.22 10.1901 102.03L23.1401 109.97C26.1501 111.81 30.0401 109.69 30.0401 106.2V31.14Z" fill="#9F9FF4" stroke="#D9D9FF" stroke-width="2" stroke-miterlimit="10"/>
<path d="M30.87 784.5C30.87 788.76 34.33 792.22 38.59 792.22H112.01C113.84 792.22 115.49 793.33 116.17 795.04L121.65 808.74C122.82 811.68 120.66 814.87 117.49 814.87H24.6C16.01 814.87 9.05005 807.91 9.05005 799.33V716.87C9.05005 715.33 9.85005 713.89 11.16 713.07L24.01 705.07C27 703.22 30.8601 705.36 30.8601 708.87V784.5H30.87Z" fill="#9F9FF4" stroke="#D9D9FF" stroke-width="2" stroke-miterlimit="10"/>
<path opacity="0.3" d="M0 410.03H14.96V405.87H0V410.03Z" fill="#290A49"/>
<path opacity="0.3" d="M0 414.17H14.96V410H0V414.17Z" fill="white"/>
<path opacity="0.3" d="M0 405.87H14.96V401.7H0V405.87Z" fill="white"/>
</svg>
