<svg width="123" height="816" viewBox="0 0 123 816" fill="none" xmlns="http://www.w3.org/2000/svg">
<path d="M91.6332 715.19L106.883 674.82C107.613 672.74 107.973 670.55 107.973 668.3V143.54C107.973 140.96 107.473 138.38 106.513 136.07L91.9732 101.65C96.3532 99.07 100.783 96.58 105.283 94.21L120.133 129.51C121.923 133.86 122.873 138.71 122.873 143.54V668.29C122.873 672.49 122.183 676.6 120.823 680.5L104.933 723.18C100.373 720.7 95.9632 718.01 91.6232 715.19H91.6332Z" fill="#0095B7"/>
<path d="M95.4832 717.64C95.2132 717.2 94.9332 716.77 94.6732 716.33C94.6032 716.22 94.5232 716.1 94.4132 715.97L93.5932 714.94L108.543 675.41C109.333 673.14 109.733 670.75 109.733 668.3V143.54C109.733 140.73 109.183 137.91 108.143 135.38L93.5231 100.75C96.8731 98.79 100.253 96.88 103.673 95.05L118.493 130.2C120.203 134.34 121.103 138.95 121.103 143.54V668.29C121.103 672.29 120.443 676.2 119.143 679.9L103.303 722.26C100.653 720.78 98.0532 719.24 95.4832 717.64Z" fill="#00C0E0"/>
<path d="M97.7331 719.04C97.3931 718.51 97.0431 717.98 96.7131 717.44C96.5731 717.22 96.4331 717.02 96.2831 716.83L110.803 678.55C111.683 676.03 112.133 673.37 112.133 670.64V144.94C112.133 141.81 111.523 138.68 110.353 135.86L94.8431 99.9799C96.8231 98.8399 98.8131 97.7099 100.813 96.6099L116.283 132.52C117.873 136.37 118.713 140.66 118.713 144.94V670.63C118.713 674.36 118.103 678 116.893 681.45L101.833 721.45C100.453 720.66 99.0831 719.86 97.7231 719.03L97.7331 719.04Z" fill="#12CDF9"/>
<path d="M97.9531 719.17L112.833 679.82C113.823 676.98 114.323 674 114.323 670.94V146.19C114.323 142.69 113.633 139.16 112.333 136L96.6631 98.9201C97.3231 98.5401 97.9931 98.1801 98.6531 97.8101L114.313 134.89C115.753 138.39 116.523 142.3 116.523 146.19V670.94C116.523 674.33 115.963 677.65 114.863 680.79L99.9231 720.33C99.2631 719.94 98.6031 719.56 97.9531 719.17Z" fill="#4AE5FF"/>
<path d="M92.9331 31.14C92.9331 26.91 89.4531 23.48 85.1531 23.48H11.1531C9.30315 23.48 7.64314 22.37 6.96314 20.69L1.44315 7.09C0.263145 4.17 2.44315 1 5.63315 1H99.2431C107.903 1 114.913 7.9 114.913 16.42V98.26C114.913 99.79 114.113 101.22 112.783 102.03L99.8331 109.97C96.8231 111.81 92.9331 109.69 92.9331 106.2V31.14Z" fill="#9F9FF4" stroke="#D9D9FF" stroke-width="2" stroke-miterlimit="10"/>
<path d="M92.1032 784.5C92.1032 788.76 88.6432 792.22 84.3832 792.22H10.9632C9.13316 792.22 7.48316 793.33 6.80316 795.04L1.32316 808.74C0.15316 811.68 2.31316 814.87 5.48316 814.87H98.3732C106.963 814.87 113.923 807.91 113.923 799.33V716.87C113.923 715.33 113.123 713.89 111.813 713.07L98.9632 705.07C95.9732 703.22 92.1132 705.36 92.1132 708.87V784.5H92.1032Z" fill="#9F9FF4" stroke="#D9D9FF" stroke-width="2" stroke-miterlimit="10"/>
<path opacity="0.3" d="M122.973 410.03H108.013V405.87H122.973V410.03Z" fill="#290A49"/>
<path opacity="0.3" d="M122.973 414.17H108.013V410H122.973V414.17Z" fill="white"/>
<path opacity="0.3" d="M122.973 405.87H108.013V401.7H122.973V405.87Z" fill="white"/>
</svg>
