<svg width="124" height="816" viewBox="0 0 124 816" fill="none" xmlns="http://www.w3.org/2000/svg">
<path d="M108.393 671.72V146.97C108.393 144.39 107.893 141.81 106.933 139.5L94.0132 108.91C98.1832 105.03 102.083 100.79 105.073 96.1399L120.563 132.95C122.353 137.3 123.303 142.15 123.303 146.97V671.72C123.303 675.92 122.613 680.03 121.253 683.93L102.653 733.89L97.9932 727.37C96.3532 725.07 94.9132 722.89 93.5832 720.69C93.5532 720.64 93.5132 720.59 93.4532 720.52L92.0232 718.71L107.303 678.25C108.033 676.17 108.403 673.98 108.403 671.73L108.393 671.72Z" fill="#00C3FF"/>
<path d="M110.173 671.72V146.97C110.173 144.16 109.623 141.34 108.583 138.81L95.3931 107.6C98.5131 104.59 101.423 101.38 103.863 97.9199L118.913 133.62C120.623 137.76 121.523 142.37 121.523 146.96V671.71C121.523 675.71 120.863 679.62 119.563 683.32L102.093 730.04L99.4231 726.32C97.8131 724.06 96.3931 721.91 95.0931 719.76C95.0231 719.65 94.9431 719.53 94.8331 719.4L94.0131 718.37L108.963 678.84C109.753 676.57 110.153 674.18 110.153 671.73L110.173 671.72Z" fill="#00E7FF"/>
<path d="M112.563 674.06V148.37C112.563 145.24 111.943 142.11 110.783 139.29L96.5731 106.43C98.3431 104.66 100.033 102.81 101.603 100.89L116.703 135.95C118.293 139.8 119.133 144.09 119.133 148.37V674.06C119.133 677.79 118.523 681.43 117.313 684.88L101.363 727.26C99.8831 725.19 98.4731 723.07 97.1431 720.86C97.0031 720.63 96.8631 720.44 96.7131 720.25L111.233 681.97C112.113 679.45 112.563 676.79 112.563 674.06Z" fill="#83F6FF"/>
<path d="M114.753 674.38V149.63C114.753 146.12 114.063 142.6 112.763 139.44L98.1431 104.84C98.7131 104.24 99.2731 103.63 99.8231 103.01L114.743 138.32C116.183 141.83 116.953 145.73 116.953 149.62V674.37C116.953 677.76 116.393 681.08 115.293 684.22L100.073 724.51L98.5931 723.81C98.4631 723.48 98.3831 723.29 98.2531 722.96L113.273 683.26C114.263 680.42 114.763 677.44 114.763 674.38H114.753Z" fill="#DCFBFF"/>
<path d="M92.8731 31.14C92.8731 26.91 89.3931 23.48 85.0931 23.48H11.0931C9.24311 23.48 7.58311 22.38 6.90311 20.69L1.38309 7.09C0.203087 4.17 2.38309 1 5.57309 1H99.1931C107.853 1 114.863 7.9 114.863 16.42V98.26C114.863 99.79 114.063 101.22 112.733 102.03L99.7831 109.97C96.7731 111.81 92.8831 109.69 92.8831 106.2V31.14H92.8731Z" fill="#6464AD" stroke="#7F7FC5" stroke-width="2" stroke-miterlimit="10"/>
<path d="M92.1132 784.61C92.1132 788.87 88.6632 792.33 84.3932 792.33H10.9632C9.13316 792.33 7.48316 793.44 6.80316 795.15L1.32315 808.85C0.153152 811.79 2.31316 814.98 5.48315 814.98H98.3832C106.963 814.98 113.923 808.02 113.923 799.44V716.99C113.923 715.45 113.123 714.01 111.813 713.19L98.9632 705.19C95.9732 703.34 92.1232 705.48 92.1232 708.99V784.61H92.1132Z" fill="#6464AD" stroke="#7F7FC5" stroke-width="2" stroke-miterlimit="10"/>
<path opacity="0.3" d="M123.693 410.08H108.733V405.92H123.693V410.08Z" fill="#290A49"/>
<path opacity="0.3" d="M123.693 414.23H108.733V410.06H123.693V414.23Z" fill="white"/>
<path opacity="0.3" d="M123.693 405.92H108.733V401.75H123.693V405.92Z" fill="white"/>
</svg>
