<svg width="128" height="802" viewBox="0 0 128 802" fill="none" xmlns="http://www.w3.org/2000/svg">
<g clip-path="url(#clip0_93_1661)">
<path d="M124.999 674.51L106.399 724.47L101.739 717.95C100.099 715.65 98.6593 713.47 97.3293 711.27C97.2993 711.22 97.2593 711.17 97.1993 711.1L95.7693 709.29L111.049 668.83C111.779 666.75 112.139 664.56 112.139 662.31V137.55C112.139 134.97 111.639 132.39 110.679 130.08L91.5193 84.71L93.0193 82.78C94.3893 81.02 95.7093 79 97.1493 76.45L101.369 69L124.309 123.52C126.099 127.87 127.049 132.72 127.049 137.55V662.3C127.049 666.5 126.359 670.61 124.999 674.51Z" fill="#0095B7"/>
<path d="M123.309 673.91L105.839 720.62L103.169 716.9C101.559 714.64 100.139 712.49 98.8394 710.34C98.7694 710.23 98.6894 710.11 98.5794 709.98L97.7594 708.95L112.709 669.42C113.499 667.15 113.899 664.76 113.899 662.31V137.55C113.899 134.74 113.349 131.92 112.309 129.39L93.5594 84.9901L94.4194 83.8901C95.8494 82.0501 97.2094 79.9701 98.6994 77.3301L101.099 73.0801L122.659 124.21C124.369 128.35 125.269 132.96 125.269 137.55V662.3C125.269 666.3 124.609 670.21 123.309 673.91Z" fill="#00C0E0"/>
<path d="M105.119 717.84C103.639 715.77 102.229 713.65 100.889 711.44C100.749 711.22 100.609 711.02 100.459 710.83L114.979 672.55C115.859 670.03 116.309 667.37 116.309 664.64V138.95C116.309 135.82 115.699 132.69 114.529 129.87L96.3094 87.7101C97.9794 85.5701 99.4394 83.2601 100.789 80.8601L120.459 126.53C122.049 130.38 122.889 134.67 122.889 138.95V664.64C122.889 668.37 122.279 672.01 121.069 675.46L105.119 717.84Z" fill="#12CDF9"/>
<path d="M103.819 715.1L102.639 714.54C102.429 714.21 102.209 713.88 101.989 713.54L117.009 673.83C117.999 670.99 118.499 668.01 118.499 664.95V140.2C118.499 136.7 117.809 133.17 116.509 130.01L97.8593 85.8901C98.3693 85.1401 98.8693 84.3701 99.3493 83.5901L118.479 128.9C119.919 132.4 120.689 136.31 120.689 140.2V664.95C120.689 668.34 120.129 671.66 119.029 674.8L103.809 715.09L103.819 715.1Z" fill="#4AE5FF"/>
<path opacity="0.3" d="M127.089 401.44H112.129V397.28H127.089V401.44Z" fill="#290A49"/>
<path opacity="0.3" d="M127.089 405.58H112.129V401.41H127.089V405.58Z" fill="white"/>
<path opacity="0.3" d="M127.089 397.28H112.129V393.11H127.089V397.28Z" fill="white"/>
</g>
<path d="M92.8335 106.208V31.1402C92.8335 26.9134 89.3497 23.4816 85.0486 23.4816H11.0443C9.19967 23.4816 7.53767 22.3767 6.85279 20.6877L1.32803 7.08644C0.145462 4.17124 2.32796 1 5.51954 1H99.1436C107.801 1 114.818 7.90395 114.818 16.4205V98.2618C114.818 99.7935 114.015 101.222 112.691 102.03L99.7372 109.972C96.7282 111.814 92.8381 109.689 92.8381 106.203L92.8335 106.208Z" fill="#9F9FF4" stroke="#D9D9FF" stroke-width="2" stroke-miterlimit="10"/>
<path d="M92.7652 694.871V770.501C92.7652 774.759 89.3089 778.216 85.0417 778.216H11.6211C9.79101 778.216 8.14213 779.33 7.46264 781.031L1.98146 794.734C0.80822 797.671 2.9735 800.866 6.13991 800.866H99.0255C107.614 800.866 114.577 793.911 114.577 785.331V702.876C114.577 701.333 113.779 699.894 112.466 699.08L99.6144 691.078C96.6292 689.223 92.7697 691.364 92.7697 694.875L92.7652 694.871Z" fill="#9F9FF4" stroke="#D9D9FF" stroke-width="2" stroke-miterlimit="10"/>
<defs>
<clipPath id="clip0_93_1661">
<rect width="35.57" height="655.47" fill="white" transform="matrix(-1 0 0 1 127.089 69)"/>
</clipPath>
</defs>
</svg>
