<svg width="223" height="308" viewBox="0 0 223 308" fill="none" xmlns="http://www.w3.org/2000/svg">
<path d="M130.278 176.025L127.61 160.375C127.5 159.733 126.957 159.261 126.33 159.264L87.0371 159.441C86.2348 159.445 85.6265 160.198 85.7693 161.017L88.4374 176.667C88.5475 177.309 89.0898 177.781 89.7174 177.778L129.01 177.601C129.812 177.597 130.421 176.844 130.278 176.025Z" fill="#DCFBFF"/>
<path d="M81.7822 131.236L121.075 131.059C121.877 131.055 122.486 130.302 122.343 129.483L119.675 113.833C119.565 113.191 119.022 112.719 118.395 112.722L79.1019 112.899C78.2996 112.903 77.6914 113.656 77.8341 114.475L80.5022 130.125C80.6124 130.767 81.1547 131.239 81.7822 131.236Z" fill="#DCFBFF"/>
<path d="M126.312 152.754L123.644 137.104C123.534 136.462 122.992 135.99 122.364 135.993L83.0715 136.17C82.2692 136.174 81.6609 136.927 81.8036 137.746L84.4718 153.396C84.5819 154.038 85.1242 154.509 85.7518 154.507L125.041 154.33C125.843 154.326 126.451 153.573 126.308 152.754L126.312 152.754Z" fill="#DCFBFF"/>
<path d="M130.295 182.544L91.0027 182.721C90.2004 182.724 89.5921 183.477 89.7348 184.296L92.403 199.946C92.5131 200.589 93.0554 201.06 93.683 201.057L132.976 200.88C133.778 200.876 134.386 200.124 134.244 199.304L131.575 183.654C131.465 183.012 130.923 182.541 130.295 182.544Z" fill="#DCFBFF"/>
<path d="M78.0907 107.959L116.728 107.785C117.733 107.78 118.487 106.842 118.312 105.816L116.765 94.8092C116.479 93.1417 115.23 91.8288 113.636 91.5105C113.632 91.5105 113.628 91.5105 113.624 91.5105C113.334 91.5036 112.536 91.5031 111.634 91.4989L78.9463 91.5845C77.7786 91.5898 76.6808 92.1262 75.9343 93.0526C75.1878 93.9831 74.8755 95.2 75.0795 96.3899L76.4878 106.574C76.6264 107.376 77.3003 107.963 78.0867 107.959L78.0907 107.959Z" fill="#DCFBFF"/>
<path d="M137.507 216.526L135.59 207.201C135.451 206.399 134.777 205.812 133.991 205.816L95.3535 205.99C94.3487 205.995 93.5943 206.933 93.7697 207.959L95.8292 218.11C96.1638 220.079 97.8066 221.501 99.7329 221.492L133.505 221.34C134.438 221.336 135.366 221.051 136.094 220.442C137.238 219.481 137.756 217.991 137.507 216.534L137.507 216.526Z" fill="#DCFBFF"/>
<path d="M93.0721 166.011L93.9493 171.166L122.975 171.035L122.098 165.88L93.0761 166.011M87.0371 159.446L126.33 159.268C126.961 159.266 127.5 159.733 127.61 160.379L130.278 176.029C130.417 176.849 129.812 177.601 129.01 177.605L89.7173 177.782C89.0858 177.785 88.5475 177.318 88.4374 176.671L85.7692 161.021C85.6305 160.202 86.2348 159.449 87.0371 159.446Z" fill="#A1FDFF"/>
<path d="M85.141 119.465L86.0181 124.62L115.04 124.489L114.163 119.334L85.141 119.465ZM79.1059 112.899L118.399 112.722C119.03 112.719 119.568 113.187 119.679 113.833L122.347 129.483C122.486 130.302 121.881 131.055 121.079 131.059L81.7862 131.236C81.1547 131.239 80.6164 130.771 80.5062 130.125L77.838 114.475C77.6993 113.656 78.3036 112.903 79.1059 112.899Z" fill="#A1FDFF"/>
<path d="M89.1065 142.74L89.9837 147.899L119.009 147.768L118.132 142.609L89.1105 142.74M83.0715 136.174L122.364 135.997C122.996 135.994 123.534 136.462 123.644 137.108L126.312 152.758C126.451 153.577 125.847 154.33 125.045 154.334L85.7518 154.511C85.1202 154.514 84.5819 154.046 84.4718 153.4L81.8036 137.75C81.6649 136.931 82.2692 136.178 83.0715 136.174Z" fill="#A1FDFF"/>
<path d="M97.0377 189.286L97.9149 194.445L126.941 194.314L126.063 189.155L97.0417 189.286M91.0026 182.721L130.295 182.544C130.927 182.541 131.465 183.008 131.575 183.654L134.244 199.304C134.382 200.124 133.778 200.876 132.976 200.88L93.6829 201.057C93.0514 201.06 92.5131 200.593 92.4029 199.946L89.7348 184.296C89.596 183.477 90.2003 182.724 91.0026 182.721Z" fill="#A1FDFF"/>
<path d="M81.7483 98.1648L82.1876 101.348L111.245 101.217L110.806 98.0874L81.7483 98.1648ZM78.9502 91.5806L111.634 91.495C112.536 91.4992 113.33 91.4997 113.624 91.5066C113.628 91.5066 113.632 91.5066 113.636 91.5066C115.23 91.8249 116.479 93.1378 116.765 94.8053L118.312 105.812C118.487 106.838 117.729 107.776 116.728 107.781L78.0907 107.955C77.3043 107.959 76.6264 107.373 76.4917 106.57L75.0834 96.386C74.8795 95.192 75.1917 93.975 75.9382 93.0487C76.6847 92.1223 77.7825 91.5858 78.9502 91.5806Z" fill="#A1FDFF"/>
<path d="M101.194 212.557L101.665 214.887L130.647 214.756L130.168 212.426L101.194 212.557ZM95.3535 205.99L133.991 205.816C134.777 205.812 135.455 206.398 135.59 207.201L137.507 216.526C137.756 217.983 137.238 219.477 136.094 220.438C135.37 221.047 134.438 221.332 133.505 221.336L99.7289 221.488C97.8026 221.497 96.1638 220.074 95.8252 218.106L93.7657 207.954C93.5903 206.929 94.3487 205.99 95.3496 205.986L95.3535 205.99Z" fill="#A1FDFF"/>
<path d="M91.1781 164.372L92.6182 172.82L124.865 172.675L123.425 164.226L91.1781 164.372ZM87.0371 159.446L126.33 159.268C126.961 159.266 127.5 159.733 127.61 160.379L130.278 176.029C130.417 176.849 129.812 177.601 129.01 177.605L89.7173 177.782C89.0858 177.785 88.5475 177.318 88.4374 176.671L85.7692 161.021C85.6305 160.202 86.2348 159.449 87.0371 159.446Z" fill="#83F6FF"/>
<path d="M88.8135 162.322L90.9554 174.888L127.234 174.724L125.092 162.158L88.8135 162.322ZM87.0371 159.446L126.33 159.268C126.961 159.266 127.5 159.733 127.61 160.379L130.278 176.029C130.417 176.849 129.812 177.601 129.01 177.605L89.7173 177.782C89.0858 177.785 88.5475 177.318 88.4374 176.671L85.7692 161.021C85.6305 160.202 86.2348 159.449 87.0371 159.446Z" fill="#00E7FF"/>
<path d="M83.2469 117.825L84.6871 126.274L116.934 126.128L115.494 117.68L83.2469 117.825ZM79.1059 112.899L118.399 112.722C119.03 112.719 119.568 113.187 119.679 113.833L122.347 129.483C122.486 130.302 121.881 131.055 121.079 131.059L81.7862 131.236C81.1547 131.239 80.6164 130.771 80.5062 130.125L77.838 114.475C77.6993 113.656 78.3036 112.903 79.1059 112.899Z" fill="#83F6FF"/>
<path d="M87.2125 141.1L88.6527 149.553L120.9 149.408L119.459 140.955L87.2125 141.1ZM83.0715 136.174L122.364 135.997C122.996 135.994 123.534 136.462 123.644 137.108L126.312 152.758C126.451 153.577 125.847 154.33 125.045 154.334L85.7518 154.511C85.1202 154.514 84.5819 154.046 84.4718 153.4L81.8036 137.75C81.6649 136.931 82.2692 136.178 83.0715 136.174Z" fill="#83F6FF"/>
<path d="M95.1437 187.647L96.5838 196.1L128.831 195.954L127.39 187.501L95.1437 187.647ZM91.0026 182.721L130.295 182.544C130.927 182.541 131.465 183.008 131.575 183.654L134.244 199.304C134.382 200.124 133.778 200.876 132.976 200.88L93.6829 201.057C93.0514 201.06 92.5131 200.593 92.4029 199.946L89.7348 184.296C89.596 183.477 90.2003 182.724 91.0026 182.721Z" fill="#83F6FF"/>
<path d="M79.9178 96.5208L80.8129 103.002L113.08 102.857L112.177 96.4412C111.982 96.4421 111.796 96.443 111.633 96.4396L79.9138 96.5249M78.9502 91.5806L111.634 91.495C112.536 91.4992 113.33 91.4997 113.624 91.5066C113.628 91.5066 113.632 91.5066 113.636 91.5066C115.23 91.8249 116.479 93.1378 116.765 94.8053L118.312 105.812C118.487 106.838 117.729 107.776 116.728 107.781L78.0907 107.955C77.3043 107.959 76.6264 107.373 76.4917 106.57L75.0834 96.386C74.8795 95.192 75.1917 93.975 75.9382 93.0487C76.6847 92.1223 77.7825 91.5858 78.9502 91.5806Z" fill="#83F6FF"/>
<path d="M99.2364 210.917L100.378 216.541L132.609 216.395L131.451 210.772L99.2364 210.917ZM95.3535 205.99L133.991 205.816C134.777 205.812 135.455 206.398 135.59 207.201L137.507 216.526C137.756 217.983 137.238 219.477 136.094 220.438C135.37 221.047 134.438 221.332 133.505 221.336L99.7289 221.488C97.8026 221.497 96.1638 220.074 95.8252 218.106L93.7657 207.954C93.5903 206.929 94.3487 205.99 95.3496 205.986L95.3535 205.99Z" fill="#83F6FF"/>
<path d="M80.8824 115.776L83.0243 128.342L119.298 128.178L117.157 115.612L80.8784 115.776M79.1059 112.899L118.399 112.722C119.03 112.719 119.568 113.187 119.679 113.833L122.347 129.483C122.486 130.302 121.881 131.055 121.079 131.059L81.7862 131.236C81.1547 131.239 80.6164 130.771 80.5062 130.125L77.838 114.475C77.6993 113.656 78.3036 112.903 79.1059 112.899Z" fill="#00E7FF"/>
<path d="M84.848 139.051L86.9899 151.621L123.268 151.457L121.126 138.887L84.848 139.051ZM83.0715 136.174L122.364 135.997C122.996 135.994 123.534 136.462 123.644 137.108L126.312 152.758C126.451 153.577 125.847 154.33 125.045 154.334L85.7518 154.511C85.1202 154.514 84.5819 154.046 84.4718 153.4L81.8036 137.75C81.6649 136.931 82.2692 136.178 83.0715 136.174Z" fill="#00E7FF"/>
<path d="M92.7791 185.597L94.921 198.167L131.199 198.004L129.057 185.434L92.7791 185.597ZM91.0026 182.721L130.295 182.544C130.927 182.541 131.465 183.008 131.575 183.654L134.244 199.304C134.382 200.124 133.778 200.876 132.976 200.88L93.6829 201.057C93.0514 201.06 92.5131 200.593 92.4029 199.946L89.7348 184.296C89.596 183.477 90.2003 182.724 91.0026 182.721Z" fill="#00E7FF"/>
<path d="M78.9593 94.4649C78.6177 94.4664 78.2927 94.6244 78.0715 94.8974C77.8503 95.1703 77.7606 95.5334 77.8178 95.8875L77.826 95.9327L77.8341 95.9822L79.0905 105.07L115.377 104.907L114.022 95.2792C113.941 94.8634 113.65 94.5268 113.276 94.3843C112.886 94.3819 112.259 94.3806 111.643 94.3752L78.9592 94.4607M78.9502 91.5806L111.634 91.495C112.536 91.4992 113.33 91.4997 113.624 91.5066C113.628 91.5066 113.632 91.5066 113.636 91.5066C115.23 91.8249 116.479 93.1378 116.765 94.8053L118.312 105.812C118.487 106.838 117.729 107.776 116.728 107.781L78.0907 107.955C77.3043 107.959 76.6264 107.373 76.4917 106.57L75.0834 96.386C74.8795 95.192 75.1917 93.975 75.9382 93.0487C76.6847 92.1223 77.7825 91.5858 78.9502 91.5806Z" fill="#00E7FF"/>
<path d="M96.7924 208.868L98.5473 217.517L98.5554 217.562L98.5636 217.608C98.6615 218.188 99.148 218.611 99.7159 218.608L133.492 218.456C133.841 218.454 134.151 218.362 134.345 218.2C134.677 217.919 134.838 217.502 134.776 217.069L133.055 208.709L96.7924 208.872M95.3535 205.99L133.991 205.816C134.777 205.812 135.455 206.398 135.59 207.201L137.507 216.526C137.756 217.983 137.238 219.477 136.094 220.438C135.37 221.047 134.438 221.332 133.505 221.336L99.7289 221.488C97.8026 221.497 96.1638 220.074 95.8252 218.106L93.7657 207.954C93.5903 206.929 94.3487 205.99 95.3496 205.986L95.3535 205.99Z" fill="#00E7FF"/>
<path d="M87.0426 160.682C87.0426 160.682 86.995 160.682 86.9634 160.719C86.9318 160.756 86.9399 160.793 86.9399 160.806L89.6081 176.456C89.6163 176.505 89.6601 176.546 89.7118 176.546L129.005 176.369C129.005 176.369 129.052 176.369 129.084 176.331C129.115 176.294 129.107 176.257 129.107 176.245L126.439 160.595C126.431 160.545 126.387 160.504 126.335 160.505L87.0426 160.682ZM87.0371 159.446L126.33 159.268C126.961 159.266 127.5 159.733 127.61 160.379L130.278 176.029C130.417 176.849 129.812 177.601 129.01 177.605L89.7173 177.782C89.0858 177.785 88.5475 177.318 88.4374 176.671L85.7692 161.021C85.6305 160.202 86.2348 159.449 87.0371 159.446Z" fill="#00C3FF"/>
<path d="M79.1115 114.135C79.1115 114.135 79.0638 114.136 79.0322 114.173C79.0006 114.21 79.0087 114.247 79.0088 114.259L81.6769 129.909C81.6851 129.959 81.729 130 81.7806 130L121.069 129.822C121.069 129.822 121.117 129.822 121.149 129.785C121.18 129.748 121.172 129.711 121.172 129.698L118.504 114.048C118.496 113.999 118.452 113.958 118.4 113.958L79.1075 114.135M79.1059 112.899L118.399 112.722C119.03 112.719 119.568 113.187 119.679 113.833L122.347 129.483C122.486 130.302 121.881 131.055 121.079 131.059L81.7862 131.236C81.1547 131.239 80.6164 130.771 80.5062 130.125L77.838 114.475C77.6993 113.656 78.3036 112.903 79.1059 112.899Z" fill="#00C3FF"/>
<path d="M83.0771 137.411C83.0771 137.411 83.0294 137.411 82.9978 137.448C82.9662 137.485 82.9743 137.522 82.9743 137.535L85.6425 153.185C85.6507 153.234 85.6946 153.275 85.7462 153.275L125.035 153.098C125.035 153.098 125.083 153.097 125.114 153.06C125.146 153.023 125.138 152.986 125.138 152.973L122.47 137.324C122.461 137.274 122.417 137.233 122.366 137.233L83.0731 137.411M83.0715 136.174L122.364 135.997C122.996 135.994 123.534 136.462 123.644 137.108L126.312 152.758C126.451 153.577 125.847 154.33 125.045 154.334L85.7518 154.511C85.1202 154.514 84.5819 154.046 84.4718 153.4L81.8036 137.75C81.6649 136.931 82.2692 136.178 83.0715 136.174Z" fill="#00C3FF"/>
<path d="M91.0082 183.957C91.0082 183.957 90.9605 183.957 90.9289 183.994C90.8973 184.032 90.9054 184.069 90.9055 184.081L93.5737 199.731C93.5818 199.78 93.6257 199.821 93.6773 199.821L132.97 199.644C132.97 199.644 133.018 199.644 133.049 199.606C133.081 199.569 133.073 199.532 133.073 199.52L130.405 183.87C130.396 183.82 130.353 183.779 130.301 183.78L91.0082 183.957ZM91.0026 182.721L130.295 182.544C130.927 182.541 131.465 183.008 131.575 183.654L134.244 199.304C134.382 200.124 133.778 200.876 132.976 200.88L93.6829 201.057C93.0514 201.06 92.5131 200.593 92.4029 199.946L89.7348 184.296C89.596 183.477 90.2003 182.724 91.0026 182.721Z" fill="#00C3FF"/>
<path d="M78.9518 92.8167C78.1376 92.8204 77.3727 93.1947 76.8514 93.8439C76.33 94.4932 76.1114 95.343 76.2542 96.1747L76.2543 96.1953L76.2623 96.2159L77.6665 106.375C77.7071 106.581 77.8826 106.728 78.0851 106.727L116.723 106.553C116.893 106.552 117 106.453 117.048 106.395C117.095 106.337 117.17 106.209 117.141 106.036L117.141 106.02L117.137 106.003L115.594 95.0166C115.398 93.9009 114.564 93.0022 113.503 92.7516C113.149 92.749 112.391 92.7442 111.644 92.7435L78.9558 92.829M78.9502 91.5806L111.634 91.495C112.536 91.4992 113.33 91.4997 113.624 91.5066C113.628 91.5066 113.632 91.5066 113.636 91.5066C115.23 91.8249 116.479 93.1378 116.765 94.8053L118.312 105.812C118.487 106.838 117.729 107.776 116.728 107.781L78.0907 107.955C77.3043 107.959 76.6264 107.373 76.4917 106.57L75.0834 96.386C74.8795 95.192 75.1917 93.975 75.9382 93.0487C76.6847 92.1223 77.7825 91.5858 78.9502 91.5806Z" fill="#00C3FF"/>
<path d="M95.3591 207.226C95.1883 207.227 95.0815 207.326 95.0341 207.384C94.9867 207.442 94.9158 207.562 94.9404 207.731L96.9958 217.854L96.9959 217.874L97.0039 217.895C97.2405 219.266 98.3849 220.262 99.7273 220.256L133.499 220.104C134.214 220.101 134.869 219.879 135.343 219.482C136.123 218.827 136.504 217.787 136.336 216.766L134.423 207.466L134.423 207.446L134.415 207.425C134.379 207.211 134.203 207.059 133.993 207.06L95.3552 207.234M95.3535 205.99L133.991 205.816C134.777 205.812 135.455 206.398 135.59 207.201L137.507 216.526C137.756 217.983 137.238 219.477 136.094 220.438C135.37 221.047 134.438 221.332 133.505 221.336L99.7289 221.488C97.8026 221.497 96.1638 220.074 95.8252 218.106L93.7657 207.954C93.5903 206.929 94.3487 205.99 95.3496 205.986L95.3535 205.99Z" fill="#00C3FF"/>
<ellipse cx="111.196" cy="153.705" rx="99.5" ry="146" transform="rotate(-4.72817 111.196 153.705)" fill="url(#paint0_radial_100_8688)"/>
<defs>
<radialGradient id="paint0_radial_100_8688" cx="0" cy="0" r="1" gradientUnits="userSpaceOnUse" gradientTransform="translate(111.196 153.705) rotate(90) scale(146 59.3137)">
<stop stop-color="#B9FFF9" stop-opacity="0.8"/>
<stop offset="1" stop-color="#00E7FF" stop-opacity="0"/>
</radialGradient>
</defs>
</svg>
