<svg width="223" height="308" viewBox="0 0 223 308" fill="none" xmlns="http://www.w3.org/2000/svg">
<path d="M85.114 175.622L87.7821 159.972C87.8923 159.33 88.4346 158.858 89.0621 158.861L128.355 159.038C129.157 159.042 129.765 159.795 129.623 160.614L126.955 176.264C126.844 176.906 126.302 177.378 125.675 177.375L86.3818 177.197C85.5795 177.194 84.9713 176.441 85.114 175.622Z" fill="#DCFBFF"/>
<path d="M133.61 130.832L94.317 130.655C93.5147 130.652 92.9065 129.899 93.0492 129.08L95.7173 113.43C95.8275 112.787 96.3698 112.316 96.9973 112.319L136.29 112.496C137.092 112.5 137.701 113.252 137.558 114.072L134.89 129.722C134.78 130.364 134.237 130.835 133.61 130.832Z" fill="#DCFBFF"/>
<path d="M89.0796 152.351L91.7478 136.701C91.8579 136.058 92.4002 135.587 93.0277 135.59L132.32 135.767C133.123 135.771 133.731 136.523 133.588 137.343L130.92 152.993C130.81 153.635 130.268 154.106 129.64 154.103L90.3514 153.926C89.5491 153.923 88.9409 153.17 89.0836 152.351L89.0796 152.351Z" fill="#DCFBFF"/>
<path d="M85.0965 182.14L124.389 182.318C125.192 182.321 125.8 183.074 125.657 183.893L122.989 199.543C122.879 200.185 122.337 200.657 121.709 200.654L82.4163 200.477C81.614 200.473 81.0057 199.721 81.1484 198.901L83.8166 183.251C83.9267 182.609 84.469 182.138 85.0965 182.14Z" fill="#DCFBFF"/>
<path d="M137.301 107.556L98.6639 107.382C97.659 107.377 96.9046 106.438 97.08 105.413L98.6271 94.406C98.9126 92.7385 100.162 91.4255 101.756 91.1072C101.76 91.1072 101.764 91.1073 101.768 91.1073C102.058 91.1003 102.856 91.0998 103.758 91.0956L136.446 91.1812C137.613 91.1865 138.711 91.723 139.458 92.6493C140.204 93.5798 140.516 94.7968 140.312 95.9867L138.904 106.17C138.766 106.973 138.092 107.559 137.305 107.556L137.301 107.556Z" fill="#DCFBFF"/>
<path d="M77.8853 216.122L79.8021 206.798C79.9407 205.995 80.6146 205.409 81.401 205.413L120.038 205.587C121.043 205.591 121.798 206.53 121.622 207.555L119.563 217.707C119.228 219.675 117.585 221.098 115.659 221.089L81.8871 220.937C80.9537 220.932 80.0256 220.648 79.2975 220.039C78.154 219.078 77.6364 217.588 77.8853 216.131L77.8853 216.122Z" fill="#DCFBFF"/>
<path d="M122.32 165.608L121.443 170.763L92.417 170.632L93.2941 165.477L122.316 165.608M128.355 159.042L89.0622 158.865C88.4307 158.862 87.8923 159.33 87.7822 159.976L85.114 175.626C84.9753 176.445 85.5796 177.198 86.3819 177.202L125.675 177.379C126.306 177.382 126.844 176.914 126.955 176.268L129.623 160.618C129.762 159.799 129.157 159.046 128.355 159.042Z" fill="#A1FDFF"/>
<path d="M130.251 119.062L129.374 124.216L100.352 124.086L101.229 118.931L130.251 119.062ZM136.286 112.496L96.9933 112.319C96.3618 112.316 95.8235 112.783 95.7133 113.43L93.0452 129.08C92.9064 129.899 93.5107 130.652 94.313 130.655L133.606 130.832C134.237 130.835 134.776 130.368 134.886 129.722L137.554 114.072C137.693 113.252 137.088 112.5 136.286 112.496Z" fill="#A1FDFF"/>
<path d="M126.285 142.337L125.408 147.496L96.3825 147.365L97.2597 142.206L126.281 142.337M132.32 135.771L93.0277 135.594C92.3962 135.591 91.8579 136.058 91.7478 136.705L89.0796 152.355C88.9409 153.174 89.5452 153.927 90.3475 153.93L129.64 154.108C130.272 154.11 130.81 153.643 130.92 152.997L133.588 137.347C133.727 136.527 133.123 135.775 132.32 135.771Z" fill="#A1FDFF"/>
<path d="M118.354 188.883L117.477 194.042L88.4514 193.911L89.3286 188.752L118.35 188.883M124.389 182.318L85.0966 182.14C84.4651 182.138 83.9268 182.605 83.8166 183.251L81.1485 198.901C81.0097 199.721 81.614 200.473 82.4163 200.477L121.709 200.654C122.341 200.657 122.879 200.19 122.989 199.543L125.657 183.893C125.796 183.074 125.192 182.321 124.389 182.318Z" fill="#A1FDFF"/>
<path d="M133.644 97.7616L133.204 100.945L104.147 100.814L104.586 97.6841L133.644 97.7616ZM136.442 91.1773L103.758 91.0917C102.856 91.0959 102.062 91.0964 101.768 91.1034C101.764 91.1033 101.76 91.1033 101.756 91.1033C100.162 91.4216 98.9126 92.7346 98.6271 94.4021L97.0801 105.409C96.9046 106.434 97.663 107.373 98.6639 107.378L137.301 107.552C138.088 107.555 138.766 106.969 138.9 106.166L140.309 95.9827C140.513 94.7887 140.2 93.5718 139.454 92.6454C138.707 91.7191 137.609 91.1826 136.442 91.1773Z" fill="#A1FDFF"/>
<path d="M114.198 212.153L113.727 214.483L84.7447 214.353L85.2239 212.023L114.198 212.153ZM120.038 205.587L81.401 205.413C80.6146 205.409 79.9367 205.995 79.8021 206.798L77.8853 216.122C77.6364 217.58 78.154 219.074 79.2975 220.035C80.0216 220.644 80.9537 220.928 81.8871 220.933L115.663 221.085C117.589 221.094 119.228 219.671 119.567 217.703L121.626 207.551C121.802 206.526 121.043 205.587 120.042 205.583L120.038 205.587Z" fill="#A1FDFF"/>
<path d="M124.214 163.968L122.774 172.417L90.5269 172.272L91.9671 163.823L124.214 163.968ZM128.355 159.042L89.0622 158.865C88.4307 158.862 87.8923 159.33 87.7822 159.976L85.114 175.626C84.9753 176.445 85.5796 177.198 86.3819 177.202L125.675 177.379C126.306 177.382 126.844 176.914 126.955 176.268L129.623 160.618C129.762 159.799 129.157 159.046 128.355 159.042Z" fill="#83F6FF"/>
<path d="M126.578 161.919L124.437 174.485L88.1584 174.321L90.3003 161.755L126.578 161.919ZM128.355 159.042L89.0622 158.865C88.4307 158.862 87.8923 159.33 87.7822 159.976L85.114 175.626C84.9753 176.445 85.5796 177.198 86.3819 177.202L125.675 177.379C126.306 177.382 126.844 176.914 126.955 176.268L129.623 160.618C129.762 159.799 129.157 159.046 128.355 159.042Z" fill="#00E7FF"/>
<path d="M132.145 117.422L130.705 125.871L98.4581 125.725L99.8982 117.276L132.145 117.422ZM136.286 112.496L96.9933 112.319C96.3618 112.316 95.8235 112.783 95.7133 113.43L93.0452 129.08C92.9064 129.899 93.5107 130.652 94.313 130.655L133.606 130.832C134.237 130.835 134.776 130.368 134.886 129.722L137.554 114.072C137.693 113.252 137.088 112.5 136.286 112.496Z" fill="#83F6FF"/>
<path d="M128.179 140.697L126.739 149.15L94.4925 149.005L95.9326 140.552L128.179 140.697ZM132.32 135.771L93.0277 135.594C92.3962 135.591 91.8579 136.058 91.7478 136.705L89.0796 152.355C88.9409 153.174 89.5452 153.927 90.3475 153.93L129.64 154.108C130.272 154.11 130.81 153.643 130.92 152.997L133.588 137.347C133.727 136.527 133.123 135.775 132.32 135.771Z" fill="#83F6FF"/>
<path d="M120.248 187.243L118.808 195.696L86.5613 195.551L88.0015 187.098L120.248 187.243ZM124.389 182.318L85.0966 182.14C84.4651 182.138 83.9268 182.605 83.8166 183.251L81.1485 198.901C81.0097 199.721 81.614 200.473 82.4163 200.477L121.709 200.654C122.341 200.657 122.879 200.19 122.989 199.543L125.657 183.893C125.796 183.074 125.192 182.321 124.389 182.318Z" fill="#83F6FF"/>
<path d="M135.474 96.1175L134.579 102.599L102.312 102.454L103.215 96.038C103.41 96.0389 103.596 96.0397 103.759 96.0363L135.478 96.1217M136.442 91.1773L103.758 91.0917C102.856 91.0959 102.062 91.0964 101.768 91.1034C101.764 91.1033 101.76 91.1033 101.756 91.1033C100.162 91.4216 98.9126 92.7346 98.6271 94.4021L97.0801 105.409C96.9046 106.434 97.663 107.373 98.6639 107.378L137.301 107.552C138.088 107.555 138.766 106.969 138.9 106.166L140.309 95.9827C140.513 94.7887 140.2 93.5718 139.454 92.6454C138.707 91.7191 137.609 91.1826 136.442 91.1773Z" fill="#83F6FF"/>
<path d="M116.156 210.514L115.014 216.137L82.7832 215.992L83.9405 210.369L116.156 210.514ZM120.038 205.587L81.401 205.413C80.6146 205.409 79.9367 205.995 79.8021 206.798L77.8853 216.122C77.6364 217.58 78.154 219.074 79.2975 220.035C80.0216 220.644 80.9537 220.928 81.8871 220.933L115.663 221.085C117.589 221.094 119.228 219.671 119.567 217.703L121.626 207.551C121.802 206.526 121.043 205.587 120.042 205.583L120.038 205.587Z" fill="#83F6FF"/>
<path d="M134.51 115.372L132.368 127.938L96.0935 127.775L98.2354 115.209L134.514 115.372M136.286 112.496L96.9933 112.319C96.3618 112.316 95.8235 112.783 95.7133 113.43L93.0452 129.08C92.9064 129.899 93.5107 130.652 94.313 130.655L133.606 130.832C134.237 130.835 134.776 130.368 134.886 129.722L137.554 114.072C137.693 113.252 137.088 112.5 136.286 112.496Z" fill="#00E7FF"/>
<path d="M130.544 138.647L128.402 151.218L92.1239 151.054L94.2658 138.484L130.544 138.647ZM132.32 135.771L93.0277 135.594C92.3962 135.591 91.8579 136.058 91.7478 136.705L89.0796 152.355C88.9409 153.174 89.5452 153.927 90.3475 153.93L129.64 154.108C130.272 154.11 130.81 153.643 130.92 152.997L133.588 137.347C133.727 136.527 133.123 135.775 132.32 135.771Z" fill="#00E7FF"/>
<path d="M122.613 185.194L120.471 197.764L84.1928 197.6L86.3347 185.03L122.613 185.194ZM124.389 182.318L85.0966 182.14C84.4651 182.138 83.9268 182.605 83.8166 183.251L81.1485 198.901C81.0097 199.721 81.614 200.473 82.4163 200.477L121.709 200.654C122.341 200.657 122.879 200.19 122.989 199.543L125.657 183.893C125.796 183.074 125.192 182.321 124.389 182.318Z" fill="#00E7FF"/>
<path d="M136.433 94.0616C136.774 94.0631 137.099 94.2212 137.32 94.4941C137.542 94.7671 137.631 95.1301 137.574 95.4842L137.566 95.5295L137.558 95.5789L136.301 104.667L100.015 104.504L101.369 94.8759C101.451 94.4601 101.742 94.1236 102.116 93.981C102.506 93.9787 103.133 93.9774 103.749 93.9719L136.433 94.0575M136.442 91.1773L103.758 91.0917C102.856 91.0959 102.062 91.0964 101.768 91.1034C101.764 91.1033 101.76 91.1033 101.756 91.1033C100.162 91.4216 98.9126 92.7346 98.6271 94.4021L97.0801 105.409C96.9046 106.434 97.663 107.373 98.6639 107.378L137.301 107.552C138.088 107.555 138.766 106.969 138.9 106.166L140.309 95.9827C140.513 94.7887 140.2 93.5718 139.454 92.6454C138.707 91.7191 137.609 91.1826 136.442 91.1773Z" fill="#00E7FF"/>
<path d="M118.6 208.465L116.845 217.114L116.837 217.159L116.828 217.204C116.73 217.785 116.244 218.207 115.676 218.205L81.9001 218.052C81.5506 218.051 81.2412 217.959 81.0473 217.797C80.7149 217.515 80.554 217.099 80.6155 216.666L82.3372 208.305L118.6 208.469M120.038 205.587L81.401 205.413C80.6146 205.409 79.9367 205.995 79.8021 206.798L77.8853 216.122C77.6364 217.58 78.154 219.074 79.2975 220.035C80.0216 220.644 80.9537 220.928 81.8871 220.933L115.663 221.085C117.589 221.094 119.228 219.671 119.567 217.703L121.626 207.551C121.802 206.526 121.043 205.587 120.042 205.583L120.038 205.587Z" fill="#00E7FF"/>
<path d="M128.349 160.279C128.349 160.279 128.397 160.279 128.429 160.316C128.46 160.353 128.452 160.39 128.452 160.403L125.784 176.053C125.776 176.102 125.732 176.143 125.68 176.143L86.3875 175.966C86.3875 175.966 86.3398 175.965 86.3082 175.928C86.2766 175.891 86.2847 175.854 86.2848 175.841L88.9529 160.192C88.9611 160.142 89.005 160.101 89.0566 160.101L128.349 160.279ZM128.355 159.042L89.0622 158.865C88.4307 158.862 87.8923 159.33 87.7822 159.976L85.114 175.626C84.9753 176.445 85.5796 177.198 86.3819 177.202L125.675 177.379C126.306 177.382 126.844 176.914 126.955 176.268L129.623 160.618C129.762 159.799 129.157 159.046 128.355 159.042Z" fill="#00C3FF"/>
<path d="M136.28 113.732C136.28 113.732 136.328 113.732 136.36 113.77C136.391 113.807 136.383 113.844 136.383 113.856L133.715 129.506C133.707 129.556 133.663 129.597 133.611 129.596L94.3226 129.419C94.3226 129.419 94.2749 129.419 94.2433 129.382C94.2117 129.344 94.2198 129.307 94.2199 129.295L96.888 113.645C96.8962 113.596 96.9401 113.555 96.9917 113.555L136.284 113.732M136.286 112.496L96.9933 112.319C96.3618 112.316 95.8235 112.783 95.7133 113.43L93.0452 129.08C92.9064 129.899 93.5107 130.652 94.313 130.655L133.606 130.832C134.237 130.835 134.776 130.368 134.886 129.722L137.554 114.072C137.693 113.252 137.088 112.5 136.286 112.496Z" fill="#00C3FF"/>
<path d="M132.315 137.007C132.315 137.007 132.363 137.007 132.394 137.045C132.426 137.082 132.418 137.119 132.418 137.131L129.749 152.781C129.741 152.831 129.697 152.872 129.646 152.871L90.357 152.694C90.357 152.694 90.3093 152.694 90.2777 152.657C90.2461 152.62 90.2542 152.583 90.2543 152.57L92.9225 136.92C92.9306 136.871 92.9745 136.83 93.0261 136.83L132.319 137.007M132.32 135.771L93.0277 135.594C92.3962 135.591 91.8579 136.058 91.7478 136.705L89.0796 152.355C88.9409 153.174 89.5452 153.927 90.3475 153.93L129.64 154.108C130.272 154.11 130.81 153.643 130.92 152.997L133.588 137.347C133.727 136.527 133.123 135.775 132.32 135.771Z" fill="#00C3FF"/>
<path d="M124.384 183.554C124.384 183.554 124.431 183.554 124.463 183.591C124.495 183.628 124.487 183.665 124.486 183.678L121.818 199.328C121.81 199.377 121.766 199.418 121.715 199.418L82.4219 199.241C82.4219 199.241 82.3742 199.24 82.3426 199.203C82.311 199.166 82.3191 199.129 82.3192 199.117L84.9873 183.467C84.9955 183.417 85.0394 183.376 85.091 183.376L124.384 183.554ZM124.389 182.318L85.0966 182.14C84.4651 182.138 83.9268 182.605 83.8166 183.251L81.1485 198.901C81.0097 199.721 81.614 200.473 82.4163 200.477L121.709 200.654C122.341 200.657 122.879 200.19 122.989 199.543L125.657 183.893C125.796 183.074 125.192 182.321 124.389 182.318Z" fill="#00C3FF"/>
<path d="M136.44 92.4134C137.254 92.4171 138.019 92.7914 138.541 93.4407C139.062 94.0899 139.281 94.9397 139.138 95.7714L139.138 95.792L139.13 95.8126L137.725 105.972C137.685 106.177 137.509 106.325 137.307 106.324L98.6694 106.15C98.4986 106.149 98.3919 106.05 98.3445 105.992C98.2971 105.934 98.2222 105.806 98.2507 105.633L98.2508 105.616L98.2549 105.6L99.7978 94.6134C99.9935 93.4976 100.828 92.599 101.889 92.3483C102.243 92.3458 103.001 92.341 103.748 92.3402L136.436 92.4258M136.442 91.1773L103.758 91.0917C102.856 91.0959 102.062 91.0964 101.768 91.1034C101.764 91.1033 101.76 91.1033 101.756 91.1033C100.162 91.4216 98.9126 92.7346 98.6271 94.4021L97.0801 105.409C96.9046 106.434 97.663 107.373 98.6639 107.378L137.301 107.552C138.088 107.555 138.766 106.969 138.9 106.166L140.309 95.9827C140.513 94.7887 140.2 93.5718 139.454 92.6454C138.707 91.7191 137.609 91.1826 136.442 91.1773Z" fill="#00C3FF"/>
<path d="M120.033 206.823C120.204 206.824 120.31 206.923 120.358 206.981C120.405 207.039 120.476 207.159 120.452 207.328L118.396 217.451L118.396 217.471L118.388 217.492C118.151 218.863 117.007 219.859 115.665 219.853L81.8927 219.701C81.1777 219.697 80.5234 219.476 80.0485 219.078C79.269 218.424 78.8885 217.384 79.0559 216.363L80.9686 207.063L80.9687 207.042L80.9767 207.022C81.0134 206.808 81.1889 206.656 81.3994 206.657L120.037 206.831M120.038 205.587L81.401 205.413C80.6146 205.409 79.9367 205.995 79.8021 206.798L77.8853 216.122C77.6364 217.58 78.154 219.074 79.2975 220.035C80.0216 220.644 80.9537 220.928 81.8871 220.933L115.663 221.085C117.589 221.094 119.228 219.671 119.567 217.703L121.626 207.551C121.802 206.526 121.043 205.587 120.042 205.583L120.038 205.587Z" fill="#00C3FF"/>
<ellipse cx="99.5" cy="146" rx="99.5" ry="146" transform="matrix(-0.996597 -0.0824286 -0.0824286 0.996597 222.392 16.4033)" fill="url(#paint0_radial_99_2445)"/>
<defs>
<radialGradient id="paint0_radial_99_2445" cx="0" cy="0" r="1" gradientUnits="userSpaceOnUse" gradientTransform="translate(99.5 146) rotate(90) scale(146 59.3137)">
<stop stop-color="#B9FFF9" stop-opacity="0.8"/>
<stop offset="1" stop-color="#00E7FF" stop-opacity="0"/>
</radialGradient>
</defs>
</svg>
