<svg width="236" height="316" viewBox="0 0 236 316" fill="none" xmlns="http://www.w3.org/2000/svg">
<path d="M98.9313 173.642L101.601 157.992C101.711 157.352 102.251 156.882 102.881 156.882L132.171 157.062C132.971 157.062 133.581 157.822 133.441 158.642L130.771 174.292C130.661 174.932 130.121 175.402 129.491 175.402L100.201 175.222C99.4013 175.222 98.7913 174.462 98.9313 173.642Z" fill="#DCFBFF"/>
<path d="M137.431 128.852L108.141 128.672C107.341 128.672 106.731 127.912 106.871 127.092L109.541 111.442C109.651 110.802 110.191 110.332 110.821 110.332L140.111 110.512C140.911 110.512 141.521 111.272 141.381 112.092L138.711 127.742C138.601 128.382 138.061 128.852 137.431 128.852Z" fill="#DCFBFF"/>
<path d="M102.901 150.372L105.571 134.722C105.681 134.082 106.221 133.612 106.851 133.612L136.141 133.792C136.941 133.792 137.551 134.552 137.411 135.372L134.741 151.022C134.631 151.662 134.091 152.132 133.461 152.132L104.171 151.952C103.371 151.952 102.761 151.192 102.901 150.372Z" fill="#DCFBFF"/>
<path d="M98.9113 180.162L128.201 180.342C129.001 180.342 129.611 181.102 129.471 181.922L126.801 197.572C126.691 198.212 126.151 198.682 125.521 198.682L96.2313 198.502C95.4313 198.502 94.8213 197.742 94.9613 196.922L97.6313 181.272C97.7413 180.632 98.2813 180.162 98.9113 180.162Z" fill="#DCFBFF"/>
<path d="M141.121 105.572L112.481 105.402C111.471 105.402 110.721 104.462 110.901 103.432L112.451 92.4221C112.741 90.7521 113.981 89.4421 115.581 89.1221H115.591C115.881 89.1221 116.681 89.1221 117.581 89.1121L140.271 89.2021C141.441 89.2021 142.531 89.7421 143.281 90.6721C144.031 91.6021 144.341 92.8221 144.131 94.0121L142.721 104.192C142.581 104.992 141.911 105.582 141.121 105.582V105.572Z" fill="#DCFBFF"/>
<path d="M91.7013 214.142L93.6213 204.822C93.7613 204.022 94.4313 203.432 95.2213 203.442L123.861 203.612C124.871 203.612 125.621 204.552 125.441 205.582L123.381 215.732C123.051 217.702 121.401 219.122 119.481 219.112L95.7113 218.962C94.7813 218.962 93.8513 218.672 93.1213 218.062C91.9813 217.102 91.4613 215.612 91.7113 214.152H91.7013V214.142Z" fill="#DCFBFF"/>
<path d="M126.141 163.632L125.261 168.782L106.231 168.652L107.111 163.502L126.131 163.632M132.171 157.062L102.881 156.882C102.251 156.882 101.711 157.342 101.601 157.992L98.9313 173.642C98.7913 174.462 99.4013 175.212 100.201 175.222L129.491 175.402C130.121 175.402 130.661 174.942 130.771 174.292L133.441 158.642C133.581 157.822 132.971 157.072 132.171 157.062Z" fill="#A1FDFF"/>
<path d="M134.071 117.082L133.191 122.232L114.171 122.102L115.051 116.952L134.071 117.082ZM140.101 110.512L110.811 110.332C110.181 110.332 109.641 110.792 109.531 111.442L106.861 127.092C106.721 127.912 107.331 128.662 108.131 128.672L137.421 128.852C138.051 128.852 138.591 128.392 138.701 127.742L141.371 112.092C141.511 111.272 140.901 110.522 140.101 110.512Z" fill="#A1FDFF"/>
<path d="M130.101 140.352L129.221 145.512L110.201 145.382L111.081 140.222L130.101 140.352ZM136.141 133.792L106.851 133.612C106.221 133.612 105.681 134.072 105.571 134.722L102.901 150.372C102.761 151.192 103.371 151.942 104.171 151.952L133.461 152.132C134.091 152.132 134.631 151.672 134.741 151.022L137.411 135.372C137.551 134.552 136.941 133.802 136.141 133.792Z" fill="#A1FDFF"/>
<path d="M122.171 186.902L121.291 192.062L102.261 191.932L103.141 186.772L122.161 186.902M128.211 180.342L98.9213 180.162C98.2913 180.162 97.7513 180.622 97.6413 181.272L94.9713 196.922C94.8313 197.742 95.4413 198.492 96.2413 198.502L125.531 198.682C126.161 198.682 126.701 198.222 126.811 197.572L129.481 181.922C129.621 181.102 129.011 180.352 128.211 180.342Z" fill="#A1FDFF"/>
<path d="M137.461 95.7821L137.021 98.9621L117.961 98.8321L118.401 95.7021L137.461 95.7821ZM140.261 89.2021L117.581 89.1121C116.681 89.1121 115.881 89.1121 115.591 89.1221H115.581C113.991 89.4421 112.741 90.7521 112.451 92.4221L110.901 103.432C110.731 104.462 111.481 105.392 112.481 105.402L141.121 105.572C141.911 105.572 142.581 104.992 142.721 104.182L144.131 94.0021C144.331 92.8121 144.021 91.5921 143.281 90.6621C142.531 89.7321 141.431 89.2021 140.271 89.1921L140.261 89.2021Z" fill="#A1FDFF"/>
<path d="M118.011 210.172L117.541 212.502L98.5613 212.372L99.0413 210.042L118.011 210.172ZM123.851 203.612L95.2113 203.442C94.4213 203.442 93.7513 204.022 93.6113 204.822L91.7013 214.142C91.4513 215.602 91.9713 217.092 93.1113 218.052C93.8313 218.662 94.7713 218.942 95.7013 218.952L119.481 219.102C121.411 219.102 123.051 217.692 123.381 215.722L125.441 205.572C125.621 204.542 124.861 203.612 123.861 203.602L123.851 203.612Z" fill="#A1FDFF"/>
<path d="M128.031 161.992L126.591 170.442L104.341 170.292L105.781 161.842L128.031 161.992ZM132.171 157.062L102.881 156.882C102.251 156.882 101.711 157.342 101.601 157.992L98.9313 173.642C98.7913 174.462 99.4013 175.212 100.201 175.222L129.491 175.402C130.121 175.402 130.661 174.942 130.771 174.292L133.441 158.642C133.581 157.822 132.971 157.072 132.171 157.062Z" fill="#83F6FF"/>
<path d="M130.391 159.942L128.251 172.512L101.971 172.352L104.111 159.782L130.391 159.942ZM132.171 157.062L102.881 156.882C102.251 156.882 101.711 157.342 101.601 157.992L98.9313 173.642C98.7913 174.462 99.4013 175.212 100.201 175.222L129.491 175.402C130.121 175.402 130.661 174.942 130.771 174.292L133.441 158.642C133.581 157.822 132.971 157.072 132.171 157.062Z" fill="#00E7FF"/>
<path d="M135.961 115.442L134.521 123.892L112.271 123.742L113.711 115.292L135.961 115.442ZM140.101 110.512L110.811 110.332C110.181 110.332 109.641 110.792 109.531 111.442L106.861 127.092C106.721 127.912 107.331 128.662 108.131 128.672L137.421 128.852C138.051 128.852 138.591 128.392 138.701 127.742L141.371 112.092C141.511 111.272 140.901 110.522 140.101 110.512Z" fill="#83F6FF"/>
<path d="M132.001 138.722L130.561 147.172L108.311 147.022L109.751 138.572L132.001 138.722ZM136.141 133.792L106.851 133.612C106.221 133.612 105.681 134.072 105.571 134.722L102.901 150.372C102.761 151.192 103.371 151.942 104.171 151.952L133.461 152.132C134.091 152.132 134.631 151.672 134.741 151.022L137.411 135.372C137.551 134.552 136.941 133.802 136.141 133.792Z" fill="#83F6FF"/>
<path d="M124.061 185.262L122.621 193.712L100.371 193.572L101.811 185.122L124.061 185.272V185.262ZM128.211 180.342L98.9213 180.162C98.2913 180.162 97.7513 180.622 97.6413 181.272L94.9713 196.922C94.8313 197.742 95.4413 198.492 96.2413 198.502L125.531 198.682C126.161 198.682 126.701 198.222 126.811 197.572L129.481 181.922C129.621 181.102 129.011 180.352 128.211 180.342Z" fill="#83F6FF"/>
<path d="M139.291 94.1421L138.401 100.622L116.131 100.472L117.031 94.0521C117.231 94.0521 117.411 94.0521 117.571 94.0521L139.291 94.1421ZM140.261 89.2021L117.581 89.1121C116.681 89.1121 115.881 89.1121 115.591 89.1221H115.581C113.991 89.4421 112.741 90.7521 112.451 92.4221L110.901 103.432C110.731 104.462 111.481 105.392 112.481 105.402L141.121 105.572C141.911 105.572 142.581 104.992 142.721 104.182L144.131 94.0021C144.331 92.8121 144.021 91.5921 143.281 90.6621C142.531 89.7321 141.431 89.2021 140.271 89.1921L140.261 89.2021Z" fill="#83F6FF"/>
<path d="M119.971 208.532L118.831 214.152L96.6013 214.002L97.7613 208.382L119.971 208.522V208.532ZM123.851 203.612L95.2113 203.442C94.4213 203.442 93.7513 204.022 93.6113 204.822L91.7013 214.142C91.4513 215.602 91.9713 217.092 93.1113 218.052C93.8313 218.662 94.7713 218.942 95.7013 218.952L119.481 219.102C121.411 219.102 123.051 217.692 123.381 215.722L125.441 205.572C125.621 204.542 124.861 203.612 123.861 203.602L123.851 203.612Z" fill="#83F6FF"/>
<path d="M138.331 113.392L136.191 125.962L109.921 125.802L112.061 113.232L138.341 113.392M140.101 110.512L110.811 110.332C110.181 110.332 109.641 110.792 109.531 111.442L106.861 127.092C106.721 127.912 107.331 128.662 108.131 128.672L137.421 128.852C138.051 128.852 138.591 128.392 138.701 127.742L141.371 112.092C141.511 111.272 140.901 110.522 140.101 110.512Z" fill="#00E7FF"/>
<path d="M134.361 136.672L132.221 149.242L105.941 149.082L108.081 136.512L134.361 136.672ZM136.141 133.792L106.851 133.612C106.221 133.612 105.681 134.072 105.571 134.722L102.901 150.372C102.761 151.192 103.371 151.942 104.171 151.952L133.461 152.132C134.091 152.132 134.631 151.672 134.741 151.022L137.411 135.372C137.551 134.552 136.941 133.802 136.141 133.792Z" fill="#00E7FF"/>
<path d="M126.431 183.212L124.291 195.782L98.0113 195.622L100.151 183.052L126.431 183.212ZM128.211 180.342L98.9213 180.162C98.2913 180.162 97.7513 180.622 97.6413 181.272L94.9713 196.922C94.8313 197.742 95.4413 198.492 96.2413 198.502L125.531 198.682C126.161 198.682 126.701 198.222 126.811 197.572L129.481 181.922C129.621 181.102 129.011 180.352 128.211 180.342Z" fill="#00E7FF"/>
<path d="M140.251 92.0821C140.591 92.0821 140.921 92.2421 141.141 92.5121C141.361 92.7821 141.451 93.1521 141.391 93.5021V93.5521L141.371 93.6021L140.111 102.692L113.821 102.532L115.171 92.9021C115.251 92.4821 115.541 92.1521 115.921 92.0121C116.311 92.0121 116.941 92.0121 117.551 92.0121L140.231 92.1021M140.261 89.2021L117.581 89.1121C116.681 89.1121 115.881 89.1121 115.591 89.1221H115.581C113.991 89.4421 112.741 90.7521 112.451 92.4221L110.901 103.432C110.731 104.462 111.481 105.392 112.481 105.402L141.121 105.572C141.911 105.572 142.581 104.992 142.721 104.182L144.131 94.0021C144.331 92.8121 144.021 91.5921 143.281 90.6621C142.531 89.7321 141.431 89.2021 140.271 89.1921L140.261 89.2021Z" fill="#00E7FF"/>
<path d="M122.421 206.482L120.661 215.132V215.172L120.641 215.222C120.541 215.802 120.061 216.222 119.491 216.222L95.7113 216.072C95.3613 216.072 95.0513 215.982 94.8613 215.812C94.5313 215.532 94.3713 215.112 94.4313 214.682L96.1513 206.322L122.411 206.482M123.851 203.612L95.2113 203.442C94.4213 203.442 93.7513 204.022 93.6113 204.822L91.7013 214.142C91.4513 215.602 91.9713 217.092 93.1113 218.052C93.8313 218.662 94.7713 218.942 95.7013 218.952L119.481 219.102C121.411 219.102 123.051 217.692 123.381 215.722L125.441 205.572C125.621 204.542 124.861 203.612 123.861 203.602L123.851 203.612Z" fill="#00E7FF"/>
<path d="M132.171 158.302C132.171 158.302 132.221 158.302 132.251 158.342C132.281 158.382 132.271 158.412 132.271 158.432L129.601 174.082C129.601 174.082 129.551 174.172 129.501 174.172L100.211 173.992C100.211 173.992 100.161 173.992 100.131 173.952C100.101 173.912 100.111 173.882 100.111 173.862L102.781 158.212C102.781 158.212 102.831 158.122 102.881 158.122L132.171 158.302ZM132.171 157.062L102.881 156.882C102.251 156.882 101.711 157.342 101.601 157.992L98.9313 173.642C98.7913 174.462 99.4013 175.212 100.201 175.222L129.491 175.402C130.121 175.402 130.661 174.942 130.771 174.292L133.441 158.642C133.581 157.822 132.971 157.072 132.171 157.062Z" fill="#00C3FF"/>
<path d="M140.101 111.752C140.101 111.752 140.151 111.752 140.181 111.792C140.211 111.832 140.201 111.862 140.201 111.882L137.531 127.532C137.531 127.532 137.481 127.622 137.431 127.622L108.141 127.442C108.141 127.442 108.091 127.442 108.061 127.402C108.031 127.362 108.041 127.332 108.041 127.312L110.711 111.662C110.711 111.662 110.761 111.572 110.811 111.572L140.101 111.752ZM140.101 110.512L110.811 110.332C110.181 110.332 109.641 110.792 109.531 111.442L106.861 127.092C106.721 127.912 107.331 128.662 108.131 128.672L137.421 128.852C138.051 128.852 138.591 128.392 138.701 127.742L141.371 112.092C141.511 111.272 140.901 110.522 140.101 110.512Z" fill="#00C3FF"/>
<path d="M136.131 135.032C136.131 135.032 136.181 135.032 136.211 135.072C136.241 135.112 136.231 135.142 136.231 135.162L133.561 150.812C133.561 150.812 133.511 150.902 133.461 150.902L104.171 150.722C104.171 150.722 104.121 150.722 104.091 150.682C104.061 150.642 104.071 150.612 104.071 150.592L106.741 134.942C106.741 134.942 106.791 134.852 106.841 134.852L136.131 135.032ZM136.141 133.792L106.851 133.612C106.221 133.612 105.681 134.072 105.571 134.722L102.901 150.372C102.761 151.192 103.371 151.942 104.171 151.952L133.461 152.132C134.091 152.132 134.631 151.672 134.741 151.022L137.411 135.372C137.551 134.552 136.941 133.802 136.141 133.792Z" fill="#00C3FF"/>
<path d="M128.201 181.572C128.201 181.572 128.251 181.572 128.281 181.612C128.311 181.652 128.301 181.682 128.301 181.702L125.631 197.352C125.631 197.352 125.581 197.442 125.531 197.442L96.2413 197.262C96.2413 197.262 96.1913 197.262 96.1613 197.222C96.1313 197.182 96.1413 197.152 96.1413 197.132L98.8113 181.482C98.8113 181.482 98.8613 181.392 98.9113 181.392L128.201 181.572ZM128.211 180.342L98.9213 180.162C98.2913 180.162 97.7513 180.622 97.6413 181.272L94.9713 196.922C94.8313 197.742 95.4413 198.492 96.2413 198.502L125.531 198.682C126.161 198.682 126.701 198.222 126.811 197.572L129.481 181.922C129.621 181.102 129.011 180.352 128.211 180.342Z" fill="#00C3FF"/>
<path d="M140.261 90.4321C141.071 90.4321 141.841 90.8121 142.361 91.4621C142.881 92.1121 143.101 92.9621 142.961 93.7921V93.8321L141.551 103.992C141.511 104.202 141.331 104.342 141.131 104.342L112.491 104.172C112.321 104.172 112.211 104.072 112.161 104.012C112.111 103.952 112.041 103.822 112.071 103.652V103.622L113.621 92.6321C113.821 91.5121 114.651 90.6221 115.711 90.3621C116.061 90.3621 116.821 90.3621 117.571 90.3621L140.261 90.4521M140.261 89.2021L117.581 89.1121C116.681 89.1121 115.881 89.1121 115.591 89.1221H115.581C113.991 89.4421 112.741 90.7521 112.451 92.4221L110.901 103.432C110.731 104.462 111.481 105.392 112.481 105.402L141.121 105.572C141.911 105.572 142.581 104.992 142.721 104.182L144.131 94.0021C144.331 92.8121 144.021 91.5921 143.281 90.6621C142.531 89.7321 141.431 89.2021 140.271 89.1921L140.261 89.2021Z" fill="#00C3FF"/>
<path d="M123.851 204.842C124.021 204.842 124.131 204.942 124.181 205.002C124.231 205.062 124.301 205.182 124.271 205.352L122.211 215.472V215.512C121.971 216.882 120.821 217.882 119.481 217.872L95.7113 217.722C95.0013 217.722 94.3413 217.492 93.8713 217.102C93.0913 216.452 92.7113 215.412 92.8813 214.382L94.7913 205.082V205.042C94.8313 204.832 95.0113 204.672 95.2213 204.672L123.861 204.842M123.851 203.612L95.2113 203.442C94.4213 203.442 93.7513 204.022 93.6113 204.822L91.7013 214.142C91.4513 215.602 91.9713 217.092 93.1113 218.052C93.8313 218.662 94.7713 218.942 95.7013 218.952L119.481 219.102C121.411 219.102 123.051 217.692 123.381 215.722L125.441 205.572C125.621 204.542 124.861 203.612 123.861 203.602L123.851 203.612Z" fill="#00C3FF"/>
<ellipse cx="99.5" cy="146" rx="99.5" ry="146" transform="matrix(-0.991315 -0.131506 -0.131506 0.991315 235.672 26.1697)" fill="url(#paint0_radial_168_12043)"/>
<defs>
<radialGradient id="paint0_radial_168_12043" cx="0" cy="0" r="1" gradientUnits="userSpaceOnUse" gradientTransform="translate(99.5 146) rotate(90) scale(146 59.3137)">
<stop stop-color="#B9FFF9" stop-opacity="0.8"/>
<stop offset="1" stop-color="#00E7FF" stop-opacity="0"/>
</radialGradient>
</defs>
</svg>
