<svg width="239" height="318" viewBox="0 0 239 318" fill="none" xmlns="http://www.w3.org/2000/svg">
<path d="M136.496 167.596L133.826 151.946C133.716 151.306 133.176 150.836 132.546 150.836L103.256 151.016C102.456 151.016 101.846 151.776 101.986 152.596L104.656 168.246C104.766 168.886 105.306 169.356 105.936 169.356L135.226 169.176C136.026 169.176 136.636 168.416 136.496 167.596Z" fill="#DCFBFF"/>
<path d="M97.9958 122.806L127.286 122.626C128.086 122.626 128.696 121.866 128.556 121.046L125.886 105.396C125.776 104.756 125.236 104.286 124.606 104.286L95.3158 104.466C94.5158 104.466 93.9058 105.226 94.0458 106.046L96.7158 121.696C96.8258 122.336 97.3658 122.806 97.9958 122.806Z" fill="#DCFBFF"/>
<path d="M132.526 144.326L129.856 128.676C129.746 128.036 129.206 127.566 128.576 127.566L99.2858 127.746C98.4858 127.746 97.8758 128.506 98.0158 129.326L100.686 144.976C100.796 145.616 101.336 146.086 101.966 146.086L131.256 145.906C132.056 145.906 132.666 145.146 132.526 144.326Z" fill="#DCFBFF"/>
<path d="M136.516 174.116L107.226 174.296C106.426 174.296 105.816 175.056 105.956 175.876L108.626 191.526C108.736 192.166 109.276 192.636 109.906 192.636L139.196 192.456C139.996 192.456 140.606 191.696 140.466 190.876L137.796 175.226C137.686 174.586 137.146 174.116 136.516 174.116Z" fill="#DCFBFF"/>
<path d="M94.3058 99.5261L122.946 99.3561C123.956 99.3561 124.706 98.4161 124.526 97.3861L122.976 86.3761C122.686 84.7061 121.446 83.3961 119.846 83.0761H119.836C119.546 83.0761 118.746 83.0761 117.846 83.0661L95.1558 83.1561C93.9858 83.1561 92.8958 83.6961 92.1458 84.6261C91.3958 85.5561 91.0858 86.7761 91.2958 87.9661L92.7058 98.1461C92.8458 98.9461 93.5158 99.5361 94.3058 99.5361V99.5261Z" fill="#DCFBFF"/>
<path d="M143.726 208.096L141.806 198.776C141.666 197.976 140.996 197.386 140.206 197.396L111.566 197.566C110.556 197.566 109.806 198.506 109.986 199.536L112.046 209.686C112.376 211.656 114.026 213.076 115.946 213.066L139.716 212.916C140.646 212.916 141.576 212.626 142.306 212.016C143.446 211.056 143.966 209.566 143.716 208.106H143.726V208.096Z" fill="#DCFBFF"/>
<path d="M109.286 157.586L110.166 162.736L129.196 162.606L128.316 157.456L109.296 157.586M103.256 151.016L132.546 150.836C133.176 150.836 133.716 151.296 133.826 151.946L136.496 167.596C136.636 168.416 136.026 169.166 135.226 169.176L105.936 169.356C105.306 169.356 104.766 168.896 104.656 168.246L101.986 152.596C101.846 151.776 102.456 151.026 103.256 151.016Z" fill="#A1FDFF"/>
<path d="M101.356 111.036L102.236 116.186L121.256 116.056L120.376 110.906L101.356 111.036ZM95.3258 104.466L124.616 104.286C125.246 104.286 125.786 104.746 125.896 105.396L128.566 121.046C128.706 121.866 128.096 122.616 127.296 122.626L98.0058 122.806C97.3758 122.806 96.8358 122.346 96.7258 121.696L94.0558 106.046C93.9158 105.226 94.5258 104.476 95.3258 104.466Z" fill="#A1FDFF"/>
<path d="M105.326 134.306L106.206 139.466L125.226 139.336L124.346 134.176L105.326 134.306ZM99.2858 127.746L128.576 127.566C129.206 127.566 129.746 128.026 129.856 128.676L132.526 144.326C132.666 145.146 132.056 145.896 131.256 145.906L101.966 146.086C101.336 146.086 100.796 145.626 100.686 144.976L98.0158 129.326C97.8758 128.506 98.4858 127.756 99.2858 127.746Z" fill="#A1FDFF"/>
<path d="M113.256 180.856L114.136 186.016L133.166 185.886L132.286 180.726L113.266 180.856M107.216 174.296L136.506 174.116C137.136 174.116 137.676 174.576 137.786 175.226L140.456 190.876C140.596 191.696 139.986 192.446 139.186 192.456L109.896 192.636C109.266 192.636 108.726 192.176 108.616 191.526L105.946 175.876C105.806 175.056 106.416 174.306 107.216 174.296Z" fill="#A1FDFF"/>
<path d="M97.9657 89.7361L98.4057 92.9161L117.466 92.7861L117.026 89.6561L97.9657 89.7361ZM95.1658 83.1561L117.846 83.0661C118.746 83.0661 119.546 83.0661 119.836 83.0761H119.846C121.436 83.3961 122.686 84.7061 122.976 86.3761L124.526 97.3861C124.696 98.4161 123.946 99.3461 122.946 99.3561L94.3057 99.5261C93.5157 99.5261 92.8457 98.9461 92.7057 98.1361L91.2957 87.9561C91.0957 86.7661 91.4057 85.5461 92.1457 84.6161C92.8957 83.6861 93.9957 83.1561 95.1557 83.1461L95.1658 83.1561Z" fill="#A1FDFF"/>
<path d="M117.416 204.126L117.886 206.456L136.866 206.326L136.386 203.996L117.416 204.126ZM111.576 197.566L140.216 197.396C141.006 197.396 141.676 197.976 141.816 198.776L143.726 208.096C143.976 209.556 143.456 211.046 142.316 212.006C141.596 212.616 140.656 212.896 139.726 212.906L115.946 213.056C114.016 213.056 112.376 211.646 112.046 209.676L109.986 199.526C109.806 198.496 110.566 197.566 111.566 197.556L111.576 197.566Z" fill="#A1FDFF"/>
<path d="M107.396 155.946L108.836 164.396L131.086 164.246L129.646 155.796L107.396 155.946ZM103.256 151.016L132.546 150.836C133.176 150.836 133.716 151.296 133.826 151.946L136.496 167.596C136.636 168.416 136.026 169.166 135.226 169.176L105.936 169.356C105.306 169.356 104.766 168.896 104.656 168.246L101.986 152.596C101.846 151.776 102.456 151.026 103.256 151.016Z" fill="#83F6FF"/>
<path d="M105.036 153.896L107.176 166.466L133.456 166.306L131.316 153.736L105.036 153.896ZM103.256 151.016L132.546 150.836C133.176 150.836 133.716 151.296 133.826 151.946L136.496 167.596C136.636 168.416 136.026 169.166 135.226 169.176L105.936 169.356C105.306 169.356 104.766 168.896 104.656 168.246L101.986 152.596C101.846 151.776 102.456 151.026 103.256 151.016Z" fill="#00E7FF"/>
<path d="M99.4658 109.396L100.906 117.846L123.156 117.696L121.716 109.246L99.4658 109.396ZM95.3258 104.466L124.616 104.286C125.246 104.286 125.786 104.746 125.896 105.396L128.566 121.046C128.706 121.866 128.096 122.616 127.296 122.626L98.0058 122.806C97.3758 122.806 96.8358 122.346 96.7258 121.696L94.0558 106.046C93.9158 105.226 94.5258 104.476 95.3258 104.466Z" fill="#83F6FF"/>
<path d="M103.426 132.676L104.866 141.126L127.116 140.976L125.676 132.526L103.426 132.676ZM99.2858 127.746L128.576 127.566C129.206 127.566 129.746 128.026 129.856 128.676L132.526 144.326C132.666 145.146 132.056 145.896 131.256 145.906L101.966 146.086C101.336 146.086 100.796 145.626 100.686 144.976L98.0158 129.326C97.8758 128.506 98.4858 127.756 99.2858 127.746Z" fill="#83F6FF"/>
<path d="M111.366 179.216L112.806 187.666L135.056 187.526L133.616 179.076L111.366 179.226V179.216ZM107.216 174.296L136.506 174.116C137.136 174.116 137.676 174.576 137.786 175.226L140.456 190.876C140.596 191.696 139.986 192.446 139.186 192.456L109.896 192.636C109.266 192.636 108.726 192.176 108.616 191.526L105.946 175.876C105.806 175.056 106.416 174.306 107.216 174.296Z" fill="#83F6FF"/>
<path d="M96.1357 88.0961L97.0258 94.5761L119.296 94.4261L118.396 88.0061C118.196 88.0061 118.016 88.0061 117.856 88.0061L96.1357 88.0961ZM95.1658 83.1561L117.846 83.0661C118.746 83.0661 119.546 83.0661 119.836 83.0761H119.846C121.436 83.3961 122.686 84.7061 122.976 86.3761L124.526 97.3861C124.696 98.4161 123.946 99.3461 122.946 99.3561L94.3057 99.5261C93.5157 99.5261 92.8457 98.9461 92.7057 98.1361L91.2957 87.9561C91.0957 86.7661 91.4057 85.5461 92.1457 84.6161C92.8957 83.6861 93.9957 83.1561 95.1557 83.1461L95.1658 83.1561Z" fill="#83F6FF"/>
<path d="M115.456 202.486L116.596 208.106L138.826 207.956L137.666 202.336L115.456 202.476V202.486ZM111.576 197.566L140.216 197.396C141.006 197.396 141.676 197.976 141.816 198.776L143.726 208.096C143.976 209.556 143.456 211.046 142.316 212.006C141.596 212.616 140.656 212.896 139.726 212.906L115.946 213.056C114.016 213.056 112.376 211.646 112.046 209.676L109.986 199.526C109.806 198.496 110.566 197.566 111.566 197.556L111.576 197.566Z" fill="#83F6FF"/>
<path d="M97.0958 107.346L99.2358 119.916L125.506 119.756L123.366 107.186L97.0858 107.346M95.3258 104.466L124.616 104.286C125.246 104.286 125.786 104.746 125.896 105.396L128.566 121.046C128.706 121.866 128.096 122.616 127.296 122.626L98.0058 122.806C97.3758 122.806 96.8358 122.346 96.7258 121.696L94.0558 106.046C93.9158 105.226 94.5258 104.476 95.3258 104.466Z" fill="#00E7FF"/>
<path d="M101.066 130.626L103.206 143.196L129.486 143.036L127.346 130.466L101.066 130.626ZM99.2858 127.746L128.576 127.566C129.206 127.566 129.746 128.026 129.856 128.676L132.526 144.326C132.666 145.146 132.056 145.896 131.256 145.906L101.966 146.086C101.336 146.086 100.796 145.626 100.686 144.976L98.0158 129.326C97.8758 128.506 98.4858 127.756 99.2858 127.746Z" fill="#00E7FF"/>
<path d="M108.996 177.166L111.136 189.736L137.416 189.576L135.276 177.006L108.996 177.166ZM107.216 174.296L136.506 174.116C137.136 174.116 137.676 174.576 137.786 175.226L140.456 190.876C140.596 191.696 139.986 192.446 139.186 192.456L109.896 192.636C109.266 192.636 108.726 192.176 108.616 191.526L105.946 175.876C105.806 175.056 106.416 174.306 107.216 174.296Z" fill="#00E7FF"/>
<path d="M95.1757 86.0361C94.8357 86.0361 94.5057 86.1961 94.2857 86.4661C94.0658 86.7361 93.9757 87.1061 94.0357 87.4561V87.5061L94.0557 87.5561L95.3157 96.6461L121.606 96.4861L120.256 86.8561C120.176 86.4361 119.886 86.1061 119.506 85.9661C119.116 85.9661 118.486 85.9661 117.876 85.9661L95.1957 86.0561M95.1658 83.1561L117.846 83.0661C118.746 83.0661 119.546 83.0661 119.836 83.0761H119.846C121.436 83.3961 122.686 84.7061 122.976 86.3761L124.526 97.3861C124.696 98.4161 123.946 99.3461 122.946 99.3561L94.3057 99.5261C93.5157 99.5261 92.8457 98.9461 92.7057 98.1361L91.2957 87.9561C91.0957 86.7661 91.4057 85.5461 92.1457 84.6161C92.8957 83.6861 93.9957 83.1561 95.1557 83.1461L95.1658 83.1561Z" fill="#00E7FF"/>
<path d="M113.006 200.436L114.766 209.086V209.126L114.786 209.176C114.886 209.756 115.366 210.176 115.936 210.176L139.716 210.026C140.066 210.026 140.376 209.936 140.566 209.766C140.896 209.486 141.056 209.066 140.996 208.636L139.276 200.276L113.016 200.436M111.576 197.566L140.216 197.396C141.006 197.396 141.676 197.976 141.816 198.776L143.726 208.096C143.976 209.556 143.456 211.046 142.316 212.006C141.596 212.616 140.656 212.896 139.726 212.906L115.946 213.056C114.016 213.056 112.376 211.646 112.046 209.676L109.986 199.526C109.806 198.496 110.566 197.566 111.566 197.556L111.576 197.566Z" fill="#00E7FF"/>
<path d="M103.256 152.256C103.256 152.256 103.206 152.256 103.176 152.296C103.146 152.336 103.156 152.366 103.156 152.386L105.826 168.036C105.826 168.036 105.876 168.126 105.926 168.126L135.216 167.946C135.216 167.946 135.266 167.946 135.296 167.906C135.326 167.866 135.316 167.836 135.316 167.816L132.646 152.166C132.646 152.166 132.596 152.076 132.546 152.076L103.256 152.256ZM103.256 151.016L132.546 150.836C133.176 150.836 133.716 151.296 133.826 151.946L136.496 167.596C136.636 168.416 136.026 169.166 135.226 169.176L105.936 169.356C105.306 169.356 104.766 168.896 104.656 168.246L101.986 152.596C101.846 151.776 102.456 151.026 103.256 151.016Z" fill="#00C3FF"/>
<path d="M95.3258 105.706C95.3258 105.706 95.2758 105.706 95.2458 105.746C95.2158 105.786 95.2258 105.816 95.2258 105.836L97.8958 121.486C97.8958 121.486 97.9458 121.576 97.9958 121.576L127.286 121.396C127.286 121.396 127.336 121.396 127.366 121.356C127.396 121.316 127.386 121.286 127.386 121.266L124.716 105.616C124.716 105.616 124.666 105.526 124.616 105.526L95.3258 105.706ZM95.3258 104.466L124.616 104.286C125.246 104.286 125.786 104.746 125.896 105.396L128.566 121.046C128.706 121.866 128.096 122.616 127.296 122.626L98.0058 122.806C97.3758 122.806 96.8358 122.346 96.7258 121.696L94.0558 106.046C93.9158 105.226 94.5258 104.476 95.3258 104.466Z" fill="#00C3FF"/>
<path d="M99.2958 128.986C99.2958 128.986 99.2458 128.986 99.2158 129.026C99.1858 129.066 99.1958 129.096 99.1958 129.116L101.866 144.766C101.866 144.766 101.916 144.856 101.966 144.856L131.256 144.676C131.256 144.676 131.306 144.676 131.336 144.636C131.366 144.596 131.356 144.566 131.356 144.546L128.686 128.896C128.686 128.896 128.636 128.806 128.586 128.806L99.2958 128.986ZM99.2858 127.746L128.576 127.566C129.206 127.566 129.746 128.026 129.856 128.676L132.526 144.326C132.666 145.146 132.056 145.896 131.256 145.906L101.966 146.086C101.336 146.086 100.796 145.626 100.686 144.976L98.0158 129.326C97.8758 128.506 98.4858 127.756 99.2858 127.746Z" fill="#00C3FF"/>
<path d="M107.226 175.526C107.226 175.526 107.176 175.526 107.146 175.566C107.116 175.606 107.126 175.636 107.126 175.656L109.796 191.306C109.796 191.306 109.846 191.396 109.896 191.396L139.186 191.216C139.186 191.216 139.236 191.216 139.266 191.176C139.296 191.136 139.286 191.106 139.286 191.086L136.616 175.436C136.616 175.436 136.566 175.346 136.516 175.346L107.226 175.526ZM107.216 174.296L136.506 174.116C137.136 174.116 137.676 174.576 137.786 175.226L140.456 190.876C140.596 191.696 139.986 192.446 139.186 192.456L109.896 192.636C109.266 192.636 108.726 192.176 108.616 191.526L105.946 175.876C105.806 175.056 106.416 174.306 107.216 174.296Z" fill="#00C3FF"/>
<path d="M95.1658 84.3861C94.3558 84.3861 93.5857 84.7661 93.0657 85.4161C92.5457 86.0661 92.3257 86.9161 92.4657 87.7461V87.7861L93.8757 97.9461C93.9158 98.1561 94.0957 98.2961 94.2957 98.2961L122.936 98.1261C123.106 98.1261 123.216 98.0261 123.266 97.9661C123.316 97.9061 123.386 97.7761 123.356 97.6061V97.5761L121.806 86.5861C121.606 85.4661 120.776 84.5761 119.716 84.3161C119.366 84.3161 118.606 84.3161 117.856 84.3161L95.1658 84.4061M95.1658 83.1561L117.846 83.0661C118.746 83.0661 119.546 83.0661 119.836 83.0761H119.846C121.436 83.3961 122.686 84.7061 122.976 86.3761L124.526 97.3861C124.696 98.4161 123.946 99.3461 122.946 99.3561L94.3057 99.5261C93.5157 99.5261 92.8457 98.9461 92.7057 98.1361L91.2957 87.9561C91.0957 86.7661 91.4057 85.5461 92.1457 84.6161C92.8957 83.6861 93.9957 83.1561 95.1557 83.1461L95.1658 83.1561Z" fill="#00C3FF"/>
<path d="M111.576 198.796C111.406 198.796 111.296 198.896 111.246 198.956C111.196 199.016 111.126 199.136 111.156 199.306L113.216 209.426V209.466C113.456 210.836 114.606 211.836 115.946 211.826L139.716 211.676C140.426 211.676 141.086 211.446 141.556 211.056C142.336 210.406 142.716 209.366 142.546 208.336L140.636 199.036V198.996C140.596 198.786 140.416 198.626 140.206 198.626L111.566 198.796M111.576 197.566L140.216 197.396C141.006 197.396 141.676 197.976 141.816 198.776L143.726 208.096C143.976 209.556 143.456 211.046 142.316 212.006C141.596 212.616 140.656 212.896 139.726 212.906L115.946 213.056C114.016 213.056 112.376 211.646 112.046 209.676L109.986 199.526C109.806 198.496 110.566 197.566 111.566 197.556L111.576 197.566Z" fill="#00C3FF"/>
<ellipse cx="119.427" cy="158.771" rx="99.5" ry="146" transform="rotate(-8.25318 119.427 158.771)" fill="url(#paint0_radial_168_12042)"/>
<defs>
<radialGradient id="paint0_radial_168_12042" cx="0" cy="0" r="1" gradientUnits="userSpaceOnUse" gradientTransform="translate(119.427 158.771) rotate(90) scale(146 59.3137)">
<stop stop-color="#B9FFF9" stop-opacity="0.8"/>
<stop offset="1" stop-color="#00E7FF" stop-opacity="0"/>
</radialGradient>
</defs>
</svg>
