<svg width="265" height="238" viewBox="0 0 265 238" fill="none" xmlns="http://www.w3.org/2000/svg">
<path d="M133.308 158.782V158.783C138.842 158.752 144.162 160.92 148.098 164.811C152.035 168.703 154.265 174 154.297 179.537C154.329 185.073 152.16 190.396 148.268 194.333C144.376 198.271 139.079 200.501 133.542 200.533H133.349V200.532C127.814 200.557 122.495 198.384 118.563 194.489C114.63 190.593 112.405 185.294 112.378 179.757C112.352 174.221 114.526 168.9 118.422 164.966C122.318 161.033 127.618 158.808 133.154 158.782H133.308Z" fill="#111156" stroke="#725AE8" stroke-width="2"/>
<mask id="path-2-outside-1_111_25504" maskUnits="userSpaceOnUse" x="0" y="0" width="265" height="238" fill="black">
<rect fill="white" width="265" height="238"/>
<path d="M258.422 192.574L158.723 15.5739C155.811 11.2869 151.87 7.79888 147.262 5.42906C142.653 3.05925 137.523 1.88339 132.342 2.00912H131.84C126.515 2.01817 121.282 3.3993 116.646 6.01929C112.01 8.63928 108.127 12.4097 105.372 16.9669L5.86204 193.405C3.21778 197.737 1.87975 202.741 2.00849 207.816C2.13723 212.89 3.72726 217.819 6.58784 222.012C9.48575 226.256 13.391 229.715 17.9537 232.079C22.5165 234.443 27.5943 235.638 32.7325 235.558H231.839C232.094 235.558 232.346 235.558 232.602 235.558C237.783 235.541 242.878 234.232 247.426 231.748C251.973 229.264 255.828 225.684 258.642 221.333C261.366 217.021 262.794 212.018 262.757 206.918C262.72 201.818 261.218 196.836 258.43 192.565M232.664 206.872L232.371 207.239C232.221 207.28 232.065 207.293 231.91 207.28H32.6384C32.5618 207.287 32.4845 207.279 32.4111 207.256C32.3377 207.233 32.2695 207.196 32.2106 207.146C32.1517 207.096 32.1032 207.036 32.0679 206.967C32.0326 206.899 32.0112 206.824 32.0049 206.748L131.602 30.5335C131.741 30.2992 132.016 30.1555 132.541 30.1998C132.767 30.2007 132.993 30.2215 133.215 30.2619L232.296 206.274L232.664 206.872Z"/>
</mask>
<path d="M258.422 192.574L158.723 15.5739C155.811 11.2869 151.87 7.79888 147.262 5.42906C142.653 3.05925 137.523 1.88339 132.342 2.00912H131.84C126.515 2.01817 121.282 3.3993 116.646 6.01929C112.01 8.63928 108.127 12.4097 105.372 16.9669L5.86204 193.405C3.21778 197.737 1.87975 202.741 2.00849 207.816C2.13723 212.89 3.72726 217.819 6.58784 222.012C9.48575 226.256 13.391 229.715 17.9537 232.079C22.5165 234.443 27.5943 235.638 32.7325 235.558H231.839C232.094 235.558 232.346 235.558 232.602 235.558C237.783 235.541 242.878 234.232 247.426 231.748C251.973 229.264 255.828 225.684 258.642 221.333C261.366 217.021 262.794 212.018 262.757 206.918C262.72 201.818 261.218 196.836 258.43 192.565M232.664 206.872L232.371 207.239C232.221 207.28 232.065 207.293 231.91 207.28H32.6384C32.5618 207.287 32.4845 207.279 32.4111 207.256C32.3377 207.233 32.2695 207.196 32.2106 207.146C32.1517 207.096 32.1032 207.036 32.0679 206.967C32.0326 206.899 32.0112 206.824 32.0049 206.748L131.602 30.5335C131.741 30.2992 132.016 30.1555 132.541 30.1998C132.767 30.2007 132.993 30.2215 133.215 30.2619L232.296 206.274L232.664 206.872Z" fill="#111156"/>
<path d="M158.723 15.5739L160.466 14.5923L160.424 14.5194L160.377 14.4501L158.723 15.5739ZM132.342 2.00912V4.00912H132.367L132.391 4.00853L132.342 2.00912ZM131.84 2.00912V0.00911868L131.837 0.0091244L131.84 2.00912ZM105.372 16.9669L103.661 15.9323L103.645 15.9581L103.63 15.9844L105.372 16.9669ZM5.86204 193.405L7.56923 194.447L7.58717 194.417L7.60408 194.387L5.86204 193.405ZM6.58784 222.012L4.93568 223.14L4.9362 223.14L6.58784 222.012ZM32.7325 235.558V233.558H32.7169L32.7012 233.558L32.7325 235.558ZM232.602 235.558V237.558L232.608 237.558L232.602 235.558ZM258.642 221.333L260.321 222.419L260.327 222.41L260.332 222.401L258.642 221.333ZM232.664 206.872L234.228 208.118L235.102 207.021L234.368 205.825L232.664 206.872ZM232.371 207.239L232.89 209.171L233.525 209L233.935 208.486L232.371 207.239ZM231.91 207.28L232.082 205.287L231.996 205.28H231.91V207.28ZM32.6384 207.28V205.28H32.5465L32.455 205.288L32.6384 207.28ZM32.0049 206.748L30.2638 205.764L29.9617 206.298L30.0115 206.91L32.0049 206.748ZM131.602 30.5335L129.88 29.516L129.871 29.5326L129.861 29.5494L131.602 30.5335ZM132.541 30.1998L132.373 32.1927L132.453 32.1995L132.534 32.1998L132.541 30.1998ZM133.215 30.2619L134.958 29.2809L134.497 28.4624L133.573 28.2943L133.215 30.2619ZM232.296 206.274L230.554 207.255L230.572 207.288L230.592 207.321L232.296 206.274ZM258.422 192.574L260.164 191.593L160.466 14.5923L158.723 15.5739L156.98 16.5554L256.679 193.556L258.422 192.574ZM158.723 15.5739L160.377 14.4501C157.278 9.88643 153.082 6.17321 148.176 3.65042L147.262 5.42906L146.347 7.20771C150.658 9.42454 154.345 12.6874 157.069 16.6976L158.723 15.5739ZM147.262 5.42906L148.176 3.65042C143.27 1.12763 137.809 -0.12414 132.294 0.00971019L132.342 2.00912L132.391 4.00853C137.237 3.89092 142.036 4.99087 146.347 7.20771L147.262 5.42906ZM132.342 2.00912V0.00912154H131.84V2.00912V4.00912H132.342V2.00912ZM131.84 2.00912L131.837 0.0091244C126.168 0.0187614 120.597 1.48903 115.662 4.2781L116.646 6.01929L117.63 7.76047C121.967 5.30958 126.862 4.01759 131.843 4.00912L131.84 2.00912ZM116.646 6.01929L115.662 4.2781C110.727 7.06718 106.593 11.081 103.661 15.9323L105.372 16.9669L107.084 18.0016C109.661 13.7385 113.293 10.2114 117.63 7.76047L116.646 6.01929ZM105.372 16.9669L103.63 15.9844L4.12001 192.422L5.86204 193.405L7.60408 194.387L107.115 17.9494L105.372 16.9669ZM5.86204 193.405L4.15486 192.363C1.31011 197.024 -0.129368 202.407 0.00913155 207.866L2.00849 207.816L4.00784 207.765C3.88887 203.075 5.12545 198.451 7.56923 194.447L5.86204 193.405ZM2.00849 207.816L0.00913155 207.866C0.147631 213.325 1.85822 218.628 4.93568 223.14L6.58784 222.012L8.24 220.885C5.59631 217.01 4.12682 212.454 4.00784 207.765L2.00849 207.816ZM6.58784 222.012L4.9362 223.14C8.02064 227.657 12.1772 231.338 17.0337 233.855L17.9537 232.079L18.8738 230.303C14.6047 228.091 10.9509 224.855 8.23949 220.885L6.58784 222.012ZM17.9537 232.079L17.0337 233.855C21.8902 236.371 27.2949 237.643 32.7637 237.557L32.7325 235.558L32.7012 233.558C27.8938 233.633 23.1428 232.515 18.8738 230.303L17.9537 232.079ZM32.7325 235.558V237.558H231.839V235.558V233.558H32.7325V235.558ZM231.839 235.558V237.558C231.839 237.558 231.84 237.558 231.84 237.558C231.841 237.558 231.841 237.558 231.842 237.558C231.842 237.558 231.843 237.558 231.843 237.558C231.844 237.558 231.844 237.558 231.845 237.558C231.845 237.558 231.846 237.558 231.846 237.558C231.847 237.558 231.847 237.558 231.848 237.558C231.848 237.558 231.849 237.558 231.849 237.558C231.85 237.558 231.85 237.558 231.851 237.558C231.851 237.558 231.852 237.558 231.852 237.558C231.853 237.558 231.853 237.558 231.854 237.558C231.854 237.558 231.855 237.558 231.855 237.558C231.855 237.558 231.856 237.558 231.857 237.558C231.857 237.558 231.857 237.558 231.858 237.558C231.859 237.558 231.859 237.558 231.859 237.558C231.86 237.558 231.86 237.558 231.861 237.558C231.861 237.558 231.862 237.558 231.862 237.558C231.863 237.558 231.863 237.558 231.864 237.558C231.864 237.558 231.865 237.558 231.865 237.558C231.866 237.558 231.866 237.558 231.867 237.558C231.867 237.558 231.868 237.558 231.868 237.558C231.869 237.558 231.869 237.558 231.87 237.558C231.87 237.558 231.871 237.558 231.871 237.558C231.872 237.558 231.872 237.558 231.873 237.558C231.873 237.558 231.874 237.558 231.874 237.558C231.875 237.558 231.875 237.558 231.876 237.558C231.876 237.558 231.877 237.558 231.877 237.558C231.878 237.558 231.878 237.558 231.879 237.558C231.879 237.558 231.88 237.558 231.88 237.558C231.881 237.558 231.881 237.558 231.882 237.558C231.882 237.558 231.883 237.558 231.883 237.558C231.884 237.558 231.884 237.558 231.885 237.558C231.885 237.558 231.886 237.558 231.886 237.558C231.887 237.558 231.887 237.558 231.888 237.558C231.888 237.558 231.889 237.558 231.889 237.558C231.89 237.558 231.89 237.558 231.891 237.558C231.891 237.558 231.892 237.558 231.892 237.558C231.893 237.558 231.893 237.558 231.894 237.558C231.894 237.558 231.895 237.558 231.895 237.558C231.896 237.558 231.896 237.558 231.897 237.558C231.897 237.558 231.898 237.558 231.898 237.558C231.899 237.558 231.899 237.558 231.9 237.558C231.9 237.558 231.901 237.558 231.901 237.558C231.902 237.558 231.902 237.558 231.903 237.558C231.903 237.558 231.904 237.558 231.904 237.558C231.905 237.558 231.905 237.558 231.906 237.558C231.906 237.558 231.907 237.558 231.907 237.558C231.908 237.558 231.908 237.558 231.909 237.558C231.909 237.558 231.91 237.558 231.91 237.558C231.911 237.558 231.911 237.558 231.912 237.558C231.912 237.558 231.913 237.558 231.913 237.558C231.914 237.558 231.914 237.558 231.915 237.558C231.915 237.558 231.916 237.558 231.916 237.558C231.917 237.558 231.917 237.558 231.918 237.558C231.918 237.558 231.919 237.558 231.919 237.558C231.92 237.558 231.92 237.558 231.921 237.558C231.921 237.558 231.922 237.558 231.922 237.558C231.923 237.558 231.923 237.558 231.924 237.558C231.924 237.558 231.925 237.558 231.925 237.558C231.926 237.558 231.926 237.558 231.927 237.558C231.927 237.558 231.928 237.558 231.928 237.558C231.929 237.558 231.929 237.558 231.93 237.558C231.93 237.558 231.931 237.558 231.931 237.558C231.932 237.558 231.932 237.558 231.933 237.558C231.933 237.558 231.934 237.558 231.934 237.558C231.935 237.558 231.935 237.558 231.936 237.558C231.936 237.558 231.937 237.558 231.937 237.558C231.938 237.558 231.938 237.558 231.939 237.558C231.939 237.558 231.94 237.558 231.94 237.558C231.941 237.558 231.941 237.558 231.942 237.558C231.942 237.558 231.943 237.558 231.943 237.558C231.944 237.558 231.944 237.558 231.945 237.558C231.945 237.558 231.946 237.558 231.946 237.558C231.947 237.558 231.947 237.558 231.948 237.558C231.948 237.558 231.949 237.558 231.949 237.558C231.95 237.558 231.95 237.558 231.951 237.558C231.951 237.558 231.952 237.558 231.952 237.558C231.953 237.558 231.953 237.558 231.954 237.558C231.954 237.558 231.955 237.558 231.955 237.558C231.956 237.558 231.956 237.558 231.957 237.558C231.957 237.558 231.958 237.558 231.958 237.558C231.959 237.558 231.959 237.558 231.96 237.558C231.96 237.558 231.961 237.558 231.961 237.558C231.962 237.558 231.962 237.558 231.963 237.558C231.963 237.558 231.964 237.558 231.964 237.558C231.965 237.558 231.965 237.558 231.966 237.558C231.966 237.558 231.967 237.558 231.967 237.558C231.968 237.558 231.968 237.558 231.969 237.558C231.969 237.558 231.97 237.558 231.97 237.558C231.971 237.558 231.971 237.558 231.972 237.558C231.972 237.558 231.973 237.558 231.973 237.558C231.974 237.558 231.974 237.558 231.975 237.558C231.975 237.558 231.975 237.558 231.976 237.558C231.976 237.558 231.977 237.558 231.977 237.558C231.978 237.558 231.978 237.558 231.979 237.558C231.979 237.558 231.98 237.558 231.98 237.558C231.981 237.558 231.981 237.558 231.982 237.558C231.982 237.558 231.983 237.558 231.983 237.558C231.984 237.558 231.984 237.558 231.985 237.558C231.985 237.558 231.986 237.558 231.986 237.558C231.987 237.558 231.987 237.558 231.988 237.558C231.988 237.558 231.989 237.558 231.989 237.558C231.99 237.558 231.99 237.558 231.991 237.558C231.991 237.558 231.992 237.558 231.992 237.558C231.993 237.558 231.993 237.558 231.994 237.558C231.994 237.558 231.995 237.558 231.995 237.558C231.996 237.558 231.996 237.558 231.997 237.558C231.997 237.558 231.998 237.558 231.998 237.558C231.999 237.558 231.999 237.558 232 237.558C232 237.558 232.001 237.558 232.001 237.558C232.002 237.558 232.002 237.558 232.003 237.558C232.003 237.558 232.004 237.558 232.004 237.558C232.005 237.558 232.005 237.558 232.006 237.558C232.006 237.558 232.007 237.558 232.007 237.558C232.008 237.558 232.008 237.558 232.009 237.558C232.009 237.558 232.01 237.558 232.01 237.558C232.011 237.558 232.011 237.558 232.012 237.558C232.012 237.558 232.013 237.558 232.013 237.558C232.014 237.558 232.014 237.558 232.015 237.558C232.015 237.558 232.016 237.558 232.016 237.558C232.017 237.558 232.017 237.558 232.018 237.558C232.018 237.558 232.019 237.558 232.019 237.558C232.02 237.558 232.02 237.558 232.021 237.558C232.021 237.558 232.022 237.558 232.022 237.558C232.023 237.558 232.023 237.558 232.024 237.558C232.024 237.558 232.025 237.558 232.025 237.558C232.026 237.558 232.026 237.558 232.027 237.558C232.027 237.558 232.028 237.558 232.028 237.558C232.029 237.558 232.029 237.558 232.03 237.558C232.03 237.558 232.031 237.558 232.031 237.558C232.032 237.558 232.032 237.558 232.033 237.558C232.033 237.558 232.034 237.558 232.034 237.558C232.035 237.558 232.035 237.558 232.036 237.558C232.036 237.558 232.037 237.558 232.037 237.558C232.038 237.558 232.038 237.558 232.039 237.558C232.039 237.558 232.04 237.558 232.04 237.558C232.041 237.558 232.041 237.558 232.042 237.558C232.042 237.558 232.043 237.558 232.043 237.558C232.044 237.558 232.044 237.558 232.045 237.558C232.045 237.558 232.046 237.558 232.046 237.558C232.047 237.558 232.047 237.558 232.048 237.558C232.048 237.558 232.049 237.558 232.049 237.558C232.049 237.558 232.05 237.558 232.05 237.558C232.051 237.558 232.051 237.558 232.052 237.558C232.052 237.558 232.053 237.558 232.053 237.558C232.054 237.558 232.054 237.558 232.055 237.558C232.055 237.558 232.056 237.558 232.056 237.558C232.057 237.558 232.057 237.558 232.058 237.558C232.058 237.558 232.059 237.558 232.059 237.558C232.06 237.558 232.06 237.558 232.061 237.558C232.061 237.558 232.062 237.558 232.062 237.558C232.063 237.558 232.063 237.558 232.064 237.558C232.064 237.558 232.065 237.558 232.065 237.558C232.066 237.558 232.066 237.558 232.067 237.558C232.067 237.558 232.068 237.558 232.068 237.558C232.069 237.558 232.069 237.558 232.07 237.558C232.07 237.558 232.071 237.558 232.071 237.558C232.072 237.558 232.072 237.558 232.073 237.558C232.073 237.558 232.074 237.558 232.074 237.558C232.075 237.558 232.075 237.558 232.076 237.558C232.076 237.558 232.077 237.558 232.077 237.558C232.078 237.558 232.078 237.558 232.079 237.558C232.079 237.558 232.08 237.558 232.08 237.558C232.081 237.558 232.081 237.558 232.082 237.558C232.082 237.558 232.083 237.558 232.083 237.558C232.084 237.558 232.084 237.558 232.085 237.558C232.085 237.558 232.086 237.558 232.086 237.558C232.087 237.558 232.087 237.558 232.088 237.558C232.088 237.558 232.089 237.558 232.089 237.558C232.09 237.558 232.09 237.558 232.091 237.558C232.091 237.558 232.092 237.558 232.092 237.558C232.093 237.558 232.093 237.558 232.094 237.558C232.094 237.558 232.095 237.558 232.095 237.558C232.096 237.558 232.096 237.558 232.097 237.558C232.097 237.558 232.098 237.558 232.098 237.558C232.099 237.558 232.099 237.558 232.1 237.558C232.1 237.558 232.101 237.558 232.101 237.558C232.102 237.558 232.102 237.558 232.103 237.558C232.103 237.558 232.104 237.558 232.104 237.558C232.105 237.558 232.105 237.558 232.106 237.558C232.106 237.558 232.107 237.558 232.107 237.558C232.108 237.558 232.108 237.558 232.109 237.558C232.109 237.558 232.11 237.558 232.11 237.558C232.111 237.558 232.111 237.558 232.112 237.558C232.112 237.558 232.113 237.558 232.113 237.558C232.113 237.558 232.114 237.558 232.114 237.558C232.115 237.558 232.115 237.558 232.116 237.558C232.116 237.558 232.117 237.558 232.117 237.558C232.118 237.558 232.118 237.558 232.119 237.558C232.119 237.558 232.12 237.558 232.12 237.558C232.121 237.558 232.121 237.558 232.122 237.558C232.122 237.558 232.123 237.558 232.123 237.558C232.124 237.558 232.124 237.558 232.125 237.558C232.125 237.558 232.126 237.558 232.126 237.558C232.127 237.558 232.127 237.558 232.128 237.558C232.128 237.558 232.129 237.558 232.129 237.558C232.13 237.558 232.13 237.558 232.131 237.558C232.131 237.558 232.132 237.558 232.132 237.558C232.133 237.558 232.133 237.558 232.134 237.558C232.134 237.558 232.135 237.558 232.135 237.558C232.136 237.558 232.136 237.558 232.137 237.558C232.137 237.558 232.138 237.558 232.138 237.558C232.139 237.558 232.139 237.558 232.14 237.558C232.14 237.558 232.141 237.558 232.141 237.558C232.142 237.558 232.142 237.558 232.143 237.558C232.143 237.558 232.144 237.558 232.144 237.558C232.145 237.558 232.145 237.558 232.146 237.558C232.146 237.558 232.147 237.558 232.147 237.558C232.148 237.558 232.148 237.558 232.149 237.558C232.149 237.558 232.15 237.558 232.15 237.558C232.151 237.558 232.151 237.558 232.152 237.558C232.152 237.558 232.153 237.558 232.153 237.558C232.154 237.558 232.154 237.558 232.155 237.558C232.155 237.558 232.156 237.558 232.156 237.558C232.157 237.558 232.157 237.558 232.158 237.558C232.158 237.558 232.159 237.558 232.159 237.558C232.16 237.558 232.16 237.558 232.161 237.558C232.161 237.558 232.162 237.558 232.162 237.558C232.163 237.558 232.163 237.558 232.164 237.558C232.164 237.558 232.165 237.558 232.165 237.558C232.166 237.558 232.166 237.558 232.167 237.558C232.167 237.558 232.168 237.558 232.168 237.558C232.169 237.558 232.169 237.558 232.17 237.558C232.17 237.558 232.171 237.558 232.171 237.558C232.171 237.558 232.172 237.558 232.172 237.558C232.173 237.558 232.173 237.558 232.174 237.558C232.174 237.558 232.175 237.558 232.175 237.558C232.176 237.558 232.176 237.558 232.177 237.558C232.177 237.558 232.178 237.558 232.178 237.558C232.179 237.558 232.179 237.558 232.18 237.558C232.18 237.558 232.181 237.558 232.181 237.558C232.182 237.558 232.182 237.558 232.183 237.558C232.183 237.558 232.184 237.558 232.184 237.558C232.185 237.558 232.185 237.558 232.186 237.558C232.186 237.558 232.187 237.558 232.187 237.558C232.188 237.558 232.188 237.558 232.189 237.558C232.189 237.558 232.19 237.558 232.19 237.558C232.191 237.558 232.191 237.558 232.192 237.558C232.192 237.558 232.193 237.558 232.193 237.558C232.194 237.558 232.194 237.558 232.195 237.558C232.195 237.558 232.196 237.558 232.196 237.558C232.197 237.558 232.197 237.558 232.198 237.558C232.198 237.558 232.199 237.558 232.199 237.558C232.2 237.558 232.2 237.558 232.201 237.558C232.201 237.558 232.202 237.558 232.202 237.558C232.203 237.558 232.203 237.558 232.204 237.558C232.204 237.558 232.205 237.558 232.205 237.558C232.206 237.558 232.206 237.558 232.207 237.558C232.207 237.558 232.208 237.558 232.208 237.558C232.209 237.558 232.209 237.558 232.21 237.558C232.21 237.558 232.211 237.558 232.211 237.558C232.212 237.558 232.212 237.558 232.213 237.558C232.213 237.558 232.214 237.558 232.214 237.558C232.215 237.558 232.215 237.558 232.216 237.558C232.216 237.558 232.217 237.558 232.217 237.558C232.218 237.558 232.218 237.558 232.219 237.558C232.219 237.558 232.22 237.558 232.22 237.558C232.221 237.558 232.221 237.558 232.222 237.558C232.222 237.558 232.223 237.558 232.223 237.558C232.224 237.558 232.224 237.558 232.225 237.558C232.225 237.558 232.226 237.558 232.226 237.558C232.227 237.558 232.227 237.558 232.228 237.558C232.228 237.558 232.229 237.558 232.229 237.558C232.229 237.558 232.23 237.558 232.23 237.558C232.231 237.558 232.231 237.558 232.232 237.558C232.232 237.558 232.233 237.558 232.233 237.558C232.234 237.558 232.234 237.558 232.235 237.558C232.235 237.558 232.236 237.558 232.236 237.558C232.237 237.558 232.237 237.558 232.238 237.558C232.238 237.558 232.239 237.558 232.239 237.558C232.24 237.558 232.24 237.558 232.241 237.558C232.241 237.558 232.242 237.558 232.242 237.558C232.243 237.558 232.243 237.558 232.244 237.558C232.244 237.558 232.245 237.558 232.245 237.558C232.246 237.558 232.246 237.558 232.247 237.558C232.247 237.558 232.248 237.558 232.248 237.558C232.249 237.558 232.249 237.558 232.25 237.558C232.25 237.558 232.251 237.558 232.251 237.558C232.252 237.558 232.252 237.558 232.253 237.558C232.253 237.558 232.254 237.558 232.254 237.558C232.255 237.558 232.255 237.558 232.256 237.558C232.256 237.558 232.257 237.558 232.257 237.558C232.258 237.558 232.258 237.558 232.259 237.558C232.259 237.558 232.26 237.558 232.26 237.558C232.261 237.558 232.261 237.558 232.262 237.558C232.262 237.558 232.263 237.558 232.263 237.558C232.264 237.558 232.264 237.558 232.265 237.558C232.265 237.558 232.266 237.558 232.266 237.558C232.267 237.558 232.267 237.558 232.268 237.558C232.268 237.558 232.269 237.558 232.269 237.558C232.27 237.558 232.27 237.558 232.271 237.558C232.271 237.558 232.272 237.558 232.272 237.558C232.273 237.558 232.273 237.558 232.274 237.558C232.274 237.558 232.275 237.558 232.275 237.558C232.276 237.558 232.276 237.558 232.277 237.558C232.277 237.558 232.278 237.558 232.278 237.558C232.279 237.558 232.279 237.558 232.28 237.558C232.28 237.558 232.281 237.558 232.281 237.558C232.282 237.558 232.282 237.558 232.283 237.558C232.283 237.558 232.284 237.558 232.284 237.558C232.285 237.558 232.285 237.558 232.285 237.558C232.286 237.558 232.286 237.558 232.287 237.558C232.287 237.558 232.288 237.558 232.288 237.558C232.289 237.558 232.289 237.558 232.29 237.558C232.29 237.558 232.291 237.558 232.291 237.558C232.292 237.558 232.292 237.558 232.293 237.558C232.293 237.558 232.294 237.558 232.294 237.558C232.295 237.558 232.295 237.558 232.296 237.558C232.296 237.558 232.297 237.558 232.297 237.558C232.298 237.558 232.298 237.558 232.299 237.558C232.299 237.558 232.3 237.558 232.3 237.558C232.301 237.558 232.301 237.558 232.302 237.558C232.302 237.558 232.303 237.558 232.303 237.558C232.304 237.558 232.304 237.558 232.305 237.558C232.305 237.558 232.306 237.558 232.306 237.558C232.307 237.558 232.307 237.558 232.308 237.558C232.308 237.558 232.309 237.558 232.309 237.558C232.31 237.558 232.31 237.558 232.311 237.558C232.311 237.558 232.312 237.558 232.312 237.558C232.313 237.558 232.313 237.558 232.314 237.558C232.314 237.558 232.315 237.558 232.315 237.558C232.316 237.558 232.316 237.558 232.317 237.558C232.317 237.558 232.318 237.558 232.318 237.558C232.319 237.558 232.319 237.558 232.32 237.558C232.32 237.558 232.321 237.558 232.321 237.558C232.322 237.558 232.322 237.558 232.323 237.558C232.323 237.558 232.324 237.558 232.324 237.558C232.325 237.558 232.325 237.558 232.326 237.558C232.326 237.558 232.327 237.558 232.327 237.558C232.328 237.558 232.328 237.558 232.329 237.558C232.329 237.558 232.33 237.558 232.33 237.558C232.331 237.558 232.331 237.558 232.332 237.558C232.332 237.558 232.333 237.558 232.333 237.558C232.334 237.558 232.334 237.558 232.335 237.558C232.335 237.558 232.336 237.558 232.336 237.558C232.337 237.558 232.337 237.558 232.338 237.558C232.338 237.558 232.339 237.558 232.339 237.558C232.34 237.558 232.34 237.558 232.341 237.558C232.341 237.558 232.342 237.558 232.342 237.558C232.343 237.558 232.343 237.558 232.344 237.558C232.344 237.558 232.344 237.558 232.345 237.558C232.345 237.558 232.346 237.558 232.346 237.558C232.347 237.558 232.347 237.558 232.348 237.558C232.348 237.558 232.349 237.558 232.349 237.558C232.35 237.558 232.35 237.558 232.351 237.558C232.351 237.558 232.352 237.558 232.352 237.558C232.353 237.558 232.353 237.558 232.354 237.558C232.354 237.558 232.355 237.558 232.355 237.558C232.356 237.558 232.356 237.558 232.357 237.558C232.357 237.558 232.358 237.558 232.358 237.558C232.359 237.558 232.359 237.558 232.36 237.558C232.36 237.558 232.361 237.558 232.361 237.558C232.362 237.558 232.362 237.558 232.363 237.558C232.363 237.558 232.364 237.558 232.364 237.558C232.365 237.558 232.365 237.558 232.366 237.558C232.366 237.558 232.367 237.558 232.367 237.558C232.368 237.558 232.368 237.558 232.369 237.558C232.369 237.558 232.37 237.558 232.37 237.558C232.371 237.558 232.371 237.558 232.372 237.558C232.372 237.558 232.373 237.558 232.373 237.558C232.374 237.558 232.374 237.558 232.375 237.558C232.375 237.558 232.376 237.558 232.376 237.558C232.377 237.558 232.377 237.558 232.378 237.558C232.378 237.558 232.379 237.558 232.379 237.558C232.38 237.558 232.38 237.558 232.381 237.558C232.381 237.558 232.382 237.558 232.382 237.558C232.383 237.558 232.383 237.558 232.384 237.558C232.384 237.558 232.385 237.558 232.385 237.558C232.386 237.558 232.386 237.558 232.387 237.558C232.387 237.558 232.388 237.558 232.388 237.558C232.389 237.558 232.389 237.558 232.39 237.558C232.39 237.558 232.391 237.558 232.391 237.558C232.392 237.558 232.392 237.558 232.393 237.558C232.393 237.558 232.394 237.558 232.394 237.558C232.395 237.558 232.395 237.558 232.396 237.558C232.396 237.558 232.397 237.558 232.397 237.558C232.398 237.558 232.398 237.558 232.399 237.558C232.399 237.558 232.4 237.558 232.4 237.558C232.401 237.558 232.401 237.558 232.402 237.558C232.402 237.558 232.403 237.558 232.403 237.558C232.404 237.558 232.404 237.558 232.405 237.558C232.405 237.558 232.406 237.558 232.406 237.558C232.407 237.558 232.407 237.558 232.408 237.558C232.408 237.558 232.409 237.558 232.409 237.558C232.41 237.558 232.41 237.558 232.41 237.558C232.411 237.558 232.411 237.558 232.412 237.558C232.412 237.558 232.413 237.558 232.413 237.558C232.414 237.558 232.414 237.558 232.415 237.558C232.415 237.558 232.416 237.558 232.416 237.558C232.417 237.558 232.417 237.558 232.418 237.558C232.418 237.558 232.419 237.558 232.419 237.558C232.42 237.558 232.42 237.558 232.421 237.558C232.421 237.558 232.422 237.558 232.422 237.558C232.423 237.558 232.423 237.558 232.424 237.558C232.424 237.558 232.425 237.558 232.425 237.558C232.426 237.558 232.426 237.558 232.427 237.558C232.427 237.558 232.428 237.558 232.428 237.558C232.429 237.558 232.429 237.558 232.43 237.558C232.43 237.558 232.431 237.558 232.431 237.558C232.432 237.558 232.432 237.558 232.433 237.558C232.433 237.558 232.434 237.558 232.434 237.558C232.435 237.558 232.435 237.558 232.436 237.558C232.436 237.558 232.437 237.558 232.437 237.558C232.438 237.558 232.438 237.558 232.439 237.558C232.439 237.558 232.44 237.558 232.44 237.558C232.441 237.558 232.441 237.558 232.442 237.558C232.442 237.558 232.443 237.558 232.443 237.558C232.444 237.558 232.444 237.558 232.445 237.558C232.445 237.558 232.446 237.558 232.446 237.558C232.447 237.558 232.447 237.558 232.448 237.558C232.448 237.558 232.449 237.558 232.449 237.558C232.45 237.558 232.45 237.558 232.451 237.558C232.451 237.558 232.452 237.558 232.452 237.558C232.453 237.558 232.453 237.558 232.454 237.558C232.454 237.558 232.455 237.558 232.455 237.558C232.456 237.558 232.456 237.558 232.457 237.558C232.457 237.558 232.458 237.558 232.458 237.558C232.459 237.558 232.459 237.558 232.46 237.558C232.46 237.558 232.461 237.558 232.461 237.558C232.462 237.558 232.462 237.558 232.463 237.558C232.463 237.558 232.464 237.558 232.464 237.558C232.465 237.558 232.465 237.558 232.466 237.558C232.466 237.558 232.467 237.558 232.467 237.558C232.468 237.558 232.468 237.558 232.469 237.558C232.469 237.558 232.47 237.558 232.47 237.558C232.471 237.558 232.471 237.558 232.472 237.558C232.472 237.558 232.473 237.558 232.473 237.558C232.474 237.558 232.474 237.558 232.475 237.558C232.475 237.558 232.476 237.558 232.476 237.558C232.477 237.558 232.477 237.558 232.478 237.558C232.478 237.558 232.479 237.558 232.479 237.558C232.48 237.558 232.48 237.558 232.481 237.558C232.481 237.558 232.482 237.558 232.482 237.558C232.483 237.558 232.483 237.558 232.484 237.558C232.484 237.558 232.485 237.558 232.485 237.558C232.486 237.558 232.486 237.558 232.487 237.558C232.487 237.558 232.488 237.558 232.488 237.558C232.489 237.558 232.489 237.558 232.49 237.558C232.49 237.558 232.49 237.558 232.491 237.558C232.491 237.558 232.492 237.558 232.492 237.558C232.493 237.558 232.493 237.558 232.494 237.558C232.494 237.558 232.495 237.558 232.495 237.558C232.496 237.558 232.496 237.558 232.497 237.558C232.497 237.558 232.498 237.558 232.498 237.558C232.499 237.558 232.499 237.558 232.5 237.558C232.5 237.558 232.501 237.558 232.501 237.558C232.502 237.558 232.502 237.558 232.503 237.558C232.503 237.558 232.504 237.558 232.504 237.558C232.505 237.558 232.505 237.558 232.506 237.558C232.506 237.558 232.507 237.558 232.507 237.558C232.508 237.558 232.508 237.558 232.509 237.558C232.509 237.558 232.51 237.558 232.51 237.558C232.511 237.558 232.511 237.558 232.512 237.558C232.512 237.558 232.513 237.558 232.513 237.558C232.514 237.558 232.514 237.558 232.515 237.558C232.515 237.558 232.516 237.558 232.516 237.558C232.517 237.558 232.517 237.558 232.518 237.558C232.518 237.558 232.519 237.558 232.519 237.558C232.52 237.558 232.52 237.558 232.521 237.558C232.521 237.558 232.522 237.558 232.522 237.558C232.523 237.558 232.523 237.558 232.524 237.558C232.524 237.558 232.525 237.558 232.525 237.558C232.526 237.558 232.526 237.558 232.527 237.558C232.527 237.558 232.528 237.558 232.528 237.558C232.529 237.558 232.529 237.558 232.53 237.558C232.53 237.558 232.531 237.558 232.531 237.558C232.532 237.558 232.532 237.558 232.533 237.558C232.533 237.558 232.534 237.558 232.534 237.558C232.535 237.558 232.535 237.558 232.536 237.558C232.536 237.558 232.537 237.558 232.537 237.558C232.538 237.558 232.538 237.558 232.539 237.558C232.539 237.558 232.54 237.558 232.54 237.558C232.541 237.558 232.541 237.558 232.542 237.558C232.542 237.558 232.543 237.558 232.543 237.558C232.544 237.558 232.544 237.558 232.545 237.558C232.545 237.558 232.546 237.558 232.546 237.558C232.547 237.558 232.547 237.558 232.548 237.558C232.548 237.558 232.549 237.558 232.549 237.558C232.55 237.558 232.55 237.558 232.551 237.558C232.551 237.558 232.552 237.558 232.552 237.558C232.553 237.558 232.553 237.558 232.554 237.558C232.554 237.558 232.555 237.558 232.555 237.558C232.556 237.558 232.556 237.558 232.557 237.558C232.557 237.558 232.558 237.558 232.558 237.558C232.559 237.558 232.559 237.558 232.56 237.558C232.56 237.558 232.561 237.558 232.561 237.558C232.562 237.558 232.562 237.558 232.563 237.558C232.563 237.558 232.564 237.558 232.564 237.558C232.565 237.558 232.565 237.558 232.566 237.558C232.566 237.558 232.567 237.558 232.567 237.558C232.568 237.558 232.568 237.558 232.569 237.558C232.569 237.558 232.57 237.558 232.57 237.558C232.571 237.558 232.571 237.558 232.572 237.558C232.572 237.558 232.573 237.558 232.573 237.558C232.574 237.558 232.574 237.558 232.575 237.558C232.575 237.558 232.576 237.558 232.576 237.558C232.577 237.558 232.577 237.558 232.578 237.558C232.578 237.558 232.579 237.558 232.579 237.558C232.58 237.558 232.58 237.558 232.581 237.558C232.581 237.558 232.582 237.558 232.582 237.558C232.583 237.558 232.583 237.558 232.584 237.558C232.584 237.558 232.585 237.558 232.585 237.558C232.586 237.558 232.586 237.558 232.587 237.558C232.587 237.558 232.588 237.558 232.588 237.558C232.589 237.558 232.589 237.558 232.59 237.558C232.59 237.558 232.591 237.558 232.591 237.558C232.592 237.558 232.592 237.558 232.593 237.558C232.593 237.558 232.594 237.558 232.594 237.558C232.595 237.558 232.595 237.558 232.596 237.558C232.596 237.558 232.597 237.558 232.597 237.558C232.598 237.558 232.598 237.558 232.599 237.558C232.599 237.558 232.6 237.558 232.6 237.558C232.601 237.558 232.601 237.558 232.602 237.558V235.558V233.558C232.601 233.558 232.601 233.558 232.6 233.558C232.6 233.558 232.599 233.558 232.599 233.558C232.598 233.558 232.598 233.558 232.597 233.558C232.597 233.558 232.596 233.558 232.596 233.558C232.595 233.558 232.595 233.558 232.594 233.558C232.594 233.558 232.593 233.558 232.593 233.558C232.592 233.558 232.592 233.558 232.591 233.558C232.591 233.558 232.59 233.558 232.59 233.558C232.589 233.558 232.589 233.558 232.588 233.558C232.588 233.558 232.587 233.558 232.587 233.558C232.586 233.558 232.586 233.558 232.585 233.558C232.585 233.558 232.584 233.558 232.584 233.558C232.583 233.558 232.583 233.558 232.582 233.558C232.582 233.558 232.581 233.558 232.581 233.558C232.58 233.558 232.58 233.558 232.579 233.558C232.579 233.558 232.578 233.558 232.578 233.558C232.577 233.558 232.577 233.558 232.576 233.558C232.576 233.558 232.575 233.558 232.575 233.558C232.574 233.558 232.574 233.558 232.573 233.558C232.573 233.558 232.572 233.558 232.572 233.558C232.571 233.558 232.571 233.558 232.57 233.558C232.57 233.558 232.569 233.558 232.569 233.558C232.568 233.558 232.568 233.558 232.567 233.558C232.567 233.558 232.566 233.558 232.566 233.558C232.565 233.558 232.565 233.558 232.564 233.558C232.564 233.558 232.563 233.558 232.563 233.558C232.562 233.558 232.562 233.558 232.561 233.558C232.561 233.558 232.56 233.558 232.56 233.558C232.559 233.558 232.559 233.558 232.558 233.558C232.558 233.558 232.557 233.558 232.557 233.558C232.556 233.558 232.556 233.558 232.555 233.558C232.555 233.558 232.554 233.558 232.554 233.558C232.553 233.558 232.553 233.558 232.552 233.558C232.552 233.558 232.551 233.558 232.551 233.558C232.55 233.558 232.55 233.558 232.549 233.558C232.549 233.558 232.548 233.558 232.548 233.558C232.547 233.558 232.547 233.558 232.546 233.558C232.546 233.558 232.545 233.558 232.545 233.558C232.544 233.558 232.544 233.558 232.543 233.558C232.543 233.558 232.542 233.558 232.542 233.558C232.541 233.558 232.541 233.558 232.54 233.558C232.54 233.558 232.539 233.558 232.539 233.558C232.538 233.558 232.538 233.558 232.537 233.558C232.537 233.558 232.536 233.558 232.536 233.558C232.535 233.558 232.535 233.558 232.534 233.558C232.534 233.558 232.533 233.558 232.533 233.558C232.532 233.558 232.532 233.558 232.531 233.558C232.531 233.558 232.53 233.558 232.53 233.558C232.529 233.558 232.529 233.558 232.528 233.558C232.528 233.558 232.527 233.558 232.527 233.558C232.526 233.558 232.526 233.558 232.525 233.558C232.525 233.558 232.524 233.558 232.524 233.558C232.523 233.558 232.523 233.558 232.522 233.558C232.522 233.558 232.521 233.558 232.521 233.558C232.52 233.558 232.52 233.558 232.519 233.558C232.519 233.558 232.518 233.558 232.518 233.558C232.517 233.558 232.517 233.558 232.516 233.558C232.516 233.558 232.515 233.558 232.515 233.558C232.514 233.558 232.514 233.558 232.513 233.558C232.513 233.558 232.512 233.558 232.512 233.558C232.511 233.558 232.511 233.558 232.51 233.558C232.51 233.558 232.509 233.558 232.509 233.558C232.508 233.558 232.508 233.558 232.507 233.558C232.507 233.558 232.506 233.558 232.506 233.558C232.505 233.558 232.505 233.558 232.504 233.558C232.504 233.558 232.503 233.558 232.503 233.558C232.502 233.558 232.502 233.558 232.501 233.558C232.501 233.558 232.5 233.558 232.5 233.558C232.499 233.558 232.499 233.558 232.498 233.558C232.498 233.558 232.497 233.558 232.497 233.558C232.496 233.558 232.496 233.558 232.495 233.558C232.495 233.558 232.494 233.558 232.494 233.558C232.493 233.558 232.493 233.558 232.492 233.558C232.492 233.558 232.491 233.558 232.491 233.558C232.49 233.558 232.49 233.558 232.49 233.558C232.489 233.558 232.489 233.558 232.488 233.558C232.488 233.558 232.487 233.558 232.487 233.558C232.486 233.558 232.486 233.558 232.485 233.558C232.485 233.558 232.484 233.558 232.484 233.558C232.483 233.558 232.483 233.558 232.482 233.558C232.482 233.558 232.481 233.558 232.481 233.558C232.48 233.558 232.48 233.558 232.479 233.558C232.479 233.558 232.478 233.558 232.478 233.558C232.477 233.558 232.477 233.558 232.476 233.558C232.476 233.558 232.475 233.558 232.475 233.558C232.474 233.558 232.474 233.558 232.473 233.558C232.473 233.558 232.472 233.558 232.472 233.558C232.471 233.558 232.471 233.558 232.47 233.558C232.47 233.558 232.469 233.558 232.469 233.558C232.468 233.558 232.468 233.558 232.467 233.558C232.467 233.558 232.466 233.558 232.466 233.558C232.465 233.558 232.465 233.558 232.464 233.558C232.464 233.558 232.463 233.558 232.463 233.558C232.462 233.558 232.462 233.558 232.461 233.558C232.461 233.558 232.46 233.558 232.46 233.558C232.459 233.558 232.459 233.558 232.458 233.558C232.458 233.558 232.457 233.558 232.457 233.558C232.456 233.558 232.456 233.558 232.455 233.558C232.455 233.558 232.454 233.558 232.454 233.558C232.453 233.558 232.453 233.558 232.452 233.558C232.452 233.558 232.451 233.558 232.451 233.558C232.45 233.558 232.45 233.558 232.449 233.558C232.449 233.558 232.448 233.558 232.448 233.558C232.447 233.558 232.447 233.558 232.446 233.558C232.446 233.558 232.445 233.558 232.445 233.558C232.444 233.558 232.444 233.558 232.443 233.558C232.443 233.558 232.442 233.558 232.442 233.558C232.441 233.558 232.441 233.558 232.44 233.558C232.44 233.558 232.439 233.558 232.439 233.558C232.438 233.558 232.438 233.558 232.437 233.558C232.437 233.558 232.436 233.558 232.436 233.558C232.435 233.558 232.435 233.558 232.434 233.558C232.434 233.558 232.433 233.558 232.433 233.558C232.432 233.558 232.432 233.558 232.431 233.558C232.431 233.558 232.43 233.558 232.43 233.558C232.429 233.558 232.429 233.558 232.428 233.558C232.428 233.558 232.427 233.558 232.427 233.558C232.426 233.558 232.426 233.558 232.425 233.558C232.425 233.558 232.424 233.558 232.424 233.558C232.423 233.558 232.423 233.558 232.422 233.558C232.422 233.558 232.421 233.558 232.421 233.558C232.42 233.558 232.42 233.558 232.419 233.558C232.419 233.558 232.418 233.558 232.418 233.558C232.417 233.558 232.417 233.558 232.416 233.558C232.416 233.558 232.415 233.558 232.415 233.558C232.414 233.558 232.414 233.558 232.413 233.558C232.413 233.558 232.412 233.558 232.412 233.558C232.411 233.558 232.411 233.558 232.41 233.558C232.41 233.558 232.41 233.558 232.409 233.558C232.409 233.558 232.408 233.558 232.408 233.558C232.407 233.558 232.407 233.558 232.406 233.558C232.406 233.558 232.405 233.558 232.405 233.558C232.404 233.558 232.404 233.558 232.403 233.558C232.403 233.558 232.402 233.558 232.402 233.558C232.401 233.558 232.401 233.558 232.4 233.558C232.4 233.558 232.399 233.558 232.399 233.558C232.398 233.558 232.398 233.558 232.397 233.558C232.397 233.558 232.396 233.558 232.396 233.558C232.395 233.558 232.395 233.558 232.394 233.558C232.394 233.558 232.393 233.558 232.393 233.558C232.392 233.558 232.392 233.558 232.391 233.558C232.391 233.558 232.39 233.558 232.39 233.558C232.389 233.558 232.389 233.558 232.388 233.558C232.388 233.558 232.387 233.558 232.387 233.558C232.386 233.558 232.386 233.558 232.385 233.558C232.385 233.558 232.384 233.558 232.384 233.558C232.383 233.558 232.383 233.558 232.382 233.558C232.382 233.558 232.381 233.558 232.381 233.558C232.38 233.558 232.38 233.558 232.379 233.558C232.379 233.558 232.378 233.558 232.378 233.558C232.377 233.558 232.377 233.558 232.376 233.558C232.376 233.558 232.375 233.558 232.375 233.558C232.374 233.558 232.374 233.558 232.373 233.558C232.373 233.558 232.372 233.558 232.372 233.558C232.371 233.558 232.371 233.558 232.37 233.558C232.37 233.558 232.369 233.558 232.369 233.558C232.368 233.558 232.368 233.558 232.367 233.558C232.367 233.558 232.366 233.558 232.366 233.558C232.365 233.558 232.365 233.558 232.364 233.558C232.364 233.558 232.363 233.558 232.363 233.558C232.362 233.558 232.362 233.558 232.361 233.558C232.361 233.558 232.36 233.558 232.36 233.558C232.359 233.558 232.359 233.558 232.358 233.558C232.358 233.558 232.357 233.558 232.357 233.558C232.356 233.558 232.356 233.558 232.355 233.558C232.355 233.558 232.354 233.558 232.354 233.558C232.353 233.558 232.353 233.558 232.352 233.558C232.352 233.558 232.351 233.558 232.351 233.558C232.35 233.558 232.35 233.558 232.349 233.558C232.349 233.558 232.348 233.558 232.348 233.558C232.347 233.558 232.347 233.558 232.346 233.558C232.346 233.558 232.345 233.558 232.345 233.558C232.344 233.558 232.344 233.558 232.344 233.558C232.343 233.558 232.343 233.558 232.342 233.558C232.342 233.558 232.341 233.558 232.341 233.558C232.34 233.558 232.34 233.558 232.339 233.558C232.339 233.558 232.338 233.558 232.338 233.558C232.337 233.558 232.337 233.558 232.336 233.558C232.336 233.558 232.335 233.558 232.335 233.558C232.334 233.558 232.334 233.558 232.333 233.558C232.333 233.558 232.332 233.558 232.332 233.558C232.331 233.558 232.331 233.558 232.33 233.558C232.33 233.558 232.329 233.558 232.329 233.558C232.328 233.558 232.328 233.558 232.327 233.558C232.327 233.558 232.326 233.558 232.326 233.558C232.325 233.558 232.325 233.558 232.324 233.558C232.324 233.558 232.323 233.558 232.323 233.558C232.322 233.558 232.322 233.558 232.321 233.558C232.321 233.558 232.32 233.558 232.32 233.558C232.319 233.558 232.319 233.558 232.318 233.558C232.318 233.558 232.317 233.558 232.317 233.558C232.316 233.558 232.316 233.558 232.315 233.558C232.315 233.558 232.314 233.558 232.314 233.558C232.313 233.558 232.313 233.558 232.312 233.558C232.312 233.558 232.311 233.558 232.311 233.558C232.31 233.558 232.31 233.558 232.309 233.558C232.309 233.558 232.308 233.558 232.308 233.558C232.307 233.558 232.307 233.558 232.306 233.558C232.306 233.558 232.305 233.558 232.305 233.558C232.304 233.558 232.304 233.558 232.303 233.558C232.303 233.558 232.302 233.558 232.302 233.558C232.301 233.558 232.301 233.558 232.3 233.558C232.3 233.558 232.299 233.558 232.299 233.558C232.298 233.558 232.298 233.558 232.297 233.558C232.297 233.558 232.296 233.558 232.296 233.558C232.295 233.558 232.295 233.558 232.294 233.558C232.294 233.558 232.293 233.558 232.293 233.558C232.292 233.558 232.292 233.558 232.291 233.558C232.291 233.558 232.29 233.558 232.29 233.558C232.289 233.558 232.289 233.558 232.288 233.558C232.288 233.558 232.287 233.558 232.287 233.558C232.286 233.558 232.286 233.558 232.285 233.558C232.285 233.558 232.285 233.558 232.284 233.558C232.284 233.558 232.283 233.558 232.283 233.558C232.282 233.558 232.282 233.558 232.281 233.558C232.281 233.558 232.28 233.558 232.28 233.558C232.279 233.558 232.279 233.558 232.278 233.558C232.278 233.558 232.277 233.558 232.277 233.558C232.276 233.558 232.276 233.558 232.275 233.558C232.275 233.558 232.274 233.558 232.274 233.558C232.273 233.558 232.273 233.558 232.272 233.558C232.272 233.558 232.271 233.558 232.271 233.558C232.27 233.558 232.27 233.558 232.269 233.558C232.269 233.558 232.268 233.558 232.268 233.558C232.267 233.558 232.267 233.558 232.266 233.558C232.266 233.558 232.265 233.558 232.265 233.558C232.264 233.558 232.264 233.558 232.263 233.558C232.263 233.558 232.262 233.558 232.262 233.558C232.261 233.558 232.261 233.558 232.26 233.558C232.26 233.558 232.259 233.558 232.259 233.558C232.258 233.558 232.258 233.558 232.257 233.558C232.257 233.558 232.256 233.558 232.256 233.558C232.255 233.558 232.255 233.558 232.254 233.558C232.254 233.558 232.253 233.558 232.253 233.558C232.252 233.558 232.252 233.558 232.251 233.558C232.251 233.558 232.25 233.558 232.25 233.558C232.249 233.558 232.249 233.558 232.248 233.558C232.248 233.558 232.247 233.558 232.247 233.558C232.246 233.558 232.246 233.558 232.245 233.558C232.245 233.558 232.244 233.558 232.244 233.558C232.243 233.558 232.243 233.558 232.242 233.558C232.242 233.558 232.241 233.558 232.241 233.558C232.24 233.558 232.24 233.558 232.239 233.558C232.239 233.558 232.238 233.558 232.238 233.558C232.237 233.558 232.237 233.558 232.236 233.558C232.236 233.558 232.235 233.558 232.235 233.558C232.234 233.558 232.234 233.558 232.233 233.558C232.233 233.558 232.232 233.558 232.232 233.558C232.231 233.558 232.231 233.558 232.23 233.558C232.23 233.558 232.229 233.558 232.229 233.558C232.229 233.558 232.228 233.558 232.228 233.558C232.227 233.558 232.227 233.558 232.226 233.558C232.226 233.558 232.225 233.558 232.225 233.558C232.224 233.558 232.224 233.558 232.223 233.558C232.223 233.558 232.222 233.558 232.222 233.558C232.221 233.558 232.221 233.558 232.22 233.558C232.22 233.558 232.219 233.558 232.219 233.558C232.218 233.558 232.218 233.558 232.217 233.558C232.217 233.558 232.216 233.558 232.216 233.558C232.215 233.558 232.215 233.558 232.214 233.558C232.214 233.558 232.213 233.558 232.213 233.558C232.212 233.558 232.212 233.558 232.211 233.558C232.211 233.558 232.21 233.558 232.21 233.558C232.209 233.558 232.209 233.558 232.208 233.558C232.208 233.558 232.207 233.558 232.207 233.558C232.206 233.558 232.206 233.558 232.205 233.558C232.205 233.558 232.204 233.558 232.204 233.558C232.203 233.558 232.203 233.558 232.202 233.558C232.202 233.558 232.201 233.558 232.201 233.558C232.2 233.558 232.2 233.558 232.199 233.558C232.199 233.558 232.198 233.558 232.198 233.558C232.197 233.558 232.197 233.558 232.196 233.558C232.196 233.558 232.195 233.558 232.195 233.558C232.194 233.558 232.194 233.558 232.193 233.558C232.193 233.558 232.192 233.558 232.192 233.558C232.191 233.558 232.191 233.558 232.19 233.558C232.19 233.558 232.189 233.558 232.189 233.558C232.188 233.558 232.188 233.558 232.187 233.558C232.187 233.558 232.186 233.558 232.186 233.558C232.185 233.558 232.185 233.558 232.184 233.558C232.184 233.558 232.183 233.558 232.183 233.558C232.182 233.558 232.182 233.558 232.181 233.558C232.181 233.558 232.18 233.558 232.18 233.558C232.179 233.558 232.179 233.558 232.178 233.558C232.178 233.558 232.177 233.558 232.177 233.558C232.176 233.558 232.176 233.558 232.175 233.558C232.175 233.558 232.174 233.558 232.174 233.558C232.173 233.558 232.173 233.558 232.172 233.558C232.172 233.558 232.171 233.558 232.171 233.558C232.171 233.558 232.17 233.558 232.17 233.558C232.169 233.558 232.169 233.558 232.168 233.558C232.168 233.558 232.167 233.558 232.167 233.558C232.166 233.558 232.166 233.558 232.165 233.558C232.165 233.558 232.164 233.558 232.164 233.558C232.163 233.558 232.163 233.558 232.162 233.558C232.162 233.558 232.161 233.558 232.161 233.558C232.16 233.558 232.16 233.558 232.159 233.558C232.159 233.558 232.158 233.558 232.158 233.558C232.157 233.558 232.157 233.558 232.156 233.558C232.156 233.558 232.155 233.558 232.155 233.558C232.154 233.558 232.154 233.558 232.153 233.558C232.153 233.558 232.152 233.558 232.152 233.558C232.151 233.558 232.151 233.558 232.15 233.558C232.15 233.558 232.149 233.558 232.149 233.558C232.148 233.558 232.148 233.558 232.147 233.558C232.147 233.558 232.146 233.558 232.146 233.558C232.145 233.558 232.145 233.558 232.144 233.558C232.144 233.558 232.143 233.558 232.143 233.558C232.142 233.558 232.142 233.558 232.141 233.558C232.141 233.558 232.14 233.558 232.14 233.558C232.139 233.558 232.139 233.558 232.138 233.558C232.138 233.558 232.137 233.558 232.137 233.558C232.136 233.558 232.136 233.558 232.135 233.558C232.135 233.558 232.134 233.558 232.134 233.558C232.133 233.558 232.133 233.558 232.132 233.558C232.132 233.558 232.131 233.558 232.131 233.558C232.13 233.558 232.13 233.558 232.129 233.558C232.129 233.558 232.128 233.558 232.128 233.558C232.127 233.558 232.127 233.558 232.126 233.558C232.126 233.558 232.125 233.558 232.125 233.558C232.124 233.558 232.124 233.558 232.123 233.558C232.123 233.558 232.122 233.558 232.122 233.558C232.121 233.558 232.121 233.558 232.12 233.558C232.12 233.558 232.119 233.558 232.119 233.558C232.118 233.558 232.118 233.558 232.117 233.558C232.117 233.558 232.116 233.558 232.116 233.558C232.115 233.558 232.115 233.558 232.114 233.558C232.114 233.558 232.113 233.558 232.113 233.558C232.113 233.558 232.112 233.558 232.112 233.558C232.111 233.558 232.111 233.558 232.11 233.558C232.11 233.558 232.109 233.558 232.109 233.558C232.108 233.558 232.108 233.558 232.107 233.558C232.107 233.558 232.106 233.558 232.106 233.558C232.105 233.558 232.105 233.558 232.104 233.558C232.104 233.558 232.103 233.558 232.103 233.558C232.102 233.558 232.102 233.558 232.101 233.558C232.101 233.558 232.1 233.558 232.1 233.558C232.099 233.558 232.099 233.558 232.098 233.558C232.098 233.558 232.097 233.558 232.097 233.558C232.096 233.558 232.096 233.558 232.095 233.558C232.095 233.558 232.094 233.558 232.094 233.558C232.093 233.558 232.093 233.558 232.092 233.558C232.092 233.558 232.091 233.558 232.091 233.558C232.09 233.558 232.09 233.558 232.089 233.558C232.089 233.558 232.088 233.558 232.088 233.558C232.087 233.558 232.087 233.558 232.086 233.558C232.086 233.558 232.085 233.558 232.085 233.558C232.084 233.558 232.084 233.558 232.083 233.558C232.083 233.558 232.082 233.558 232.082 233.558C232.081 233.558 232.081 233.558 232.08 233.558C232.08 233.558 232.079 233.558 232.079 233.558C232.078 233.558 232.078 233.558 232.077 233.558C232.077 233.558 232.076 233.558 232.076 233.558C232.075 233.558 232.075 233.558 232.074 233.558C232.074 233.558 232.073 233.558 232.073 233.558C232.072 233.558 232.072 233.558 232.071 233.558C232.071 233.558 232.07 233.558 232.07 233.558C232.069 233.558 232.069 233.558 232.068 233.558C232.068 233.558 232.067 233.558 232.067 233.558C232.066 233.558 232.066 233.558 232.065 233.558C232.065 233.558 232.064 233.558 232.064 233.558C232.063 233.558 232.063 233.558 232.062 233.558C232.062 233.558 232.061 233.558 232.061 233.558C232.06 233.558 232.06 233.558 232.059 233.558C232.059 233.558 232.058 233.558 232.058 233.558C232.057 233.558 232.057 233.558 232.056 233.558C232.056 233.558 232.055 233.558 232.055 233.558C232.054 233.558 232.054 233.558 232.053 233.558C232.053 233.558 232.052 233.558 232.052 233.558C232.051 233.558 232.051 233.558 232.05 233.558C232.05 233.558 232.049 233.558 232.049 233.558C232.049 233.558 232.048 233.558 232.048 233.558C232.047 233.558 232.047 233.558 232.046 233.558C232.046 233.558 232.045 233.558 232.045 233.558C232.044 233.558 232.044 233.558 232.043 233.558C232.043 233.558 232.042 233.558 232.042 233.558C232.041 233.558 232.041 233.558 232.04 233.558C232.04 233.558 232.039 233.558 232.039 233.558C232.038 233.558 232.038 233.558 232.037 233.558C232.037 233.558 232.036 233.558 232.036 233.558C232.035 233.558 232.035 233.558 232.034 233.558C232.034 233.558 232.033 233.558 232.033 233.558C232.032 233.558 232.032 233.558 232.031 233.558C232.031 233.558 232.03 233.558 232.03 233.558C232.029 233.558 232.029 233.558 232.028 233.558C232.028 233.558 232.027 233.558 232.027 233.558C232.026 233.558 232.026 233.558 232.025 233.558C232.025 233.558 232.024 233.558 232.024 233.558C232.023 233.558 232.023 233.558 232.022 233.558C232.022 233.558 232.021 233.558 232.021 233.558C232.02 233.558 232.02 233.558 232.019 233.558C232.019 233.558 232.018 233.558 232.018 233.558C232.017 233.558 232.017 233.558 232.016 233.558C232.016 233.558 232.015 233.558 232.015 233.558C232.014 233.558 232.014 233.558 232.013 233.558C232.013 233.558 232.012 233.558 232.012 233.558C232.011 233.558 232.011 233.558 232.01 233.558C232.01 233.558 232.009 233.558 232.009 233.558C232.008 233.558 232.008 233.558 232.007 233.558C232.007 233.558 232.006 233.558 232.006 233.558C232.005 233.558 232.005 233.558 232.004 233.558C232.004 233.558 232.003 233.558 232.003 233.558C232.002 233.558 232.002 233.558 232.001 233.558C232.001 233.558 232 233.558 232 233.558C231.999 233.558 231.999 233.558 231.998 233.558C231.998 233.558 231.997 233.558 231.997 233.558C231.996 233.558 231.996 233.558 231.995 233.558C231.995 233.558 231.994 233.558 231.994 233.558C231.993 233.558 231.993 233.558 231.992 233.558C231.992 233.558 231.991 233.558 231.991 233.558C231.99 233.558 231.99 233.558 231.989 233.558C231.989 233.558 231.988 233.558 231.988 233.558C231.987 233.558 231.987 233.558 231.986 233.558C231.986 233.558 231.985 233.558 231.985 233.558C231.984 233.558 231.984 233.558 231.983 233.558C231.983 233.558 231.982 233.558 231.982 233.558C231.981 233.558 231.981 233.558 231.98 233.558C231.98 233.558 231.979 233.558 231.979 233.558C231.978 233.558 231.978 233.558 231.977 233.558C231.977 233.558 231.976 233.558 231.976 233.558C231.975 233.558 231.975 233.558 231.975 233.558C231.974 233.558 231.974 233.558 231.973 233.558C231.973 233.558 231.972 233.558 231.972 233.558C231.971 233.558 231.971 233.558 231.97 233.558C231.97 233.558 231.969 233.558 231.969 233.558C231.968 233.558 231.968 233.558 231.967 233.558C231.967 233.558 231.966 233.558 231.966 233.558C231.965 233.558 231.965 233.558 231.964 233.558C231.964 233.558 231.963 233.558 231.963 233.558C231.962 233.558 231.962 233.558 231.961 233.558C231.961 233.558 231.96 233.558 231.96 233.558C231.959 233.558 231.959 233.558 231.958 233.558C231.958 233.558 231.957 233.558 231.957 233.558C231.956 233.558 231.956 233.558 231.955 233.558C231.955 233.558 231.954 233.558 231.954 233.558C231.953 233.558 231.953 233.558 231.952 233.558C231.952 233.558 231.951 233.558 231.951 233.558C231.95 233.558 231.95 233.558 231.949 233.558C231.949 233.558 231.948 233.558 231.948 233.558C231.947 233.558 231.947 233.558 231.946 233.558C231.946 233.558 231.945 233.558 231.945 233.558C231.944 233.558 231.944 233.558 231.943 233.558C231.943 233.558 231.942 233.558 231.942 233.558C231.941 233.558 231.941 233.558 231.94 233.558C231.94 233.558 231.939 233.558 231.939 233.558C231.938 233.558 231.938 233.558 231.937 233.558C231.937 233.558 231.936 233.558 231.936 233.558C231.935 233.558 231.935 233.558 231.934 233.558C231.934 233.558 231.933 233.558 231.933 233.558C231.932 233.558 231.932 233.558 231.931 233.558C231.931 233.558 231.93 233.558 231.93 233.558C231.929 233.558 231.929 233.558 231.928 233.558C231.928 233.558 231.927 233.558 231.927 233.558C231.926 233.558 231.926 233.558 231.925 233.558C231.925 233.558 231.924 233.558 231.924 233.558C231.923 233.558 231.923 233.558 231.922 233.558C231.922 233.558 231.921 233.558 231.921 233.558C231.92 233.558 231.92 233.558 231.919 233.558C231.919 233.558 231.918 233.558 231.918 233.558C231.917 233.558 231.917 233.558 231.916 233.558C231.916 233.558 231.915 233.558 231.915 233.558C231.914 233.558 231.914 233.558 231.913 233.558C231.913 233.558 231.912 233.558 231.912 233.558C231.911 233.558 231.911 233.558 231.91 233.558C231.91 233.558 231.909 233.558 231.909 233.558C231.908 233.558 231.908 233.558 231.907 233.558C231.907 233.558 231.906 233.558 231.906 233.558C231.905 233.558 231.905 233.558 231.904 233.558C231.904 233.558 231.903 233.558 231.903 233.558C231.902 233.558 231.902 233.558 231.901 233.558C231.901 233.558 231.9 233.558 231.9 233.558C231.899 233.558 231.899 233.558 231.898 233.558C231.898 233.558 231.897 233.558 231.897 233.558C231.896 233.558 231.896 233.558 231.895 233.558C231.895 233.558 231.894 233.558 231.894 233.558C231.893 233.558 231.893 233.558 231.892 233.558C231.892 233.558 231.891 233.558 231.891 233.558C231.89 233.558 231.89 233.558 231.889 233.558C231.889 233.558 231.888 233.558 231.888 233.558C231.887 233.558 231.887 233.558 231.886 233.558C231.886 233.558 231.885 233.558 231.885 233.558C231.884 233.558 231.884 233.558 231.883 233.558C231.883 233.558 231.882 233.558 231.882 233.558C231.881 233.558 231.881 233.558 231.88 233.558C231.88 233.558 231.879 233.558 231.879 233.558C231.878 233.558 231.878 233.558 231.877 233.558C231.877 233.558 231.876 233.558 231.876 233.558C231.875 233.558 231.875 233.558 231.874 233.558C231.874 233.558 231.873 233.558 231.873 233.558C231.872 233.558 231.872 233.558 231.871 233.558C231.871 233.558 231.87 233.558 231.87 233.558C231.869 233.558 231.869 233.558 231.868 233.558C231.868 233.558 231.867 233.558 231.867 233.558C231.866 233.558 231.866 233.558 231.865 233.558C231.865 233.558 231.864 233.558 231.864 233.558C231.863 233.558 231.863 233.558 231.862 233.558C231.862 233.558 231.861 233.558 231.861 233.558C231.86 233.558 231.86 233.558 231.859 233.558C231.859 233.558 231.859 233.558 231.858 233.558C231.857 233.558 231.857 233.558 231.857 233.558C231.856 233.558 231.855 233.558 231.855 233.558C231.855 233.558 231.854 233.558 231.854 233.558C231.853 233.558 231.853 233.558 231.852 233.558C231.852 233.558 231.851 233.558 231.851 233.558C231.85 233.558 231.85 233.558 231.849 233.558C231.849 233.558 231.848 233.558 231.848 233.558C231.847 233.558 231.847 233.558 231.846 233.558C231.846 233.558 231.845 233.558 231.845 233.558C231.844 233.558 231.844 233.558 231.843 233.558C231.843 233.558 231.842 233.558 231.842 233.558C231.841 233.558 231.841 233.558 231.84 233.558C231.84 233.558 231.839 233.558 231.839 233.558V235.558ZM232.602 235.558L232.608 237.558C238.122 237.54 243.545 236.147 248.384 233.503L247.426 231.748L246.467 229.993C242.212 232.317 237.444 233.542 232.595 233.558L232.602 235.558ZM247.426 231.748L248.384 233.503C253.224 230.859 257.327 227.049 260.321 222.419L258.642 221.333L256.962 220.247C254.329 224.318 250.722 227.668 246.467 229.993L247.426 231.748ZM258.642 221.333L260.332 222.401C263.261 217.766 264.797 212.387 264.757 206.903L262.757 206.918L260.757 206.933C260.792 211.649 259.471 216.277 256.951 220.264L258.642 221.333ZM262.757 206.918L264.757 206.903C264.717 201.42 263.102 196.064 260.105 191.472L258.43 192.565L256.756 193.658C259.333 197.608 260.722 202.216 260.757 206.933L262.757 206.918ZM232.664 206.872L231.1 205.625L230.807 205.993L232.371 207.239L233.935 208.486L234.228 208.118L232.664 206.872ZM232.371 207.239L231.852 205.308C231.927 205.288 232.004 205.281 232.082 205.287L231.91 207.28L231.737 209.273C232.125 209.306 232.515 209.272 232.89 209.171L232.371 207.239ZM231.91 207.28V205.28H32.6384V207.28V209.28H231.91V207.28ZM32.6384 207.28L32.455 205.288C32.6417 205.271 32.83 205.291 33.0088 205.347L32.4111 207.256L31.8134 209.164C32.1391 209.266 32.4819 209.303 32.8219 209.272L32.6384 207.28ZM32.4111 207.256L33.0088 205.347C33.1877 205.403 33.3537 205.494 33.4973 205.615L32.2106 207.146L30.9239 208.677C31.1853 208.897 31.4876 209.062 31.8134 209.164L32.4111 207.256ZM32.2106 207.146L33.4973 205.615C33.6408 205.735 33.759 205.883 33.845 206.05L32.0679 206.967L30.2907 207.885C30.4473 208.188 30.6625 208.458 30.9239 208.677L32.2106 207.146ZM32.0679 206.967L33.845 206.05C33.931 206.217 33.9831 206.398 33.9983 206.585L32.0049 206.748L30.0115 206.91C30.0392 207.25 30.1341 207.582 30.2907 207.885L32.0679 206.967ZM32.0049 206.748L33.746 207.732L133.343 31.5176L131.602 30.5335L129.861 29.5494L30.2638 205.764L32.0049 206.748ZM131.602 30.5335L133.324 31.5509C133.169 31.8134 132.926 32.0183 132.659 32.1234C132.434 32.2117 132.302 32.1868 132.373 32.1927L132.541 30.1998L132.709 28.2069C131.763 28.127 130.559 28.3678 129.88 29.516L131.602 30.5335ZM132.541 30.1998L132.534 32.1998C132.642 32.2002 132.751 32.2102 132.857 32.2296L133.215 30.2619L133.573 28.2943C133.235 28.2327 132.892 28.2011 132.548 28.1999L132.541 30.1998ZM133.215 30.2619L131.473 31.243L230.554 207.255L232.296 206.274L234.039 205.293L134.958 29.2809L133.215 30.2619ZM232.296 206.274L230.592 207.321L230.96 207.919L232.664 206.872L234.368 205.825L234.001 205.227L232.296 206.274Z" fill="#725AE8" mask="url(#path-2-outside-1_111_25504)"/>
<path d="M133.188 62.761C135.822 62.7587 138.43 63.2825 140.859 64.301C143.136 65.2559 145.213 66.628 146.983 68.345L147.333 68.6926L147.34 68.6995L147.346 68.7073C148.728 70.1721 149.786 71.9115 150.449 73.8127C151.07 75.595 151.333 77.4817 151.222 79.3635L151.195 79.7405C150.992 82.1115 146.17 138.884 145.427 144.721V144.754L145.417 144.823C144.541 151.066 138.586 154.202 133.399 154.231H133.317C130.586 154.373 127.898 153.503 125.769 151.784C123.625 150.054 122.201 147.589 121.774 144.867L121.773 144.861L121.772 144.853C120.978 139.267 115.307 82.3293 115.068 79.9319L115.067 79.9202L115.066 79.9094C114.909 77.8709 115.182 75.822 115.868 73.8958C116.553 71.9695 117.635 70.2084 119.043 68.7268L119.053 68.717C120.894 66.8337 123.093 65.3364 125.52 64.3137C127.947 63.291 130.554 62.7633 133.188 62.761Z" fill="#111156" stroke="#725AE8" stroke-width="2"/>
<path fill-rule="evenodd" clip-rule="evenodd" d="M133.185 162.506C128.599 162.513 124.204 164.341 120.965 167.588C117.726 170.834 115.909 175.234 115.913 179.82C115.916 184.406 117.741 188.803 120.985 192.044C124.229 195.286 128.627 197.106 133.213 197.106C137.799 197.106 142.197 195.286 145.441 192.044C148.685 188.803 150.509 184.406 150.513 179.82C150.517 175.234 148.699 170.834 145.461 167.588C142.222 164.341 137.826 162.513 133.24 162.506H133.185Z" fill="#E72EED"/>
<path d="M133.185 162.506C128.599 162.513 124.204 164.341 120.965 167.588C117.726 170.834 115.909 175.234 115.913 179.82C115.916 184.406 117.741 188.803 120.985 192.044C124.229 195.286 128.627 197.106 133.213 197.106C137.799 197.106 142.197 195.286 145.441 192.044C148.685 188.803 150.509 184.406 150.513 179.82C150.517 175.234 148.699 170.834 145.461 167.588C142.222 164.341 137.826 162.513 133.24 162.506H133.185Z" stroke="#FF88ED" stroke-miterlimit="10"/>
<path fill-rule="evenodd" clip-rule="evenodd" d="M32.1968 232.167C27.7001 232.168 23.2714 231.069 19.297 228.966C15.3225 226.862 11.9232 223.818 9.39542 220.099C6.9035 216.447 5.5181 212.154 5.40542 207.734C5.29273 203.314 6.45754 198.955 8.76013 195.181L108.331 18.635C110.79 14.5983 114.245 11.2613 118.364 8.94402C122.484 6.62678 127.13 5.40713 131.856 5.4021H132.964C137.485 5.4007 141.938 6.50087 145.939 8.60744C149.939 10.714 153.366 13.7635 155.923 17.4922L256.83 196.677V196.579C258.656 200.168 259.519 204.17 259.332 208.193C259.145 212.215 257.916 216.12 255.765 219.524C253.28 223.41 249.854 226.605 245.806 228.815C241.758 231.025 237.218 232.179 232.605 232.168L32.1968 232.167ZM132.208 26.7838C131.49 26.7841 130.784 26.9724 130.162 27.3297C129.539 27.6871 129.021 28.2013 128.659 28.821L29.0434 205.078C28.6871 205.629 28.4997 206.273 28.5041 206.93C28.5085 207.586 28.7046 208.227 29.0682 208.774C29.4503 209.362 29.9732 209.844 30.5893 210.178C31.2055 210.512 31.8953 210.686 32.5961 210.685H231.924C232.658 210.714 233.386 210.553 234.039 210.217C234.692 209.881 235.247 209.382 235.651 208.769L235.839 208.476L235.793 208.354C236.086 207.856 236.222 207.28 236.18 206.704C236.138 206.127 235.921 205.577 235.558 205.127L235.203 204.522L135.84 28.0171C135.13 26.8601 132.958 26.8033 132.532 26.8033C132.424 26.7908 132.315 26.7855 132.206 26.7874" fill="#E72EED"/>
<path d="M132.971 6.07471C137.362 6.0711 141.689 7.13396 145.579 9.17191C149.468 11.2099 152.805 14.162 155.302 17.7744L254.967 194.755L256.53 197.516C258.145 200.944 258.87 204.724 258.637 208.507C258.404 212.289 257.221 215.951 255.197 219.155C252.774 222.946 249.432 226.064 245.483 228.221C241.534 230.377 237.105 231.502 232.605 231.492C232.38 231.492 232.156 231.492 231.896 231.492H32.7044H32.1987C27.8117 231.493 23.491 230.421 19.6135 228.369C15.736 226.317 12.4193 223.348 9.95272 219.72C7.53122 216.167 6.18744 211.99 6.08292 207.692C5.9784 203.393 7.1176 199.156 9.36357 195.49L108.895 19.0131C111.292 15.0701 114.663 11.8099 118.684 9.54566C122.705 7.28141 127.24 6.0892 131.855 6.08359H132.373L132.971 6.07471ZM32.5926 211.365H32.731H231.81C231.917 211.365 232.025 211.376 232.132 211.376C232.945 211.377 233.745 211.172 234.459 210.782C235.172 210.391 235.776 209.827 236.213 209.142L236.593 208.554L236.527 208.394C236.798 207.815 236.905 207.173 236.836 206.537C236.768 205.902 236.526 205.297 236.139 204.789L235.784 204.214L136.408 27.6463C135.569 26.2692 133.336 26.1308 132.706 26.1308H132.657C132.502 26.1166 132.348 26.1095 132.195 26.1095C131.359 26.1118 130.538 26.3329 129.813 26.7511C129.089 27.1692 128.486 27.7696 128.066 28.4928L28.5005 204.668C28.0626 205.332 27.8292 206.11 27.8292 206.906C27.8292 207.701 28.0626 208.479 28.5005 209.143C28.943 209.826 29.5498 210.388 30.2653 210.776C30.9808 211.164 31.7822 211.367 32.5962 211.365M132.971 4.71362C132.761 4.71362 132.552 4.71362 132.343 4.71362H131.855C127.01 4.73685 122.252 5.99741 118.031 8.37574C113.811 10.7541 110.268 14.1713 107.738 18.3032L8.18171 194.823C5.80439 198.708 4.60104 203.197 4.71659 207.751C4.83214 212.304 6.26166 216.727 8.83297 220.486C11.4253 224.295 14.9093 227.412 18.9817 229.567C23.0541 231.721 27.5914 232.848 32.1987 232.848C32.3761 232.848 32.5536 232.848 32.731 232.848H231.899C232.133 232.848 232.369 232.848 232.609 232.848C237.333 232.848 241.982 231.663 246.129 229.399C250.276 227.136 253.788 223.867 256.344 219.894C258.796 216.025 260.082 211.532 260.049 206.952C260.015 202.372 258.663 197.899 256.154 194.067V194.093L156.486 17.1089C153.867 13.2892 150.357 10.1646 146.26 8.00493C142.163 5.84531 137.602 4.71567 132.971 4.71362ZM32.5926 210.006C32.0055 210.007 31.4275 209.861 30.9109 209.582C30.3943 209.304 29.9556 208.9 29.6344 208.409C29.3422 207.965 29.1865 207.446 29.1865 206.915C29.1865 206.385 29.3422 205.865 29.6344 205.422L129.248 29.1671C129.549 28.6501 129.98 28.221 130.498 27.9227C131.017 27.6244 131.604 27.4673 132.202 27.4671C132.314 27.4671 132.422 27.4671 132.534 27.483C133.512 27.483 134.87 27.7279 135.249 28.3526L234.625 204.872L235.033 205.552C235.341 205.937 235.51 206.416 235.51 206.909C235.51 207.403 235.341 207.881 235.033 208.267L235.088 208.403C234.771 208.897 234.335 209.303 233.821 209.584C233.306 209.865 232.729 210.013 232.142 210.013C232.064 210.013 231.988 210.013 231.912 210.013H32.731C32.6849 210.013 32.6387 210.013 32.5926 210.013" fill="#FF88ED"/>
<path fill-rule="evenodd" clip-rule="evenodd" d="M141.741 144.303C142.451 138.871 147.497 79.3979 147.497 79.3979C148.149 72.4451 141.551 66.4719 133.186 66.4719C124.82 66.4719 118.167 72.6101 118.765 79.5611C118.765 79.5611 124.659 138.762 125.447 144.303C126.778 153.101 140.655 152.041 141.741 144.303Z" fill="#E72EED"/>
<path d="M141.741 144.303C142.451 138.871 147.497 79.3978 147.497 79.3978C148.149 72.4451 141.551 66.4719 133.186 66.4719C124.82 66.4719 118.167 72.6101 118.765 79.5611C118.765 79.5611 124.659 138.762 125.447 144.303C126.778 153.101 140.655 152.041 141.741 144.303Z" stroke="#FF88ED" stroke-miterlimit="10"/>
</svg>
