<svg width="40" height="40" viewBox="0 0 40 40" fill="none" xmlns="http://www.w3.org/2000/svg">
<path d="M33.6767 11.8728C33.7247 11.6488 33.7567 11.4248 33.7727 11.2008C33.7727 11.1768 33.7727 10.3128 33.7727 10.2088V9.59276C33.7727 9.44876 33.7727 9.34477 33.7567 9.31277C33.7167 8.58477 33.5007 7.88877 33.1167 7.30477L31.4847 4.73677C30.2527 2.80877 27.6447 2.24877 25.6687 3.48077C8.3727 15.1448 8.3167 15.1928 8.2527 15.2408C7.0607 16.1528 6.3247 17.5448 6.2367 19.0408C6.2367 19.0888 6.2287 19.1368 6.2207 19.2168V20.7608C6.2207 22.5288 7.0687 23.9848 8.8127 25.2088L25.7247 36.5528C26.3887 36.9688 27.1567 37.1848 27.9487 37.1848C29.3807 37.1848 30.7007 36.4728 31.4847 35.2648L33.1247 32.6888C33.5487 32.0248 33.7807 31.2648 33.7807 30.4808C33.7807 30.4488 33.7807 29.2008 33.7807 28.9208L33.7567 28.5768C33.7407 28.4248 33.7167 28.2808 33.6847 28.1448C33.4447 27.0648 32.7967 26.1368 31.8767 25.5448L23.5647 19.8568L31.8447 14.4488C32.7887 13.8648 33.4447 12.9368 33.6847 11.8488L33.6767 11.8728Z" fill="#1F007D"/>
<path d="M27.9445 34.4945C27.3925 34.4945 26.8565 34.3425 26.3925 34.0465L9.53647 22.7345C8.15247 21.7585 7.48047 20.6465 7.48047 19.3185C7.48047 18.1025 8.04847 16.9745 9.02447 16.2305C9.10447 16.1745 18.4965 9.8305 26.3685 4.5185C26.8565 4.2145 27.4005 4.0625 27.9525 4.0625C28.9605 4.0625 29.8805 4.5665 30.4245 5.4065L32.0565 7.9745C32.4725 8.6225 32.6165 9.3985 32.4485 10.1505C32.2805 10.9105 31.8165 11.5505 31.1445 11.9665L20.2085 19.1025L31.1605 26.5985C31.8085 27.0065 32.2725 27.6625 32.4405 28.4225C32.6085 29.1665 32.4725 29.9345 32.0565 30.5825L30.4245 33.1425C29.8725 33.9825 28.9445 34.4865 27.9445 34.4865V34.4945Z" fill="white"/>
</svg>
