<svg width="27" height="27" viewBox="0 0 27 27" fill="none" xmlns="http://www.w3.org/2000/svg">
<g clip-path="url(#clip0_362_5357)">
<path d="M27 7.20312C27 7.09788 26.9537 5.96362 26.9422 5.88177C26.9422 5.78822 26.9422 5.70637 26.9422 5.60113C26.838 4.38502 26.2712 3.28584 25.3458 2.51408C23.9692 1.34474 21.9216 1.14595 20.3368 1.99957C18.2314 0.689909 15.8252 0 13.3612 0C5.99229 0 0 6.05717 0 13.5058C0 20.9545 5.99229 27.0117 13.3612 27.0117C20.7301 27.0117 26.7224 20.9545 26.7224 13.5058C26.7224 12.2663 26.5488 11.0152 26.2018 9.81074C26.7339 9.01559 27.0231 8.10351 27 7.21481V7.20312ZM13.9974 19.0485H13.8586C13.1645 19.0485 12.5167 18.7796 12.0193 18.3001L6.67481 13.0381C5.63368 12.0091 5.61054 10.3252 6.62853 9.27285C7.12596 8.75834 7.79692 8.466 8.51414 8.466C9.23136 8.466 9.85604 8.73495 10.3535 9.22607L13.662 12.4885L20.4293 4.30316C20.9267 3.69511 21.6671 3.3443 22.4537 3.3443C23.0668 3.3443 23.6684 3.56648 24.1427 3.96405C24.6864 4.4201 25.0103 5.06323 25.0797 5.76483C25.1491 6.46644 24.9293 7.16804 24.4781 7.70593L15.8946 18.0896C15.4319 18.6509 14.7378 19.0017 14.009 19.0368L13.9974 19.0485Z" fill="#8EFAFF"/>
</g>
<defs>
<clipPath id="clip0_362_5357">
<rect width="27" height="27" fill="white"/>
</clipPath>
</defs>
</svg>
