<svg width="32" height="33" viewBox="0 0 32 33" fill="none" xmlns="http://www.w3.org/2000/svg">
<path d="M15.9956 32.3005C7.17703 32.3005 0 25.055 0 16.1481C0 7.24128 7.17703 0 15.9956 0C24.8142 0 31.9912 7.24548 31.9912 16.1481C31.9912 25.0508 24.8142 32.2963 15.9956 32.2963V32.3005ZM15.9956 5.09323C9.95725 5.09323 5.04512 10.0522 5.04512 16.1481C5.04512 22.2441 9.95725 27.2031 15.9956 27.2031C22.0339 27.2031 26.9461 22.2441 26.9461 16.1481C26.9461 10.0522 22.0339 5.09323 15.9956 5.09323Z" fill="#2A1C7C"/>
<path d="M22.9356 18.1872H16.7352C15.343 18.1872 14.2126 17.046 14.2126 15.6405V8.76427C14.2126 7.3588 15.343 6.21765 16.7352 6.21765C18.1274 6.21765 19.2578 7.3588 19.2578 8.76427V13.0939H22.9356C24.3278 13.0939 25.4582 14.2351 25.4582 15.6405C25.4582 17.046 24.3278 18.1872 22.9356 18.1872Z" fill="#2A1C7C"/>
<path d="M22.9356 17.2474H16.7352C15.8583 17.2474 15.1477 16.5299 15.1477 15.6447V8.76842C15.1477 7.88319 15.8583 7.16577 16.7352 7.16577C17.6121 7.16577 18.3227 7.88319 18.3227 8.76842V14.0421H22.9356C23.8125 14.0421 24.5231 14.7595 24.5231 15.6447C24.5231 16.5299 23.8125 17.2474 22.9356 17.2474Z" fill="#FF418D"/>
<path d="M15.9955 31.239C7.75454 31.239 1.05127 24.4718 1.05127 16.1523C1.05127 7.8328 7.75454 1.0614 15.9955 1.0614C24.2364 1.0614 30.9396 7.8286 30.9396 16.1481C30.9396 24.4676 24.2364 31.2348 15.9955 31.2348V31.239ZM15.9955 4.03175C9.37945 4.03175 3.99356 9.46901 3.99356 16.1481C3.99356 22.8272 9.37945 28.2645 15.9955 28.2645C22.6115 28.2645 27.9973 22.8272 27.9973 16.1481C27.9973 9.46901 22.6115 4.03175 15.9955 4.03175Z" fill="#FF418D"/>
<path d="M22.9359 16.2698H16.7354C16.3905 16.2698 16.1121 15.9887 16.1121 15.6405V8.7642C16.1121 8.41598 16.3905 8.13489 16.7354 8.13489C17.0804 8.13489 17.3588 8.41598 17.3588 8.7642V15.0112H22.9359C23.2808 15.0112 23.5592 15.2923 23.5592 15.6405C23.5592 15.9887 23.2808 16.2698 22.9359 16.2698Z" fill="#FF9EC5"/>
<path d="M15.9956 30.3832C8.22011 30.3832 1.89917 23.9978 1.89917 16.1524C1.89917 8.30697 8.22427 1.91736 15.9956 1.91736C23.7669 1.91736 30.092 8.30278 30.092 16.1482C30.092 23.9936 23.7669 30.379 15.9956 30.379V30.3832ZM15.9956 3.17598C8.90997 3.17598 3.1459 8.99502 3.1459 16.1482C3.1459 23.3014 8.90997 29.1204 15.9956 29.1204C23.0812 29.1204 28.8452 23.3014 28.8452 16.1482C28.8452 8.99502 23.0812 3.17598 15.9956 3.17598Z" fill="#FF9EC5"/>
</svg>
