<svg width="32" height="33" viewBox="0 0 32 33" fill="none" xmlns="http://www.w3.org/2000/svg">
<path d="M15.9956 32.3005C7.17703 32.3005 0 25.055 0 16.1481C0 7.24128 7.17703 0 15.9956 0C24.8142 0 31.9912 7.24548 31.9912 16.1481C31.9912 25.0508 24.8142 32.2963 15.9956 32.2963V32.3005ZM15.9956 5.09323C9.95725 5.09323 5.04512 10.0522 5.04512 16.1481C5.04512 22.2441 9.95725 27.2031 15.9956 27.2031C22.0339 27.2031 26.9461 22.2441 26.9461 16.1481C26.9461 10.0522 22.0339 5.09323 15.9956 5.09323Z" fill="#2A1C7C"/>
<path d="M22.9356 18.1871H16.7352C15.343 18.1871 14.2126 17.046 14.2126 15.6405V8.76421C14.2126 7.35874 15.343 6.21759 16.7352 6.21759C18.1274 6.21759 19.2578 7.35874 19.2578 8.76421V13.0939H22.9356C24.3278 13.0939 25.4582 14.235 25.4582 15.6405C25.4582 17.046 24.3278 18.1871 22.9356 18.1871Z" fill="#2A1C7C"/>
<path d="M22.9356 17.2474H16.7352C15.8583 17.2474 15.1477 16.5299 15.1477 15.6447V8.76842C15.1477 7.88319 15.8583 7.16577 16.7352 7.16577C17.6121 7.16577 18.3227 7.88319 18.3227 8.76842V14.0421H22.9356C23.8125 14.0421 24.5231 14.7595 24.5231 15.6447C24.5231 16.5299 23.8125 17.2474 22.9356 17.2474Z" fill="#FF98C1"/>
<path d="M15.9956 31.2391C7.75467 31.2391 1.05139 24.4719 1.05139 16.1524C1.05139 7.83286 7.75467 1.06146 15.9956 1.06146C24.2365 1.06146 30.9398 7.82867 30.9398 16.1482C30.9398 24.4677 24.2365 31.2349 15.9956 31.2349V31.2391ZM15.9956 4.03182C9.37958 4.03182 3.99368 9.46907 3.99368 16.1482C3.99368 22.8273 9.37958 28.2645 15.9956 28.2645C22.6116 28.2645 27.9975 22.8273 27.9975 16.1482C27.9975 9.46907 22.6116 4.03182 15.9956 4.03182Z" fill="#FF98C1"/>
<path d="M22.9357 16.2698H16.7353C16.3904 16.2698 16.1119 15.9887 16.1119 15.6405V8.7642C16.1119 8.41598 16.3904 8.13489 16.7353 8.13489C17.0802 8.13489 17.3587 8.41598 17.3587 8.7642V15.0112H22.9357C23.2807 15.0112 23.5591 15.2923 23.5591 15.6405C23.5591 15.9887 23.2807 16.2698 22.9357 16.2698Z" fill="#FFBDD7"/>
<path d="M15.9956 30.3832C8.22011 30.3832 1.89917 23.9978 1.89917 16.1523C1.89917 8.30691 8.22427 1.9173 15.9956 1.9173C23.7669 1.9173 30.092 8.30272 30.092 16.1481C30.092 23.9936 23.7669 30.379 15.9956 30.379V30.3832ZM15.9956 3.17592C8.90997 3.17592 3.1459 8.99496 3.1459 16.1481C3.1459 23.3013 8.90997 29.1204 15.9956 29.1204C23.0812 29.1204 28.8452 23.3013 28.8452 16.1481C28.8452 8.99496 23.0812 3.17592 15.9956 3.17592Z" fill="#FFBDD7"/>
</svg>
