<svg width="71" height="55" viewBox="0 0 71 55" fill="none" xmlns="http://www.w3.org/2000/svg">
<g clip-path="url(#clip0_113_25550)">
<path d="M63.7721 54.9999H7.22794C3.24011 54.9999 0 51.7321 0 47.7102V18.8192C0 14.7973 3.24011 11.5295 7.22794 11.5295H14.6054L18.0865 3.37667C18.128 3.2845 18.1696 3.20071 18.2194 3.11692C19.3161 1.19812 21.3598 0.00830078 23.5614 0.00830078H47.4469C49.6485 0.00830078 51.6923 1.19812 52.7889 3.11692C52.8388 3.20071 52.8803 3.29288 52.9218 3.37667L56.4029 11.5295H63.7804C67.7682 11.5295 71.0083 14.7973 71.0083 18.8192V47.7102C71.0083 51.7321 67.7682 54.9999 63.7804 54.9999H63.7721ZM7.22794 16.5569C5.99005 16.5569 4.98479 17.5708 4.98479 18.8192V47.7102C4.98479 48.9586 5.99005 49.9725 7.22794 49.9725H63.7804C65.0182 49.9725 66.0235 48.9586 66.0235 47.7102V18.8192C66.0235 17.5708 65.0182 16.5569 63.7804 16.5569H54.7579C53.7609 16.5569 52.8637 15.962 52.4649 15.0403L48.4106 5.53847C48.1946 5.22006 47.829 5.03572 47.4469 5.03572H23.5614C23.1793 5.03572 22.8137 5.22844 22.5977 5.53847L18.5434 15.0403C18.1529 15.962 17.2474 16.5569 16.2504 16.5569H7.22794Z" fill="#7580FF"/>
<path d="M35.5 44.6185C27.7403 44.6185 21.4346 38.2588 21.4346 30.4328C21.4346 22.6068 27.7486 16.2471 35.5 16.2471C43.2513 16.2471 49.5654 22.6151 49.5654 30.4328C49.5654 38.2504 43.2513 44.6185 35.5 44.6185ZM35.5 21.2745C30.4903 21.2745 26.4194 25.3802 26.4194 30.4328C26.4194 35.4853 30.4903 39.5911 35.5 39.5911C40.5097 39.5911 44.5806 35.4853 44.5806 30.4328C44.5806 25.3802 40.5097 21.2745 35.5 21.2745Z" fill="#7580FF"/>
<path d="M57.9316 27.5921C59.588 27.5921 60.9307 26.2379 60.9307 24.5673C60.9307 22.8967 59.588 21.5425 57.9316 21.5425C56.2752 21.5425 54.9324 22.8967 54.9324 24.5673C54.9324 26.2379 56.2752 27.5921 57.9316 27.5921Z" fill="#7580FF"/>
<path d="M57.9316 28.2457C55.9211 28.2457 54.2844 26.595 54.2844 24.5673C54.2844 22.5396 55.9211 20.8889 57.9316 20.8889C59.9422 20.8889 61.5788 22.5396 61.5788 24.5673C61.5788 26.595 59.9422 28.2457 57.9316 28.2457ZM57.9316 22.196C56.6356 22.196 55.5805 23.2602 55.5805 24.5673C55.5805 25.8744 56.6356 26.9386 57.9316 26.9386C59.2277 26.9386 60.2828 25.8744 60.2828 24.5673C60.2828 23.2602 59.2277 22.196 57.9316 22.196Z" fill="#7580FF"/>
</g>
<defs>
<clipPath id="clip0_113_25550">
<rect width="71" height="55" fill="white"/>
</clipPath>
</defs>
</svg>
