<svg width="27" height="21" viewBox="0 0 27 21" fill="none" xmlns="http://www.w3.org/2000/svg">
<path d="M25 15.8408C25.8393 16.3844 25.8392 16.3853 25.8389 16.3857L25.8379 16.3867L25.8369 16.3887C25.836 16.3901 25.8351 16.3918 25.834 16.3936C25.8316 16.3971 25.8285 16.4014 25.8252 16.4062C25.8186 16.416 25.8101 16.4286 25.7998 16.4434C25.7793 16.4729 25.7514 16.5121 25.7158 16.5596C25.6443 16.6549 25.5415 16.7845 25.4062 16.9375C25.136 17.2432 24.733 17.6456 24.1855 18.0596C23.0859 18.891 21.4091 19.7627 19.0752 19.9951C18.7159 20.0309 18.3647 19.8698 18.1572 19.5742L18.1562 19.5723C18.155 19.5706 18.1528 19.5679 18.1504 19.5645C18.1453 19.5572 18.1379 19.5454 18.1279 19.5312C18.1079 19.5029 18.0781 19.4614 18.041 19.4092C17.9667 19.3045 17.8613 19.1568 17.7383 18.9863C17.4909 18.6435 17.1761 18.2147 16.8965 17.8535C16.8818 17.8345 16.8696 17.8138 16.8564 17.7939C16.6803 17.8316 16.5047 17.8657 16.3291 17.8965L16.3301 17.8975C14.3147 18.2839 12.443 18.1779 10.8574 17.8643V17.8633C10.6306 17.8236 10.4104 17.7779 10.1963 17.7295C10.1773 17.7606 10.1583 17.7921 10.1357 17.8213C9.85498 18.184 9.53125 18.622 9.27539 18.9736C9.14813 19.1485 9.03846 19.3002 8.96094 19.4082C8.9222 19.4622 8.89206 19.5058 8.87109 19.5352C8.86061 19.5498 8.85205 19.5608 8.84668 19.5684C8.84401 19.5721 8.84214 19.5753 8.84082 19.5771L8.83887 19.5791C8.6264 19.878 8.26733 20.0373 7.90332 19.9932C5.68738 19.7243 4.02398 18.8526 2.91406 18.0459C2.35968 17.643 1.9412 17.2548 1.65723 16.9619C1.51505 16.8153 1.40619 16.6917 1.33008 16.6016C1.29201 16.5565 1.26196 16.5196 1.24023 16.4922C1.22956 16.4787 1.22061 16.4677 1.21387 16.459C1.21049 16.4546 1.20746 16.4504 1.20508 16.4473C1.20389 16.4457 1.20211 16.4446 1.20117 16.4434L1.2002 16.4414V16.4404C1.20446 16.4367 1.26184 16.3929 2 15.8408L1.19922 16.4395C1.07004 16.2666 1 16.0566 1 15.8408C1.00003 12.4917 1.73874 9.47362 2.46973 7.30273C2.83613 6.2146 3.20325 5.33192 3.48047 4.71777C3.61911 4.41063 3.73536 4.16989 3.81836 4.00391C3.85987 3.9209 3.89357 3.85635 3.91699 3.81152C3.92867 3.78917 3.93768 3.77127 3.94434 3.75879C3.94758 3.75271 3.95017 3.74781 3.95215 3.74414C3.95315 3.74227 3.95441 3.74049 3.95508 3.73926L3.95605 3.73828V3.7373C3.95619 3.73705 3.95627 3.73674 4.77051 4.17969L3.95605 3.73633C4.02378 3.6119 4.1176 3.50359 4.23047 3.41797C5.76697 2.25292 7.27256 1.64898 8.40137 1.33691C8.96593 1.18084 9.4385 1.09774 9.77637 1.05273C9.94537 1.03022 10.0813 1.01709 10.1787 1.00977C10.2274 1.00611 10.2669 1.00434 10.2959 1.00293C10.3101 1.00224 10.3218 1.00131 10.3311 1.00098C10.3357 1.00081 10.3404 1.00108 10.3438 1.00098C10.3452 1.00093 10.3465 1.00003 10.3477 1H10.3506C10.3509 1.00007 10.351 1.00602 10.3613 1.43164L10.3516 1C10.7403 0.990752 11.099 1.20809 11.2715 1.55664L11.4648 1.94727C11.4859 1.98988 11.5019 2.03453 11.5166 2.0791C12.724 1.94111 14.039 1.92266 15.4111 2.07715C15.4334 2.02292 15.4592 1.96924 15.4912 1.91895L15.7812 1.46387L15.8574 1.3584C16.0512 1.12661 16.3418 0.992704 16.6484 1L16.6357 1.50293H16.6367C16.6488 1.0066 16.6491 1.00007 16.6494 1H16.6523C16.6535 1.00003 16.6548 1.00093 16.6562 1.00098C16.6596 1.00108 16.6643 1.00081 16.6689 1.00098C16.6782 1.00131 16.6899 1.00224 16.7041 1.00293C16.7331 1.00434 16.7726 1.00611 16.8213 1.00977C16.9187 1.01709 17.0546 1.03022 17.2236 1.05273C17.5615 1.09774 18.0341 1.18084 18.5986 1.33691C19.6569 1.62947 21.0459 2.17873 22.4814 3.20605L22.7695 3.41797L22.8506 3.48633C22.9276 3.55882 22.9932 3.64303 23.0439 3.73633L22.165 4.21484C23.0435 3.73696 23.0438 3.73704 23.0439 3.7373V3.73828L23.0449 3.73926C23.0456 3.74049 23.0468 3.74227 23.0479 3.74414C23.0498 3.74781 23.0524 3.75271 23.0557 3.75879C23.0623 3.77127 23.0713 3.78917 23.083 3.81152C23.1064 3.85635 23.1401 3.9209 23.1816 4.00391C23.2646 4.16989 23.3809 4.41063 23.5195 4.71777C23.7967 5.33192 24.1639 6.2146 24.5303 7.30273C25.2613 9.47362 26 12.4917 26 15.8408C26 16.0337 25.9437 16.2229 25.8389 16.3848L25 15.8408ZM9.82812 10.5557C9.38246 10.5557 8.83008 11.0152 8.83008 11.7705C8.83027 12.5256 9.38253 12.9844 9.82812 12.9844C10.2736 12.9841 10.825 12.5253 10.8252 11.7705C10.8252 11.7616 10.825 11.7521 10.8252 11.7432C10.844 11.0347 10.2963 10.5559 9.82812 10.5557ZM17.0107 10.5557C16.5652 10.556 16.0137 11.0155 16.0137 11.7705C16.0139 12.5253 16.5652 12.9841 17.0107 12.9844C17.4787 12.9844 18.0086 12.5366 18.0088 11.7705C18.0088 11.0152 17.4564 10.5557 17.0107 10.5557Z" fill="#DDE0FF" stroke="#0B5890" stroke-width="2" stroke-linejoin="round"/>
</svg>
