<svg width="40" height="40" viewBox="0 0 40 40" fill="none" xmlns="http://www.w3.org/2000/svg">
<path d="M35.7435 29.6239C35.7915 28.7279 35.4955 27.8079 34.8395 27.1119L28.0795 19.9999L34.8395 12.8879C35.5035 12.1919 35.7995 11.2719 35.7435 10.3759C35.7435 10.2719 35.7435 10.1599 35.7435 10.0559C35.7435 9.95191 35.7435 9.83991 35.7435 9.73591C35.7435 9.63191 35.7435 9.51991 35.7435 9.41591C35.7435 9.31191 35.7435 9.19991 35.7435 9.09591C35.7435 8.99191 35.7435 8.87991 35.7435 8.77591C35.7835 7.85591 35.4635 6.92791 34.7675 6.23991L32.1995 3.69591C31.5595 3.06391 30.7195 2.71991 29.8235 2.71991C28.9275 2.71991 28.0075 3.10391 27.3755 3.76791L20.0075 11.5199L12.6315 3.75991C11.9995 3.09591 11.1035 2.71191 10.1835 2.71191C9.28751 2.71191 8.44751 3.05591 7.80751 3.68791L5.23951 6.23191C4.54351 6.91991 4.22351 7.84791 4.26351 8.76791C4.26351 8.87191 4.26351 8.98391 4.26351 9.08791C4.26351 9.19191 4.26351 9.30391 4.26351 9.40791C4.26351 9.51191 4.26351 9.62391 4.26351 9.72791C4.26351 9.83191 4.26351 9.94391 4.26351 10.0479C4.26351 10.1519 4.26351 10.2639 4.26351 10.3679C4.21551 11.2639 4.51151 12.1839 5.16751 12.8799L11.9275 19.9919L5.16751 27.1039C4.50351 27.7999 4.20751 28.7199 4.26351 29.6159C4.26351 29.7199 4.26351 29.8319 4.26351 29.9359C4.26351 30.0399 4.26351 30.1519 4.26351 30.2559C4.26351 30.3599 4.26351 30.4719 4.26351 30.5759C4.26351 30.6799 4.26351 30.7919 4.26351 30.8959C4.26351 30.9999 4.26351 31.1119 4.26351 31.2159C4.22351 32.1359 4.54351 33.0639 5.23951 33.7519L7.80751 36.2959C8.44751 36.9279 9.28751 37.2719 10.1835 37.2719C11.0795 37.2719 11.9995 36.8879 12.6315 36.2239L19.9995 28.4719L27.3675 36.2239C27.9995 36.8879 28.8955 37.2719 29.8155 37.2719C30.7355 37.2719 31.5515 36.9279 32.1915 36.2959L34.7595 33.7519C35.4555 33.0639 35.7755 32.1359 35.7355 31.2159C35.7355 31.1119 35.7355 30.9999 35.7355 30.8959C35.7355 30.7919 35.7355 30.6799 35.7355 30.5759C35.7355 30.4719 35.7355 30.3599 35.7355 30.2559C35.7355 30.1519 35.7355 30.0399 35.7355 29.9359C35.7355 29.8319 35.7355 29.7199 35.7355 29.6159L35.7435 29.6239Z" fill="#1F007D"/>
<path d="M33.8717 7.07215L31.3037 4.52815C30.4237 3.65615 28.9917 3.67215 28.1357 4.57615L19.9277 13.2081L11.7117 4.56815C10.8557 3.66415 9.42366 3.64815 8.54366 4.52015L5.97566 7.06415C5.11966 7.91215 5.09566 9.29615 5.92766 10.1681L14.3677 19.0401L5.92766 27.9121C5.09566 28.7841 5.11166 30.1681 5.97566 31.0161L8.54366 33.5601C9.42366 34.4321 10.8557 34.4161 11.7117 33.5121L19.9197 24.8801L28.1277 33.5121C28.9837 34.4161 30.4157 34.4321 31.2957 33.5601L33.8637 31.0161C34.7197 30.1681 34.7437 28.7841 33.9117 27.9121L25.4717 19.0401L33.9117 10.1681C34.7437 9.29615 34.7277 7.91215 33.8637 7.06415L33.8717 7.07215Z" fill="white"/>
</svg>
