<svg width="46" height="43" viewBox="0 0 46 43" fill="none" xmlns="http://www.w3.org/2000/svg">
<path d="M1.09956 5.68992L1.05957 16.6999L3.11957 18.5799L6.20956 9.32992L12.5496 15.4599L15.9896 12.2199L9.42957 5.87992L19.1296 2.75992L17.0296 0.919922H5.89957C3.26957 0.919922 1.11957 3.05992 1.10957 5.68992H1.09956Z" fill="#A714AF"/>
<path d="M40.6697 2.33992C39.7397 1.41992 38.5197 0.919922 37.2197 0.919922H26.2397L26.2197 5.88992L28.2297 7.64992L33.6897 5.88992L27.1997 12.1299L30.8597 15.6099L37.1297 9.57992L37.0997 16.7099L39.2097 18.4899L42.0997 16.7099L42.1397 5.83992C42.1397 4.51992 41.6197 3.27992 40.6797 2.33992H40.6697Z" fill="#A714AF"/>
<path d="M12.3199 25.2901L5.91992 31.3001L7.99992 26.7101L5.94992 24.8701H0.959915L0.919922 35.0401C0.919922 36.3601 1.43992 37.6001 2.37992 38.5401C3.30992 39.4601 4.52993 39.9601 5.82993 39.9601H16.8099L18.8599 36.9101L16.8299 34.9901H9.35992L15.9799 28.7701L12.3199 25.2901Z" fill="#A714AF"/>
<path d="M37.0296 31.31L30.6896 25.18L27.1196 28.55L33.6796 34.89H26.0996L26.0796 39.86L28.1196 41.85L37.2096 39.86C39.8396 39.86 41.9896 37.72 41.9996 35.09L44.1196 26.7L42.0396 24.77H37.0596L37.0396 31.3L37.0296 31.31Z" fill="#A714AF"/>
<path d="M42.7395 4.20027C41.8095 3.28027 40.5896 2.78027 39.2896 2.78027H28.3096L28.2896 7.75027H35.7596L29.2695 13.9903L32.9296 17.4703L39.1996 11.4403L39.1696 18.5703H44.1496L44.1895 7.70027C44.1895 6.38027 43.6696 5.14027 42.7296 4.20027H42.7395Z" fill="white"/>
<path d="M14.2597 27.13L7.98974 33.16L8.00974 26.73H3.02974L2.98975 36.9C2.98975 38.22 3.50975 39.46 4.44975 40.4C5.37975 41.32 6.59974 41.82 7.89974 41.82H18.8797L18.8997 36.85H11.4297L17.9197 30.61L14.2597 27.13Z" fill="white"/>
<path d="M39.0496 33.2602L32.7096 27.1302L29.1396 30.5002L35.6996 36.8402H28.1196L28.0996 41.8102H39.2296C41.8596 41.8102 44.0096 39.6702 44.0196 37.0402L44.0496 26.7202H39.0696L39.0496 33.2502V33.2602Z" fill="white"/>
<path d="M20.0196 3.13C20.0196 3.13 20.0396 3.04 20.0396 2.98C20.0697 2.67 19.9297 2.34 19.6697 2.11L17.5696 0.27C17.3696 0.1 17.1097 0 16.8697 0H5.73965C2.68965 0 0.189649 2.48 0.179649 5.52L0.139648 16.53C0.139648 16.81 0.269649 17.09 0.499649 17.3L2.55965 19.18C2.76965 19.37 3.02965 19.47 3.26965 19.47C3.31965 19.47 3.35965 19.47 3.40965 19.47C3.43965 19.47 3.45965 19.47 3.46965 19.47H8.26965C8.71965 19.47 9.03965 19.15 9.03965 18.71V13.31L13.8897 18.04C14.1097 18.25 14.3797 18.36 14.6397 18.36C14.8397 18.36 15.0396 18.3 15.1796 18.16L18.7497 14.79C18.9197 14.64 18.9897 14.41 18.9697 14.16C18.9497 13.91 18.8297 13.67 18.6397 13.49L13.6397 8.65H19.2297C19.6797 8.65 19.9997 8.33 19.9997 7.89L20.0196 3.12V3.13ZM19.0897 2.78L19.0696 7.75H11.4896L18.0496 14.09L14.4797 17.46L12.4896 15.53L12.4096 15.17L8.13966 11.03L8.10966 18.55H3.12965L3.10965 18.57L1.04965 16.69L1.08965 5.68C1.08965 3.05 3.24965 0.91 5.87965 0.91H17.0097L19.1097 2.75L19.0696 2.77H19.0897V2.78Z" fill="#F86CFF"/>
<path d="M42.5999 24.1701C42.3899 23.9801 42.1299 23.8701 41.8699 23.8701H36.8899C36.4399 23.8701 36.1199 24.1901 36.1199 24.6301L36.0999 29.2601L33.2899 26.5501L33.1799 26.4601L31.2599 24.6001C31.0399 24.3901 30.7699 24.2801 30.5099 24.2801C30.3099 24.2801 30.1099 24.3401 29.9699 24.4801L26.3999 27.8501C26.2299 28.0001 26.1599 28.2301 26.1799 28.4801C26.1999 28.7301 26.3199 28.9701 26.5099 29.1501L31.5099 33.9901H25.9199C25.4699 33.9901 25.1499 34.3101 25.1499 34.7501L25.1299 39.7201C25.1299 39.9801 25.2499 40.2601 25.4699 40.4701L27.5099 42.4601C27.7199 42.6601 27.9899 42.7801 28.2599 42.7801C28.3199 42.7801 28.3899 42.7801 28.4499 42.7601L28.5499 42.7401H39.3899C42.4399 42.7401 44.9399 40.2601 44.9599 37.2201L44.9999 27.2001L45.0299 27.0801C45.1099 26.7501 44.9799 26.3801 44.6999 26.1101L42.6199 24.1801H42.5999V24.1701ZM44.0599 26.9201L44.0199 37.0401C44.0199 39.6701 41.8599 41.8101 39.2299 41.8101H28.2899L28.0999 41.8501L26.0599 39.8601L26.0799 34.8901H33.6599L27.0999 28.5501L30.6699 25.1801L32.6899 27.1401L37.0099 31.3101L37.0299 24.7901H42.0099L44.0899 26.7201L44.0399 26.9401L44.0599 26.9201Z" fill="#F86CFF"/>
<path d="M43.3296 3.61C42.9496 3.23 42.4896 2.89 41.9696 2.61C41.7496 2.28 41.5096 2 41.2596 1.75C40.1196 0.62 38.6296 0 37.0596 0H26.0796C25.6296 0 25.3096 0.320002 25.3096 0.760002L25.2896 5.73C25.2896 6.02 25.4296 6.31 25.6696 6.52L27.5396 8.15C27.5796 8.21 27.6295 8.27 27.6895 8.32C27.8995 8.53 28.1696 8.65 28.4496 8.65H29.3896L26.5096 11.42C26.3396 11.57 26.2696 11.8 26.2896 12.05C26.3096 12.3 26.4395 12.54 26.6295 12.72L32.3596 18.06C32.5796 18.26 32.8395 18.37 33.0995 18.37C33.2995 18.37 33.4996 18.3 33.6496 18.16L36.2095 15.7V16.55C36.2095 16.84 36.3495 17.14 36.5995 17.35L38.3896 18.86C38.4396 18.96 38.5195 19.06 38.5995 19.14C38.8095 19.35 39.0796 19.47 39.3596 19.47H44.3396C44.7896 19.47 45.1096 19.15 45.1096 18.71L45.1496 7.84C45.1496 6.25 44.5296 4.75 43.3696 3.6H43.3495L43.3296 3.61ZM44.1996 7.7L44.1595 18.57H39.1796V18.46L37.1096 16.71V13.44L32.9296 17.47L30.9196 15.56L27.2596 12.08L31.7695 7.75H28.2995V7.63L28.2395 7.65L26.2296 5.89L26.2496 0.920002H37.2296C38.5196 0.920002 39.7495 1.43 40.6796 2.34C40.9595 2.62 41.1996 2.93 41.3996 3.27C41.8896 3.51 42.3496 3.81 42.7496 4.2C43.6896 5.14 44.2095 6.38 44.2095 7.7H44.1996Z" fill="#F86CFF"/>
<path d="M18.84 30.6702C18.82 30.4202 18.69 30.1802 18.5 30.0002L14.84 26.5202C14.84 26.5202 14.78 26.4702 14.74 26.4402L12.89 24.6802C12.67 24.4802 12.41 24.3702 12.15 24.3702C11.95 24.3702 11.76 24.4302 11.61 24.5702L8.92001 27.0902V26.8602C8.92001 26.6302 8.83 26.3902 8.66 26.1902C8.62 26.1402 8.58 26.1002 8.54 26.0502L6.49 24.2102C6.29 24.0302 6.03001 23.9302 5.78001 23.9302H0.800003C0.350003 23.9302 0.0299988 24.2502 0.0299988 24.6902L0 34.8802C0 36.4702 0.619999 37.9702 1.78 39.1202C2.16 39.5002 2.62 39.8402 3.14 40.1202C3.36 40.4502 3.6 40.7302 3.85 40.9802C4.99 42.1102 6.48 42.7302 8.05 42.7302H19.03C19.48 42.7302 19.8 42.4102 19.8 41.9702L19.82 37.0002C19.82 36.7402 19.7 36.4602 19.49 36.2602C19.38 36.1602 19.27 36.0802 19.14 36.0202L17.4 34.3802C17.19 34.1902 16.93 34.0702 16.66 34.0702H15.72L18.6 31.3002C18.77 31.1502 18.84 30.9202 18.82 30.6702H18.84ZM13.35 34.9902H16.82L18.78 36.8502H18.88L18.86 41.8202H7.89001C6.60001 41.8202 5.37 41.3102 4.44 40.4002C4.16 40.1202 3.92 39.8002 3.72 39.4702C3.23 39.2302 2.77 38.9302 2.37 38.5402C1.43 37.6002 0.910004 36.3602 0.910004 35.0402L0.950005 24.8702H5.93L7.98 26.7102V26.7302H7.99V29.3402L12.29 25.2902L14.23 27.1402L17.89 30.6102L13.32 34.9902H13.35Z" fill="#F86CFF"/>
<path d="M3.16988 7.54002L3.12988 18.55H8.10989L8.13988 11.32L14.4799 17.45L18.0499 14.08L11.4899 7.74002H19.0699L19.0899 2.77002H7.95988C5.32988 2.77002 3.17988 4.91002 3.16988 7.54002Z" fill="white"/>
</svg>
