<svg width="44" height="44" viewBox="0 0 44 44" fill="none" xmlns="http://www.w3.org/2000/svg">
<path d="M26.6604 43.43C26.3204 43.43 25.9904 43.29 25.7404 43.02L23.7204 40.83C23.4904 40.58 23.3804 40.28 23.3804 39.98L23.5704 30.01C23.6304 26.98 26.1504 24.52 29.1904 24.52H39.9904C40.3204 24.52 40.6804 24.68 40.9204 24.94L42.9704 27.13C43.2604 27.43 43.3804 27.84 43.2904 28.2C43.2904 28.23 43.2704 28.26 43.2604 28.3L43.1404 32.75C43.1404 33.26 42.7504 33.61 42.2304 33.61H37.2404L38.3304 34.68C38.3304 34.68 38.3904 34.74 38.4104 34.77L41.6604 37.97C41.8804 38.2 42.0304 38.48 42.0504 38.77C42.0704 39.06 41.9704 39.32 41.7804 39.5L38.2804 42.76C37.8904 43.13 37.2104 43.06 36.7504 42.62L32.4704 38.42L32.3904 42.52C32.3904 43.03 32.0004 43.4 31.4804 43.4H26.9204C26.9204 43.4 26.8804 43.4 26.8704 43.41C26.8104 43.41 26.7404 43.42 26.6804 43.42V43.44L26.6604 43.43ZM26.7904 41.24H30.1904L30.2904 35.8C30.2904 35.39 30.5504 35.07 30.9304 34.96C31.3204 34.85 31.7704 34.99 32.0904 35.31L37.3004 40.43L39.3504 38.53L36.8704 36.1C36.8704 36.1 36.8204 36.05 36.7904 36.01L33.9804 33.25C33.6504 32.93 33.5104 32.48 33.6304 32.09C33.7504 31.7 34.0804 31.46 34.5104 31.46H40.9404L41.0404 28L39.8004 26.67H29.5404C27.5204 26.67 25.7904 28.38 25.7504 30.4L25.5604 39.9L26.7804 41.23H26.7704L26.7904 41.24Z" fill="#F86CFF"/>
<path d="M31.2708 19.9103C30.0108 19.9103 28.8008 19.4903 27.7708 18.6903C27.7208 18.6503 27.6508 18.5903 27.5608 18.5303C27.5308 18.5103 27.5008 18.4703 27.4708 18.4403C27.2808 18.2803 27.0608 18.0503 26.8508 17.8003C26.1808 17.1003 25.1908 16.0702 25.1508 16.0202C24.0608 14.9202 23.4908 13.4503 23.5308 11.8903L23.8308 0.870251C23.8408 0.360251 24.2208 0.0102539 24.7408 0.0102539H29.5408C29.8908 0.0102539 30.2308 0.17025 30.4808 0.44025L32.4108 2.55025C32.4108 2.55025 32.4208 2.57025 32.4408 2.58025C32.6808 2.83025 32.8308 3.14025 32.8308 3.44025V3.60025L34.9808 1.41025C35.1708 1.22025 35.4508 1.12025 35.7608 1.15025C36.0708 1.18025 36.3708 1.33025 36.5808 1.57025L38.4508 3.59025C38.4508 3.59025 38.5408 3.68025 38.5808 3.72025L41.7508 7.14025C42.1708 7.59025 42.2108 8.23025 41.8508 8.61025L39.8008 10.7003L39.9808 10.7203C40.2708 10.7503 40.5508 10.9003 40.7608 11.1303L42.7408 13.2503C42.8508 13.3703 42.9308 13.5003 42.9908 13.6403C43.0608 13.8003 43.1008 13.9803 43.1008 14.1503L42.9708 18.9703C42.9608 19.4703 42.5808 19.8303 42.0708 19.8303L31.3108 19.9103H31.2708ZM26.0108 2.16025L25.7308 12.3103C25.7008 13.2203 26.0308 14.0603 26.6208 14.6702C26.6808 14.7303 27.7008 15.8003 28.3708 16.5003C28.4008 16.5303 28.4208 16.5503 28.4508 16.5903C28.5608 16.7303 28.6908 16.8603 28.8208 16.9803C28.8508 17.0003 28.9008 17.0603 28.9208 17.0803C29.4808 17.5103 30.1708 17.7503 30.8908 17.7503H30.9108L40.8008 17.6702L40.8908 14.1903L39.5808 12.8003L37.4108 12.5203C36.9808 12.4703 36.5808 12.1603 36.3808 11.7603C36.1908 11.3503 36.2308 10.9103 36.5108 10.6403L39.4608 7.64025L37.1708 5.17025C37.1708 5.17025 37.0808 5.08025 37.0308 5.04025L35.8908 3.81025L32.4508 7.31025C32.1608 7.61025 31.6608 7.66025 31.2208 7.43025C30.7808 7.20025 30.5008 6.74025 30.5008 6.28025L30.5808 3.53025L29.3308 2.17025H25.9608H25.9908L26.0108 2.16025Z" fill="#F86CFF"/>
<path d="M13.7307 43.4C13.3907 43.4 13.0507 43.25 12.7907 42.98L10.7907 40.83C10.5807 40.6 10.4507 40.31 10.4507 40.03L8.2907 42.22C8.1107 42.41 7.8307 42.5 7.5307 42.48C7.2307 42.46 6.9507 42.32 6.7207 42.09L3.57069 38.96C3.4707 38.88 3.3707 38.8 3.2907 38.7L1.46069 36.42C1.12069 35.99 1.0807 35.41 1.3907 35.06L3.27071 32.91C3.12071 32.89 2.9707 32.83 2.82069 32.75C2.7007 32.69 2.59069 32.6 2.49069 32.49L0.500703 30.35C0.270703 30.1 0.140707 29.79 0.160707 29.49L0.290696 24.67C0.300696 24.17 0.680705 23.81 1.19071 23.81L11.9507 23.73H11.9907C14.0407 23.73 15.5107 24.95 16.4307 25.87C16.4607 25.89 18.1607 27.63 18.3207 27.86C18.3607 27.91 18.4007 27.98 18.4407 28.03C19.3007 29.1 19.7707 30.41 19.7307 31.75L19.4307 42.55C19.4307 43.06 19.0407 43.41 18.5207 43.41H13.7207H13.7307V43.4ZM17.2707 41.24L17.5407 31.32C17.5607 30.49 17.2907 29.72 16.7507 29.1C16.6807 29.02 16.6407 28.95 16.5907 28.87C16.2107 28.47 15.0807 27.3 15.0107 27.24C14.0507 26.28 13.3107 25.89 12.3507 25.89L2.46069 25.95L2.3707 29.43L3.60069 30.76H5.5907C6.0307 30.76 6.48069 31.03 6.71069 31.43C6.94069 31.84 6.9307 32.31 6.6507 32.61L3.6807 36L4.7507 37.34C4.7507 37.34 4.80069 37.38 4.82069 37.4L7.2807 39.85L10.7607 36.32C11.0507 36.02 11.5507 35.97 11.9907 36.2C12.4307 36.43 12.7107 36.89 12.7107 37.35L12.6407 39.9L13.8707 41.23H17.2607L17.2707 41.24Z" fill="#F86CFF"/>
<path d="M14.0706 19.91H3.27058C3.18058 19.91 3.11058 19.91 3.02058 19.88C2.74058 19.83 2.43058 19.67 2.25058 19.46L0.33058 17.32C0.11058 17.07 -0.00942137 16.77 0.000578633 16.48L0.130584 11.67C0.140584 11.16 0.520572 10.81 1.04057 10.81H5.85057L4.95058 9.93L1.30058 6.57C1.06058 6.35 0.910583 6.06 0.880584 5.76C0.850584 5.46 0.940573 5.19 1.15057 5L4.82057 1.55C5.22057 1.17 5.90058 1.25 6.36058 1.7L10.7906 6.14L10.9006 0.880001C10.9106 0.370001 11.2906 0 11.8106 0H16.6306C16.9606 0 17.3206 0.16 17.5706 0.43L19.4806 2.48C19.4806 2.48 19.5206 2.51 19.5306 2.53C19.7806 2.78 19.9206 3.1 19.9106 3.43L19.6906 14.42C19.6306 17.45 17.1106 19.91 14.0706 19.91ZM3.38058 17.75H13.7006C15.7206 17.75 17.4506 16.04 17.4906 14.02L17.7106 3.52L16.4606 2.18H13.0806L12.9406 8.8C12.9406 9.21 12.6806 9.53 12.3006 9.64C11.9206 9.75 11.4606 9.61 11.1406 9.29L10.7106 8.87L5.76057 3.91L3.58058 5.96L6.34057 8.5L9.07057 11.19C9.40057 11.51 9.54058 11.96 9.42058 12.35C9.30058 12.74 8.97057 12.98 8.54057 12.98H2.28058L2.18057 16.45L3.37057 17.77V17.75H3.38058Z" fill="#F86CFF"/>
<path d="M11.8403 8.59031L5.65033 2.38031L1.98033 5.83031L8.55034 11.8703H1.22034L1.09033 16.6703L3.01033 18.8103H3.59033L10.5403 15.5203C13.0803 15.5203 15.2003 13.4603 15.2503 10.9203L18.7703 4.14031L18.7903 3.20031L16.8103 1.07031H11.9903L11.8303 8.58031L11.8403 8.59031Z" fill="#A714AF"/>
<path d="M28.0704 32.7201L34.1004 38.6501L37.6004 35.3901L31.3604 29.2601L42.2004 27.7901L40.1504 25.6001H29.3504C26.8104 25.6001 24.6904 27.6601 24.6404 30.2001L24.4404 40.1801L26.4604 42.3701L28.0404 32.7201H28.0604H28.0704Z" fill="#A714AF"/>
<path d="M31.5707 10.7001L37.8207 4.3901L35.8307 2.2401L29.5307 8.6501L31.6507 3.7001V3.2101L29.7307 1.1001H24.9307L24.6307 12.1101C24.6007 13.3901 25.0807 14.5301 25.8907 15.3601C25.9707 15.4401 28.1307 17.7101 28.2107 17.7801C29.0007 18.4801 26.6207 15.5601 27.7807 15.5501L38.5407 15.4701L41.9907 14.2601V13.9101L40.0107 11.7901L31.5707 10.7001Z" fill="#A714AF"/>
<path d="M8.06049 29.2304L2.28049 35.8404L4.11049 38.1204L11.7405 32.8604L11.5405 40.1904L13.5405 42.3404L13.9505 42.3004L15.0005 39.0604L15.3005 28.2604C15.3305 27.2504 18.0005 29.1204 17.4705 28.3704C17.4405 28.3304 15.7705 26.6104 15.7305 26.5704C14.7405 25.5904 13.6205 24.8104 12.1405 24.8204L1.38049 24.9004L1.25049 29.7204L3.24048 31.8604H5.93048L8.05049 29.2604L8.06049 29.2304Z" fill="#A714AF"/>
<path d="M13.8506 10.56L7.82059 4.62998L4.32059 7.88998L10.5606 14.02H3.23059L3.10059 18.82H13.9006C16.4406 18.82 18.5606 16.76 18.6106 14.22L18.8306 3.22998H14.0106L13.8506 10.56Z" fill="white"/>
<path d="M31.4107 36.01L37.4407 41.94L40.9407 38.68L34.7007 32.55H42.0307L42.1607 27.75H31.3607C28.8207 27.75 26.7007 29.81 26.6507 32.35L26.4507 42.33H31.2707L31.4007 36.02L31.4107 36.01Z" fill="white"/>
<path d="M34.9004 13.9902L41.0004 7.80023L37.8304 4.38023L31.5304 10.7902L31.7404 3.24023H26.9404L26.6404 14.2502C26.5704 16.7902 28.5904 18.8402 31.1204 18.8302L41.8804 18.7502L42.0104 13.9302L34.9104 13.9702L34.9004 13.9902Z" fill="white"/>
<path d="M10.3805 31.8002L4.1205 38.1002L7.44051 41.4102L13.7405 35.0002L13.5405 42.3302H18.3405L18.6405 31.5302C18.7105 28.9902 16.7005 26.9402 14.1605 26.9502L3.4005 27.0302L3.27051 31.8502L10.3705 31.8102H10.3805V31.8002Z" fill="white"/>
</svg>
