<svg width="46" height="43" viewBox="0 0 46 43" fill="none" xmlns="http://www.w3.org/2000/svg">
<path d="M1.09029 5.69041L1.05029 16.7004L3.11029 18.5804L6.20029 9.33041L12.5403 15.4604L15.9803 12.2204L9.42029 5.88041L19.1203 2.76041L17.0203 0.92041H5.89029C3.26029 0.92041 1.11029 3.06041 1.10029 5.69041H1.09029Z" fill="#710A7C"/>
<path d="M40.6604 2.33016C39.7304 1.41016 38.5104 0.910156 37.2104 0.910156H26.2304L26.2104 5.88016L28.2204 7.64016L33.6805 5.88016L27.1904 12.1202L30.8504 15.6002L37.1204 9.57016L37.0904 16.7002L39.2004 18.4802L42.0904 16.7002L42.1304 5.83016C42.1304 4.51016 41.6104 3.27016 40.6704 2.33016H40.6604Z" fill="#710A7C"/>
<path d="M12.3204 25.2804L5.92041 31.2904L8.00041 26.7004L5.95042 24.8604H0.960411L0.92041 35.0304C0.92041 36.3504 1.44042 37.5904 2.38042 38.5304C3.31042 39.4504 4.53041 39.9504 5.83041 39.9504H16.8104L18.8604 36.9004L16.8304 34.9804H9.36041L15.9804 28.7604L12.3204 25.2804Z" fill="#710A7C"/>
<path d="M37.0203 31.31L30.6803 25.18L27.1103 28.55L33.6703 34.89H26.0903L26.0703 39.86L28.1103 41.85L37.2003 39.86C39.8303 39.86 41.9803 37.72 41.9903 35.09L44.1103 26.7L42.0303 24.77H37.0503L37.0303 31.3L37.0203 31.31Z" fill="#710A7C"/>
<path d="M42.74 4.19002C41.81 3.27002 40.59 2.77002 39.29 2.77002H28.31L28.29 7.74002H35.76L29.27 13.98L32.93 17.46L39.2 11.43L39.17 18.56H44.15L44.19 7.69002C44.19 6.37002 43.67 5.13002 42.73 4.19002H42.74Z" fill="#EFC6F4"/>
<path d="M14.2602 27.1202L7.99024 33.1502L8.01023 26.7202H3.03024L2.99023 36.8902C2.99023 38.2102 3.51024 39.4502 4.45024 40.3902C5.38024 41.3102 6.60023 41.8102 7.90023 41.8102H18.8802L18.9002 36.8402H11.4302L17.9202 30.6002L14.2602 27.1202Z" fill="#EFC6F4"/>
<path d="M39.0501 33.2602L32.7101 27.1302L29.1401 30.5002L35.7001 36.8402H28.1201L28.1001 41.8102H39.2301C41.8601 41.8102 44.0101 39.6702 44.0201 37.0402L44.0501 26.7202H39.0701L39.0501 33.2502V33.2602Z" fill="#EFC6F4"/>
<path d="M20.0201 3.13C20.0201 3.13 20.0401 3.04 20.0401 2.98C20.0701 2.67 19.9301 2.34 19.6701 2.11L17.5701 0.27C17.3701 0.1 17.1101 0 16.8701 0H5.74014C2.69014 0 0.190138 2.48 0.180138 5.52L0.140137 16.53C0.140137 16.81 0.270137 17.09 0.500137 17.3L2.56013 19.18C2.77013 19.37 3.03014 19.47 3.27014 19.47C3.32014 19.47 3.36014 19.47 3.41014 19.47C3.44014 19.47 3.46014 19.47 3.47014 19.47H8.27014C8.72014 19.47 9.04015 19.15 9.04015 18.71V13.31L13.8901 18.04C14.1101 18.25 14.3801 18.36 14.6401 18.36C14.8401 18.36 15.0401 18.3 15.1801 18.16L18.7501 14.79C18.9201 14.64 18.9901 14.41 18.9701 14.16C18.9501 13.91 18.8301 13.67 18.6401 13.49L13.6401 8.65H19.2301C19.6801 8.65 20.0001 8.33 20.0001 7.89L20.0201 3.12V3.13ZM19.0901 2.77L19.0701 7.74H11.4901L18.0501 14.08L14.4801 17.45L12.4901 15.52L12.4101 15.16L8.14014 11.02L8.11014 18.54H3.13014L3.11014 18.56L1.05014 16.68L1.09014 5.67C1.09014 3.04 3.25014 0.9 5.88014 0.9H17.0101L19.1101 2.74L19.0701 2.76H19.0901V2.77Z" fill="#D93DEA"/>
<path d="M42.6004 24.1604C42.3904 23.9704 42.1304 23.8604 41.8704 23.8604H36.8904C36.4404 23.8604 36.1204 24.1804 36.1204 24.6204L36.1004 29.2504L33.2904 26.5404L33.1804 26.4504L31.2604 24.5904C31.0404 24.3804 30.7704 24.2704 30.5104 24.2704C30.3104 24.2704 30.1104 24.3304 29.9704 24.4704L26.4004 27.8404C26.2304 27.9904 26.1604 28.2204 26.1804 28.4704C26.2004 28.7204 26.3204 28.9604 26.5104 29.1404L31.5104 33.9804H25.9204C25.4704 33.9804 25.1504 34.3004 25.1504 34.7404L25.1304 39.7104C25.1304 39.9704 25.2504 40.2504 25.4704 40.4604L27.5104 42.4504C27.7204 42.6504 27.9904 42.7704 28.2604 42.7704C28.3204 42.7704 28.3904 42.7704 28.4504 42.7504L28.5504 42.7304H39.3904C42.4404 42.7304 44.9404 40.2504 44.9604 37.2104L45.0004 27.1904L45.0304 27.0704C45.1104 26.7404 44.9804 26.3704 44.7004 26.1004L42.6204 24.1704H42.6004V24.1604ZM44.0604 26.9204L44.0204 37.0404C44.0204 39.6704 41.8604 41.8104 39.2304 41.8104H28.2904L28.1004 41.8504L26.0604 39.8604L26.0804 34.8904H33.6604L27.1004 28.5504L30.6704 25.1804L32.6904 27.1404L37.0104 31.3104L37.0304 24.7904H42.0104L44.0904 26.7204L44.0404 26.9404L44.0604 26.9204Z" fill="#D93DEA"/>
<path d="M43.33 3.61C42.95 3.23 42.49 2.89 41.97 2.61C41.75 2.28 41.51 2 41.26 1.75C40.12 0.62 38.63 0 37.06 0H26.08C25.63 0 25.31 0.32 25.31 0.76L25.29 5.73C25.29 6.02 25.43 6.31 25.67 6.52L27.54 8.15C27.58 8.21 27.63 8.27 27.69 8.32C27.9 8.53 28.17 8.65 28.45 8.65H29.39L26.51 11.42C26.34 11.57 26.27 11.8 26.29 12.05C26.31 12.3 26.44 12.54 26.63 12.72L32.36 18.06C32.58 18.26 32.84 18.37 33.1 18.37C33.3 18.37 33.5 18.3 33.65 18.16L36.21 15.7V16.55C36.21 16.84 36.35 17.14 36.6 17.35L38.39 18.86C38.44 18.96 38.52 19.06 38.6 19.14C38.81 19.35 39.08 19.47 39.36 19.47H44.34C44.79 19.47 45.11 19.15 45.11 18.71L45.15 7.84C45.15 6.25 44.53 4.75 43.37 3.6H43.35L43.33 3.61ZM44.2 7.69L44.16 18.56H39.18V18.45L37.11 16.7V13.43L32.93 17.46L30.92 15.55L27.26 12.07L31.77 7.74H28.3V7.62L28.24 7.64L26.23 5.88L26.25 0.91H37.23C38.52 0.91 39.75 1.42 40.68 2.33C40.96 2.61 41.2 2.92 41.4 3.26C41.89 3.5 42.35 3.8 42.75 4.19C43.69 5.13 44.21 6.37 44.21 7.69H44.2Z" fill="#D93DEA"/>
<path d="M18.84 30.6702C18.82 30.4202 18.69 30.1802 18.5 30.0002L14.84 26.5202C14.84 26.5202 14.78 26.4702 14.74 26.4402L12.89 24.6802C12.67 24.4802 12.41 24.3702 12.15 24.3702C11.95 24.3702 11.76 24.4302 11.61 24.5702L8.92 27.0902V26.8602C8.92 26.6302 8.83 26.3902 8.66 26.1902C8.62 26.1402 8.58001 26.1002 8.54001 26.0502L6.49 24.2102C6.29 24.0302 6.03 23.9302 5.78 23.9302H0.800003C0.350003 23.9302 0.0299988 24.2502 0.0299988 24.6902L0 34.8802C0 36.4702 0.619999 37.9702 1.78 39.1202C2.16 39.5002 2.62 39.8402 3.14 40.1202C3.36 40.4502 3.6 40.7302 3.85 40.9802C4.99 42.1102 6.48 42.7302 8.05 42.7302H19.03C19.48 42.7302 19.8 42.4102 19.8 41.9702L19.82 37.0002C19.82 36.7402 19.7 36.4602 19.49 36.2602C19.38 36.1602 19.27 36.0802 19.14 36.0202L17.4 34.3802C17.19 34.1902 16.93 34.0702 16.66 34.0702H15.72L18.6 31.3002C18.77 31.1502 18.84 30.9202 18.82 30.6702H18.84ZM13.35 34.9902H16.82L18.78 36.8502H18.88L18.86 41.8202H7.89C6.6 41.8202 5.37 41.3102 4.44 40.4002C4.16 40.1202 3.92 39.8002 3.72 39.4702C3.23 39.2302 2.77 38.9302 2.37 38.5402C1.43 37.6002 0.910004 36.3602 0.910004 35.0402L0.950005 24.8702H5.93L7.98 26.7102V26.7302H7.99001V29.3402L12.29 25.2902L14.23 27.1402L17.89 30.6102L13.32 34.9902H13.35Z" fill="#D93DEA"/>
<path d="M3.16012 7.54002L3.12012 18.55H8.10012L8.13012 11.32L14.4701 17.45L18.0401 14.08L11.4801 7.74002H19.0601L19.0801 2.77002H7.95011C5.32011 2.77002 3.17012 4.91002 3.16012 7.54002Z" fill="#EFC6F4"/>
</svg>
