<svg width="44" height="44" viewBox="0 0 44 44" fill="none" xmlns="http://www.w3.org/2000/svg">
<path d="M26.6506 43.43C26.3106 43.43 25.9806 43.29 25.7306 43.02L23.7106 40.83C23.4806 40.58 23.3706 40.28 23.3706 39.98L23.5606 30.01C23.6206 26.98 26.1406 24.52 29.1806 24.52H39.9806C40.3106 24.52 40.6706 24.68 40.9106 24.94L42.9606 27.13C43.2506 27.43 43.3706 27.84 43.2806 28.2C43.2806 28.23 43.2606 28.26 43.2506 28.3L43.1306 32.75C43.1306 33.26 42.7406 33.61 42.2206 33.61H37.2306L38.3206 34.68C38.3206 34.68 38.3806 34.74 38.4006 34.77L41.6506 37.97C41.8706 38.2 42.0206 38.48 42.0406 38.77C42.0606 39.06 41.9606 39.32 41.7706 39.5L38.2706 42.76C37.8806 43.13 37.2006 43.06 36.7406 42.62L32.4606 38.42L32.3806 42.52C32.3806 43.03 31.9906 43.4 31.4706 43.4H26.9106C26.9106 43.4 26.8706 43.4 26.8606 43.41C26.8006 43.41 26.7306 43.42 26.6706 43.42V43.44L26.6506 43.43ZM26.7906 41.24H30.1906L30.2906 35.8C30.2906 35.39 30.5506 35.07 30.9306 34.96C31.3206 34.85 31.7706 34.99 32.0906 35.31L37.3006 40.43L39.3506 38.53L36.8706 36.1C36.8706 36.1 36.8206 36.05 36.7906 36.01L33.9806 33.25C33.6506 32.93 33.5106 32.48 33.6306 32.09C33.7506 31.7 34.0806 31.46 34.5106 31.46H40.9406L41.0406 28L39.8006 26.67H29.5406C27.5206 26.67 25.7906 28.38 25.7506 30.4L25.5606 39.9L26.7806 41.23H26.7706L26.7906 41.24Z" fill="#D93DEA"/>
<path d="M31.261 19.9098C30.001 19.9098 28.791 19.4898 27.761 18.6898C27.711 18.6498 27.641 18.5898 27.551 18.5298C27.521 18.5098 27.491 18.4698 27.461 18.4398C27.271 18.2798 27.051 18.0498 26.841 17.7998C26.171 17.0998 25.181 16.0698 25.141 16.0198C24.051 14.9198 23.481 13.4498 23.521 11.8898L23.821 0.869766C23.831 0.359766 24.211 0.00976562 24.731 0.00976562H29.531C29.881 0.00976562 30.221 0.169766 30.471 0.439766L32.401 2.54977C32.401 2.54977 32.411 2.56977 32.431 2.57977C32.671 2.82977 32.821 3.13977 32.821 3.43977V3.59977L34.971 1.40977C35.161 1.21977 35.441 1.11977 35.751 1.14977C36.061 1.17977 36.361 1.32977 36.571 1.56977L38.441 3.58977C38.441 3.58977 38.531 3.67977 38.571 3.71977L41.741 7.13977C42.161 7.58977 42.201 8.22976 41.841 8.60977L39.791 10.6998L39.971 10.7198C40.261 10.7498 40.541 10.8998 40.751 11.1298L42.731 13.2498C42.841 13.3698 42.921 13.4998 42.981 13.6398C43.051 13.7998 43.091 13.9798 43.091 14.1498L42.961 18.9698C42.951 19.4698 42.571 19.8298 42.061 19.8298L31.301 19.9098H31.261ZM26.001 2.15977L25.721 12.3098C25.691 13.2198 26.021 14.0598 26.611 14.6698C26.671 14.7298 27.691 15.7998 28.361 16.4998C28.391 16.5298 28.411 16.5498 28.441 16.5898C28.551 16.7298 28.681 16.8598 28.811 16.9798C28.841 16.9998 28.891 17.0598 28.911 17.0798C29.471 17.5098 30.161 17.7498 30.881 17.7498H30.901L40.791 17.6698L40.881 14.1898L39.571 12.7998L37.401 12.5198C36.971 12.4698 36.571 12.1598 36.371 11.7598C36.181 11.3498 36.221 10.9098 36.501 10.6398L39.451 7.63977L37.161 5.16977C37.161 5.16977 37.071 5.07977 37.021 5.03977L35.881 3.80977L32.441 7.30977C32.151 7.60977 31.651 7.65977 31.211 7.42977C30.771 7.19977 30.491 6.73977 30.491 6.27977L30.571 3.52977L29.321 2.16977H25.951H25.981L26.001 2.15977Z" fill="#D93DEA"/>
<path d="M13.7209 43.4C13.3809 43.4 13.0409 43.25 12.7809 42.98L10.7809 40.83C10.5709 40.6 10.4409 40.31 10.4409 40.03L8.28095 42.22C8.10095 42.41 7.82095 42.5 7.52095 42.48C7.22095 42.46 6.94094 42.32 6.71094 42.09L3.56094 38.96C3.46094 38.88 3.36095 38.8 3.28095 38.7L1.45094 36.42C1.11094 35.99 1.07095 35.41 1.38095 35.06L3.26094 32.91C3.11094 32.89 2.96094 32.83 2.81094 32.75C2.69094 32.69 2.58094 32.6 2.48094 32.49L0.490952 30.35C0.260952 30.1 0.130941 29.79 0.150941 29.49L0.280946 24.67C0.290946 24.17 0.670939 23.81 1.18094 23.81L11.9409 23.73H11.9809C14.0309 23.73 15.5009 24.95 16.4209 25.87C16.4509 25.89 18.1509 27.63 18.3109 27.86C18.3509 27.91 18.3909 27.98 18.4309 28.03C19.2909 29.1 19.7609 30.41 19.7209 31.75L19.4209 42.55C19.4209 43.06 19.0309 43.41 18.5109 43.41H13.7109H13.7209V43.4ZM17.2609 41.24L17.5309 31.32C17.5509 30.49 17.281 29.72 16.741 29.1C16.671 29.02 16.6309 28.95 16.5809 28.87C16.2009 28.47 15.0709 27.3 15.0009 27.24C14.0409 26.28 13.3009 25.89 12.3409 25.89L2.45094 25.95L2.36095 29.43L3.59094 30.76H5.58095C6.02095 30.76 6.47094 31.03 6.70094 31.43C6.93094 31.84 6.92095 32.31 6.64095 32.61L3.67094 36L4.74095 37.34C4.74095 37.34 4.79094 37.38 4.81094 37.4L7.27095 39.85L10.7509 36.32C11.0409 36.02 11.5409 35.97 11.9809 36.2C12.4209 36.43 12.7009 36.89 12.7009 37.35L12.631 39.9L13.8609 41.23H17.2509L17.2609 41.24Z" fill="#D93DEA"/>
<path d="M14.0706 19.91H3.27058C3.18058 19.91 3.11058 19.91 3.02058 19.88C2.74058 19.83 2.43058 19.67 2.25058 19.46L0.33058 17.32C0.11058 17.07 -0.00942137 16.77 0.000578633 16.48L0.130584 11.67C0.140584 11.16 0.520572 10.81 1.04057 10.81H5.85058L4.95058 9.93L1.30058 6.57C1.06058 6.35 0.910583 6.06 0.880584 5.76C0.850584 5.46 0.940573 5.19 1.15057 5L4.82057 1.55C5.22057 1.17 5.90058 1.25 6.36058 1.7L10.7906 6.14L10.9006 0.88C10.9106 0.37 11.2906 0 11.8106 0H16.6306C16.9606 0 17.3206 0.16 17.5706 0.43L19.4806 2.48C19.4806 2.48 19.5206 2.51 19.5306 2.53C19.7806 2.78 19.9206 3.1 19.9106 3.43L19.6906 14.42C19.6306 17.45 17.1106 19.91 14.0706 19.91ZM3.37057 17.75H13.6906C15.7106 17.75 17.4406 16.04 17.4806 14.02L17.7006 3.52L16.4506 2.18H13.0706L12.9306 8.8C12.9306 9.21 12.6706 9.53 12.2906 9.64C11.9106 9.75 11.4506 9.61 11.1306 9.29L10.7006 8.87L5.75058 3.91L3.57057 5.96L6.33058 8.5L9.06058 11.19C9.39058 11.51 9.53058 11.96 9.41058 12.35C9.29058 12.74 8.96058 12.98 8.53058 12.98H2.27058L2.17058 16.45L3.36058 17.77V17.75H3.37057Z" fill="#D93DEA"/>
<path d="M11.8306 8.58982L5.64056 2.37982L1.97057 5.82982L8.54056 11.8698H1.21056L1.08057 16.6698L3.00056 18.8098H3.58057L10.5306 15.5198C13.0706 15.5198 15.1906 13.4598 15.2406 10.9198L18.7606 4.13982L18.7806 3.19982L16.8006 1.06982H11.9806L11.8206 8.57982L11.8306 8.58982Z" fill="#710A7C"/>
<path d="M28.0607 32.7201L34.0907 38.6501L37.5907 35.3901L31.3507 29.2601L42.1907 27.7901L40.1407 25.6001H29.3407C26.8007 25.6001 24.6807 27.6601 24.6307 30.2001L24.4307 40.1801L26.4507 42.3701L28.0307 32.7201H28.0507H28.0607Z" fill="#710A7C"/>
<path d="M31.561 10.7001L37.811 4.3901L35.821 2.2401L29.521 8.6501L31.641 3.7001V3.2101L29.721 1.1001H24.921L24.621 12.1101C24.591 13.3901 25.071 14.5301 25.881 15.3601C25.961 15.4401 28.121 17.7101 28.201 17.7801C28.991 18.4801 26.611 15.5601 27.771 15.5501L38.531 15.4701L41.981 14.2601V13.9101L40.001 11.7901L31.561 10.7001Z" fill="#710A7C"/>
<path d="M8.05072 29.2299L2.27072 35.8399L4.10072 38.1199L11.7307 32.8599L11.5307 40.1899L13.5307 42.3399L13.9407 42.2999L14.9907 39.0599L15.2907 28.2599C15.3207 27.2499 17.9907 29.1199 17.4607 28.3699C17.4307 28.3299 15.7607 26.6099 15.7207 26.5699C14.7307 25.5899 13.6107 24.8099 12.1307 24.8199L1.37071 24.8999L1.24072 29.7199L3.23071 31.8599H5.92072L8.04071 29.2599L8.05072 29.2299Z" fill="#710A7C"/>
<path d="M13.8408 10.56L7.81082 4.62998L4.31082 7.88998L10.5508 14.02H3.22083L3.09082 18.82H13.8908C16.4308 18.82 18.5508 16.76 18.6008 14.22L18.8208 3.22998H14.0008L13.8408 10.56Z" fill="#EFC6F4"/>
<path d="M31.4009 36.01L37.4309 41.94L40.9309 38.68L34.6909 32.55H42.0209L42.1509 27.75H31.3509C28.8109 27.75 26.6909 29.81 26.6409 32.35L26.4409 42.33H31.2609L31.3909 36.02L31.4009 36.01Z" fill="#EFC6F4"/>
<path d="M34.8907 13.98L40.9907 7.78998L37.8207 4.36998L31.5207 10.78L31.7307 3.22998H26.9307L26.6307 14.24C26.5607 16.78 28.5807 18.83 31.1107 18.82L41.8707 18.74L42.0007 13.92L34.9007 13.96L34.8907 13.98Z" fill="#EFC6F4"/>
<path d="M10.3707 31.79L4.11075 38.09L7.43074 41.4L13.7307 34.99L13.5307 42.32H18.3307L18.6308 31.52C18.7008 28.98 16.6907 26.93 14.1507 26.94L3.39075 27.02L3.26074 31.84L10.3607 31.8H10.3707V31.79Z" fill="#EFC6F4"/>
</svg>
