<svg width="39" height="37" viewBox="0 0 39 37" fill="none" xmlns="http://www.w3.org/2000/svg">
<path d="M22.9605 7.84562L22.8225 9.58608L18.2835 14.1251C17.8464 13.8874 17.3557 13.7647 16.8497 13.7647C15.1782 13.7647 13.8135 15.1295 13.8135 16.8086C13.8135 18.4877 15.1706 19.8525 16.8497 19.8525C18.5288 19.8525 19.8859 18.4877 19.8859 16.8086C19.8859 16.3026 19.7556 15.7965 19.5179 15.3518L24.1029 10.7668L25.8434 10.6288L25.943 10.5368C26.6714 9.83143 27.3921 9.09538 28.0745 8.37466L28.4119 8.02197C29.1863 7.21691 29.8533 6.54219 30.551 5.89814L31.2488 5.25409H28.3275V2.53223L22.9758 7.84562H22.9605Z" fill="#F1FF66"/>
<path d="M29.4394 9.94687L29.2017 9.48683L27.4996 11.212L27.6146 11.4496C29.2401 14.6852 29.3091 18.4575 27.8063 21.8081C26.3112 25.1357 23.4743 27.5738 19.9934 28.5016C15.9144 29.598 11.6514 28.5399 8.5922 25.6877C5.52531 22.8278 4.16821 18.6338 4.9656 14.4782C6.14636 8.35208 11.9658 4.10443 18.2146 4.80982C19.3263 4.93249 20.4994 5.27752 21.9255 5.8909L22.1555 5.99057L23.896 4.27311L23.436 4.03543C19.771 2.16462 15.462 1.94227 11.6208 3.42972C7.77181 4.91716 4.85059 7.86904 3.38615 11.7333C1.86804 15.7586 2.22073 20.2286 4.36756 23.9932C6.49905 27.7348 10.1256 30.2957 14.3273 31.0164C15.163 31.1621 15.9988 31.2311 16.8268 31.2311C20.8904 31.2311 24.7547 29.5213 27.5226 26.4391C30.8502 22.7128 32.0079 17.6141 30.6278 12.7837C30.3288 11.7563 29.8841 10.8056 29.4471 9.9392H29.4394V9.94687Z" fill="#F1FF66"/>
<path d="M18.2995 10.7517C18.5141 10.7977 18.7365 10.882 18.9282 10.9587L19.1505 11.0431L20.9293 9.3256L20.4463 9.09558C17.6094 7.74615 14.3815 8.05284 11.813 9.93131C9.23679 11.8021 7.94869 14.823 8.35506 18.0202C8.79976 21.4782 11.491 24.4377 14.8952 25.2044C15.5546 25.3578 16.214 25.4345 16.8657 25.4345C19.2809 25.4345 21.5657 24.4224 23.2142 22.5592C25.3303 20.1747 25.936 16.9392 24.8549 13.8876L24.7399 13.5886C24.6786 13.4429 24.6096 13.2972 24.5406 13.1516L24.3182 12.6915L22.5778 14.3706L22.6698 14.6007C23.6359 17.1078 22.9305 19.8604 20.891 21.6238C19.2885 23.0039 16.559 23.9087 13.6991 22.2832L13.6531 22.2526C10.5325 20.4508 10.0802 17.1385 11.0386 14.6467C12.0047 12.1318 14.6269 9.96198 18.3148 10.7747L18.2995 10.7517Z" fill="#F1FF66"/>
<path d="M37.7509 23.2182L37.0378 23.0878L36.9075 14.5158C36.9075 13.9868 36.5931 13.5268 36.1177 13.3121C35.6347 13.0974 35.0903 13.1741 34.6916 13.5114L33.4725 14.5465C33.3652 13.7261 33.1965 12.9057 32.9665 12.1007L32.8208 11.6406C32.5525 10.8202 32.2151 10.0612 31.8854 9.38647H31.9008L31.6171 8.82676L31.4254 8.4434C31.6937 8.17505 31.9544 7.92203 32.2228 7.67667L32.9205 7.03263C33.6566 6.35024 33.9019 5.2845 33.5339 4.3491C33.1659 3.41369 32.2611 2.80031 31.2567 2.80031H30.789V2.53196C30.789 1.54289 30.191 0.653488 29.2786 0.270127C28.3662 -0.113235 27.3081 0.101447 26.6104 0.791498L25.2073 2.18693C25.1459 2.1486 25.0846 2.11026 25.0233 2.07959L24.5709 1.84191L24.1645 1.64256C20.0932 -0.289581 15.4085 -0.527266 11.1686 0.983179H11.1532L10.7315 1.13652C6.23853 2.86932 2.80361 6.32724 1.08615 10.8586C-0.692646 15.5739 -0.270949 20.7953 2.23624 25.1963C4.73576 29.5743 8.98341 32.5798 13.8981 33.4232C14.8488 33.5843 15.8302 33.6686 16.8116 33.6686C17.9311 33.6686 19.0428 33.5536 20.1316 33.3312L20.1546 35.0947C20.1546 35.6161 20.4613 36.0838 20.9443 36.2985C21.1206 36.3828 21.3123 36.4211 21.504 36.4211C21.8184 36.4211 22.125 36.3138 22.3704 36.0991L25.3146 33.5919C26.296 33.9216 27.3158 34.0903 28.3432 34.0903C33.1505 34.0903 37.2678 30.4867 37.9042 25.71L38.1649 23.7855C38.2032 23.5172 38.0192 23.2642 37.7509 23.2182Z" fill="#0D1252"/>
<path d="M22.9605 7.84562L22.8225 9.58608L18.2835 14.1251C17.8464 13.8874 17.3557 13.7647 16.8497 13.7647C15.1782 13.7647 13.8135 15.1295 13.8135 16.8086C13.8135 18.4877 15.1706 19.8525 16.8497 19.8525C18.5288 19.8525 19.8859 18.4877 19.8859 16.8086C19.8859 16.3026 19.7556 15.7965 19.5179 15.3518L24.1029 10.7668L25.8434 10.6288L25.943 10.5368C26.6714 9.83143 27.3921 9.09538 28.0745 8.37466L28.4119 8.02197C29.1863 7.21691 29.8533 6.54219 30.551 5.89814L31.2488 5.25409H28.3275V2.53223L22.9758 7.84562H22.9605Z" fill="#F1FF66"/>
<path d="M20.0547 28.4854C20.0547 28.4854 20.0164 28.5007 19.9934 28.5084C15.9144 29.6048 11.6514 28.5467 8.5922 25.6945C5.52531 22.8347 4.16821 18.6407 4.9656 14.485C6.14636 8.35892 11.9658 4.11127 18.2146 4.81665C19.3263 4.93933 20.4994 5.28436 21.9255 5.89773L22.1555 5.99741L23.896 4.27995L23.436 4.04226C19.771 2.17146 15.462 1.94911 11.6208 3.43655C7.77181 4.924 4.85059 7.87588 3.38615 11.7402C1.86804 15.7655 2.22073 20.2355 4.36756 24.0001C6.49905 27.7417 10.1256 30.3025 14.3273 31.0233C15.163 31.1689 15.9988 31.2379 16.8268 31.2379C17.9386 31.2379 19.0273 31.0999 20.0931 30.8546L20.0547 28.4931V28.4854Z" fill="#F1FF66"/>
<path d="M28.6951 14.7767C29.5155 14.8074 30.3206 14.9377 31.095 15.1754C31.0029 14.378 30.8496 13.573 30.6273 12.7832C30.3282 11.7558 29.8835 10.8051 29.4465 9.9387H29.4388L29.2012 9.48633L27.499 11.2115L27.614 11.4491C28.1507 12.5149 28.4958 13.6343 28.6951 14.7767Z" fill="#F1FF66"/>
<path d="M23.0679 16.3713C23.7349 15.9266 24.4556 15.5663 25.2223 15.2979C25.138 14.8302 25.023 14.3549 24.8543 13.8948L24.7393 13.5958C24.678 13.4501 24.609 13.3044 24.54 13.1588L24.3176 12.6987L22.5771 14.3779L22.6692 14.6079C22.8915 15.1906 23.0142 15.781 23.0679 16.3713Z" fill="#F1FF66"/>
<path d="M18.6905 24.2614C18.7135 23.763 18.7825 23.2723 18.8745 22.7969C17.3947 23.326 15.5776 23.349 13.6991 22.2832L13.6531 22.2526C10.5325 20.4508 10.0802 17.1385 11.0386 14.6467C12.0047 12.1318 14.6269 9.96198 18.3148 10.7747L18.2995 10.7517C18.5141 10.7977 18.7365 10.882 18.9282 10.9587L19.1505 11.0431L20.9293 9.3256L20.4463 9.09558C17.6094 7.74615 14.3815 8.05284 11.813 9.93131C9.23679 11.8021 7.94869 14.823 8.35506 18.0202C8.79976 21.4782 11.491 24.4377 14.8952 25.2044C15.5546 25.3578 16.214 25.4345 16.8657 25.4345C17.4714 25.4345 18.0618 25.3731 18.6445 25.2504L18.6905 24.2614Z" fill="#F1FF66"/>
<path d="M23.3833 24.4375C23.3833 21.7003 25.6145 19.4691 28.3517 19.4691C29.2411 19.4691 30.0845 19.7145 30.8205 20.1438L28.6814 21.961L31.0122 22.4057L34.4931 23.0267L34.4011 17.0923L32.5303 18.6871C31.3266 17.8053 29.8698 17.307 28.3517 17.307C24.5334 17.307 21.4205 20.3279 21.2441 24.1001L23.3833 24.4912V24.4298V24.4375Z" fill="white"/>
<path d="M33.2808 25.0044C32.9971 27.4962 30.8886 29.4054 28.3584 29.4054C27.7833 29.4054 27.2236 29.298 26.6946 29.1064L28.3891 27.6649L22.585 26.5532L22.677 32.5336L24.8928 30.6398C25.9432 31.2379 27.1316 31.5599 28.3584 31.5599C31.9083 31.5599 34.9369 28.8687 35.4046 25.3801L33.2808 25.0044Z" fill="white"/>
</svg>
