<svg width="38" height="36" viewBox="0 0 38 36" fill="none" xmlns="http://www.w3.org/2000/svg">
<path d="M33.3303 16.3933C33.2929 14.9713 33.0756 13.5493 32.6709 12.1643C32.3112 10.9497 31.7942 9.86839 31.3371 8.97223L31.2172 8.74263C31.427 8.54266 31.6368 8.33529 31.8541 8.14272L33.0606 7.03919C34.6267 5.60977 33.6076 3.02498 31.472 3.02498H30.5203V2.32138C30.5203 0.262428 28.0026 -0.774454 26.5264 0.67718L24.7954 2.37322L24.3083 2.12881C20.0596 -0.0116054 15.069 -0.270825 10.6254 1.43262C6.16686 3.13607 2.77236 6.52075 1.07136 10.9571C-0.682085 15.5786 -0.269949 20.6964 2.21036 24.9994C4.68317 29.2951 8.89445 32.228 13.7726 33.0575C14.7168 33.2204 15.6909 33.3019 16.6651 33.3019C19.7074 33.3019 22.7047 32.4576 25.3274 30.8652L28.2723 34.4647C28.9842 35.3312 30.3255 35.3312 31.0299 34.4647L36.7024 27.5398C37.639 26.3918 36.8148 24.6884 35.3236 24.681H33.3453L33.3228 16.3933H33.3303Z" fill="#0D1252"/>
<path d="M22.6603 8.12084L22.5254 9.80207L18.0893 14.1866C17.6622 13.957 17.1826 13.8385 16.6881 13.8385C15.0545 13.8385 13.7207 15.1568 13.7207 16.7788C13.7207 18.4008 15.047 19.7191 16.6881 19.7191C18.3291 19.7191 19.6555 18.4008 19.6555 16.7788C19.6555 16.29 19.5281 15.8012 19.2958 15.3716L23.7768 10.9426L25.4778 10.8093L25.5752 10.7205C26.2871 10.0391 26.9915 9.32807 27.6584 8.63188L27.9881 8.29119C28.7449 7.51353 29.3968 6.86177 30.0787 6.23964L30.7606 5.61752H27.9057V2.98828L22.6753 8.12084H22.6603Z" fill="#F941FF"/>
<path d="M18.1035 10.9273C18.3134 10.9718 18.5307 11.0532 18.718 11.1273L18.9353 11.2088L20.6738 9.54976L20.2017 9.32758C17.4291 8.02407 14.2744 8.32032 11.7641 10.1349C9.24637 11.942 7.98748 14.8601 8.38463 17.9485C8.81925 21.2887 11.4494 24.1476 14.7765 24.8882C15.4209 25.0363 16.0653 25.1104 16.7023 25.1104C19.0627 25.1104 21.2957 24.1328 22.9068 22.333C24.975 20.0297 25.5669 16.9042 24.5104 13.9565L24.398 13.6677C24.338 13.5269 24.2706 13.3862 24.2031 13.2455L23.9858 12.8011L22.2848 14.4231L22.3748 14.6453C23.3189 17.0672 22.6295 19.726 20.6363 21.4295C19.0702 22.7626 16.4025 23.6365 13.6075 22.0664L13.5626 22.0368C10.5128 20.2963 10.0706 17.0968 11.0073 14.6897C11.9515 12.2605 14.5142 10.1645 18.1185 10.9496L18.1035 10.9273Z" fill="#F941FF"/>
<path d="M28.4445 16.4601H30.7075C30.6775 15.2677 30.4977 14.0753 30.153 12.8903C29.8608 11.8978 29.4261 10.9794 28.999 10.1425H28.9915L28.7592 9.70557L27.0957 11.372L27.2081 11.6016C27.9874 13.1347 28.3921 14.7863 28.437 16.4601H28.4445Z" fill="#F941FF"/>
<path d="M33.6235 27.2732L30.9484 27.2584V20.4668H28.4007V27.251L25.793 27.3102L29.667 32.0502L33.6235 27.2806V27.2732ZM29.757 29.147L29.6745 29.2284L29.5921 29.147H29.757Z" fill="white"/>
<path d="M22.5783 26.9103C21.7015 27.4139 20.7649 27.8065 19.7608 28.0731C15.7743 29.1322 11.608 28.1101 8.61812 25.355C5.62077 22.5924 4.29445 18.5412 5.07376 14.527C6.22774 8.60936 11.9152 4.50627 18.0223 5.18765C19.1088 5.30615 20.2553 5.63944 21.6491 6.23194L21.8739 6.32822L23.5749 4.66921L23.1253 4.43962C19.5435 2.63248 15.3322 2.4177 11.578 3.85452C7.81633 5.29134 4.96136 8.14277 3.53012 11.8755C2.04643 15.7638 2.39113 20.0817 4.48927 23.7182C6.57243 27.3325 10.1168 29.8062 14.2232 30.5024C15.0399 30.6431 15.8567 30.7097 16.666 30.7097C19.2812 30.7097 21.799 29.9765 23.987 28.636L22.5708 26.9029L22.5783 26.9103Z" fill="#F941FF"/>
</svg>
