<svg width="20" height="19" viewBox="0 0 20 19" fill="none" xmlns="http://www.w3.org/2000/svg">
<path d="M18.6891 10.1188C19.5002 9.67636 20 8.82425 20 7.8984V6.25973C20 4.85866 18.8611 3.71979 17.4601 3.71979C16.059 3.71979 15.002 4.77673 14.9283 6.12044L14.9119 6.47276L13.8632 7.01352L12.6833 4.89963L12.7325 4.67841C12.7735 4.48996 12.7898 4.3261 12.7898 4.17862V2.53994C12.7898 1.13888 11.651 0 10.2499 0C8.84883 0 7.70995 1.13888 7.70995 2.53994V4.17862C7.70995 4.30971 7.72634 4.4408 7.74273 4.5719L7.7755 4.77673L6.53011 7.01352L5.10447 6.28431L5.0635 5.95658C4.90782 4.6866 3.8263 3.71979 2.53994 3.71979C1.13888 3.71979 0 4.85866 0 6.25973V7.8984C0 8.96354 0.671856 9.91397 1.67145 10.2827L1.9746 10.3974L3.92462 18.1565H16.4441L18.4269 10.2499L18.6645 10.1188H18.6891Z" fill="#150B60"/>
<path d="M18.9843 6.25997C18.9843 5.42425 18.3042 4.7442 17.4685 4.7442C16.6328 4.7442 15.9527 5.42425 15.9527 6.25997C15.9527 6.53035 16.0265 6.77615 16.1494 6.98918L13.4537 8.37386L10.9466 3.8757C11.43 3.62171 11.7659 3.12192 11.7659 2.54019C11.7659 1.70446 11.0859 1.02441 10.2501 1.02441C9.41442 1.02441 8.73437 1.70446 8.73437 2.54019C8.73437 3.08914 9.02933 3.57255 9.47177 3.83474L6.94002 8.38205L3.94125 6.8417C4.01499 6.66145 4.05596 6.473 4.05596 6.26817C4.05596 5.43244 3.37591 4.75239 2.54019 4.75239C1.70446 4.75239 1.02441 5.43244 1.02441 6.26817C1.02441 7.10389 1.70446 7.78394 2.54019 7.78394C2.62212 7.78394 2.70405 7.77575 2.78599 7.75936L4.72781 15.5021H15.6496L17.5914 7.76755C18.3616 7.69381 18.9597 7.05473 18.9597 6.26817L18.9843 6.25997Z" fill="#8EFAFF"/>
</svg>
