<svg width="10" height="32" viewBox="0 0 10 32" fill="none" xmlns="http://www.w3.org/2000/svg">
<g clip-path="url(#clip0_78_3211)">
<path d="M10 5.08712C10 2.27699 7.75956 0 5.00546 0C2.25137 0 0 2.27699 0 5.08712C0 5.27595 0.0327869 5.45366 0.0546448 5.64249C0.0327869 5.83131 0 6.00902 0 6.19785C0 8.99688 2.24044 11.285 5.00546 11.285C7.77049 11.285 10.0109 9.00798 10.0109 6.19785C10.0109 6.00902 9.97814 5.83131 9.95628 5.64249C9.97814 5.45366 10.0109 5.27595 10.0109 5.08712H10Z" fill="#830789"/>
<path d="M5.14742 11.4517C2.60097 11.4517 0.5354 13.5509 0.5354 16.1389V27.3128C0.5354 29.8897 2.60097 31.989 5.14742 31.989C7.69387 31.989 9.74852 29.8897 9.74852 27.3128V16.1389C9.74852 13.5509 7.68294 11.4517 5.14742 11.4517Z" fill="#830789"/>
<path d="M5.00559 10.1632C7.15859 10.1632 8.91815 8.38608 8.91815 6.18685C8.91815 3.98761 7.16952 2.21045 5.00559 2.21045C2.84165 2.21045 1.09302 3.99872 1.09302 6.19795C1.09302 8.39719 2.84165 10.1744 5.00559 10.1744V10.1632Z" fill="white"/>
<path d="M5.14754 13.6731C3.20219 13.6731 1.62842 15.2725 1.62842 17.2496V27.3128C1.62842 29.2899 3.20219 30.8782 5.14754 30.8782C7.0929 30.8782 8.65574 29.2788 8.65574 27.3128V17.2496C8.65574 15.2725 7.08197 13.6731 5.14754 13.6731Z" fill="white"/>
</g>
<defs>
<clipPath id="clip0_78_3211">
<rect width="10" height="32" fill="white"/>
</clipPath>
</defs>
</svg>
