<svg width="37" height="27" viewBox="0 0 37 27" fill="none" xmlns="http://www.w3.org/2000/svg">
<g clip-path="url(#clip0_275_11850)">
<path d="M31.367 27C30.284 27 29.1916 26.6791 28.2322 26.0468L27.9852 25.8487L22.0101 20.4411H14.9806L8.7585 26.0374C6.78263 27.3586 4.2558 27.302 2.32743 25.9242C0.399063 24.5369 -0.427381 22.1681 0.218575 19.8843L4.21781 3.63334C4.84476 1.46278 6.79213 0 8.97698 0H28.0232C30.208 0 32.1554 1.46278 32.7634 3.54841L36.8006 19.9221C37.4276 22.187 36.5916 24.5369 34.6727 25.9147C33.6848 26.6319 32.5259 26.9906 31.3765 26.9906L31.367 27ZM30.7305 22.5834C31.386 22.9514 31.9464 22.64 32.1649 22.489C32.3929 22.3286 32.9059 21.8567 32.6779 21.0357L32.6589 20.9696L28.6407 4.64313C28.5837 4.44495 28.3272 4.24677 28.0327 4.24677H8.97698C8.692 4.24677 8.42602 4.44495 8.35003 4.71863L4.3508 20.9696C4.10381 21.8473 4.60728 22.3191 4.83526 22.489C5.05375 22.6494 5.61421 22.9514 6.26967 22.5834L12.3208 17.1098C12.9477 16.5246 13.7932 16.2038 14.6671 16.2038H22.3141C23.188 16.2038 24.0335 16.5341 24.6794 17.1192L30.721 22.5834H30.7305Z" fill="#2A1C7C"/>
<path d="M31.3669 26.2924C30.4169 26.2924 29.467 26.0187 28.6311 25.4619L28.4696 25.3298L22.276 19.7241L14.6765 19.743L8.35944 25.4619C6.63056 26.6133 4.4267 26.5755 2.74532 25.3581C1.06393 24.1407 0.332482 22.074 0.902443 20.0921L4.91117 3.79399C5.44314 1.95373 7.10552 0.708008 8.9769 0.708008H28.0231C29.8945 0.708008 31.5664 1.95373 32.0793 3.74681L36.1071 20.1016C36.658 22.0834 35.9266 24.1407 34.2547 25.3487C33.3902 25.9716 32.3833 26.283 31.3764 26.283L31.3669 26.2924ZM30.303 23.1498C31.3764 23.8104 32.3168 23.2442 32.5828 23.0554C32.8583 22.8573 33.7227 22.1212 33.3617 20.8377V20.7905L29.3245 4.46404C29.1725 3.93555 28.6311 3.52975 28.0231 3.52975H8.9769C8.36894 3.52975 7.82747 3.93555 7.66599 4.51122L3.65726 20.7999C3.28678 22.1212 4.15122 22.8667 4.41721 23.0554C4.68319 23.2442 5.62362 23.8104 6.69705 23.1498L12.8051 17.6196C13.3086 17.1572 13.9736 16.9023 14.6765 16.9023H22.3235C23.0264 16.9023 23.6914 17.1572 24.2044 17.629L30.303 23.1498Z" fill="#00DBFF"/>
<path d="M31.3669 25.8109C30.5119 25.8109 29.657 25.5561 28.8971 25.056L28.7831 24.971L22.5895 19.3653C22.5135 19.2898 22.4185 19.2615 22.3235 19.2615H14.6765C14.5815 19.2615 14.4865 19.2992 14.4105 19.3653L8.10296 25.0654C6.54506 26.1035 4.5502 26.0657 3.0303 24.971C1.5104 23.8763 0.854947 22.0077 1.35841 20.2052L5.36714 3.90706C5.83261 2.28385 7.31451 1.17969 8.9769 1.17969H28.0231C29.6855 1.17969 31.1674 2.28385 31.6234 3.87874L35.6511 20.2241C36.1546 22.0172 35.4896 23.8763 33.9792 24.971C33.1908 25.5373 32.2883 25.8204 31.3764 25.8204L31.3669 25.8109ZM30.0085 23.5271C31.0724 24.1972 32.1743 23.9329 32.8583 23.4422C33.5517 22.942 34.1692 21.97 33.8082 20.7243V20.6959L29.7805 4.36948C29.562 3.62394 28.8401 3.07658 28.0231 3.07658H8.9769C8.15995 3.07658 7.4285 3.62394 7.21002 4.40723L3.19179 20.6865C2.83081 21.9605 3.44827 22.942 4.14172 23.4422C4.82568 23.9329 5.9181 24.2066 6.99153 23.5271L13.1281 17.9686C13.5461 17.5816 14.0971 17.374 14.6765 17.374H22.3235C22.903 17.374 23.4539 17.5911 23.8814 17.978L30.018 23.5271H30.0085Z" fill="#72F2FF"/>
<path d="M31.3669 25.3389C30.6069 25.3389 29.8375 25.1124 29.163 24.6688L22.9124 19.0159C22.751 18.8649 22.542 18.7894 22.3235 18.7894H14.6765C14.458 18.7894 14.249 18.8744 14.0875 19.0159L7.88446 24.6217C6.43106 25.5937 4.65468 25.5559 3.29627 24.5839C1.93786 23.6024 1.3489 21.9415 1.80487 20.3371L5.8326 4.02012C6.23157 2.61397 7.52348 1.65137 8.97688 1.65137H28.0231C29.4765 1.65137 30.7684 2.6234 31.1579 4.00124L35.1856 20.3371C35.6321 21.9415 35.0526 23.6024 33.6942 24.5839C32.9913 25.0841 32.1838 25.3389 31.3669 25.3389ZM14.6765 17.8457H22.3235C22.7795 17.8457 23.2164 18.0156 23.5584 18.327L29.752 23.9327C30.9774 24.7443 32.3168 24.414 33.1433 23.8289C33.9697 23.2344 34.6917 22.0736 34.2737 20.5919V20.5731L30.2459 4.24661C29.9705 3.28401 29.049 2.59509 28.0231 2.59509H8.97688C7.95095 2.59509 7.02951 3.28401 6.75403 4.26549L2.7358 20.5731C2.31783 22.0642 3.03978 23.2249 3.86623 23.8195C4.68317 24.4046 6.02258 24.7349 7.305 23.8855L13.4416 18.3176C13.7741 18.0156 14.211 17.8457 14.667 17.8457H14.6765Z" fill="#CCFDFF"/>
<path d="M14.667 12.778H9.85083C8.67291 12.778 7.71347 11.8249 7.71347 10.6546C7.71347 9.48441 8.67291 8.53125 9.85083 8.53125H14.667C15.8449 8.53125 16.8044 9.48441 16.8044 10.6546C16.8044 11.8249 15.8449 12.778 14.667 12.778Z" fill="#2A1C7C"/>
<path d="M12.2637 15.175C11.0857 15.175 10.1263 14.2218 10.1263 13.0516V8.26694C10.1263 7.09672 11.0857 6.14355 12.2637 6.14355C13.4416 6.14355 14.401 7.09672 14.401 8.26694V13.0516C14.401 14.2218 13.4416 15.175 12.2637 15.175Z" fill="#2A1C7C"/>
<path d="M14.667 12.0704H9.85084C9.06239 12.0704 8.42593 11.4381 8.42593 10.6548C8.42593 9.87155 9.06239 9.23926 9.85084 9.23926H14.667C15.4555 9.23926 16.0919 9.87155 16.0919 10.6548C16.0919 11.4381 15.4555 12.0704 14.667 12.0704Z" fill="#00DBFF"/>
<path d="M12.2637 14.4674C11.4752 14.4674 10.8388 13.8351 10.8388 13.0518V8.26715C10.8388 7.48386 11.4752 6.85156 12.2637 6.85156C13.0521 6.85156 13.6886 7.48386 13.6886 8.26715V13.0518C13.6886 13.8351 13.0521 14.4674 12.2637 14.4674Z" fill="#00DBFF"/>
<path d="M12.2637 13.9954C11.7412 13.9954 11.3137 13.5707 11.3137 13.0517V8.26697C11.3137 7.74792 11.7412 7.32324 12.2637 7.32324C12.7861 7.32324 13.2136 7.74792 13.2136 8.26697V13.0517C13.2136 13.5707 12.7861 13.9954 12.2637 13.9954Z" fill="#72F2FF"/>
<path d="M14.667 11.5984H9.85085C9.32838 11.5984 8.90091 11.1737 8.90091 10.6547C8.90091 10.1356 9.32838 9.71094 9.85085 9.71094H14.667C15.1895 9.71094 15.617 10.1356 15.617 10.6547C15.617 11.1737 15.1895 11.5984 14.667 11.5984Z" fill="#72F2FF"/>
<path d="M12.2637 13.9954C11.7412 13.9954 11.3137 13.5707 11.3137 13.0517V8.26697C11.3137 7.74792 11.7412 7.32324 12.2637 7.32324C12.7861 7.32324 13.2136 7.74792 13.2136 8.26697V13.0517C13.2136 13.5707 12.7861 13.9954 12.2637 13.9954Z" fill="#72F2FF"/>
<path d="M12.2637 13.5238C11.9977 13.5238 11.7887 13.3162 11.7887 13.052V8.26727C11.7887 8.00303 11.9977 7.79541 12.2637 7.79541C12.5296 7.79541 12.7386 8.00303 12.7386 8.26727V13.052C12.7386 13.3162 12.5296 13.5238 12.2637 13.5238Z" fill="#CCFDFF"/>
<path d="M14.667 11.1263H9.85082C9.58484 11.1263 9.37585 10.9187 9.37585 10.6545C9.37585 10.3902 9.58484 10.1826 9.85082 10.1826H14.667C14.933 10.1826 15.142 10.3902 15.142 10.6545C15.142 10.9187 14.933 11.1263 14.667 11.1263Z" fill="#CCFDFF"/>
<path d="M12.7386 8.26709H11.7887V13.0518H12.7386V8.26709Z" fill="#CCFDFF"/>
<path d="M22.1525 11.1455C20.6326 11.1455 19.3977 9.91864 19.3977 8.40868C19.3977 6.89872 20.6326 5.67188 22.1525 5.67188C23.6724 5.67188 24.9073 6.89872 24.9073 8.40868C24.9073 9.91864 23.6724 11.1455 22.1525 11.1455ZM22.1525 6.89872C21.3166 6.89872 20.6326 7.5782 20.6326 8.40868C20.6326 9.23916 21.3166 9.91864 22.1525 9.91864C22.9885 9.91864 23.6724 9.23916 23.6724 8.40868C23.6724 7.5782 22.9885 6.89872 22.1525 6.89872Z" fill="#2A1C7C"/>
<path d="M22.1525 10.4374C21.0221 10.4374 20.1101 9.522 20.1101 8.4084C20.1101 7.29481 21.0316 6.37939 22.1525 6.37939C23.2734 6.37939 24.1949 7.29481 24.1949 8.4084C24.1949 9.522 23.2734 10.4374 22.1525 10.4374ZM22.1525 7.60624C21.706 7.60624 21.3451 7.96485 21.3451 8.4084C21.3451 8.85196 21.706 9.21057 22.1525 9.21057C22.599 9.21057 22.9599 8.85196 22.9599 8.4084C22.9599 7.96485 22.599 7.60624 22.1525 7.60624Z" fill="#00DBFF"/>
<path d="M22.1525 9.96586C21.2881 9.96586 20.5851 9.2675 20.5851 8.40871C20.5851 7.54992 21.2881 6.85156 22.1525 6.85156C23.0169 6.85156 23.7199 7.54992 23.7199 8.40871C23.7199 9.2675 23.0169 9.96586 22.1525 9.96586ZM22.1525 8.07841C21.972 8.07841 21.82 8.2294 21.82 8.40871C21.82 8.58802 21.972 8.73901 22.1525 8.73901C22.333 8.73901 22.485 8.58802 22.485 8.40871C22.485 8.2294 22.333 8.07841 22.1525 8.07841Z" fill="#72F2FF"/>
<path d="M22.1525 9.96586C21.2881 9.96586 20.5851 9.2675 20.5851 8.40871C20.5851 7.54992 21.2881 6.85156 22.1525 6.85156C23.0169 6.85156 23.7199 7.54992 23.7199 8.40871C23.7199 9.2675 23.0169 9.96586 22.1525 9.96586ZM22.1525 8.07841C21.972 8.07841 21.82 8.2294 21.82 8.40871C21.82 8.58802 21.972 8.73901 22.1525 8.73901C22.333 8.73901 22.485 8.58802 22.485 8.40871C22.485 8.2294 22.333 8.07841 22.1525 8.07841Z" fill="#72F2FF"/>
<path d="M22.1525 9.49381C21.5446 9.49381 21.0601 9.00307 21.0601 8.40853C21.0601 7.81398 21.5541 7.32324 22.1525 7.32324C22.751 7.32324 23.2449 7.81398 23.2449 8.40853C23.2449 9.00307 22.751 9.49381 22.1525 9.49381ZM22.1525 8.25753C22.0765 8.25753 22.01 8.32359 22.01 8.39909C22.01 8.55952 22.3045 8.55952 22.3045 8.39909C22.3045 8.32359 22.238 8.25753 22.162 8.25753H22.1525Z" fill="#CCFDFF"/>
<path d="M22.1525 9.01249C22.4935 9.01249 22.77 8.73785 22.77 8.39907C22.77 8.06028 22.4935 7.78564 22.1525 7.78564C21.8115 7.78564 21.535 8.06028 21.535 8.39907C21.535 8.73785 21.8115 9.01249 22.1525 9.01249Z" fill="#CCFDFF"/>
<path d="M22.1525 9.49381C21.5446 9.49381 21.0601 9.00307 21.0601 8.40853C21.0601 7.81398 21.5541 7.32324 22.1525 7.32324C22.751 7.32324 23.2449 7.81398 23.2449 8.40853C23.2449 9.00307 22.751 9.49381 22.1525 9.49381ZM22.1525 8.25753C22.0765 8.25753 22.01 8.32359 22.01 8.39909C22.01 8.55952 22.3045 8.55952 22.3045 8.39909C22.3045 8.32359 22.238 8.25753 22.162 8.25753H22.1525Z" fill="#CCFDFF"/>
<path d="M26.6077 15.5527C25.0878 15.5527 23.8529 14.3259 23.8529 12.8159C23.8529 11.3059 25.0878 10.0791 26.6077 10.0791C28.1276 10.0791 29.3625 11.3059 29.3625 12.8159C29.3625 14.3259 28.1276 15.5527 26.6077 15.5527ZM26.6077 11.3059C25.7717 11.3059 25.0878 11.9854 25.0878 12.8159C25.0878 13.6464 25.7717 14.3259 26.6077 14.3259C27.4436 14.3259 28.1276 13.6464 28.1276 12.8159C28.1276 11.9854 27.4436 11.3059 26.6077 11.3059Z" fill="#2A1C7C"/>
<path d="M26.6077 14.8446C25.4773 14.8446 24.5653 13.9292 24.5653 12.8156C24.5653 11.702 25.4868 10.7866 26.6077 10.7866C27.7286 10.7866 28.6501 11.702 28.6501 12.8156C28.6501 13.9292 27.7286 14.8446 26.6077 14.8446ZM26.6077 12.0135C26.1612 12.0135 25.8003 12.3721 25.8003 12.8156C25.8003 13.2592 26.1612 13.6178 26.6077 13.6178C27.0542 13.6178 27.4151 13.2592 27.4151 12.8156C27.4151 12.3721 27.0542 12.0135 26.6077 12.0135Z" fill="#00DBFF"/>
<path d="M26.6077 14.3731C25.7433 14.3731 25.0403 13.6747 25.0403 12.8159C25.0403 11.9571 25.7433 11.2588 26.6077 11.2588C27.4721 11.2588 28.1751 11.9571 28.1751 12.8159C28.1751 13.6747 27.4721 14.3731 26.6077 14.3731ZM26.6077 12.4856C26.4272 12.4856 26.2752 12.6366 26.2752 12.8159C26.2752 12.9952 26.4272 13.1462 26.6077 13.1462C26.7882 13.1462 26.9402 12.9952 26.9402 12.8159C26.9402 12.6366 26.7882 12.4856 26.6077 12.4856Z" fill="#72F2FF"/>
<path d="M26.6077 14.3731C25.7433 14.3731 25.0403 13.6747 25.0403 12.8159C25.0403 11.9571 25.7433 11.2588 26.6077 11.2588C27.4721 11.2588 28.1751 11.9571 28.1751 12.8159C28.1751 13.6747 27.4721 14.3731 26.6077 14.3731ZM26.6077 12.4856C26.4272 12.4856 26.2752 12.6366 26.2752 12.8159C26.2752 12.9952 26.4272 13.1462 26.6077 13.1462C26.7882 13.1462 26.9402 12.9952 26.9402 12.8159C26.9402 12.6366 26.7882 12.4856 26.6077 12.4856Z" fill="#72F2FF"/>
<path d="M26.6077 13.901C25.9998 13.901 25.5153 13.4103 25.5153 12.8158C25.5153 12.2212 26.0093 11.7305 26.6077 11.7305C27.2062 11.7305 27.7001 12.2212 27.7001 12.8158C27.7001 13.4103 27.2062 13.901 26.6077 13.901ZM26.6077 12.6648C26.5317 12.6648 26.4652 12.7308 26.4652 12.8063C26.4652 12.9667 26.7597 12.9667 26.7597 12.8063C26.7597 12.7308 26.6932 12.6648 26.6172 12.6648H26.6077Z" fill="#CCFDFF"/>
<path d="M26.6077 13.4197C26.9487 13.4197 27.2252 13.1451 27.2252 12.8063C27.2252 12.4675 26.9487 12.1929 26.6077 12.1929C26.2667 12.1929 25.9902 12.4675 25.9902 12.8063C25.9902 13.1451 26.2667 13.4197 26.6077 13.4197Z" fill="#CCFDFF"/>
<path d="M26.6077 13.901C25.9998 13.901 25.5153 13.4103 25.5153 12.8158C25.5153 12.2212 26.0093 11.7305 26.6077 11.7305C27.2062 11.7305 27.7001 12.2212 27.7001 12.8158C27.7001 13.4103 27.2062 13.901 26.6077 13.901ZM26.6077 12.6648C26.5317 12.6648 26.4652 12.7308 26.4652 12.8063C26.4652 12.9667 26.7597 12.9667 26.7597 12.8063C26.7597 12.7308 26.6932 12.6648 26.6172 12.6648H26.6077Z" fill="#CCFDFF"/>
</g>
<defs>
<clipPath id="clip0_275_11850">
<rect width="37" height="27" fill="white"/>
</clipPath>
</defs>
</svg>
