<svg width="40" height="40" viewBox="0 0 40 40" fill="none" xmlns="http://www.w3.org/2000/svg">
<path d="M15.3522 5.73625C16.4722 5.73625 17.3842 6.63225 17.3842 7.72025V9.30425C17.3842 10.4002 16.4722 11.3042 15.3522 11.3042H9.68022V29.8962H15.3602C16.4802 29.8962 17.3762 30.7922 17.3762 31.8962V33.4802C17.3762 34.5762 16.4642 35.4802 15.3602 35.4802H6.11222C5.53622 35.4802 4.99222 35.2322 4.60022 34.7842C4.24022 34.4402 4.03222 33.9362 4.03222 33.4002V7.72025C4.03222 6.62425 4.94422 5.73625 6.04822 5.73625H15.3442H15.3522ZM15.3522 4.55225H6.04022C4.26422 4.55225 2.82422 5.96825 2.82422 7.72025V33.3842C2.82422 34.2082 3.15222 35.0082 3.71222 35.5682C4.33622 36.2562 5.17622 36.6322 6.10422 36.6322H15.3522C17.1282 36.6322 18.5762 35.2162 18.5762 33.4482V31.8642C18.5762 30.1122 17.1362 28.6802 15.3522 28.6802H10.8722V12.4882H15.3442C17.1202 12.4882 18.5762 11.0722 18.5762 9.30425V7.72025C18.5762 5.96825 17.1202 4.55225 15.3442 4.55225H15.3602H15.3522Z" fill="#1F007D"/>
<path d="M27.0635 9.9201C27.6395 9.9201 28.2075 10.2001 28.5435 10.7281L29.7355 12.6001C30.2555 13.4081 29.9995 14.4561 29.1915 14.9681L25.5355 17.8321H34.7596C35.4315 17.8321 35.9755 18.3681 35.9755 19.0241V22.2321C35.9755 22.8961 35.4315 23.4241 34.7596 23.4241H25.5355L29.1915 26.2881C30.0075 26.8001 30.2475 27.8481 29.7355 28.6561L28.5435 30.5281C28.2075 31.0481 27.6395 31.3361 27.0635 31.3361C26.7515 31.3361 26.4235 31.2561 26.1355 31.0721L15.4395 22.8401C14.6555 22.3041 14.1195 21.6241 14.1195 20.6721C14.1195 19.8801 14.5035 19.1841 15.0955 18.7361C15.1595 18.6881 26.1355 10.2241 26.1355 10.2241C26.4235 10.0481 26.7515 9.9601 27.0635 9.9601M27.0635 8.7361C26.5115 8.7361 25.9675 8.8881 25.5035 9.1841L25.4555 9.2161L25.4075 9.2481C18.1115 14.8801 14.3915 17.7361 14.3435 17.7761C13.4555 18.4641 12.9355 19.5041 12.9355 20.6241C12.9355 21.8561 13.5515 22.8961 14.7355 23.7361L25.4075 31.9441L25.4555 31.9761L25.5035 32.0081C25.9755 32.3041 26.5115 32.4561 27.0635 32.4561C28.0875 32.4561 29.0075 31.9441 29.5515 31.1041L30.7435 29.2321C31.5995 27.9041 31.2155 26.1441 29.8875 25.2801L28.9755 24.5601H34.7675C36.1035 24.5601 37.1835 23.4961 37.1835 22.1841V18.9761C37.1835 17.6641 36.1035 16.6001 34.7675 16.6001H28.9755L29.8875 15.8801C31.2075 15.0161 31.5915 13.2561 30.7435 11.9281L29.5515 10.0561C29.0075 9.2081 28.0715 8.7041 27.0635 8.7041V8.7361Z" fill="#1F007D"/>
<path d="M15.3524 28.7122H9.67241V10.1202H15.3444C16.4644 10.1202 17.3764 9.22425 17.3764 8.12025V6.53625C17.3764 5.44025 16.4644 4.55225 15.3444 4.55225H6.04041C4.92041 4.55225 4.02441 5.44825 4.02441 6.53625V32.2002C4.02441 32.7362 4.24041 33.2402 4.59241 33.5842C4.99241 34.0322 5.52841 34.2802 6.10441 34.2802H15.3524C16.4724 34.2802 17.3684 33.3842 17.3684 32.2802V30.6962C17.3684 29.6002 16.4564 28.6962 15.3524 28.6962V28.7122Z" fill="white"/>
<path d="M34.7677 16.6239H25.5437L29.1997 13.7599C30.0157 13.2479 30.2557 12.1999 29.7437 11.3919L28.5517 9.51992C28.0317 8.71192 26.9677 8.47992 26.1517 8.98392C26.1517 8.98392 15.1677 17.4479 15.1117 17.4959C14.5197 17.9439 14.1357 18.6399 14.1357 19.4319C14.1357 20.3679 14.6797 21.0559 15.4557 21.5999L26.1517 29.8319C26.9677 30.3439 28.0397 30.0959 28.5517 29.2959L29.7437 27.4239C30.2637 26.6159 30.0077 25.5679 29.1997 25.0559L25.5437 22.1919H34.7677C35.4397 22.1919 35.9837 21.6559 35.9837 20.9999V17.7919C35.9837 17.1279 35.4397 16.5999 34.7677 16.5999V16.6239Z" fill="white"/>
<path d="M15.3524 28.7122H9.67241V10.1202H15.3444C16.4644 10.1202 17.3764 9.22425 17.3764 8.12025V6.53625C17.3764 5.44025 16.4644 4.55225 15.3444 4.55225H6.04041C4.92041 4.55225 4.02441 5.44825 4.02441 6.53625V32.2002C4.02441 32.7362 4.24041 33.2402 4.59241 33.5842C4.99241 34.0322 5.52841 34.2802 6.10441 34.2802H15.3524C16.4724 34.2802 17.3684 33.3842 17.3684 32.2802V30.6962C17.3684 29.6002 16.4564 28.6962 15.3524 28.6962V28.7122Z" fill="white"/>
<path d="M34.7677 16.6239H25.5437L29.1997 13.7599C30.0157 13.2479 30.2557 12.1999 29.7437 11.3919L28.5517 9.51992C28.0317 8.71192 26.9677 8.47992 26.1517 8.98392C26.1517 8.98392 15.1677 17.4479 15.1117 17.4959C14.5197 17.9439 14.1357 18.6399 14.1357 19.4319C14.1357 20.3679 14.6797 21.0559 15.4557 21.5999L26.1517 29.8319C26.9677 30.3439 28.0397 30.0959 28.5517 29.2959L29.7437 27.4239C30.2637 26.6159 30.0077 25.5679 29.1997 25.0559L25.5437 22.1919H34.7677C35.4397 22.1919 35.9837 21.6559 35.9837 20.9999V17.7919C35.9837 17.1279 35.4397 16.5999 34.7677 16.5999V16.6239Z" fill="white"/>
<path d="M15.3522 4.55216C16.4722 4.55216 17.3842 5.44816 17.3842 6.53616V8.12016C17.3842 9.21616 16.4722 10.1202 15.3522 10.1202H9.68022V28.7122H15.3602C16.4802 28.7122 17.3762 29.6082 17.3762 30.7122V32.2962C17.3762 33.3922 16.4642 34.2962 15.3602 34.2962H6.11222C5.53622 34.2962 4.99222 34.0482 4.60022 33.6002C4.24022 33.2562 4.03222 32.7522 4.03222 32.2162V6.53616C4.03222 5.44016 4.94422 4.55216 6.04822 4.55216H15.3442H15.3522ZM15.3522 3.36816H6.04022C4.26422 3.36816 2.82422 4.78416 2.82422 6.53616V32.2002C2.82422 33.0242 3.15222 33.8242 3.71222 34.3842C4.33622 35.0722 5.17622 35.4482 6.10422 35.4482H15.3522C17.1282 35.4482 18.5762 34.0322 18.5762 32.2642V30.6802C18.5762 28.9282 17.1362 27.4962 15.3522 27.4962H10.8722V11.3042H15.3442C17.1202 11.3042 18.5762 9.88816 18.5762 8.12016V6.53616C18.5762 4.78416 17.1202 3.36816 15.3442 3.36816H15.3602H15.3522Z" fill="#1F007D"/>
<path d="M27.0635 8.73651C27.6395 8.73651 28.2075 9.01651 28.5435 9.54451L29.7355 11.4165C30.2555 12.2245 29.9995 13.2725 29.1915 13.7845L25.5355 16.6485H34.7596C35.4315 16.6485 35.9755 17.1845 35.9755 17.8405V21.0485C35.9755 21.7125 35.4315 22.2405 34.7596 22.2405H25.5355L29.1915 25.1045C30.0075 25.6165 30.2475 26.6645 29.7355 27.4725L28.5435 29.3445C28.2075 29.8645 27.6395 30.1525 27.0635 30.1525C26.7515 30.1525 26.4235 30.0725 26.1355 29.8885L15.4395 21.6565C14.6555 21.1205 14.1195 20.4405 14.1195 19.4885C14.1195 18.6965 14.5035 18.0005 15.0955 17.5525C15.1595 17.5045 26.1355 9.04051 26.1355 9.04051C26.4235 8.86451 26.7515 8.77651 27.0635 8.77651M27.0635 7.55251C26.5115 7.55251 25.9675 7.70451 25.5035 8.00051L25.4555 8.03251L25.4075 8.06451C18.1115 13.6965 14.3915 16.5525 14.3435 16.5925C13.4555 17.2805 12.9355 18.3205 12.9355 19.4405C12.9355 20.6725 13.5515 21.7125 14.7355 22.5525L25.4075 30.7605L25.4555 30.7925L25.5035 30.8245C25.9755 31.1205 26.5115 31.2725 27.0635 31.2725C28.0875 31.2725 29.0075 30.7605 29.5515 29.9205L30.7435 28.0485C31.5995 26.7205 31.2155 24.9605 29.8875 24.0965L28.9755 23.3765H34.7675C36.1035 23.3765 37.1835 22.3125 37.1835 21.0005V17.7925C37.1835 16.4805 36.1035 15.4165 34.7675 15.4165H28.9755L29.8875 14.6965C31.2075 13.8325 31.5915 12.0725 30.7435 10.7445L29.5515 8.87251C29.0075 8.02451 28.0715 7.52051 27.0635 7.52051V7.55251Z" fill="#1F007D"/>
</svg>
