<svg width="40" height="40" viewBox="0 0 40 40" fill="none" xmlns="http://www.w3.org/2000/svg">
<path d="M33.9359 1.56787H20.7919C18.6239 1.56787 16.8639 3.32787 16.8639 5.49587V10.2239H5.75193C3.75193 10.2239 2.12793 11.8479 2.12793 13.8479V29.7839C2.12793 31.7839 3.75193 33.4079 5.75193 33.4079H6.37593V36.2239C6.37593 38.3599 9.23193 39.2799 10.9119 37.4879C11.2079 37.1759 15.7599 33.4239 15.7839 33.3999H19.3279C21.3279 33.3999 22.9519 31.7759 22.9519 29.7759V25.3679H24.5999L24.7839 25.5599C25.3919 26.1759 26.1919 27.0319 26.9359 27.8319L27.0479 27.9519C28.1519 29.1279 29.0639 30.1039 29.4879 30.4959C29.9279 30.9119 30.5439 31.1519 31.1599 31.1519C32.5119 31.1519 33.6079 30.0559 33.6079 28.7039V25.3759H33.9279C36.0959 25.3759 37.8559 23.6079 37.8559 21.4479V5.49587C37.8559 3.32787 36.0959 1.56787 33.9279 1.56787H33.9359Z" fill="#1F007D"/>
<path d="M11.7521 17.2643C11.7521 17.2643 11.6881 17.2003 11.6401 17.2003C11.5921 17.1843 11.5441 17.2003 11.5041 17.2243C11.4641 17.2483 11.4401 17.3363 11.4401 17.3363L10.3441 22.4963C10.3201 22.5843 10.3441 22.6883 10.4081 22.7363C10.4561 22.8003 10.5441 22.8323 10.6161 22.8323H12.6401C12.7281 22.8323 12.8321 22.7443 12.8321 22.7443L12.8481 22.7603C12.9201 22.6963 12.9441 22.5923 12.9201 22.5203L11.7761 17.3523C11.7761 17.3523 11.7601 17.2883 11.7361 17.2643H11.7521Z" fill="white"/>
<path d="M33.9365 2.76025H20.7925C19.2885 2.76025 18.0645 3.98425 18.0645 5.48825V19.4563C18.0645 20.9603 19.2885 22.1843 20.7925 22.1843H25.1045C26.3765 23.4243 29.4965 26.8723 30.3205 27.6323C30.5365 27.8403 30.8565 27.9603 31.1685 27.9603C31.8565 27.9603 32.4165 27.4003 32.4165 26.7123V22.1843H33.9365C35.4405 22.1843 36.6645 20.9603 36.6645 19.4563V5.49625C36.6645 3.99225 35.4405 2.76825 33.9365 2.76825V2.76025ZM32.7365 9.16825H32.4725C32.0325 9.17625 31.8165 9.23225 31.8165 9.32825C31.8165 9.35225 31.6965 12.2323 28.9125 15.2883L28.8885 15.4723C29.4725 16.2643 30.8805 17.4883 32.5525 18.6803C32.6005 18.7203 32.5765 18.8243 32.5765 18.8243L32.5285 18.8883C32.2405 19.3043 31.6885 20.0803 31.4565 20.4163L31.3365 20.4563C29.4645 19.6083 27.4005 17.2243 27.3765 17.2003C27.3525 17.1763 27.2645 17.1523 27.2645 17.1523C27.2245 17.1523 27.1765 17.1763 27.1525 17.2003C27.0325 17.3203 25.9765 18.3923 24.1445 19.6883C24.0805 19.7363 23.9605 19.6723 23.9605 19.6723L23.9765 19.6963C23.7125 19.3843 22.8565 18.3043 22.5845 17.9603C22.5365 17.8963 22.5445 17.8163 22.6085 17.7683C23.8805 16.8723 24.9525 16.0723 25.8405 15.3203C25.9045 15.2723 25.9125 15.1843 25.8805 15.1283C25.7925 14.9683 25.6485 14.7523 25.4805 14.4723C24.9685 13.6803 24.2165 12.4963 23.8805 11.3443L23.9685 11.1763L25.8245 10.4963C25.8245 10.4963 25.8965 10.4803 25.9365 10.4963C25.9765 10.5123 26.0005 10.5443 26.0085 10.5843C26.2725 11.4323 26.7125 12.3523 27.3525 13.4083C27.3765 13.4483 27.4165 13.4803 27.4645 13.4803C27.5045 13.4963 27.5525 13.4803 27.5845 13.4403C28.7605 12.2963 29.5125 10.7203 29.5365 9.32825C29.5365 9.28825 29.5125 9.24025 29.4885 9.21625C29.4645 9.17625 29.4165 9.16825 29.3765 9.16825L22.3365 9.15225V7.06425H25.9765C25.9765 7.06425 26.0485 7.04825 26.0885 7.01625C26.1285 6.98425 26.1365 6.90425 26.1365 6.90425V5.94425L26.1605 5.88025C26.1765 5.85625 26.2245 5.85625 26.2245 5.85625L28.2965 6.01625L28.3685 6.08825L28.4405 6.91225C28.4405 6.98425 28.5125 7.04825 28.5845 7.04825H32.7445L32.7285 9.16825H32.7365Z" fill="white"/>
<path d="M20.7921 24.016C17.6161 24.016 16.2401 21.624 16.2401 19.296V11.416H5.75212C4.41612 11.416 3.32812 12.512 3.32812 13.84V27.808C3.32812 29.152 4.42412 30.232 5.75212 30.232H7.55212V34.512C7.55212 35.2 8.11212 35.76 8.80012 35.76C9.11212 35.76 9.43213 35.64 9.64813 35.432C10.4241 34.712 13.5521 31.608 14.9361 30.216H19.3281C20.6641 30.216 21.7521 29.12 21.7521 27.792V24.008H20.7841L20.7921 24.016ZM17.1281 27.008C17.0161 27.168 16.8401 27.248 16.6561 27.248H14.8881C14.6241 27.248 14.3921 27.16 14.1841 27.008C13.9761 26.864 13.8481 26.64 13.7921 26.392L13.5841 25.504C13.5601 25.344 13.4241 25.224 13.2801 25.224H10.0401C9.84812 25.224 9.71213 25.336 9.70413 25.48L9.44813 26.392C9.40013 26.632 9.26413 26.856 9.05613 27.008C8.86413 27.168 8.61613 27.248 8.36813 27.248H6.65613C6.47213 27.248 6.30413 27.16 6.19213 27.008C6.08013 26.864 6.04813 26.672 6.10413 26.488L9.62413 15.312C9.69613 15.072 9.85612 14.84 10.0641 14.696C10.2721 14.536 10.5281 14.456 10.7921 14.456H12.5361C12.7921 14.456 13.0481 14.544 13.2561 14.696C13.4641 14.84 13.6241 15.064 13.7041 15.304L17.2241 26.48C17.2721 26.664 17.2481 26.856 17.1281 27.016V27.008Z" fill="white"/>
</svg>
