<svg width="23" height="26" viewBox="0 0 23 26" fill="none" xmlns="http://www.w3.org/2000/svg">
<path d="M11.9912 0.75C13.1123 0.75 14.0146 1.66583 14.0146 2.78223C14.0145 3.89848 13.1122 4.81348 11.9912 4.81348H4.79688V20.5391H11.9912C13.1123 20.5391 14.0146 21.4549 14.0146 22.5713C14.0145 23.6876 13.1122 24.6025 11.9912 24.6025H2.77344C1.65242 24.6025 0.750142 23.6876 0.75 22.5713V2.78223C0.75 1.66583 1.65233 0.75 2.77344 0.75H11.9912Z" fill="white" stroke="#830789" stroke-width="1.5"/>
<path d="M14.9644 5.81348C15.4242 5.50996 15.9785 5.39671 16.519 5.48535C17.0641 5.57484 17.5536 5.86598 17.8823 6.30957L21.854 11.667V11.668C22.3723 12.369 22.3797 13.2913 21.8872 13.9932L21.7827 14.1299L17.6167 19.1348L17.6157 19.1357C17.2055 19.6271 16.5983 19.8975 15.9644 19.8975C15.497 19.8974 15.0495 19.7506 14.6753 19.4736C13.7419 18.7832 13.5703 17.4778 14.314 16.5811L14.3149 16.5801L15.8325 14.7568H8.74854C7.62235 14.7568 6.63235 13.8832 6.63232 12.7178C6.63232 11.5524 7.62233 10.6777 8.74854 10.6777H15.9185L14.439 8.68262V8.68164C14.1083 8.23516 13.977 7.68193 14.0776 7.13574L14.0786 7.13184C14.182 6.58808 14.5018 6.11887 14.9644 5.81348Z" fill="white" stroke="#830789" stroke-width="1.5"/>
</svg>
