<svg width="29" height="27" viewBox="0 0 29 27" fill="none" xmlns="http://www.w3.org/2000/svg">
<path d="M15.6602 19.3892C15.6602 18.5802 15 17.923 14.1876 17.923H6.92622V8.93874H14.1876C14.9493 8.93874 15.5738 8.35732 15.6449 7.61411C15.6754 7.49782 15.6957 7.37648 15.6957 7.24503V3.26608C15.6957 3.15485 15.6805 3.04868 15.6602 2.94756V1.4662C15.6602 0.65726 15 0 14.1876 0H1.47258C0.660124 0.00505585 0 0.662316 0 1.47125V25.3854C0 26.1944 0.660124 26.8516 1.47258 26.8516H14.1876C14.9493 26.8516 15.5738 26.2702 15.6449 25.527C15.6754 25.4107 15.6957 25.2894 15.6957 25.1579V21.179C15.6957 21.0677 15.6805 20.9615 15.6602 20.8604V19.3791V19.3892Z" fill="#830789"/>
<path d="M29 14.0755C29 13.9542 28.9746 13.8379 28.939 13.7267V12.5284C28.9594 12.4475 28.9644 12.3616 28.9644 12.2756C28.9644 11.942 28.8121 11.6184 28.5633 11.401L28.5328 11.3757L28.5023 11.3504L19.5247 4.47953C19.3114 4.31269 19.0524 4.22168 18.7833 4.22168C18.1232 4.22168 17.59 4.7576 17.59 5.4098V9.11069H11.3848C10.7247 9.11069 10.1915 9.64661 10.1915 10.2988V16.4973C10.1915 17.1545 10.7298 17.6854 11.3848 17.6854H17.5849V19.1971C17.5849 20.1982 17.5849 21.1891 17.5849 21.5835C17.5849 22.2407 18.1232 22.7716 18.7782 22.7716C19.0626 22.7716 19.3317 22.6705 19.545 22.4935L28.5227 15.2333L28.5531 15.208L28.5785 15.1828C28.8019 14.9805 28.9289 14.6974 28.9492 14.3991C28.9797 14.2929 29 14.1868 28.9949 14.0755H29Z" fill="#830789"/>
<path d="M18.8085 7.14404V11.8814C18.8085 11.9218 18.7729 11.9572 18.7323 11.9572H11.4913C11.4506 11.9572 11.4151 11.9926 11.4151 12.033V16.2092C11.4151 16.2496 11.4506 16.285 11.4913 16.285H18.7323C18.7729 16.285 18.8085 16.3204 18.8085 16.3609C18.8085 16.9271 18.8085 20.4611 18.8085 21.2903C18.8085 21.356 18.8897 21.3914 18.9405 21.3459L27.9284 14.0756C27.9639 14.0453 27.9588 13.9897 27.9284 13.9593L18.9405 7.08337C18.8897 7.03787 18.8136 7.07326 18.8136 7.13898L18.8085 7.14404Z" fill="white"/>
<path d="M14.6545 7.17954V3.20059C14.6545 3.00341 14.4971 2.84668 14.299 2.84668H1.57896C1.38092 2.84668 1.22351 3.00341 1.22351 3.20059V25.0924C1.22351 25.2896 1.38092 25.4463 1.57896 25.4463H14.294C14.492 25.4463 14.6494 25.2896 14.6494 25.0924V21.1135C14.6494 20.9163 14.492 20.7596 14.294 20.7596H6.23537C6.03734 20.7596 5.87992 20.6028 5.87992 20.4056V7.89242C5.87992 7.69524 6.03734 7.53851 6.23537 7.53851H14.294C14.492 7.53851 14.6494 7.38178 14.6494 7.1846L14.6545 7.17954Z" fill="white"/>
</svg>
