<svg width="33" height="33" viewBox="0 0 33 33" fill="none" xmlns="http://www.w3.org/2000/svg">
<path d="M0 23.8997C0.0920024 23.4397 0.161004 22.9797 0.287507 22.5312C0.621016 21.1971 1.31103 19.9666 2.28856 18.9776C4.79562 16.459 6.11816 15.0675 8.68272 12.6064C12.0063 9.52435 17.1929 9.70835 20.2865 13.0319C20.6315 13.4114 20.9535 13.814 21.2181 14.251C21.2641 14.32 21.2986 14.389 21.2986 14.389C20.85 14.9295 20.3785 15.4355 19.8725 15.907C19.0675 16.551 17.8945 16.4705 17.1814 15.723C16.3879 14.941 15.3069 14.5155 14.1914 14.55C13.1333 14.55 12.1213 14.964 11.3738 15.7115C8.95873 18.1151 7.6937 19.3686 5.29014 21.7952C3.7146 23.4397 3.7721 26.0388 5.40514 27.6143C6.99218 29.1439 9.51075 29.1439 11.0978 27.6143C12.6503 26.1078 13.0183 25.7168 14.5364 24.1757C14.7089 23.9342 15.0309 23.8652 15.2954 23.9917C16.7559 24.5092 18.32 24.6587 19.861 24.4517C19.9185 24.4517 19.976 24.4517 20.1025 24.4402C19.976 24.5667 19.8955 24.6587 19.815 24.7392C17.561 26.9933 16.4684 28.0858 14.2144 30.3399C12.8688 31.7429 11.0863 32.6284 9.15424 32.847C9.09674 32.8584 9.05073 32.8815 8.99323 32.9045H7.48669C7.40619 32.8815 7.33719 32.8584 7.25669 32.847C4.07111 32.4904 1.39154 30.3054 0.425511 27.2463C0.241506 26.6483 0.103503 26.0388 0 25.4178V23.9112" fill="#DDE0FF"/>
<path d="M11.5232 18.4602C12.0063 17.9772 12.4203 17.5286 12.8688 17.1261C13.6623 16.3786 14.9158 16.3901 15.6979 17.1606C16.3534 17.7931 17.1929 18.2072 18.0899 18.3222C19.3664 18.5177 20.666 18.0807 21.563 17.1491C22.7015 16.0336 23.8171 14.9066 24.9441 13.7795C26.1976 12.526 26.3126 12.434 27.5547 11.1575C29.1532 9.54744 29.1417 6.94837 27.5317 5.34983C27.0601 4.87832 26.4851 4.53331 25.8411 4.3378C24.4036 3.84329 22.805 4.2343 21.747 5.32683C20.1715 6.85637 19.7805 7.28188 18.2279 8.83442C18.1129 8.94942 18.0209 9.06442 17.7909 8.98392C16.1924 8.39741 14.4788 8.2249 12.7998 8.47791C12.8803 8.37441 12.9263 8.3054 12.9838 8.2479C15.2953 5.93634 16.4454 4.74031 18.7914 2.46325C20.896 0.232196 24.1046 -0.561325 27.0141 0.4047C29.9352 1.19822 32.1433 3.61328 32.6723 6.59186C33.3163 9.19093 32.5573 11.9395 30.6712 13.837C28.1872 16.4361 26.7956 17.8276 24.1966 20.3117C20.873 23.3823 15.6979 23.1868 12.6043 19.8977C12.2018 19.4607 11.8798 18.9662 11.5002 18.4717" fill="#DDE0FF"/>
</svg>
