<svg width="23" height="28" viewBox="0 0 23 28" fill="none" xmlns="http://www.w3.org/2000/svg">
<path d="M22.48 14C22.48 13.84 22.48 13.71 22.48 13.66C22.6 12.53 22.07 11.45 21.11 10.83L4.61 0.47C4.13 0.16 3.57 0 3 0C1.35 0 0 1.34 0 2.99V24.51C0 26.16 1.35 27.5 3 27.5C3.48 27.5 3.95 27.38 4.39 27.16L20.91 17.99C21.97 17.44 22.59 16.3 22.47 15.11C22.47 14.88 22.47 14.58 22.47 14.31L22.22 14.27H22.47V14.01L22.48 14Z" fill="#830789"/>
<path d="M1.25 4.99011V24.5101C1.25 25.8101 2.64 26.6501 3.81 26.0501L20.31 16.8901C21.5 16.2701 21.57 14.6101 20.44 13.8901L3.94 3.53011C2.78 2.79011 1.25 3.62011 1.25 4.99011Z" fill="white"/>
</svg>
