<svg width="40" height="40" viewBox="0 0 40 40" fill="none" xmlns="http://www.w3.org/2000/svg">
<path d="M37.0238 19.528C37.0238 13.504 33.9758 8.03197 28.8798 4.88797C28.2638 4.51197 27.5598 4.30397 26.8318 4.30397C25.6398 4.30397 24.5278 4.83997 23.8078 5.74397C23.7198 3.75997 22.0798 2.16797 20.0718 2.16797C18.0638 2.16797 16.5438 3.62397 16.3518 5.51997C15.6238 4.67197 14.5598 4.18397 13.4078 4.18397C12.7038 4.18397 12.0158 4.36797 11.4158 4.72797C6.22377 7.79197 2.99977 13.464 2.99977 19.52V19.664C2.98377 20.04 2.96777 20.368 2.96777 20.672C2.96777 29.528 9.83177 37.048 18.5678 37.776C18.5918 37.776 19.2478 37.816 19.2878 37.824C19.4478 37.824 19.9598 37.824 19.9598 37.824C24.5038 37.824 28.7838 36.04 31.9998 32.792C35.2158 29.552 36.9918 25.248 36.9918 20.664V20.536C37.0078 20.16 37.0238 19.824 37.0238 19.512V19.528ZM20.0318 23.184C22.0958 23.184 23.7758 21.504 23.7758 19.44V18.592L23.7838 18.504C23.7918 18.432 23.7998 18.36 23.7998 18.288V11.568C24.0638 11.896 24.3758 12.168 24.7358 12.392C27.4798 14.08 29.1838 17.064 29.2958 20.344C28.9038 25.296 24.8238 29.168 20.0158 29.168C15.2078 29.168 10.8478 24.96 10.7038 19.8C10.9758 16.672 12.7198 13.864 15.3598 12.304C15.7118 12.096 16.0238 11.84 16.2878 11.536V19.448C16.2878 21.512 17.9678 23.192 20.0318 23.192V23.184ZM13.3678 6.75997C14.2158 6.75997 14.9838 7.17597 15.4318 7.86397C15.5678 8.07197 15.6638 8.30397 15.7278 8.56797C15.5598 9.13597 15.1838 9.61597 14.6718 9.91997C11.3438 11.896 9.27177 15.576 9.27177 19.52C9.27177 19.568 9.27177 19.616 9.27177 19.656C9.27177 19.696 9.27177 19.728 9.27177 19.752C9.24777 20.096 9.23177 20.392 9.23177 20.672C9.23177 26.776 14.0558 31.736 19.9758 31.736C25.8958 31.736 30.7198 26.768 30.7198 20.672C30.7198 20.6 30.7198 20.528 30.7198 20.456V20.336V20.304C30.7358 20.048 30.7598 19.776 30.7598 19.512C30.7598 15.584 28.7998 12.032 25.5198 10.008C24.9918 9.67997 24.6158 9.17597 24.4718 8.58397C24.5438 8.33597 24.6398 8.12797 24.7598 7.94397C25.2078 7.27997 25.9678 6.87997 26.7918 6.87997C27.2558 6.87997 27.7038 7.00797 28.0958 7.24797C32.7198 10.096 35.5118 15.056 35.5598 20.512C35.0478 28.776 28.2158 35.248 20.0078 35.248H19.7598L19.6638 35.24C15.6078 35.152 11.7918 33.488 8.92777 30.568C6.06377 27.64 4.46377 23.768 4.42377 19.672C4.75977 14.448 7.62377 9.75197 12.0958 7.10397C12.4798 6.87997 12.9118 6.75997 13.3598 6.75997H13.3678ZM22.3518 18.576C22.2078 19.736 21.2238 20.608 20.0638 20.608C18.7838 20.608 17.7438 19.568 17.7438 18.288V6.78397C17.8878 5.62397 18.8718 4.74397 20.0318 4.74397C21.3118 4.74397 22.3518 5.78397 22.3518 7.06397V18.576Z" fill="#1F007D"/>
<path d="M28.1839 6.01602C27.7759 5.76802 27.3119 5.63202 26.8319 5.63202C25.9679 5.63202 25.1839 6.04802 24.7199 6.74402C24.3599 7.28002 24.2319 7.92002 24.3679 8.55202C24.5039 9.20002 24.9039 9.75202 25.4799 10.104C28.7359 12.104 30.6719 15.632 30.6719 19.528C30.6719 25.576 25.8959 30.496 20.0239 30.496C14.1519 30.496 9.37594 25.576 9.37594 19.528C9.37594 15.608 11.4239 11.96 14.7279 10.008C15.3119 9.66402 15.7119 9.12002 15.8639 8.48002C16.0079 7.85602 15.8959 7.20802 15.5439 6.66402C15.0799 5.94402 14.2799 5.52002 13.3999 5.52002C12.9359 5.52002 12.4799 5.64002 12.0879 5.88002C7.30394 8.71202 4.33594 13.944 4.33594 19.536C4.33594 28.144 11.1839 35.168 19.6719 35.352L20.0159 35.36C28.6639 35.36 35.7039 28.264 35.7039 19.536C35.7039 13.976 32.8959 8.92802 28.1839 6.02402V6.01602Z" fill="white"/>
<path d="M20.0635 20.7033C21.3915 20.7033 22.4795 19.6233 22.4795 18.2873V5.9033C22.4795 4.5753 21.3995 3.4873 20.0635 3.4873C18.7275 3.4873 17.6475 4.5673 17.6475 5.9033V18.2873C17.6475 19.6153 18.7275 20.7033 20.0635 20.7033Z" fill="white"/>
</svg>
