<svg width="22" height="26" viewBox="0 0 22 26" fill="none" xmlns="http://www.w3.org/2000/svg">
<path d="M2.08859 1.03027H7.40828C7.98895 1.03027 8.4666 1.50792 8.4666 2.08859V22.9553C8.4666 23.5359 7.98895 24.0136 7.40828 24.0136H2.08859C1.50792 24.0136 1.03027 23.5359 1.03027 22.9553V2.08859C1.03027 1.50792 1.50792 1.03027 2.08859 1.03027Z" fill="#830789"/>
<path d="M7.40823 2.06044L7.43633 2.08854L7.40823 22.9833L2.06044 22.9552L2.08854 2.06044H7.40823ZM7.40823 0H2.08854C0.936565 0 0 0.936565 0 2.08854V22.9552C0 24.1072 0.936565 25.0437 2.08854 25.0437H7.40823C8.5602 25.0437 9.49677 24.1072 9.49677 22.9552V2.08854C9.49677 0.936565 8.5602 0 7.40823 0Z" fill="#830789"/>
<path d="M14.5822 1.03027H19.9019C20.4826 1.03027 20.9603 1.50792 20.9603 2.08859V22.9553C20.9603 23.5359 20.4826 24.0136 19.9019 24.0136H14.5822C14.0016 24.0136 13.5239 23.5359 13.5239 22.9553V2.08859C13.5239 1.50792 14.0016 1.03027 14.5822 1.03027Z" fill="#830789"/>
<path d="M19.9114 2.06044L19.9395 2.08854L19.9114 22.9833L14.5636 22.9552L14.5917 2.06044H19.9114ZM19.9114 0H14.5917C13.4397 0 12.5032 0.936565 12.5032 2.08854V22.9552C12.5032 24.1072 13.4397 25.0437 14.5917 25.0437H19.9114C21.0634 25.0437 21.9999 24.1072 21.9999 22.9552V2.08854C21.9999 0.936565 21.0634 0 19.9114 0Z" fill="#830789"/>
<path d="M2.9409 3.41846H6.5654C7.03369 3.41846 7.41768 3.80245 7.41768 4.27073V22.1123C7.41768 22.5806 7.03369 22.9646 6.5654 22.9646H2.9409C2.47261 22.9646 2.08862 22.5806 2.08862 22.1123V4.27073C2.08862 3.80245 2.47261 3.41846 2.9409 3.41846Z" fill="white"/>
<path d="M6.56523 4.18636C6.56523 4.18636 6.64952 4.22382 6.64952 4.27065V22.1122C6.64952 22.1122 6.61206 22.1965 6.56523 22.1965H2.94073C2.94073 22.1965 2.85643 22.159 2.85643 22.1122V4.27065C2.85643 4.27065 2.8939 4.18636 2.94073 4.18636H6.56523ZM6.56523 2.65039H2.94073C2.05099 2.65039 1.32983 3.37155 1.32983 4.26128V22.1028C1.32983 22.9926 2.05099 23.7137 2.94073 23.7137H6.56523C7.45497 23.7137 8.17612 22.9926 8.17612 22.1028V4.27065C8.17612 3.38091 7.45497 2.65976 6.56523 2.65976V2.65039Z" fill="white"/>
<path d="M15.4345 3.41846H19.0591C19.5273 3.41846 19.9113 3.80245 19.9113 4.27073V22.1123C19.9113 22.5806 19.5273 22.9646 19.0591 22.9646H15.4345C14.9663 22.9646 14.5823 22.5806 14.5823 22.1123V4.27073C14.5823 3.80245 14.9663 3.41846 15.4345 3.41846Z" fill="white"/>
<path d="M19.0591 4.18636C19.0591 4.18636 19.1434 4.22382 19.1434 4.27065V22.1122C19.1434 22.1122 19.106 22.1965 19.0591 22.1965H15.4346C15.4346 22.1965 15.3503 22.159 15.3503 22.1122V4.27065C15.3503 4.27065 15.3878 4.18636 15.4346 4.18636H19.0591ZM19.0591 2.65039H15.4346C14.5449 2.65039 13.8237 3.37155 13.8237 4.26128V22.1028C13.8237 22.9926 14.5449 23.7137 15.4346 23.7137H19.0591C19.9489 23.7137 20.67 22.9926 20.67 22.1028V4.27065C20.67 3.38091 19.9489 2.65976 19.0591 2.65976V2.65039Z" fill="white"/>
</svg>
