<svg width="32" height="32" viewBox="0 0 32 32" fill="none" xmlns="http://www.w3.org/2000/svg">
<path d="M22.3223 6.70499L22.1814 8.50502L17.4852 13.1941C17.0317 12.9515 16.5189 12.8217 16.0062 12.8217C14.2765 12.8217 12.8707 14.2324 12.8707 15.9676C12.8707 17.7027 14.2793 19.1134 16.0062 19.1134C17.7359 19.1134 19.1417 17.7027 19.1417 15.9676C19.1417 15.44 19.0093 14.918 18.7586 14.4609L23.4942 9.72668L25.2915 9.58279L25.3901 9.48968C26.1423 8.76741 26.8804 8 27.596 7.25798L27.9453 6.89684C28.751 6.06172 29.4356 5.37048 30.1568 4.70182L30.8751 4.03597H27.8608V1.2146L22.3279 6.70499H22.3223Z" fill="#2A1C7C"/>
<path d="M16.0033 20.2419C13.6538 20.2419 11.741 18.3262 11.741 15.9675C11.741 13.6117 13.6538 11.6931 16.0033 11.6931C16.4146 11.6931 16.8231 11.7524 17.2147 11.8709L21.0911 8.00278L21.1981 6.61748C21.2179 6.34663 21.3362 6.09553 21.5277 5.90368L27.0634 0.413288C27.3874 0.0916517 27.8691 -0.00145357 28.2889 0.173471C28.7087 0.348397 28.9819 0.760317 28.9819 1.21456V2.90738H30.8694C31.3342 2.90738 31.7484 3.19234 31.9174 3.62401C32.0864 4.05568 31.9737 4.54942 31.6329 4.86259L30.9145 5.52844C30.213 6.17735 29.5397 6.8573 28.7481 7.68114L28.3988 8.04228C27.6719 8.79558 26.9282 9.56864 26.1648 10.3022L26.0662 10.3981C25.8774 10.5787 25.6351 10.6887 25.376 10.7085L23.9927 10.8185L20.0825 14.7289C20.2037 15.1296 20.2657 15.5471 20.2657 15.9675C20.2657 18.3234 18.3528 20.2419 16.0033 20.2419ZM16.0033 13.9502C14.8962 13.9502 13.9947 14.8559 13.9947 15.9675C13.9947 17.0791 14.8962 17.9848 16.0033 17.9848C17.1105 17.9848 18.0119 17.0791 18.0119 15.9675C18.0119 15.6289 17.9274 15.2932 17.7668 14.9998C17.6485 14.7825 17.6091 14.5427 17.6373 14.3114C17.4034 14.3424 17.1612 14.3029 16.9471 14.1872C16.6569 14.0321 16.3301 13.9502 16.0005 13.9502H16.0033ZM23.4124 7.21279L23.3054 8.59527C23.3054 8.59527 23.3054 8.60655 23.3054 8.61502C23.3392 8.60937 23.373 8.60373 23.4068 8.60373L24.8013 8.4937C25.4689 7.84196 26.1338 7.15355 26.7761 6.4877L27.1339 6.1181C27.4578 5.78236 27.7649 5.46919 28.0607 5.17012H27.8607C27.2381 5.17012 26.7338 4.6651 26.7338 4.04157V3.92872L23.4181 7.21844L23.4124 7.21279Z" fill="#2A1C7C"/>
<path d="M29.0102 8.87164L28.7707 8.39483L27.0156 10.1808L27.1396 10.4262C28.8158 13.7667 28.8862 17.6659 27.3368 21.1277C25.7958 24.5641 22.8547 27.0864 19.2685 28.0457C15.0568 29.1714 10.6508 28.0824 7.48716 25.134C4.31505 22.1772 2.91492 17.8464 3.74035 13.5467C4.95172 7.22678 10.9607 2.84237 17.4204 3.56182C18.5642 3.68878 19.784 4.04427 21.2546 4.67908L21.4912 4.78065L23.2914 3.00318L22.8181 2.76055C19.0234 0.825084 14.5695 0.596553 10.5973 2.1342C6.62229 3.67185 3.60231 6.72175 2.0895 10.7168C0.51753 14.8755 0.886577 19.4913 3.10367 23.382C5.3095 27.2501 9.05913 29.8965 13.3919 30.6442C14.2568 30.7937 15.1188 30.8671 15.9752 30.8671C20.17 30.8671 24.1703 29.1065 27.0241 25.9184C30.4638 22.0757 31.6611 16.8025 30.23 11.8115C29.9258 10.7507 29.4637 9.76883 29.0102 8.87164Z" fill="#2A1C7C"/>
<path d="M15.9753 31.9986C15.0513 31.9986 14.1188 31.9168 13.2004 31.7588C8.5352 30.9519 4.49822 28.1052 2.12618 23.9436C-0.259941 19.7624 -0.657159 14.7967 1.03313 10.3192C2.66144 6.01945 5.91243 2.7382 10.1889 1.08487C14.4568 -0.56845 19.246 -0.32299 23.3281 1.75918L23.8013 2.00182C24.1253 2.16546 24.3479 2.47581 24.4042 2.83412C24.4605 3.19244 24.3394 3.5564 24.083 3.81032L22.2829 5.58778C21.9561 5.90942 21.4659 6.00253 21.0462 5.81914L20.8095 5.71757C19.4432 5.1279 18.3276 4.80062 17.2965 4.68495C11.4171 4.03603 5.94906 8.01698 4.84755 13.7585C4.09537 17.6717 5.36872 21.616 8.2563 24.3076C11.1354 26.9935 15.1414 27.9838 18.9784 26.9569C22.2378 26.0851 24.9085 23.7941 26.3114 20.668C27.7228 17.5194 27.6608 13.9701 26.1367 10.9371L26.0128 10.6916C25.7959 10.26 25.8776 9.73802 26.2156 9.39381L27.9707 7.60789C28.2243 7.34832 28.5877 7.227 28.9483 7.28343C29.306 7.33986 29.6159 7.56557 29.7793 7.89002L30.0188 8.36683C30.4949 9.31482 30.9822 10.3531 31.3147 11.5042C32.8557 16.8704 31.5654 22.5414 27.8665 26.6747C24.838 30.0575 20.5053 31.9986 15.9781 31.9986H15.9753ZM16.0035 2.25574C14.3104 2.25574 12.6144 2.56609 11.003 3.18962C7.32946 4.61159 4.54048 7.42732 3.14318 11.1205C1.68953 14.9632 2.03322 19.2291 4.08129 22.8235C6.11809 26.3982 9.58318 28.8444 13.5807 29.5356C14.3723 29.671 15.178 29.7415 15.9725 29.7415C19.8601 29.7415 23.5816 28.0741 26.1846 25.1681C29.3652 21.616 30.4695 16.7407 29.1455 12.1277C28.9652 11.5042 28.7229 10.9004 28.4581 10.322L28.3764 10.4067C29.9765 13.939 29.9793 17.9877 28.3623 21.5934C26.6833 25.3402 23.4717 28.091 19.5559 29.1378C14.9668 30.3651 10.1663 29.1773 6.71814 25.9609C3.2615 22.7389 1.7346 18.0187 2.63327 13.3353C3.95733 6.43984 10.5016 1.65479 17.5444 2.43913C18.6769 2.56609 19.8601 2.88773 21.2377 3.44636L21.3589 3.32786C19.6517 2.61406 17.829 2.25574 16.0063 2.25574H16.0035Z" fill="#2A1C7C"/>
<path d="M17.4993 9.70402C17.719 9.75198 17.9556 9.84226 18.1444 9.91562L18.3726 10.0031L20.2037 8.2228L19.7051 7.9858C16.7696 6.59204 13.4369 6.91368 10.7832 8.8435C8.12379 10.779 6.78846 13.9022 7.21385 17.1976C7.67587 20.7723 10.4536 23.8222 13.9694 24.6206C14.6511 24.7758 15.3357 24.852 16.0062 24.852C18.505 24.852 20.8629 23.8081 22.5701 21.8811C24.7506 19.418 25.3873 16.0747 24.2661 12.9204L24.1449 12.61C24.0801 12.4605 24.0097 12.3081 23.9365 12.1558L23.7054 11.679L21.9081 13.4141L21.9983 13.6511C22.9899 16.2383 22.2687 19.0851 20.1587 20.9077C18.5022 22.3381 15.6794 23.2664 12.7298 21.5905L12.6819 21.5651C9.45067 19.7001 8.99711 16.2806 9.9803 13.7075C10.9747 11.1091 13.6848 8.86325 17.4993 9.70684V9.70402Z" fill="#2A1C7C"/>
<path d="M16.009 25.9776C15.2483 25.9776 14.4793 25.8902 13.7215 25.7181C9.75209 24.8209 6.6166 21.376 6.09543 17.3414C5.61652 13.6285 7.12087 10.1131 10.1183 7.92933C13.1101 5.75123 16.8738 5.39292 20.1868 6.96442L20.6854 7.20141C21.0179 7.35941 21.2545 7.67258 21.3137 8.03654C21.3728 8.4005 21.2517 8.77292 20.9869 9.02966L19.1557 10.8099C18.8402 11.1175 18.3754 11.2106 17.9641 11.0526L17.7359 10.9651C17.5809 10.9059 17.3894 10.8325 17.2542 10.8015C13.8792 10.0566 11.7917 12.1134 11.0283 14.1053C10.2761 16.069 10.4029 18.944 13.2397 20.5804L13.2763 20.6001C15.7216 21.9882 18.0514 21.2236 19.4177 20.0443C21.1644 18.5377 21.7616 16.1847 20.9418 14.0489L20.8517 13.8119C20.6883 13.3887 20.7953 12.9091 21.1221 12.5931L22.9194 10.8579C23.1786 10.6068 23.542 10.4968 23.8998 10.5588C24.2548 10.6209 24.559 10.8523 24.7168 11.1767L24.9478 11.6535C25.0295 11.8228 25.1084 11.9893 25.1788 12.1557C25.1844 12.167 25.1873 12.1783 25.1929 12.1868L25.314 12.4971C25.314 12.4971 25.3225 12.5197 25.3281 12.531C26.5874 16.0746 25.8718 19.844 23.4153 22.6202C21.5024 24.7814 18.8712 25.972 16.009 25.972V25.9776ZM15.9583 8.25943C14.3779 8.25943 12.8087 8.76445 11.4452 9.75758C9.12387 11.4448 7.96038 14.173 8.33225 17.0536C8.7351 20.1656 11.155 22.8262 14.2201 23.5202C14.8145 23.6557 15.4174 23.7234 16.009 23.7234C18.2176 23.7234 20.2488 22.8036 21.7278 21.1305C23.5561 19.0653 24.1393 16.2806 23.3138 13.6229L23.2152 13.7188C24.1252 16.6248 23.2406 19.7368 20.8939 21.7625C18.9473 23.4441 15.6343 24.5359 12.172 22.5723L12.1298 22.5497C8.31253 20.3462 7.77445 16.3201 8.92948 13.304C10.0986 10.2541 13.2763 7.61898 17.7443 8.60646C17.8655 8.63185 17.9866 8.66853 18.0993 8.70521L18.1979 8.60928C17.4626 8.38075 16.7105 8.26507 15.9583 8.26507V8.25943Z" fill="#2A1C7C"/>
<path d="M27.4635 4.41679H29.8834C29.1144 5.1306 28.3791 5.87827 27.6579 6.62593C26.8099 7.50338 25.9789 8.378 25.114 9.20748L23.4547 9.34009L23.3139 9.35138L23.2153 9.45012L18.4796 14.1872L18.2768 14.3903L18.4148 14.6414C18.6289 15.0336 18.7501 15.485 18.7501 15.9647C18.7501 17.491 17.5162 18.7268 15.9977 18.7268C14.4765 18.7268 13.2454 17.491 13.2454 15.9647C13.2454 14.4383 14.4793 13.2025 15.9977 13.2025C16.4682 13.2025 16.9105 13.321 17.2964 13.5298L17.5471 13.6624L17.7472 13.4621L22.4434 8.77299L22.5448 8.67142L22.556 8.53035L22.6856 6.87139L27.4635 2.12866V4.41115V4.41679Z" fill="white"/>
<path d="M15.9949 19.1105C14.2651 19.1105 12.8594 17.6998 12.8594 15.9646C12.8594 14.2295 14.2651 12.8188 15.9949 12.8188C16.5104 12.8188 17.0203 12.9486 17.4739 13.1912L22.1701 8.50209L22.3109 6.70206L27.8438 1.21167V4.03304H30.8581L30.1398 4.69889C29.4186 5.36755 28.734 6.05879 27.9283 6.89391L27.579 7.25505C26.8634 7.99707 26.1253 8.76448 25.3732 9.48675L25.2746 9.57986L23.4772 9.72375L18.7416 14.458C18.9923 14.9179 19.1247 15.437 19.1247 15.9646C19.1247 17.6998 17.719 19.1105 15.9892 19.1105H15.9949ZM15.9949 13.5862C14.6877 13.5862 13.6256 14.6527 13.6256 15.9646C13.6256 17.2766 14.6905 18.343 15.9949 18.343C17.302 18.343 18.3641 17.2766 18.3641 15.9646C18.3641 15.564 18.2655 15.1718 18.0739 14.8248L17.7978 14.3198L23.1392 8.97891L24.9449 8.83502C25.6521 8.15224 26.3535 7.42433 27.0296 6.72181L27.379 6.35785C27.9311 5.78511 28.4298 5.27727 28.9199 4.79763H27.0775V3.0512L23.0518 7.04627L22.911 8.8463L22.7081 9.04662L17.6091 14.1336L17.1076 13.8655C16.7583 13.6793 16.3836 13.5834 15.9892 13.5834L15.9949 13.5862Z" fill="#F8FFB8"/>
<path d="M2.43607 10.8524C5.53212 2.67044 15.0034 -0.788565 22.635 3.10211L21.3983 4.32376C20.1559 3.7877 18.8403 3.33064 17.4543 3.17828C10.8706 2.44755 4.61373 6.92224 3.35728 13.4706C1.55149 22.8856 10.0987 30.8898 19.3587 28.4126C27.1791 26.322 31.0724 17.4206 27.4749 10.2515L28.6637 9.04392C29.137 9.98625 29.5709 10.9201 29.8582 11.9189C32.8303 22.2733 24.0295 32.0945 13.4511 30.2663C4.5771 28.7343 -0.772663 19.3363 2.43607 10.8524Z" fill="white"/>
<path d="M15.9669 30.8671C15.1105 30.8671 14.2457 30.7937 13.3836 30.6442C9.05083 29.8965 5.3012 27.2472 3.09537 23.382C0.878276 19.4941 0.50923 14.8783 2.0812 10.7168C3.59401 6.72175 6.61399 3.67185 10.589 2.1342C14.5612 0.596553 19.0151 0.825084 22.8098 2.76055L23.2831 3.00318L21.4829 4.78065L21.2463 4.67908C19.7757 4.04427 18.5559 3.68878 17.4121 3.56182C10.9524 2.84237 4.94624 7.2296 3.73205 13.5438C2.90662 17.8408 4.30675 22.1744 7.47886 25.1312C10.6425 28.0824 15.0457 29.1714 19.2602 28.0429C22.8464 27.0836 25.7875 24.5613 27.3285 21.1249C28.8807 17.663 28.8075 13.7639 27.1313 10.4234L27.0073 10.1779L28.7624 8.392L29.0019 8.86882C29.4554 9.76883 29.9146 10.7478 30.2217 11.8087C31.6528 16.7969 30.4555 22.07 27.0158 25.9155C24.1592 29.1065 20.1617 30.8642 15.9669 30.8642V30.8671ZM15.9951 1.89156C14.2569 1.89156 12.5159 2.20756 10.8623 2.84801C7.09291 4.30666 4.22787 7.19856 2.79675 10.9877C1.30367 14.9319 1.65581 19.3107 3.76022 22.9982C5.85054 26.666 9.40579 29.1771 13.5132 29.8852C18.3502 30.7203 23.1845 29.0444 26.4467 25.4021C29.709 21.7568 30.8443 16.7546 29.4864 12.0203C29.2498 11.2021 28.9117 10.4234 28.5568 9.69266L27.937 10.3218C29.5991 13.8147 29.6357 17.8464 28.0271 21.4352C26.3904 25.0832 23.269 27.7607 19.4574 28.7792C14.9894 29.9755 10.3157 28.8187 6.95768 25.687C3.59401 22.5497 2.10655 17.9536 2.98269 13.3943C4.26731 6.69072 10.6397 2.03545 17.4966 2.7944C18.6545 2.92419 19.8743 3.26557 21.3111 3.86934L21.9787 3.20914C20.0884 2.33452 18.0432 1.89156 15.9951 1.89156Z" fill="#F8FFB8"/>
<path d="M7.5857 17.1468C6.71238 10.3699 13.6144 5.52275 19.5332 8.33002L18.2768 9.55449C18.0627 9.47267 17.8204 9.37957 17.5753 9.32596C9.72673 7.59646 5.88414 18.1427 12.5326 21.9206C18.2796 25.1849 24.6182 19.418 22.3504 13.5101L23.5843 12.3194C23.6547 12.4661 23.7251 12.6129 23.7871 12.7567L23.9054 13.0558C26.1732 19.4349 20.6375 25.7351 14.0511 24.2426C10.7015 23.4836 8.03362 20.5691 7.59133 17.1468H7.5857Z" fill="white"/>
<path d="M15.9976 24.8463C15.3243 24.8463 14.6426 24.7702 13.9608 24.615C10.445 23.8194 7.66732 20.7666 7.20531 17.192C6.77992 13.8966 8.11525 10.7733 10.7746 8.83788C13.4284 6.90806 16.7639 6.58643 19.6965 7.98019L20.1952 8.21718L18.364 9.99747L18.1358 9.91C17.9471 9.83665 17.7105 9.74636 17.4907 9.6984C13.6763 8.85481 10.9662 11.1006 9.97175 13.6991C8.98575 16.2722 9.44213 19.6917 12.6734 21.5566L12.7213 21.582C15.6708 23.2579 18.4936 22.3269 20.1501 20.8992C22.2602 19.0766 22.9842 16.2299 21.9897 13.6427L21.8996 13.4057L23.6969 11.6705L23.9279 12.1474C24.0012 12.2997 24.0716 12.4492 24.1364 12.6016L24.2575 12.9119C25.3787 16.0662 24.7421 19.4124 22.5616 21.8726C20.8544 23.7996 18.4964 24.8435 15.9976 24.8435V24.8463ZM7.96594 17.096C8.3857 20.3575 10.9211 23.1422 14.1299 23.8673C17.0738 24.5332 20.0121 23.5965 21.9869 21.3648C23.9786 19.1161 24.559 16.055 23.5363 13.1828L23.4518 12.9712L22.7898 13.6116C23.7673 16.4387 22.9391 19.5055 20.6459 21.4833C18.3049 23.5034 15.1666 23.8137 12.4283 22.3043L12.341 22.2535C8.67304 20.1713 8.14905 16.3202 9.25619 13.4283C10.369 10.5251 13.3974 8.01404 17.6569 8.95356C17.84 8.99306 18.0203 9.05231 18.1837 9.11155L18.857 8.457C16.3103 7.45259 13.496 7.81372 11.2282 9.46423C8.79982 11.2304 7.57999 14.0856 7.96876 17.0989L7.96594 17.096Z" fill="#F8FFB8"/>
</svg>
