<svg width="35" height="31" viewBox="0 0 35 31" fill="none" xmlns="http://www.w3.org/2000/svg">
<path d="M1.02563 7.1801L5.34082 8.03783L5.69452 7.46307C8.18813 3.40432 12.5387 0.981445 17.3314 0.981445C21.6377 0.981445 25.7407 3.05061 28.3139 6.50807L28.871 7.25969V7.70182L24.9448 10.6199L24.7768 10.3988C23.0083 8.02015 20.2936 6.64955 17.3314 6.64955C15.7043 6.64955 14.095 7.08283 12.6802 7.90519L10.4607 9.19621L15.103 10.1335L5.42925 18.1361L1.02563 7.18895V7.1801Z" fill="#830789"/>
<path d="M17.3403 1.96306C21.3372 1.96306 25.1483 3.8819 27.5447 7.09176L27.7304 7.34819L25.1395 9.27588C23.1853 6.98565 20.3822 5.67694 17.3492 5.67694C15.5541 5.67694 13.7768 6.15444 12.2116 7.06523L7.7638 9.63842L12.8041 10.6553L12.9279 10.6819L5.8538 16.5356L2.61741 8.49773L4.50973 8.87796L5.83612 9.14324L6.54352 7.9937C8.86028 4.22676 12.9013 1.9719 17.3492 1.9719M17.3403 0.00884258C12.2205 0.00884258 7.52505 2.64393 4.87227 6.95028L0 5.97759V7.23324L5.02259 19.719L16.0758 10.5757V9.32009L13.1755 8.73648C14.4311 8.01139 15.8636 7.61347 17.3403 7.61347C19.9931 7.61347 22.416 8.83375 24.0076 10.9648L24.7593 11.9729L29.8614 8.1794V6.92375L29.1098 5.91569C26.3598 2.21065 21.9562 0 17.3492 0L17.3403 0.00884258Z" fill="#830789"/>
<path d="M17.3403 29.5872C12.5034 29.5872 8.12635 27.1113 5.6239 22.9641L5.11987 22.1241V21.6908L9.25821 19.1972L9.40854 19.4359C11.1063 22.2479 14.0686 23.928 17.3492 23.928C18.9143 23.928 20.4618 23.5389 21.8147 22.7873L24.1403 21.5051L19.4449 20.5589L29.1187 12.5564L33.5223 23.5035L29.2778 22.6635L28.9241 23.2294C26.4128 27.2174 22.0977 29.5961 17.358 29.5961L17.3403 29.5872Z" fill="#830789"/>
<path d="M28.7031 14.1571L31.9395 22.2038L30.1091 21.8413L28.8004 21.5849L28.0841 22.7167C25.7585 26.4129 21.744 28.6236 17.3404 28.6236C12.9368 28.6236 8.78074 26.3245 6.45513 22.4691L6.2606 22.1419L8.9399 20.5237C10.8587 23.2826 13.9536 24.9008 17.3404 24.9008C19.0735 24.9008 20.7801 24.4675 22.2745 23.6452L26.9257 21.0808L21.7174 20.0286L21.6202 20.0109L28.6943 14.1571M29.5166 10.9561L18.4634 20.0993V21.3549L21.3372 21.9386C20.1346 22.6017 18.7729 22.9555 17.3404 22.9555C14.4046 22.9555 11.7518 21.4522 10.2309 18.9321L9.58541 17.8621L4.14722 21.1427V22.3984L4.79273 23.4683C7.47203 27.9073 12.1586 30.5601 17.3404 30.5601C22.5221 30.5601 27.0672 27.9692 29.7288 23.7424L34.5304 24.6974V23.4418L29.5078 10.9561H29.5166Z" fill="#830789"/>
<path d="M3.20093 9.89475L5.90676 10.4341L6.15436 9.95664C8.34732 5.81831 12.636 3.24512 17.3402 3.24512C21.0895 3.24512 24.6707 4.93405 27.0671 7.79905L25.1394 9.23155C23.1852 6.94132 20.3821 5.64146 17.3402 5.64146C13.9447 5.64146 10.7702 7.31271 8.86019 10.1158L8.25005 11.0178L11.6368 11.6986L5.85371 16.4825L3.20093 9.8859V9.89475Z" fill="white"/>
<path d="M17.3403 3.96161C20.6209 3.96161 23.7688 5.33221 26.006 7.68434L25.2279 8.25911C23.1675 6.1192 20.3644 4.91661 17.3314 4.91661C13.6971 4.91661 10.3016 6.70281 8.25893 9.70929L7.02981 11.5043L9.16087 11.9376L9.99208 12.1056L6.13671 15.2978L4.35051 10.8588L5.21708 11.0357L6.26935 11.2479L6.77338 10.3017C8.84254 6.40216 12.8836 3.97045 17.3226 3.97045M17.3403 2.52026C12.2823 2.52026 7.79027 5.31452 5.50889 9.61202L2.0249 8.9223L5.54426 17.6676L13.255 11.2921L9.45268 10.5228C11.1858 7.97614 14.095 6.36679 17.3403 6.36679C20.391 6.36679 23.1852 7.77276 25.0068 10.2222L28.0929 7.93193C25.5727 4.54522 21.5493 2.52026 17.3403 2.52026Z" fill="white"/>
<path d="M17.3402 28.588C13.0958 28.588 9.23158 26.5366 6.87061 23.0614L8.93093 21.8146C10.8586 24.5647 13.9447 26.1828 17.3402 26.1828C20.7358 26.1828 23.813 24.5647 25.7319 21.8411L26.3685 20.9392L22.9111 20.2406L28.6941 15.4568L31.3469 22.0534L28.7295 21.5316L28.4731 22.0003C26.2624 26.0679 22.0003 28.588 17.3491 28.588H17.3402Z" fill="white"/>
<path d="M28.3846 16.6418L30.1708 21.0808L29.375 20.9217L28.3316 20.7183L27.8275 21.6467C25.7407 25.4756 21.7262 27.8631 17.3402 27.8631C13.5998 27.8631 10.1689 26.1653 7.91403 23.2649L8.74524 22.7609C10.8232 25.3783 13.9358 26.8992 17.3402 26.8992C20.9126 26.8992 24.264 25.1661 26.3155 22.2569L27.5888 20.453L25.4224 20.0109L24.5293 19.834L28.3846 16.6418ZM28.9859 14.272L21.2752 20.6475L25.1306 21.4257C23.3886 23.9016 20.5236 25.4579 17.3314 25.4579C13.9535 25.4579 10.894 23.7248 9.15199 20.8332L5.86255 22.8228C8.31195 26.8816 12.6006 29.3044 17.3402 29.3044C22.354 29.3044 26.8018 26.5632 29.1009 22.3365L32.5053 23.0085L28.9859 14.2632V14.272Z" fill="white"/>
</svg>
