<svg width="66" height="60" viewBox="0 0 66 60" fill="none" xmlns="http://www.w3.org/2000/svg">
<path d="M16.6077 38.813H5.3852C2.6656 38.813 0.460938 41.0177 0.460938 43.7372V53.6688C0.460938 56.3884 2.6656 58.593 5.3852 58.593H16.6077C19.3273 58.593 21.532 56.3884 21.532 53.6688V43.7372C21.532 41.0177 19.3273 38.813 16.6077 38.813Z" fill="#0D1252"/>
<path d="M16.6079 39.2737C19.07 39.2737 21.071 41.2748 21.071 43.7369V53.6592C21.071 56.1213 19.07 58.1224 16.6079 58.1224H5.38533C2.9232 58.1224 0.922146 56.1213 0.922146 53.6592V43.7369C0.922146 41.2748 2.9232 39.2737 5.38533 39.2737H16.5986M16.6079 38.3516H5.38533C2.41602 38.3516 0 40.7676 0 43.7369V53.6592C0 56.6285 2.41602 59.0445 5.38533 59.0445H16.5986C19.5679 59.0445 21.984 56.6285 21.984 53.6592V43.7369C21.984 40.7676 19.5679 38.3516 16.5986 38.3516H16.6079Z" fill="#5A45F4"/>
<path d="M38.2044 28.6694H26.9819C24.2623 28.6694 22.0576 30.8741 22.0576 33.5937V53.6688C22.0576 56.3884 24.2623 58.5931 26.9819 58.5931H38.2044C40.924 58.5931 43.1287 56.3884 43.1287 53.6688V33.5937C43.1287 30.8741 40.924 28.6694 38.2044 28.6694Z" fill="#0D1252"/>
<path d="M38.2041 29.1302C40.6662 29.1302 42.6673 31.1312 42.6673 33.5933V53.6592C42.6673 56.1214 40.6662 58.1224 38.2041 58.1224H26.9908C24.5287 58.1224 22.5276 56.1214 22.5276 53.6592V33.5933C22.5276 31.1312 24.5287 29.1302 26.9908 29.1302H38.2041ZM38.2041 28.208H26.9908C24.0215 28.208 21.6055 30.624 21.6055 33.5933V53.6592C21.6055 56.6285 24.0215 59.0446 26.9908 59.0446H38.2041C41.1734 59.0446 43.5894 56.6285 43.5894 53.6592V33.5933C43.5894 30.624 41.1734 28.208 38.2041 28.208Z" fill="#5A45F4"/>
<path d="M59.7923 44.521H48.5698C45.8502 44.521 43.6455 46.7257 43.6455 49.4453V53.8439C43.6455 56.5635 45.8502 58.7682 48.5698 58.7682H59.7923C62.5119 58.7682 64.7165 56.5635 64.7165 53.8439V49.4453C64.7165 46.7257 62.5119 44.521 59.7923 44.521Z" fill="#0D1252"/>
<path d="M59.792 44.9817C62.2541 44.9817 64.2552 46.9828 64.2552 49.4449V53.8343C64.2552 56.2965 62.2541 58.2975 59.792 58.2975H48.5787C46.1166 58.2975 44.1155 56.2965 44.1155 53.8343V49.4449C44.1155 46.9828 46.1166 44.9817 48.5787 44.9817H59.792ZM59.792 44.0596H48.5787C45.6094 44.0596 43.1934 46.4756 43.1934 49.4449V53.8343C43.1934 56.8036 45.6094 59.2197 48.5787 59.2197H59.792C62.7613 59.2197 65.1773 56.8036 65.1773 53.8343V49.4449C65.1773 46.4756 62.7613 44.0596 59.792 44.0596Z" fill="#5A45F4"/>
<path d="M39.2186 28.2636C38.5178 28.2636 37.8446 28.0423 37.2729 27.6365L32.3486 24.0586L27.4336 27.6273C26.8526 28.0423 26.1795 28.2636 25.4787 28.2636C24.7778 28.2636 24.0954 28.0423 23.5237 27.6181C22.3618 26.7697 21.8731 25.2758 22.3249 23.9018L24.1969 18.1292L19.2818 14.5513C18.1107 13.7121 17.6312 12.2182 18.0738 10.835C18.5164 9.45181 19.789 8.52966 21.2368 8.52966H27.3137L29.1949 2.7478C29.6468 1.37381 30.9193 0.45166 32.3579 0.45166C33.7964 0.45166 35.069 1.37381 35.5208 2.7478L37.402 8.52966H43.4789C44.9267 8.52966 46.1993 9.45181 46.6419 10.835C47.0845 12.209 46.5958 13.7121 45.4247 14.5513L40.5189 18.12L42.4 23.9018C42.8427 25.2851 42.3539 26.7789 41.1828 27.6273C40.6111 28.0423 39.9379 28.2636 39.2279 28.2636H39.2186Z" fill="#0D1252"/>
<path d="M32.3393 0.922146C33.5842 0.922146 34.6816 1.71519 35.0597 2.89554L37.0423 9.00015H43.4512C44.6961 9.00015 45.7934 9.80241 46.1807 10.9828C46.568 12.1723 46.1439 13.4541 45.1295 14.1826L39.947 17.945L41.9296 24.0403C42.3077 25.2391 41.8835 26.5209 40.8876 27.2494C40.3897 27.6091 39.7995 27.7935 39.2093 27.7935C38.6191 27.7935 38.0382 27.6091 37.531 27.2494L32.3393 23.4778L27.1569 27.2494C26.6497 27.6183 26.0595 27.7935 25.4693 27.7935C24.8792 27.7935 24.289 27.6091 23.7818 27.2402C22.7767 26.5025 22.3617 25.2207 22.749 24.0403L24.7316 17.945L19.5399 14.1734C18.5348 13.4541 18.1106 12.1631 18.4979 10.9735C18.8852 9.78397 19.9733 8.99092 21.2275 8.99092H27.6364L29.619 2.89554C30.0063 1.70597 31.1037 0.912925 32.3485 0.912925M32.3393 0C30.6979 0 29.2501 1.05125 28.7337 2.61889L26.9632 8.078H21.2182C19.5676 8.078 18.1198 9.12925 17.6127 10.6969C17.1055 12.2645 17.6588 13.9613 18.9959 14.9295L23.6435 18.3046L21.873 23.7637C21.3658 25.3221 21.9099 27.0281 23.2377 27.9964C23.8925 28.4759 24.6578 28.7248 25.4693 28.7248C26.2808 28.7248 27.037 28.4759 27.7009 28.0056L32.3485 24.6305L37.0054 28.0148C37.6601 28.4851 38.4255 28.7341 39.2278 28.7341C40.03 28.7341 40.7954 28.4851 41.4501 28.0148C42.778 27.0558 43.3313 25.359 42.8333 23.7821L41.0536 18.3138L45.692 14.948C47.0291 13.989 47.5824 12.283 47.0752 10.7153C46.568 9.14769 45.1203 8.09644 43.4696 8.09644H37.7247L35.9541 2.63734V2.60967H35.9449C35.4285 1.06047 33.99 0.0276644 32.3578 0.0276644L32.3393 0Z" fill="#5A45F4"/>
<path d="M5.38604 39.2734H16.5993C19.0615 39.2734 21.0625 41.2745 21.0625 43.7366V53.6589C21.0625 56.121 19.0615 58.1221 16.5993 58.1221H5.38604C2.92391 58.1221 0.922852 56.121 0.922852 53.6589V43.7366C0.922852 41.2745 2.92391 39.2734 5.38604 39.2734Z" fill="#0D1252"/>
<path d="M38.2043 29.1299H26.9817C24.5168 29.1299 22.5186 31.1281 22.5186 33.5931V53.6682C22.5186 56.1331 24.5168 58.1314 26.9817 58.1314H38.2043C40.6692 58.1314 42.6674 56.1331 42.6674 53.6682V33.5931C42.6674 31.1281 40.6692 29.1299 38.2043 29.1299Z" fill="#0D1252"/>
<path d="M59.7921 44.9819H48.5696C46.1047 44.9819 44.1064 46.9802 44.1064 49.4451V53.8438C44.1064 56.3087 46.1047 58.3069 48.5696 58.3069H59.7921C62.2571 58.3069 64.2553 56.3087 64.2553 53.8438V49.4451C64.2553 46.9802 62.2571 44.9819 59.7921 44.9819Z" fill="#0D1252"/>
<path d="M19.5408 14.1823L24.7325 17.9539L22.7499 24.0493C22.3626 25.2296 22.7776 26.5206 23.7827 27.2491C24.7879 27.9869 26.1434 27.9869 27.1578 27.2491L32.3402 23.4776L37.5319 27.2491C38.0299 27.6088 38.62 27.7932 39.2102 27.7932C39.8004 27.7932 40.3906 27.6088 40.8885 27.2491C41.8937 26.5206 42.3179 25.2389 41.9306 24.0401L39.9479 17.9447L45.1304 14.1823C46.1448 13.4538 46.5597 12.1628 46.1816 10.9825C45.7943 9.79292 44.7062 8.99988 43.4521 8.99988H37.0432L35.0606 2.90449C34.6733 1.71492 33.5759 0.921875 32.3402 0.921875C31.1046 0.921875 30.0072 1.71492 29.6107 2.90449L27.6281 8.99988H21.2191C19.9743 8.99988 18.8769 9.80214 18.4896 10.9825C18.1023 12.1628 18.5265 13.4538 19.5316 14.1823H19.5408Z" fill="#0D1252"/>
<path d="M16.6077 42.04H5.38523C4.44814 42.04 3.68848 42.7997 3.68848 43.7368V53.6683C3.68848 54.6054 4.44814 55.3651 5.38523 55.3651H16.6077C17.5448 55.3651 18.3045 54.6054 18.3045 53.6683V43.7368C18.3045 42.7997 17.5448 42.04 16.6077 42.04Z" fill="#01E1FF"/>
<path d="M38.2044 31.8965H26.9819C26.0448 31.8965 25.2852 32.6561 25.2852 33.5932V53.6684C25.2852 54.6054 26.0448 55.3651 26.9819 55.3651H38.2044C39.1415 55.3651 39.9012 54.6054 39.9012 53.6684V33.5932C39.9012 32.6561 39.1415 31.8965 38.2044 31.8965Z" fill="#01E1FF"/>
<path d="M59.7923 47.748H48.5698C47.6327 47.748 46.873 48.5077 46.873 49.4448V53.8434C46.873 54.7805 47.6327 55.5402 48.5698 55.5402H59.7923C60.7294 55.5402 61.4891 54.7805 61.4891 53.8434V49.4448C61.4891 48.5077 60.7294 47.748 59.7923 47.748Z" fill="#01E1FF"/>
<path d="M32.4411 3.75324L35.0231 11.7021C35.0231 11.7021 35.0692 11.7667 35.1061 11.7667H43.4608C43.553 11.7667 43.5991 11.8866 43.5161 11.9419L36.7568 16.8569C36.7568 16.8569 36.7107 16.9215 36.7199 16.9584L39.3019 24.9073C39.3295 24.9995 39.2281 25.0733 39.1543 25.0179L32.395 20.1029C32.395 20.1029 32.3212 20.0752 32.2843 20.1029L25.525 25.0179C25.4512 25.0733 25.3406 24.9995 25.3775 24.9073L27.9595 16.9584C27.9595 16.9584 27.9595 16.8754 27.9226 16.8569L21.1633 11.9419C21.0895 11.8866 21.1264 11.7667 21.2186 11.7667H29.5732C29.5732 11.7667 29.647 11.739 29.6562 11.7021L32.2382 3.75324C32.2659 3.66103 32.395 3.66103 32.4227 3.75324H32.4411Z" fill="#01E1FF"/>
</svg>
