<svg width="46" height="41" viewBox="0 0 46 41" fill="none" xmlns="http://www.w3.org/2000/svg">
<path d="M40.7809 1.01025H37.7809C37.4709 1.01025 37.2109 1.18025 37.1109 1.45025L33.0309 12.2803L31.4809 3.63025L29.7409 1.72025C29.3709 1.25025 28.9109 1.01025 28.4909 1.01025H25.2809C24.7509 1.01025 24.4409 1.48025 24.6109 2.00025L30.4209 19.1803L24.0509 36.0903C23.9209 36.4303 24.0709 36.8302 24.3409 37.0802C24.5209 37.2402 26.7709 39.5003 26.8709 39.5603L28.0009 37.3503C28.3109 37.3503 28.5709 37.1803 28.6709 36.9103L32.7509 26.0802L36.3309 36.6403C36.3909 36.8403 36.5609 37.0003 36.7109 37.1503C37.0509 37.4903 39.1009 39.6003 39.1609 39.6003L40.5109 37.3503C41.0409 37.3503 41.3509 36.8803 41.1809 36.3603L35.3709 19.1803L44.1209 3.92025C44.1209 3.92025 41.7809 1.68025 41.5809 1.43025C41.3909 1.18025 41.1009 1.01025 40.7809 1.01025Z" fill="#A714AF"/>
<path d="M16.5306 1.02002C17.1106 1.02002 17.6306 1.23002 18.0306 1.56002C18.5206 1.97002 20.3806 4.56002 20.3906 5.20002V5.28002C20.4106 5.42002 20.4306 5.57002 20.4406 5.72002L20.9106 36.28C20.9206 37.53 19.9306 38.54 18.6706 38.54C18.0706 38.54 17.4906 38.29 17.0606 37.87L7.83061 28.83H6.42061C4.97061 28.83 3.74061 28.01 3.14061 26.81C2.69061 26.12 1.77061 24.72 1.73061 24.66C1.36061 24.1 1.14061 23.43 1.14061 22.71L1.01061 14.34C0.980606 12.33 2.55061 10.74 4.57061 10.74H5.98061L14.9406 1.69002C15.3506 1.27002 15.9406 1.02002 16.5306 1.02002ZM16.3606 0.0200195C15.5306 0.0200195 14.7306 0.350022 14.1606 0.940022L5.45061 9.74002H4.41061C1.90061 9.74002 -0.0393925 11.69 0.000607522 14.19L0.140607 22.55C0.150607 23.45 0.420608 24.33 0.930608 25.09L1.13061 25.41C1.43061 25.86 1.96061 26.68 2.28061 27.19C3.12061 28.8 4.80061 29.83 6.59061 29.83H7.5406L16.4106 38.52C17.0806 39.17 17.9606 39.54 18.8406 39.54C20.5906 39.54 21.9506 38.18 21.9306 36.44L21.4606 5.88002C21.4606 5.71002 21.4406 5.54002 21.4006 5.36002C21.3806 4.18002 19.1106 1.26002 18.6006 0.840019C17.9606 0.310019 17.1606 0.0200195 16.3506 0.0200195H16.3606Z" fill="#F86CFF"/>
<path d="M16.531 1.02002C15.941 1.02002 15.351 1.27002 14.941 1.69002L5.981 10.74H4.571C2.551 10.74 0.970997 12.33 1.011 14.34L1.141 22.71C1.151 23.43 1.381 24.1 1.731 24.66C1.781 24.74 3.331 27.12 3.381 27.19C4.051 28.06 3.611 26.31 4.801 26.31H6.211L15.441 35.35C15.871 35.77 16.451 36.02 17.051 36.02C18.311 36.02 19.311 35.01 19.291 33.76L20.371 5.20002C20.371 4.56002 18.501 1.96002 18.011 1.56002C17.601 1.22002 17.081 1.02002 16.511 1.02002H16.521H16.531Z" fill="#A714AF"/>
<path d="M45.1908 3.74C45.1908 3.74 42.5008 1.08 42.3308 0.880001C41.9308 0.350001 41.2708 0.0100021 40.6108 0.0100021H37.6108C36.9308 0.0100021 36.3708 0.380001 36.1508 0.970001L33.8708 7.01L32.8408 3.97C32.7008 3.55 32.4208 3.17 32.0508 2.89L30.4708 1.15C29.8908 0.430001 29.0808 0 28.3208 0H25.1108C24.5608 0 24.0908 0.240002 23.8108 0.650002C23.5308 1.07 23.4708 1.61 23.6608 2.15L29.3608 18.99L23.1008 35.59C22.8408 36.29 23.0908 37.15 23.7408 37.74C23.8108 37.81 24.1108 38.11 24.4808 38.47C24.9708 38.96 25.5808 39.56 25.9408 39.91C26.3708 40.43 27.0008 40.75 27.6308 40.75H30.6308C31.3108 40.75 31.8708 40.38 32.0908 39.79L34.3708 33.75L35.4008 36.79C35.5608 37.25 35.8608 37.56 36.0408 37.75L36.4008 38.12C38.3908 40.15 38.7408 40.51 39.1008 40.58C39.3608 40.7 39.6408 40.76 39.9108 40.76H43.1208C43.6708 40.76 44.1408 40.52 44.4208 40.11C44.7008 39.69 44.7608 39.15 44.5708 38.61L38.8708 21.77L45.1308 5.17C45.2408 4.87 45.4608 4.14 45.1908 3.74Z" fill="#A714AF"/>
<path d="M18.1409 3.55029C17.5509 3.55029 16.9609 3.80029 16.5509 4.22029L7.59086 13.2703H6.18086C4.16086 13.2703 2.58086 14.8603 2.62086 16.8703L2.75086 25.2403C2.78086 27.2503 4.41086 28.8403 6.43086 28.8403H7.84086L17.0709 37.8803C17.5009 38.3003 18.0809 38.5503 18.6809 38.5503C19.9409 38.5503 20.9409 37.5403 20.9209 36.2903L20.4509 5.73029C20.4309 4.56029 19.4109 3.55029 18.1409 3.55029Z" fill="white"/>
<path d="M40.7808 1.01025C41.1008 1.01025 41.4008 1.18025 41.5808 1.43025C41.7608 1.67025 44.0808 3.96025 44.0808 3.96025C44.2108 4.18025 44.2508 4.44025 44.1608 4.68025L37.7908 21.5903L43.6008 38.7703C43.7808 39.2903 43.4608 39.7603 42.9308 39.7603H39.7208C39.5208 39.7603 39.3308 39.6903 39.1708 39.5703L39.1508 39.5903C39.0908 39.5903 37.0408 37.4803 36.7008 37.1403C36.5508 36.9903 36.4008 36.8403 36.3208 36.6303L34.3308 30.7403L31.1008 39.3103C31.0008 39.5803 30.7508 39.7503 30.4308 39.7503H27.4308C27.1008 39.7503 26.8008 39.5703 26.6208 39.3203C26.0108 38.7403 24.4808 37.2003 24.3308 37.0703C24.0508 36.8203 23.9108 36.4302 24.0408 36.0802L30.4108 19.1703L24.6008 2.00025C24.4208 1.48025 24.7408 1.01025 25.2708 1.01025H28.4808C28.9008 1.01025 29.3608 1.25025 29.7308 1.72025L31.6208 3.72025C31.6808 3.80025 31.8008 3.91025 31.8808 4.14025L33.8708 10.0303L37.1008 1.46025C37.2008 1.19025 37.4508 1.02025 37.7708 1.02025H40.7708M40.6108 0.0102539H37.6108C36.9308 0.0102539 36.3708 0.380253 36.1508 0.970253L33.8708 7.01025L32.8408 3.97025C32.7008 3.55025 32.5108 3.19025 32.1808 2.88025L30.4608 1.15025C29.8808 0.440253 29.0708 0.0102539 28.3108 0.0102539H25.1008C24.5508 0.0102539 24.0708 0.250252 23.7908 0.660252C23.5108 1.08025 23.4508 1.62025 23.6408 2.16025L29.3408 19.0003L23.0808 35.6003C22.8208 36.3003 23.0708 37.1603 23.7208 37.7503C23.7908 37.8203 24.0908 38.1203 24.4608 38.4803C24.9508 38.9703 25.5608 39.5703 25.9208 39.9203C26.3508 40.4403 26.9808 40.7603 27.6108 40.7603H30.6108C31.2908 40.7603 31.8508 40.3903 32.0708 39.8003L34.3508 33.7603L35.3808 36.8003C35.5408 37.2603 35.8408 37.5703 36.0208 37.7603L36.3808 38.1303C38.3708 40.1603 38.7208 40.5203 39.0808 40.5903C39.3408 40.7103 39.6208 40.7703 39.8908 40.7703H43.1008C43.6508 40.7703 44.1208 40.5303 44.4008 40.1203C44.6808 39.7003 44.7408 39.1603 44.5508 38.6203L38.8508 21.7803L45.1108 5.18025C45.2208 4.88025 45.5608 4.00025 45.0408 3.60025C45.0408 3.60025 42.4808 1.09026 42.3008 0.890255C41.9108 0.350255 41.2508 0.0102539 40.5908 0.0102539H40.6108Z" fill="#F86CFF"/>
<path d="M43.2107 3.42041H40.2107C39.9007 3.42041 39.6407 3.59041 39.5407 3.86041L35.4607 14.6904L31.8807 4.13041C31.7407 3.72041 31.3407 3.42041 30.9207 3.42041H27.7107C27.1807 3.42041 26.8707 3.89041 27.0407 4.41041L32.8507 21.5904L26.4807 38.5004C26.2707 39.0704 26.8007 39.7604 27.4507 39.7604H30.4507C30.7607 39.7604 31.0207 39.5904 31.1207 39.3204L35.2007 28.4904L38.7807 39.0504C38.9207 39.4604 39.3207 39.7604 39.7407 39.7604H42.9507C43.4807 39.7604 43.7907 39.2904 43.6207 38.7704L37.8107 21.5904L44.1807 4.68041C44.3907 4.11041 43.8607 3.42041 43.2107 3.42041Z" fill="white"/>
</svg>
