<svg width="46" height="41" viewBox="0 0 46 41" fill="none" xmlns="http://www.w3.org/2000/svg">
<path d="M16.5506 1.85986C17.1306 1.85986 17.6506 2.06986 18.0506 2.39986C18.5406 2.80986 20.4006 5.39986 20.4106 6.03986V6.11987C20.4406 6.25987 20.4506 6.40986 20.4606 6.55986L20.8906 37.1199C20.9006 38.3699 19.9006 39.3799 18.6406 39.3799C18.0406 39.3799 17.4606 39.1299 17.0306 38.7099L7.82061 29.6699H6.41061C4.96061 29.6699 3.73061 28.8499 3.14061 27.6499C2.69061 26.9599 1.78061 25.5599 1.74061 25.4999C1.37061 24.9399 1.15061 24.2699 1.15061 23.5499L1.03061 15.1799C1.00061 13.1699 2.58061 11.5799 4.60061 11.5799H6.01061L14.9806 2.52987C15.3906 2.10987 15.9806 1.85986 16.5706 1.85986H16.5506ZM16.3806 0.859863C15.5506 0.859863 14.7506 1.18987 14.1806 1.77987L5.45061 10.5799H4.41061C1.90061 10.5799 -0.0393925 12.5299 0.000607522 15.0299L0.130608 23.3899C0.140608 24.2899 0.410608 25.1699 0.910608 25.9299L1.11061 26.2499C1.41061 26.6999 1.94061 27.5199 2.26061 28.0299C3.09061 29.6399 4.78061 30.6699 6.57061 30.6699H7.52061L16.3706 39.3599C17.0406 40.0099 17.9206 40.3799 18.8006 40.3799C20.5506 40.3799 21.9106 39.0199 21.8906 37.2799L21.4606 6.71986C21.4606 6.54986 21.4406 6.37986 21.4006 6.19986C21.3806 5.01986 19.1106 2.09986 18.6006 1.67986C17.9606 1.14986 17.1606 0.859863 16.3506 0.859863H16.3606H16.3806Z" fill="#F86CFF"/>
<path d="M34.1008 1C34.2908 1 34.4808 1.07 34.6408 1.2L34.7108 1.27C36.5208 2.74 38.0108 4.53 39.2708 6.58C42.6608 10.83 44.5908 16.52 44.6608 21.79C44.7508 28.45 41.8308 35.52 36.7108 39.7L36.6808 39.72C36.5208 39.85 36.3308 39.92 36.1308 39.92C35.9208 39.92 35.7108 39.84 35.5508 39.68L33.4808 37.66C33.3808 37.57 33.3208 37.46 33.2808 37.34L31.8508 35.32C31.4808 34.96 31.5208 34.36 31.9108 34.04C36.1008 30.71 38.5108 24.83 38.4408 19.54C38.3808 15.02 37.4708 11.18 34.5208 8.04C34.1108 7.62 33.6808 7.23 33.2208 6.88C33.1508 6.83 33.1108 6.76 33.0708 6.7C33.0508 6.68 33.0208 6.66 32.9908 6.63C32.9308 6.59 31.6408 4.58 31.5908 4.54C31.1808 4.22 31.1308 3.62 31.4908 3.26L33.5108 1.24C33.6608 1.08 33.8808 1 34.0908 1M33.9308 0C33.4708 0 33.0508 0.17 32.7408 0.48L30.7208 2.5C30.3408 2.88 30.1808 3.42 30.2608 3.98C30.3308 4.41 30.5508 4.83 30.8908 5.14C31.0108 5.32 31.2508 5.68 31.4808 6.04C32.1508 7.06 32.2408 7.19 32.3808 7.31C32.4608 7.41 32.5608 7.52 32.6908 7.63C33.0608 7.92 33.4508 8.27 33.8608 8.68C36.2608 11.23 37.3608 14.54 37.4308 19.39C37.5008 24.65 35.0008 30.21 31.2008 33.23C30.7808 33.57 30.5508 34.08 30.5808 34.64C30.6108 35.09 30.7908 35.53 31.1008 35.88L32.4008 37.72C32.5108 37.95 32.6508 38.15 32.8308 38.33L34.9008 40.35C35.2708 40.72 35.7908 40.94 36.3008 40.94C36.7108 40.94 37.0908 40.8 37.3808 40.55L37.4108 40.53C42.5108 36.36 45.7508 29.07 45.6608 21.96C45.5808 16.37 43.5008 10.45 40.0608 6.12C38.7108 3.91 37.0908 2.04 35.2508 0.549999L35.2108 0.519997C34.8008 0.179997 34.3508 0.00999832 33.8908 0.00999832H33.9108L33.9308 0Z" fill="#F86CFF"/>
<path d="M26.7705 8.05953C26.9405 8.05953 27.1205 8.10953 27.2705 8.21953H27.2605C28.8605 9.36953 30.1405 10.8795 31.0905 12.5795C33.2405 15.0395 34.4905 18.2595 34.5505 21.5695C34.6105 25.8895 32.6105 30.0095 29.2005 32.5895C29.0605 32.6995 28.8905 32.7495 28.7205 32.7495C28.5005 32.7495 28.2805 32.6595 28.1205 32.4995L26.0405 30.3895C25.9705 30.3195 25.9305 30.2495 25.8805 30.1795L24.4005 28.0495C24.1605 27.8095 24.1405 27.5295 24.1605 27.3795C24.1805 27.2395 24.2305 26.9695 24.5305 26.7495C26.9805 25.1395 28.4605 22.2195 28.4205 19.2295C28.4005 17.5395 28.3305 16.5895 27.8305 15.7595C27.2805 15.1095 26.6405 14.5195 25.9205 14.0295C25.8305 13.9695 25.7705 13.8895 25.7105 13.8195C25.6205 13.7595 24.1405 11.5695 24.0905 11.4995C23.9805 11.3495 23.9505 11.1895 23.9405 11.0895C23.9305 10.9495 23.9305 10.6595 24.1705 10.4195L26.1905 8.31953C26.3405 8.14953 26.5605 8.06953 26.7805 8.06953M26.6005 7.05953C26.1105 7.05953 25.6705 7.24953 25.3705 7.57953L23.3605 9.65953C23.0305 9.99953 22.8605 10.4795 22.9105 11.0095C22.9505 11.3395 23.0705 11.6695 23.2605 11.9495L23.3405 12.0695C24.4205 13.6495 24.7805 14.1695 24.9705 14.3895C25.1005 14.5495 25.2405 14.6895 25.4105 14.7995C25.9905 15.1995 26.5305 15.6695 27.0105 16.2295C27.3005 16.7795 27.3605 17.5395 27.3805 19.0595C27.4105 21.7595 26.0205 24.4395 23.8505 25.8695C23.5405 26.0895 23.2005 26.4595 23.1305 27.0895C23.0805 27.6295 23.2605 28.1595 23.6205 28.5695L25.0105 30.5695C25.1105 30.7295 25.2105 30.8795 25.3405 31.0095L27.4105 33.1095C27.8105 33.5095 28.3405 33.7295 28.8505 33.7295C29.2305 33.7295 29.5805 33.6095 29.8605 33.3895C33.4805 30.6595 35.6005 26.2895 35.5205 21.6895C35.4605 18.1795 34.1705 14.7695 31.8605 12.0695C30.7905 10.1895 29.3905 8.61953 27.7305 7.39953C27.3905 7.14953 26.9805 7.01953 26.5705 7.01953L26.6105 7.05953H26.6005Z" fill="#F86CFF"/>
<path d="M16.5507 1.85986C15.9607 1.85986 15.3707 2.10987 14.9607 2.52987L5.99067 11.5799H4.58067C2.56067 11.5799 0.980674 13.1699 1.01067 15.1799L1.13067 23.5499C1.14067 24.2699 1.37067 24.9399 1.72067 25.4999C1.77067 25.5799 3.32067 27.9599 3.37067 28.0299C4.04067 28.8999 3.60067 27.1499 4.79067 27.1499H6.20067L15.4107 36.1899C15.8407 36.6099 16.4207 36.8599 17.0207 36.8599C18.2807 36.8599 19.2807 35.8499 19.2707 34.5999L20.3907 6.03986C20.3907 5.39986 18.5207 2.79986 18.0307 2.39986C17.6207 2.05986 17.1007 1.85986 16.5307 1.85986H16.5407H16.5507Z" fill="#890F93"/>
<path d="M34.6505 1.19955C34.3105 0.919546 33.8305 0.939547 33.5305 1.23955L31.5105 3.25955C31.1505 3.61955 31.1905 4.21955 31.6105 4.53955C31.6705 4.57955 32.9605 6.58955 33.0105 6.62955C37.1905 9.98955 38.3805 14.3195 38.4505 19.5395C38.5205 24.8295 36.1105 30.7095 31.9205 34.0395C31.5205 34.3595 31.4905 34.9595 31.8605 35.3195L33.4105 37.5095L33.9305 37.3396C34.2405 37.6496 34.7305 37.6595 35.0605 37.3796L35.0905 37.3595C40.2105 33.1795 43.1305 26.1096 43.0405 19.4496C42.9505 12.7896 39.9805 5.53955 34.7505 1.27955L34.6605 1.19955H34.6505Z" fill="#890F93"/>
<path d="M27.2708 8.21957C27.1208 8.10957 26.9408 8.05957 26.7708 8.05957C26.5508 8.05957 26.3308 8.13957 26.1808 8.30957L24.1608 10.4096C23.9208 10.6496 23.9208 10.9396 23.9308 11.0796C23.9508 11.1796 23.9708 11.3296 24.0808 11.4896C24.1308 11.5596 25.6108 13.7496 25.7008 13.8096C28.2608 15.5496 28.3708 16.2396 28.4108 19.2296C28.4508 22.2196 26.9608 25.1396 24.5208 26.7496C24.2208 26.9696 24.1608 27.2396 24.1508 27.3796C24.1408 27.5296 24.1508 27.8096 24.3908 28.0496L25.9608 30.3096C26.2608 30.6096 27.2208 30.4996 27.5508 30.2496C30.9608 27.6696 32.9608 23.5496 32.9008 19.2296C32.8408 14.9096 30.7308 10.7396 27.2508 8.20957H27.2608L27.2708 8.21957Z" fill="#890F93"/>
<path d="M18.1605 4.38965C17.5705 4.38965 16.9805 4.63965 16.5705 5.05965L7.60054 14.1096H6.19054C4.17054 14.1096 2.59054 15.6996 2.62054 17.7096L2.74054 26.0796C2.77054 28.0896 4.39054 29.6796 6.41054 29.6796H7.82054L17.0305 38.7196C17.4605 39.1396 18.0405 39.3896 18.6405 39.3896C19.9005 39.3896 20.9005 38.3797 20.8905 37.1297L20.4605 6.56965C20.4405 5.39965 19.4205 4.38965 18.1505 4.38965H18.1605Z" fill="white"/>
<path d="M36.3108 3.56988L36.2809 3.53988C35.9409 3.25988 35.4609 3.27988 35.1609 3.57988L33.1409 5.59988C32.7809 5.95988 32.8208 6.55988 33.2408 6.87988C37.5108 10.2099 40.0209 16.5899 40.0909 21.8799C40.1609 27.1699 37.7508 33.0499 33.5608 36.3799C33.1608 36.6999 33.1309 37.2999 33.5009 37.6599L35.5709 39.6799C35.8809 39.9899 36.3709 39.9999 36.7009 39.7199L36.7309 39.6999C41.8509 35.5199 44.7709 28.4499 44.6809 21.7899C44.5909 15.1299 41.5608 7.80988 36.3308 3.54988V3.56988H36.3108Z" fill="white"/>
<path d="M28.9007 10.5599C28.7507 10.4499 28.5707 10.3999 28.4007 10.3999C28.1807 10.3999 27.9607 10.4799 27.8107 10.6499L25.7907 12.7499C25.5507 12.9899 25.5507 13.2799 25.5607 13.4199C25.5707 13.5599 25.6307 13.8399 25.9107 14.0299C28.4707 15.7699 30.0007 18.5799 30.0407 21.5699C30.0807 24.5599 28.5907 27.4799 26.1507 29.0899C25.8507 29.3099 25.7907 29.5799 25.7807 29.7199C25.7707 29.8699 25.7807 30.1499 26.0207 30.3899L28.1007 32.4999C28.4007 32.7999 28.8607 32.8399 29.1907 32.5899C32.6007 30.0099 34.6007 25.8899 34.5407 21.5699C34.4807 17.2499 32.3707 13.0799 28.8907 10.5499H28.9007V10.5599Z" fill="white"/>
</svg>
