<svg width="46" height="41" viewBox="0 0 46 41" fill="none" xmlns="http://www.w3.org/2000/svg">
<path d="M40.7804 1.00977H37.7804C37.4704 1.00977 37.2104 1.17977 37.1104 1.44977L33.0304 12.2798L31.4804 3.62977L29.7404 1.71977C29.3704 1.24977 28.9104 1.00977 28.4904 1.00977H25.2804C24.7504 1.00977 24.4404 1.47977 24.6104 1.99977L30.4204 19.1798L24.0504 36.0898C23.9204 36.4298 24.0704 36.8298 24.3404 37.0798C24.5204 37.2398 26.7704 39.4998 26.8704 39.5598L28.0004 37.3498C28.3104 37.3498 28.5704 37.1798 28.6704 36.9098L32.7504 26.0798L36.3304 36.6398C36.3904 36.8398 36.5604 36.9998 36.7104 37.1498C37.0504 37.4898 39.1004 39.5998 39.1604 39.5998L40.5104 37.3498C41.0404 37.3498 41.3504 36.8798 41.1804 36.3598L35.3704 19.1798L44.1204 3.91977C44.1204 3.91977 41.7804 1.67977 41.5804 1.42977C41.3904 1.17977 41.1004 1.00977 40.7804 1.00977Z" fill="#A714AF"/>
<path d="M16.5306 1.02002C17.1106 1.02002 17.6306 1.23002 18.0306 1.56002C18.5206 1.97002 20.3806 4.56002 20.3906 5.20002V5.28002C20.4106 5.42002 20.4306 5.57002 20.4406 5.72002L20.9106 36.28C20.9206 37.53 19.9306 38.54 18.6706 38.54C18.0706 38.54 17.4906 38.29 17.0606 37.87L7.83061 28.83H6.42061C4.97061 28.83 3.74061 28.01 3.14061 26.81C2.69061 26.12 1.77061 24.72 1.73061 24.66C1.36061 24.1 1.14061 23.43 1.14061 22.71L1.01061 14.34C0.98061 12.33 2.55061 10.74 4.57061 10.74H5.98061L14.9406 1.69002C15.3506 1.27002 15.9406 1.02002 16.5306 1.02002ZM16.3606 0.0200195C15.5306 0.0200195 14.7306 0.35002 14.1606 0.94002L5.45061 9.74002H4.41061C1.90061 9.74002 -0.0393925 11.69 0.000607521 14.19L0.140607 22.55C0.150607 23.45 0.420608 24.33 0.930608 25.09L1.13061 25.41C1.43061 25.86 1.96061 26.68 2.28061 27.19C3.12061 28.8 4.80061 29.83 6.59061 29.83H7.54061L16.4106 38.52C17.0806 39.17 17.9606 39.54 18.8406 39.54C20.5906 39.54 21.9506 38.18 21.9306 36.44L21.4606 5.88002C21.4606 5.71002 21.4406 5.54002 21.4006 5.36002C21.3806 4.18002 19.1106 1.26002 18.6006 0.840019C17.9606 0.310019 17.1606 0.0200195 16.3506 0.0200195H16.3606Z" fill="#D93DEA"/>
<path d="M16.5305 1.02002C15.9405 1.02002 15.3505 1.27002 14.9405 1.69002L5.98051 10.74H4.57051C2.55051 10.74 0.970509 12.33 1.01051 14.34L1.14051 22.71C1.15051 23.43 1.38051 24.1 1.73051 24.66C1.78051 24.74 3.33051 27.12 3.38051 27.19C4.05051 28.06 3.61051 26.31 4.80051 26.31H6.21051L15.4405 35.35C15.8705 35.77 16.4505 36.02 17.0505 36.02C18.3105 36.02 19.3105 35.01 19.2905 33.76L20.3705 5.20002C20.3705 4.56002 18.5005 1.96002 18.0105 1.56002C17.6005 1.22002 17.0805 1.02002 16.5105 1.02002H16.5205H16.5305Z" fill="#710A7C"/>
<path d="M45.1806 3.74C45.1806 3.74 42.4906 1.08 42.3206 0.88C41.9206 0.35 41.2606 0.00999999 40.6006 0.00999999H37.6006C36.9206 0.00999999 36.3606 0.38 36.1406 0.97L33.8606 7.01L32.8306 3.97C32.6906 3.55 32.4106 3.17 32.0406 2.89L30.4606 1.15C29.8806 0.43 29.0706 0 28.3106 0H25.1006C24.5506 0 24.0806 0.24 23.8006 0.65C23.5206 1.07 23.4606 1.61 23.6506 2.15L29.3506 18.99L23.0906 35.59C22.8306 36.29 23.0806 37.15 23.7306 37.74C23.8006 37.81 24.1006 38.11 24.4706 38.47C24.9606 38.96 25.5706 39.56 25.9306 39.91C26.3606 40.43 26.9906 40.75 27.6206 40.75H30.6206C31.3006 40.75 31.8606 40.38 32.0806 39.79L34.3606 33.75L35.3906 36.79C35.5506 37.25 35.8506 37.56 36.0306 37.75L36.3906 38.12C38.3806 40.15 38.7306 40.51 39.0906 40.58C39.3506 40.7 39.6306 40.76 39.9006 40.76H43.1106C43.6606 40.76 44.1306 40.52 44.4106 40.11C44.6906 39.69 44.7506 39.15 44.5606 38.61L38.8606 21.77L45.1206 5.17C45.2306 4.87 45.4506 4.14 45.1806 3.74Z" fill="#710A7C"/>
<path d="M18.1404 3.5498C17.5504 3.5498 16.9604 3.7998 16.5504 4.2198L7.59037 13.2698H6.18037C4.16037 13.2698 2.58037 14.8598 2.62037 16.8698L2.75037 25.2398C2.78037 27.2498 4.41037 28.8398 6.43037 28.8398H7.84037L17.0704 37.8798C17.5004 38.2998 18.0804 38.5498 18.6804 38.5498C19.9404 38.5498 20.9404 37.5398 20.9204 36.2898L20.4504 5.7298C20.4304 4.55981 19.4104 3.5498 18.1404 3.5498Z" fill="#EFC6F4"/>
<path d="M40.7806 1.00977C41.1005 1.00977 41.4006 1.17977 41.5806 1.42977C41.7606 1.66977 44.0806 3.95977 44.0806 3.95977C44.2106 4.17977 44.2506 4.43977 44.1606 4.67977L37.7906 21.5898L43.6005 38.7698C43.7806 39.2898 43.4606 39.7598 42.9306 39.7598H39.7206C39.5206 39.7598 39.3305 39.6898 39.1705 39.5698L39.1506 39.5898C39.0906 39.5898 37.0406 37.4798 36.7006 37.1398C36.5506 36.9898 36.4006 36.8398 36.3206 36.6298L34.3306 30.7398L31.1006 39.3098C31.0006 39.5798 30.7506 39.7498 30.4306 39.7498H27.4306C27.1006 39.7498 26.8006 39.5698 26.6206 39.3198C26.0106 38.7398 24.4806 37.1998 24.3306 37.0698C24.0506 36.8198 23.9106 36.4298 24.0406 36.0798L30.4106 19.1698L24.6006 1.99977C24.4206 1.47977 24.7406 1.00977 25.2706 1.00977H28.4806C28.9006 1.00977 29.3606 1.24977 29.7306 1.71977L31.6206 3.71977C31.6806 3.79977 31.8005 3.90977 31.8805 4.13977L33.8706 10.0298L37.1006 1.45977C37.2006 1.18977 37.4506 1.01977 37.7706 1.01977H40.7706M40.6005 0.00976562H37.6006C36.9206 0.00976562 36.3606 0.379766 36.1406 0.969766L33.8606 7.00977L32.8306 3.96977C32.6906 3.54977 32.5006 3.18977 32.1706 2.87977L30.4506 1.14977C29.8706 0.439766 29.0606 0.00976562 28.3006 0.00976562H25.0906C24.5406 0.00976562 24.0606 0.249765 23.7806 0.659765C23.5006 1.07977 23.4405 1.61977 23.6305 2.15977L29.3306 18.9998L23.0706 35.5998C22.8106 36.2998 23.0606 37.1598 23.7106 37.7498C23.7806 37.8198 24.0806 38.1198 24.4506 38.4798C24.9406 38.9698 25.5506 39.5698 25.9106 39.9198C26.3406 40.4398 26.9706 40.7598 27.6006 40.7598H30.6006C31.2806 40.7598 31.8405 40.3898 32.0605 39.7998L34.3406 33.7598L35.3706 36.7998C35.5306 37.2598 35.8306 37.5698 36.0106 37.7598L36.3706 38.1298C38.3606 40.1598 38.7106 40.5198 39.0706 40.5898C39.3306 40.7098 39.6105 40.7698 39.8805 40.7698H43.0906C43.6406 40.7698 44.1105 40.5298 44.3906 40.1198C44.6706 39.6998 44.7306 39.1598 44.5406 38.6198L38.8406 21.7798L45.1005 5.17977C45.2106 4.87977 45.4306 4.14977 45.1606 3.74977C45.1606 3.74977 42.4706 1.08977 42.3006 0.889766C41.9106 0.349765 41.2506 0.00976562 40.5906 0.00976562H40.6005Z" fill="#D93DEA"/>
<path d="M43.2107 3.41992H40.2107C39.9007 3.41992 39.6407 3.58992 39.5407 3.85992L35.4607 14.6899L31.8807 4.12992C31.7407 3.71992 31.3407 3.41992 30.9207 3.41992H27.7107C27.1807 3.41992 26.8707 3.88992 27.0407 4.40992L32.8507 21.5899L26.4807 38.4999C26.2707 39.0699 26.8007 39.7599 27.4507 39.7599H30.4507C30.7607 39.7599 31.0207 39.5899 31.1207 39.3199L35.2007 28.4899L38.7807 39.0499C38.9207 39.4599 39.3207 39.7599 39.7407 39.7599H42.9507C43.4807 39.7599 43.7907 39.2899 43.6207 38.7699L37.8107 21.5899L44.1807 4.67992C44.3907 4.10992 43.8607 3.41992 43.2107 3.41992Z" fill="#EFC6F4"/>
</svg>
