<svg width="28" height="29" viewBox="0 0 28 29" fill="none" xmlns="http://www.w3.org/2000/svg">
<path d="M10.975 27.3933L10.3937 22.4608L6.48286 25.5436L2.50161 21.5623V21.0515L4.9943 17.8717L0.968994 17.4049V10.975L5.00311 10.4993L2.50161 7.32843V6.81756L6.47406 2.83629L10.3849 5.91032L10.9574 0.977783H16.1277L16.7091 5.91032L20.6199 2.82749L24.6011 6.79994V7.31081L22.0996 10.4905L26.1338 10.9574V17.3873L22.1261 17.8717L24.6276 21.0426V21.5535L20.6463 25.5348L16.7355 22.4608L16.163 27.3933H10.9838H10.975ZM13.547 10.8341C11.6885 10.8341 10.059 12.1553 9.68021 13.9697L9.63617 14.1723L9.68021 14.3749C10.0678 16.1894 11.6973 17.5106 13.547 17.5106C15.3967 17.5106 17.0262 16.1894 17.4137 14.3749L17.4578 14.1723L17.4137 13.9697C17.0262 12.1553 15.3967 10.8341 13.547 10.8341Z" fill="#830789"/>
<path d="M15.2644 1.93778L15.5375 4.29836L15.9427 7.74232L18.6644 5.59315L20.5317 4.12219L23.5177 7.10814L22.399 8.53505L20.2586 11.2568L23.7026 11.6531L25.156 11.8205V16.524L23.7114 16.7002L20.2851 17.1141L22.4166 19.827L23.5353 21.254L20.5405 24.2487L18.6732 22.7778L15.9515 20.6374L15.5551 24.0814L15.2821 26.4331H11.8293L11.5562 24.0726L11.1511 20.6286L8.42936 22.7778L6.56205 24.2487L3.56729 21.254L4.68592 19.827L6.82628 17.1053L3.38232 16.709L1.92898 16.5416V11.8381L3.38232 11.6619L6.81748 11.2568L4.67711 8.53505L3.55848 7.11695L6.54443 4.12219L8.41174 5.59315L11.1335 7.73352L11.5298 4.28955L11.8029 1.93778H15.2468M13.5469 18.4794C15.8546 18.4794 17.8805 16.8411 18.3649 14.5774L18.453 14.1722L18.3649 13.7671C17.8805 11.5034 15.8546 9.86508 13.5469 9.86508C11.2391 9.86508 9.21328 11.5034 8.72884 13.7671L8.64076 14.1722L8.72884 14.5774C9.21328 16.8411 11.2391 18.4794 13.5469 18.4794ZM16.9908 0H10.0941L9.62727 4.06934L6.4035 1.53261L1.53262 6.4123V7.66305L3.17092 9.74176L0 10.1205V18.2768L3.16212 18.6468L1.53262 20.7255V21.9762L6.41231 26.8471L9.63607 24.3104L10.1117 28.3797H17.0173L17.4841 24.3104L20.7079 26.8471L25.5875 21.9674V20.7167L23.9492 18.638L27.1025 18.2592V10.1117L23.9404 9.74176L25.5699 7.66305V6.4123L20.6902 1.54142L17.4665 4.07815L16.9908 0.0088081V0ZM13.5469 16.5416C12.1376 16.5416 10.9133 15.5375 10.6226 14.1722C10.9133 12.807 12.1376 11.8029 13.5469 11.8029C14.9562 11.8029 16.1805 12.807 16.4712 14.1722C16.1805 15.5375 14.9562 16.5416 13.5469 16.5416Z" fill="#830789"/>
<path d="M11.6443 26.6356L11.2038 22.8482L10.922 22.7513C10.5521 22.628 10.1821 22.4694 9.82098 22.2932L9.54793 22.1611L6.54437 24.5305L3.83147 21.8176L6.19205 18.814L6.05112 18.541C5.87495 18.1887 5.72521 17.8275 5.60189 17.4488L5.505 17.1581L1.71753 16.7177V12.8862L5.505 12.437L5.60189 12.1551C5.73401 11.7852 5.88376 11.4152 6.05992 11.0629L6.19205 10.7899L3.82267 7.78629L6.52675 5.08221L9.53031 7.44278L9.80336 7.30185C10.1469 7.12569 10.5168 6.97595 10.8956 6.85264L11.1862 6.75575L11.6266 2.96826H15.4494L15.8898 6.75575L16.1716 6.85264C16.5416 6.97595 16.9115 7.13449 17.2726 7.31066L17.5457 7.44278L20.5492 5.0734L23.2533 7.77749L20.8928 10.7811L21.0337 11.0541C21.2099 11.4064 21.3596 11.7676 21.4829 12.1463L21.5798 12.437L25.3673 12.8774V16.7089L21.5974 17.1669L21.5005 17.4488C21.3684 17.8187 21.2187 18.1887 21.0425 18.541L20.9104 18.814L23.2798 21.8176L20.5757 24.5305L17.5721 22.1699L17.2991 22.3021C16.9467 22.4782 16.5856 22.628 16.2069 22.7513L15.9162 22.8482L15.4758 26.6356H11.6443ZM13.5468 10.0764C10.9484 10.0764 8.82566 12.1903 8.82566 14.7975C8.82566 17.4047 10.9396 19.5187 13.5468 19.5187C16.154 19.5187 18.268 17.4047 18.268 14.7975C18.268 12.1903 16.154 10.0764 13.5468 10.0764Z" fill="white"/>
<path d="M15.0357 3.45276L15.3968 6.51798L15.4673 7.11693L16.0398 7.31071C16.3921 7.43402 16.7444 7.57495 17.0791 7.74231L17.6164 8.01536L18.0921 7.63661L20.5231 5.71644L22.6282 7.82158L20.7169 10.2526L20.3469 10.7283L20.62 11.2655C20.7873 11.5914 20.9283 11.9438 21.0428 12.2873L21.2366 12.8686L21.8443 12.9391L24.9095 13.2914V16.2774L21.8619 16.6473L21.2718 16.7178L21.078 17.2815C20.9547 17.6338 20.8138 17.9861 20.6464 18.3208L20.3734 18.8581L20.7433 19.3338L22.6547 21.7648L20.5407 23.8788L18.1097 21.9674L17.634 21.5975L17.0967 21.8705C16.7708 22.0379 16.4185 22.1788 16.075 22.2933L15.4937 22.4871L15.4232 23.0948L15.0709 26.1601H12.0849L11.7238 23.0948L11.6533 22.4959L11.0808 22.3021C10.7285 22.1788 10.3762 22.0379 10.0415 21.8705L9.50417 21.5975L9.02852 21.9674L6.59749 23.8788L4.48355 21.7648L6.39491 19.3338L6.76485 18.8581L6.4918 18.3208C6.32444 17.9949 6.18352 17.6426 6.06901 17.2991L5.87523 16.7178L5.26747 16.6473L2.20224 16.295V13.309L5.26747 12.9479L5.85761 12.8774L6.05139 12.3137C6.1747 11.9614 6.31563 11.6091 6.48298 11.2744L6.75604 10.7371L6.38609 10.2614L4.46593 7.83039L6.57107 5.72525L9.0021 7.63661L9.47774 8.01536L10.015 7.74231C10.3409 7.57495 10.6845 7.43402 11.0368 7.31952L11.6181 7.13455L11.6886 6.52679L12.0409 3.46157H15.0092M13.5471 19.9944C16.4097 19.9944 18.7439 17.6602 18.7439 14.7976C18.7439 11.935 16.4097 9.60082 13.5471 9.60082C10.6844 9.60082 8.35031 11.935 8.35031 14.7976C8.35031 17.6602 10.6844 19.9944 13.5471 19.9944ZM15.8812 2.50148H11.2129L10.7637 6.41228C10.3674 6.5444 9.9798 6.70295 9.60986 6.88792L6.50942 4.45688L3.20638 7.75992L5.64621 10.8516C5.46124 11.2215 5.30269 11.6091 5.16176 12.0054L1.25098 12.4723V17.1494L5.16176 17.5986C5.29389 17.9949 5.45244 18.3825 5.63741 18.7524L3.20638 21.8529L6.50942 25.1559L9.60986 22.7161C9.9798 22.9011 10.3674 23.0684 10.7637 23.2005L11.2217 27.1113H15.8988L16.3481 23.2005C16.7444 23.0684 17.132 22.9099 17.5019 22.7249L20.6024 25.1559L23.9054 21.8529L21.4656 18.7524C21.6505 18.3825 21.8091 17.9949 21.95 17.5986L25.8432 17.1317V12.4546L21.9324 12.0054C21.8003 11.6091 21.6417 11.2215 21.4568 10.8516L23.8878 7.75111L20.5848 4.44808L17.4843 6.88792C17.1144 6.70295 16.7268 6.5356 16.3304 6.40347L15.8724 2.49268L15.8812 2.50148ZM13.5471 19.0343C11.2041 19.0343 9.30158 17.1317 9.30158 14.7888C9.30158 12.4458 11.2041 10.5433 13.5471 10.5433C15.89 10.5433 17.7926 12.4458 17.7926 14.7888C17.7926 17.1317 15.89 19.0343 13.5471 19.0343Z" fill="white"/>
</svg>
