<svg width="46" height="41" viewBox="0 0 46 41" fill="none" xmlns="http://www.w3.org/2000/svg">
<path d="M16.5603 1.85986C17.1403 1.85986 17.6603 2.06986 18.0603 2.39986C18.5503 2.80986 20.4103 5.39986 20.4203 6.03986V6.11986C20.4503 6.25986 20.4603 6.40986 20.4703 6.55986L20.9003 37.1199C20.9103 38.3699 19.9103 39.3799 18.6503 39.3799C18.0503 39.3799 17.4703 39.1299 17.0403 38.7099L7.83034 29.6699H6.42034C4.97034 29.6699 3.74034 28.8499 3.15034 27.6499C2.70034 26.9599 1.79034 25.5599 1.75034 25.4999C1.38034 24.9399 1.16034 24.2699 1.16034 23.5499L1.04034 15.1799C1.01034 13.1699 2.59034 11.5799 4.61034 11.5799H6.02034L14.9703 2.52986C15.3803 2.10986 15.9703 1.85986 16.5603 1.85986ZM16.3903 0.859863C15.5603 0.859863 14.7603 1.18986 14.1903 1.77986L5.46034 10.5799H4.42034C1.91034 10.5799 -0.0296567 12.5299 0.00034326 15.0299L0.130343 23.3899C0.140343 24.2899 0.410343 25.1699 0.910343 25.9299L1.11034 26.2499C1.41034 26.6999 1.94034 27.5199 2.26034 28.0299C3.09034 29.6399 4.78034 30.6699 6.57034 30.6699H7.52034L16.3703 39.3599C17.0403 40.0099 17.9203 40.3799 18.8003 40.3799C20.5503 40.3799 21.9103 39.0199 21.8903 37.2799L21.4603 6.71986C21.4603 6.54986 21.4403 6.37986 21.4003 6.19986C21.3803 5.01986 19.1103 2.09986 18.6003 1.67986C17.9603 1.14986 17.1603 0.859863 16.3503 0.859863H16.3603H16.3903Z" fill="#D93DEA"/>
<path d="M34.1106 1C34.3006 1 34.4906 1.07 34.6506 1.2L34.7206 1.27C36.5306 2.74 38.0206 4.53 39.2806 6.58C42.6706 10.83 44.6006 16.52 44.6706 21.79C44.7606 28.45 41.8406 35.52 36.7206 39.7L36.6906 39.72C36.5306 39.85 36.3406 39.92 36.1406 39.92C35.9306 39.92 35.7206 39.84 35.5606 39.68L33.4906 37.66C33.3906 37.57 33.3306 37.46 33.2906 37.34L31.8606 35.32C31.4906 34.96 31.5306 34.36 31.9206 34.04C36.1106 30.71 38.5206 24.83 38.4506 19.54C38.3906 15.02 37.4806 11.18 34.5306 8.04C34.1206 7.62 33.6906 7.23 33.2306 6.88C33.1606 6.83 33.1206 6.76 33.0806 6.7C33.0606 6.68 33.0306 6.66 33.0006 6.63C32.9406 6.59 31.6506 4.58 31.6006 4.54C31.1906 4.22 31.1406 3.62 31.5006 3.26L33.5206 1.24C33.6706 1.08 33.8906 1 34.1006 1M33.9406 0C33.4806 0 33.0606 0.17 32.7506 0.48L30.7306 2.5C30.3506 2.88 30.1906 3.42 30.2706 3.98C30.3406 4.41 30.5606 4.83 30.9006 5.14C31.0206 5.32 31.2606 5.68 31.4906 6.04C32.1606 7.06 32.2506 7.19 32.3906 7.31C32.4706 7.41 32.5706 7.52 32.7006 7.63C33.0706 7.92 33.4606 8.27 33.8706 8.68C36.2706 11.23 37.3706 14.54 37.4406 19.39C37.5106 24.65 35.0106 30.21 31.2106 33.23C30.7906 33.57 30.5606 34.08 30.5906 34.64C30.6206 35.09 30.8006 35.53 31.1106 35.88L32.4106 37.72C32.5206 37.95 32.6606 38.15 32.8406 38.33L34.9106 40.35C35.2806 40.72 35.8006 40.94 36.3106 40.94C36.7206 40.94 37.1006 40.8 37.3906 40.55L37.4206 40.53C42.5206 36.36 45.7606 29.07 45.6706 21.96C45.5906 16.37 43.5106 10.45 40.0706 6.12C38.7206 3.91 37.1006 2.04 35.2606 0.55L35.2206 0.52C34.8106 0.18 34.3606 0.0100002 33.9006 0.0100002H33.9206L33.9406 0Z" fill="#D93DEA"/>
<path d="M26.7807 8.06002C26.9507 8.06002 27.1307 8.11002 27.2807 8.22002H27.2707C28.8707 9.37002 30.1507 10.88 31.1007 12.58C33.2507 15.04 34.5007 18.26 34.5607 21.57C34.6207 25.89 32.6207 30.01 29.2107 32.59C29.0707 32.7 28.9007 32.75 28.7307 32.75C28.5107 32.75 28.2907 32.66 28.1307 32.5L26.0507 30.39C25.9807 30.32 25.9407 30.25 25.8907 30.18L24.4107 28.05C24.1707 27.81 24.1507 27.53 24.1707 27.38C24.1907 27.24 24.2407 26.97 24.5407 26.75C26.9907 25.14 28.4707 22.22 28.4307 19.23C28.4107 17.54 28.3407 16.59 27.8407 15.76C27.2907 15.11 26.6507 14.52 25.9307 14.03C25.8407 13.97 25.7807 13.89 25.7207 13.82C25.6307 13.76 24.1507 11.57 24.1007 11.5C23.9907 11.35 23.9607 11.19 23.9507 11.09C23.9407 10.95 23.9407 10.66 24.1807 10.42L26.2007 8.32002C26.3507 8.15002 26.5707 8.07002 26.7907 8.07002M26.6107 7.06002C26.1207 7.06002 25.6807 7.25002 25.3807 7.58002L23.3707 9.66002C23.0407 10 22.8707 10.48 22.9207 11.01C22.9607 11.34 23.0807 11.67 23.2707 11.95L23.3507 12.07C24.4307 13.65 24.7907 14.17 24.9807 14.39C25.1107 14.55 25.2507 14.69 25.4207 14.8C26.0007 15.2 26.5407 15.67 27.0207 16.23C27.3107 16.78 27.3707 17.54 27.3907 19.06C27.4207 21.76 26.0307 24.44 23.8607 25.87C23.5507 26.09 23.2107 26.46 23.1407 27.09C23.0907 27.63 23.2707 28.16 23.6307 28.57L25.0207 30.57C25.1207 30.73 25.2207 30.88 25.3507 31.01L27.4207 33.11C27.8207 33.51 28.3507 33.73 28.8607 33.73C29.2407 33.73 29.5907 33.61 29.8707 33.39C33.4907 30.66 35.6107 26.29 35.5307 21.69C35.4707 18.18 34.1807 14.77 31.8707 12.07C30.8007 10.19 29.4007 8.62002 27.7407 7.40002C27.4007 7.15002 26.9907 7.02002 26.5807 7.02002L26.6207 7.06002H26.6107Z" fill="#D93DEA"/>
<path d="M16.5604 1.85986C15.9704 1.85986 15.3804 2.10986 14.9704 2.52986L6.00044 11.5799H4.59044C2.57044 11.5799 0.99044 13.1699 1.02044 15.1799L1.14044 23.5499C1.15044 24.2699 1.38044 24.9399 1.73044 25.4999C1.78044 25.5799 3.33044 27.9599 3.38044 28.0299C4.05044 28.8999 3.61044 27.1499 4.80044 27.1499H6.21044L15.4204 36.1899C15.8504 36.6099 16.4304 36.8599 17.0304 36.8599C18.2904 36.8599 19.2904 35.8499 19.2804 34.5999L20.4004 6.03986C20.4004 5.39986 18.5304 2.79986 18.0404 2.39986C17.6304 2.05986 17.1104 1.85986 16.5404 1.85986H16.5504H16.5604Z" fill="#710A7C"/>
<path d="M34.6505 1.20003C34.3105 0.920035 33.8305 0.940035 33.5305 1.24003L31.5105 3.26003C31.1505 3.62003 31.1905 4.22003 31.6105 4.54003C31.6705 4.58003 32.9605 6.59003 33.0105 6.63003C37.1905 9.99003 38.3805 14.32 38.4505 19.54C38.5205 24.83 36.1105 30.71 31.9205 34.04C31.5205 34.36 31.4905 34.96 31.8605 35.32L33.4105 37.51L33.9305 37.34C34.2405 37.65 34.7305 37.66 35.0605 37.38L35.0905 37.36C40.2105 33.18 43.1305 26.11 43.0405 19.45C42.9505 12.79 39.9805 5.54003 34.7505 1.28003L34.6605 1.20003H34.6505Z" fill="#710A7C"/>
<path d="M27.2703 8.21957C27.1203 8.10957 26.9403 8.05957 26.7703 8.05957C26.5503 8.05957 26.3303 8.13957 26.1803 8.30957L24.1603 10.4096C23.9203 10.6496 23.9203 10.9396 23.9303 11.0796C23.9503 11.1796 23.9703 11.3296 24.0803 11.4896C24.1303 11.5596 25.6103 13.7496 25.7003 13.8096C28.2603 15.5496 28.3703 16.2396 28.4103 19.2296C28.4503 22.2196 26.9603 25.1396 24.5203 26.7496C24.2203 26.9696 24.1603 27.2396 24.1503 27.3796C24.1403 27.5296 24.1503 27.8096 24.3903 28.0496L25.9603 30.3096C26.2603 30.6096 27.2203 30.4996 27.5503 30.2496C30.9603 27.6696 32.9604 23.5496 32.9004 19.2296C32.8404 14.9096 30.7303 10.7396 27.2503 8.20957H27.2603L27.2703 8.21957Z" fill="#710A7C"/>
<path d="M18.1605 4.38965C17.5705 4.38965 16.9805 4.63965 16.5705 5.05965L7.60054 14.1096H6.19054C4.17054 14.1096 2.59054 15.6996 2.62054 17.7096L2.74054 26.0796C2.77054 28.0896 4.39054 29.6796 6.41054 29.6796H7.82054L17.0305 38.7196C17.4605 39.1396 18.0405 39.3896 18.6405 39.3896C19.9005 39.3896 20.9005 38.3797 20.8905 37.1297L20.4605 6.56965C20.4405 5.39965 19.4205 4.38965 18.1505 4.38965H18.1605Z" fill="#EFC6F4"/>
<path d="M36.3206 3.56988L36.2906 3.53988C35.9506 3.25988 35.4706 3.27988 35.1706 3.57988L33.1506 5.59988C32.7906 5.95988 32.8306 6.55988 33.2506 6.87988C37.5206 10.2099 40.0306 16.5899 40.1006 21.8799C40.1706 27.1699 37.7606 33.0499 33.5706 36.3799C33.1706 36.6999 33.1406 37.2999 33.5106 37.6599L35.5806 39.6799C35.8906 39.9899 36.3806 39.9999 36.7106 39.7199L36.7406 39.6999C41.8606 35.5199 44.7806 28.4499 44.6906 21.7899C44.6006 15.1299 41.5706 7.80988 36.3406 3.54988V3.56988H36.3206Z" fill="#EFC6F4"/>
<path d="M28.9105 10.5599C28.7605 10.4499 28.5805 10.3999 28.4105 10.3999C28.1905 10.3999 27.9705 10.4799 27.8205 10.6499L25.8005 12.7499C25.5605 12.9899 25.5605 13.2799 25.5705 13.4199C25.5805 13.5599 25.6405 13.8399 25.9205 14.0299C28.4805 15.7699 30.0105 18.5799 30.0505 21.5699C30.0905 24.5599 28.6005 27.4799 26.1605 29.0899C25.8605 29.3099 25.8005 29.5799 25.7905 29.7199C25.7805 29.8699 25.7905 30.1499 26.0305 30.3899L28.1105 32.4999C28.4105 32.7999 28.8705 32.8399 29.2005 32.5899C32.6105 30.0099 34.6105 25.8899 34.5505 21.5699C34.4905 17.2499 32.3805 13.0799 28.9005 10.5499H28.9105V10.5599Z" fill="#EFC6F4"/>
</svg>
