<svg width="23" height="23" viewBox="0 0 23 23" fill="none" xmlns="http://www.w3.org/2000/svg">
<path d="M18.0869 0.947266C18.561 0.522298 19.3896 0.80886 19.3896 1.52734V3.36621H21.4668C21.8111 3.36635 22.0803 3.58308 22.1904 3.85059C22.2995 4.11552 22.2648 4.48003 21.9863 4.72656L21.9883 4.72852C21.8015 4.89568 21.2042 5.43311 20.5713 6.00488L18.9424 7.48926L18.8467 7.5791L18.6543 7.75781L18.3926 7.77832L16.9131 7.89355L13.8359 10.8486C13.9809 11.2465 14.0576 11.6703 14.0576 12.0977C14.0576 14.1676 12.338 15.8164 10.2637 15.8164C9.99568 15.8164 9.73645 15.7841 9.5 15.7373H9.49902C7.60464 15.361 6.19457 13.5842 6.50098 11.5361V11.5352C6.54766 11.2277 6.64865 10.9381 6.77637 10.6807L6.77832 10.6777C7.77663 8.69065 9.59352 8.09529 11.1797 8.4873H11.1787C11.2984 8.51563 11.4148 8.55054 11.5273 8.58984L14.5762 5.66504L14.6797 4.3916L14.7354 3.70215H14.9971C15.0069 3.6919 15.0163 3.6807 15.0264 3.6709L15.0381 3.66016L15.0498 3.64844L18.0859 0.945312L18.0869 0.947266Z" fill="#8EFAFF" stroke="#150B60" stroke-width="1.5"/>
<path d="M10.3779 2.96924L10.9199 3.00439C11.9775 3.10171 12.8729 3.34792 13.5283 3.58154L13.8359 3.69678L13.8428 3.69873L13.8496 3.70166C14.4338 3.94494 14.5049 4.67363 14.1064 5.06104L14.1016 5.06592L12.3535 6.73389C12.1502 6.93147 11.862 7.01599 11.5771 6.94678L11.5703 6.9458V6.94482C11.5461 6.9387 11.5152 6.93085 11.4863 6.92334C11.4561 6.91546 11.4244 6.90769 11.3936 6.8999C11.3626 6.89208 11.3348 6.88478 11.3115 6.87939C11.2931 6.87514 11.2825 6.87242 11.2783 6.87158V6.87256C5.80999 5.96527 2.76907 12.0545 6.0918 15.7339C10.4327 20.0854 17.1003 15.525 15.5518 10.6401L15.5498 10.6343C15.4529 10.3204 15.5482 9.98995 15.7695 9.7749L15.7764 9.76904L17.418 8.21338L17.6348 8.00732H17.7861C18.1746 7.90291 18.609 8.08631 18.7881 8.47705C20.63 12.4968 19.3563 16.4411 16.6729 18.8687C13.9978 21.2882 9.89127 22.2326 6.04785 20.2993V20.2983C1.32129 17.9489 0.017413 13.5037 1.11426 9.70654C2.20154 5.94312 5.66147 2.78412 10.3779 2.96924Z" fill="#8EFAFF" stroke="#150B60" stroke-width="1.5"/>
</svg>
