<svg width="22" height="23" viewBox="0 0 22 23" fill="none" xmlns="http://www.w3.org/2000/svg">
<path d="M11.4639 4.59521C12.4835 4.59521 13.3035 5.42839 13.3037 6.44189V8.92236H15.3701C16.3914 8.92416 17.2069 9.76368 17.207 10.7729C17.207 11.7865 16.3868 12.6204 15.3672 12.6206H11.4639C10.4442 12.6206 9.62402 11.7866 9.62402 10.7729V6.44189C9.62426 5.42842 10.4443 4.59526 11.4639 4.59521Z" fill="#A6FBFF" stroke="#150B60" stroke-width="1.5"/>
<path d="M11 0.75C16.6592 0.75 21.2498 5.42065 21.25 11.0859C21.25 16.7505 16.7122 21.3714 11.0977 21.4297H11C5.34177 21.4297 0.75 16.7852 0.75 11.0898C0.750045 5.39454 5.3418 0.75 11 0.75ZM11 4.30078C7.30254 4.30078 4.28227 7.34238 4.28223 11.0898C4.28223 14.8373 7.30251 17.8799 11 17.8799C14.6977 17.8799 17.7178 14.8407 17.7178 11.0898C17.7177 7.33902 14.6977 4.30078 11 4.30078Z" fill="#A6FBFF" stroke="#150B60" stroke-width="1.5"/>
</svg>
