<svg width="58" height="58" viewBox="0 0 58 58" fill="none" xmlns="http://www.w3.org/2000/svg">
<path d="M18.4775 2.41016C25.7653 -0.411262 33.9045 -0.0898212 40.9443 3.25586L41.6221 3.58887L41.624 3.59082L42.3887 3.98438L42.3916 3.98633C42.5292 4.05841 42.66 4.13638 42.7852 4.2207L45.2363 1.79199V1.79102C46.374 0.666631 48.083 0.320631 49.5693 0.944336C51.0505 1.56589 52.0186 3.00938 52.0186 4.61426V5.21484H52.9551C54.5832 5.21496 56.0541 6.20721 56.6514 7.73145C57.2487 9.24482 56.8503 10.98 55.6592 12.0918H55.6582L54.4883 13.1807L54.4863 13.1826C54.0082 13.6225 53.5457 14.0723 53.0693 14.5449L53.4473 15.2871L53.8154 16.0137H53.7979C54.378 17.1938 54.9829 18.5362 55.4658 20.001L55.7051 20.7725L55.7061 20.7734C58.4052 30.2265 56.1297 40.215 49.6211 47.502L49.6201 47.5029C44.2673 53.4689 36.627 56.8896 28.6543 56.8896C27.2207 56.8896 25.7782 56.781 24.374 56.5723L23.7744 56.4766C15.54 55.0609 8.42792 50.0353 4.24316 42.7031V42.7021C0.0469036 35.3348 -0.661334 26.5848 2.32227 18.6953L2.60059 17.9893C5.55976 10.7453 11.1789 5.23145 18.4775 2.41016Z" fill="#0D1252" stroke="#5A45F4"/>
<path d="M38.9931 13.5532L38.7615 16.4837L31.1168 24.1167C30.3755 23.7229 29.5532 23.5144 28.7076 23.5144C25.893 23.5144 23.5996 25.8078 23.5996 28.634C23.5996 31.4602 25.8814 33.7536 28.7076 33.7536C31.5222 33.7536 33.8156 31.4602 33.8156 28.634C33.8156 27.7769 33.5956 26.9314 33.1902 26.1785L40.9043 18.4643L43.8347 18.2327L43.9969 18.0821C45.2247 16.9007 46.4293 15.6613 47.5876 14.4451L48.1551 13.8544C49.464 12.4992 50.5875 11.3641 51.7574 10.2753L52.9272 9.18653H48.0161V4.61133L39.0047 13.5532H38.9931Z" fill="#F1FF66"/>
<path d="M49.8923 17.086L49.4985 16.31L46.6376 19.2173L46.8345 19.6227C49.568 25.0666 49.6838 31.4139 47.1588 37.0548C44.6453 42.6492 39.8616 46.7611 34.0123 48.3248C27.1437 50.1665 19.974 48.3943 14.8196 43.5874C9.65371 38.769 7.3719 31.7151 8.7155 24.7191C10.7077 14.4104 20.4952 7.26382 31.0124 8.44527C32.8772 8.65376 34.8579 9.2329 37.2555 10.2638L37.6377 10.4259L40.5682 7.53023L39.7921 7.13641C33.6185 3.98589 26.3677 3.61524 19.9045 6.11713C13.4297 8.61901 8.50701 13.588 6.03988 20.0976C3.48008 26.8735 4.08239 34.3907 7.69622 40.7265C11.2869 47.0275 17.391 51.3363 24.4565 52.5525C25.858 52.7958 27.2711 52.9116 28.6611 52.9116C35.4949 52.9116 42.0044 50.0391 46.6607 44.85C52.2668 38.5837 54.2127 30.0008 51.8846 21.8697C51.3865 20.1439 50.6336 18.5455 49.8923 17.086Z" fill="#F1FF66"/>
<path d="M31.1398 18.4412C31.4989 18.5223 31.8811 18.6613 32.1938 18.7887L32.5645 18.9277L35.5528 16.032L34.742 15.6498C29.9699 13.3795 24.5376 13.9008 20.2056 17.0513C15.8737 20.2018 13.6961 25.2866 14.3911 30.661C15.144 36.4872 19.6728 41.4562 25.3947 42.7535C26.5067 43.0083 27.6186 43.1357 28.7074 43.1357C32.773 43.1357 36.6184 41.433 39.3983 38.2941C42.9542 34.2865 43.9851 28.831 42.155 23.6998L41.9581 23.1901C41.8539 22.9469 41.738 22.7037 41.6222 22.4488L41.2516 21.6728L38.3211 24.499L38.4717 24.8812C40.0933 29.0974 38.9118 33.7305 35.4718 36.6957C32.773 39.0238 28.1746 40.5412 23.3677 37.8076L23.2867 37.7613C18.0281 34.7266 17.2752 29.1553 18.8852 24.9623C20.5068 20.7346 24.9198 17.0744 31.1282 18.4412H31.1398Z" fill="#F1FF66"/>
</svg>
