<svg width="21" height="22" viewBox="0 0 21 22" fill="none" xmlns="http://www.w3.org/2000/svg">
<path d="M10.1914 0.75C11.3224 0.75 12.4212 1.07196 13.3613 1.67285C14.3005 2.27315 15.042 3.12307 15.4834 4.1377H15.4824C15.9228 5.14025 16.0396 6.25635 15.8086 7.33008L15.8096 7.33105C15.5874 8.40918 15.0284 9.38718 14.2256 10.1553L14.2217 10.1582C13.4179 10.9161 12.3982 11.4378 11.29 11.6484C10.1813 11.8592 9.0389 11.7482 7.99902 11.3379C6.95685 10.9266 6.05956 10.2252 5.4248 9.3291L5.42285 9.3252C4.78712 8.41644 4.44824 7.35564 4.44824 6.25879C4.44834 4.78553 5.06749 3.39088 6.13672 2.36426L6.13965 2.36133C7.14769 1.40382 8.46911 0.851895 9.86621 0.771484L9.8877 0.75H10.1914Z" fill="#8EFAFF" stroke="#150B60" stroke-width="1.5"/>
<mask id="path-2-outside-1_317_4488" maskUnits="userSpaceOnUse" x="-0.487305" y="9.74512" width="21" height="13" fill="black">
<rect fill="white" x="-0.487305" y="9.74512" width="21" height="13"/>
<path d="M10.191 20.362C5.32754 20.362 1.91216 18.8984 1.5127 18.2684C1.55264 16.9211 1.97207 15.6028 2.72106 14.4591C3.47005 13.3153 4.51863 12.3751 5.77693 11.7451C7.04522 12.6756 8.59313 13.17 10.191 13.17C11.7888 13.17 13.3367 12.6659 14.605 11.7451C15.8733 12.3848 16.9319 13.325 17.6808 14.4882C18.4298 15.6513 18.8393 16.9792 18.8692 18.3362C18.8692 19.0341 16.3227 20.3426 10.191 20.3426"/>
</mask>
<path d="M10.191 20.362C5.32754 20.362 1.91216 18.8984 1.5127 18.2684C1.55264 16.9211 1.97207 15.6028 2.72106 14.4591C3.47005 13.3153 4.51863 12.3751 5.77693 11.7451C7.04522 12.6756 8.59313 13.17 10.191 13.17C11.7888 13.17 13.3367 12.6659 14.605 11.7451C15.8733 12.3848 16.9319 13.325 17.6808 14.4882C18.4298 15.6513 18.8393 16.9792 18.8692 18.3362C18.8692 19.0341 16.3227 20.3426 10.191 20.3426" fill="#8EFAFF"/>
<path d="M1.5127 18.2684L0.0133542 18.2239L-0.00026834 18.6834L0.245867 19.0716L1.5127 18.2684ZM5.77693 11.7451L6.66424 10.5357L5.92509 9.99341L5.10536 10.4039L5.77693 11.7451ZM14.605 11.7451L15.2805 10.4058L14.4639 9.99392L13.7237 10.5313L14.605 11.7451ZM18.8692 18.3362H20.3692V18.3197L20.3689 18.3031L18.8692 18.3362ZM10.191 20.362V18.862C7.90555 18.862 5.97829 18.5175 4.60112 18.1124C3.91041 17.9092 3.37986 17.6972 3.02323 17.5192C2.84368 17.4296 2.73002 17.3594 2.66989 17.3166C2.57979 17.2526 2.67249 17.2963 2.77952 17.4651L1.5127 18.2684L0.245867 19.0716C0.452766 19.3979 0.739574 19.6252 0.931712 19.7618C1.15382 19.9197 1.41052 20.0672 1.68333 20.2034C2.23141 20.477 2.93357 20.749 3.75456 20.9905C5.40081 21.4747 7.61296 21.862 10.191 21.862V20.362ZM1.5127 18.2684L3.01204 18.3128C3.04361 17.2478 3.37552 16.1977 3.97594 15.2809L2.72106 14.4591L1.46619 13.6373C0.568628 15.008 0.061669 16.5943 0.0133542 18.2239L1.5127 18.2684ZM2.72106 14.4591L3.97594 15.2809C4.57957 14.3591 5.42676 13.598 6.4485 13.0864L5.77693 11.7451L5.10536 10.4039C3.6105 11.1523 2.36053 12.2716 1.46619 13.6373L2.72106 14.4591ZM5.77693 11.7451L4.88962 12.9545C6.42374 14.0801 8.2847 14.67 10.191 14.67V13.17V11.67C8.90156 11.67 7.66669 11.2712 6.66424 10.5357L5.77693 11.7451ZM10.191 13.17V14.67C12.1031 14.67 13.9599 14.0671 15.4863 12.9589L14.605 11.7451L13.7237 10.5313C12.7135 11.2648 11.4745 11.67 10.191 11.67V13.17ZM14.605 11.7451L13.9295 13.0844C14.9687 13.6086 15.8212 14.3708 16.4197 15.3003L17.6808 14.4882L18.942 13.6761C18.0425 12.2792 16.7778 11.1611 15.2805 10.4058L14.605 11.7451ZM17.6808 14.4882L16.4197 15.3003C17.0215 16.2348 17.3459 17.2939 17.3696 18.3693L18.8692 18.3362L20.3689 18.3031C20.3327 16.6646 19.8382 15.0678 18.942 13.6761L17.6808 14.4882ZM18.8692 18.3362H17.3692C17.3692 17.9646 17.5334 17.74 17.574 17.6889C17.6218 17.6288 17.634 17.6363 17.5492 17.6922C17.3819 17.8027 17.0242 17.9796 16.4047 18.1625C15.1803 18.5241 13.1628 18.8426 10.191 18.8426V20.3426V21.8426C13.3508 21.8426 15.6725 21.5068 17.2543 21.0397C18.0379 20.8083 18.7001 20.5272 19.2018 20.196C19.4517 20.0311 19.7106 19.8219 19.9216 19.5567C20.1255 19.3005 20.3692 18.8823 20.3692 18.3362H18.8692Z" fill="#150B60" mask="url(#path-2-outside-1_317_4488)"/>
</svg>
