<svg width="27" height="32" viewBox="0 0 27 32" fill="none" xmlns="http://www.w3.org/2000/svg">
<g clip-path="url(#clip0_59_22116)">
<path d="M24.2201 30.4899H2.70015C2.16015 30.4899 1.65015 30.2699 1.28015 29.8799C0.910151 29.4899 0.720151 28.9699 0.750151 28.4399C1.13015 21.7099 6.71015 16.4299 13.4602 16.4299C20.2102 16.4299 25.7902 21.7099 26.1702 28.4399C26.2002 28.9699 26.0102 29.4899 25.6402 29.8799C25.2701 30.2699 24.7502 30.4899 24.2201 30.4899ZM3.87015 27.4899H23.0402C22.2502 22.8899 18.2302 19.4199 13.4502 19.4199C8.67015 19.4199 4.66015 22.8799 3.86015 27.4899H3.87015Z" fill="#00DBFF"/>
<path d="M24.2198 29.89H2.69978C2.32978 29.89 1.96978 29.73 1.70978 29.46C1.45978 29.19 1.31978 28.83 1.33978 28.46C1.69978 22.04 7.01978 17.02 13.4498 17.02C19.8798 17.02 25.1998 22.05 25.5598 28.46C25.5798 28.82 25.4498 29.19 25.1898 29.46C24.9298 29.73 24.5798 29.89 24.1998 29.89H24.2198ZM3.18978 28.09H23.7398C23.1998 22.86 18.7798 18.83 13.4598 18.83C8.13978 18.83 3.72978 22.85 3.18978 28.09Z" fill="#72F2FF"/>
<path d="M24.22 29.39H2.69996C2.46996 29.39 2.23996 29.29 2.07996 29.12C1.91996 28.95 1.83996 28.72 1.84996 28.5C2.19996 22.35 7.29996 17.53 13.46 17.53C19.62 17.53 24.72 22.35 25.07 28.5C25.08 28.73 25 28.96 24.84 29.12C24.68 29.29 24.45 29.39 24.22 29.39ZM13.46 18.32C7.71996 18.32 2.96996 22.81 2.64996 28.54L24.22 28.59C24.22 28.59 24.26 28.58 24.26 28.57C23.95 22.81 19.2 18.32 13.46 18.32Z" fill="#CCFDFF"/>
<path d="M13.4599 19.35C8.3299 19.35 4.1499 15.18 4.1499 10.04C4.1499 4.89999 8.3299 0.73999 13.4599 0.73999C18.5899 0.73999 22.7699 4.90999 22.7699 10.05C22.7699 15.19 18.5999 19.36 13.4599 19.36V19.35ZM13.4599 3.73999C9.9799 3.73999 7.1499 6.56999 7.1499 10.05C7.1499 13.53 9.9799 16.36 13.4599 16.36C16.9399 16.36 19.7699 13.53 19.7699 10.05C19.7699 6.56999 16.9399 3.73999 13.4599 3.73999Z" fill="#00DBFF"/>
<path d="M13.46 18.7501C8.66 18.7501 4.75 14.8401 4.75 10.0401C4.75 5.24009 8.66 1.34009 13.46 1.34009C18.26 1.34009 22.17 5.25009 22.17 10.0501C22.17 14.8501 18.26 18.7601 13.46 18.7601V18.7501ZM13.46 3.14009C9.65 3.14009 6.55 6.24009 6.55 10.0501C6.55 13.8601 9.65 16.9601 13.46 16.9601C17.27 16.9601 20.37 13.8601 20.37 10.0501C20.37 6.24009 17.27 3.14009 13.46 3.14009Z" fill="#72F2FF"/>
<path d="M13.46 18.2501C8.93 18.2501 5.25 14.5701 5.25 10.0401C5.25 5.51009 8.94 1.84009 13.46 1.84009C17.98 1.84009 21.67 5.52009 21.67 10.0501C21.67 14.5801 17.99 18.2601 13.46 18.2601V18.2501ZM13.46 2.64009C9.38 2.64009 6.05 5.96009 6.05 10.0501C6.05 14.1401 9.37 17.4601 13.46 17.4601C17.55 17.4601 20.87 14.1401 20.87 10.0501C20.87 5.96009 17.55 2.64009 13.46 2.64009Z" fill="#CCFDFF"/>
<path d="M13.4601 0.75C18.5901 0.75 22.7701 4.92 22.7701 10.06C22.7701 13.19 21.2101 15.95 18.8401 17.64C22.9601 19.57 25.9001 23.63 26.1701 28.45C26.2001 28.98 26.0101 29.5 25.6401 29.89C25.2701 30.28 24.7501 30.5 24.2201 30.5H2.70011C2.16011 30.5 1.65011 30.28 1.28011 29.89C0.910109 29.5 0.720109 28.98 0.750109 28.45C1.02011 23.63 3.96011 19.57 8.08011 17.65C5.71011 15.96 4.15011 13.2 4.15011 10.07C4.16011 4.92 8.33011 0.75 13.4601 0.75ZM13.4601 16.36C16.9401 16.36 19.7701 13.53 19.7701 10.05C19.7701 6.57 16.9401 3.74 13.4601 3.74C9.98011 3.74 7.15011 6.57 7.15011 10.05C7.15011 13.53 9.98011 16.36 13.4601 16.36ZM3.88011 27.5H23.0501C22.2601 22.9 18.2401 19.43 13.4601 19.43C8.68011 19.43 4.67011 22.89 3.87011 27.5M13.4601 0C7.92011 0 3.41011 4.51 3.41011 10.06C3.41011 12.9 4.63011 15.61 6.73011 17.51C2.80011 19.77 0.260109 23.85 0.000108689 28.4C-0.0398913 29.13 0.220109 29.86 0.730109 30.4C1.24011 30.94 1.95011 31.25 2.70011 31.25H24.2201C24.9601 31.25 25.6801 30.94 26.1901 30.4C26.7001 29.87 26.9601 29.14 26.9201 28.4C26.6601 23.85 24.1201 19.77 20.2001 17.5C22.3001 15.6 23.5201 12.9 23.5201 10.05C23.5201 4.51 19.0101 0 13.4601 0ZM13.4601 15.61C10.4001 15.61 7.90011 13.12 7.90011 10.05C7.90011 6.98 10.3901 4.49 13.4601 4.49C16.5301 4.49 19.0201 6.98 19.0201 10.05C19.0201 13.12 16.5301 15.61 13.4601 15.61ZM4.81011 26.75C5.88011 22.9 9.38011 20.18 13.4601 20.18C17.5401 20.18 21.0501 22.89 22.1101 26.75H4.81011Z" fill="#2A1C7C"/>
</g>
<defs>
<clipPath id="clip0_59_22116">
<rect width="26.92" height="31.25" fill="white"/>
</clipPath>
</defs>
</svg>
