<svg width="15" height="17" viewBox="0 0 15 17" fill="none" xmlns="http://www.w3.org/2000/svg">
<path d="M7.44173 0C8.28948 0 9.11155 0.241027 9.81373 0.689837C10.5159 1.13865 11.0639 1.77031 11.3893 2.51832C11.7147 3.25803 11.8004 4.08085 11.6291 4.87042C11.4664 5.65999 11.0554 6.38308 10.456 6.95655C9.85654 7.52172 9.09442 7.91235 8.26379 8.07027C7.43317 8.22818 6.57685 8.14507 5.79761 7.83755C5.01836 7.53003 4.35043 7.00642 3.87946 6.34152C3.40849 5.6683 3.16016 4.88704 3.16016 4.08085C3.16016 3.00038 3.614 1.96978 4.41038 1.20514C5.21531 0.440499 6.29427 0.0166226 7.43317 0.00831129L7.44173 0Z" fill="#BEBAFF"/>
<path d="M7.44138 16.1734C3.27112 16.1734 0.342526 14.9184 0 14.3782C0.0342526 13.2229 0.393905 12.0926 1.03614 11.1118C1.67838 10.1311 2.57751 9.3249 3.65647 8.78467C4.74399 9.58255 6.07128 10.0064 7.44138 10.0064C8.81149 10.0064 10.1388 9.57424 11.2263 8.78467C12.3138 9.33321 13.2215 10.1394 13.8637 11.1368C14.506 12.1341 14.8571 13.2728 14.8828 14.4363C14.8828 15.0348 12.6992 16.1568 7.44138 16.1568" fill="#BEBAFF"/>
</svg>
