<svg width="40" height="704" viewBox="0 0 40 704" fill="none" xmlns="http://www.w3.org/2000/svg">
<path d="M39.66 693.07L20.36 642C19.44 639.38 18.99 636.6 18.99 633.75V62.41C18.99 59.15 19.63 55.89 20.84 52.96L39.24 9.41C33.69 6.15 28.09 3 22.4 0L3.61 44.66C1.35 50.16 0.149994 56.3 0.149994 62.41V633.73C0.149994 639.04 1.01999 644.24 2.73999 649.18L22.84 703.18C28.62 700.04 34.19 696.64 39.68 693.07H39.66Z" fill="#0095B7"/>
<path d="M34.78 696.17C35.13 695.61 35.48 695.07 35.81 694.51C35.89 694.37 36.01 694.22 36.14 694.06L37.18 692.76L18.26 642.75C17.26 639.87 16.76 636.85 16.76 633.75V62.4201C16.76 58.8701 17.46 55.3001 18.78 52.1001L37.28 8.29008C33.04 5.81008 28.77 3.39008 24.43 1.08008L5.66997 45.5401C3.50997 50.7801 2.36996 56.6101 2.36996 62.4101V633.73C2.36996 638.79 3.20996 643.74 4.84996 648.42L24.89 702C28.24 700.13 31.53 698.18 34.78 696.16V696.17Z" fill="#00C0E0"/>
<path d="M31.9299 697.94C32.3499 697.27 32.7999 696.6 33.2199 695.92C33.3899 695.65 33.5699 695.4 33.7599 695.15L15.3899 646.73C14.2799 643.54 13.6999 640.18 13.6999 636.72V64.1896C13.6999 60.2296 14.4799 56.2696 15.9499 52.6996L35.5799 7.31957C33.0799 5.87957 30.5499 4.43957 28.0299 3.05957L8.4499 48.4796C6.4399 53.3496 5.3699 58.7796 5.3699 64.1896V636.7C5.3699 641.41 6.1499 646.02 7.6699 650.39L26.7299 700.99C28.4799 699.99 30.1999 698.98 31.9299 697.93H31.9199V697.95L31.9299 697.94Z" fill="#12CDF9"/>
<path d="M31.65 698.099L12.83 648.319C11.58 644.729 10.94 640.959 10.94 637.079V65.7693C10.94 61.3393 11.81 56.8693 13.45 52.8793L33.28 5.96934C32.44 5.48934 31.59 5.02934 30.77 4.56934L10.95 51.4793C9.11997 55.9093 8.14996 60.8593 8.14996 65.7793V637.099C8.14996 641.389 8.85997 645.589 10.25 649.559L29.15 699.579C29.99 699.089 30.83 698.609 31.64 698.119V698.089L31.65 698.099Z" fill="#4AE5FF"/>
<path opacity="0.3" d="M0 354.24H18.93V348.979H0V354.24Z" fill="#290A49"/>
<path opacity="0.3" d="M0 359.48H18.93V354.21H0V359.48Z" fill="white"/>
<path opacity="0.3" d="M0 348.98H18.93V343.71H0V348.98Z" fill="white"/>
</svg>
