<svg width="40" height="704" viewBox="0 0 40 704" fill="none" xmlns="http://www.w3.org/2000/svg">
<path d="M39.51 693.07L20.21 642C19.29 639.38 18.84 636.6 18.84 633.75V62.41C18.84 59.15 19.48 55.89 20.69 52.96L39.09 9.41C33.54 6.15 27.94 3 22.25 0L3.46002 44.66C1.20002 50.16 3.05176e-05 56.3 3.05176e-05 62.41V633.73C3.05176e-05 639.04 0.870026 644.24 2.59003 649.18L22.69 703.18C28.47 700.04 34.04 696.64 39.53 693.07H39.51Z" fill="#00C3FF"/>
<path d="M34.63 696.17C34.98 695.61 35.33 695.07 35.66 694.51C35.74 694.37 35.86 694.22 35.99 694.06L37.03 692.76L18.11 642.75C17.11 639.87 16.61 636.85 16.61 633.75V62.4298C16.61 58.8798 17.31 55.3098 18.63 52.1098L37.13 8.29984C32.89 5.81984 28.62 3.39984 24.28 1.08984L5.51999 45.5498C3.35999 50.7898 2.22 56.6198 2.22 62.4198V633.74C2.22 638.8 3.06001 643.75 4.70001 648.43L24.74 702.01C28.09 700.14 31.38 698.19 34.63 696.17Z" fill="#00E7FF"/>
<path d="M31.7801 697.941C32.2001 697.271 32.6501 696.601 33.0701 695.921C33.2401 695.651 33.42 695.401 33.61 695.151L15.2401 646.731C14.1301 643.541 13.55 640.181 13.55 636.721V64.1905C13.55 60.2305 14.33 56.2705 15.8 52.7005L35.4301 7.32055C32.9301 5.88055 30.4001 4.44055 27.8801 3.06055L8.30005 48.4806C6.29005 53.3506 5.22006 58.7805 5.22006 64.1905V636.701C5.22006 641.411 6.00005 646.021 7.52005 650.391L26.58 700.991C28.33 699.991 30.0501 698.981 31.7801 697.931H31.7701V697.951L31.7801 697.941Z" fill="#83F6FF"/>
<path d="M31.5 698.11L12.68 648.33C11.43 644.74 10.79 640.97 10.79 637.09V65.7801C10.79 61.3501 11.66 56.8801 13.3 52.8901L33.13 5.98008C32.29 5.50008 31.44 5.04008 30.62 4.58008L10.8 51.4901C8.96999 55.9201 8 60.8701 8 65.7901V637.11C8 641.4 8.71001 645.6 10.1 649.57L29 699.59C29.84 699.1 30.68 698.62 31.49 698.13V698.1L31.5 698.11Z" fill="#DCFBFF"/>
</svg>
