<svg width="40" height="704" viewBox="0 0 40 704" fill="none" xmlns="http://www.w3.org/2000/svg">
<path d="M0.019989 693.07L19.32 642C20.24 639.38 20.69 636.6 20.69 633.75V62.41C20.69 59.15 20.05 55.89 18.84 52.96L0.440002 9.41C5.99 6.15 11.59 3 17.28 0L36.07 44.66C38.33 50.16 39.53 56.3 39.53 62.41V633.73C39.53 639.04 38.66 644.24 36.94 649.18L16.84 703.18C11.06 700.04 5.49 696.64 0 693.07H0.019989Z" fill="#00C3FF"/>
<path d="M4.90002 696.17C4.55002 695.61 4.20003 695.07 3.87003 694.51C3.79003 694.37 3.67004 694.22 3.54004 694.06L2.50003 692.76L21.42 642.75C22.42 639.87 22.92 636.85 22.92 633.75V62.4298C22.92 58.8798 22.22 55.3098 20.9 52.1098L2.40002 8.29984C6.64002 5.81984 10.91 3.39984 15.25 1.08984L34.01 45.5498C36.17 50.7898 37.31 56.6198 37.31 62.4198V633.74C37.31 638.8 36.47 643.75 34.83 648.43L14.79 702.01C11.44 700.14 8.15002 698.19 4.90002 696.17Z" fill="#00E7FF"/>
<path d="M7.75009 697.941C7.33009 697.271 6.88008 696.601 6.46008 695.921C6.29008 695.651 6.11011 695.401 5.9201 695.151L24.2901 646.731C25.4001 643.541 25.9801 640.181 25.9801 636.721V64.1905C25.9801 60.2305 25.2001 56.2705 23.7301 52.7005L4.1001 7.32055C6.6001 5.88055 9.13009 4.44055 11.6501 3.06055L31.2301 48.4806C33.2401 53.3506 34.3101 58.7805 34.3101 64.1905V636.701C34.3101 641.411 33.5301 646.021 32.0101 650.391L12.9501 700.991C11.2001 699.991 9.48009 698.981 7.75009 697.931H7.7601V697.951L7.75009 697.941Z" fill="#83F6FF"/>
<path d="M8.03003 698.11L26.85 648.33C28.1 644.74 28.74 640.97 28.74 637.09V65.7801C28.74 61.3501 27.87 56.8801 26.23 52.8901L6.40002 5.98008C7.24002 5.50008 8.09003 5.04008 8.91003 4.58008L28.73 51.4901C30.56 55.9201 31.53 60.8701 31.53 65.7901V637.11C31.53 641.4 30.82 645.6 29.43 649.57L10.53 699.59C9.69003 699.1 8.85004 698.62 8.04004 698.13V698.1L8.03003 698.11Z" fill="#DCFBFF"/>
<path opacity="0.3" d="M39.68 354.24H20.75V348.98H39.68V354.24Z" fill="#290A49"/>
<path opacity="0.3" d="M39.68 359.48H20.75V354.21H39.68V359.48Z" fill="white"/>
<path opacity="0.3" d="M39.68 348.98H20.75V343.71H39.68V348.98Z" fill="white"/>
</svg>
