<svg width="40" height="704" viewBox="0 0 40 704" fill="none" xmlns="http://www.w3.org/2000/svg">
<path d="M0.0199966 693.07L19.32 642C20.24 639.38 20.69 636.6 20.69 633.75V62.41C20.69 59.15 20.05 55.89 18.84 52.96L0.439995 9.41C5.99 6.15 11.59 3 17.28 0L36.07 44.66C38.33 50.16 39.53 56.3 39.53 62.41V633.73C39.53 639.04 38.66 644.24 36.94 649.18L16.84 703.18C11.06 700.04 5.49 696.64 0 693.07H0.0199966Z" fill="#0095B7"/>
<path d="M4.8999 696.17C4.5499 695.61 4.1999 695.07 3.8699 694.51C3.7899 694.37 3.6699 694.22 3.5399 694.06L2.49991 692.76L21.4199 642.75C22.4199 639.87 22.9199 636.85 22.9199 633.75V62.4201C22.9199 58.8701 22.2199 55.3001 20.8999 52.1001L2.3999 8.29008C6.6399 5.81008 10.9099 3.39008 15.2499 1.08008L34.0099 45.5401C36.1699 50.7801 37.3099 56.6101 37.3099 62.4101V633.73C37.3099 638.79 36.4699 643.74 34.8299 648.42L14.7899 702C11.4399 700.13 8.1499 698.18 4.8999 696.16V696.17Z" fill="#00C0E0"/>
<path d="M7.74986 697.94C7.32985 697.27 6.87985 696.6 6.45985 695.92C6.28985 695.65 6.10985 695.4 5.91985 695.15L24.2898 646.73C25.3998 643.54 25.9799 640.18 25.9799 636.72V64.1896C25.9799 60.2296 25.1999 56.2696 23.7299 52.6996L4.09985 7.31957C6.59985 5.87957 9.12985 4.43957 11.6498 3.05957L31.2299 48.4796C33.2399 53.3496 34.3099 58.7796 34.3099 64.1896V636.7C34.3099 641.41 33.5299 646.02 32.0098 650.39L12.9499 700.99C11.1999 699.99 9.47986 698.98 7.74986 697.93H7.75985V697.95L7.74986 697.94Z" fill="#12CDF9"/>
<path d="M8.02991 698.099L26.8499 648.319C28.0999 644.729 28.7399 640.959 28.7399 637.079V65.7693C28.7399 61.3393 27.8699 56.8693 26.2299 52.8793L6.3999 5.96934C7.2399 5.48934 8.0899 5.02934 8.9099 4.56934L28.7299 51.4793C30.5599 55.9093 31.5299 60.8593 31.5299 65.7793V637.099C31.5299 641.389 30.8199 645.589 29.4299 649.559L10.5299 699.579C9.68991 699.089 8.8499 698.609 8.0399 698.119V698.089L8.02991 698.099Z" fill="#4AE5FF"/>
<path opacity="0.3" d="M39.68 354.24H20.75V348.979H39.68V354.24Z" fill="#290A49"/>
<path opacity="0.3" d="M39.68 359.48H20.75V354.21H39.68V359.48Z" fill="white"/>
<path opacity="0.3" d="M39.68 348.98H20.75V343.71H39.68V348.98Z" fill="white"/>
</svg>
