<svg width="216" height="142" viewBox="0 0 216 142" fill="none" xmlns="http://www.w3.org/2000/svg">
<g clip-path="url(#clip0_100_8277)">
<path d="M28.6843 73.104H4.17365C2.05663 73.104 0.340454 74.8202 0.340454 76.9372V101.448C0.340454 103.565 2.05663 105.281 4.17365 105.281H28.6843C30.8013 105.281 32.5175 103.565 32.5175 101.448V76.9372C32.5175 74.8202 30.8013 73.104 28.6843 73.104Z" fill="#E72EED"/>
<path d="M65.314 73.104H40.8034C38.6864 73.104 36.9702 74.8202 36.9702 76.9372V101.448C36.9702 103.565 38.6864 105.281 40.8034 105.281H65.314C67.4311 105.281 69.1472 103.565 69.1472 101.448V76.9372C69.1472 74.8202 67.4311 73.104 65.314 73.104Z" fill="#E72EED"/>
<path d="M101.692 73.104H77.1813C75.0643 73.104 73.3481 74.8202 73.3481 76.9372V101.448C73.3481 103.565 75.0643 105.281 77.1813 105.281H101.692C103.809 105.281 105.525 103.565 105.525 101.448V76.9372C105.525 74.8202 103.809 73.104 101.692 73.104Z" fill="#E72EED"/>
<path opacity="0.5" d="M101.692 109.482H77.1813C75.0643 109.482 73.3481 111.198 73.3481 113.315V137.826C73.3481 139.943 75.0643 141.659 77.1813 141.659H101.692C103.809 141.659 105.525 139.943 105.525 137.826V113.315C105.525 111.198 103.809 109.482 101.692 109.482Z" fill="#B331FF"/>
<path opacity="0.5" d="M101.692 36.7188H77.1813C75.0643 36.7188 73.3481 38.4349 73.3481 40.552V65.0629C73.3481 67.18 75.0643 68.8962 77.1813 68.8962H101.692C103.809 68.8962 105.525 67.18 105.525 65.0629V40.552C105.525 38.4349 103.809 36.7188 101.692 36.7188Z" fill="#B331FF"/>
<path opacity="0.5" d="M101.692 0.340332H77.1813C75.0643 0.340332 73.3481 2.05653 73.3481 4.17357V28.6845C73.3481 30.8015 75.0643 32.5177 77.1813 32.5177H101.692C103.809 32.5177 105.525 30.8015 105.525 28.6845V4.17357C105.525 2.05653 103.809 0.340332 101.692 0.340332Z" fill="#B331FF"/>
<path opacity="0.5" d="M175.197 36.7188H150.686C148.569 36.7188 146.853 38.4349 146.853 40.552V65.0629C146.853 67.18 148.569 68.8962 150.686 68.8962H175.197C177.314 68.8962 179.03 67.18 179.03 65.0629V40.552C179.03 38.4349 177.314 36.7188 175.197 36.7188Z" fill="#B331FF"/>
<path d="M138.567 73.104H114.056C111.939 73.104 110.223 74.8202 110.223 76.9372V101.448C110.223 103.565 111.939 105.281 114.056 105.281H138.567C140.684 105.281 142.4 103.565 142.4 101.448V76.9372C142.4 74.8202 140.684 73.104 138.567 73.104Z" fill="#E72EED"/>
<path d="M175.197 73.104H150.686C148.569 73.104 146.853 74.8202 146.853 76.9372V101.448C146.853 103.565 148.569 105.281 150.686 105.281H175.197C177.314 105.281 179.03 103.565 179.03 101.448V76.9372C179.03 74.8202 177.314 73.104 175.197 73.104Z" fill="#E72EED"/>
<path d="M211.826 73.104H187.316C185.199 73.104 183.482 74.8202 183.482 76.9372V101.448C183.482 103.565 185.199 105.281 187.316 105.281H211.826C213.943 105.281 215.659 103.565 215.659 101.448V76.9372C215.659 74.8202 213.943 73.104 211.826 73.104Z" fill="#E72EED"/>
<path d="M28.6843 73.104H4.17365C2.05663 73.104 0.340454 74.8202 0.340454 76.9372V101.448C0.340454 103.565 2.05663 105.281 4.17365 105.281H28.6843C30.8013 105.281 32.5175 103.565 32.5175 101.448V76.9372C32.5175 74.8202 30.8013 73.104 28.6843 73.104Z" stroke="#FFA4FB"/>
<path d="M65.314 73.104H40.8034C38.6864 73.104 36.9702 74.8202 36.9702 76.9372V101.448C36.9702 103.565 38.6864 105.281 40.8034 105.281H65.314C67.4311 105.281 69.1472 103.565 69.1472 101.448V76.9372C69.1472 74.8202 67.4311 73.104 65.314 73.104Z" stroke="#FFA4FB"/>
<path d="M101.692 73.104H77.1813C75.0643 73.104 73.3481 74.8202 73.3481 76.9372V101.448C73.3481 103.565 75.0643 105.281 77.1813 105.281H101.692C103.809 105.281 105.525 103.565 105.525 101.448V76.9372C105.525 74.8202 103.809 73.104 101.692 73.104Z" stroke="#FFA4FB"/>
<path d="M101.692 109.482H77.1813C75.0643 109.482 73.3481 111.198 73.3481 113.315V137.826C73.3481 139.943 75.0643 141.659 77.1813 141.659H101.692C103.809 141.659 105.525 139.943 105.525 137.826V113.315C105.525 111.198 103.809 109.482 101.692 109.482Z" stroke="#D387FF"/>
<path d="M101.692 36.7188H77.1813C75.0643 36.7188 73.3481 38.4349 73.3481 40.552V65.0629C73.3481 67.18 75.0643 68.8962 77.1813 68.8962H101.692C103.809 68.8962 105.525 67.18 105.525 65.0629V40.552C105.525 38.4349 103.809 36.7188 101.692 36.7188Z" stroke="#D387FF"/>
<path d="M101.692 0.340332H77.1813C75.0643 0.340332 73.3481 2.05653 73.3481 4.17357V28.6845C73.3481 30.8015 75.0643 32.5177 77.1813 32.5177H101.692C103.809 32.5177 105.525 30.8015 105.525 28.6845V4.17357C105.525 2.05653 103.809 0.340332 101.692 0.340332Z" stroke="#D387FF"/>
<path d="M175.197 36.7188H150.686C148.569 36.7188 146.853 38.4349 146.853 40.552V65.0629C146.853 67.18 148.569 68.8962 150.686 68.8962H175.197C177.314 68.8962 179.03 67.18 179.03 65.0629V40.552C179.03 38.4349 177.314 36.7188 175.197 36.7188Z" stroke="#D387FF"/>
<path d="M138.567 73.104H114.056C111.939 73.104 110.223 74.8202 110.223 76.9372V101.448C110.223 103.565 111.939 105.281 114.056 105.281H138.567C140.684 105.281 142.4 103.565 142.4 101.448V76.9372C142.4 74.8202 140.684 73.104 138.567 73.104Z" stroke="#FFA4FB"/>
<path d="M175.197 73.104H150.686C148.569 73.104 146.853 74.8202 146.853 76.9372V101.448C146.853 103.565 148.569 105.281 150.686 105.281H175.197C177.314 105.281 179.03 103.565 179.03 101.448V76.9372C179.03 74.8202 177.314 73.104 175.197 73.104Z" stroke="#FFA4FB"/>
<path d="M211.826 73.104H187.316C185.199 73.104 183.482 74.8202 183.482 76.9372V101.448C183.482 103.565 185.199 105.281 187.316 105.281H211.826C213.943 105.281 215.659 103.565 215.659 101.448V76.9372C215.659 74.8202 213.943 73.104 211.826 73.104Z" stroke="#FFA4FB"/>
</g>
<defs>
<clipPath id="clip0_100_8277">
<rect width="216" height="142" fill="white"/>
</clipPath>
</defs>
</svg>
