<svg width="302" height="138" viewBox="0 0 302 138" fill="none" xmlns="http://www.w3.org/2000/svg">
<g clip-path="url(#clip0_93_1348)">
<path opacity="0.7" d="M71.9099 28.12L99.4399 62.61C100.72 64.22 102.73 65.12 104.65 64.95L145.46 60.08C148.23 59.84 149.35 56.78 147.53 54.44L120.18 19.42C118.89 17.77 116.83 16.85 114.88 17.05L73.7999 22.7C71.1699 22.98 70.1499 25.91 71.9199 28.11L71.9099 28.12Z" fill="#130856"/>
<path d="M115.41 19.19C116.54 19.19 117.71 19.79 118.47 20.76L145.82 55.78C146.24 56.31 146.36 56.91 146.16 57.37C146.01 57.71 145.71 57.9 145.26 57.94H145.23H145.2L104.43 62.81C104.35 62.81 104.27 62.81 104.19 62.81C103.06 62.81 101.89 62.22 101.12 61.26L73.5901 26.77C73.1401 26.21 73.1201 25.66 73.2601 25.34C73.3801 25.05 73.6401 24.88 74.0201 24.84H74.0501H74.0801L115.12 19.2C115.22 19.2 115.31 19.19 115.41 19.19ZM115.41 17.03C115.23 17.03 115.05 17.03 114.86 17.06L73.7801 22.71C71.1501 22.99 70.1301 25.92 71.9001 28.12L99.4301 62.61C100.61 64.09 102.41 64.97 104.18 64.97C104.33 64.97 104.49 64.97 104.64 64.95L145.45 60.08C148.22 59.84 149.34 56.78 147.52 54.44L120.17 19.42C119 17.92 117.2 17.02 115.41 17.02V17.03Z" fill="#7B47A8"/>
<path opacity="0.7" d="M122.12 86.4999L149.65 120.99C150.93 122.6 152.94 123.5 154.86 123.33L195.67 118.46C198.44 118.22 199.56 115.16 197.74 112.82L170.39 77.7999C169.1 76.1499 167.04 75.2299 165.09 75.4299L124.01 81.0799C121.38 81.3599 120.36 84.2899 122.13 86.4899L122.12 86.4999Z" fill="#130856"/>
<g opacity="0.6">
<path d="M165.63 76.4099C167.11 76.4099 168.63 77.1799 169.6 78.4199L196.95 113.44C197.63 114.31 197.82 115.35 197.44 116.21C197.12 116.94 196.45 117.4 195.55 117.48L154.77 122.35C154.65 122.36 154.52 122.37 154.4 122.37C152.93 122.37 151.41 121.61 150.43 120.38L122.9 85.8899C122.25 85.0699 122.06 84.0999 122.4 83.2899C122.69 82.5999 123.29 82.1799 124.13 82.0899L165.18 76.4499C165.33 76.4299 165.47 76.4299 165.62 76.4299M165.63 75.4099C165.45 75.4099 165.27 75.4099 165.08 75.4399L124 81.0899C121.37 81.3699 120.35 84.2999 122.12 86.4999L149.65 120.99C150.83 122.47 152.63 123.35 154.4 123.35C154.55 123.35 154.71 123.35 154.86 123.33L195.67 118.46C198.44 118.22 199.56 115.16 197.74 112.82L170.39 77.7999C169.22 76.2999 167.42 75.3999 165.63 75.3999V75.4099Z" fill="#9999FF"/>
</g>
<path opacity="0.7" d="M173.88 79.7499L201.41 114.24C202.69 115.85 204.7 116.75 206.62 116.58L247.43 111.71C250.2 111.47 251.32 108.41 249.5 106.07L222.15 71.0499C220.86 69.3999 218.8 68.4799 216.85 68.6799L175.77 74.3299C173.14 74.6099 172.12 77.5399 173.89 79.7399L173.88 79.7499Z" fill="#130856"/>
<g opacity="0.6">
<path d="M217.39 69.6599C218.87 69.6599 220.39 70.4299 221.36 71.6699L248.71 106.69C249.39 107.56 249.58 108.6 249.2 109.46C248.88 110.19 248.21 110.65 247.31 110.73L206.53 115.6C206.41 115.61 206.28 115.62 206.16 115.62C204.69 115.62 203.17 114.86 202.19 113.63L174.66 79.1399C174.01 78.3199 173.82 77.3499 174.16 76.5399C174.45 75.8499 175.05 75.4299 175.89 75.3399L216.94 69.6999C217.09 69.6799 217.23 69.6799 217.38 69.6799M217.39 68.6599C217.21 68.6599 217.03 68.6599 216.84 68.6899L175.76 74.3399C173.13 74.6199 172.11 77.5499 173.88 79.7499L201.41 114.24C202.59 115.72 204.39 116.6 206.16 116.6C206.31 116.6 206.47 116.6 206.62 116.58L247.43 111.71C250.2 111.47 251.32 108.41 249.5 106.07L222.15 71.0499C220.98 69.5499 219.18 68.6499 217.39 68.6499V68.6599Z" fill="#9999FF"/>
</g>
<path opacity="0.7" d="M225.36 72.9601L252.89 107.45C254.17 109.06 256.18 109.96 258.1 109.79L298.91 104.92C301.68 104.68 302.8 101.62 300.98 99.2801L273.63 64.2601C272.34 62.6101 270.28 61.6901 268.33 61.8901L227.25 67.5401C224.62 67.8201 223.6 70.7501 225.37 72.9501L225.36 72.9601Z" fill="#130856"/>
<g opacity="0.6">
<path d="M268.87 62.8701C270.35 62.8701 271.87 63.6401 272.84 64.8801L300.19 99.9001C300.87 100.77 301.06 101.81 300.68 102.67C300.36 103.4 299.69 103.86 298.79 103.94L258.01 108.81C257.89 108.82 257.76 108.83 257.64 108.83C256.17 108.83 254.65 108.07 253.67 106.84L226.14 72.3501C225.49 71.5301 225.3 70.5601 225.64 69.7501C225.93 69.0601 226.53 68.6401 227.37 68.5501L268.42 62.9101C268.57 62.8901 268.71 62.8901 268.86 62.8901M268.87 61.8701C268.69 61.8701 268.51 61.8701 268.32 61.9001L227.24 67.5501C224.61 67.8301 223.59 70.7601 225.36 72.9601L252.89 107.45C254.07 108.93 255.87 109.81 257.64 109.81C257.79 109.81 257.95 109.81 258.1 109.79L298.91 104.92C301.68 104.68 302.8 101.62 300.98 99.2801L273.63 64.2601C272.46 62.7601 270.66 61.8601 268.87 61.8601V61.8701Z" fill="#9999FF"/>
</g>
<path opacity="0.7" d="M70.78 93.58L98.31 128.07C99.59 129.68 101.6 130.58 103.52 130.41L144.33 125.54C147.1 125.3 148.22 122.24 146.4 119.9L119.05 84.88C117.76 83.23 115.7 82.31 113.75 82.51L72.67 88.16C70.04 88.44 69.02 91.37 70.79 93.57L70.78 93.58Z" fill="#130856"/>
<g opacity="0.6">
<path d="M114.29 83.49C115.77 83.49 117.29 84.26 118.26 85.5L145.61 120.52C146.29 121.39 146.48 122.43 146.1 123.29C145.78 124.02 145.11 124.48 144.21 124.56L103.43 129.43C103.31 129.44 103.18 129.45 103.06 129.45C101.59 129.45 100.07 128.69 99.09 127.46L71.56 92.97C70.91 92.15 70.72 91.18 71.06 90.37C71.35 89.68 71.95 89.26 72.79 89.17L113.84 83.53C113.99 83.51 114.13 83.51 114.28 83.51M114.29 82.49C114.11 82.49 113.93 82.49 113.74 82.52L72.66 88.17C70.03 88.45 69.01 91.38 70.78 93.58L98.31 128.07C99.49 129.55 101.29 130.43 103.06 130.43C103.21 130.43 103.37 130.43 103.52 130.41L144.33 125.54C147.1 125.3 148.22 122.24 146.4 119.9L119.05 84.88C117.88 83.38 116.08 82.48 114.29 82.48V82.49Z" fill="#9999FF"/>
</g>
<path opacity="0.7" d="M18.4699 100.65L45.9999 135.14C47.2799 136.75 49.2899 137.65 51.2099 137.48L92.0199 132.61C94.7899 132.37 95.9099 129.31 94.0899 126.97L66.7399 91.95C65.4499 90.3 63.3899 89.38 61.4399 89.58L20.3599 95.2301C17.7299 95.5101 16.7099 98.44 18.4799 100.64L18.4699 100.65Z" fill="#130856"/>
<path d="M176.24 13.6899C176.17 10.6299 174.71 7.86989 172.21 6.10989L171.79 5.75989C167.47 2.12989 167.43 2.09989 167.35 2.03989C165.17 0.409892 162.38 -0.270108 159.52 0.109892L10.5401 16.7899C4.51008 17.5999 -0.119917 22.7199 8.3216e-05 28.4499L0.570083 56.2099C0.630083 59.0799 1.95008 61.7399 4.16008 63.4799C4.26008 63.5599 9.37008 68.2799 9.37008 68.2799C11.0001 69.5299 13.0101 70.2499 15.1201 70.3799C15.8401 70.4199 16.5601 70.3999 17.2901 70.2999L166.26 52.6099C172.29 51.8099 176.92 46.6899 176.8 40.9599L176.22 13.6999L176.24 13.6899Z" fill="#072551"/>
<path d="M160.81 46.44C160.81 46.44 13.8799 68.37 12.2499 67.22C12.1399 67.14 5.54993 61.58 5.43993 61.49C3.74993 60.16 2.66993 58.14 2.61993 55.76L2.03993 28.5C1.93993 23.77 5.91993 19.39 10.9299 18.72L159.87 2.04998C162.28 1.72998 164.49 2.31998 166.15 3.55998C166.24 3.62998 171.23 7.81998 171.32 7.89998C172.95 9.22998 173.53 11.44 173.58 13.77L169.7 36.67C169.8 41.4 165.82 45.78 160.81 46.45V46.44Z" fill="#0087E2" stroke="#6CDCFF" stroke-miterlimit="10"/>
<path d="M165.89 50.5201L16.94 68.2001C11.93 68.8701 7.79 65.5801 7.69 60.8401L7.11 33.5801C7.01 28.8501 10.99 24.4701 16 23.8001L164.95 6.13006C169.96 5.46006 174.1 8.75006 174.2 13.4901L174.78 40.7501C174.88 45.4801 170.9 49.8601 165.89 50.5301V50.5201Z" fill="url(#paint0_linear_93_1348)"/>
<path d="M166.23 7.17992C170.19 7.17992 173.12 9.89992 173.2 13.6399L173.78 40.8999C173.87 45.1299 170.27 49.0599 165.78 49.6599L16.81 67.3499C16.43 67.3999 16.04 67.4299 15.66 67.4299C11.7 67.4299 8.77 64.7099 8.69 60.9699L8.11 33.7099C8.02 29.4799 11.62 25.5499 16.11 24.9499L165.08 7.25992C165.46 7.20992 165.85 7.17992 166.23 7.17992ZM166.23 6.17992C165.81 6.17992 165.38 6.20992 164.95 6.26992L16 23.9499C10.99 24.6199 7.01 28.9999 7.11 33.7299L7.69 60.9899C7.78 65.3099 11.24 68.4299 15.66 68.4299C16.08 68.4299 16.51 68.3999 16.94 68.3399L165.88 50.6499C170.89 49.9799 174.87 45.5999 174.77 40.8699L174.19 13.6099C174.1 9.28992 170.64 6.16992 166.22 6.16992L166.23 6.17992Z" fill="#C0FCFF"/>
<path opacity="0.57" d="M44.4399 22.3901C44.1699 21.2901 53.3599 62.1101 53.3599 62.1101L61.5899 61.2901L52.3999 21.5701L44.4399 22.3901Z" fill="white"/>
<path opacity="0.4" d="M16.9299 25.57C16.6599 24.47 25.8499 65.76 25.8499 65.76L50.9399 62.9L41.7499 22.71L16.9299 25.57Z" fill="url(#paint1_linear_93_1348)"/>
<path opacity="0.4" d="M145.89 10.6499C145.62 9.5499 154.81 50.8399 154.81 50.8399L160.04 50.0199L150.8 10.1499L145.9 10.6499H145.89Z" fill="white"/>
<path opacity="0.4" d="M172.31 24.1401C172.36 13.9101 171.87 11.4401 171.34 11.2301C169.93 9.41008 167.45 8.04008 165.03 8.50008C164.83 8.54008 152.34 10.0101 152.34 10.0101C152.07 8.91008 161.26 50.2001 161.26 50.2001L172.63 48.2401C172.63 48.2401 172.31 24.1801 172.31 24.1401Z" fill="white"/>
<path d="M163.89 15.33C163.25 14.72 162.13 14.01 160.4 14.01C160.12 14.01 159.84 14.03 159.55 14.07C159.04 14.13 158.54 14.25 158.07 14.41C157.87 14.41 157.67 14.43 157.47 14.46C156.19 14.62 155.1 15.05 154.23 15.74C153.47 16.33 152.8 17.16 152.19 18.27L149.39 23.53L147.2 19.44C146.6 18.31 145.83 17.46 144.92 16.94C144.16 16.5 143.26 16.28 142.26 16.28C141.96 16.28 141.64 16.3 141.32 16.34C140.86 16.4 140.39 16.51 139.9 16.68C139.71 16.68 139.48 16.7 139.24 16.73C137.66 16.93 136.36 17.56 135.37 18.6C134.36 19.67 133.82 21.04 133.76 22.68L133.43 31.99L129.26 22.43L129.24 22.37C128.62 21.04 127.8 20.04 126.77 19.4C125.88 18.84 124.87 18.56 123.78 18.56C123.51 18.56 123.24 18.58 122.96 18.61C122.48 18.67 122.01 18.78 121.53 18.96C121.33 18.96 121.11 18.97 120.88 19C119.61 19.16 118.45 19.65 117.44 20.47C116.51 21.23 115.73 22.28 115.14 23.59L110.54 33.66C110.28 32.48 109.7 31.71 109.18 31.23C109.08 31.13 108.96 31.04 108.83 30.94C109.4 30.64 109.89 30.25 110.32 29.76C111.17 28.78 111.63 27.54 111.68 26.08C111.75 24.05 110.94 22.83 110.24 22.17C109.65 21.61 108.6 20.94 106.96 20.94C106.69 20.94 106.41 20.96 106.13 20.99L95.5 22.31C95.07 22.36 94.64 22.46 94.17 22.6L93.42 22.69C91.7 22.9 90.2999 23.6 89.28 24.75C88.76 25.34 88.3599 26.01 88.09 26.76C87.89 26.55 87.67 26.35 87.44 26.16C85.86 24.85 83.81 24.18 81.34 24.18C80.72 24.18 80.07 24.22 79.4 24.31L71.68 25.27C71.26 25.32 70.84 25.42 70.39 25.56L69.6 25.66C68.33 25.82 67.22 26.26 66.31 26.99C65.69 26.62 64.84 26.31 63.72 26.31C63.45 26.31 63.17 26.33 62.88 26.36L47.26 28.3C46.86 28.35 46.46 28.44 46.03 28.58L45.18 28.69C43.79 28.86 42.64 29.39 41.75 30.27C40.79 29.87 39.68 29.61 38.47 29.49C37.88 29.43 37.27 29.4 36.68 29.4C35.95 29.4 35.22 29.44 34.51 29.53C33.81 29.62 33.12 29.74 32.4 29.92C30.73 30.13 29.17 30.54 27.77 31.15C26.33 31.77 25.05 32.58 23.97 33.54C22.83 34.55 21.93 35.73 21.27 37.06C20.6 38.42 20.24 39.89 20.18 41.45C20.09 44.01 20.82 46.11 22.36 47.68C22.61 47.94 22.89 48.18 23.18 48.4C23.14 48.41 23.1 48.43 23.06 48.45C22.04 48.87 21.2 49.55 20.56 50.46C19.99 51.27 19.62 52.19 19.47 53.18C19.3 54.32 19.45 55.41 19.94 56.4C20.32 57.19 21.12 58.25 22.71 58.86C23.52 59.18 24.45 59.42 25.45 59.59C26.41 59.75 27.44 59.84 28.5 59.85H28.67C29.65 59.85 30.61 59.79 31.51 59.68C32.24 59.59 32.98 59.45 33.71 59.28C35.38 59.06 36.92 58.66 38.3 58.08C39.76 57.46 41.05 56.67 42.12 55.71C43.25 54.71 44.15 53.53 44.79 52.21C45.44 50.87 45.8 49.4 45.86 47.85C45.95 45.29 45.18 43.21 43.56 41.68C43.07 41.22 42.51 40.82 41.89 40.48C42.49 40.21 43.03 39.85 43.5 39.39C43.96 39.52 44.44 39.58 44.95 39.58C45.21 39.58 45.48 39.56 45.75 39.53L47.19 39.35L46.77 51.2C46.7 53.03 47.24 54.51 48.35 55.59C49.01 56.24 50.19 57.01 52.04 57.01C52.32 57.01 52.62 56.99 52.92 56.95C53.39 56.89 53.85 56.78 54.35 56.61C54.57 56.61 54.79 56.59 55 56.56C56.73 56.34 58.12 55.63 59.12 54.45C60.06 53.34 60.57 51.94 60.62 50.3L61.06 37.62L61.37 37.58C61.77 37.53 62.16 37.44 62.59 37.3L63.44 37.19C63.54 37.18 63.64 37.16 63.74 37.14L63.32 49.12C63.25 50.95 63.79 52.43 64.9 53.51C65.56 54.16 66.74 54.93 68.59 54.93C68.8699 54.93 69.17 54.91 69.47 54.87C69.94 54.81 70.4 54.7 70.9 54.53C71.12 54.53 71.34 54.51 71.55 54.48C73.28 54.26 74.67 53.55 75.66 52.37C76.1 51.85 76.45 51.27 76.69 50.62C77.27 51.48 77.96 52.14 78.75 52.59C79.57 53.06 80.53 53.29 81.6 53.29C81.91 53.29 82.24 53.27 82.57 53.23C83.06 53.17 83.53 53.06 84.02 52.89C84.21 52.89 84.42 52.87 84.64 52.85C86.12 52.67 87.34 52.12 88.26 51.21C88.49 50.99 88.7 50.74 88.88 50.49C89.57 51.07 90.7 51.67 92.37 51.67C92.67 51.67 92.99 51.65 93.31 51.61L103.95 50.29C104.35 50.24 104.74 50.15 105.17 50.01L106.03 49.9C106.96 49.79 107.78 49.5 108.5 49.05C109.25 49.45 110.09 49.66 111.01 49.66C111.27 49.66 111.55 49.64 111.82 49.61C112.29 49.55 112.76 49.44 113.24 49.27C113.46 49.27 113.68 49.25 113.9 49.22C115.43 49.03 116.66 48.44 117.56 47.48C118.21 46.79 118.79 45.84 119.35 44.58L119.73 43.69L123.55 43.22L123.62 43.41C124.15 44.76 124.84 45.75 125.72 46.43C126.59 47.1 127.66 47.44 128.9 47.44C129.2 47.44 129.51 47.42 129.82 47.38C130.32 47.32 130.8 47.2 131.26 47.03C131.47 47.03 131.68 47.02 131.9 46.99C133.09 46.84 134.15 46.4 135.03 45.69C135.11 45.63 135.19 45.56 135.26 45.48C135.92 45.92 136.86 46.3 138.12 46.3C138.39 46.3 138.67 46.28 138.96 46.25C139.41 46.19 139.87 46.08 140.35 45.91C140.57 45.91 140.8 45.89 141.04 45.86C142.65 45.66 143.96 44.99 144.92 43.88C145.48 43.22 145.88 42.45 146.12 41.58C146.55 41.71 147.01 41.77 147.5 41.77C147.75 41.77 148 41.75 148.25 41.72C148.73 41.66 149.2 41.55 149.64 41.38C149.87 41.38 150.1 41.36 150.33 41.33C150.88 41.26 151.39 41.13 151.86 40.94C152.11 41.6 152.49 42.18 152.99 42.66C153.63 43.28 154.76 44.02 156.52 44.02C156.79 44.02 157.08 44 157.36 43.97C157.82 43.91 158.27 43.8 158.76 43.63C159.01 43.63 159.23 43.61 159.44 43.58C161.06 43.38 162.36 42.71 163.31 41.6C164.22 40.54 164.71 39.21 164.76 37.65L165.39 19.55C165.45 17.77 164.94 16.35 163.86 15.32L163.89 15.33Z" fill="#0073C1"/>
<g opacity="0.6">
<path d="M61.9799 90.56C63.4599 90.56 64.9799 91.33 65.9499 92.57L93.2999 127.59C93.9799 128.46 94.1699 129.5 93.7899 130.36C93.4699 131.09 92.7999 131.55 91.8999 131.63L51.1199 136.5C50.9999 136.51 50.8699 136.52 50.7499 136.52C49.2799 136.52 47.7599 135.76 46.7799 134.53L19.2499 100.04C18.5999 99.22 18.4099 98.25 18.7499 97.44C19.0399 96.75 19.6399 96.33 20.4799 96.24L61.5299 90.6C61.6799 90.58 61.8199 90.58 61.9699 90.58M61.9799 89.56C61.7999 89.56 61.6199 89.56 61.4299 89.59L20.3499 95.24C17.7199 95.52 16.6999 98.45 18.4699 100.65L45.9999 135.14C47.1799 136.62 48.9799 137.5 50.7499 137.5C50.8999 137.5 51.0599 137.5 51.2099 137.48L92.0199 132.61C94.7899 132.37 95.9099 129.31 94.0899 126.97L66.7399 91.95C65.5699 90.45 63.7699 89.55 61.9799 89.55V89.56Z" fill="#9999FF"/>
</g>
<path d="M88.0701 38.42C88.8801 36.99 89.3301 35.36 89.3901 33.59C89.4901 30.69 88.6201 28.45 86.8001 26.94C85.0401 25.48 82.5901 24.92 79.5201 25.31L71.8001 26.27C70.3901 26.44 69.2501 27.01 68.3901 27.96C67.9101 28.49 67.5601 29.12 67.3401 29.82C67.1001 29.09 66.7201 28.59 66.3701 28.27C65.7901 27.73 64.7401 27.14 63.0201 27.36L47.4001 29.3C46.1401 29.46 45.1201 29.95 44.3701 30.78C43.9101 31.29 43.5901 31.91 43.4001 32.6C43.0101 32.1 42.5101 31.69 41.9001 31.42C40.9001 30.93 39.7101 30.61 38.3901 30.48C37.1401 30.36 35.8801 30.37 34.6501 30.52C33.0601 30.72 31.5901 31.11 30.2701 31.68C28.9301 32.26 27.7401 33.01 26.7401 33.9C25.7001 34.82 24.8701 35.9 24.2801 37.11C23.6701 38.34 23.3401 39.68 23.2901 41.09C23.2101 43.37 23.8501 45.22 25.1901 46.58C26.4701 47.89 28.3701 48.67 30.8301 48.9L34.1701 49.23C33.9101 49.29 33.5901 49.35 33.1801 49.4C32.4501 49.49 31.6501 49.49 30.8001 49.42C29.9801 49.34 29.2601 49.19 28.6001 48.94C27.5401 48.57 26.4901 48.58 25.5601 48.97C24.7201 49.32 24.0201 49.88 23.5001 50.63C23.0201 51.32 22.7101 52.09 22.5801 52.93C22.4401 53.87 22.5601 54.75 22.9601 55.56C23.2601 56.18 23.9001 57.03 25.1901 57.52C25.9501 57.81 26.8101 58.04 27.7401 58.2C28.6501 58.36 29.6201 58.44 30.6401 58.45H30.8001C31.7401 58.45 32.6501 58.4 33.5201 58.29C35.1401 58.09 36.6301 57.7 37.9601 57.14C39.3201 56.57 40.5201 55.83 41.5101 54.94C42.5401 54.03 43.3601 52.96 43.9501 51.75C44.5401 50.53 44.8701 49.2 44.9201 47.8C45.0001 45.53 44.3301 43.71 42.9401 42.39C41.6501 41.16 39.7501 40.41 37.2901 40.16L33.6701 39.8C33.6101 39.8 33.5501 39.79 33.4901 39.78C33.5001 39.78 33.5201 39.77 33.5401 39.76C33.9001 39.59 34.3701 39.47 34.9401 39.4C35.5201 39.33 36.1501 39.31 36.7801 39.35C37.3501 39.39 37.8601 39.48 38.3301 39.64C39.4001 39.98 40.4001 39.98 41.3101 39.64C42.1601 39.32 42.8501 38.8 43.3801 38.07C43.6701 37.67 43.8901 37.24 44.0401 36.78C44.1601 36.93 44.2701 37.06 44.3901 37.17C44.9701 37.72 46.0301 38.33 47.7701 38.12L50.3701 37.8L49.9101 50.82C49.8601 52.36 50.2901 53.59 51.1901 54.46C51.7501 55 52.6901 55.6 54.1801 55.6C54.4201 55.6 54.6701 55.58 54.9401 55.55C56.4101 55.37 57.5801 54.77 58.4101 53.79C59.2001 52.85 59.6301 51.66 59.6801 50.25L60.1601 36.59L63.3901 36.19C64.6601 36.03 65.6801 35.52 66.4301 34.68C66.6501 34.43 66.8301 34.15 67.0001 33.86L66.4801 48.77C66.4301 50.31 66.8601 51.54 67.7601 52.41C68.3201 52.95 69.2601 53.55 70.7501 53.55C70.9901 53.55 71.2401 53.53 71.5101 53.5C72.9801 53.32 74.1501 52.72 74.9801 51.74C75.7701 50.8 76.2001 49.61 76.2501 48.2L76.4001 44.07H76.4301C76.5401 44.05 76.6301 44.05 76.6901 44.05L79.3301 49.1C79.8801 50.13 80.5801 50.88 81.4101 51.35C82.2901 51.85 83.3701 52.02 84.6201 51.87C85.8801 51.71 86.9001 51.26 87.6601 50.51C88.4501 49.74 88.9101 48.76 88.9801 47.67C89.0501 46.7 88.8401 45.73 88.3401 44.8L86.9001 42.11C86.6701 41.65 86.4101 41.23 86.1101 40.87C86.9201 40.16 87.5901 39.33 88.1201 38.4L88.0701 38.42ZM79.8901 34.29C79.8701 34.86 79.6901 35.02 79.6201 35.08C79.3301 35.33 78.8101 35.51 78.1301 35.6L76.6301 35.79L76.6801 34.26L78.8201 33.99C79.4501 33.91 79.7601 33.97 79.8901 34.01C79.8901 34.06 79.9101 34.15 79.9001 34.28L79.8901 34.29Z" fill="#E6FEFF"/>
<path d="M128.34 22.82L128.32 22.78C127.79 21.62 127.09 20.77 126.23 20.24C125.31 19.67 124.25 19.45 123.08 19.6C122 19.73 121.01 20.16 120.15 20.85C119.34 21.51 118.66 22.43 118.13 23.61L109.69 42.1C109.66 42.16 109.65 42.22 109.62 42.28C109.41 41.85 109.16 41.53 108.93 41.3C108.37 40.75 107.33 40.13 105.61 40.35L99.8101 41.07L99.8301 40.39L105.57 39.68C106.79 39.53 107.77 39.05 108.5 38.25C109.23 37.45 109.62 36.42 109.66 35.17C109.72 33.46 109.06 32.49 108.5 31.97C107.93 31.45 106.91 30.86 105.24 31.08L100.13 31.71V31.39L106.58 30.59C107.83 30.43 108.84 29.93 109.56 29.1C110.26 28.3 110.63 27.27 110.68 26.04C110.74 24.38 110.1 23.41 109.55 22.89C108.99 22.36 107.96 21.76 106.25 21.98L95.6101 23.3C94.1401 23.48 92.9501 24.07 92.0901 25.03C91.2401 25.98 90.7901 27.21 90.7401 28.68L90.1501 45.48C90.0901 47.08 90.5401 48.33 91.4601 49.2C92.0201 49.73 92.9701 50.31 94.4901 50.31C94.7401 50.31 95.0101 50.29 95.3001 50.26L105.94 48.94C107.18 48.79 108.18 48.3 108.9 47.49C109.2 47.15 109.44 46.76 109.62 46.33C109.92 46.89 110.34 47.36 110.9 47.71C111.55 48.11 112.29 48.3 113.12 48.3C113.34 48.3 113.57 48.29 113.81 48.26C115.1 48.1 116.13 47.62 116.87 46.83C117.44 46.22 117.96 45.37 118.48 44.21L119.13 42.67L126.31 41.78L126.67 42.69C127.14 43.87 127.72 44.72 128.45 45.28C129.32 45.95 130.45 46.2 131.83 46.03C132.83 45.91 133.71 45.54 134.45 44.94C135.25 44.29 135.78 43.4 135.98 42.37C136.18 41.37 136.03 40.33 135.56 39.34L128.36 22.83L128.34 22.82ZM123.07 33.56L122.93 33.58L123 33.4L123.06 33.56H123.07Z" fill="#E6FEFF"/>
<path d="M163.2 16.0499C162.59 15.4699 161.48 14.8199 159.67 15.0499C158.57 15.1899 157.64 15.5499 156.92 16.1199C156.26 16.6299 155.68 17.3599 155.13 18.3499L150.32 27.3799L146.3 19.8999C145.79 18.9299 145.15 18.2199 144.4 17.7899C143.6 17.3299 142.6 17.1699 141.43 17.3099C140.08 17.4799 138.98 17.9999 138.16 18.8799C137.32 19.7699 136.87 20.9199 136.82 22.3099L136.18 40.4099C136.13 41.8599 136.54 43.0199 137.39 43.8499C137.92 44.3599 138.82 44.9299 140.22 44.9299C140.44 44.9299 140.68 44.9199 140.93 44.8799C142.29 44.7099 143.38 44.1599 144.17 43.2399C144.93 42.3599 145.33 41.2399 145.38 39.9099L145.48 37.1199L146.08 38.1999C146.5 38.9399 147.03 39.4999 147.65 39.8799C148.37 40.3199 149.23 40.4799 150.21 40.3499C151.14 40.2299 151.93 39.9099 152.57 39.3799C153.08 38.9499 153.53 38.3999 154 37.6199L154.63 36.4799L154.57 38.1299C154.52 39.5799 154.93 40.7399 155.78 41.5699C156.39 42.1699 157.51 42.8299 159.33 42.5999C160.69 42.4299 161.78 41.8799 162.57 40.9599C163.33 40.0799 163.73 38.9599 163.78 37.6299L164.41 19.5299C164.46 18.0499 164.05 16.8799 163.19 16.0599L163.2 16.0499Z" fill="#E6FEFF"/>
<path d="M36.99 42.2L33.38 41.84C32.4 41.75 31.74 41.56 31.38 41.29C31.03 41.02 30.86 40.66 30.87 40.2C30.89 39.74 31.04 39.32 31.34 38.94C31.63 38.56 32.06 38.24 32.61 37.99C33.16 37.74 33.82 37.56 34.6 37.47C35.31 37.38 36.05 37.36 36.8 37.41C37.56 37.46 38.24 37.58 38.83 37.79C39.47 37.99 40.03 38 40.5 37.83C40.97 37.65 41.36 37.36 41.65 36.96C41.95 36.55 42.12 36.1 42.18 35.61C42.24 35.11 42.18 34.65 41.98 34.22C41.78 33.79 41.45 33.47 40.98 33.27C40.18 32.87 39.23 32.62 38.12 32.51C37.01 32.4 35.91 32.41 34.82 32.55C33.42 32.72 32.14 33.06 30.99 33.56C29.84 34.06 28.84 34.69 27.99 35.44C27.14 36.19 26.48 37.06 25.99 38.04C25.51 39.02 25.25 40.08 25.21 41.21C25.15 42.93 25.59 44.27 26.54 45.23C27.49 46.2 28.95 46.77 30.95 46.96L34.59 47.32C35.57 47.42 36.24 47.59 36.62 47.85C37 48.11 37.18 48.48 37.16 48.98C37.14 49.55 36.85 50.05 36.28 50.5C35.71 50.95 34.74 51.26 33.36 51.43C32.48 51.54 31.54 51.55 30.55 51.45C29.55 51.36 28.66 51.16 27.88 50.87C27.28 50.66 26.74 50.66 26.26 50.87C25.77 51.07 25.38 51.39 25.07 51.83C24.76 52.27 24.57 52.75 24.49 53.28C24.41 53.81 24.48 54.29 24.69 54.73C24.9 55.17 25.29 55.49 25.84 55.71C26.48 55.96 27.2 56.15 28.01 56.29C28.82 56.43 29.67 56.5 30.58 56.51C31.49 56.51 32.36 56.47 33.19 56.36C34.63 56.18 35.94 55.84 37.1 55.35C38.26 54.86 39.26 54.24 40.1 53.5C40.94 52.76 41.59 51.9 42.06 50.94C42.53 49.97 42.79 48.92 42.83 47.79C42.89 46.12 42.43 44.82 41.47 43.9C40.51 42.98 39.01 42.42 37 42.21L36.99 42.2Z" fill="#003889"/>
<path d="M63.22 29.36L47.59 31.3C46.82 31.4 46.22 31.68 45.8 32.14C45.38 32.6 45.15 33.24 45.12 34.04C45.09 34.82 45.28 35.4 45.67 35.77C46.06 36.14 46.65 36.28 47.42 36.19L52.35 35.58L51.81 50.94C51.78 51.9 52 52.61 52.48 53.08C52.96 53.55 53.66 53.73 54.59 53.61C55.55 53.49 56.28 53.13 56.78 52.54C57.28 51.95 57.55 51.17 57.58 50.22L58.12 34.86L63.05 34.25C63.82 34.15 64.42 33.87 64.84 33.39C65.26 32.92 65.49 32.29 65.52 31.5C65.55 30.7 65.37 30.11 64.97 29.75C64.58 29.39 63.99 29.25 63.22 29.35V29.36Z" fill="#003889"/>
<path d="M86.2799 37.4601C86.9299 36.3101 87.2899 35.0001 87.3399 33.5401C87.4199 31.2801 86.7999 29.6001 85.4699 28.5001C84.1399 27.4001 82.2299 27.0001 79.7199 27.3101L71.9999 28.2701C71.0799 28.3801 70.3499 28.7301 69.8199 29.3201C69.2899 29.9101 69.0099 30.6901 68.9699 31.6701L68.3699 48.8901C68.3399 49.8501 68.5599 50.5601 69.0399 51.0301C69.5199 51.5001 70.2299 51.6801 71.1399 51.5601C72.0999 51.4401 72.8299 51.0801 73.3299 50.4901C73.8299 49.9001 74.0999 49.1201 74.1299 48.1701L74.3399 42.3301L76.0699 42.1201C76.5699 42.0601 77.0099 42.1001 77.3899 42.2301C77.7699 42.3601 78.0799 42.6601 78.3099 43.1101L80.9699 48.2001C81.3399 48.8901 81.7799 49.3801 82.2799 49.6601C82.7799 49.9401 83.4399 50.0401 84.2499 49.9301C85.0699 49.8301 85.6899 49.5601 86.1399 49.1301C86.5799 48.7001 86.8199 48.1801 86.8699 47.5801C86.9099 46.9801 86.7799 46.3901 86.4599 45.8001L84.9899 43.0601C84.5599 42.2001 84.0099 41.6001 83.3399 41.2401C83.0099 41.0701 82.6599 40.9501 82.2799 40.8901C82.7199 40.7101 83.1299 40.5101 83.5199 40.2801C84.6999 39.5601 85.6199 38.6201 86.2699 37.4701L86.2799 37.4601ZM74.4999 38.0901L74.6999 32.5101L78.5299 32.0301C79.6399 31.8901 80.4799 32.0301 81.0499 32.4201C81.6199 32.8101 81.8899 33.4701 81.8599 34.3801C81.8299 35.3401 81.5099 36.0801 80.9099 36.6101C80.3099 37.1401 79.4499 37.4701 78.3399 37.6101L74.5099 38.0901H74.4999Z" fill="#003889"/>
<path d="M106.45 23.9901L95.8099 25.3101C94.8299 25.4301 94.0699 25.7901 93.5399 26.3901C93.0099 26.9901 92.7299 27.7901 92.6899 28.7901L92.0999 45.5901C92.0599 46.5901 92.2899 47.3301 92.7899 47.7901C93.2799 48.2601 94.0199 48.4301 94.9999 48.3101L105.64 46.9901C106.39 46.9001 106.96 46.6301 107.35 46.1901C107.74 45.7501 107.95 45.1501 107.98 44.3901C108.01 43.6501 107.84 43.1001 107.47 42.7501C107.11 42.3901 106.55 42.2601 105.8 42.3601L97.6699 43.3701L97.8399 38.6401L105.28 37.7201C106.01 37.6301 106.58 37.3601 106.98 36.9201C107.38 36.4801 107.59 35.8801 107.62 35.1201C107.65 34.3601 107.47 33.8101 107.1 33.4601C106.73 33.1201 106.17 32.9901 105.44 33.0801L97.9999 34.0001L98.1499 29.6301L106.28 28.6201C107.03 28.5301 107.6 28.2501 108 27.8101C108.39 27.3601 108.6 26.7601 108.63 25.9901C108.66 25.2501 108.49 24.7101 108.12 24.3601C107.76 24.0201 107.2 23.8901 106.45 23.9801V23.9901Z" fill="#003889"/>
<path d="M126.46 23.65C126.09 22.85 125.65 22.2899 125.13 21.9699C124.61 21.6399 124 21.53 123.28 21.61C122.57 21.7 121.93 21.97 121.36 22.43C120.79 22.89 120.3 23.5699 119.9 24.4599L111.47 42.91C111.15 43.6399 111.04 44.2799 111.12 44.82C111.2 45.36 111.46 45.76 111.89 46.02C112.32 46.28 112.86 46.37 113.51 46.29C114.33 46.19 114.94 45.92 115.35 45.4799C115.76 45.0399 116.17 44.3599 116.58 43.4399L117.68 40.83L127.54 39.5999L128.47 41.95C128.79 42.78 129.18 43.3599 129.61 43.6899C130.05 44.0199 130.68 44.14 131.52 44.04C132.15 43.96 132.68 43.74 133.12 43.3899C133.56 43.0399 133.84 42.57 133.95 41.99C134.06 41.41 133.97 40.7999 133.66 40.1399L126.46 23.6299V23.65ZM122.99 28.17H123.05L125.82 35.25L119.71 36.0099L122.98 28.17H122.99Z" fill="#003889"/>
<path d="M161.77 17.5299C161.34 17.1199 160.7 16.9599 159.86 17.0699C159.13 17.1599 158.54 17.3799 158.1 17.7299C157.66 18.0799 157.24 18.6099 156.84 19.3299L150.27 31.6599L144.48 20.8699C144.15 20.2399 143.77 19.7999 143.36 19.5599C142.94 19.3199 142.37 19.2399 141.63 19.3399C140.75 19.4499 140.06 19.7699 139.57 20.2999C139.07 20.8299 138.81 21.5399 138.78 22.4299L138.15 40.5299C138.12 41.3999 138.32 42.0499 138.75 42.4699C139.18 42.8899 139.82 43.0499 140.65 42.9499C141.51 42.8399 142.16 42.5199 142.62 41.9899C143.08 41.4599 143.32 40.7599 143.35 39.8899L143.7 29.9399L147.79 37.2599C148.05 37.7099 148.34 38.0299 148.66 38.2199C148.99 38.4199 149.41 38.4799 149.93 38.4199C150.47 38.3499 150.91 38.1799 151.24 37.8999C151.57 37.6199 151.89 37.2199 152.2 36.7099L156.87 28.2199L156.52 38.2499C156.49 39.1199 156.69 39.7699 157.12 40.1899C157.55 40.6099 158.19 40.7699 159.02 40.6699C159.88 40.5599 160.53 40.2399 160.99 39.7099C161.45 39.1799 161.69 38.4699 161.72 37.6099L162.35 19.5099C162.38 18.6199 162.18 17.9699 161.75 17.5599L161.77 17.5299Z" fill="#003889"/>
<path opacity="0.5" d="M6.5199 44.9999C6.4399 38.1599 6.4999 31.4099 6.9999 30.2399C8.7999 26.0299 12.1799 23.3899 17.7199 23.1799L40.9499 20.3699C39.7199 19.2299 38.5099 18.0799 37.3099 16.8999L11.1699 19.7999C7.1099 20.5099 3.8499 23.8899 3.5799 27.6799C3.5199 28.5299 3.6499 35.5999 3.7999 42.5999C4.7099 43.3999 5.6099 44.1899 6.5099 44.9899L6.5199 44.9999Z" fill="#0041A0"/>
<path opacity="0.5" d="M4.03003 52.8601C4.09003 55.3101 4.13003 56.9701 4.13003 57.1201C4.17003 59.0901 6.86003 60.5901 6.86003 60.5701C6.86003 60.5001 6.79003 58.3101 6.71003 55.1401C5.82003 54.3701 4.93003 53.6101 4.03003 52.8601Z" fill="#0041A0"/>
<path opacity="0.5" d="M152.22 6.8699L165.62 5.2899C165.62 5.2899 163.42 3.0899 160.89 3.2199L148.79 4.5599C149.7 5.4099 151.24 6.0999 152.22 6.8699Z" fill="#0041A0"/>
<path opacity="0.5" d="M146.34 4.83008L141.84 5.33008C142.97 6.15008 144.11 6.95008 145.25 7.76008L149.59 7.19008C148.66 6.41008 146.98 5.32008 146.34 4.83008Z" fill="#0041A0"/>
<path opacity="0.5" d="M47.08 15.8201L39.77 16.6301C40.98 17.8001 42.21 18.9401 43.45 20.0701L50.57 19.2101C49.43 18.0601 48.27 16.9301 47.08 15.8201Z" fill="#0041A0"/>
<path d="M293.68 16.3901V16.3201C293.69 14.6301 292.71 14.0001 287.51 10.9601L287.38 10.8801C285.78 9.94008 284.09 9.58008 282.09 9.74008L243.29 11.4101H243.18C237.96 11.8601 237.25 15.3001 237.23 18.6501L237.34 29.0501C237.1 28.7501 236.83 28.4801 236.53 28.2501C234.84 26.9201 232.47 26.3201 230.79 26.4801L189.62 28.6101H189.5C187.27 28.8301 185.58 29.6401 184.48 31.0301C183.31 32.5101 182.92 34.5101 183.34 37.0301L186.44 54.0801L184.9 47.9401L184.83 47.6901C183.47 43.9601 179.29 41.3201 175.32 41.6801L138.76 45.0501C137.76 45.1401 136.83 45.4201 136.02 45.8801C135.27 45.9101 134.63 46.2101 134.18 46.6501L134.05 46.7601C132.66 47.9001 130.67 49.6401 129.48 51.5801C128.61 53.0001 128.53 54.8301 129.25 56.8701L132.12 68.3601L127.27 58.8701L127.16 58.6801C124.95 55.1301 120.5 52.7201 116.81 53.0601L81.7199 56.3801C79.7099 56.5701 78.1399 57.6101 77.3899 59.1501C76.9199 59.4501 76.6599 59.8301 76.5199 60.0601C76.0399 60.9001 75.2599 64.9101 74.9899 66.3801C74.7099 67.9401 75.1299 69.7001 76.2099 71.4701L89.2899 95.9701L72.0499 74.8501C69.7599 72.0501 66.2999 68.9101 59.7499 69.4901L21.5799 72.8701C19.5499 73.0501 17.9399 73.8701 17.0299 75.1901C16.0099 76.5401 15.6399 78.5601 15.3799 80.3501L15.3299 80.6901C15.1799 81.6201 15.0399 85.5801 16.9499 87.9201L42.5399 119.27C44.9599 122.24 49.4399 124.42 53.3099 124.65C53.8299 124.68 54.3499 124.68 54.8399 124.63L93.6999 121.19C96.4199 120.95 98.2799 119.36 98.6599 116.95L98.7199 116.61C98.9099 115.43 99.2699 113.26 99.3599 111.41C99.3799 111.3 99.3699 111.19 99.3799 111.08C101.22 112.25 103.29 113 105.22 113.11C105.65 113.14 106.08 113.13 106.49 113.09L141.92 109.73C143.95 109.54 145.51 108.51 146.27 106.97L146.66 105.83C146.71 105.61 146.74 105.37 146.75 105.14C146.78 104.64 147.06 102.46 147.31 100.53L147.34 99.5401L147.21 99.3201C147.68 99.3801 148.14 99.3501 148.6 99.3001L185.52 95.9001C188.31 95.6401 190.48 94.5001 191.47 92.7501C192.34 91.2201 194.09 87.5501 194.09 87.5501C194.39 86.3701 194.33 85.0801 193.9 83.8401L193.6 82.6401C193.6 82.6401 193.64 82.6801 193.67 82.7001C195.29 83.9601 197.5 84.7501 199.56 84.8701C200.02 84.9001 200.46 84.8901 200.89 84.8501L236.04 82.5001L236.27 82.4801C237.51 82.3601 239.06 82.1001 240.2 81.9001C241.61 81.6801 243.02 80.7801 244.1 79.3901C245.24 77.9201 245.53 75.8701 245.03 73.0001L243.99 66.3901C245.23 67.2701 246.47 67.8901 247.55 67.9501C247.69 67.9501 249.83 67.9201 250.38 67.8701L286.28 65.7701C289.61 65.4901 293.43 64.3301 293.41 57.8001L293.99 18.7101C294.03 17.8601 293.93 17.0801 293.67 16.3801L293.68 16.3901Z" fill="#50005B"/>
<path d="M281.93 12.1701L243.08 13.8401C240.36 14.0701 239.34 15.1201 239.32 18.7301L239.75 58.0001C239.72 59.3601 240.47 60.2301 241.26 61.0701C242.05 61.9101 245.81 65.5901 247.17 65.4701L280.69 59.8201C283.41 59.5901 285.64 58.9501 285.63 54.1301L290.67 16.1301C290.67 15.8201 286.34 13.3101 285.68 12.9301C284.77 12.4001 283.67 12.0101 281.93 12.1601V12.1701Z" fill="url(#paint2_linear_93_1348)"/>
<path d="M286.72 15.6401L247.87 17.3101C245.15 17.5401 244.13 18.5901 244.11 22.2001L244.54 61.4701C244.48 64.2001 246.92 65.6201 249.64 65.3901L285.47 63.2901C288.19 63.0601 290.42 62.4201 290.41 57.6001L290.99 18.4701C291.14 15.8401 289.44 15.4001 286.72 15.6301V15.6401Z" fill="url(#paint3_linear_93_1348)" stroke="#F75CFF" stroke-width="0.98" stroke-miterlimit="10"/>
<path d="M250.35 22.5699C251.68 21.6799 251.95 20.1699 250.96 19.2099C249.97 18.2399 248.1 18.1899 246.77 19.0799C245.44 19.9699 245.17 21.4799 246.16 22.4399C247.15 23.3999 249.02 23.4599 250.35 22.5699Z" fill="white"/>
<path d="M273 37.3499C271.48 36.5599 270.44 35.9899 269.89 35.6699C269.62 35.5099 269.35 35.2599 269.1 34.9199C268.93 34.6899 268.83 34.3499 268.82 33.9099C268.81 33.5599 268.92 33.3899 269.1 33.2299C269.3 33.0499 269.8 32.9599 270.46 32.9699C271.34 32.9899 272.26 33.1899 273.24 33.5699C274.19 33.9399 274.81 34.0899 275.38 34.0999C276.49 34.1199 278 33.6799 278.92 31.4899C279.37 30.4099 279.59 29.3699 279.56 28.3999C279.52 27.1299 278.85 26.0099 277.69 25.2399L277.64 25.2099C276.64 24.5799 275.42 24.0899 273.91 23.6999C272.49 23.3399 271.1 23.1399 269.75 23.1199C266.03 23.0499 262.95 23.9799 260.62 25.8799C258.19 27.8499 257.02 30.5699 257.13 33.9699C257.19 35.9799 257.65 37.7499 258.47 39.2399C259.29 40.7099 260.4 41.9999 261.79 43.0599C263.03 44.0199 264.62 44.9699 266.49 45.8899C268.27 46.7699 269.14 47.3999 269.57 47.7699C269.84 48.0099 269.99 48.4399 270.01 49.0499C270.03 49.7899 269.81 49.9399 269.74 49.9899C269.47 50.1699 269.01 50.4099 268.09 50.3899C266.97 50.3699 265.89 50.0499 264.78 49.4099L264.57 49.2999C264.45 49.2399 264.21 49.1199 263.85 48.9199C262.99 48.4599 262.26 48.2399 261.55 48.2299C260.66 48.2099 259.01 48.5099 257.96 50.6599C257.44 51.7299 257.19 52.8099 257.22 53.8799C257.24 54.5199 257.39 55.0999 257.66 55.6099C257.83 55.9199 258.05 56.2599 258.34 56.6399L258.5 56.8599L258.71 57.0399C259.87 58.0399 261.43 58.8299 263.34 59.3799C265.1 59.8799 266.92 60.1499 268.75 60.1899C271.44 60.2399 273.8 59.7699 275.75 58.7999C277.77 57.7999 279.29 56.3799 280.28 54.5699C281.23 52.8399 281.67 50.8799 281.6 48.7599C281.51 45.9499 280.69 43.6199 279.16 41.8399C277.75 40.1899 275.72 38.7199 273.01 37.3299L273 37.3499Z" fill="#F75CFF"/>
<path d="M272.95 35.94C271.43 35.15 270.39 34.58 269.84 34.26C269.57 34.1 269.3 33.85 269.05 33.51C268.88 33.28 268.78 32.94 268.77 32.5C268.76 32.15 268.87 31.98 269.05 31.82C269.25 31.64 269.75 31.55 270.41 31.56C271.29 31.58 272.21 31.78 273.19 32.16C274.14 32.53 274.76 32.68 275.33 32.69C276.44 32.71 277.95 32.27 278.87 30.08C279.32 29 279.54 27.96 279.51 26.99C279.47 25.72 278.8 24.6 277.64 23.83L277.59 23.8C276.59 23.17 275.37 22.68 273.86 22.29C272.44 21.93 271.05 21.73 269.7 21.71C265.98 21.64 262.9 22.57 260.57 24.47C258.14 26.44 256.97 29.16 257.08 32.56C257.14 34.57 257.6 36.34 258.42 37.83C259.24 39.3 260.35 40.59 261.74 41.65C262.98 42.61 264.57 43.56 266.44 44.48C268.22 45.36 269.09 45.99 269.52 46.36C269.79 46.6 269.94 47.03 269.96 47.64C269.98 48.38 269.76 48.53 269.69 48.58C269.42 48.76 268.96 49 268.04 48.98C266.92 48.96 265.84 48.64 264.73 48L264.52 47.89C264.4 47.83 264.16 47.71 263.8 47.51C262.94 47.05 262.21 46.83 261.5 46.82C260.61 46.8 258.96 47.1 257.91 49.25C257.39 50.32 257.14 51.4 257.17 52.47C257.19 53.11 257.34 53.69 257.61 54.2C257.78 54.51 258 54.85 258.29 55.23L258.45 55.45L258.66 55.63C259.82 56.63 261.38 57.42 263.29 57.97C265.05 58.47 266.87 58.74 268.7 58.78C271.39 58.83 273.75 58.36 275.7 57.39C277.72 56.39 279.24 54.97 280.23 53.16C281.18 51.43 281.62 49.47 281.55 47.35C281.46 44.54 280.64 42.21 279.11 40.43C277.7 38.78 275.67 37.31 272.96 35.92L272.95 35.94Z" fill="#8B1391"/>
<path d="M264.25 55.78C262.73 55.34 261.54 54.76 260.68 54.02C260.47 53.74 260.31 53.51 260.21 53.31C260.1 53.11 260.05 52.86 260.04 52.56C260.02 51.84 260.19 51.09 260.57 50.33C260.95 49.57 261.38 49.19 261.88 49.2C262.11 49.2 262.45 49.32 262.89 49.56C263.33 49.79 263.62 49.94 263.75 50.01C265.27 50.88 266.83 51.33 268.42 51.36C269.68 51.38 270.74 51.1 271.6 50.51C272.46 49.92 272.87 48.99 272.83 47.72C272.79 46.45 272.37 45.46 271.56 44.75C270.76 44.04 269.53 43.28 267.88 42.46C266.16 41.61 264.75 40.77 263.64 39.92C262.53 39.07 261.65 38.06 261 36.88C260.35 35.71 260 34.29 259.94 32.63C259.85 29.91 260.75 27.79 262.62 26.27C264.5 24.75 266.98 24.02 270.07 24.07C271.2 24.09 272.37 24.26 273.57 24.56C274.77 24.87 275.75 25.26 276.5 25.72C276.97 26.03 277.22 26.44 277.24 26.96C277.26 27.63 277.1 28.36 276.76 29.17C276.42 29.98 276.02 30.38 275.55 30.37C275.35 30.37 274.97 30.25 274.39 30.03C273.11 29.52 271.86 29.26 270.63 29.24C269.24 29.21 268.19 29.51 267.5 30.13C266.81 30.75 266.47 31.53 266.5 32.47C266.53 33.41 266.78 34.14 267.25 34.77C267.72 35.4 268.25 35.88 268.84 36.23C269.43 36.57 270.5 37.15 272.06 37.96C274.46 39.18 276.24 40.47 277.41 41.84C278.58 43.21 279.21 45.04 279.28 47.33C279.34 49.08 278.98 50.66 278.21 52.07C277.44 53.48 276.27 54.57 274.68 55.36C273.09 56.15 271.17 56.52 268.92 56.48C267.33 56.45 265.77 56.22 264.24 55.78H264.25Z" fill="white"/>
<path d="M227.52 29.26L189.43 31.04C186.78 31.29 184.73 32.69 185.4 36.72L192.85 77.65C193.3 81.1 197.48 82.65 200.13 82.4L235.21 80.06C237.86 79.81 239.99 79.78 238.56 74.55L232.13 33.76C231.81 31.01 230.18 29.02 227.53 29.27L227.52 29.26Z" fill="url(#paint4_linear_93_1348)"/>
<path d="M230.89 29.4899L192.75 31.3999C190.1 31.6499 189.28 32.7499 189.91 36.5199L197.36 77.4499C197.79 80.2899 200.45 81.7699 203.11 81.5099L238.19 79.1699C240.84 78.9199 242.94 78.2499 242.06 73.2199L235.63 32.4299C235.31 29.6799 233.55 29.2399 230.9 29.4899H230.89Z" fill="url(#paint5_linear_93_1348)" stroke="#F75CFF" stroke-miterlimit="10"/>
<path d="M196.15 36.8701C197.3 35.9401 197.3 34.3701 196.15 33.3701C195 32.3701 193.13 32.3201 191.98 33.2501C190.83 34.1801 190.83 35.7501 191.98 36.7601C193.13 37.7601 195 37.8101 196.15 36.8801V36.8701Z" fill="white"/>
<path d="M191.13 87.92L179.72 54.46C178.64 51.51 175.24 49.35 172.11 49.64L140.1 51.27C138.74 51.4 136.27 47.6 135.55 48.43C135.43 48.57 132.57 50.7 131.22 52.89C130.67 53.79 130.77 55.05 131.22 56.29L140.15 92.03C141.23 94.98 144.63 97.14 147.76 96.85L157.52 95.95L184.67 93.45C186.37 93.29 188.07 92.67 188.75 91.48C189.71 89.8 191.11 87.92 191.11 87.92H191.13Z" fill="url(#paint6_linear_93_1348)"/>
<path d="M175.24 44.1001L138.68 47.4701C135.92 47.7201 134.45 50.0501 135.4 52.6601L144.44 88.6801C145.39 91.2901 148.4 93.2001 151.17 92.9401L187.73 89.5701C190.49 89.3201 191.96 86.9901 191.01 84.3801L181.97 48.3601C181.02 45.7501 178.01 43.8401 175.24 44.1001Z" fill="url(#paint7_linear_93_1348)" stroke="#F75CFF" stroke-miterlimit="10"/>
<path d="M140.98 51.97C142.41 51.05 142.84 49.5 141.94 48.52C141.04 47.54 139.16 47.49 137.74 48.41C136.31 49.33 135.88 50.88 136.78 51.86C137.68 52.84 139.56 52.89 140.98 51.97Z" fill="white"/>
<path d="M144.33 100.05L123.97 66.0099C122.11 63.0099 118.16 60.8099 115.16 61.0899L84.09 62.6599C82.79 62.7799 78.81 60.4699 78.32 61.3099C78.24 61.4499 77.66 63.5199 77.05 66.9099C76.87 67.8899 77.19 69.0999 77.98 70.3599L96.85 105.7C98.71 108.7 102.66 110.9 105.66 110.62L115.03 109.73L141.09 107.26C142.73 107.11 143.66 106.15 143.75 104.82C143.81 103.99 144.33 100.04 144.33 100.04V100.05Z" fill="url(#paint8_linear_93_1348)"/>
<path d="M116.73 55.4801L81.64 58.8001C78.99 59.0501 78.17 61.4101 79.82 64.0601L98.54 100.69C100.19 103.34 103.67 105.29 106.33 105.04L141.42 101.72C144.07 101.47 144.89 99.1101 143.24 96.4601L124.52 59.8301C122.87 57.1801 119.39 55.2301 116.73 55.4801Z" fill="url(#paint9_linear_93_1348)" stroke="#F75CFF" stroke-miterlimit="10"/>
<path d="M85.0401 63.99C86.1901 63.06 86.1901 61.49 85.0401 60.49C83.8901 59.49 82.0201 59.44 80.8701 60.37C79.7201 61.3 79.7201 62.87 80.8701 63.88C82.0201 64.88 83.8901 64.93 85.0401 64V63.99Z" fill="white"/>
<path d="M88.84 109.9L85.07 103.2L68.55 82.0201C66.34 79.3201 61.89 77.3601 58.6 77.6501L19.63 76.0701C17.99 76.2201 17.6 79.8401 17.4 81.1501C17.24 82.2001 17.37 85.0901 18.47 86.4401L44.06 117.79C46.27 120.49 50.72 122.45 54.01 122.16L92.18 118.78L92.87 118.72C94.69 118.56 95.49 117.62 95.68 116.43C95.85 115.36 96.36 112.45 96.38 110.45L88.84 109.9Z" fill="url(#paint10_linear_93_1348)"/>
<path d="M61.0701 72.73L22.5901 76.14C19.6801 76.4 18.9001 78.54 20.8501 80.93L46.6501 112.54C48.6001 114.93 52.5401 116.66 55.4501 116.4L91.8901 112.71C94.8001 112.45 97.6201 110.59 95.6701 108.2L69.8701 76.59C67.9201 74.2 63.9801 72.47 61.0701 72.73Z" fill="url(#paint11_linear_93_1348)"/>
<path d="M60.6501 73.1201C63.1301 72.9001 66.4901 74.3801 68.1501 76.4101L93.7401 107.76C95.4001 109.8 94.7401 111.63 92.2601 111.85L54.1001 115.23C51.6201 115.45 48.2601 113.97 46.6001 111.94L21.0101 80.5901C19.3501 78.5501 20.0101 76.7201 22.4901 76.5001L60.6601 73.1201M59.6701 71.9201L21.5101 75.3001C18.2201 75.5901 17.3401 78.0201 19.5501 80.7201L45.1401 112.07C47.3501 114.77 51.8001 116.73 55.0901 116.44L93.2601 113.06C96.5501 112.77 97.4301 110.34 95.2201 107.64L69.6301 76.2901C67.9001 74.1701 65.2101 71.4301 59.6801 71.9201H59.6701Z" fill="#F75CFF"/>
<path d="M26.3199 80.4699C27.5399 79.6099 27.4599 78.1899 26.1499 77.2899C24.8299 76.3899 22.7699 76.37 21.5499 77.23C20.3299 78.09 20.4099 79.51 21.7199 80.41C23.0399 81.31 25.0999 81.3299 26.3199 80.4699Z" fill="white"/>
<path d="M72.75 98.3501C72.24 98.4101 71.76 98.5201 71.21 98.7101C70.5 98.9501 69.85 99.1601 69.29 99.3101C68.88 99.4201 68.32 99.5201 67.63 99.6001C65.7 99.8201 64.24 99.6101 62.73 98.8901C61.32 98.2201 59.12 96.7401 56.62 93.5501C54.14 90.3901 53.87 88.7001 54.07 87.8401C54.29 86.9201 55.15 86.4401 56.94 86.2301C58.16 86.0901 59.37 86.0701 60.63 86.1901C61.96 86.3201 63.19 86.1901 64.11 85.8401C65.17 85.4301 65.73 84.7601 65.75 83.8501C65.77 82.9401 65.42 82.0001 64.7 81.0701C64.2 80.3401 63.42 79.7301 62.39 79.2601C61.59 78.8901 60.2 78.4301 58.2 78.3201C55.9 78.1701 53.41 78.2601 50.59 78.5901C43.53 79.4101 39.16 81.3201 37.6 84.2701C36.11 87.0801 37.17 90.7201 40.84 95.4001C44.59 100.19 48.9 103.5 54.01 105.5C59.43 107.62 65.8 108.27 72.96 107.45C74.51 107.27 75.96 107.03 77.28 106.73C78.63 106.42 79.67 106.11 80.48 105.79C81.68 105.33 82.37 104.76 82.55 104.1C82.7 103.53 82.51 102.92 82.01 102.27C81.24 101.29 80.28 100.45 79.14 99.7701C76.47 98.1701 73.79 98.2801 72.77 98.4001L72.75 98.3501Z" fill="#F75CFF"/>
<path d="M71.9001 97.26C71.3901 97.32 70.9101 97.43 70.3601 97.62C69.6501 97.86 69.0001 98.07 68.4401 98.22C68.0301 98.33 67.4701 98.43 66.7801 98.51C64.8501 98.73 63.3901 98.52 61.8801 97.8C60.4701 97.13 58.2701 95.65 55.7701 92.46C53.2901 89.3 53.0201 87.61 53.2201 86.75C53.4401 85.83 54.3001 85.35 56.0901 85.14C57.3101 85 58.5201 84.98 59.7801 85.1C61.1101 85.23 62.3401 85.1 63.2601 84.75C64.3201 84.34 64.8801 83.67 64.9001 82.76C64.9201 81.85 64.5701 80.91 63.8501 79.98C63.3501 79.25 62.5701 78.64 61.5401 78.17C60.7401 77.8 59.3501 77.34 57.3501 77.23C55.0501 77.08 52.5601 77.17 49.7401 77.5C42.6801 78.32 38.3101 80.23 36.7501 83.18C35.2601 85.99 36.3201 89.63 39.9901 94.31C43.7401 99.1 48.0501 102.41 53.1601 104.41C58.5801 106.53 64.9501 107.18 72.1101 106.36C73.6601 106.18 75.1101 105.94 76.4301 105.64C77.7801 105.33 78.8201 105.02 79.6301 104.7C80.8301 104.24 81.5201 103.67 81.7001 103.01C81.8501 102.44 81.6601 101.83 81.1601 101.18C80.3901 100.2 79.4301 99.36 78.2901 98.68C75.6201 97.08 72.9401 97.19 71.9201 97.31L71.9001 97.26Z" fill="#8B1391"/>
<path d="M54.8299 103.01C50.4499 101.3 46.5599 98.2699 43.1599 93.9199C39.7599 89.5699 38.8199 86.3699 40.0999 83.9599C41.3699 81.5599 44.9899 80.0099 50.9499 79.3199C53.3599 79.0399 55.4999 78.9599 57.3599 79.0799C58.1099 79.1199 58.7099 79.2399 59.1499 79.4499C59.5999 79.6499 59.9499 79.9499 60.1999 80.3299C60.7499 81.0399 61.0199 81.7299 60.9999 82.4099C60.9799 83.0899 60.5099 83.3799 59.5699 83.2899C57.8199 83.1299 56.1099 83.1499 54.4499 83.3399C51.4299 83.6899 49.7299 84.6499 49.3499 86.2199C48.9799 87.7899 49.9099 90.0099 52.1599 92.8799C54.4099 95.7499 56.8399 97.8299 59.3999 99.0599C61.9599 100.29 64.8199 100.72 67.9799 100.36C68.9399 100.25 69.7499 100.1 70.3999 99.9299C71.0499 99.7499 71.7699 99.5299 72.5599 99.2599C72.7899 99.1799 72.9599 99.1399 73.0999 99.1199C73.8499 99.0299 74.6199 99.2299 75.4299 99.7199C76.2399 100.2 76.9399 100.82 77.5299 101.57C77.7899 101.9 77.8799 102.19 77.8199 102.44C77.7499 102.69 77.4199 102.93 76.8299 103.15C76.2099 103.4 75.3399 103.66 74.1999 103.92C73.0599 104.18 71.8199 104.39 70.4599 104.54C64.4099 105.24 59.1999 104.73 54.8199 103.02L54.8299 103.01Z" fill="white"/>
<path d="M133.17 91.4899L126.15 83.5599C124.81 82.0699 123.52 80.8899 122.26 79.9899C123.72 77.8899 123.71 75.1899 122.21 72.0399C119.05 65.3899 112.7 62.2099 104.35 63.0999L96.09 63.9799C94.38 64.1599 93.64 64.8499 93.32 65.3999C92.87 66.1599 92.92 67.1099 93.45 68.2299L106.37 95.3799C106.64 95.9499 108.26 98.7899 113.32 98.2599L114.71 98.1099C119.82 97.5699 118.71 94.6799 118.44 94.0999L114.5 85.8199C114.5 85.8199 114.51 85.8199 114.52 85.8199C114.65 85.8999 114.99 86.1399 115.54 86.7299L122.16 94.5099C122.95 95.4999 124.8 96.9899 128.64 96.5799L130.13 96.4199C131.76 96.2499 135.4 95.5399 134.03 92.6599C133.89 92.3799 133.71 92.0899 133.45 91.7899C133.35 91.6699 133.25 91.5599 133.18 91.4799L133.17 91.4899ZM110.6 73.9399C110.98 74.7399 111.11 75.3799 110.97 75.7999C110.92 75.9399 110.87 76.0099 110.84 76.0399L109.82 76.1499L108.02 72.3599L108.86 72.2699C109.25 72.2299 109.37 72.2999 109.48 72.3699C109.67 72.4899 110.12 72.9499 110.59 73.9499L110.6 73.9399Z" fill="#F75CFF"/>
<path d="M132.54 90.1701L125.52 82.2401C124.18 80.7501 122.89 79.5701 121.63 78.6701C123.09 76.5701 123.08 73.8701 121.58 70.7201C118.42 64.0701 112.07 60.8901 103.72 61.7801L95.4601 62.6601C93.7501 62.8401 93.0101 63.5301 92.6901 64.0801C92.2401 64.8401 92.2901 65.7901 92.8201 66.9101L105.74 94.0601C106.01 94.6301 107.63 97.4701 112.69 96.9401L114.08 96.7901C119.19 96.2501 118.08 93.3601 117.81 92.7801L113.87 84.5001C113.87 84.5001 113.88 84.5001 113.89 84.5001C114.02 84.5801 114.36 84.8201 114.91 85.4101L121.53 93.1901C122.32 94.1801 124.17 95.6701 128.01 95.2601L129.5 95.1001C131.13 94.9301 134.77 94.2201 133.4 91.3401C133.26 91.0601 133.08 90.7701 132.82 90.4701C132.72 90.3501 132.62 90.2401 132.55 90.1601L132.54 90.1701ZM109.97 72.6201C110.35 73.4201 110.48 74.0601 110.34 74.4801C110.29 74.6201 110.24 74.6901 110.21 74.7201L109.19 74.8301L107.39 71.0401L108.23 70.9501C108.62 70.9101 108.74 70.9801 108.85 71.0501C109.04 71.1701 109.49 71.6301 109.96 72.6301L109.97 72.6201Z" fill="#8B1391"/>
<path d="M108.7 93.74L95.7799 66.59C95.5199 66.05 95.4799 65.64 95.6499 65.35C95.8199 65.06 96.2099 64.89 96.8299 64.82L105.09 63.94C111.96 63.21 116.69 65.55 119.26 70.96C120.87 74.35 120.41 76.92 117.87 78.69L117.95 78.86C119.62 79.34 121.52 80.77 123.65 83.14L130.65 91.05C130.72 91.13 130.8 91.22 130.88 91.32C130.96 91.42 131.02 91.51 131.06 91.59C131.37 92.24 130.6 92.67 128.76 92.87L127.27 93.03C125.66 93.2 124.62 92.97 124.14 92.33L117.42 84.43C116.55 83.51 115.76 82.89 115.05 82.57C114.34 82.26 113.44 82.16 112.35 82.27L110.45 82.47L115.47 93.02C115.86 93.85 115.15 94.35 113.34 94.55L111.95 94.7C110.17 94.89 109.09 94.57 108.69 93.74H108.7ZM111.62 76.88C112.54 76.78 113.15 76.31 113.43 75.48C113.71 74.64 113.55 73.58 112.94 72.3C112.29 70.93 111.5 69.96 110.56 69.39C109.62 68.82 108.61 68.59 107.51 68.7L104.02 69.07L107.92 77.27L111.61 76.88H111.62Z" fill="white"/>
<path d="M161.21 50.5799C154.58 51.0799 147.27 54.8699 150.12 70.0599C152.97 85.2499 161.49 87.9399 168.12 87.4399C174.73 86.9399 182.01 83.1399 179.14 67.8699C176.29 52.6799 167.81 50.0799 161.2 50.5799H161.21ZM166.35 77.7299C165.27 77.8099 164.58 77.4899 163.88 76.5799C163.19 75.6899 162.2 73.6899 161.36 69.2099C160.52 64.7299 160.75 62.6699 161.09 61.7299C161.43 60.7799 162.01 60.3599 163.09 60.2799C164.17 60.1999 164.81 60.5099 165.49 61.3899C166.16 62.2599 167.14 64.2399 167.98 68.7199C168.82 73.1999 168.59 75.2899 168.25 76.2599C167.85 77.3999 167.21 77.6699 166.36 77.7299H166.35Z" fill="#F75CFF"/>
<path d="M160.95 49.18C154.32 49.68 147.01 53.47 149.86 68.66C152.72 83.93 161.23 86.54 167.86 86.04C174.49 85.54 181.75 81.74 178.88 66.47C176.03 51.28 167.55 48.68 160.94 49.18H160.95ZM167.71 67.32C168.55 71.8 168.32 73.89 167.98 74.86C167.58 76 166.94 76.27 166.09 76.33C165.01 76.41 164.32 76.09 163.62 75.18C162.93 74.29 161.94 72.29 161.1 67.81C160.26 63.34 160.49 61.27 160.83 60.33C161.17 59.38 161.75 58.96 162.83 58.88C163.91 58.8 164.55 59.11 165.23 59.99C165.9 60.86 166.88 62.84 167.72 67.32H167.71Z" fill="#8B1391"/>
<path d="M152.09 68.5C150.08 57.79 153.12 52.14 161.19 51.53C169.23 50.92 174.26 55.97 176.27 66.68C178.29 77.45 175.28 83.13 167.23 83.74C159.15 84.35 154.11 79.27 152.09 68.51V68.5ZM170.13 75.8C170.75 74.03 170.69 71.15 169.94 67.15C169.19 63.15 168.2 60.35 166.96 58.75C165.72 57.15 164.13 56.42 162.19 56.57C160.25 56.72 158.92 57.66 158.29 59.4C157.66 61.14 157.73 64.01 158.48 68.01C159.23 72.01 160.23 74.82 161.49 76.45C162.75 78.08 164.36 78.82 166.33 78.67C168.3 78.52 169.5 77.57 170.12 75.8H170.13Z" fill="white"/>
<path d="M221.03 52.2399C219.48 51.4399 218.41 50.8699 217.85 50.5499C217.57 50.3899 217.29 50.1399 217.02 49.7899C216.83 49.5599 216.71 49.2099 216.66 48.7599C216.62 48.3999 216.71 48.2299 216.88 48.0699C217.06 47.8899 217.55 47.7899 218.19 47.7999C219.05 47.8099 219.98 48.0099 220.96 48.3999C221.92 48.7699 222.54 48.9199 223.1 48.9299C224.18 48.9399 225.63 48.4899 226.36 46.2499C226.72 45.1399 226.85 44.0799 226.74 43.0999C226.6 41.7999 225.86 40.6599 224.65 39.8899L224.6 39.8599C223.57 39.2299 222.34 38.7299 220.83 38.3399C219.41 37.9799 218.03 37.7899 216.71 37.7699C213.06 37.7199 210.12 38.6799 207.98 40.6299C205.76 42.6499 204.83 45.4299 205.21 48.8999C205.43 50.9499 206.02 52.7599 206.95 54.2699C207.87 55.7699 209.06 57.0699 210.51 58.1499C211.8 59.1199 213.43 60.0799 215.35 61.0199C217.16 61.8999 218.07 62.5399 218.51 62.9199C218.8 63.1699 218.98 63.6099 219.05 64.2299C219.13 64.9799 218.93 65.1399 218.86 65.1899C218.61 65.3799 218.18 65.6199 217.27 65.6099C216.18 65.5999 215.09 65.2799 213.95 64.6299L213.73 64.5199C213.61 64.4599 213.36 64.3399 212.99 64.1399C212.11 63.6799 211.37 63.4499 210.68 63.4399C209.81 63.4299 208.22 63.7399 207.36 65.9399C206.93 67.0299 206.78 68.1399 206.89 69.2299C206.96 69.8799 207.15 70.4799 207.46 70.9999C207.65 71.3199 207.89 71.6599 208.21 72.0499L208.39 72.2699L208.61 72.4499C209.82 73.4699 211.41 74.2599 213.34 74.8099C215.1 75.3099 216.91 75.5799 218.71 75.5999C221.35 75.6399 223.62 75.1499 225.46 74.1399C227.36 73.1099 228.73 71.6499 229.56 69.7999C230.35 68.0299 230.63 66.0299 230.39 63.8599C230.08 60.9899 229.09 58.6199 227.44 56.8099C225.92 55.1399 223.82 53.6399 221.05 52.2399H221.03Z" fill="#F75CFF"/>
<path d="M220.88 50.81C219.33 50.01 218.26 49.44 217.7 49.12C217.42 48.96 217.14 48.71 216.87 48.36C216.68 48.13 216.56 47.78 216.51 47.33C216.47 46.97 216.56 46.8 216.73 46.64C216.91 46.46 217.4 46.36 218.04 46.37C218.9 46.38 219.83 46.58 220.81 46.97C221.77 47.34 222.39 47.49 222.95 47.5C224.03 47.51 225.48 47.06 226.21 44.82C226.57 43.71 226.7 42.65 226.59 41.67C226.45 40.37 225.71 39.23 224.5 38.46L224.45 38.43C223.42 37.8 222.19 37.3 220.68 36.91C219.26 36.55 217.88 36.36 216.56 36.34C212.91 36.29 209.97 37.25 207.83 39.2C205.61 41.22 204.68 44 205.06 47.47C205.28 49.52 205.87 51.33 206.8 52.84C207.72 54.34 208.91 55.64 210.36 56.72C211.65 57.69 213.28 58.65 215.2 59.59C217.01 60.47 217.92 61.11 218.36 61.49C218.65 61.74 218.83 62.18 218.9 62.8C218.98 63.55 218.78 63.71 218.71 63.76C218.46 63.95 218.03 64.19 217.12 64.18C216.03 64.17 214.94 63.85 213.8 63.2L213.58 63.09C213.46 63.03 213.21 62.91 212.84 62.71C211.96 62.25 211.22 62.02 210.53 62.01C209.66 62 208.07 62.31 207.21 64.51C206.78 65.6 206.63 66.71 206.74 67.8C206.81 68.45 207 69.05 207.31 69.57C207.5 69.89 207.74 70.23 208.06 70.62L208.24 70.84L208.46 71.02C209.67 72.04 211.26 72.83 213.19 73.38C214.95 73.88 216.76 74.15 218.56 74.17C221.2 74.21 223.47 73.72 225.31 72.71C227.21 71.68 228.58 70.22 229.41 68.37C230.2 66.6 230.48 64.6 230.24 62.43C229.93 59.56 228.94 57.19 227.29 55.38C225.77 53.71 223.67 52.21 220.9 50.81H220.88Z" fill="#8B1391"/>
<path d="M213.94 71.09C212.41 70.65 211.2 70.06 210.3 69.31C210.07 69.03 209.9 68.79 209.78 68.59C209.66 68.39 209.58 68.13 209.55 67.83C209.47 67.09 209.58 66.33 209.89 65.55C210.2 64.77 210.59 64.38 211.08 64.39C211.31 64.39 211.65 64.51 212.1 64.75C212.55 64.99 212.84 65.14 212.98 65.2C214.54 66.08 216.1 66.53 217.67 66.56C218.91 66.58 219.93 66.28 220.72 65.68C221.52 65.08 221.84 64.13 221.7 62.83C221.56 61.53 221.07 60.53 220.22 59.81C219.38 59.09 218.11 58.32 216.43 57.5C214.68 56.65 213.22 55.79 212.07 54.93C210.92 54.07 209.98 53.04 209.24 51.85C208.51 50.66 208.05 49.21 207.86 47.52C207.56 44.75 208.26 42.58 209.98 41.02C211.7 39.46 214.07 38.7 217.1 38.74C218.21 38.75 219.36 38.92 220.57 39.23C221.78 39.54 222.76 39.93 223.53 40.4C224.02 40.71 224.29 41.13 224.35 41.66C224.42 42.34 224.33 43.09 224.06 43.92C223.79 44.75 223.43 45.16 222.97 45.15C222.77 45.15 222.39 45.03 221.81 44.81C220.52 44.3 219.27 44.04 218.06 44.02C216.69 44 215.69 44.31 215.06 44.95C214.43 45.59 214.17 46.38 214.27 47.34C214.37 48.3 214.68 49.05 215.19 49.68C215.7 50.32 216.26 50.81 216.86 51.16C217.47 51.51 218.56 52.09 220.15 52.91C222.59 54.14 224.45 55.45 225.7 56.84C226.96 58.23 227.71 60.09 227.97 62.43C228.17 64.22 227.94 65.83 227.3 67.27C226.66 68.71 225.59 69.83 224.11 70.64C222.62 71.45 220.77 71.84 218.55 71.81C216.99 71.79 215.44 71.56 213.91 71.12L213.94 71.09Z" fill="white"/>
<path d="M16.1699 31.22C17.5999 30.3 18.0299 28.75 17.1299 27.77C16.2299 26.79 14.3499 26.74 12.9299 27.66C11.4999 28.58 11.0699 30.13 11.9699 31.11C12.8699 32.09 14.7499 32.14 16.1699 31.22Z" fill="white"/>
<path d="M269.31 22.2199C269.43 22.2199 269.55 22.2199 269.68 22.2199C270.99 22.2399 272.35 22.43 273.72 22.79C275.18 23.16 276.35 23.64 277.3 24.2299L277.34 24.26C278.37 24.93 278.95 25.91 278.99 27.01C279.02 27.9 278.82 28.8699 278.39 29.8899C277.75 31.4199 276.74 32.2 275.38 32.2H275.32C274.81 32.2 274.24 32.05 273.36 31.7C272.34 31.3 271.35 31.08 270.41 31.07H270.3C269.54 31.07 269 31.1999 268.71 31.4599C268.39 31.7499 268.25 32.0799 268.27 32.5299C268.29 33.0699 268.42 33.5099 268.65 33.82C268.94 34.2199 269.26 34.51 269.59 34.7C270.15 35.02 271.2 35.5899 272.73 36.3899C275.39 37.75 277.36 39.1799 278.73 40.7799C280.18 42.4699 280.97 44.6999 281.05 47.3899C281.12 49.42 280.69 51.29 279.79 52.95C278.85 54.67 277.4 56.02 275.48 56.97C273.68 57.86 271.53 58.31 269.07 58.31C268.95 58.31 268.83 58.31 268.7 58.31C266.91 58.28 265.13 58.01 263.42 57.52C261.57 56.99 260.08 56.24 258.98 55.29L258.81 55.1399L258.68 54.97C258.41 54.61 258.2 54.29 258.05 54C257.81 53.5599 257.69 53.05 257.67 52.49C257.64 51.5 257.87 50.5 258.36 49.5C259.23 47.7199 260.51 47.3499 261.43 47.3499H261.49C262.11 47.3599 262.77 47.5599 263.56 47.9799C263.94 48.18 264.18 48.31 264.29 48.36L264.49 48.4599C265.67 49.1399 266.83 49.4799 268.04 49.5H268.14C269.15 49.5 269.67 49.2199 269.98 49.0099C270.33 48.7699 270.49 48.33 270.47 47.6399C270.45 46.8899 270.24 46.33 269.86 46C269.41 45.61 268.5 44.9499 266.67 44.0499C264.82 43.1399 263.27 42.21 262.05 41.27C260.72 40.25 259.65 39.0099 258.86 37.5999C258.07 36.1799 257.64 34.49 257.58 32.56C257.48 29.32 258.59 26.74 260.88 24.87C263.05 23.11 265.89 22.2199 269.33 22.2199M269.31 21.7199C265.76 21.7199 262.81 22.6499 260.55 24.4799C258.12 26.45 256.95 29.17 257.06 32.57C257.12 34.58 257.58 36.35 258.4 37.84C259.22 39.3099 260.33 40.6 261.72 41.66C262.96 42.6199 264.55 43.57 266.42 44.49C268.2 45.37 269.07 45.9999 269.5 46.3699C269.77 46.6099 269.92 47.04 269.94 47.65C269.96 48.39 269.74 48.54 269.67 48.59C269.41 48.77 268.97 49 268.11 49C268.08 49 268.05 49 268.02 49C266.9 48.9799 265.82 48.66 264.71 48.02L264.5 47.91C264.38 47.85 264.14 47.7299 263.78 47.5299C262.92 47.07 262.19 46.85 261.48 46.84C261.46 46.84 261.44 46.84 261.41 46.84C260.51 46.84 258.91 47.17 257.89 49.27C257.37 50.34 257.12 51.42 257.15 52.49C257.17 53.13 257.32 53.71 257.59 54.22C257.76 54.53 257.98 54.8699 258.27 55.25L258.43 55.47L258.64 55.65C259.8 56.65 261.36 57.44 263.27 57.99C265.03 58.49 266.85 58.7599 268.68 58.7999C268.81 58.7999 268.93 58.7999 269.06 58.7999C271.59 58.7999 273.82 58.33 275.69 57.4C277.71 56.4 279.23 54.9799 280.22 53.1699C281.17 51.4399 281.61 49.4799 281.54 47.36C281.45 44.55 280.63 42.2199 279.1 40.4399C277.69 38.7899 275.66 37.32 272.95 35.93C271.43 35.14 270.39 34.57 269.84 34.25C269.57 34.09 269.3 33.84 269.05 33.5C268.88 33.27 268.78 32.93 268.77 32.49C268.76 32.14 268.87 31.9699 269.05 31.8099C269.23 31.6399 269.7 31.5499 270.3 31.5499C270.33 31.5499 270.37 31.5499 270.41 31.5499C271.29 31.57 272.21 31.77 273.19 32.15C274.14 32.52 274.76 32.67 275.33 32.68C275.35 32.68 275.38 32.68 275.4 32.68C276.5 32.68 277.97 32.2199 278.87 30.07C279.32 28.99 279.54 27.95 279.51 26.9799C279.47 25.7099 278.8 24.59 277.64 23.82L277.59 23.79C276.59 23.16 275.37 22.67 273.86 22.28C272.44 21.92 271.05 21.72 269.7 21.7C269.57 21.7 269.45 21.7 269.33 21.7L269.31 21.7199Z" fill="#5F006D"/>
<path d="M55.1401 77.6399C55.8801 77.6399 56.6101 77.6599 57.3201 77.7099C59.2501 77.8199 60.5601 78.2599 61.3301 78.6099C62.2701 79.0399 62.9801 79.5899 63.4501 80.2699C64.1001 81.1099 64.4101 81.9399 64.4001 82.7399C64.3801 83.4399 63.9501 83.9399 63.0801 84.2799C62.4601 84.5199 61.6701 84.6499 60.7901 84.6499C60.4801 84.6499 60.1601 84.6299 59.8301 84.5999C59.2601 84.5499 58.6901 84.5199 58.1401 84.5199C57.4301 84.5199 56.7501 84.5599 56.0401 84.6399C54.6901 84.7999 53.0901 85.1599 52.7401 86.6299C52.4001 88.0399 53.2901 90.0999 55.3801 92.7699C57.9401 96.0399 60.2101 97.5599 61.6601 98.2499C62.8601 98.8299 64.0501 99.0999 65.4101 99.0999C65.8601 99.0999 66.3301 99.0699 66.8401 99.0099C67.5601 98.9299 68.1401 98.8199 68.5801 98.7099C69.1601 98.5499 69.8101 98.3499 70.5301 98.0999C71.0401 97.9299 71.4901 97.8199 71.9601 97.7699C72.1801 97.7399 72.5401 97.7099 72.9901 97.7099C74.2401 97.7099 76.1301 97.9499 78.0201 99.0699C79.1001 99.7199 80.0201 100.52 80.7501 101.45C81.1601 101.97 81.3101 102.44 81.2101 102.85C81.0801 103.34 80.4701 103.81 79.4401 104.2C78.6601 104.51 77.6401 104.81 76.3201 105.12C75.0201 105.42 73.5901 105.66 72.0601 105.83C70.0901 106.06 68.1501 106.17 66.2901 106.17C61.5301 106.17 57.1701 105.41 53.3401 103.91C48.3101 101.94 44.0701 98.6899 40.3801 93.9699C36.8501 89.4599 35.8101 85.9999 37.1901 83.3899C38.6701 80.5899 42.9201 78.7699 49.8001 77.9699C51.7401 77.7499 53.4901 77.6399 55.1501 77.6399M55.1401 77.1399C53.4601 77.1399 51.6801 77.2499 49.7301 77.4799C42.6701 78.2999 38.3001 80.2099 36.7401 83.1599C35.2501 85.9699 36.3101 89.6099 39.9801 94.2899C43.7301 99.0799 48.0401 102.39 53.1501 104.39C57.0501 105.92 61.4501 106.68 66.2801 106.68C68.1601 106.68 70.1001 106.56 72.1001 106.33C73.6501 106.15 75.1001 105.91 76.4201 105.61C77.7701 105.3 78.8101 104.99 79.6201 104.67C80.8201 104.21 81.5101 103.64 81.6901 102.98C81.8401 102.41 81.6501 101.8 81.1501 101.15C80.3801 100.17 79.4201 99.3299 78.2801 98.6499C76.2901 97.4599 74.3001 97.2199 72.9901 97.2199C72.5401 97.2199 72.1701 97.2499 71.9001 97.2799C71.3901 97.3399 70.9101 97.4499 70.3601 97.6399C69.6501 97.8799 69.0001 98.0899 68.4401 98.2399C68.0301 98.3499 67.4701 98.4499 66.7801 98.5299C66.3001 98.5899 65.8401 98.6099 65.4101 98.6099C64.1101 98.6099 63.0101 98.3499 61.8801 97.8099C60.4701 97.1399 58.2701 95.6599 55.7701 92.4699C53.2901 89.3099 53.0201 87.6199 53.2201 86.7599C53.4401 85.8399 54.3001 85.3599 56.0901 85.1499C56.7701 85.0699 57.4501 85.0299 58.1301 85.0299C58.6701 85.0299 59.2201 85.0499 59.7801 85.0999C60.1201 85.1299 60.4601 85.1499 60.7901 85.1499C61.7301 85.1499 62.5801 85.0099 63.2601 84.7499C64.3201 84.3399 64.8801 83.6699 64.9001 82.7599C64.9201 81.8499 64.5701 80.9099 63.8501 79.9799C63.3501 79.2499 62.5701 78.6399 61.5401 78.1699C60.7401 77.7999 59.3501 77.3399 57.3501 77.2299C56.6301 77.1799 55.9001 77.1599 55.1401 77.1599V77.1399Z" fill="#5F006D"/>
<path d="M106.4 62.1301C113.3 62.1301 118.39 65.1701 121.13 70.9301C122.55 73.9101 122.58 76.4201 121.22 78.3801L120.94 78.7901L121.34 79.0801C122.56 79.9501 123.85 81.1301 125.15 82.5801L132.17 90.5201C132.23 90.5901 132.33 90.7001 132.43 90.8101C132.65 91.0801 132.82 91.3301 132.94 91.5801C133.24 92.2101 133.27 92.7201 133.04 93.1401C132.62 93.8901 131.31 94.4301 129.44 94.6301L127.95 94.7901C127.54 94.8301 127.13 94.8601 126.75 94.8601C123.9 94.8601 122.5 93.6401 121.91 92.8901L115.27 85.0901C114.7 84.4901 114.32 84.2201 114.15 84.1101L114.04 84.0501H113.93L113.03 83.9301L113.42 84.7501L117.36 93.0301C117.47 93.2701 117.82 94.1201 117.4 94.8601C116.97 95.6301 115.8 96.1401 114.03 96.3301L112.64 96.4801C112.24 96.5201 111.84 96.5401 111.47 96.5401C107.65 96.5401 106.41 94.3301 106.2 93.8801L93.2801 66.7301C92.8201 65.7701 92.7701 64.9701 93.1301 64.3701C93.3901 63.9201 94.0201 63.3501 95.5201 63.1901L103.78 62.3101C104.67 62.2201 105.56 62.1701 106.41 62.1701M108.9 75.3601L109.25 75.3201L110.27 75.2101L110.46 75.1901L110.59 75.0401C110.68 74.9401 110.75 74.8001 110.81 74.6301C111 74.0801 110.87 73.3301 110.42 72.4001C109.93 71.3701 109.43 70.8001 109.11 70.6101C108.96 70.5201 108.78 70.4301 108.44 70.4301C108.37 70.4301 108.28 70.4301 108.18 70.4501L107.34 70.5401L106.64 70.6101L106.94 71.2501L108.74 75.0401L108.89 75.3601M106.4 61.6301C105.53 61.6301 104.64 61.6801 103.72 61.7801L95.4601 62.6601C93.7501 62.8401 93.0101 63.5301 92.6901 64.0801C92.2401 64.8401 92.2901 65.7901 92.8201 66.9101L105.74 94.0601C105.99 94.5901 107.37 97.0001 111.47 97.0001C111.85 97.0001 112.26 96.9801 112.69 96.9301L114.08 96.7801C119.19 96.2401 118.08 93.3501 117.81 92.7701L113.87 84.4901C113.87 84.4901 113.88 84.4901 113.89 84.4901C114.02 84.5701 114.36 84.8101 114.91 85.4001L121.53 93.1801C122.23 94.0601 123.75 95.3201 126.75 95.3201C127.14 95.3201 127.56 95.3001 128 95.2501L129.49 95.0901C131.12 94.9201 134.76 94.2101 133.39 91.3301C133.25 91.0501 133.07 90.7601 132.81 90.4601C132.71 90.3401 132.61 90.2301 132.54 90.1501L125.52 82.2201C124.18 80.7301 122.89 79.5501 121.63 78.6501C123.09 76.5501 123.08 73.8501 121.58 70.7001C118.76 64.7801 113.43 61.6101 106.4 61.6101V61.6301ZM109.2 74.8201L107.4 71.0301L108.24 70.9401C108.32 70.9401 108.39 70.9301 108.45 70.9301C108.68 70.9301 108.77 70.9901 108.86 71.0401C109.05 71.1601 109.5 71.6201 109.97 72.6201C110.35 73.4201 110.48 74.0601 110.34 74.4801C110.29 74.6201 110.24 74.6901 110.21 74.7201L109.19 74.8301L109.2 74.8201Z" fill="#5F006D"/>
<path d="M162.42 49.6301C170.8 49.6301 176.32 55.4901 178.4 66.5701C179.65 73.2401 179.04 78.2301 176.59 81.4201C174.72 83.8601 171.77 85.2501 167.83 85.5501C167.35 85.5901 166.87 85.6001 166.4 85.6001C157.99 85.6001 152.45 79.7101 150.36 68.5701C149.12 61.9601 149.73 57.0001 152.17 53.8301C154.05 51.3801 157.02 49.9801 161 49.6801C161.48 49.6401 161.96 49.6301 162.43 49.6301M165.78 76.8501C165.89 76.8501 166.01 76.8501 166.13 76.8401C166.99 76.7801 167.93 76.5101 168.45 75.0301C168.97 73.5401 168.89 70.9101 168.2 67.2301C167.34 62.6501 166.32 60.6001 165.61 59.6901C164.9 58.7701 164.15 58.3801 163.12 58.3801C163.01 58.3801 162.9 58.3801 162.78 58.3901C161.51 58.4901 160.76 59.0401 160.35 60.1701C159.83 61.6301 159.91 64.2301 160.6 67.9101C161.46 72.4901 162.5 74.5601 163.22 75.4901C163.95 76.4401 164.72 76.8401 165.78 76.8401M162.42 49.1301C161.92 49.1301 161.43 49.1501 160.95 49.1901C154.32 49.6901 147.01 53.4801 149.86 68.6701C152.52 82.8301 160.03 86.1001 166.39 86.1001C166.89 86.1001 167.38 86.0801 167.86 86.0401C174.47 85.5401 181.75 81.7401 178.88 66.4701C176.24 52.3801 168.75 49.1201 162.41 49.1201L162.42 49.1301ZM165.78 76.3501C164.87 76.3501 164.25 76.0101 163.62 75.1901C162.93 74.3001 161.94 72.3001 161.1 67.8201C160.26 63.3501 160.49 61.2801 160.83 60.3401C161.17 59.3901 161.75 58.9701 162.83 58.8901C162.93 58.8901 163.03 58.8801 163.13 58.8801C164.01 58.8801 164.61 59.2101 165.22 60.0001C165.89 60.8701 166.87 62.8501 167.71 67.3301C168.55 71.8101 168.32 73.9001 167.98 74.8701C167.58 76.0101 166.94 76.2801 166.09 76.3401C165.98 76.3401 165.88 76.3501 165.78 76.3501Z" fill="#5F006D"/>
<path d="M216.27 36.8201H216.53C217.81 36.8401 219.16 37.0301 220.53 37.3801C221.99 37.7501 223.18 38.2301 224.16 38.8401L224.2 38.8701C225.27 39.5601 225.94 40.5701 226.06 41.7101C226.16 42.6201 226.04 43.6201 225.7 44.6601C225.2 46.2101 224.28 47.0001 222.92 47.0001C222.42 47.0001 221.85 46.8501 220.96 46.5001C219.93 46.0901 218.94 45.8801 218.02 45.8701H217.94C217.16 45.8701 216.63 46.0101 216.35 46.2901C216.05 46.5901 215.94 46.9301 215.99 47.3901C216.05 47.9301 216.2 48.3601 216.45 48.6701C216.77 49.0701 217.09 49.3601 217.43 49.5501C218 49.8801 219.08 50.4501 220.64 51.2601C223.36 52.6301 225.41 54.0901 226.88 55.7201C228.45 57.4501 229.4 59.7301 229.7 62.4901C229.93 64.5701 229.66 66.4801 228.91 68.1701C228.13 69.9201 226.83 71.3001 225.03 72.2701C223.33 73.2001 221.23 73.6701 218.78 73.6701H218.52C216.76 73.6401 215 73.3801 213.28 72.8901C211.43 72.3601 209.9 71.6001 208.74 70.6301L208.56 70.4801L208.41 70.3001C208.11 69.9301 207.88 69.6101 207.71 69.3101C207.44 68.8501 207.27 68.3301 207.21 67.7501C207.1 66.7401 207.25 65.7101 207.64 64.6901C208.34 62.8901 209.56 62.5101 210.49 62.5101C211.1 62.5101 211.76 62.7201 212.57 63.1501C212.95 63.3501 213.21 63.4801 213.31 63.5301L213.51 63.6301C214.72 64.3201 215.88 64.6601 217.07 64.6701H217.14C218.16 64.6701 218.67 64.3701 218.96 64.1501C219.3 63.8901 219.42 63.4401 219.34 62.7401C219.26 61.9901 219.02 61.4401 218.63 61.1101C218.16 60.7101 217.22 60.0501 215.36 59.1401C213.47 58.2201 211.88 57.2701 210.61 56.3201C209.22 55.2801 208.06 54.0201 207.18 52.5801C206.29 51.1301 205.73 49.3901 205.51 47.4201C205.15 44.1201 206.03 41.4801 208.12 39.5701C210.11 37.7601 212.85 36.8401 216.25 36.8401M216.27 36.3201C212.74 36.3201 209.89 37.2801 207.81 39.1801C205.59 41.2001 204.66 43.9801 205.04 47.4501C205.26 49.5001 205.85 51.3101 206.78 52.8201C207.7 54.3201 208.89 55.6201 210.34 56.7001C211.63 57.6701 213.26 58.6301 215.18 59.5701C216.99 60.4501 217.9 61.0901 218.34 61.4701C218.63 61.7201 218.81 62.1601 218.88 62.7801C218.96 63.5301 218.76 63.6901 218.69 63.7401C218.45 63.9201 218.03 64.1601 217.17 64.1601C217.15 64.1601 217.13 64.1601 217.11 64.1601C216.02 64.1501 214.93 63.8301 213.79 63.1801L213.57 63.0701C213.45 63.0101 213.2 62.8901 212.83 62.6901C211.95 62.2301 211.21 62.0001 210.52 61.9901C210.5 61.9901 210.49 61.9901 210.47 61.9901C209.59 61.9901 208.04 62.3301 207.19 64.4901C206.76 65.5801 206.61 66.6901 206.72 67.7801C206.79 68.4301 206.98 69.0301 207.29 69.5501C207.48 69.8701 207.72 70.2101 208.04 70.6001L208.22 70.8201L208.44 71.0001C209.65 72.0201 211.24 72.8101 213.17 73.3601C214.93 73.8601 216.74 74.1301 218.54 74.1501C218.63 74.1501 218.72 74.1501 218.81 74.1501C221.34 74.1501 223.52 73.6601 225.29 72.6901C227.19 71.6601 228.56 70.2001 229.39 68.3501C230.18 66.5801 230.46 64.5801 230.22 62.4101C229.91 59.5401 228.92 57.1701 227.27 55.3601C225.75 53.6901 223.65 52.1901 220.88 50.7901C219.33 49.9901 218.26 49.4201 217.7 49.1001C217.42 48.9401 217.14 48.6901 216.87 48.3401C216.68 48.1101 216.56 47.7601 216.51 47.3101C216.47 46.9501 216.56 46.7801 216.73 46.6201C216.9 46.4501 217.36 46.3501 217.96 46.3501C217.98 46.3501 218.01 46.3501 218.04 46.3501C218.9 46.3601 219.83 46.5601 220.81 46.9501C221.77 47.3201 222.39 47.4701 222.95 47.4801C222.97 47.4801 222.98 47.4801 223 47.4801C224.08 47.4801 225.49 47.0101 226.21 44.7901C226.57 43.6801 226.7 42.6201 226.59 41.6401C226.45 40.3401 225.71 39.2001 224.5 38.4301L224.45 38.4001C223.42 37.7701 222.19 37.2701 220.68 36.8801C219.26 36.5201 217.88 36.3301 216.56 36.3101C216.47 36.3101 216.38 36.3101 216.29 36.3101L216.27 36.3201Z" fill="#5F006D"/>
</g>
<defs>
<linearGradient id="paint0_linear_93_1348" x1="88.85" y1="15.9201" x2="92.89" y2="56.9101" gradientUnits="userSpaceOnUse">
<stop stop-color="#99F3FF"/>
<stop offset="0.15" stop-color="#32E7FF"/>
<stop offset="0.34" stop-color="#00E1FF"/>
<stop offset="0.75" stop-color="#00DFFF"/>
<stop offset="0.89" stop-color="#00D8FF"/>
<stop offset="1" stop-color="#00CCFF"/>
</linearGradient>
<linearGradient id="paint1_linear_93_1348" x1="44.7499" y1="42.97" x2="21.2899" y2="45.69" gradientUnits="userSpaceOnUse">
<stop offset="0.5" stop-color="white"/>
<stop offset="0.57" stop-color="white" stop-opacity="0.99"/>
<stop offset="0.63" stop-color="white" stop-opacity="0.94"/>
<stop offset="0.69" stop-color="white" stop-opacity="0.87"/>
<stop offset="0.74" stop-color="white" stop-opacity="0.77"/>
<stop offset="0.8" stop-color="white" stop-opacity="0.64"/>
<stop offset="0.85" stop-color="white" stop-opacity="0.48"/>
<stop offset="0.9" stop-color="white" stop-opacity="0.29"/>
<stop offset="0.95" stop-color="white" stop-opacity="0.07"/>
<stop offset="0.97" stop-color="white" stop-opacity="0"/>
</linearGradient>
<linearGradient id="paint2_linear_93_1348" x1="243.61" y1="59.4901" x2="265.49" y2="32.8701" gradientUnits="userSpaceOnUse">
<stop offset="0.08" stop-color="#7B0087"/>
<stop offset="0.55" stop-color="#AA04BC"/>
<stop offset="1" stop-color="#CA14DE"/>
</linearGradient>
<linearGradient id="paint3_linear_93_1348" x1="257.227" y1="22.345" x2="260.447" y2="64.0083" gradientUnits="userSpaceOnUse">
<stop offset="0.48" stop-color="#E72EED"/>
<stop offset="1" stop-color="#C400C9"/>
</linearGradient>
<linearGradient id="paint4_linear_93_1348" x1="195.62" y1="80.72" x2="211.38" y2="57.17" gradientUnits="userSpaceOnUse">
<stop offset="0.08" stop-color="#7B0087"/>
<stop offset="0.55" stop-color="#AA04BC"/>
<stop offset="1" stop-color="#CA14DE"/>
</linearGradient>
<linearGradient id="paint5_linear_93_1348" x1="175.092" y1="38.8352" x2="179.257" y2="82.8146" gradientUnits="userSpaceOnUse">
<stop offset="0.48" stop-color="#E72EED"/>
<stop offset="1" stop-color="#C400C9"/>
</linearGradient>
<linearGradient id="paint6_linear_93_1348" x1="150.34" y1="97.13" x2="166.94" y2="56.14" gradientUnits="userSpaceOnUse">
<stop offset="0.08" stop-color="#7B0087"/>
<stop offset="0.55" stop-color="#AA04BC"/>
<stop offset="1" stop-color="#CA14DE"/>
</linearGradient>
<linearGradient id="paint7_linear_93_1348" x1="145.521" y1="52.0792" x2="149.152" y2="91.5142" gradientUnits="userSpaceOnUse">
<stop offset="0.48" stop-color="#E72EED"/>
<stop offset="1" stop-color="#C400C9"/>
</linearGradient>
<linearGradient id="paint8_linear_93_1348" x1="110.2" y1="121.09" x2="110.59" y2="90.0699" gradientUnits="userSpaceOnUse">
<stop offset="0.08" stop-color="#7B0087"/>
<stop offset="0.55" stop-color="#AA04BC"/>
<stop offset="1" stop-color="#CA14DE"/>
</linearGradient>
<linearGradient id="paint9_linear_93_1348" x1="62.1408" y1="65.9355" x2="66.0269" y2="106.97" gradientUnits="userSpaceOnUse">
<stop offset="0.48" stop-color="#E72EED"/>
<stop offset="1" stop-color="#C400C9"/>
</linearGradient>
<linearGradient id="paint10_linear_93_1348" x1="56.56" y1="120.42" x2="56.95" y2="89.4001" gradientUnits="userSpaceOnUse">
<stop offset="0.08" stop-color="#7B0087"/>
<stop offset="0.55" stop-color="#AA04BC"/>
<stop offset="1" stop-color="#CA14DE"/>
</linearGradient>
<linearGradient id="paint11_linear_93_1348" x1="26.8565" y1="80.6367" x2="30.0875" y2="117.127" gradientUnits="userSpaceOnUse">
<stop offset="0.48" stop-color="#E72EED"/>
<stop offset="1" stop-color="#C400C9"/>
</linearGradient>
<clipPath id="clip0_93_1348">
<rect width="301.86" height="137.51" fill="white"/>
</clipPath>
</defs>
</svg>
