<svg width="412" height="429" viewBox="0 0 412 429" fill="none" xmlns="http://www.w3.org/2000/svg">
<path d="M361.2 428.88H50.66C22.73 428.88 0 406.15 0 378.22V50.66C0 22.73 22.73 0 50.66 0H361.2C389.13 0 411.86 22.73 411.86 50.66V378.22C411.86 406.15 389.13 428.88 361.2 428.88ZM50.66 17.95C32.62 17.95 17.95 32.62 17.95 50.66V378.22C17.95 396.26 32.62 410.93 50.66 410.93H361.2C379.24 410.93 393.91 396.26 393.91 378.22V50.66C393.91 32.62 379.24 17.95 361.2 17.95H50.66Z" fill="#850093"/>
<path d="M361.2 426.81H50.6601C23.8701 426.81 2.07007 405.01 2.07007 378.22V50.6598C2.07007 23.8698 23.8701 2.06982 50.6601 2.06982H361.2C387.99 2.06982 409.79 23.8698 409.79 50.6598V378.22C409.79 405.01 387.99 426.81 361.2 426.81ZM50.6601 15.8798C31.4801 15.8798 15.8801 31.4798 15.8801 50.6598V378.22C15.8801 397.4 31.4801 413 50.6601 413H361.2C380.38 413 395.98 397.4 395.98 378.22V50.6598C395.98 31.4798 380.38 15.8798 361.2 15.8798H50.6601Z" fill="#C800D8"/>
<path d="M361.2 424.04H50.6601C25.3901 424.04 4.83008 403.48 4.83008 378.21V50.6598C4.83008 25.3898 25.3901 4.83984 50.6601 4.83984H361.2C386.47 4.83984 407.03 25.3998 407.03 50.6698V378.23C407.03 403.5 386.47 424.06 361.2 424.06V424.04ZM50.6601 13.1198C29.9601 13.1198 13.1201 29.9598 13.1201 50.6598V378.22C13.1201 398.92 29.9601 415.76 50.6601 415.76H361.2C381.9 415.76 398.74 398.92 398.74 378.22V50.6598C398.74 29.9598 381.9 13.1198 361.2 13.1198H50.6601Z" fill="#E72EED"/>
<path d="M361.2 421.28H50.6601C26.9101 421.28 7.59009 401.96 7.59009 378.21V50.6598C7.59009 26.9098 26.9101 7.58984 50.6601 7.58984H361.2C384.95 7.58984 404.27 26.9098 404.27 50.6598V378.22C404.27 401.97 384.95 421.29 361.2 421.29V421.28ZM50.6601 10.3598C28.4401 10.3598 10.3601 28.4398 10.3601 50.6598V378.22C10.3601 400.44 28.4401 418.52 50.6601 418.52H361.2C383.42 418.52 401.5 400.44 401.5 378.22V50.6598C401.5 28.4398 383.42 10.3598 361.2 10.3598H50.6601Z" fill="#FBB3FF"/>
</svg>
