<svg width="416" height="432" viewBox="0 0 416 432" fill="none" xmlns="http://www.w3.org/2000/svg">
<path d="M361.2 429.88H50.66C22.73 429.88 0 407.15 0 379.22V51.66C0 23.73 22.73 1 50.66 1H361.2C389.13 1 411.86 23.73 411.86 51.66V379.22C411.86 407.15 389.13 429.88 361.2 429.88ZM50.66 18.95C32.62 18.95 17.95 33.62 17.95 51.66V379.22C17.95 397.26 32.62 411.93 50.66 411.93H361.2C379.24 411.93 393.91 397.26 393.91 379.22V51.66C393.91 33.62 379.24 18.95 361.2 18.95H50.66Z" fill="#850093"/>
<path d="M361.2 427.81H50.6601C23.8701 427.81 2.07007 406.01 2.07007 379.22V51.6598C2.07007 24.8698 23.8701 3.06982 50.6601 3.06982H361.2C387.99 3.06982 409.79 24.8698 409.79 51.6598V379.22C409.79 406.01 387.99 427.81 361.2 427.81ZM50.6601 16.8798C31.4801 16.8798 15.8801 32.4798 15.8801 51.6598V379.22C15.8801 398.4 31.4801 414 50.6601 414H361.2C380.38 414 395.98 398.4 395.98 379.22V51.6598C395.98 32.4798 380.38 16.8798 361.2 16.8798H50.6601Z" fill="#C800D8"/>
<path d="M361.2 425.04H50.6601C25.3901 425.04 4.83008 404.48 4.83008 379.21V51.6598C4.83008 26.3898 25.3901 5.83984 50.6601 5.83984H361.2C386.47 5.83984 407.03 26.3998 407.03 51.6698V379.23C407.03 404.5 386.47 425.06 361.2 425.06V425.04ZM50.6601 14.1198C29.9601 14.1198 13.1201 30.9598 13.1201 51.6598V379.22C13.1201 399.92 29.9601 416.76 50.6601 416.76H361.2C381.9 416.76 398.74 399.92 398.74 379.22V51.6598C398.74 30.9598 381.9 14.1198 361.2 14.1198H50.6601Z" fill="#E72EED"/>
<path d="M361.2 422.28H50.6601C26.9101 422.28 7.59009 402.96 7.59009 379.21V51.6598C7.59009 27.9098 26.9101 8.58984 50.6601 8.58984H361.2C384.95 8.58984 404.27 27.9098 404.27 51.6598V379.22C404.27 402.97 384.95 422.29 361.2 422.29V422.28ZM50.6601 11.3598C28.4401 11.3598 10.3601 29.4398 10.3601 51.6598V379.22C10.3601 401.44 28.4401 419.52 50.6601 419.52H361.2C383.42 419.52 401.5 401.44 401.5 379.22V51.6598C401.5 29.4398 383.42 11.3598 361.2 11.3598H50.6601Z" fill="#FBB3FF"/>
<g opacity="0.6">
<g opacity="0.8">
<g opacity="0.5">
<path d="M415.04 212.47H395.19V217.97H415.04V212.47Z" fill="#290A49"/>
</g>
<g opacity="0.5">
<path d="M415.04 207H395.19V212.5H415.04V207Z" fill="white"/>
</g>
<g opacity="0.5">
<path d="M415.04 217.96H395.19V223.46H415.04V217.96Z" fill="white"/>
</g>
</g>
<g opacity="0.8">
<g opacity="0.5">
<path d="M20.85 212.47H1V217.97H20.85V212.47Z" fill="#290A49"/>
</g>
<g opacity="0.5">
<path d="M20.85 207H1V212.5H20.85V207Z" fill="white"/>
</g>
<g opacity="0.5">
<path d="M20.85 217.96H1V223.46H20.85V217.96Z" fill="white"/>
</g>
</g>
</g>
<g opacity="0.6">
<g opacity="0.5">
<path d="M211 19.85V0L205.5 0V19.85H211Z" fill="#290A49"/>
</g>
<g opacity="0.5">
<path d="M216.47 19.85V0L210.97 0V19.85H216.47Z" fill="white"/>
</g>
<g opacity="0.5">
<path d="M205.5 19.85V0L200 0V19.85H205.5Z" fill="white"/>
</g>
</g>
<g opacity="0.6">
<g opacity="0.5">
<path d="M211 431.85V412H205.5V431.85H211Z" fill="#290A49"/>
</g>
<g opacity="0.5">
<path d="M216.47 431.85V412H210.97V431.85H216.47Z" fill="white"/>
</g>
<g opacity="0.5">
<path d="M205.5 431.85V412H200V431.85H205.5Z" fill="white"/>
</g>
</g>
</svg>
