<svg width="415" height="431" viewBox="0 0 415 431" fill="none" xmlns="http://www.w3.org/2000/svg">
<path d="M362.31 429H51.7699C23.8399 429 1.10986 406.27 1.10986 378.34V50.7801C1.10986 22.8501 23.8399 0.120117 51.7699 0.120117H362.31C390.24 0.120117 412.97 22.8501 412.97 50.7801V378.34C412.97 406.27 390.24 429 362.31 429ZM51.7699 18.0701C33.7299 18.0701 19.0599 32.7401 19.0599 50.7801V378.34C19.0599 396.38 33.7299 411.05 51.7699 411.05H362.31C380.35 411.05 395.02 396.38 395.02 378.34V50.7801C395.02 32.7401 380.35 18.0701 362.31 18.0701H51.7699Z" fill="#DB2BF9"/>
<path d="M362.31 426.93H51.7702C24.9802 426.93 3.18018 405.13 3.18018 378.34V50.7799C3.18018 23.9899 24.9802 2.18994 51.7702 2.18994H362.31C389.1 2.18994 410.9 23.9899 410.9 50.7799V378.34C410.9 405.13 389.1 426.93 362.31 426.93ZM51.7702 15.9999C32.5902 15.9999 16.9902 31.5999 16.9902 50.7799V378.34C16.9902 397.52 32.5902 413.12 51.7702 413.12H362.31C381.49 413.12 397.09 397.52 397.09 378.34V50.7799C397.09 31.5999 381.49 15.9999 362.31 15.9999H51.7702Z" fill="#EC66FF"/>
<path d="M362.31 424.16H51.7699C26.4999 424.16 5.93994 403.6 5.93994 378.33V50.78C5.93994 25.51 26.4999 4.95996 51.7699 4.95996H362.31C387.58 4.95996 408.14 25.52 408.14 50.79V378.35C408.14 403.62 387.58 424.18 362.31 424.18V424.16ZM51.7699 13.24C31.0699 13.24 14.2299 30.08 14.2299 50.78V378.34C14.2299 399.04 31.0699 415.88 51.7699 415.88H362.31C383.01 415.88 399.85 399.04 399.85 378.34V50.78C399.85 30.08 383.01 13.24 362.31 13.24H51.7699Z" fill="#F78DFF"/>
<path d="M362.31 421.4H51.7702C28.0202 421.4 8.7002 402.08 8.7002 378.33V50.78C8.7002 27.03 28.0202 7.70996 51.7702 7.70996H362.31C386.06 7.70996 405.38 27.03 405.38 50.78V378.34C405.38 402.09 386.06 421.41 362.31 421.41V421.4ZM51.7702 10.48C29.5502 10.48 11.4702 28.56 11.4702 50.78V378.34C11.4702 400.56 29.5502 418.64 51.7702 418.64H362.31C384.53 418.64 402.61 400.56 402.61 378.34V50.78C402.61 28.56 384.53 10.48 362.31 10.48H51.7702Z" fill="#FDE6FF"/>
<g opacity="0.6">
<g opacity="0.8">
<g opacity="0.5">
<path d="M414.04 211.8H394.19V217.3H414.04V211.8Z" fill="#290A49"/>
</g>
<g opacity="0.5">
<path d="M414.04 206.33H394.19V211.83H414.04V206.33Z" fill="white"/>
</g>
<g opacity="0.5">
<path d="M414.04 217.29H394.19V222.79H414.04V217.29Z" fill="white"/>
</g>
</g>
<g opacity="0.8">
<g opacity="0.5">
<path d="M19.85 211.8H0V217.3H19.85V211.8Z" fill="#290A49"/>
</g>
<g opacity="0.5">
<path d="M19.85 206.33H0V211.83H19.85V206.33Z" fill="white"/>
</g>
<g opacity="0.5">
<path d="M19.85 217.29H0V222.79H19.85V217.29Z" fill="white"/>
</g>
</g>
</g>
<g opacity="0.6">
<g opacity="0.5">
<path d="M209.81 430.04V410.19H204.31V430.04H209.81Z" fill="#290A49"/>
</g>
<g opacity="0.5">
<path d="M215.28 430.04V410.19H209.78V430.04H215.28Z" fill="white"/>
</g>
<g opacity="0.5">
<path d="M204.31 430.04V410.19H198.81V430.04H204.31Z" fill="white"/>
</g>
</g>
<g opacity="0.6">
<g opacity="0.5">
<path d="M209.81 19.85V0H204.31V19.85H209.81Z" fill="#290A49"/>
</g>
<g opacity="0.5">
<path d="M215.28 19.85V0H209.78V19.85H215.28Z" fill="white"/>
</g>
<g opacity="0.5">
<path d="M204.31 19.85V0H198.81V19.85H204.31Z" fill="white"/>
</g>
</g>
</svg>
