<svg width="391" height="220" viewBox="0 0 391 220" fill="none" xmlns="http://www.w3.org/2000/svg">
<path d="M376.47 217.953H14.4554C7.16938 217.953 1.24414 212.58 1.24414 205.981V12.5251C1.24414 5.92611 7.16938 0.553223 14.4554 0.553223H376.47C383.756 0.553223 389.681 5.92259 389.681 12.5251V205.977C389.681 212.58 383.752 217.949 376.47 217.949V217.953ZM14.4554 9.71355C12.7447 9.71355 11.3528 10.9749 11.3528 12.5251V205.977C11.3528 207.527 12.7447 208.789 14.4554 208.789H376.47C378.181 208.789 379.573 207.527 379.573 205.977V12.5251C379.573 10.9749 378.181 9.71355 376.47 9.71355H14.4554Z" fill="#850093"/>
<path d="M376.47 216.896H14.4555C7.8149 216.896 2.41064 211.999 2.41064 205.981V12.5252C2.41064 6.50761 7.8149 1.61035 14.4555 1.61035H376.47C383.111 1.61035 388.515 6.50761 388.515 12.5252V205.977C388.515 211.995 383.111 216.892 376.47 216.892V216.896ZM14.4555 8.65676C12.0994 8.65676 10.1865 10.3937 10.1865 12.5252V205.977C10.1865 208.112 12.1033 209.846 14.4555 209.846H376.47C378.826 209.846 380.739 208.109 380.739 205.977V12.5252C380.739 10.3902 378.823 8.65676 376.47 8.65676H14.4555Z" fill="#C800D8"/>
<path d="M376.47 215.486H14.455C8.66975 215.486 3.96533 211.223 3.96533 205.981V12.5251C3.96533 7.28261 8.66975 3.01953 14.455 3.01953H376.47C382.255 3.01953 386.96 7.28261 386.96 12.5251V205.977C386.96 211.22 382.255 215.483 376.47 215.483V215.486ZM14.455 7.24738C11.2436 7.24738 8.63087 9.61497 8.63087 12.5251V205.977C8.63087 208.887 11.2436 211.255 14.455 211.255H376.47C379.681 211.255 382.294 208.887 382.294 205.977V12.5251C382.294 9.61497 379.681 7.24738 376.47 7.24738H14.455Z" fill="#E72EED"/>
<path d="M376.47 214.077H14.455C9.52898 214.077 5.52051 210.445 5.52051 205.981V12.525C5.52051 8.06113 9.52898 4.42871 14.455 4.42871H376.47C381.396 4.42871 385.404 8.06113 385.404 12.525V205.977C385.404 210.441 381.396 214.073 376.47 214.073V214.077ZM14.455 5.83799C10.3843 5.83799 7.07569 8.83976 7.07569 12.525V205.977C7.07569 209.666 10.3882 212.664 14.455 212.664H376.47C380.54 212.664 383.849 209.662 383.849 205.977V12.525C383.849 8.83624 380.537 5.83799 376.47 5.83799H14.455Z" fill="#FBB3FF"/>
<g opacity="0.6">
<g opacity="0.5">
<path d="M12.4842 107.68H0V110.812H12.4842V107.68Z" fill="#290A49"/>
</g>
<g opacity="0.5">
<path d="M12.4842 104.562H0V107.694H12.4842V104.562Z" fill="white"/>
</g>
<g opacity="0.5">
<path d="M12.4842 110.812H0V113.944H12.4842V110.812Z" fill="white"/>
</g>
<g opacity="0.5">
<path d="M390.84 107.68H378.356V110.812H390.84V107.68Z" fill="#290A49"/>
</g>
<g opacity="0.5">
<path d="M390.84 104.562H378.356V107.694H390.84V104.562Z" fill="white"/>
</g>
<g opacity="0.5">
<path d="M390.84 110.812H378.356V113.944H390.84V110.812Z" fill="white"/>
</g>
</g>
<g opacity="0.8">
<g opacity="0.5">
<path d="M286.942 11.313V0L283.486 0V11.313H286.942Z" fill="#290A49"/>
</g>
<g opacity="0.5">
<path d="M290.383 11.313V0L286.927 0V11.313H290.383Z" fill="white"/>
</g>
<g opacity="0.5">
<path d="M283.486 11.313V0L280.03 0V11.313H283.486Z" fill="white"/>
</g>
<g opacity="0.5">
<path d="M106.592 11.313V0L103.136 0V11.313H106.592Z" fill="#290A49"/>
</g>
<g opacity="0.5">
<path d="M110.029 11.313V0L106.572 0V11.313H110.029Z" fill="white"/>
</g>
<g opacity="0.5">
<path d="M103.135 11.313V0L99.6789 0V11.313H103.135Z" fill="white"/>
</g>
<g opacity="0.5">
<path d="M286.942 219.584V208.271H283.486V219.584H286.942Z" fill="#290A49"/>
</g>
<g opacity="0.5">
<path d="M290.379 219.587V208.274H286.923V219.587H290.379Z" fill="white"/>
</g>
<g opacity="0.5">
<path d="M283.486 219.587V208.274H280.03V219.587H283.486Z" fill="white"/>
</g>
<g opacity="0.5">
<path d="M106.592 219.587V208.274H103.136V219.587H106.592Z" fill="#290A49"/>
</g>
<g opacity="0.5">
<path d="M110.029 219.587V208.274H106.572V219.587H110.029Z" fill="white"/>
</g>
<g opacity="0.5">
<path d="M103.136 219.587V208.274H99.6793V219.587H103.136Z" fill="white"/>
</g>
</g>
</svg>
