<svg width="393" height="502" viewBox="0 0 393 502" fill="none" xmlns="http://www.w3.org/2000/svg">
<g clip-path="url(#clip0_49_12718)">
<path d="M378.385 500.016H14.5289C7.20586 500.016 1.25049 494.06 1.25049 486.744V14.487C1.25049 7.16734 7.20586 1.21082 14.5289 1.21082H378.385C385.708 1.21082 391.663 7.16734 391.663 14.4831V486.74C391.663 494.06 385.704 500.012 378.385 500.012V500.016ZM14.5289 11.3662C12.8095 11.3662 11.4106 12.7645 11.4106 14.4831V486.74C11.4106 488.459 12.8095 489.857 14.5289 489.857H378.385C380.104 489.857 381.503 488.459 381.503 486.74V14.487C381.503 12.7684 380.104 11.3701 378.385 11.3701H14.5289V11.3662Z" fill="#850093"/>
<path d="M378.385 498.844H14.529C7.85459 498.844 2.42285 493.415 2.42285 486.744V14.487C2.42285 7.8157 7.85459 2.38647 14.529 2.38647H378.385C385.059 2.38647 390.491 7.8157 390.491 14.487V486.744C390.491 493.415 385.059 498.844 378.385 498.844ZM14.529 10.1944C12.1609 10.1944 10.2383 12.12 10.2383 14.4831V486.74C10.2383 489.107 12.1648 491.029 14.529 491.029H378.385C380.753 491.029 382.676 489.103 382.676 486.74V14.487C382.676 12.12 380.749 10.1983 378.385 10.1983H14.529V10.1944Z" fill="#C800D8"/>
<path d="M378.385 497.282H14.5289C8.71418 497.282 3.98584 492.556 3.98584 486.744V14.487C3.98584 8.67501 8.71418 3.94885 14.5289 3.94885H378.385C384.199 3.94885 388.928 8.67501 388.928 14.487V486.744C388.928 492.556 384.199 497.282 378.385 497.282ZM14.5289 8.63205C11.3011 8.63205 8.67511 11.2568 8.67511 14.4831V486.74C8.67511 489.966 11.3011 492.591 14.5289 492.591H378.385C381.613 492.591 384.239 489.966 384.239 486.74V14.487C384.239 11.2607 381.613 8.63596 378.385 8.63596H14.5289V8.63205Z" fill="#E72EED"/>
<path d="M378.385 495.72H14.529C9.57793 495.72 5.54907 491.693 5.54907 486.744V14.487C5.54907 9.53823 9.57793 5.51123 14.529 5.51123H378.385C383.336 5.51123 387.365 9.53823 387.365 14.487V486.744C387.365 491.693 383.336 495.72 378.385 495.72ZM14.529 7.06969C10.4376 7.06969 7.11216 10.3975 7.11216 14.4831V486.74C7.11216 490.83 10.4415 494.153 14.529 494.153H378.385C382.476 494.153 385.802 490.826 385.802 486.74V14.487C385.802 10.3975 382.472 7.0736 378.385 7.0736H14.529V7.06969Z" fill="#FBB3FF"/>
<g opacity="0.8">
<g opacity="0.5">
<path d="M12.5477 159.448H0V162.92H12.5477V159.448Z" fill="#290A49"/>
</g>
<g opacity="0.5">
<path opacity="0.4" d="M12.5477 155.995H0V159.467H12.5477V155.995Z" fill="white"/>
</g>
<g opacity="0.5">
<path opacity="0.4" d="M12.5477 162.92H0V166.392H12.5477V162.92Z" fill="white"/>
</g>
<g opacity="0.5">
<path d="M12.5477 340.631H0V344.104H12.5477V340.631Z" fill="#290A49"/>
</g>
<g opacity="0.5">
<path opacity="0.4" d="M12.5477 337.178H0V340.651H12.5477V337.178Z" fill="white"/>
</g>
<g opacity="0.5">
<path opacity="0.4" d="M12.5477 344.108H0V347.58H12.5477V344.108Z" fill="white"/>
</g>
<g opacity="0.5">
<path d="M392.828 159.448H380.28V162.92H392.828V159.448Z" fill="#290A49"/>
</g>
<g opacity="0.5">
<path opacity="0.4" d="M392.828 155.995H380.28V159.467H392.828V155.995Z" fill="white"/>
</g>
<g opacity="0.5">
<path opacity="0.4" d="M392.828 162.92H380.28V166.392H392.828V162.92Z" fill="white"/>
</g>
<g opacity="0.5">
<path d="M392.828 340.631H380.28V344.104H392.828V340.631Z" fill="#290A49"/>
</g>
<g opacity="0.5">
<path opacity="0.4" d="M392.828 337.178H380.28V340.651H392.828V337.178Z" fill="white"/>
</g>
<g opacity="0.5">
<path opacity="0.4" d="M392.828 344.108H380.28V347.58H392.828V344.108Z" fill="white"/>
</g>
</g>
<g opacity="0.8">
<g opacity="0.5">
<path d="M288.011 12.5419V0L284.537 0V12.5419H288.011Z" fill="#290A49"/>
</g>
<g opacity="0.4">
<path d="M291.469 12.5419V0L287.995 0V12.5419H291.469Z" fill="white"/>
</g>
<g opacity="0.5">
<path opacity="0.4" d="M284.537 12.5419V0L281.063 0V12.5419H284.537Z" fill="white"/>
</g>
<g opacity="0.5">
<path d="M106.743 12.5419V0L103.269 0V12.5419H106.743Z" fill="#290A49"/>
</g>
<g opacity="0.5">
<path opacity="0.4" d="M110.198 12.5419V0L106.724 0V12.5419H110.198Z" fill="white"/>
</g>
<g opacity="0.5">
<path opacity="0.4" d="M103.269 12.5419V0L99.7953 0V12.5419H103.269Z" fill="white"/>
</g>
<g opacity="0.5">
<path d="M288.011 501.227V488.685H284.537V501.227H288.011Z" fill="#290A49"/>
</g>
<g opacity="0.5">
<path opacity="0.4" d="M291.465 501.231V488.689H287.991V501.231H291.465Z" fill="white"/>
</g>
<g opacity="0.5">
<path opacity="0.4" d="M284.537 501.231V488.689H281.063V501.231H284.537Z" fill="white"/>
</g>
<g opacity="0.5">
<path d="M106.743 501.231V488.689H103.269V501.231H106.743Z" fill="#290A49"/>
</g>
<g opacity="0.5">
<path opacity="0.4" d="M110.198 501.231V488.689H106.724V501.231H110.198Z" fill="white"/>
</g>
<g opacity="0.5">
<path opacity="0.4" d="M103.269 501.231V488.689H99.7953V501.231H103.269Z" fill="white"/>
</g>
</g>
</g>
<defs>
<clipPath id="clip0_49_12718">
<rect width="392.828" height="501.231" fill="white"/>
</clipPath>
</defs>
</svg>
