<svg width="393" height="792" viewBox="0 0 393 792" fill="none" xmlns="http://www.w3.org/2000/svg">
<mask id="mask0_113_27071" style="mask-type:luminance" maskUnits="userSpaceOnUse" x="0" y="0" width="393" height="792">
<path d="M392.83 0H0V791.23H392.83V0Z" fill="white"/>
</mask>
<g mask="url(#mask0_113_27071)">
<path d="M378.38 790.02H14.52C7.19999 790.02 1.23999 784.06 1.23999 776.75V14.49C1.23999 7.16996 7.19999 1.20996 14.52 1.20996H378.38C385.7 1.20996 391.66 7.16996 391.66 14.48V776.74C391.66 784.06 385.7 790.01 378.38 790.01V790.02ZM14.52 11.37C12.8 11.37 11.4 12.77 11.4 14.49V776.75C11.4 778.47 12.8 779.87 14.52 779.87H378.38C380.1 779.87 381.5 778.47 381.5 776.75V14.49C381.5 12.77 380.1 11.37 378.38 11.37H14.52Z" fill="#850093"/>
<path d="M378.38 788.85H14.5299C7.84992 788.85 2.41992 783.42 2.41992 776.75V14.4899C2.41992 7.81989 7.84992 2.38989 14.5299 2.38989H378.38C385.05 2.38989 390.49 7.81989 390.49 14.4899V776.75C390.49 783.42 385.06 788.85 378.38 788.85ZM14.5299 10.1999C12.1599 10.1999 10.2399 12.1199 10.2399 14.4899V776.75C10.2399 779.12 12.1699 781.04 14.5299 781.04H378.38C380.75 781.04 382.67 779.11 382.67 776.75V14.4899C382.67 12.1199 380.74 10.1999 378.38 10.1999H14.5299Z" fill="#C800D8"/>
<path d="M378.38 787.29H14.52C8.70998 787.29 3.97998 782.56 3.97998 776.75V14.49C3.97998 8.67995 8.70998 3.94995 14.52 3.94995H378.38C384.2 3.94995 388.92 8.67995 388.92 14.49V776.75C388.92 782.56 384.19 787.29 378.38 787.29ZM14.52 8.63995C11.29 8.63995 8.66998 11.26 8.66998 14.49V776.75C8.66998 779.98 11.3 782.6 14.52 782.6H378.38C381.61 782.6 384.23 779.98 384.23 776.75V14.49C384.23 11.26 381.6 8.63995 378.38 8.63995H14.52Z" fill="#E72EED"/>
<path d="M378.38 785.72H14.53C9.58005 785.72 5.55005 781.69 5.55005 776.74V14.49C5.55005 9.54001 9.58005 5.51001 14.53 5.51001H378.38C383.33 5.51001 387.36 9.54001 387.36 14.49V776.75C387.36 781.7 383.33 785.73 378.38 785.73V785.72ZM14.53 7.07001C10.44 7.07001 7.11005 10.4 7.11005 14.48V776.74C7.11005 780.83 10.44 784.15 14.53 784.15H378.38C382.47 784.15 385.8 780.82 385.8 776.74V14.49C385.8 10.4 382.47 7.08001 378.38 7.08001H14.53V7.07001Z" fill="#FBB3FF"/>
<g opacity="0.8">
<g opacity="0.5">
<path d="M288.01 12.55V0.0100098H284.54V12.55H288.01Z" fill="#290A49"/>
</g>
<g opacity="0.4">
<path d="M291.47 12.55V0.0100098H288V12.55H291.47Z" fill="white"/>
</g>
<g opacity="0.5">
<path opacity="0.4" d="M284.53 12.55V0.0100098H281.06V12.55H284.53Z" fill="white"/>
</g>
<g opacity="0.5">
<path d="M106.74 12.55V0.0100098H103.27V12.55H106.74Z" fill="#290A49"/>
</g>
<g opacity="0.5">
<path opacity="0.4" d="M110.19 12.55V0.0100098H106.72V12.55H110.19Z" fill="white"/>
</g>
<g opacity="0.5">
<path opacity="0.4" d="M103.26 12.55V0.0100098H99.79V12.55H103.26Z" fill="white"/>
</g>
<g opacity="0.5">
<path d="M288.01 791.23V778.69H284.54V791.23H288.01Z" fill="#290A49"/>
</g>
<g opacity="0.5">
<path opacity="0.4" d="M291.46 791.23V778.69H287.99V791.23H291.46Z" fill="white"/>
</g>
<g opacity="0.5">
<path opacity="0.4" d="M284.53 791.23V778.69H281.06V791.23H284.53Z" fill="white"/>
</g>
<g opacity="0.5">
<path d="M106.74 791.23V778.69H103.27V791.23H106.74Z" fill="#290A49"/>
</g>
<g opacity="0.5">
<path opacity="0.4" d="M110.19 791.23V778.69H106.72V791.23H110.19Z" fill="white"/>
</g>
<g opacity="0.5">
<path opacity="0.4" d="M103.26 791.23V778.69H99.79V791.23H103.26Z" fill="white"/>
</g>
</g>
</g>
</svg>
